<svg width="985" height="235" xmlns="http://www.w3.org/2000/svg" xmlns:xlink="http://www.w3.org/1999/xlink" overflow="hidden"><defs><clipPath id="clip0"><rect x="58" y="66" width="985" height="235"/></clipPath><clipPath id="clip1"><rect x="58" y="22" width="210" height="135"/></clipPath><clipPath id="clip2"><rect x="267" y="22" width="264" height="135"/></clipPath><clipPath id="clip3"><rect x="530" y="22" width="253" height="135"/></clipPath><clipPath id="clip4"><rect x="782" y="22" width="260" height="135"/></clipPath><clipPath id="clip5"><rect x="58" y="-278" width="210" height="916"/></clipPath><clipPath id="clip6"><rect x="58" y="-278" width="210" height="916"/></clipPath><clipPath id="clip7"><rect x="58" y="-278" width="210" height="916"/></clipPath><clipPath id="clip8"><rect x="58" y="-278" width="210" height="916"/></clipPath><clipPath id="clip9"><rect x="58" y="-278" width="210" height="916"/></clipPath><clipPath id="clip10"><rect x="267" y="-416" width="264" height="1237"/></clipPath><clipPath id="clip11"><rect x="267" y="-416" width="264" height="1237"/></clipPath><clipPath id="clip12"><rect x="267" y="-416" width="264" height="1237"/></clipPath><clipPath id="clip13"><rect x="267" y="-416" width="264" height="1237"/></clipPath><clipPath id="clip14"><rect x="267" y="-416" width="264" height="1237"/></clipPath><clipPath id="clip15"><rect x="267" y="-416" width="264" height="1237"/></clipPath><clipPath id="clip16"><rect x="530" y="-331" width="253" height="1039"/></clipPath><clipPath id="clip17"><rect x="530" y="-331" width="253" height="1039"/></clipPath><clipPath id="clip18"><rect x="530" y="-331" width="253" height="1039"/></clipPath><clipPath id="clip19"><rect x="530" y="-331" width="253" height="1039"/></clipPath><clipPath id="clip20"><rect x="530" y="-331" width="253" height="1039"/></clipPath><clipPath id="clip21"><rect x="782" y="-416" width="260" height="1237"/></clipPath><clipPath id="clip22"><rect x="782" y="-416" width="260" height="1237"/></clipPath><clipPath id="clip23"><rect x="782" y="-416" width="260" height="1237"/></clipPath><clipPath id="clip24"><rect x="782" y="-416" width="260" height="1237"/></clipPath><clipPath id="clip25"><rect x="782" y="-416" width="260" height="1237"/></clipPath><clipPath id="clip26"><rect x="782" y="-416" width="260" height="1237"/></clipPath></defs><g clip-path="url(#clip0)" transform="translate(-58 -66)"><path d="M58.6493 67.0826 1041.03 67.0826" stroke="#70AD47" stroke-width="1.33333" stroke-linejoin="round" stroke-miterlimit="10" fill="none" fill-rule="evenodd"/><path d="M58.6493 299.45 1041.03 299.45" stroke="#70AD47" stroke-width="1.33333" stroke-linejoin="round" stroke-miterlimit="10" fill="none" fill-rule="evenodd"/><g clip-path="url(#clip1)"><text font-family="Calibri,Calibri_MSFontService,sans-serif" font-weight="700" font-size="16" transform="translate(59.2288 95)">Root Zone Depth</text></g><path d="M59.2288 96.7723 96.8954 96.7723 134.562 96.7723 172.229 96.7723 172.229 97.7723 134.562 97.7723 96.8954 97.7723 59.2288 97.7723Z" fill-rule="evenodd"/><g clip-path="url(#clip2)"><text font-family="Calibri,Calibri_MSFontService,sans-serif" font-weight="700" font-size="16" transform="translate(268.323 95)">Rec RZD</text></g><path d="M268.323 96.7723 322.323 96.7723 322.323 97.7723 268.323 97.7723Z" fill-rule="evenodd"/><g clip-path="url(#clip3)"><text font-family="Calibri,Calibri_MSFontService,sans-serif" font-weight="700" font-size="16" transform="translate(530.781 95)">Drainage</text></g><path d="M530.781 96.7723 589.781 96.7723 589.781 97.7723 530.781 97.7723Z" fill-rule="evenodd"/><g clip-path="url(#clip4)"><text font-family="Calibri,Calibri_MSFontService,sans-serif" font-weight="700" font-size="16" transform="translate(782.671 95)">Rec Drainage</text></g><path d="M782.671 96.7723 825.671 96.7723 868.671 96.7723 868.671 97.7723 825.671 97.7723 782.671 97.7723Z" fill-rule="evenodd"/><g clip-path="url(#clip5)"><text font-family="Calibri,Calibri_MSFontService,sans-serif" font-weight="400" font-size="15" transform="translate(59.2288 129)">1.</text></g><text font-family="Calibri,Calibri_MSFontService,sans-serif" font-weight="400" font-size="15" transform="translate(73.6288 129)">​<tspan font-weight="700" font-size="15" x="0" y="0">Input layer</tspan><tspan font-size="15" x="66.1667" y="0">: Input Polygon</tspan></text><g clip-path="url(#clip6)"><text font-family="Calibri,Calibri_MSFontService,sans-serif" font-weight="400" font-size="15" transform="translate(59.2288 157)">2.</text></g><text font-family="Calibri,Calibri_MSFontService,sans-serif" font-weight="400" font-size="15" transform="translate(73.6288 157)">​<tspan font-weight="700" font-size="15" x="0" y="0">Raster layer</tspan><tspan font-size="15" x="72.6667" y="0">: Root Zone Depth</tspan></text><g clip-path="url(#clip7)"><text font-family="Calibri,Calibri_MSFontService,sans-serif" font-weight="400" font-size="15" transform="translate(59.2288 185)">3. </text></g><text font-family="Calibri,Calibri_MSFontService,sans-serif" font-weight="700" font-size="15" transform="translate(73.7288 185)">Types of Statistics:<tspan font-weight="400" font-size="15" x="116.667" y="0">mean</tspan></text><g clip-path="url(#clip8)"><text font-family="Calibri,Calibri_MSFontService,sans-serif" font-weight="400" font-size="15" transform="translate(59.2288 213)">4. </text></g><text font-family="Calibri,Calibri_MSFontService,sans-serif" font-weight="700" font-size="15" transform="translate(73.7288 213)">Output column prefix: <tspan font-weight="400" font-size="15" x="138.5" y="0">RZD</tspan></text><g clip-path="url(#clip9)"><text font-family="Calibri,Calibri_MSFontService,sans-serif" font-weight="400" font-size="15" transform="translate(59.2288 242)">5. </text></g><text font-family="Calibri,Calibri_MSFontService,sans-serif" font-weight="700" font-size="15" transform="translate(73.7288 242)">No data value: <tspan font-weight="400" font-size="15" x="91.8333" y="0">255</tspan></text><g clip-path="url(#clip10)"><text font-family="Calibri,Calibri_MSFontService,sans-serif" font-weight="400" font-size="15" transform="translate(268.323 129)">1.</text></g><text font-family="Calibri,Calibri_MSFontService,sans-serif" font-weight="400" font-size="15" transform="translate(282.723 129)">​<tspan font-weight="700" font-size="15" x="0" y="0">​​Input layer</tspan><tspan font-size="15" x="66.1667" y="0">: 'Output layer' from </tspan><tspan font-size="15" x="0" y="17">algorithm 'Root Zone Depth'</tspan></text><g clip-path="url(#clip11)"><text font-family="Calibri,Calibri_MSFontService,sans-serif" font-weight="400" font-size="15" transform="translate(268.323 175)">2.</text></g><text font-family="Calibri,Calibri_MSFontService,sans-serif" font-weight="400" font-size="15" transform="translate(282.723 175)">​<tspan font-weight="700" font-size="15" x="0" y="0">​Field to</tspan><tspan font-weight="700" font-size="15" x="48.8333" y="0">reclassify</tspan>:<tspan font-size="15" x="112.667" y="0">RZD_mean</tspan></text><g clip-path="url(#clip12)"><text font-family="Calibri,Calibri_MSFontService,sans-serif" font-weight="400" font-size="15" transform="translate(268.323 203)">3.</text></g><text font-family="Calibri,Calibri_MSFontService,sans-serif" font-weight="400" font-size="15" transform="translate(282.723 203)">​<tspan font-weight="700" font-size="15" x="0" y="0">​Old values</tspan><tspan font-size="15" x="63.6667" y="0">: 0</tspan><tspan font-size="15" x="78.5" y="0">-</tspan>15, 15-45, 45-60, 60-150​</text><g clip-path="url(#clip13)"><text font-family="Calibri,Calibri_MSFontService,sans-serif" font-weight="400" font-size="15" transform="translate(268.323 231)">4. </text></g><text font-family="Calibri,Calibri_MSFontService,sans-serif" font-weight="700" font-size="15" transform="translate(282.823 231)">New values: <tspan font-weight="400" font-size="15" x="77.5" y="0">3, 5, 7, 9</tspan></text><g clip-path="url(#clip14)"><text font-family="Calibri,Calibri_MSFontService,sans-serif" font-weight="400" font-size="15" transform="translate(268.323 259)">5. </text></g><text font-family="Calibri,Calibri_MSFontService,sans-serif" font-weight="700" font-size="15" transform="translate(282.823 259)">N<tspan font-size="15" x="9.66669" y="0">o data value: </tspan><tspan font-weight="400" font-size="15" x="91.8333" y="0">0</tspan></text><g clip-path="url(#clip15)"><text font-family="Calibri,Calibri_MSFontService,sans-serif" font-weight="400" font-size="15" transform="translate(268.323 288)">6. ​</text></g><text font-family="Calibri,Calibri_MSFontService,sans-serif" font-weight="700" font-size="15" transform="translate(282.823 288)">​​Output column name<tspan font-weight="400" font-size="15" x="130.167" y="0">: </tspan><tspan font-weight="400" font-size="15" x="137.5" y="0">RZD_r</tspan></text><g clip-path="url(#clip16)"><text font-family="Calibri,Calibri_MSFontService,sans-serif" font-weight="400" font-size="15" transform="translate(530.781 129)">1.</text></g><text font-family="Calibri,Calibri_MSFontService,sans-serif" font-weight="400" font-size="15" transform="translate(545.181 129)">​<tspan font-weight="700" font-size="15" x="0" y="0">Input layer</tspan><tspan font-size="15" x="66.1667" y="0">: 'Output layer' from </tspan><tspan font-size="15" x="0" y="17">algorithm 'Rec RZD’</tspan></text><g clip-path="url(#clip17)"><text font-family="Calibri,Calibri_MSFontService,sans-serif" font-weight="400" font-size="15" transform="translate(530.781 175)">2.</text></g><text font-family="Calibri,Calibri_MSFontService,sans-serif" font-weight="400" font-size="15" transform="translate(545.181 175)">​<tspan font-weight="700" font-size="15" x="0" y="0">Raster layer</tspan><tspan font-size="15" x="72.6667" y="0">: Drainage</tspan></text><g clip-path="url(#clip18)"><text font-family="Calibri,Calibri_MSFontService,sans-serif" font-weight="400" font-size="15" transform="translate(530.781 203)">3. </text></g><text font-family="Calibri,Calibri_MSFontService,sans-serif" font-weight="700" font-size="15" transform="translate(545.281 203)">Types of Statistics:<tspan font-weight="400" font-size="15" x="116.667" y="0">mean</tspan></text><g clip-path="url(#clip19)"><text font-family="Calibri,Calibri_MSFontService,sans-serif" font-weight="400" font-size="15" transform="translate(530.781 231)">4. </text></g><text font-family="Calibri,Calibri_MSFontService,sans-serif" font-weight="700" font-size="15" transform="translate(545.281 231)">Output column prefix: <tspan font-weight="400" font-size="15" x="138.5" y="0">Drain</tspan></text><g clip-path="url(#clip20)"><text font-family="Calibri,Calibri_MSFontService,sans-serif" font-weight="400" font-size="15" transform="translate(530.781 259)">5. </text></g><text font-family="Calibri,Calibri_MSFontService,sans-serif" font-weight="700" font-size="15" transform="translate(545.281 259)">No data value: <tspan font-weight="400" font-size="15" x="91.8334" y="0">255</tspan></text><g clip-path="url(#clip21)"><text font-family="Calibri,Calibri_MSFontService,sans-serif" font-weight="400" font-size="15" transform="translate(782.671 129)">1.</text></g><text font-family="Calibri,Calibri_MSFontService,sans-serif" font-weight="400" font-size="15" transform="translate(797.071 129)">​<tspan font-weight="700" font-size="15" x="0" y="0">​​Input layer</tspan><tspan font-size="15" x="66.1667" y="0">: 'Output layer' from </tspan><tspan font-size="15" x="0" y="17">algorithm 'Drainage’</tspan></text><g clip-path="url(#clip22)"><text font-family="Calibri,Calibri_MSFontService,sans-serif" font-weight="400" font-size="15" transform="translate(782.671 175)">2.</text></g><text font-family="Calibri,Calibri_MSFontService,sans-serif" font-weight="400" font-size="15" transform="translate(797.071 175)">​<tspan font-weight="700" font-size="15" x="0" y="0">​Field to</tspan><tspan font-weight="700" font-size="15" x="48.8334" y="0">reclassify</tspan>:<tspan font-size="15" x="112.667" y="0">Drain_mean</tspan></text><g clip-path="url(#clip23)"><text font-family="Calibri,Calibri_MSFontService,sans-serif" font-weight="400" font-size="15" transform="translate(782.671 203)">3.</text></g><text font-family="Calibri,Calibri_MSFontService,sans-serif" font-weight="400" font-size="15" transform="translate(797.071 203)">​<tspan font-weight="700" font-size="15" x="0" y="0">​Old values</tspan><tspan font-size="15" x="63.6667" y="0">: 3</tspan><tspan font-size="15" x="78.5" y="0">-</tspan>3.5, 3.5<tspan font-size="15" x="127.333" y="0">-</tspan>4.5, 4.5<tspan font-size="15" x="176.167" y="0">-</tspan>5</text><g clip-path="url(#clip24)"><text font-family="Calibri,Calibri_MSFontService,sans-serif" font-weight="400" font-size="15" transform="translate(782.671 231)">4. </text></g><text font-family="Calibri,Calibri_MSFontService,sans-serif" font-weight="700" font-size="15" transform="translate(797.171 231)">New values<tspan font-weight="400" font-size="15" x="70.1666" y="0">: 3, 7, 9 </tspan></text><g clip-path="url(#clip25)"><text font-family="Calibri,Calibri_MSFontService,sans-serif" font-weight="400" font-size="15" transform="translate(782.671 259)">5. </text></g><text font-family="Calibri,Calibri_MSFontService,sans-serif" font-weight="700" font-size="15" transform="translate(797.171 259)">N<tspan font-size="15" x="9.66663" y="0">o data value: </tspan><tspan font-weight="400" font-size="15" x="91.8333" y="0">0</tspan></text><g clip-path="url(#clip26)"><text font-family="Calibri,Calibri_MSFontService,sans-serif" font-weight="400" font-size="15" transform="translate(782.671 288)">6. ​</text></g><text font-family="Calibri,Calibri_MSFontService,sans-serif" font-weight="700" font-size="15" transform="translate(797.171 288)">​​Output column name<tspan font-weight="400" font-size="15" x="130.167" y="0">: </tspan><tspan font-weight="400" font-size="15" x="137.5" y="0">Drain_r</tspan></text></g></svg>