<svg width="990" height="366" xmlns="http://www.w3.org/2000/svg" xmlns:xlink="http://www.w3.org/1999/xlink" overflow="hidden"><defs><clipPath id="clip0"><rect x="58" y="328" width="990" height="366"/></clipPath><clipPath id="clip1"><rect x="58" y="285" width="179" height="135"/></clipPath><clipPath id="clip2"><rect x="236" y="285" width="178" height="135"/></clipPath><clipPath id="clip3"><rect x="413" y="285" width="231" height="135"/></clipPath><clipPath id="clip4"><rect x="643" y="285" width="196" height="135"/></clipPath><clipPath id="clip5"><rect x="838" y="217" width="209" height="270"/></clipPath><clipPath id="clip6"><rect x="838" y="217" width="209" height="270"/></clipPath><clipPath id="clip7"><rect x="58" y="-279" width="179" height="1532"/></clipPath><clipPath id="clip8"><rect x="58" y="-279" width="179" height="1532"/></clipPath><clipPath id="clip9"><rect x="58" y="-279" width="179" height="1532"/></clipPath><clipPath id="clip10"><rect x="58" y="-279" width="179" height="1532"/></clipPath><clipPath id="clip11"><rect x="58" y="-279" width="179" height="1532"/></clipPath><clipPath id="clip12"><rect x="236" y="-522" width="178" height="2099"/></clipPath><clipPath id="clip13"><rect x="236" y="-522" width="178" height="2099"/></clipPath><clipPath id="clip14"><rect x="236" y="-522" width="178" height="2099"/></clipPath><clipPath id="clip15"><rect x="236" y="-522" width="178" height="2099"/></clipPath><clipPath id="clip16"><rect x="236" y="-522" width="178" height="2099"/></clipPath><clipPath id="clip17"><rect x="236" y="-522" width="178" height="2099"/></clipPath><clipPath id="clip18"><rect x="236" y="-522" width="178" height="2099"/></clipPath><clipPath id="clip19"><rect x="413" y="-531" width="231" height="2121"/></clipPath><clipPath id="clip20"><rect x="413" y="-531" width="231" height="2121"/></clipPath><clipPath id="clip21"><rect x="413" y="-531" width="231" height="2121"/></clipPath><clipPath id="clip22"><rect x="413" y="-531" width="231" height="2121"/></clipPath><clipPath id="clip23"><rect x="413" y="-531" width="231" height="2121"/></clipPath><clipPath id="clip24"><rect x="643" y="-426" width="196" height="1875"/></clipPath><clipPath id="clip25"><rect x="643" y="-426" width="196" height="1875"/></clipPath><clipPath id="clip26"><rect x="643" y="-426" width="196" height="1875"/></clipPath><clipPath id="clip27"><rect x="838" y="-490" width="209" height="2025"/></clipPath><clipPath id="clip28"><rect x="838" y="-490" width="209" height="2025"/></clipPath><clipPath id="clip29"><rect x="838" y="-490" width="209" height="2025"/></clipPath><clipPath id="clip30"><rect x="838" y="-490" width="209" height="2025"/></clipPath><clipPath id="clip31"><rect x="838" y="-490" width="209" height="2025"/></clipPath><clipPath id="clip32"><rect x="838" y="-490" width="209" height="2025"/></clipPath><clipPath id="clip33"><rect x="838" y="-490" width="209" height="2025"/></clipPath><clipPath id="clip34"><rect x="838" y="-490" width="209" height="2025"/></clipPath></defs><g clip-path="url(#clip0)" transform="translate(-58 -328)"><path d="M58.6493 329.541 1046.31 329.541" stroke="#70AD47" stroke-width="1.33333" stroke-linejoin="round" stroke-miterlimit="10" fill="none" fill-rule="evenodd"/><path d="M58.6493 692.257 1046.31 692.257" stroke="#70AD47" stroke-width="1.33333" stroke-linejoin="round" stroke-miterlimit="10" fill="none" fill-rule="evenodd"/><g clip-path="url(#clip1)"><text font-family="Calibri,Calibri_MSFontService,sans-serif" font-weight="700" font-size="16" transform="translate(59.2288 358)">PH (0</text></g><text font-family="Calibri,Calibri_MSFontService,sans-serif" font-weight="700" font-size="16" transform="translate(94.7288 358)">-<tspan font-size="16" x="4.83334" y="0">5 cm)</tspan></text><path d="M59.2288 359.651 97.7288 359.651 136.229 359.651 136.229 360.651 97.7288 360.651 59.2288 360.651Z" fill-rule="evenodd"/><g clip-path="url(#clip2)"><text font-family="Calibri,Calibri_MSFontService,sans-serif" font-weight="700" font-size="16" transform="translate(237.497 358)">Rec PH (0</text></g><text font-family="Calibri,Calibri_MSFontService,sans-serif" font-weight="700" font-size="16" transform="translate(300.097 358)">-<tspan font-size="16" x="4.83334" y="0">5 cm)</tspan></text><path d="M237.497 359.651 272.163 359.651 306.83 359.651 341.497 359.651 341.497 360.651 306.83 360.651 272.163 360.651 237.497 360.651Z" fill-rule="evenodd"/><g clip-path="url(#clip3)"><text font-family="Calibri,Calibri_MSFontService,sans-serif" font-weight="700" font-size="16" transform="translate(414.524 358)">PH …</text></g><text font-family="Calibri,Calibri_MSFontService,sans-serif" font-weight="400" font-size="16" transform="translate(451.858 358)">(5 repetitions)</text><path d="M414.524 359.651 451.524 359.651 451.524 360.651 414.524 360.651Z" fill-rule="evenodd"/><g clip-path="url(#clip4)"><text font-family="Calibri,Calibri_MSFontService,sans-serif" font-weight="700" font-size="16" transform="translate(644.396 358)">Rec PH … </text></g><text font-family="Calibri,Calibri_MSFontService,sans-serif" font-weight="400" font-size="16" transform="translate(708.829 358)">(5 repetitions)</text><path d="M644.396 359.651 676.396 359.651 708.396 359.651 708.396 360.651 676.396 360.651 644.396 360.651Z" fill-rule="evenodd"/><g clip-path="url(#clip5)"><text font-family="Calibri,Calibri_MSFontService,sans-serif" font-weight="700" font-size="16" transform="translate(839.038 348)">Weighted Sum of Fields (Soil </text></g><path d="M839.038 350.051 886.288 350.051 933.538 350.051 980.788 350.051 1028.04 350.051 1028.04 351.051 980.788 351.051 933.538 351.051 886.288 351.051 839.038 351.051Z" fill-rule="evenodd"/><g clip-path="url(#clip6)"><text font-family="Calibri,Calibri_MSFontService,sans-serif" font-weight="700" font-size="16" transform="translate(839.038 367)">Condition Weighted)</text></g><path d="M839.038 369.051 885.038 369.051 931.038 369.051 977.038 369.051 977.038 370.051 931.038 370.051 885.038 370.051 839.038 370.051Z" fill-rule="evenodd"/><g clip-path="url(#clip7)"><text font-family="Calibri,Calibri_MSFontService,sans-serif" font-weight="400" font-size="15" transform="translate(59.2288 392)">1.</text></g><text font-family="Calibri,Calibri_MSFontService,sans-serif" font-weight="400" font-size="15" transform="translate(73.6288 392)">​<tspan font-weight="700" font-size="15" x="0" y="0">Input layer</tspan><tspan font-size="15" x="66.1667" y="0">: </tspan><tspan font-size="15" x="0" y="17">'Output </tspan><tspan font-size="15" x="48.8333" y="17">layer' from </tspan><tspan font-size="15" x="0" y="35">algorithm 'Rec Drainage'</tspan></text><g clip-path="url(#clip8)"><text font-family="Calibri,Calibri_MSFontService,sans-serif" font-weight="400" font-size="15" transform="translate(59.2288 455)">2.</text></g><text font-family="Calibri,Calibri_MSFontService,sans-serif" font-weight="400" font-size="15" transform="translate(73.6288 455)">​<tspan font-weight="700" font-size="15" x="0" y="0">Raster layer</tspan><tspan font-size="15" x="72.6667" y="0">:</tspan><tspan font-size="15" x="0" y="18">Soil </tspan><tspan font-size="15" x="24.3333" y="18">(0</tspan>-<tspan font-size="15" x="40.8333" y="18">5 cm) PH Value</tspan></text><g clip-path="url(#clip9)"><text font-family="Calibri,Calibri_MSFontService,sans-serif" font-weight="400" font-size="15" transform="translate(59.2288 501)">3. </text></g><text font-family="Calibri,Calibri_MSFontService,sans-serif" font-weight="700" font-size="15" transform="translate(73.7288 501)">Types of Statistics<tspan font-size="15" x="109.333" y="0">:</tspan><tspan font-weight="400" font-size="15" x="-0.0999985" y="18">mean</tspan></text><g clip-path="url(#clip10)"><text font-family="Calibri,Calibri_MSFontService,sans-serif" font-weight="400" font-size="15" transform="translate(59.2288 547)">4. </text></g><text font-family="Calibri,Calibri_MSFontService,sans-serif" font-weight="700" font-size="15" transform="translate(73.7288 547)">Output column prefix: <tspan font-weight="400" font-size="15" x="-0.0999985" y="17">PHd1</tspan></text><g clip-path="url(#clip11)"><text font-family="Calibri,Calibri_MSFontService,sans-serif" font-weight="400" font-size="15" transform="translate(59.2288 593)">5. </text></g><text font-family="Calibri,Calibri_MSFontService,sans-serif" font-weight="700" font-size="15" transform="translate(73.7288 593)">No data value: <tspan font-weight="400" font-size="15" x="91.8333" y="0">255</tspan></text><g clip-path="url(#clip12)"><text font-family="Calibri,Calibri_MSFontService,sans-serif" font-weight="400" font-size="15" transform="translate(237.497 392)">1.</text></g><text font-family="Calibri,Calibri_MSFontService,sans-serif" font-weight="400" font-size="15" transform="translate(251.897 392)">​<tspan font-weight="700" font-size="15" x="0" y="0">​​Input layer</tspan><tspan font-size="15" x="66.1667" y="0">: </tspan><tspan font-size="15" x="0" y="17">'Output </tspan><tspan font-size="15" x="48.8333" y="17">layer' from </tspan><tspan font-size="15" x="0" y="35">algorithm 'PH (0</tspan><tspan font-size="15" x="96" y="35">-</tspan>5 cm)’</text><g clip-path="url(#clip13)"><text font-family="Calibri,Calibri_MSFontService,sans-serif" font-weight="400" font-size="15" transform="translate(237.497 455)">2.</text></g><text font-family="Calibri,Calibri_MSFontService,sans-serif" font-weight="400" font-size="15" transform="translate(251.897 455)">​<tspan font-weight="700" font-size="15" x="0" y="0">​Field to</tspan><tspan font-weight="700" font-size="15" x="48.8333" y="0">reclassify</tspan>:<tspan font-size="15" x="0" y="18">PHd1_mean</tspan></text><g clip-path="url(#clip14)"><text font-family="Calibri,Calibri_MSFontService,sans-serif" font-weight="400" font-size="15" transform="translate(237.497 501)">3.</text></g><text font-family="Calibri,Calibri_MSFontService,sans-serif" font-weight="400" font-size="15" transform="translate(251.897 501)">​<tspan font-weight="700" font-size="15" x="0" y="0">​Old values</tspan><tspan font-size="15" x="63.6667" y="0">:</tspan><tspan font-size="15" x="0" y="18">0</tspan><tspan font-size="15" x="7.49998" y="18">-</tspan>45, 45-55, 55-79, 79-</text><g clip-path="url(#clip15)"><text font-family="Calibri,Calibri_MSFontService,sans-serif" font-weight="400" font-size="15" transform="translate(388.397 519)">84, </text></g><text font-family="Calibri,Calibri_MSFontService,sans-serif" font-weight="400" font-size="15" transform="translate(251.897 536)">84<tspan font-size="15" x="15" y="0">-</tspan>140</text><g clip-path="url(#clip16)"><text font-family="Calibri,Calibri_MSFontService,sans-serif" font-weight="400" font-size="15" transform="translate(237.497 564)">4. </text></g><text font-family="Calibri,Calibri_MSFontService,sans-serif" font-weight="700" font-size="15" transform="translate(251.997 564)">New values<tspan font-size="15" x="70.1667" y="0">:</tspan><tspan font-weight="400" font-size="15" x="-0.0999908" y="18">3</tspan><tspan font-weight="400" font-size="15" x="7.39999" y="18">, 7, 9, 6, 3</tspan></text><g clip-path="url(#clip17)"><text font-family="Calibri,Calibri_MSFontService,sans-serif" font-weight="400" font-size="15" transform="translate(237.497 610)">5. </text></g><text font-family="Calibri,Calibri_MSFontService,sans-serif" font-weight="700" font-size="15" transform="translate(251.997 610)">N<tspan font-size="15" x="9.66666" y="0">o data value</tspan>:<tspan font-weight="400" font-size="15" x="-0.0999908" y="18">0</tspan></text><g clip-path="url(#clip18)"><text font-family="Calibri,Calibri_MSFontService,sans-serif" font-weight="400" font-size="15" transform="translate(237.497 656)">6. ​</text></g><text font-family="Calibri,Calibri_MSFontService,sans-serif" font-weight="700" font-size="15" transform="translate(251.997 656)">​​Output column name<tspan font-weight="400" font-size="15" x="130.167" y="0">: </tspan><tspan font-weight="400" font-size="15" x="-0.0999908" y="18">PHd1</tspan><tspan font-weight="400" font-size="15" x="31.7333" y="18">_r</tspan></text><g clip-path="url(#clip19)"><text font-family="Calibri,Calibri_MSFontService,sans-serif" font-weight="400" font-size="15" transform="translate(414.524 392)">1.</text></g><text font-family="Calibri,Calibri_MSFontService,sans-serif" font-weight="400" font-size="15" transform="translate(428.924 392)">​The setting is identical to <tspan font-weight="700" font-size="15" x="0" y="17">PH (0</tspan><tspan font-weight="700" font-size="15" x="32.5" y="17">-</tspan><tspan font-weight="700" font-size="15" x="37" y="17">5 cm)</tspan></text><g clip-path="url(#clip20)"><text font-family="Calibri,Calibri_MSFontService,sans-serif" font-weight="400" font-size="15" transform="translate(502.758 409)">for the rest of the soil </text></g><path d="M428.524 410.857 464.024 410.857 499.524 410.857 499.524 411.857 464.024 411.857 428.524 411.857Z" fill-rule="evenodd"/><text font-family="Calibri,Calibri_MSFontService,sans-serif" font-weight="400" font-size="15" transform="translate(428.924 427)">depth intervals.</text><g clip-path="url(#clip21)"><text font-family="Calibri,Calibri_MSFontService,sans-serif" font-weight="400" font-size="15" transform="translate(414.524 455)">2.</text></g><text font-family="Calibri,Calibri_MSFontService,sans-serif" font-weight="400" font-size="15" transform="translate(428.924 455)">​<tspan font-weight="700" font-size="15" x="0" y="0">Raster layers </tspan><tspan font-size="15" x="81.8333" y="0">are</tspan><tspan font-size="15" x="0" y="18">Soil (5</tspan><tspan font-size="15" x="36.3333" y="18">-</tspan>15 cm) PH Value, <tspan font-size="15" x="0" y="35">Soil (15</tspan><tspan font-size="15" x="43.8333" y="35">-</tspan>30 cm) PH Value, <tspan font-size="15" x="0" y="53">Soil (30</tspan><tspan font-size="15" x="43.8333" y="53">-</tspan>60 cm) PH Value, <tspan font-size="15" x="0" y="71">Soil (60</tspan><tspan font-size="15" x="43.8333" y="71">-</tspan>100 cm) PH Value, and<tspan font-size="15" x="0" y="88">Soil (100</tspan><tspan font-size="15" x="51.3333" y="88">-</tspan>200 cm) PH Value, <tspan font-size="15" x="0" y="106">respectively.</tspan></text><g clip-path="url(#clip22)"><text font-family="Calibri,Calibri_MSFontService,sans-serif" font-weight="400" font-size="15" transform="translate(414.524 589)">3.</text></g><text font-family="Calibri,Calibri_MSFontService,sans-serif" font-weight="400" font-size="15" transform="translate(428.924 589)">​<tspan font-weight="700" font-size="15" x="0" y="0">Output column prefixes </tspan><tspan font-size="15" x="147.667" y="0">are PHd2 </tspan><tspan font-size="15" x="0" y="18">for 5</tspan><tspan font-size="15" x="28.1667" y="18">-</tspan>15 cm,<tspan font-size="15" x="0" y="35">PHd3 for 15</tspan><tspan font-size="15" x="70.8333" y="35">-</tspan>30 cm, <tspan font-size="15" x="0" y="53">PHd4 for 30</tspan><tspan font-size="15" x="70.8333" y="53">-</tspan>60 cm, <tspan font-size="15" x="0" y="70">PHd5 for 60</tspan><tspan font-size="15" x="70.8333" y="70">-</tspan>100 cm, and<tspan font-size="15" x="0" y="88">PHd6 for 100</tspan><tspan font-size="15" x="78.3333" y="88">-</tspan></text><g clip-path="url(#clip23)"><text font-family="Calibri,Calibri_MSFontService,sans-serif" font-weight="400" font-size="15" transform="translate(511.758 677)">200 cm, respectively. </text></g><g clip-path="url(#clip24)"><text font-family="Calibri,Calibri_MSFontService,sans-serif" font-weight="400" font-size="15" transform="translate(644.396 392)">1.</text></g><text font-family="Calibri,Calibri_MSFontService,sans-serif" font-weight="400" font-size="15" transform="translate(658.796 392)">The setting is identical to<tspan font-weight="700" font-size="15" x="0" y="17">Rec PH (0</tspan><tspan font-weight="700" font-size="15" x="57.6667" y="17">-</tspan><tspan font-weight="700" font-size="15" x="62.1667" y="17">5 cm)</tspan><tspan font-size="15" x="99" y="17">for the rest</tspan></text><path d="M658.396 410.857 706.396 410.857 754.396 410.857 754.396 411.857 706.396 411.857 658.396 411.857Z" fill-rule="evenodd"/><text font-family="Calibri,Calibri_MSFontService,sans-serif" font-weight="400" font-size="15" transform="translate(658.796 427)">of the soil depth intervals.</text><g clip-path="url(#clip25)"><text font-family="Calibri,Calibri_MSFontService,sans-serif" font-weight="400" font-size="15" transform="translate(644.396 455)">2.</text></g><text font-family="Calibri,Calibri_MSFontService,sans-serif" font-weight="400" font-size="15" transform="translate(658.796 455)">​<tspan font-weight="700" font-size="15" x="0" y="0">Fields to reclassify </tspan><tspan font-size="15" x="114.5" y="0">are </tspan><tspan font-size="15" x="0" y="18">PHd2_mean for 5</tspan><tspan font-size="15" x="104.333" y="18">-</tspan>15 cm, <tspan font-size="15" x="0" y="35">PHd3_mean for 15</tspan><tspan font-size="15" x="111.833" y="35">-</tspan><tspan font-size="15" x="116.333" y="35">30 cm, </tspan><tspan font-size="15" x="0" y="53">PHd4_mean for 30</tspan><tspan font-size="15" x="111.833" y="53">-</tspan><tspan font-size="15" x="116.333" y="53">60 cm, </tspan><tspan font-size="15" x="0" y="71">PHd5_mean for 60</tspan><tspan font-size="15" x="111.833" y="71">-</tspan><tspan font-size="15" x="116.333" y="71">100 cm, </tspan><tspan font-size="15" x="0" y="88">and PHd6_mean for</tspan><tspan font-size="15" x="0" y="106">100</tspan>-200 cm, respectively. </text><g clip-path="url(#clip26)"><text font-family="Calibri,Calibri_MSFontService,sans-serif" font-weight="400" font-size="15" transform="translate(644.396 589)">3.</text></g><text font-family="Calibri,Calibri_MSFontService,sans-serif" font-weight="400" font-size="15" transform="translate(658.796 589)">​<tspan font-weight="700" font-size="15" x="0" y="0">Output column names </tspan><tspan font-size="15" x="139.333" y="0">are </tspan><tspan font-size="15" x="0" y="18">PHd2_r, PHd3_r, PHd4_r, </tspan><tspan font-size="15" x="0" y="35">PHd5_r, and PHd6_r, </tspan><tspan font-size="15" x="0" y="53">respectively. </tspan></text><g clip-path="url(#clip27)"><text font-family="Calibri,Calibri_MSFontService,sans-serif" font-weight="400" font-size="15" transform="translate(839.038 392)">1.</text></g><text font-family="Calibri,Calibri_MSFontService,sans-serif" font-weight="400" font-size="15" transform="translate(853.438 392)">​<tspan font-weight="700" font-size="15" x="0" y="0">Input layer</tspan><tspan font-size="15" x="66.1667" y="0">: </tspan><tspan font-size="15" x="0" y="17">'Output </tspan><tspan font-size="15" x="48.8333" y="17">layer' from algorithm </tspan><tspan font-size="15" x="0" y="35">'Rec PH (100</tspan>-200 cm)’</text><g clip-path="url(#clip28)"><text font-family="Calibri,Calibri_MSFontService,sans-serif" font-weight="400" font-size="15" transform="translate(839.038 455)">2.</text></g><text font-family="Calibri,Calibri_MSFontService,sans-serif" font-weight="400" font-size="15" transform="translate(853.438 455)">​<tspan font-weight="700" font-size="15" x="0" y="0">Fields</tspan>: <tspan font-size="15" x="0" y="18">RZD_r;Drain_r;PHd1_r;PHd2_r</tspan></text><g clip-path="url(#clip29)"><text font-family="Calibri,Calibri_MSFontService,sans-serif" font-weight="400" font-size="15" transform="translate(1035.1 473)">;</text></g><text font-family="Calibri,Calibri_MSFontService,sans-serif" font-weight="400" font-size="15" transform="translate(853.438 490)">PHd3</text><g clip-path="url(#clip30)"><text font-family="Calibri,Calibri_MSFontService,sans-serif" font-weight="400" font-size="15" transform="translate(885.271 490)">_r;PHd4_r;PHd5_r;PHd6_r</text></g><g clip-path="url(#clip31)"><text font-family="Calibri,Calibri_MSFontService,sans-serif" font-weight="400" font-size="15" transform="translate(839.038 519)">3.</text></g><text font-family="Calibri,Calibri_MSFontService,sans-serif" font-weight="400" font-size="15" transform="translate(853.438 519)">​<tspan font-weight="700" font-size="15" x="0" y="0">Weights</tspan><tspan font-size="15" x="50.1667" y="0">:</tspan><tspan font-style="italic" font-size="15" x="0" y="17">Using </tspan><tspan font-style="italic" font-size="15" x="36.6667" y="17">model input</tspan></text><g clip-path="url(#clip32)"><text font-family="Calibri,Calibri_MSFontService,sans-serif" font-weight="400" font-size="15" transform="translate(961.105 536)">: Weights for </text></g><text font-family="Calibri,Calibri_MSFontService,sans-serif" font-weight="400" font-size="15" transform="translate(853.438 554)">RZD, Drainage, and PH <tspan font-size="15" x="0" y="17">(different depths)</tspan></text><g clip-path="url(#clip33)"><text font-family="Calibri,Calibri_MSFontService,sans-serif" font-weight="400" font-size="15" transform="translate(839.038 600)">4.</text></g><text font-family="Calibri,Calibri_MSFontService,sans-serif" font-weight="400" font-size="15" transform="translate(853.438 600)">​<tspan font-weight="700" font-size="15" x="0" y="0">Output field name</tspan><tspan font-size="15" x="112" y="0">:</tspan><tspan font-size="15" x="0" y="17">rcrp</tspan><tspan font-size="15" x="24.1667" y="17">_sc</tspan></text><g clip-path="url(#clip34)"><text font-family="Calibri,Calibri_MSFontService,sans-serif" font-weight="400" font-size="15" transform="translate(839.038 646)">5.</text></g><text font-family="Calibri,Calibri_MSFontService,sans-serif" font-weight="400" font-size="15" transform="translate(853.438 646)">​<tspan font-weight="700" font-size="15" x="0" y="0">Output layer</tspan>:<tspan font-size="15" x="0" y="17">rcrp</tspan><tspan font-size="15" x="24.1667" y="17">_SoilCondition</tspan></text></g></svg>