<svg width="2843" height="1966" xmlns="http://www.w3.org/2000/svg" xmlns:xlink="http://www.w3.org/1999/xlink" overflow="hidden"><defs><clipPath id="clip0"><rect x="323" y="142" width="2843" height="1966"/></clipPath><clipPath id="clip1"><rect x="323" y="128" width="2840" height="617"/></clipPath><clipPath id="clip2"><rect x="613" y="286" width="2550" height="617"/></clipPath><clipPath id="clip3"><rect x="613" y="444" width="2550" height="617"/></clipPath><clipPath id="clip4"><rect x="613" y="603" width="2550" height="617"/></clipPath><clipPath id="clip5"><rect x="613" y="761" width="2550" height="617"/></clipPath><clipPath id="clip6"><rect x="323" y="-93" width="2840" height="694"/></clipPath><clipPath id="clip7"><rect x="323" y="920" width="2840" height="617"/></clipPath><clipPath id="clip8"><rect x="613" y="1078" width="2550" height="617"/></clipPath><clipPath id="clip9"><rect x="613" y="1236" width="2550" height="617"/></clipPath><clipPath id="clip10"><rect x="613" y="1394" width="2550" height="617"/></clipPath><clipPath id="clip11"><rect x="613" y="1553" width="2550" height="617"/></clipPath><clipPath id="clip12"><rect x="613" y="1711" width="2550" height="617"/></clipPath><clipPath id="clip13"><rect x="613" y="1711" width="2550" height="617"/></clipPath></defs><g clip-path="url(#clip0)" transform="translate(-323 -142)"><path d="M323.558 356.613 3162.88 356.613 3162.88 515.013 323.558 515.013Z" fill="#C5E0B4" fill-rule="evenodd"/><path d="M323.558 515.013 613.036 515.013 613.036 673.413 323.558 673.413Z" fill="#E2F0D9" fill-rule="evenodd"/><path d="M613.036 515.013 3162.88 515.013 3162.88 673.413 613.036 673.413Z" fill="#E2F0D9" fill-rule="evenodd"/><path d="M323.558 673.413 613.036 673.413 613.036 831.813 323.558 831.813Z" fill="#E2F0D9" fill-rule="evenodd"/><path d="M613.036 673.413 3162.88 673.413 3162.88 831.813 613.036 831.813Z" fill="#E2F0D9" fill-rule="evenodd"/><path d="M323.558 831.813 613.036 831.813 613.036 990.213 323.558 990.213Z" fill="#E2F0D9" fill-rule="evenodd"/><path d="M613.036 831.813 3162.88 831.813 3162.88 990.213 613.036 990.213Z" fill="#E2F0D9" fill-rule="evenodd"/><path d="M323.558 990.213 613.036 990.213 613.036 1148.61 323.558 1148.61Z" fill="#E2F0D9" fill-rule="evenodd"/><path d="M613.036 990.213 3162.88 990.213 3162.88 1148.61 613.036 1148.61Z" fill="#E2F0D9" fill-rule="evenodd"/><path d="M613.036 673.413 3162.88 673.413" stroke="#A9D18E" stroke-width="4.58333" stroke-linejoin="round" stroke-miterlimit="10" fill="none" fill-rule="evenodd"/><path d="M613.036 831.813 3162.88 831.813" stroke="#A9D18E" stroke-width="4.58333" stroke-linejoin="round" stroke-miterlimit="10" fill="none" fill-rule="evenodd"/><path d="M613.036 990.213 3162.88 990.213" stroke="#A9D18E" stroke-width="4.58333" stroke-linejoin="round" stroke-miterlimit="10" fill="none" fill-rule="evenodd"/><path d="M323.558 1148.61 3162.88 1148.61" stroke="#70AD47" stroke-width="4.58333" stroke-linejoin="round" stroke-miterlimit="10" fill="none" fill-rule="evenodd"/><g clip-path="url(#clip1)"><text font-family="Calibri,Calibri_MSFontService,sans-serif" font-weight="700" font-size="73" transform="matrix(1 0 0 1 325.55 461)">Objective </text></g><text font-family="Calibri,Calibri_MSFontService,sans-serif" font-weight="700" font-size="73" transform="matrix(1 0 0 1 631.946 461)">1.1    <tspan font-weight="400" font-size="73" x="160.417" y="0">Determine lands physically suitable for residential land use.</tspan></text><g clip-path="url(#clip2)"><text font-family="Calibri,Calibri_MSFontService,sans-serif" font-weight="400" font-size="73" transform="matrix(1 0 0 1 615.028 618)">Sub</text></g><text font-family="Calibri,Calibri_MSFontService,sans-serif" font-weight="400" font-size="73" transform="matrix(1 0 0 1 725.601 618)">-<tspan font-size="73" x="22.3438" y="0">objective </tspan><tspan font-size="73" x="312.102" y="0">1.1.1</tspan><tspan font-size="73" x="477.102" y="0">Identify soils suitable for residential land use.</tspan></text><g clip-path="url(#clip3)"><text font-family="Calibri,Calibri_MSFontService,sans-serif" font-weight="400" font-size="73" transform="matrix(1 0 0 1 615.028 777)">Sub</text></g><text font-family="Calibri,Calibri_MSFontService,sans-serif" font-weight="400" font-size="73" transform="matrix(1 0 0 1 725.601 777)">-<tspan font-size="73" x="22.3438" y="0">objective </tspan><tspan font-size="73" x="312.102" y="0">1.1.2 </tspan><tspan font-size="73" x="477.102" y="0">Identify quiet areas.</tspan></text><g clip-path="url(#clip4)"><text font-family="Calibri,Calibri_MSFontService,sans-serif" font-weight="400" font-size="73" transform="matrix(1 0 0 1 615.028 935)">Sub</text></g><text font-family="Calibri,Calibri_MSFontService,sans-serif" font-weight="400" font-size="73" transform="matrix(1 0 0 1 725.601 935)">-<tspan font-size="73" x="22.3438" y="0">objective </tspan><tspan font-size="73" x="312.102" y="0">1.1.3 </tspan><tspan font-size="73" x="477.102" y="0">Identify lands free of hazardous waste.</tspan></text><g clip-path="url(#clip5)"><text font-family="Calibri,Calibri_MSFontService,sans-serif" font-weight="400" font-size="73" transform="matrix(1 0 0 1 615.028 1093)">Sub</text></g><text font-family="Calibri,Calibri_MSFontService,sans-serif" font-weight="400" font-size="73" transform="matrix(1 0 0 1 725.601 1093)">-<tspan font-size="73" x="22.3438" y="0">objective </tspan><tspan font-size="73" x="312.102" y="0">1.1.4 </tspan><tspan font-size="73" x="477.102" y="0">Identify lands with good air quality.</tspan></text><path d="M323.559 144.935 3162.88 144.935 3162.88 360.184 323.559 360.184Z" fill="#A9D18E" fill-rule="evenodd"/><path d="M323.559 144.935 3162.88 144.935" stroke="#70AD47" stroke-width="4.58333" stroke-linejoin="round" stroke-miterlimit="10" fill="none" fill-rule="evenodd"/><g clip-path="url(#clip6)"><text font-family="Calibri,Calibri_MSFontService,sans-serif" font-weight="700" font-size="83" transform="matrix(1 0 0 1 325.551 281)">Goal 1: </text></g><text font-family="Calibri,Calibri_MSFontService,sans-serif" font-weight="700" font-size="83" transform="matrix(1 0 0 1 585.655 281)">Identify lands suitable for residential land use in THLD area.</text><path d="M323.558 1148.61 3162.88 1148.61 3162.88 1307.01 323.558 1307.01Z" fill="#C5E0B4" fill-rule="evenodd"/><path d="M323.558 1307.01 613.036 1307.01 613.036 1465.31 323.558 1465.31Z" fill="#E2F0D9" fill-rule="evenodd"/><path d="M613.036 1307.01 3162.88 1307.01 3162.88 1465.31 613.036 1465.31Z" fill="#E2F0D9" fill-rule="evenodd"/><path d="M323.558 1465.31 613.036 1465.31 613.036 1623.6 323.558 1623.6Z" fill="#E2F0D9" fill-rule="evenodd"/><path d="M613.036 1465.31 3162.88 1465.31 3162.88 1623.6 613.036 1623.6Z" fill="#E2F0D9" fill-rule="evenodd"/><path d="M323.558 1623.6 613.036 1623.6 613.036 1781.89 323.558 1781.89Z" fill="#E2F0D9" fill-rule="evenodd"/><path d="M613.036 1623.6 3162.88 1623.6 3162.88 1781.89 613.036 1781.89Z" fill="#E2F0D9" fill-rule="evenodd"/><path d="M323.558 1781.89 613.036 1781.89 613.036 1940.19 323.558 1940.19Z" fill="#E2F0D9" fill-rule="evenodd"/><path d="M613.036 1781.89 3162.88 1781.89 3162.88 1940.19 613.036 1940.19Z" fill="#E2F0D9" fill-rule="evenodd"/><path d="M323.558 1940.19 613.036 1940.19 613.036 2098.48 323.558 2098.48Z" fill="#E2F0D9" fill-rule="evenodd"/><path d="M613.036 1940.19 3162.88 1940.19 3162.88 2098.48 613.036 2098.48Z" fill="#E2F0D9" fill-rule="evenodd"/><path d="M613.036 1465.31 3162.88 1465.31" stroke="#A9D18E" stroke-width="4.58333" stroke-linejoin="round" stroke-miterlimit="10" fill="none" fill-rule="evenodd"/><path d="M613.036 1623.6 3162.88 1623.6" stroke="#A9D18E" stroke-width="4.58333" stroke-linejoin="round" stroke-miterlimit="10" fill="none" fill-rule="evenodd"/><path d="M613.036 1781.89 3162.88 1781.89" stroke="#A9D18E" stroke-width="4.58333" stroke-linejoin="round" stroke-miterlimit="10" fill="none" fill-rule="evenodd"/><path d="M613.036 1940.19 3162.88 1940.19" stroke="#A9D18E" stroke-width="4.58333" stroke-linejoin="round" stroke-miterlimit="10" fill="none" fill-rule="evenodd"/><path d="M323.558 2098.48 3162.88 2098.48" stroke="#70AD47" stroke-width="4.58333" stroke-linejoin="round" stroke-miterlimit="10" fill="none" fill-rule="evenodd"/><g clip-path="url(#clip7)"><text font-family="Calibri,Calibri_MSFontService,sans-serif" font-weight="700" font-size="73" transform="matrix(1 0 0 1 325.55 1253)">Objective </text></g><text font-family="Calibri,Calibri_MSFontService,sans-serif" font-weight="700" font-size="73" transform="matrix(1 0 0 1 631.946 1253)">1.2    <tspan font-weight="400" font-size="73" x="160.417" y="0">Determine lands economically suitable for residential land use.</tspan></text><g clip-path="url(#clip8)"><text font-family="Calibri,Calibri_MSFontService,sans-serif" font-weight="400" font-size="73" transform="matrix(1 0 0 1 615.028 1410)">Sub</text></g><text font-family="Calibri,Calibri_MSFontService,sans-serif" font-weight="400" font-size="73" transform="matrix(1 0 0 1 725.601 1410)">-<tspan font-size="73" x="22.3438" y="0">objective </tspan><tspan font-size="73" x="312.102" y="0">1.2.1</tspan><tspan font-size="73" x="477.102" y="0">Identify lands proximal to schools.</tspan></text><g clip-path="url(#clip9)"><text font-family="Calibri,Calibri_MSFontService,sans-serif" font-weight="400" font-size="73" transform="matrix(1 0 0 1 615.028 1568)">Sub</text></g><text font-family="Calibri,Calibri_MSFontService,sans-serif" font-weight="400" font-size="73" transform="matrix(1 0 0 1 725.601 1568)">-<tspan font-size="73" x="22.3438" y="0">objective </tspan><tspan font-size="73" x="312.102" y="0">1.2.2 </tspan><tspan font-size="73" x="477.102" y="0">Identify lands proximal to hospitals.</tspan></text><g clip-path="url(#clip10)"><text font-family="Calibri,Calibri_MSFontService,sans-serif" font-weight="400" font-size="73" transform="matrix(1 0 0 1 615.028 1727)">Sub</text></g><text font-family="Calibri,Calibri_MSFontService,sans-serif" font-weight="400" font-size="73" transform="matrix(1 0 0 1 725.601 1727)">-<tspan font-size="73" x="22.3438" y="0">objective </tspan><tspan font-size="73" x="312.102" y="0">1.2.3 </tspan><tspan font-size="73" x="477.102" y="0">Identify lands proximal to roads.</tspan></text><g clip-path="url(#clip11)"><text font-family="Calibri,Calibri_MSFontService,sans-serif" font-weight="400" font-size="73" transform="matrix(1 0 0 1 615.028 1885)">Sub</text></g><text font-family="Calibri,Calibri_MSFontService,sans-serif" font-weight="400" font-size="73" transform="matrix(1 0 0 1 725.601 1885)">-<tspan font-size="73" x="22.3438" y="0">objective </tspan><tspan font-size="73" x="312.102" y="0">1.2.4 </tspan><tspan font-size="73" x="477.102" y="0">Identify lands with values suitable for residential use.</tspan></text><g clip-path="url(#clip12)"><text font-family="Calibri,Calibri_MSFontService,sans-serif" font-weight="400" font-size="73" transform="matrix(1 0 0 1 615.028 2043)">Sub</text></g><text font-family="Calibri,Calibri_MSFontService,sans-serif" font-weight="400" font-size="73" transform="matrix(1 0 0 1 725.601 2043)">-<tspan font-size="73" x="22.3438" y="0">objective </tspan><tspan font-size="73" x="312.102" y="0">1.2.5 Identify </tspan></text><g clip-path="url(#clip13)"><text font-family="Calibri,Calibri_MSFontService,sans-serif" font-weight="400" font-size="73" transform="matrix(1 0 0 1 1447.59 2043)">lands proximal to existing public water and sewer service.</text></g></g></svg>