<svg width="698" height="596" xmlns="http://www.w3.org/2000/svg" xmlns:xlink="http://www.w3.org/1999/xlink" overflow="hidden"><defs><clipPath id="clip0"><rect x="298" y="71" width="698" height="596"/></clipPath><linearGradient x1="299" y1="99" x2="995" y2="99" gradientUnits="userSpaceOnUse" spreadMethod="reflect" id="fill1"><stop offset="0" stop-color="#D9D9D9"/><stop offset="0.42" stop-color="#D9D9D9"/><stop offset="1" stop-color="#7F7F7F"/></linearGradient></defs><g clip-path="url(#clip0)" transform="translate(-298 -71)"><rect x="299" y="73" width="696" height="52" fill="url(#fill1)"/><path d="M306.5 396.167C306.5 390.276 311.276 385.5 317.167 385.5L461.833 385.5C467.724 385.5 472.5 390.276 472.5 396.167L472.5 438.833C472.5 444.724 467.724 449.5 461.833 449.5L317.167 449.5C311.276 449.5 306.5 444.724 306.5 438.833Z" stroke="#000000" stroke-width="1.33333" stroke-miterlimit="8" fill="#FFFFFF" fill-rule="evenodd"/><text font-family="Arial,Arial_MSFontService,sans-serif" font-weight="400" font-size="24" transform="translate(329.547 426)">Row Crops</text><path d="M555.5 255.167C555.5 249.276 560.276 244.5 566.167 244.5L691.833 244.5C697.724 244.5 702.5 249.276 702.5 255.167L702.5 297.833C702.5 303.724 697.724 308.5 691.833 308.5L566.167 308.5C560.276 308.5 555.5 303.724 555.5 297.833Z" stroke="#000000" stroke-width="1.33333" stroke-miterlimit="8" fill="#FFFFFF" fill-rule="evenodd"/><text font-family="Arial,Arial_MSFontService,sans-serif" font-weight="400" font-size="21" transform="translate(588.89 284)">Physical</text><path d="M555.5 535.167C555.5 529.276 560.276 524.5 566.167 524.5L691.833 524.5C697.724 524.5 702.5 529.276 702.5 535.167L702.5 577.833C702.5 583.724 697.724 588.5 691.833 588.5L566.167 588.5C560.276 588.5 555.5 583.724 555.5 577.833Z" stroke="#000000" stroke-width="1.33333" stroke-miterlimit="8" fill="#FFFFFF" fill-rule="evenodd"/><text font-family="Arial,Arial_MSFontService,sans-serif" font-weight="400" font-size="21" transform="translate(581.723 564)">Economic</text><path d="M790.5 177.167C790.5 171.276 795.276 166.5 801.167 166.5L937.833 166.5C943.724 166.5 948.5 171.276 948.5 177.167L948.5 219.833C948.5 225.724 943.724 230.5 937.833 230.5L801.167 230.5C795.276 230.5 790.5 225.724 790.5 219.833Z" stroke="#000000" stroke-width="1.33333" stroke-miterlimit="8" fill="#FFFFFF" fill-rule="evenodd"/><text font-family="Arial,Arial_MSFontService,sans-serif" font-weight="400" font-size="19" transform="translate(823.693 194)">Landscape <tspan font-size="19" x="6.16663" y="23">Condition</tspan></text><path d="M790.5 328.334C790.5 322.35 795.35 317.5 801.334 317.5L937.667 317.5C943.65 317.5 948.5 322.35 948.5 328.334L948.5 371.667C948.5 377.65 943.65 382.5 937.667 382.5L801.334 382.5C795.35 382.5 790.5 377.65 790.5 371.667Z" stroke="#000000" stroke-width="1.33333" stroke-miterlimit="8" fill="#FFFFFF" fill-rule="evenodd"/><text font-family="Arial,Arial_MSFontService,sans-serif" font-weight="400" font-size="19" transform="translate(811.693 356)">Soil Condition</text><path d="M790.5 461.167C790.5 455.276 795.276 450.5 801.167 450.5L937.833 450.5C943.724 450.5 948.5 455.276 948.5 461.167L948.5 503.833C948.5 509.724 943.724 514.5 937.833 514.5L801.167 514.5C795.276 514.5 790.5 509.724 790.5 503.833Z" stroke="#000000" stroke-width="1.33333" stroke-miterlimit="8" fill="#FFFFFF" fill-rule="evenodd"/><text font-family="Arial,Arial_MSFontService,sans-serif" font-weight="400" font-size="19" transform="translate(840.777 489)">Market</text><path d="M790.5 612C790.5 606.201 795.201 601.5 801 601.5L938 601.5C943.799 601.5 948.5 606.201 948.5 612L948.5 654C948.5 659.799 943.799 664.5 938 664.5L801 664.5C795.201 664.5 790.5 659.799 790.5 654Z" stroke="#000000" stroke-width="1.33333" stroke-miterlimit="8" fill="#FFFFFF" fill-rule="evenodd"/><text font-family="Arial,Arial_MSFontService,sans-serif" font-weight="400" font-size="19" transform="translate(809.623 628)">Transportation <tspan font-size="19" x="8.74005" y="23">Accessibility</tspan></text><path d="M472.532 417.168 476.441 417.547 480.373 418.752 484.231 420.649 488.017 423.236 491.607 426.386 495.067 430.097 498.335 434.37 501.411 439.078 504.235 444.162 506.747 449.625 510.883 461.405 512.389 467.619 513.518 474.016 514.208 480.476 514.458 486.987 514.708 493.487 514.706 493.465 515.394 499.902 515.391 499.88 516.516 506.255 516.512 506.234 518.012 512.422 518.002 512.39 522.127 524.14 522.115 524.111 524.615 529.548 524.605 529.527 527.417 534.652 527.403 534.629 530.465 539.254 530.452 539.235 533.702 543.485 533.681 543.46 537.119 547.148 537.095 547.124 540.657 550.249 540.626 550.225 544.376 552.787 544.316 552.755 549.347 554.855 549.091 555.47 544.028 553.357 540.233 550.764 536.643 547.615 533.183 543.903 529.916 539.631 526.839 534.985 524.015 529.838 521.503 524.375 517.368 512.595 515.861 506.381 514.732 499.984 514.042 493.524 513.792 487.013 513.542 480.513 513.544 480.535 512.856 474.098 512.859 474.12 511.734 467.745 511.739 467.766 510.239 461.579 510.248 461.61 506.123 449.86 506.135 449.889 503.635 444.452 503.646 444.474 500.834 439.412 500.846 439.432 497.784 434.745 497.798 434.765 494.548 430.515 494.569 430.54 491.131 426.852 491.155 426.876 487.593 423.751 487.625 423.775 483.875 421.213 483.915 421.237 480.103 419.362 480.152 419.381 476.277 418.194 476.343 418.207 472.468 417.832ZM548.716 550.976 555.75 556.5 547.11 558.813Z"/><path d="M0.0321081-0.331783 3.94055 0.0464526 7.87527 1.25226 11.7327 3.21261 15.5185 5.79957 19.1096 9.01259 22.5691 12.7866 25.836 17.1216 28.9115 21.8918 31.7358 27.0381 34.2474 32.5638 38.3828 44.5314 39.8891 50.8076 41.0178 57.329 41.7077 63.8512 41.9581 70.4874 42.2081 77.1124 42.2065 77.0899 42.894 83.5899 42.8909 83.5681 44.0159 90.0681 44.0116 90.0472 45.5116 96.2972 45.5026 96.2661 49.6276 108.204 49.616 108.175 52.116 113.675 52.1055 113.654 54.918 118.841 54.9041 118.818 57.9666 123.505 57.9537 123.487 61.2037 127.799 61.1832 127.775 64.6207 131.525 64.5973 131.502 68.1598 134.689 68.1256 134.662 71.8756 137.225 71.819 137.194 76.8507 139.355 76.5876 139.967 71.5262 137.793 67.7315 135.2 64.1404 131.987 60.6809 128.213 57.4146 123.879 54.3385 119.171 51.5139 113.961 49.0026 108.436 44.8671 96.4685 43.3609 90.1924 42.2322 83.671 41.5423 77.1488 41.2919 70.5126 41.0419 63.8876 41.0435 63.9101 40.356 57.4101 40.359 57.4319 39.234 50.9318 39.2384 50.9528 37.7384 44.7028 37.7474 44.7339 33.6224 32.7964 33.634 32.8254 31.134 27.3254 31.1453 27.3479 28.3328 22.2229 28.3448 22.2431 25.2823 17.4931 25.2963 17.5131 22.0463 13.2006 22.0668 13.2252 18.6293 9.47524 18.6527 9.49841 15.0902 6.31091 15.1244 6.33771 11.3744 3.77521 11.4115 3.79716 7.59898 1.85966 7.65233 1.8812 3.77733 0.693704 3.84289 0.706783-0.0321081 0.331783ZM76.2164 135.475 83.25 141 74.6096 143.312Z" transform="matrix(1 0 0 -1 472.5 417.475)"/><path d="M0.020165-0.332723 4.16012-0.0818164 8.31796 0.548159 12.3501 1.61921 16.3207 3.06876 23.8648 6.9037 30.534 11.937 36.257 17.8487 38.5914 21.1295 40.6072 24.4682 42.2478 28.0017 43.4474 31.6007 44.206 35.2671 44.4575 38.9146 44.7075 42.5396 44.7014 42.495 45.4514 46.12 45.4412 46.0821 46.6287 49.6446 46.6139 49.6075 48.2389 53.045 48.2243 53.0176 50.2243 56.3926 50.2073 56.3668 52.5198 59.5543 52.492 59.5208 58.117 65.4583 58.073 65.4193 64.7605 70.3568 64.7165 70.3294 72.154 74.2044 72.1099 74.1853 76.0474 75.5603 76.0218 75.5525 80.0843 76.615 80.0373 76.6063 81.595 76.7818 81.5203 77.4443 79.9389 77.266 75.8402 76.1941 71.8674 74.8067 64.3854 70.9086 57.6533 65.9381 51.993 59.9634 49.6586 56.7457 47.6428 53.344 46.0026 49.8744 44.8026 46.2743 44.044 42.6079 43.7925 38.9604 43.5425 35.3354 43.5486 35.38 42.7986 31.755 42.8088 31.7929 41.6213 28.2304 41.6352 28.2654 40.0102 24.7654 40.0271 24.7973 38.0271 21.4848 38.0409 21.5058 35.7284 18.2558 35.7605 18.2943 30.073 12.4193 30.1117 12.4536 23.4867 7.45356 23.5365 7.48465 16.0365 3.67215 16.0732 3.68812 12.1357 2.25062 12.1644 2.25966 8.16443 1.19716 8.20006 1.20457 4.07506 0.579572 4.10484 0.582723-0.020165 0.332723ZM80.6513 72.9952 88.1875 77.8125 79.812 80.9511Z" transform="matrix(1 0 0 -1 702.5 276.306)"/><path d="M702.515 276.167 706.658 276.355 710.816 276.985 714.843 277.992 718.813 279.316 726.358 282.962 733.027 287.681 738.75 293.278 741.086 296.309 743.104 299.524 744.745 302.807 745.946 306.221 746.706 309.639 746.958 313.101 747.208 316.538 747.2 316.49 747.95 319.865 747.94 319.827 749.127 323.202 749.111 323.163 750.736 326.413 750.72 326.385 752.72 329.573 752.702 329.547 755.014 332.547 754.984 332.513 760.609 338.076 760.566 338.04 767.254 342.727 767.209 342.7 774.646 346.325 774.605 346.309 778.543 347.621 778.517 347.614 782.58 348.614 782.535 348.606 784.088 348.77 784.017 349.433 782.442 349.267 778.345 348.258 774.374 346.934 766.893 343.288 760.161 338.569 754.5 332.971 752.164 329.941 750.147 326.726 748.505 323.443 747.304 320.029 746.544 316.611 746.293 313.149 746.043 309.712 746.05 309.76 745.3 306.385 745.311 306.423 744.123 303.048 744.139 303.087 742.514 299.837 742.53 299.865 740.53 296.677 740.549 296.704 738.236 293.704 738.267 293.738 732.579 288.176 732.62 288.21 725.995 283.522 726.042 283.55 718.542 279.925 718.582 279.941 714.645 278.629 714.669 278.636 710.669 277.636 710.7 277.642 706.575 277.017 706.61 277.021 702.485 276.833ZM783.114 344.991 790.688 349.75 782.337 352.953Z"/><path d="M0.0151359-0.332989 4.15762-0.144695 8.31554 0.485292 12.3456 1.4928 16.3165 2.87946 23.8593 6.58803 30.5282 11.3695 36.2515 17.0299 38.5881 20.1243 40.6047 23.4014 42.2454 26.7458 43.4463 30.1588 44.2058 33.6399 44.4575 37.1637 44.7075 40.6637 44.7007 40.6164 45.4507 44.0539 45.4394 44.0144 46.6269 47.3894 46.6118 47.3532 48.2368 50.6657 48.2199 50.6353 50.2199 53.8228 50.2035 53.7991 52.516 56.8616 52.4857 56.8268 58.1107 62.4518 58.068 62.4157 64.7555 67.1657 64.7106 67.1389 72.1481 70.8264 72.1099 70.8103 76.0474 72.1853 76.0172 72.1763 80.0797 73.1763 80.0351 73.1685 81.5875 73.3328 81.5173 73.9958 79.9424 73.8291 75.8425 72.8199 71.8705 71.4329 64.3909 67.7245 57.6591 62.943 51.9979 57.2818 49.6628 54.1894 47.6459 50.9749 46.0046 47.6292 44.8037 44.2162 44.0442 40.7351 43.7925 37.2113 43.5425 33.7113 43.5493 33.7586 42.7993 30.3211 42.8106 30.3606 41.6231 26.9856 41.6382 27.0218 40.0132 23.7093 40.0286 23.7372 38.0286 20.4872 38.0465 20.5134 35.734 17.4509 35.7656 17.487 30.0781 11.862 30.1183 11.8959 23.4933 7.1459 23.5404 7.17413 16.0404 3.48663 16.0776 3.5022 12.1401 2.1272 12.1692 2.13588 8.16916 1.13588 8.20006 1.14207 4.07506 0.517072 4.10986 0.520489-0.0151359 0.332989ZM80.6143 69.5536 88.1875 74.3125 79.8365 77.5157Z" transform="matrix(1 0 0 -1 702.5 556.81)"/><path d="M702.52 556.167 706.66 556.418 710.816 557.048 714.848 558.056 718.82 559.506 726.362 563.277 733.032 568.185 738.754 574.033 741.09 577.189 743.106 580.529 744.747 583.936 745.947 587.474 746.706 591.079 746.958 594.664 747.208 598.227 747.201 598.181 747.951 601.744 747.941 601.705 749.128 605.205 749.114 605.17 750.739 608.608 750.721 608.575 752.721 611.825 752.707 611.804 755.02 614.992 754.988 614.954 760.613 620.704 760.571 620.668 767.259 625.543 767.215 625.516 774.652 629.328 774.61 629.31 778.547 630.685 778.517 630.676 782.58 631.676 782.538 631.669 784.095 631.847 784.019 632.51 782.441 632.329 778.343 631.32 774.368 629.932 766.887 626.097 760.156 621.191 754.495 615.403 752.16 612.186 750.144 608.909 748.503 605.438 747.303 601.901 746.544 598.296 746.293 594.711 746.043 591.148 746.049 591.194 745.299 587.631 745.309 587.67 744.122 584.17 744.137 584.207 742.512 580.832 742.527 580.86 740.527 577.547 740.545 577.573 738.232 574.448 738.262 574.483 732.574 568.671 732.615 568.706 725.99 563.831 726.039 563.861 718.539 560.111 718.573 560.126 714.636 558.688 714.669 558.698 710.669 557.698 710.7 557.705 706.575 557.08 706.605 557.083 702.48 556.833ZM783.149 628.061 790.688 632.875 782.313 636.017Z"/><text font-family="Calibri,Calibri_MSFontService,sans-serif" font-weight="400" font-size="24" transform="translate(358.193 106)">Goal<tspan font-size="24" x="217.653" y="0">Objectives</tspan><tspan font-size="24" x="437.119" y="0">Sub</tspan><tspan font-size="24" x="473.452" y="0">-</tspan><tspan font-size="24" x="480.785" y="0">objectives</tspan></text><path d="M496.5 73.5001 523.5 100.5 499.5 124.5 499.5 667.5" stroke="#7F7F7F" stroke-width="1.33333" stroke-miterlimit="8" stroke-dasharray="4 1.33333" fill="none" fill-rule="evenodd"/><path d="M731.5 73.5001 758.5 100.5 734.5 124.5 734.5 667.5" stroke="#7F7F7F" stroke-width="1.33333" stroke-miterlimit="8" stroke-dasharray="4 1.33333" fill="none" fill-rule="evenodd"/></g></svg>