<svg width="3404" height="1672" xmlns="http://www.w3.org/2000/svg" xmlns:xlink="http://www.w3.org/1999/xlink" overflow="hidden"><defs><clipPath id="clip0"><rect x="488" y="327" width="3404" height="1672"/></clipPath></defs><g clip-path="url(#clip0)" transform="translate(-488 -327)"><path d="M1652.5 366.167C1652.5 345.917 1668.92 329.5 1689.17 329.5L2690.83 329.5C2711.08 329.5 2727.5 345.917 2727.5 366.167L2727.5 512.833C2727.5 533.084 2711.08 549.5 2690.83 549.5L1689.17 549.5C1668.92 549.5 1652.5 533.084 1652.5 512.833Z" stroke="#000000" stroke-width="4.58333" stroke-miterlimit="8" fill="#FFFFFF" fill-rule="evenodd"/><text font-family="Calibri,Calibri_MSFontService,sans-serif" font-weight="400" font-size="83" transform="matrix(1 0 0 1 1801.36 466)">Preference of Land <tspan font-size="83" x="650.467" y="0">U</tspan><tspan font-size="83" x="703.175" y="0">se </tspan></text><path d="M490.5 957.001C490.5 936.842 506.842 920.5 527.001 920.5L1034 920.5C1054.16 920.5 1070.5 936.842 1070.5 957.001L1070.5 1103C1070.5 1123.16 1054.16 1139.5 1034 1139.5L527.001 1139.5C506.842 1139.5 490.5 1123.16 490.5 1103Z" stroke="#000000" stroke-width="4.58333" stroke-miterlimit="8" fill="#FFFFFF" fill-rule="evenodd"/><text font-family="Calibri,Calibri_MSFontService,sans-serif" font-weight="400" font-size="83" transform="matrix(1 0 0 1 660.423 1057)">Farmer</text><path d="M1899.5 957.001C1899.5 936.842 1915.84 920.5 1936 920.5L2444 920.5C2464.16 920.5 2480.5 936.842 2480.5 957.001L2480.5 1103C2480.5 1123.16 2464.16 1139.5 2444 1139.5L1936 1139.5C1915.84 1139.5 1899.5 1123.16 1899.5 1103Z" stroke="#000000" stroke-width="4.58333" stroke-miterlimit="8" fill="#FFFFFF" fill-rule="evenodd"/><text font-family="Calibri,Calibri_MSFontService,sans-serif" font-weight="400" font-size="83" transform="matrix(1 0 0 1 1978.31 1007)">Government <tspan font-size="83" x="99.1375" y="99">official </tspan></text><path d="M2604.5 957.001C2604.5 936.842 2620.84 920.5 2641 920.5L3149 920.5C3169.16 920.5 3185.5 936.842 3185.5 957.001L3185.5 1103C3185.5 1123.16 3169.16 1139.5 3149 1139.5L2641 1139.5C2620.84 1139.5 2604.5 1123.16 2604.5 1103Z" stroke="#000000" stroke-width="4.58333" stroke-miterlimit="8" fill="#FFFFFF" fill-rule="evenodd"/><text font-family="Calibri,Calibri_MSFontService,sans-serif" font-weight="400" font-size="83" transform="matrix(1 0 0 1 2814.4 1057)">NGO</text><path d="M1195.5 957.001C1195.5 936.842 1211.84 920.5 1232 920.5L1739 920.5C1759.16 920.5 1775.5 936.842 1775.5 957.001L1775.5 1103C1775.5 1123.16 1759.16 1139.5 1739 1139.5L1232 1139.5C1211.84 1139.5 1195.5 1123.16 1195.5 1103Z" stroke="#000000" stroke-width="4.58333" stroke-miterlimit="8" fill="#FFFFFF" fill-rule="evenodd"/><text font-family="Calibri,Calibri_MSFontService,sans-serif" font-weight="400" font-size="83" transform="matrix(1 0 0 1 1339.19 1007)">Property <tspan font-size="83" x="-23.2605" y="99">developer</tspan></text><path d="M3309.5 957.001C3309.5 936.842 3325.84 920.5 3346 920.5L3853 920.5C3873.16 920.5 3889.5 936.842 3889.5 957.001L3889.5 1103C3889.5 1123.16 3873.16 1139.5 3853 1139.5L3346 1139.5C3325.84 1139.5 3309.5 1123.16 3309.5 1103Z" stroke="#000000" stroke-width="4.58333" stroke-miterlimit="8" fill="#FFFFFF" fill-rule="evenodd"/><text font-family="Calibri,Calibri_MSFontService,sans-serif" font-weight="400" font-size="83" transform="matrix(1 0 0 1 3390.07 1057)">Homeowner</text><path d="M1002.5 1528C1002.5 1507.84 1018.84 1491.5 1039 1491.5L1581 1491.5C1601.16 1491.5 1617.5 1507.84 1617.5 1528L1617.5 1674C1617.5 1694.16 1601.16 1710.5 1581 1710.5L1039 1710.5C1018.84 1710.5 1002.5 1694.16 1002.5 1674Z" stroke="#000000" stroke-width="4.58333" stroke-miterlimit="8" fill="#FFFFFF" fill-rule="evenodd"/><text font-family="Calibri,Calibri_MSFontService,sans-serif" font-weight="400" font-size="83" transform="matrix(1 0 0 1 1115.55 1578)">Agricultural <tspan font-size="83" x="53.3042" y="99">land use</tspan></text><path d="M1882.5 1528C1882.5 1507.84 1898.84 1491.5 1919 1491.5L2461 1491.5C2481.16 1491.5 2497.5 1507.84 2497.5 1528L2497.5 1674C2497.5 1694.16 2481.16 1710.5 2461 1710.5L1919 1710.5C1898.84 1710.5 1882.5 1694.16 1882.5 1674Z" stroke="#000000" stroke-width="4.58333" stroke-miterlimit="8" fill="#FFFFFF" fill-rule="evenodd"/><text font-family="Calibri,Calibri_MSFontService,sans-serif" font-weight="400" font-size="83" transform="matrix(1 0 0 1 2003.42 1578)">Urban land <tspan font-size="83" x="111.719" y="99">uses</tspan></text><path d="M2783.5 1528C2783.5 1507.84 2799.84 1491.5 2820 1491.5L3362 1491.5C3382.16 1491.5 3398.5 1507.84 3398.5 1528L3398.5 1674C3398.5 1694.16 3382.16 1710.5 3362 1710.5L2820 1710.5C2799.84 1710.5 2783.5 1694.16 2783.5 1674Z" stroke="#000000" stroke-width="4.58333" stroke-miterlimit="8" fill="#FFFFFF" fill-rule="evenodd"/><text font-family="Calibri,Calibri_MSFontService,sans-serif" font-weight="400" font-size="83" transform="matrix(1 0 0 1 2840.18 1578)">Conservational <tspan font-size="83" x="177.558" y="99">land</tspan></text><path d="M0 0 1409.42 370.944" stroke="#000000" stroke-width="2.29167" stroke-miterlimit="8" fill="none" fill-rule="evenodd" transform="matrix(1 0 0 -1 780 919.944)"/><path d="M0 0 704.708 370.944" stroke="#000000" stroke-width="2.29167" stroke-miterlimit="8" fill="none" fill-rule="evenodd" transform="matrix(1 0 0 -1 1485 919.944)"/><path d="M0 0 0.000360892 370.944" stroke="#000000" stroke-width="2.29167" stroke-miterlimit="8" fill="none" fill-rule="evenodd" transform="matrix(1 0 0 -1 2190 919.944)"/><path d="M2894.71 919.943 2190 549" stroke="#000000" stroke-width="2.29167" stroke-miterlimit="8" fill="none" fill-rule="evenodd"/><path d="M3599.42 919.943 2190 549" stroke="#000000" stroke-width="2.29167" stroke-miterlimit="8" fill="none" fill-rule="evenodd"/><path d="M780 1139 1309.29 1490.65" stroke="#000000" stroke-width="2.29167" stroke-miterlimit="8" fill="none" fill-rule="evenodd"/><path d="M0 0 175.414 351.651" stroke="#000000" stroke-width="2.29167" stroke-miterlimit="8" fill="none" fill-rule="evenodd" transform="matrix(1 0 0 -1 1309 1490.65)"/><path d="M780 1139 2189.42 1490.65" stroke="#000000" stroke-width="2.29167" stroke-miterlimit="8" fill="none" fill-rule="evenodd"/><path d="M780 1139 3090.31 1490.65" stroke="#000000" stroke-width="2.29167" stroke-miterlimit="8" fill="none" fill-rule="evenodd"/><path d="M1485 1139 2189.71 1490.65" stroke="#000000" stroke-width="2.29167" stroke-miterlimit="8" fill="none" fill-rule="evenodd"/><path d="M2190 1139 2190 1490.65" stroke="#000000" stroke-width="2.29167" stroke-miterlimit="8" fill="none" fill-rule="evenodd"/><path d="M1485 1139 3090.6 1490.65" stroke="#000000" stroke-width="2.29167" stroke-miterlimit="8" fill="none" fill-rule="evenodd"/><path d="M0 0 880.122 351.651" stroke="#000000" stroke-width="2.29167" stroke-miterlimit="8" fill="none" fill-rule="evenodd" transform="matrix(-1 0 0 1 2189.12 1139)"/><path d="M2190 1139 3090.9 1490.65" stroke="#000000" stroke-width="2.29167" stroke-miterlimit="8" fill="none" fill-rule="evenodd"/><path d="M0 0 704.708 351.652" stroke="#000000" stroke-width="2.29167" stroke-miterlimit="8" fill="none" fill-rule="evenodd" transform="matrix(1 0 0 -1 2190 1490.65)"/><path d="M0 0 1584.83 351.652" stroke="#000000" stroke-width="2.29167" stroke-miterlimit="8" fill="none" fill-rule="evenodd" transform="matrix(-1 0 0 1 2893.83 1139)"/><path d="M3090.19 1490.65 2894 1139" stroke="#000000" stroke-width="2.29167" stroke-miterlimit="8" fill="none" fill-rule="evenodd"/><path d="M0 0 2289.54 351.652" stroke="#000000" stroke-width="2.29167" stroke-miterlimit="8" fill="none" fill-rule="evenodd" transform="matrix(1 0 0 -1 1309 1490.65)"/><path d="M0 0 1409.42 351.652" stroke="#000000" stroke-width="2.29167" stroke-miterlimit="8" fill="none" fill-rule="evenodd" transform="matrix(1 0 0 -1 2190 1490.65)"/><path d="M0 0 508.52 351.652" stroke="#000000" stroke-width="2.29167" stroke-miterlimit="8" fill="none" fill-rule="evenodd" transform="matrix(1 0 0 -1 3091 1490.65)"/><text font-family="Calibri,Calibri_MSFontService,sans-serif" font-weight="400" font-size="83" transform="matrix(1 0 0 1 1332.35 1927)">Decomposition of the overall goal into a hierarchy </text></g></svg>