<svg width="2908" height="1252" xmlns="http://www.w3.org/2000/svg" xmlns:xlink="http://www.w3.org/1999/xlink" overflow="hidden"><defs><clipPath id="clip0"><rect x="457" y="394" width="2908" height="1252"/></clipPath></defs><g clip-path="url(#clip0)" transform="translate(-457 -394)"><path d="M1858.5 433.001C1858.5 412.842 1874.84 396.5 1895 396.5L2391 396.5C2411.16 396.5 2427.5 412.842 2427.5 433.001L2427.5 578.999C2427.5 599.158 2411.16 615.5 2391 615.5L1895 615.5C1874.84 615.5 1858.5 599.158 1858.5 578.999Z" stroke="#000000" stroke-width="4.58333" stroke-miterlimit="8" fill="#FFFFFF" fill-rule="evenodd"/><text font-family="Arial,Arial_MSFontService,sans-serif" font-weight="400" font-size="83" transform="matrix(1 0 0 1 2055.34 534)">Goal</text><path d="M2769.5 898.001C2769.5 877.842 2785.84 861.5 2806 861.5L3326 861.5C3346.16 861.5 3362.5 877.842 3362.5 898.001L3362.5 1044C3362.5 1064.16 3346.16 1080.5 3326 1080.5L2806 1080.5C2785.84 1080.5 2769.5 1064.16 2769.5 1044Z" stroke="#000000" stroke-width="4.58333" stroke-miterlimit="8" fill="#FFFFFF" fill-rule="evenodd"/><text font-family="Arial,Arial_MSFontService,sans-serif" font-weight="400" font-size="83" transform="matrix(1 0 0 1 2859.34 999)">Objective 2</text><path d="M921.5 898.001C921.5 877.842 937.842 861.5 958.001 861.5L1479 861.5C1499.16 861.5 1515.5 877.842 1515.5 898.001L1515.5 1044C1515.5 1064.16 1499.16 1080.5 1479 1080.5L958.001 1080.5C937.842 1080.5 921.5 1064.16 921.5 1044Z" stroke="#000000" stroke-width="4.58333" stroke-miterlimit="8" fill="#FFFFFF" fill-rule="evenodd"/><text font-family="Arial,Arial_MSFontService,sans-serif" font-weight="400" font-size="83" transform="matrix(1 0 0 1 1011.91 999)">Objective 1</text><path d="M459.5 1461C459.5 1440.84 475.842 1424.5 496.001 1424.5L991.999 1424.5C1012.16 1424.5 1028.5 1440.84 1028.5 1461L1028.5 1607C1028.5 1627.16 1012.16 1643.5 991.999 1643.5L496.001 1643.5C475.842 1643.5 459.5 1627.16 459.5 1607Z" stroke="#000000" stroke-width="4.58333" stroke-miterlimit="8" fill="#FFFFFF" fill-rule="evenodd"/><text font-family="Arial,Arial_MSFontService,sans-serif" font-weight="400" font-size="69" transform="matrix(1 0 0 1 506.306 1557)">Sub<tspan font-size="69" x="122.604" y="0">-</tspan><tspan font-size="69" x="145.521" y="0">objective 1</tspan></text><path d="M1427.5 1458.17C1427.5 1437.92 1443.92 1421.5 1464.17 1421.5L1959.83 1421.5C1980.08 1421.5 1996.5 1437.92 1996.5 1458.17L1996.5 1604.83C1996.5 1625.08 1980.08 1641.5 1959.83 1641.5L1464.17 1641.5C1443.92 1641.5 1427.5 1625.08 1427.5 1604.83Z" stroke="#000000" stroke-width="4.58333" stroke-miterlimit="8" fill="#FFFFFF" fill-rule="evenodd"/><text font-family="Arial,Arial_MSFontService,sans-serif" font-weight="400" font-size="69" transform="matrix(1 0 0 1 1474.08 1555)">Sub<tspan font-size="69" x="122.604" y="0">-</tspan><tspan font-size="69" x="145.521" y="0">objective 2</tspan></text><path d="M0.408099-3.41319 6.51092-2.6835 12.9149-0.525658 19.1176 3.01875 25.1645 7.80313 31.0465 13.6851 36.8639 20.7307 42.5084 28.8125 48.0471 37.98 53.5044 48.0697 58.7537 59.1376 63.9888 71.1215 69.0316 83.9807 73.9405 97.7004 78.6556 112.16 83.2392 127.418 87.6971 143.366 91.9017 159.996 95.9787 177.245 99.8044 195.119 103.441 213.489 106.826 232.422 109.959 251.722 112.905 271.525 115.538 291.716 120.048 332.991 123.369 375.283 125.436 418.265 126.125 461.57 126.812 504.82 126.809 504.71 128.871 547.585 128.864 547.481 132.177 589.668 132.167 589.564 136.667 630.752 136.659 630.68 139.284 650.805 139.275 650.743 142.212 670.43 142.206 670.388 145.331 689.701 145.321 689.645 148.696 708.52 148.685 708.457 152.31 726.77 152.296 726.704 156.171 744.454 156.161 744.408 160.161 761.596 160.142 761.521 164.392 778.083 164.376 778.024 168.751 793.899 168.73 793.823 173.292 809.011 173.264 808.921 178.014 823.297 177.987 823.217 182.862 836.842 182.825 836.745 187.825 849.495 187.781 849.388 192.906 861.263 192.849 861.138 198.099 872.075 198.031 871.942 203.344 881.879 203.255 881.722 208.692 890.722 208.568 890.532 214.068 898.407 213.901 898.186 219.526 904.999 218.916 904.421 226.863 910.285 222.781 915.817 214.494 909.702 208.511 902.457 202.867 894.375 197.324 885.2 191.933 875.117 186.621 864.05 181.446 852.059 176.406 839.207 171.499 825.493 166.721 811.034 162.134 795.764 157.74 779.821 153.473 763.192 149.459 745.944 145.572 728.138 141.934 709.761 138.549 690.827 135.416 671.466 132.47 651.726 129.837 631.534 125.327 590.259 122.006 547.967 119.939 504.985 119.25 461.68 118.563 418.43 118.566 418.54 116.504 375.665 116.511 375.769 113.198 333.582 113.208 333.686 108.708 292.498 108.716 292.57 106.091 272.445 106.1 272.506 103.162 252.756 103.169 252.801 100.044 233.551 100.054 233.605 96.6787 214.73 96.6904 214.792 93.0654 196.48 93.0761 196.532 89.2636 178.719 89.2797 178.791 85.2172 161.603 85.2299 161.655 81.0424 145.093 81.0644 145.175 76.6269 129.3 76.6453 129.364 72.0828 114.177 72.1069 114.253 67.4194 99.8782 67.4509 99.9705 62.5759 86.3455 62.6123 86.4425 57.6123 73.6925 57.6624 73.8136 52.4749 61.9386 52.5191 62.0356 47.3316 51.0981 47.4139 51.2604 42.0389 41.3229 42.1203 41.4651 36.6828 32.4651 36.8068 32.6558 31.3068 24.7808 31.4743 25.0012 25.8493 18.1887 26.0693 18.4307 20.4443 12.8057 20.7421 13.0708 15.0546 8.57076 15.482 8.85958 9.79452 5.60959 10.4024 5.88254 4.65235 3.94504 5.3419 4.10069-0.408099 3.41319ZM226.793 898.692 245.375 923.187 214.63 923.356Z" transform="matrix(1.83697e-16 1 1 -1.83697e-16 2142.5 615.5)"/><path d="M2146.17 615.908 2145.44 622.011 2143.29 628.415 2139.74 634.618 2134.95 640.672 2129 646.553 2121.97 652.364 2113.88 658.009 2104.72 663.547 2094.63 669.005 2083.56 674.255 2071.51 679.49 2058.65 684.532 2044.93 689.442 2030.41 694.157 2015.15 698.74 1999.21 703.198 1982.58 707.402 1965.26 711.479 1947.39 715.305 1929.02 718.941 1910.09 722.327 1890.66 725.46 1870.86 728.405 1850.67 731.039 1809.33 735.548 1766.98 738.869 1723.99 740.937 1680.63 741.625 1637.38 742.312 1637.49 742.309 1594.55 744.371 1594.65 744.365 1552.4 747.677 1552.51 747.668 1511.26 752.168 1511.33 752.159 1491.2 754.784 1491.27 754.775 1471.52 757.713 1471.56 757.706 1452.25 760.831 1452.3 760.822 1433.43 764.197 1433.49 764.185 1415.11 767.81 1415.18 767.797 1397.37 771.672 1397.41 771.661 1380.23 775.661 1380.3 775.643 1363.74 779.892 1363.79 779.878 1347.86 784.253 1347.94 784.23 1332.75 788.792 1332.84 788.764 1318.46 793.514 1318.54 793.487 1304.92 798.362 1305.01 798.328 1292.2 803.328 1292.31 803.281 1280.43 808.406 1280.56 808.349 1269.62 813.599 1269.75 813.536 1259.75 818.849 1259.92 818.75 1250.98 824.187 1251.17 824.069 1243.29 829.569 1243.51 829.401 1236.7 835.026 1237.27 834.427 1231.35 842.379 1225.84 838.276 1232 829.99 1239.24 824.011 1247.32 818.37 1256.43 812.824 1266.58 807.432 1277.65 802.122 1289.64 796.945 1302.56 791.905 1316.27 787 1330.73 782.222 1346 777.634 1362 773.24 1378.63 768.974 1395.88 764.959 1413.75 761.072 1432.19 757.434 1451.12 754.049 1470.48 750.916 1490.28 747.971 1510.48 745.337 1551.81 740.827 1594.17 737.507 1637.21 735.439 1680.52 734.751 1723.83 734.063 1723.72 734.067 1766.59 732.004 1766.49 732.011 1808.74 728.698 1808.64 728.708 1849.89 724.208 1849.82 724.217 1869.94 721.592 1869.88 721.6 1889.63 718.663 1889.59 718.669 1908.96 715.544 1908.9 715.554 1927.78 712.179 1927.72 712.191 1946.03 708.566 1945.98 708.576 1963.79 704.764 1963.72 704.779 1980.97 700.717 1980.92 700.73 1997.48 696.543 1997.4 696.565 2013.27 692.127 2013.21 692.146 2028.4 687.583 2028.32 687.606 2042.76 682.918 2042.66 682.951 2056.29 678.076 2056.19 678.113 2068.94 673.113 2068.83 673.16 2080.76 667.973 2080.66 668.019 2091.6 662.832 2091.44 662.914 2101.37 657.539 2101.23 657.621 2110.23 652.183 2110.04 652.307 2117.92 646.807 2117.7 646.975 2124.51 641.35 2124.28 641.556 2129.97 635.931 2129.69 636.242 2134.19 630.555 2133.9 630.982 2137.15 625.295 2136.88 625.903 2138.81 620.153 2138.66 620.842 2139.35 615.092ZM1242.95 842.307 1218.45 860.875 1218.3 830.13Z"/><path d="M0.160956-3.43373 8.30732-3.05187 16.5846-1.95255 24.8049-0.204916 32.9337 2.31114 41.0294 5.39521 49.0045 9.12549 56.8147 13.4787 64.5479 18.336 72.1398 23.8225 79.5924 29.7464 86.8516 36.2414 93.8953 43.1582 100.811 50.5183 107.478 58.3284 113.878 66.565 120.095 75.1933 131.719 93.3874 142.152 112.925 151.377 133.588 159.138 155.041 162.495 166.125 165.465 177.374 167.995 188.693 170.08 200.191 171.786 211.696 172.989 223.337 173.748 235.039 173.999 246.676 174.249 258.238 174.243 258.089 174.993 269.589 174.982 269.459 176.169 280.959 176.153 280.829 177.778 292.266 177.753 292.115 179.878 303.428 179.856 303.317 182.356 314.567 182.322 314.43 185.26 325.493 185.233 325.396 188.483 336.333 188.418 336.138 196.168 357.45 196.075 357.22 205.2 377.595 205.095 377.381 215.407 396.693 215.276 396.469 226.714 414.469 226.601 414.303 232.726 422.803 232.642 422.691 239.017 430.816 238.927 430.706 245.489 438.393 245.391 438.283 252.141 445.533 252.022 445.412 259.022 452.224 258.917 452.126 266.042 458.501 265.9 458.381 273.15 464.193 273.013 464.089 280.451 469.464 280.266 469.339 287.828 474.089 287.663 473.992 295.351 478.242 295.144 478.136 302.894 481.761 302.67 481.666 310.482 484.666 310.015 484.524 319.175 486.614 317.645 493.317 308.246 491.172 300.091 488.04 292.126 484.315 284.253 479.962 276.515 475.101 268.917 469.611 261.527 463.686 254.279 457.201 247.167 450.279 240.309 442.913 233.652 435.115 227.19 426.879 220.965 418.241 209.404 400.046 198.974 380.514 189.749 359.917 181.922 338.39 178.628 327.306 175.66 316.127 173.132 304.753 170.982 293.309 169.337 281.731 168.137 270.101 167.377 258.462 167.126 246.824 166.876 235.262 166.882 235.41 166.132 223.848 166.143 223.978 164.956 212.478 164.975 212.629 163.287 201.254 163.305 201.363 161.243 189.988 161.27 190.125 158.77 178.937 158.801 179.065 155.864 167.94 155.898 168.059 152.585 157.121 152.643 157.294 144.955 136.044 145.049 136.276 135.924 115.839 136.03 116.057 125.718 96.7442 125.853 96.9757 114.353 78.9757 114.461 79.1346 108.336 70.6346 108.41 70.734 102.098 62.609 102.198 62.7318 95.6356 55.0443 95.7449 55.1664 88.9324 47.9164 89.029 48.0152 82.0915 41.2027 82.2079 41.3118 75.0829 34.9368 75.236 35.066 67.9235 29.2535 68.049 29.3486 60.6115 23.9736 60.7966 24.0984 53.2341 19.3484 53.3889 19.4401 45.7639 15.1901 45.9811 15.3012 38.2311 11.6762 38.4638 11.7748 30.5888 8.7748 30.7961 8.8463 22.9211 6.40879 23.2227 6.48735 15.2852 4.79985 15.5474 4.84508 7.54743 3.78258 7.83904 3.80873-0.160956 3.43373ZM315.963 475.68 341.062 493.437 311.797 502.863Z" transform="matrix(1.83697e-16 1 1 -1.83697e-16 1218.5 1080.5)"/><path d="M1222.31 1080.66 1221.93 1088.85 1220.9 1097.18 1219.22 1105.45 1216.83 1113.64 1213.81 1121.8 1210.22 1129.82 1206.06 1137.69 1201.4 1145.48 1196.17 1153.14 1190.43 1160.66 1184.19 1167.98 1177.52 1175.09 1170.48 1182.01 1162.93 1188.74 1155.01 1195.26 1146.75 1201.49 1129.18 1213.25 1110.39 1223.75 1090.62 1233.03 1080.35 1237.15 1069.85 1240.94 1059.23 1244.3 1048.48 1247.27 1037.53 1249.86 1026.52 1251.95 1015.39 1253.66 1004.18 1254.86 992.971 1255.62 981.768 1255.87 970.643 1256.12 970.798 1256.12 959.736 1256.87 959.87 1256.86 948.808 1258.04 948.962 1258.02 937.962 1259.71 938.081 1259.69 927.206 1261.75 927.358 1261.72 916.546 1264.28 916.664 1264.25 905.977 1267.19 906.1 1267.15 895.6 1270.47 895.74 1270.42 885.428 1274.17 885.533 1274.13 875.408 1278.19 875.586 1278.11 855.961 1287.3 856.18 1287.19 837.618 1297.56 837.845 1297.42 820.47 1308.99 820.648 1308.86 812.523 1315.05 812.614 1314.98 804.801 1321.35 804.915 1321.25 797.477 1327.88 797.61 1327.75 790.673 1334.63 790.761 1334.54 784.198 1341.54 784.307 1341.42 778.182 1348.6 778.29 1348.47 772.665 1355.78 772.779 1355.63 767.654 1363.13 767.765 1362.95 763.203 1370.58 763.292 1370.42 759.23 1378.11 759.332 1377.9 755.832 1385.77 755.911 1385.58 752.974 1393.45 753.113 1392.98 751.083 1402.36 744.363 1400.91 746.446 1391.28 749.507 1383.08 753.097 1375 757.257 1367.13 761.919 1359.33 767.157 1351.67 772.893 1344.21 779.127 1336.9 785.789 1329.79 792.836 1322.81 800.397 1316.07 808.312 1309.61 816.57 1303.32 834.147 1291.63 852.934 1281.13 872.758 1271.85 883.025 1267.73 893.461 1263.93 904.093 1260.58 914.901 1257.61 925.849 1255.01 936.86 1252.92 947.996 1251.22 959.203 1250.01 970.411 1249.25 981.613 1249 992.738 1248.75 992.583 1248.76 1003.65 1248.01 1003.51 1248.02 1014.57 1246.83 1014.42 1246.85 1025.42 1245.16 1025.3 1245.19 1036.18 1243.12 1036.02 1243.16 1046.84 1240.59 1046.71 1240.62 1057.34 1237.69 1057.22 1237.72 1067.72 1234.41 1067.58 1234.45 1077.96 1230.7 1077.85 1230.75 1087.97 1226.68 1087.79 1226.76 1107.35 1217.58 1107.14 1217.69 1125.7 1207.31 1125.47 1207.46 1142.84 1195.83 1142.68 1195.94 1150.81 1189.82 1150.69 1189.91 1158.5 1183.47 1158.4 1183.56 1165.84 1176.93 1165.72 1177.05 1172.66 1170.23 1172.56 1170.34 1179.12 1163.34 1179.01 1163.46 1185.14 1156.27 1185.02 1156.42 1190.64 1149.04 1190.54 1149.19 1195.67 1141.69 1195.55 1141.86 1200.12 1134.24 1200.03 1134.39 1204.09 1126.71 1203.99 1126.91 1207.49 1119.09 1207.4 1119.31 1210.34 1111.37 1210.27 1111.6 1212.58 1103.66 1212.51 1103.94 1214.13 1095.94 1214.09 1096.2 1215.09 1088.14 1215.07 1088.4 1215.44 1080.34ZM761.988 1399.07 744.441 1424.31 734.771 1395.13Z"/></g></svg>