<svg width="3578" height="1667" xmlns="http://www.w3.org/2000/svg" xmlns:xlink="http://www.w3.org/1999/xlink" overflow="hidden"><defs><clipPath id="clip0"><rect x="597" y="415" width="3578" height="1667"/></clipPath></defs><g clip-path="url(#clip0)" transform="translate(-597 -415)"><path d="M2146.5 453.999C2146.5 433.841 2162.84 417.5 2183 417.5L2394 417.5C2414.16 417.5 2430.5 433.841 2430.5 453.999L2430.5 599.989C2430.5 620.147 2414.16 636.488 2394 636.488L2183 636.488C2162.84 636.488 2146.5 620.147 2146.5 599.989Z" stroke="#000000" stroke-width="4.58333" stroke-miterlimit="8" fill="#FFFFFF" fill-rule="evenodd"/><text font-family="Arial,Arial_MSFontService,sans-serif" font-weight="400" font-size="83" transform="matrix(1 0 0 1 2264.94 555)">1</text><path d="M2957.5 898.001C2957.5 877.842 2973.84 861.5 2994 861.5L3217 861.5C3237.16 861.5 3253.5 877.842 3253.5 898.001L3253.5 1044C3253.5 1064.16 3237.16 1080.5 3217 1080.5L2994 1080.5C2973.84 1080.5 2957.5 1064.16 2957.5 1044Z" stroke="#000000" stroke-width="4.58333" stroke-miterlimit="8" fill="#FFFFFF" fill-rule="evenodd"/><text font-family="Arial,Arial_MSFontService,sans-serif" font-weight="400" font-size="83" transform="matrix(1 0 0 1 3047.66 999)">1.2</text><path d="M1332.5 898.001C1332.5 877.842 1348.84 861.5 1369 861.5L1593 861.5C1613.16 861.5 1629.5 877.842 1629.5 898.001L1629.5 1044C1629.5 1064.16 1613.16 1080.5 1593 1080.5L1369 1080.5C1348.84 1080.5 1332.5 1064.16 1332.5 1044Z" stroke="#000000" stroke-width="4.58333" stroke-miterlimit="8" fill="#FFFFFF" fill-rule="evenodd"/><text font-family="Arial,Arial_MSFontService,sans-serif" font-weight="400" font-size="83" transform="matrix(1 0 0 1 1422.83 999)">1.<tspan font-size="83" x="68.75" y="0">1</tspan></text><path d="M599.5 1461C599.5 1440.84 615.842 1424.5 636.001 1424.5L847.999 1424.5C868.158 1424.5 884.5 1440.84 884.5 1461L884.5 1607C884.5 1627.16 868.158 1643.5 847.999 1643.5L636.001 1643.5C615.842 1643.5 599.5 1627.16 599.5 1607Z" stroke="#000000" stroke-width="4.58333" stroke-miterlimit="8" fill="#FFFFFF" fill-rule="evenodd"/><text font-family="Arial,Arial_MSFontService,sans-serif" font-weight="400" font-size="69" transform="matrix(1 0 0 1 665.331 1558)">1.1.1</text><path d="M1794.5 1897C1794.5 1876.84 1810.84 1860.5 1831 1860.5L2042 1860.5C2062.16 1860.5 2078.5 1876.84 2078.5 1897L2078.5 2042.99C2078.5 2063.15 2062.16 2079.49 2042 2079.49L1831 2079.49C1810.84 2079.49 1794.5 2063.15 1794.5 2042.99Z" stroke="#000000" stroke-width="4.58333" stroke-miterlimit="8" fill="#FFFFFF" fill-rule="evenodd"/><text font-family="Arial,Arial_MSFontService,sans-serif" font-weight="400" font-size="69" transform="matrix(1 0 0 1 1859.65 1993)">1.1.4</text><path d="M0-1.14583 113.504-1.14583 113.504 817.086 112.358 815.94 201.8 815.94 201.8 818.231 111.212 818.231 111.212 0 112.358 1.14583 0 1.14583ZM197.217 803.336 224.717 817.086 197.217 830.836Z" transform="matrix(1.83697e-16 1 1 -1.83697e-16 2288 636)"/><path d="M2288.88 636 2288.88 749.504 1480 749.504 1481.15 748.358 1481.15 837.8 1478.85 837.8 1478.85 747.212 2287.74 747.212 2286.59 748.358 2286.59 636ZM1493.75 833.216 1480 860.716 1466.25 833.216Z"/><path d="M1414.5 1461C1414.5 1440.84 1430.84 1424.5 1451 1424.5L1663 1424.5C1683.16 1424.5 1699.5 1440.84 1699.5 1461L1699.5 1607C1699.5 1627.16 1683.16 1643.5 1663 1643.5L1451 1643.5C1430.84 1643.5 1414.5 1627.16 1414.5 1607Z" stroke="#000000" stroke-width="4.58333" stroke-miterlimit="8" fill="#FFFFFF" fill-rule="evenodd"/><text font-family="Arial,Arial_MSFontService,sans-serif" font-weight="400" font-size="69" transform="matrix(1 0 0 1 1480.02 1558)">1.1.3</text><path d="M1000.5 1897C1000.5 1876.84 1016.84 1860.5 1037 1860.5L1248 1860.5C1268.16 1860.5 1284.5 1876.84 1284.5 1897L1284.5 2042.99C1284.5 2063.15 1268.16 2079.49 1248 2079.49L1037 2079.49C1016.84 2079.49 1000.5 2063.15 1000.5 2042.99Z" stroke="#000000" stroke-width="4.58333" stroke-miterlimit="8" fill="#FFFFFF" fill-rule="evenodd"/><text font-family="Arial,Arial_MSFontService,sans-serif" font-weight="400" font-size="69" transform="matrix(1 0 0 1 1065.59 1993)">1.1.2</text><path d="M2375.5 1461C2375.5 1440.84 2391.84 1424.5 2412 1424.5L2624 1424.5C2644.16 1424.5 2660.5 1440.84 2660.5 1461L2660.5 1607C2660.5 1627.16 2644.16 1643.5 2624 1643.5L2412 1643.5C2391.84 1643.5 2375.5 1627.16 2375.5 1607Z" stroke="#000000" stroke-width="4.58333" stroke-miterlimit="8" fill="#FFFFFF" fill-rule="evenodd"/><text font-family="Arial,Arial_MSFontService,sans-serif" font-weight="400" font-size="69" transform="matrix(1 0 0 1 2440.83 1558)">1.2.1</text><path d="M3131.5 1461C3131.5 1440.84 3147.84 1424.5 3168 1424.5L3380 1424.5C3400.16 1424.5 3416.5 1440.84 3416.5 1461L3416.5 1607C3416.5 1627.16 3400.16 1643.5 3380 1643.5L3168 1643.5C3147.84 1643.5 3131.5 1627.16 3131.5 1607Z" stroke="#000000" stroke-width="4.58333" stroke-miterlimit="8" fill="#FFFFFF" fill-rule="evenodd"/><text font-family="Arial,Arial_MSFontService,sans-serif" font-weight="400" font-size="69" transform="matrix(1 0 0 1 3197.08 1558)">1.1.3</text><path d="M3887.5 1461C3887.5 1440.84 3903.84 1424.5 3924 1424.5L4136 1424.5C4156.16 1424.5 4172.5 1440.84 4172.5 1461L4172.5 1607C4172.5 1627.16 4156.16 1643.5 4136 1643.5L3924 1643.5C3903.84 1643.5 3887.5 1627.16 3887.5 1607Z" stroke="#000000" stroke-width="4.58333" stroke-miterlimit="8" fill="#FFFFFF" fill-rule="evenodd"/><text font-family="Arial,Arial_MSFontService,sans-serif" font-weight="400" font-size="69" transform="matrix(1 0 0 1 3953.33 1558)">1.1.5</text><path d="M2768.5 1897C2768.5 1876.84 2784.84 1860.5 2805 1860.5L3016 1860.5C3036.16 1860.5 3052.5 1876.84 3052.5 1897L3052.5 2042.99C3052.5 2063.15 3036.16 2079.49 3016 2079.49L2805 2079.49C2784.84 2079.49 2768.5 2063.15 2768.5 2042.99Z" stroke="#000000" stroke-width="4.58333" stroke-miterlimit="8" fill="#FFFFFF" fill-rule="evenodd"/><text font-family="Arial,Arial_MSFontService,sans-serif" font-weight="400" font-size="69" transform="matrix(1 0 0 1 2833.6 1993)">1.1.2</text><path d="M3562.5 1897C3562.5 1876.84 3578.84 1860.5 3599 1860.5L3810 1860.5C3830.16 1860.5 3846.5 1876.84 3846.5 1897L3846.5 2042.99C3846.5 2063.15 3830.16 2079.49 3810 2079.49L3599 2079.49C3578.84 2079.49 3562.5 2063.15 3562.5 2042.99Z" stroke="#000000" stroke-width="4.58333" stroke-miterlimit="8" fill="#FFFFFF" fill-rule="evenodd"/><text font-family="Arial,Arial_MSFontService,sans-serif" font-weight="400" font-size="69" transform="matrix(1 0 0 1 3627.66 1993)">1.1.4</text><path d="M1481.45 1080 1481.45 1253.14 742 1253.14 743.146 1251.99 743.146 1401.07 740.854 1401.07 740.854 1250.85 1480.31 1250.85 1479.16 1251.99 1479.16 1080ZM755.75 1396.49 742 1423.99 728.25 1396.49Z"/><path d="M0-1.14583 173.14-1.14583 173.14 76.3785 171.994 75.2327 321.072 75.2327 321.072 77.5244 170.848 77.5244 170.848 0 171.994 1.14583 0 1.14583ZM316.488 62.6285 343.988 76.3785 316.488 90.1285Z" transform="matrix(1.83697e-16 1 1 -1.83697e-16 1480 1080)"/><path d="M3105.77 1080 3105.77 1253.14 2517 1253.14 2518.15 1251.99 2518.15 1401.07 2515.85 1401.07 2515.85 1250.85 3104.63 1250.85 3103.48 1251.99 3103.48 1080ZM2530.75 1396.49 2517 1423.99 2503.25 1396.49Z"/><path d="M0-1.14583 173.14-1.14583 173.14 924.871 171.994 923.725 321.071 923.725 321.071 926.017 170.849 926.017 170.849 0 171.994 1.14583 0 1.14583ZM316.488 911.121 343.988 924.871 316.488 938.621Z" transform="matrix(1.83697e-16 1 1 -1.83697e-16 3105 1080)"/><path d="M3702.15 1252 3702.15 1836.71 3699.85 1836.71 3699.85 1252ZM3714.75 1832.13 3701 1859.63 3687.25 1832.13Z"/><path d="M2908.15 1251.99 2911.45 1836.7 2909.16 1836.72 2905.85 1252.01ZM2924.03 1832.05 2910.44 1859.63 2896.53 1832.2Z"/><path d="M3275.15 1252 3275.15 1401.08 3272.85 1401.08 3272.85 1252ZM3287.75 1396.49 3274 1423.99 3260.25 1396.49Z"/><path d="M1143.15 1252 1143.15 1836.71 1140.85 1836.71 1140.85 1252ZM1155.75 1832.13 1142 1859.63 1128.25 1832.13Z"/><path d="M1557 1252 1931.9 1252" stroke="#000000" stroke-width="2.29167" stroke-miterlimit="8" fill="none" fill-rule="evenodd"/><path d="M1932.15 1252 1932.15 1836.71 1929.85 1836.71 1929.85 1252ZM1944.75 1832.13 1931 1859.63 1917.25 1832.13Z"/></g></svg>