<svg width="3221" height="1931" xmlns="http://www.w3.org/2000/svg" xmlns:xlink="http://www.w3.org/1999/xlink" overflow="hidden"><defs><clipPath id="clip0"><rect x="610" y="225" width="3221" height="1931"/></clipPath></defs><g clip-path="url(#clip0)" transform="translate(-610 -225)"><path d="M615 1449.33C615 1423.19 636.192 1402 662.334 1402L877.666 1402C903.808 1402 925 1423.19 925 1449.33L925 1638.67C925 1664.81 903.808 1686 877.666 1686L662.334 1686C636.192 1686 615 1664.81 615 1638.67Z" stroke="#000000" stroke-width="10.3125" stroke-miterlimit="8" fill="#FFFFFF" fill-rule="evenodd"/><text font-family="Arial,Arial_MSFontService,sans-serif" font-weight="700" font-size="83" transform="matrix(1 0 0 1 678.333 1573)">1.1.1</text><path d="M2319 1449.33C2319 1423.19 2340.19 1402 2366.33 1402L2582.67 1402C2608.81 1402 2630 1423.19 2630 1449.33L2630 1638.67C2630 1664.81 2608.81 1686 2582.67 1686L2366.33 1686C2340.19 1686 2319 1664.81 2319 1638.67Z" stroke="#000000" stroke-width="10.3125" stroke-miterlimit="8" fill="#FFFFFF" fill-rule="evenodd"/><text font-family="Arial,Arial_MSFontService,sans-serif" font-weight="700" font-size="83" transform="matrix(1 0 0 1 2382.59 1573)">1.2.1</text><path d="M2914 1449.33C2914 1423.19 2935.19 1402 2961.33 1402L3177.67 1402C3203.81 1402 3225 1423.19 3225 1449.33L3225 1638.67C3225 1664.81 3203.81 1686 3177.67 1686L2961.33 1686C2935.19 1686 2914 1664.81 2914 1638.67Z" stroke="#000000" stroke-width="10.3125" stroke-miterlimit="8" fill="#FFFFFF" fill-rule="evenodd"/><text font-family="Arial,Arial_MSFontService,sans-serif" font-weight="700" font-size="83" transform="matrix(1 0 0 1 2977.97 1573)">1.2.2</text><path d="M3515 1449.33C3515 1423.19 3536.19 1402 3562.33 1402L3778.67 1402C3804.81 1402 3826 1423.19 3826 1449.33L3826 1638.67C3826 1664.81 3804.81 1686 3778.67 1686L3562.33 1686C3536.19 1686 3515 1664.81 3515 1638.67Z" stroke="#000000" stroke-width="10.3125" stroke-miterlimit="8" fill="#FFFFFF" fill-rule="evenodd"/><text font-family="Arial,Arial_MSFontService,sans-serif" font-weight="700" font-size="83" transform="matrix(1 0 0 1 3578.84 1573)">1.2.3</text><path d="M1213 1449.33C1213 1423.19 1234.19 1402 1260.33 1402L1476.67 1402C1502.81 1402 1524 1423.19 1524 1449.33L1524 1638.67C1524 1664.81 1502.81 1686 1476.67 1686L1260.33 1686C1234.19 1686 1213 1664.81 1213 1638.67Z" stroke="#000000" stroke-width="10.3125" stroke-miterlimit="8" fill="#FFFFFF" fill-rule="evenodd"/><text font-family="Arial,Arial_MSFontService,sans-serif" font-weight="700" font-size="83" transform="matrix(1 0 0 1 1276.46 1573)">1.1.2</text><path d="M925 1913.5C925 1887.27 946.267 1866 972.501 1866L1188.5 1866C1214.73 1866 1236 1887.27 1236 1913.5L1236 2103.5C1236 2129.73 1214.73 2151 1188.5 2151L972.501 2151C946.267 2151 925 2129.73 925 2103.5Z" stroke="#000000" stroke-width="10.3125" stroke-miterlimit="8" fill="#FFFFFF" fill-rule="evenodd"/><text font-family="Arial,Arial_MSFontService,sans-serif" font-weight="700" font-size="83" transform="matrix(1 0 0 1 989.19 2037)">1.1.3</text><path d="M1524 1913.5C1524 1887.27 1545.27 1866 1571.5 1866L1786.5 1866C1812.73 1866 1834 1887.27 1834 1913.5L1834 2103.5C1834 2129.73 1812.73 2151 1786.5 2151L1571.5 2151C1545.27 2151 1524 2129.73 1524 2103.5Z" stroke="#000000" stroke-width="10.3125" stroke-miterlimit="8" fill="#FFFFFF" fill-rule="evenodd"/><text font-family="Arial,Arial_MSFontService,sans-serif" font-weight="700" font-size="83" transform="matrix(1 0 0 1 1587.32 2037)">1.1.4</text><path d="M2630 1913.5C2630 1887.27 2651.27 1866 2677.5 1866L2893.5 1866C2919.73 1866 2941 1887.27 2941 1913.5L2941 2103.5C2941 2129.73 2919.73 2151 2893.5 2151L2677.5 2151C2651.27 2151 2630 2129.73 2630 2103.5Z" stroke="#000000" stroke-width="10.3125" stroke-miterlimit="8" fill="#FFFFFF" fill-rule="evenodd"/><text font-family="Arial,Arial_MSFontService,sans-serif" font-weight="700" font-size="83" transform="matrix(1 0 0 1 2693.45 2037)">1.2.4</text><path d="M3228 1913.5C3228 1887.27 3249.27 1866 3275.5 1866L3491.5 1866C3517.73 1866 3539 1887.27 3539 1913.5L3539 2103.5C3539 2129.73 3517.73 2151 3491.5 2151L3275.5 2151C3249.27 2151 3228 2129.73 3228 2103.5Z" stroke="#000000" stroke-width="10.3125" stroke-miterlimit="8" fill="#FFFFFF" fill-rule="evenodd"/><text font-family="Arial,Arial_MSFontService,sans-serif" font-weight="700" font-size="83" transform="matrix(1 0 0 1 3291.57 2037)">1.2.5</text><path d="M1931 277.334C1931 251.192 1952.19 230 1978.33 230L2194.67 230C2220.81 230 2242 251.192 2242 277.334L2242 466.666C2242 492.808 2220.81 514 2194.67 514L1978.33 514C1952.19 514 1931 492.808 1931 466.666Z" stroke="#000000" stroke-width="10.3125" stroke-miterlimit="8" fill="#FFFFFF" fill-rule="evenodd"/><text font-family="Arial,Arial_MSFontService,sans-serif" font-weight="700" font-size="83" transform="matrix(1 0 0 1 2063.65 401)">1</text><path d="M1003 836.334C1003 810.192 1024.19 789 1050.33 789L1266.67 789C1292.81 789 1314 810.192 1314 836.334L1314 1025.67C1314 1051.81 1292.81 1073 1266.67 1073L1050.33 1073C1024.19 1073 1003 1051.81 1003 1025.67Z" stroke="#000000" stroke-width="10.3125" stroke-miterlimit="8" fill="#FFFFFF" fill-rule="evenodd"/><text font-family="Arial,Arial_MSFontService,sans-serif" font-weight="700" font-size="83" transform="matrix(1 0 0 1 1101.15 959)">1.1</text><path d="M2914 836.334C2914 810.192 2935.19 789 2961.33 789L3176.67 789C3202.81 789 3224 810.192 3224 836.334L3224 1025.67C3224 1051.81 3202.81 1073 3176.67 1073L2961.33 1073C2935.19 1073 2914 1051.81 2914 1025.67Z" stroke="#000000" stroke-width="10.3125" stroke-miterlimit="8" fill="#FFFFFF" fill-rule="evenodd"/><text font-family="Arial,Arial_MSFontService,sans-serif" font-weight="700" font-size="83" transform="matrix(1 0 0 1 3011.65 959)">1.2</text><path d="M0-3.4375 140.559-3.4375 140.559 982.384 137.122 978.947 251.327 978.947 251.327 985.822 133.684 985.822 133.684 0 137.122 3.4375 0 3.4375ZM246.743 968.634 274.243 982.384 246.743 996.134Z" fill="#0D0D0D" transform="matrix(1.83697e-16 1 1 -1.83697e-16 2087.5 514.5)"/><path d="M2090.06 514.5 2090.06 655.06 1158.5 655.06 1161.94 651.622 1161.94 765.827 1155.06 765.827 1155.06 648.185 2086.62 648.185 2083.19 651.622 2083.19 514.5ZM1172.25 761.244 1158.5 788.744 1144.75 761.244Z" fill="#0D0D0D"/><path d="M0-3.4375 167.854-3.4375 167.854 209.688 164.416 206.25 305.916 206.25 305.916 213.125 160.979 213.125 160.979 0 164.416 3.4375 0 3.4375ZM301.333 195.938 328.833 209.688 301.333 223.438Z" fill="#0D0D0D" transform="matrix(1.83697e-16 1 1 -1.83697e-16 1158.5 1073.5)"/><path d="M1162.37 1073.5 1162.37 1241.35 770.5 1241.35 773.937 1237.92 773.937 1379.42 767.062 1379.42 767.062 1234.48 1158.94 1234.48 1155.5 1237.92 1155.5 1073.5ZM784.25 1374.83 770.5 1402.33 756.75 1374.83Z" fill="#0D0D0D"/><path d="M0-3.4375 167.854-3.4375 167.854 601.562 164.417 598.125 305.916 598.125 305.916 605 160.979 605 160.979 0 164.417 3.4375 0 3.4375ZM301.333 587.812 328.833 601.562 301.333 615.312Z" fill="#0D0D0D" transform="matrix(1.83697e-16 1 1 -1.83697e-16 3069.5 1073.5)"/><path d="M3072.62 1073.5 3072.62 1241.35 2474.5 1241.35 2477.94 1237.92 2477.94 1379.42 2471.06 1379.42 2471.06 1234.48 3069.19 1234.48 3065.75 1237.92 3065.75 1073.5ZM2488.25 1374.83 2474.5 1402.33 2460.75 1374.83Z" fill="#0D0D0D"/><path d="M0-3.4375 167.854-3.4375 167.854 0.6875 164.416-2.75 305.916-2.75 305.916 4.125 160.979 4.125 160.979 0 164.416 3.4375 0 3.4375ZM301.333-13.0625 328.833 0.6875 301.333 14.4375Z" fill="#0D0D0D" transform="matrix(1.83697e-16 1 1 -1.83697e-16 3069.5 1073.5)"/><path d="M1084.94 1238.5 1084.94 1844.06 1078.06 1844.06 1078.06 1238.5ZM1095.25 1839.48 1081.5 1866.98 1067.75 1839.48Z" fill="#0D0D0D"/><path d="M1368.5 1238.5 1671.5 1238.5" stroke="#0D0D0D" stroke-width="6.875" stroke-miterlimit="8" fill="none" fill-rule="evenodd"/><path d="M1674.94 1238.5 1674.94 1844.06 1668.06 1844.06 1668.06 1238.5ZM1685.25 1839.48 1671.5 1866.98 1657.75 1839.48Z" fill="#0D0D0D"/><path d="M2788.94 1238.5 2788.94 1844.06 2782.06 1844.06 2782.06 1238.5ZM2799.25 1839.48 2785.5 1866.98 2771.75 1839.48Z" fill="#0D0D0D"/><path d="M3386.94 1238.5 3386.94 1844.06 3380.06 1844.06 3380.06 1238.5ZM3397.25 1839.48 3383.5 1866.98 3369.75 1839.48Z" fill="#0D0D0D"/></g></svg>