<svg width="2951" height="1931" xmlns="http://www.w3.org/2000/svg" xmlns:xlink="http://www.w3.org/1999/xlink" overflow="hidden"><defs><clipPath id="clip0"><rect x="725" y="225" width="2951" height="1931"/></clipPath></defs><g clip-path="url(#clip0)" transform="translate(-725 -225)"><path d="M730 1449.33C730 1423.19 751.192 1402 777.334 1402L992.666 1402C1018.81 1402 1040 1423.19 1040 1449.33L1040 1638.67C1040 1664.81 1018.81 1686 992.666 1686L777.334 1686C751.192 1686 730 1664.81 730 1638.67Z" stroke="#000000" stroke-width="10.3125" stroke-miterlimit="8" fill="#FFFFFF" fill-rule="evenodd"/><text font-family="Arial,Arial_MSFontService,sans-serif" font-weight="700" font-size="92" transform="matrix(1 0 0 1 783.281 1576)">1.1.1</text><path d="M2163 1449.33C2163 1423.19 2184.19 1402 2210.33 1402L2426.67 1402C2452.81 1402 2474 1423.19 2474 1449.33L2474 1638.67C2474 1664.81 2452.81 1686 2426.67 1686L2210.33 1686C2184.19 1686 2163 1664.81 2163 1638.67Z" stroke="#000000" stroke-width="10.3125" stroke-miterlimit="8" fill="#FFFFFF" fill-rule="evenodd"/><text font-family="Arial,Arial_MSFontService,sans-serif" font-weight="700" font-size="92" transform="matrix(1 0 0 1 2217.14 1576)">1.2.1</text><path d="M2759 1449.33C2759 1423.19 2780.19 1402 2806.33 1402L3022.67 1402C3048.81 1402 3070 1423.19 3070 1449.33L3070 1638.67C3070 1664.81 3048.81 1686 3022.67 1686L2806.33 1686C2780.19 1686 2759 1664.81 2759 1638.67Z" stroke="#000000" stroke-width="10.3125" stroke-miterlimit="8" fill="#FFFFFF" fill-rule="evenodd"/><text font-family="Arial,Arial_MSFontService,sans-serif" font-weight="700" font-size="92" transform="matrix(1 0 0 1 2812.51 1576)">1.2.2</text><path d="M3360 1449.33C3360 1423.19 3381.19 1402 3407.33 1402L3623.67 1402C3649.81 1402 3671 1423.19 3671 1449.33L3671 1638.67C3671 1664.81 3649.81 1686 3623.67 1686L3407.33 1686C3381.19 1686 3360 1664.81 3360 1638.67Z" stroke="#000000" stroke-width="10.3125" stroke-miterlimit="8" fill="#FFFFFF" fill-rule="evenodd"/><text font-family="Arial,Arial_MSFontService,sans-serif" font-weight="700" font-size="92" transform="matrix(1 0 0 1 3413.39 1576)">1.2.3</text><path d="M1328 1449.33C1328 1423.19 1349.19 1402 1375.33 1402L1591.67 1402C1617.81 1402 1639 1423.19 1639 1449.33L1639 1638.67C1639 1664.81 1617.81 1686 1591.67 1686L1375.33 1686C1349.19 1686 1328 1664.81 1328 1638.67Z" stroke="#000000" stroke-width="10.3125" stroke-miterlimit="8" fill="#FFFFFF" fill-rule="evenodd"/><text font-family="Arial,Arial_MSFontService,sans-serif" font-weight="700" font-size="92" transform="matrix(1 0 0 1 1381.41 1576)">1.1.2</text><path d="M1040 1913.5C1040 1887.27 1061.27 1866 1087.5 1866L1303.5 1866C1329.73 1866 1351 1887.27 1351 1913.5L1351 2103.5C1351 2129.73 1329.73 2151 1303.5 2151L1087.5 2151C1061.27 2151 1040 2129.73 1040 2103.5Z" stroke="#000000" stroke-width="10.3125" stroke-miterlimit="8" fill="#FFFFFF" fill-rule="evenodd"/><text font-family="Arial,Arial_MSFontService,sans-serif" font-weight="700" font-size="92" transform="matrix(1 0 0 1 1094.14 2040)">1.1.3</text><path d="M1639 1913.5C1639 1887.27 1660.27 1866 1686.5 1866L1901.5 1866C1927.73 1866 1949 1887.27 1949 1913.5L1949 2103.5C1949 2129.73 1927.73 2151 1901.5 2151L1686.5 2151C1660.27 2151 1639 2129.73 1639 2103.5Z" stroke="#000000" stroke-width="10.3125" stroke-miterlimit="8" fill="#FFFFFF" fill-rule="evenodd"/><text font-family="Arial,Arial_MSFontService,sans-serif" font-weight="700" font-size="92" transform="matrix(1 0 0 1 1692.26 2040)">1.1.4</text><path d="M2474 1913.5C2474 1887.27 2495.27 1866 2521.5 1866L2737.5 1866C2763.73 1866 2785 1887.27 2785 1913.5L2785 2103.5C2785 2129.73 2763.73 2151 2737.5 2151L2521.5 2151C2495.27 2151 2474 2129.73 2474 2103.5Z" stroke="#000000" stroke-width="10.3125" stroke-miterlimit="8" fill="#FFFFFF" fill-rule="evenodd"/><text font-family="Arial,Arial_MSFontService,sans-serif" font-weight="700" font-size="92" transform="matrix(1 0 0 1 2527.99 2040)">1.2.4</text><path d="M3072 1913.5C3072 1887.27 3093.27 1866 3119.5 1866L3335.5 1866C3361.73 1866 3383 1887.27 3383 1913.5L3383 2103.5C3383 2129.73 3361.73 2151 3335.5 2151L3119.5 2151C3093.27 2151 3072 2129.73 3072 2103.5Z" stroke="#000000" stroke-width="10.3125" stroke-miterlimit="8" fill="#FFFFFF" fill-rule="evenodd"/><text font-family="Arial,Arial_MSFontService,sans-serif" font-weight="700" font-size="92" transform="matrix(1 0 0 1 3126.12 2040)">1.2.5</text><path d="M1931 277.334C1931 251.192 1952.19 230 1978.33 230L2194.67 230C2220.81 230 2242 251.192 2242 277.334L2242 466.666C2242 492.808 2220.81 514 2194.67 514L1978.33 514C1952.19 514 1931 492.808 1931 466.666Z" stroke="#000000" stroke-width="10.3125" stroke-miterlimit="8" fill="#FFFFFF" fill-rule="evenodd"/><text font-family="Arial,Arial_MSFontService,sans-serif" font-weight="700" font-size="92" transform="matrix(1 0 0 1 2061.07 404)">1</text><path d="M1118 836.334C1118 810.192 1139.19 789 1165.33 789L1381.67 789C1407.81 789 1429 810.192 1429 836.334L1429 1025.67C1429 1051.81 1407.81 1073 1381.67 1073L1165.33 1073C1139.19 1073 1118 1051.81 1118 1025.67Z" stroke="#000000" stroke-width="10.3125" stroke-miterlimit="8" fill="#FFFFFF" fill-rule="evenodd"/><text font-family="Arial,Arial_MSFontService,sans-serif" font-weight="700" font-size="92" transform="matrix(1 0 0 1 1209.82 963)">1.1</text><path d="M2758 836.334C2758 810.192 2779.19 789 2805.33 789L3021.67 789C3047.81 789 3069 810.192 3069 836.334L3069 1025.67C3069 1051.81 3047.81 1073 3021.67 1073L2805.33 1073C2779.19 1073 2758 1051.81 2758 1025.67Z" stroke="#000000" stroke-width="10.3125" stroke-miterlimit="8" fill="#FFFFFF" fill-rule="evenodd"/><text font-family="Arial,Arial_MSFontService,sans-serif" font-weight="700" font-size="92" transform="matrix(1 0 0 1 2849.92 963)">1.2</text><path d="M0-3.4375 140.559-3.4375 140.559 826.956 137.122 823.518 251.327 823.518 251.327 830.393 133.684 830.393 133.684 0 137.122 3.4375 0 3.4375ZM246.743 813.206 274.243 826.956 246.743 840.706Z" fill="#0D0D0D" transform="matrix(1.83697e-16 1 1 -1.83697e-16 2087.5 514.5)"/><path d="M2090.09 514.5 2090.09 655.059 1273.5 655.059 1276.94 651.622 1276.94 765.826 1270.06 765.826 1270.06 648.184 2086.65 648.184 2083.21 651.622 2083.21 514.5ZM1287.25 761.243 1273.5 788.743 1259.75 761.243Z" fill="#0D0D0D"/><path d="M0-3.4375 167.854-3.4375 167.854 209.688 164.416 206.25 305.916 206.25 305.916 213.125 160.979 213.125 160.979 0 164.416 3.4375 0 3.4375ZM301.333 195.938 328.833 209.688 301.333 223.438Z" fill="#0D0D0D" transform="matrix(1.83697e-16 1 1 -1.83697e-16 1273.5 1073.5)"/><path d="M1277.37 1073.5 1277.37 1241.35 885.5 1241.35 888.937 1237.92 888.937 1379.42 882.062 1379.42 882.062 1234.48 1273.94 1234.48 1270.5 1237.92 1270.5 1073.5ZM899.25 1374.83 885.5 1402.33 871.75 1374.83Z" fill="#0D0D0D"/><path d="M0-3.4375 167.854-3.4375 167.854 601.562 164.417 598.125 305.916 598.125 305.916 605 160.979 605 160.979 0 164.417 3.4375 0 3.4375ZM301.333 587.812 328.833 601.562 301.333 615.312Z" fill="#0D0D0D" transform="matrix(1.83697e-16 1 1 -1.83697e-16 2914.5 1073.5)"/><path d="M2917.62 1073.5 2917.62 1241.35 2319.5 1241.35 2322.94 1237.92 2322.94 1379.42 2316.06 1379.42 2316.06 1234.48 2914.19 1234.48 2910.75 1237.92 2910.75 1073.5ZM2333.25 1374.83 2319.5 1402.33 2305.75 1374.83Z" fill="#0D0D0D"/><path d="M0-3.4375 167.854-3.4375 167.854 0.6875 164.416-2.75 305.916-2.75 305.916 4.125 160.979 4.125 160.979 0 164.416 3.4375 0 3.4375ZM301.333-13.0625 328.833 0.6875 301.333 14.4375Z" fill="#0D0D0D" transform="matrix(1.83697e-16 1 1 -1.83697e-16 2914.5 1073.5)"/><path d="M1199.94 1237.5 1199.94 1843.06 1193.06 1843.06 1193.06 1237.5ZM1210.25 1838.48 1196.5 1865.98 1182.75 1838.48Z" fill="#0D0D0D"/><path d="M1483.5 1237.5 1786.5 1237.5" stroke="#0D0D0D" stroke-width="6.875" stroke-miterlimit="8" fill="none" fill-rule="evenodd"/><path d="M1789.94 1237.5 1789.94 1843.06 1783.06 1843.06 1783.06 1237.5ZM1800.25 1838.48 1786.5 1865.98 1772.75 1838.48Z" fill="#0D0D0D"/><path d="M2633.94 1238.5 2633.94 1844.06 2627.06 1844.06 2627.06 1238.5ZM2644.25 1839.48 2630.5 1866.98 2616.75 1839.48Z" fill="#0D0D0D"/><path d="M3231.94 1238.5 3231.94 1844.06 3225.06 1844.06 3225.06 1238.5ZM3242.25 1839.48 3228.5 1866.98 3214.75 1839.48Z" fill="#0D0D0D"/></g></svg>