<svg width="1685" height="1223" xmlns="http://www.w3.org/2000/svg" xmlns:xlink="http://www.w3.org/1999/xlink" overflow="hidden"><defs><clipPath id="clip0"><rect x="2482" y="859" width="1685" height="1223"/></clipPath></defs><g clip-path="url(#clip0)" transform="translate(-2482 -859)"><path d="M3066.5 898.001C3066.5 877.842 3082.84 861.5 3103 861.5L3326 861.5C3346.16 861.5 3362.5 877.842 3362.5 898.001L3362.5 1044C3362.5 1064.16 3346.16 1080.5 3326 1080.5L3103 1080.5C3082.84 1080.5 3066.5 1064.16 3066.5 1044Z" stroke="#000000" stroke-width="4.58333" stroke-miterlimit="8" fill="#FFFFFF" fill-rule="evenodd"/><text font-family="Arial,Arial_MSFontService,sans-serif" font-weight="400" font-size="83" transform="matrix(1 0 0 1 3156.74 999)">1.2</text><path d="M2484.5 1461C2484.5 1440.84 2500.84 1424.5 2521 1424.5L2733 1424.5C2753.16 1424.5 2769.5 1440.84 2769.5 1461L2769.5 1607C2769.5 1627.16 2753.16 1643.5 2733 1643.5L2521 1643.5C2500.84 1643.5 2484.5 1627.16 2484.5 1607Z" stroke="#000000" stroke-width="4.58333" stroke-miterlimit="8" fill="#FFFFFF" fill-rule="evenodd"/><text font-family="Arial,Arial_MSFontService,sans-serif" font-weight="400" font-size="69" transform="matrix(1 0 0 1 2549.92 1558)">1.2.1</text><path d="M3240.5 1461C3240.5 1440.84 3256.84 1424.5 3277 1424.5L3489 1424.5C3509.16 1424.5 3525.5 1440.84 3525.5 1461L3525.5 1607C3525.5 1627.16 3509.16 1643.5 3489 1643.5L3277 1643.5C3256.84 1643.5 3240.5 1627.16 3240.5 1607Z" stroke="#000000" stroke-width="4.58333" stroke-miterlimit="8" fill="#FFFFFF" fill-rule="evenodd"/><text font-family="Arial,Arial_MSFontService,sans-serif" font-weight="400" font-size="69" transform="matrix(1 0 0 1 3306.17 1558)">1.1.3</text><path d="M2877.5 1897C2877.5 1876.84 2893.84 1860.5 2914 1860.5L3125 1860.5C3145.16 1860.5 3161.5 1876.84 3161.5 1897L3161.5 2042.99C3161.5 2063.15 3145.16 2079.49 3125 2079.49L2914 2079.49C2893.84 2079.49 2877.5 2063.15 2877.5 2042.99Z" stroke="#000000" stroke-width="4.58333" stroke-miterlimit="8" fill="#FFFFFF" fill-rule="evenodd"/><text font-family="Arial,Arial_MSFontService,sans-serif" font-weight="400" font-size="69" transform="matrix(1 0 0 1 2942.68 1993)">1.1.2</text><path d="M3671.5 1897C3671.5 1876.84 3687.84 1860.5 3708 1860.5L3920 1860.5C3940.16 1860.5 3956.5 1876.84 3956.5 1897L3956.5 2043C3956.5 2063.16 3940.16 2079.5 3920 2079.5L3708 2079.5C3687.84 2079.5 3671.5 2063.16 3671.5 2043Z" stroke="#000000" stroke-width="4.58333" stroke-miterlimit="8" fill="#FFFFFF" fill-rule="evenodd"/><text font-family="Arial,Arial_MSFontService,sans-serif" font-weight="400" font-size="69" transform="matrix(1 0 0 1 3736.74 1993)">1.1.4</text><path d="M3214.77 1080 3214.77 1253.14 2626 1253.14 2627.15 1251.99 2627.15 1401.07 2624.85 1401.07 2624.85 1250.85 3213.63 1250.85 3212.48 1251.99 3212.48 1080ZM2639.75 1396.49 2626 1423.99 2612.25 1396.49Z" fill="#4472C4"/><path d="M0-1.14583 173.14-1.14583 173.14 924.871 171.994 923.725 321.071 923.725 321.071 926.017 170.849 926.017 170.849 0 171.994 1.14583 0 1.14583ZM316.488 911.121 343.988 924.871 316.488 938.621Z" fill="#4472C4" transform="matrix(1.83697e-16 1 1 -1.83697e-16 3214 1080)"/><path d="M3811.15 1252 3811.15 1836.71 3808.85 1836.71 3808.85 1252ZM3823.75 1832.13 3810 1859.63 3796.25 1832.13Z" fill="#4472C4"/><path d="M0-1.14583 173.14-1.14583 173.14 168.621 171.994 167.475 321.071 167.475 321.071 169.767 170.848 169.767 170.848 0 171.994 1.14583 0 1.14583ZM316.488 154.871 343.988 168.621 316.488 182.371Z" fill="#4472C4" transform="matrix(1.83697e-16 1 1 -1.83697e-16 3214 1080)"/><path d="M3017.15 1251.99 3020.45 1836.7 3018.16 1836.72 3014.85 1252.01ZM3033.03 1832.05 3019.44 1859.63 3005.53 1832.2Z" fill="#4472C4"/></g></svg>