<svg width="3850" height="341" xmlns="http://www.w3.org/2000/svg" xmlns:xlink="http://www.w3.org/1999/xlink" overflow="hidden"><defs><clipPath id="clip0"><rect x="937" y="1627" width="3850" height="341"/></clipPath></defs><g clip-path="url(#clip0)" transform="translate(-937 -1627)"><rect x="941.5" y="1631.5" width="759" height="332" stroke="#507E32" stroke-width="9.16667" stroke-linejoin="round" stroke-miterlimit="10" fill="#70AD47"/><text fill="#FFFFFF" font-family="Arial,Arial_MSFontService,sans-serif" font-weight="400" font-size="83" transform="matrix(1 0 0 1 990.467 1778)">Learn Materials of <tspan font-size="83" x="93.9583" y="99">each Module</tspan></text><rect x="1968.5" y="1631.5" width="760" height="332" stroke="#507E32" stroke-width="9.16667" stroke-linejoin="round" stroke-miterlimit="10" fill="#70AD47"/><text fill="#FFFFFF" font-family="Arial,Arial_MSFontService,sans-serif" font-weight="400" font-size="83" transform="matrix(1 0 0 1 2171.34 1778)">Complete <tspan font-size="83" x="-2.2915" y="99">Exercises</tspan></text><rect x="2995.5" y="1631.5" width="760" height="332" stroke="#507E32" stroke-width="9.16667" stroke-linejoin="round" stroke-miterlimit="10" fill="#70AD47"/><text fill="#FFFFFF" font-family="Arial,Arial_MSFontService,sans-serif" font-weight="400" font-size="83" transform="matrix(1 0 0 1 3063.47 1778)">Turn in and post<tspan font-size="83" x="595.833" y="0">-</tspan><tspan font-size="83" x="43.5418" y="99">training survey </tspan></text><rect x="4023.5" y="1631.5" width="759" height="332" stroke="#507E32" stroke-width="9.16667" stroke-linejoin="round" stroke-miterlimit="10" fill="#70AD47"/><text fill="#FFFFFF" font-family="Arial,Arial_MSFontService,sans-serif" font-weight="400" font-size="83" transform="matrix(1 0 0 1 4138.93 1828)">Get Certificate</text><path d="M1763.5 1764.75 1839 1764.75 1839 1731.5 1905.5 1798 1839 1864.5 1839 1831.25 1763.5 1831.25Z" stroke="#BC8C00" stroke-width="9.16667" stroke-miterlimit="8" fill="#FFC000" fill-rule="evenodd"/><path d="M2790.5 1764.75 2867 1764.75 2867 1731.5 2933.5 1798 2867 1864.5 2867 1831.25 2790.5 1831.25Z" stroke="#BC8C00" stroke-width="9.16667" stroke-miterlimit="8" fill="#FFC000" fill-rule="evenodd"/><path d="M3818.5 1764.75 3894 1764.75 3894 1731.5 3960.5 1798 3894 1864.5 3894 1831.25 3818.5 1831.25Z" stroke="#BC8C00" stroke-width="9.16667" stroke-miterlimit="8" fill="#FFC000" fill-rule="evenodd"/></g></svg>