<svg width="972" height="722" xmlns="http://www.w3.org/2000/svg" xmlns:xlink="http://www.w3.org/1999/xlink" overflow="hidden"><defs><clipPath id="clip0"><rect x="191" y="-1" width="972" height="722"/></clipPath><clipPath id="clip1"><rect x="192" y="0" width="970" height="720"/></clipPath><clipPath id="clip2"><rect x="192" y="0" width="970" height="720"/></clipPath><clipPath id="clip3"><rect x="192" y="0" width="970" height="720"/></clipPath></defs><g clip-path="url(#clip0)" transform="translate(-191 1)"><g clip-path="url(#clip1)"><g clip-path="url(#clip2)"><g clip-path="url(#clip3)"><path d="M445.512 808.382C445.512 809.956 444.236 811.231 442.663 811.231 441.089 811.231 439.813 809.956 439.813 808.382 439.813 806.808 441.089 805.532 442.663 805.532 444.236 805.532 445.512 806.808 445.512 808.382Z" stroke="#000000" stroke-width="0.94992" stroke-linecap="round" stroke-linejoin="round" stroke-opacity="0.313725" fill="#000000" fill-rule="evenodd" fill-opacity="0.313725" transform="matrix(1 0 0 1.00048 110.156 -641.128)"/><path d="M427.464 837.829C427.464 839.403 426.188 840.679 424.614 840.679 423.04 840.679 421.764 839.403 421.764 837.829 421.764 836.255 423.04 834.979 424.614 834.979 426.188 834.979 427.464 836.255 427.464 837.829Z" stroke="#000000" stroke-width="0.94992" stroke-linecap="round" stroke-linejoin="round" stroke-opacity="0.313725" fill="#000000" fill-rule="evenodd" fill-opacity="0.313725" transform="matrix(1 0 0 1.00048 110.156 -641.128)"/><path d="M443.423 809.142C506.751 809.142 361.666 838.589 424.994 838.589" stroke="#000000" stroke-width="0.94992" stroke-linecap="round" stroke-linejoin="round" stroke-opacity="0.313725" fill="none" fill-rule="evenodd" transform="matrix(1 0 0 1.00048 110.156 -641.128)"/><path d="M569.952 970.818C569.952 972.392 568.676 973.668 567.102 973.668 565.528 973.668 564.252 972.392 564.252 970.818 564.252 969.244 565.528 967.968 567.102 967.968 568.676 967.968 569.952 969.244 569.952 970.818Z" stroke="#000000" stroke-width="0.94992" stroke-linecap="round" stroke-linejoin="round" stroke-opacity="0.313725" fill="#000000" fill-rule="evenodd" fill-opacity="0.313725" transform="matrix(1 0 0 1.00048 110.156 -641.128)"/><path d="M515.806 995.516C515.806 997.09 514.531 998.366 512.957 998.366 511.383 998.366 510.107 997.09 510.107 995.516 510.107 993.942 511.383 992.666 512.957 992.666 514.531 992.666 515.806 993.942 515.806 995.516Z" stroke="#000000" stroke-width="0.94992" stroke-linecap="round" stroke-linejoin="round" stroke-opacity="0.313725" fill="#000000" fill-rule="evenodd" fill-opacity="0.313725" transform="matrix(1 0 0 1.00048 110.156 -641.128)"/><path d="M567.292 971.008C630.62 971.008 449.818 995.896 513.147 995.896" stroke="#000000" stroke-width="0.94992" stroke-linecap="round" stroke-linejoin="round" stroke-opacity="0.313725" fill="none" fill-rule="evenodd" transform="matrix(1 0 0 1.00048 110.156 -641.128)"/><path d="M653.545 1130.4C653.545 1131.98 652.269 1133.25 650.695 1133.25 649.121 1133.25 647.845 1131.98 647.845 1130.4 647.845 1128.83 649.121 1127.55 650.695 1127.55 652.269 1127.55 653.545 1128.83 653.545 1130.4Z" stroke="#000000" stroke-width="0.94992" stroke-linecap="round" stroke-linejoin="round" stroke-opacity="0.313725" fill="#000000" fill-rule="evenodd" fill-opacity="0.313725" transform="matrix(1 0 0 1.00048 110.156 -641.128)"/><path d="M622.197 1150.35C622.197 1151.93 620.922 1153.2 619.348 1153.2 617.774 1153.2 616.498 1151.93 616.498 1150.35 616.498 1148.78 617.774 1147.5 619.348 1147.5 620.922 1147.5 622.197 1148.78 622.197 1150.35Z" stroke="#000000" stroke-width="0.94992" stroke-linecap="round" stroke-linejoin="round" stroke-opacity="0.313725" fill="#000000" fill-rule="evenodd" fill-opacity="0.313725" transform="matrix(1 0 0 1.00048 110.156 -641.128)"/><path d="M650.885 1130.59C714.213 1130.59 556.209 1150.92 619.538 1150.92" stroke="#000000" stroke-width="0.94992" stroke-linecap="round" stroke-linejoin="round" stroke-opacity="0.313725" fill="none" fill-rule="evenodd" transform="matrix(1 0 0 1.00048 110.156 -641.128)"/><path d="M357.17 754.236C357.17 755.81 355.894 757.086 354.32 757.086 352.746 757.086 351.47 755.81 351.47 754.236 351.47 752.662 352.746 751.386 354.32 751.386 355.894 751.386 357.17 752.662 357.17 754.236Z" stroke="#000000" stroke-width="0.94992" stroke-linecap="round" stroke-linejoin="round" stroke-opacity="0.313725" fill="#000000" fill-rule="evenodd" fill-opacity="0.313725" transform="matrix(1 0 0 1.00048 110.156 -641.128)"/><path d="M189.969 697.436C253.297 697.436 291.752 754.236 355.08 754.236" stroke="#000000" stroke-width="0.94992" stroke-linecap="round" stroke-linejoin="round" stroke-opacity="0.313725" fill="none" fill-rule="evenodd" transform="matrix(1 0 0 1.00048 110.156 -641.128)"/><path d="M357.17 754.236C357.17 755.81 355.894 757.086 354.32 757.086 352.746 757.086 351.47 755.81 351.47 754.236 351.47 752.662 352.746 751.386 354.32 751.386 355.894 751.386 357.17 752.662 357.17 754.236Z" stroke="#000000" stroke-width="0.94992" stroke-linecap="round" stroke-linejoin="round" stroke-opacity="0.313725" fill="#000000" fill-rule="evenodd" fill-opacity="0.313725" transform="matrix(1 0 0 1.00048 110.156 -641.128)"/><path d="M187.569 808.938C250.898 808.938 291.752 754.236 355.08 754.236" stroke="#000000" stroke-width="0.94992" stroke-linecap="round" stroke-linejoin="round" stroke-opacity="0.313725" fill="none" fill-rule="evenodd" transform="matrix(1 0 0 1.00048 110.156 -641.128)"/><path d="M515.806 892.924C515.806 894.498 514.531 895.774 512.957 895.774 511.383 895.774 510.107 894.498 510.107 892.924 510.107 891.351 511.383 890.075 512.957 890.075 514.531 890.075 515.806 891.351 515.806 892.924Z" stroke="#000000" stroke-width="0.94992" stroke-linecap="round" stroke-linejoin="round" stroke-opacity="0.313725" fill="#000000" fill-rule="evenodd" fill-opacity="0.313725" transform="matrix(1 0 0 1.00048 110.156 -641.128)"/><path d="M481.609 915.723C481.609 917.296 480.333 918.572 478.76 918.572 477.186 918.572 475.91 917.296 475.91 915.723 475.91 914.149 477.186 912.873 478.76 912.873 480.333 912.873 481.609 914.149 481.609 915.723Z" stroke="#000000" stroke-width="0.94992" stroke-linecap="round" stroke-linejoin="round" stroke-opacity="0.313725" fill="#000000" fill-rule="evenodd" fill-opacity="0.313725" transform="matrix(1 0 0 1.00048 110.156 -641.128)"/><path d="M513.337 893.494C576.665 893.494 415.621 916.103 478.95 916.103" stroke="#000000" stroke-width="0.94992" stroke-linecap="round" stroke-linejoin="round" stroke-opacity="0.313725" fill="none" fill-rule="evenodd" transform="matrix(1 0 0 1.00048 110.156 -641.128)"/><path d="M481.609 915.723C481.609 917.296 480.333 918.572 478.76 918.572 477.186 918.572 475.91 917.296 475.91 915.723 475.91 914.149 477.186 912.873 478.76 912.873 480.333 912.873 481.609 914.149 481.609 915.723Z" stroke="#000000" stroke-width="0.94992" stroke-linecap="round" stroke-linejoin="round" stroke-opacity="0.313725" fill="#000000" fill-rule="evenodd" fill-opacity="0.313725" transform="matrix(1 0 0 1.00048 110.156 -641.128)"/><path d="M266.021 957.225C329.35 957.225 415.621 916.103 478.95 916.103" stroke="#000000" stroke-width="0.94992" stroke-linecap="round" stroke-linejoin="round" stroke-opacity="0.313725" fill="none" fill-rule="evenodd" transform="matrix(1 0 0 1.00048 110.156 -641.128)"/><path d="M604.149 1050.61C604.149 1052.19 602.873 1053.46 601.299 1053.46 599.725 1053.46 598.449 1052.19 598.449 1050.61 598.449 1049.04 599.725 1047.76 601.299 1047.76 602.873 1047.76 604.149 1049.04 604.149 1050.61Z" stroke="#000000" stroke-width="0.94992" stroke-linecap="round" stroke-linejoin="round" stroke-opacity="0.313725" fill="#000000" fill-rule="evenodd" fill-opacity="0.313725" transform="matrix(1 0 0 1.00048 110.156 -641.128)"/><path d="M565.202 1075.31C565.202 1076.88 563.926 1078.16 562.352 1078.16 560.779 1078.16 559.503 1076.88 559.503 1075.31 559.503 1073.74 560.779 1072.46 562.352 1072.46 563.926 1072.46 565.202 1073.74 565.202 1075.31Z" stroke="#000000" stroke-width="0.94992" stroke-linecap="round" stroke-linejoin="round" stroke-opacity="0.313725" fill="#000000" fill-rule="evenodd" fill-opacity="0.313725" transform="matrix(1 0 0 1.00048 110.156 -641.128)"/><path d="M601.489 1050.8C664.817 1050.8 499.214 1075.69 562.542 1075.69" stroke="#000000" stroke-width="0.94992" stroke-linecap="round" stroke-linejoin="round" stroke-opacity="0.313725" fill="none" fill-rule="evenodd" transform="matrix(1 0 0 1.00048 110.156 -641.128)"/><path d="M565.202 1075.31C565.202 1076.88 563.926 1078.16 562.352 1078.16 560.779 1078.16 559.503 1076.88 559.503 1075.31 559.503 1073.74 560.779 1072.46 562.352 1072.46 563.926 1072.46 565.202 1073.74 565.202 1075.31Z" stroke="#000000" stroke-width="0.94992" stroke-linecap="round" stroke-linejoin="round" stroke-opacity="0.313725" fill="#000000" fill-rule="evenodd" fill-opacity="0.313725" transform="matrix(1 0 0 1.00048 110.156 -641.128)"/><path d="M360.448 1120.75C423.776 1120.75 499.214 1075.69 562.542 1075.69" stroke="#000000" stroke-width="0.94992" stroke-linecap="round" stroke-linejoin="round" stroke-opacity="0.313725" fill="none" fill-rule="evenodd" transform="matrix(1 0 0 1.00048 110.156 -641.128)"/><path d="M710.54 1205.45C710.54 1207.02 709.264 1208.3 707.69 1208.3 706.116 1208.3 704.84 1207.02 704.84 1205.45 704.84 1203.87 706.116 1202.6 707.69 1202.6 709.264 1202.6 710.54 1203.87 710.54 1205.45Z" stroke="#000000" stroke-width="0.94992" stroke-linecap="round" stroke-linejoin="round" stroke-opacity="0.313725" fill="#000000" fill-rule="evenodd" fill-opacity="0.313725" transform="matrix(1 0 0 1.00048 110.156 -641.128)"/><path d="M679.193 1233C679.193 1234.57 677.917 1235.85 676.343 1235.85 674.769 1235.85 673.493 1234.57 673.493 1233 673.493 1231.42 674.769 1230.15 676.343 1230.15 677.917 1230.15 679.193 1231.42 679.193 1233Z" stroke="#000000" stroke-width="0.94992" stroke-linecap="round" stroke-linejoin="round" stroke-opacity="0.313725" fill="#000000" fill-rule="evenodd" fill-opacity="0.313725" transform="matrix(1 0 0 1.00048 110.156 -641.128)"/><path d="M707.88 1205.83C771.208 1205.83 613.964 1233.76 677.293 1233.76" stroke="#000000" stroke-width="0.94992" stroke-linecap="round" stroke-linejoin="round" stroke-opacity="0.313725" fill="none" fill-rule="evenodd" transform="matrix(1 0 0 1.00048 110.156 -641.128)"/><path d="M679.193 1233C679.193 1234.57 677.917 1235.85 676.343 1235.85 674.769 1235.85 673.493 1234.57 673.493 1233 673.493 1231.42 674.769 1230.15 676.343 1230.15 677.917 1230.15 679.193 1231.42 679.193 1233Z" stroke="#000000" stroke-width="0.94992" stroke-linecap="round" stroke-linejoin="round" stroke-opacity="0.313725" fill="#000000" fill-rule="evenodd" fill-opacity="0.313725" transform="matrix(1 0 0 1.00048 110.156 -641.128)"/><path d="M467.496 1268.07C530.824 1268.07 613.964 1233.76 677.293 1233.76" stroke="#000000" stroke-width="0.94992" stroke-linecap="round" stroke-linejoin="round" stroke-opacity="0.313725" fill="none" fill-rule="evenodd" transform="matrix(1 0 0 1.00048 110.156 -641.128)"/><path d="M767.535 1288.09C767.535 1289.67 766.259 1290.94 764.685 1290.94 763.111 1290.94 761.836 1289.67 761.836 1288.09 761.836 1286.52 763.111 1285.24 764.685 1285.24 766.259 1285.24 767.535 1286.52 767.535 1288.09Z" stroke="#000000" stroke-width="0.94992" stroke-linecap="round" stroke-linejoin="round" stroke-opacity="0.313725" fill="#000000" fill-rule="evenodd" fill-opacity="0.313725" transform="matrix(1 0 0 1.00048 110.156 -641.128)"/><path d="M876.776 1305.19C876.776 1306.76 875.5 1308.04 873.926 1308.04 872.352 1308.04 871.076 1306.76 871.076 1305.19 871.076 1303.62 872.352 1302.34 873.926 1302.34 875.5 1302.34 876.776 1303.62 876.776 1305.19Z" stroke="#000000" stroke-width="0.94992" stroke-linecap="round" stroke-linejoin="round" stroke-opacity="0.313725" fill="#000000" fill-rule="evenodd" fill-opacity="0.313725" transform="matrix(1 0 0 1.00048 110.156 -641.128)"/><path d="M765.635 1288.66C828.964 1288.66 811.548 1305.76 874.876 1305.76" stroke="#000000" stroke-width="0.94992" stroke-linecap="round" stroke-linejoin="round" stroke-opacity="0.313725" fill="none" fill-rule="evenodd" transform="matrix(1 0 0 1.00048 110.156 -641.128)"/><path d="M-95.9419-15.1987 95.9419-15.1987 95.9419 15.1987-95.9419 15.1987Z" stroke="#EAE276" stroke-width="0.94992" stroke-linecap="square" stroke-linejoin="bevel" fill="#EEF283" fill-rule="evenodd" transform="matrix(1 0 0 1.00048 300.125 56.6424)"/><text font-family="Verdana,Verdana_MSFontService,sans-serif" font-weight="400" font-size="12" transform="matrix(0.94992 0 0 0.950376 228.881 60)">InputPolygon</text><path d="M3.13474 0.854928 3.13474 3.13474 0.854928 3.13474 0.854928 5.98449 3.13474 5.98449 3.13474 8.2643 5.98449 8.2643 5.98449 5.98449 8.2643 5.98449 8.2643 3.13474 5.98449 3.13474 5.98449 0.854928 3.13474 0.854928" fill="#FFFFFF" transform="matrix(1 0 0 1.00048 207.983 49.0394)"/><path d="M3.13474 0.854928 3.13474 3.13474 0.854928 3.13474 0.854928 5.98449 3.13474 5.98449 3.13474 8.2643 5.98449 8.2643 5.98449 5.98449 8.2643 5.98449 8.2643 3.13474 5.98449 3.13474 5.98449 0.854928 3.13474 0.854928" stroke="#5A8C5A" stroke-width="0.570852" fill="none" transform="matrix(1 0 0 1.00048 207.983 49.0394)"/><path d="M1.99483 4.84459 1.99483 4.27464 7.1244 4.27464 7.1244 4.84459 1.99483 4.84459" fill="#5A8C5A" transform="matrix(1 0 0 1.00048 207.983 49.0394)"/><path d="M1.99483 4.84459 1.99483 4.27464 7.1244 4.27464 7.1244 4.84459 1.99483 4.84459" stroke="#5A8C5A" stroke-width="0.570852" fill="none" transform="matrix(1 0 0 1.00048 207.983 49.0394)"/><path d="M4.27464 1.99483 4.84459 1.99483 4.84459 7.1244 4.27464 7.1244 4.27464 1.99483" fill="#5A8C5A" transform="matrix(1 0 0 1.00048 207.983 49.0394)"/><path d="M4.27464 1.99483 4.84459 1.99483 4.84459 7.1244 4.27464 7.1244 4.27464 1.99483" stroke="#5A8C5A" stroke-width="0.570852" fill="none" transform="matrix(1 0 0 1.00048 207.983 49.0394)"/><path d="M-95.9419-15.1987 95.9419-15.1987 95.9419 15.1987-95.9419 15.1987Z" stroke="#EAE276" stroke-width="0.94992" stroke-linecap="square" stroke-linejoin="bevel" fill="#EEF283" fill-rule="evenodd" transform="matrix(1 0 0 1.00048 297.726 168.198)"/><text font-family="Verdana,Verdana_MSFontService,sans-serif" font-weight="400" font-size="12" transform="matrix(0.94992 0 0 0.950376 226.482 172)">Large cities</text><path d="M3.13474 0.854928 3.13474 3.13474 0.854928 3.13474 0.854928 5.98449 3.13474 5.98449 3.13474 8.2643 5.98449 8.2643 5.98449 5.98449 8.2643 5.98449 8.2643 3.13474 5.98449 3.13474 5.98449 0.854928 3.13474 0.854928" fill="#FFFFFF" transform="matrix(1 0 0 1.00048 205.583 160.595)"/><path d="M3.13474 0.854928 3.13474 3.13474 0.854928 3.13474 0.854928 5.98449 3.13474 5.98449 3.13474 8.2643 5.98449 8.2643 5.98449 5.98449 8.2643 5.98449 8.2643 3.13474 5.98449 3.13474 5.98449 0.854928 3.13474 0.854928" stroke="#5A8C5A" stroke-width="0.570852" fill="none" transform="matrix(1 0 0 1.00048 205.583 160.595)"/><path d="M1.99483 4.84459 1.99483 4.27464 7.1244 4.27464 7.1244 4.84459 1.99483 4.84459" fill="#5A8C5A" transform="matrix(1 0 0 1.00048 205.583 160.595)"/><path d="M1.99483 4.84459 1.99483 4.27464 7.1244 4.27464 7.1244 4.84459 1.99483 4.84459" stroke="#5A8C5A" stroke-width="0.570852" fill="none" transform="matrix(1 0 0 1.00048 205.583 160.595)"/><path d="M4.27464 1.99483 4.84459 1.99483 4.84459 7.1244 4.27464 7.1244 4.27464 1.99483" fill="#5A8C5A" transform="matrix(1 0 0 1.00048 205.583 160.595)"/><path d="M4.27464 1.99483 4.84459 1.99483 4.84459 7.1244 4.27464 7.1244 4.27464 1.99483" stroke="#5A8C5A" stroke-width="0.570852" fill="none" transform="matrix(1 0 0 1.00048 205.583 160.595)"/><path d="M-95.9419-15.1987 95.9419-15.1987 95.9419 15.1987-95.9419 15.1987Z" stroke="#EAE276" stroke-width="0.94992" stroke-linecap="square" stroke-linejoin="bevel" fill="#EEF283" fill-rule="evenodd" transform="matrix(1 0 0 1.00048 376.178 316.552)"/><text font-family="Verdana,Verdana_MSFontService,sans-serif" font-weight="400" font-size="12" transform="matrix(0.94992 0 0 0.950376 304.934 320)">Medium cities</text><path d="M3.13474 0.854928 3.13474 3.13474 0.854928 3.13474 0.854928 5.98449 3.13474 5.98449 3.13474 8.2643 5.98449 8.2643 5.98449 5.98449 8.2643 5.98449 8.2643 3.13474 5.98449 3.13474 5.98449 0.854928 3.13474 0.854928" fill="#FFFFFF" transform="matrix(1 0 0 1.00048 284.036 308.949)"/><path d="M3.13474 0.854928 3.13474 3.13474 0.854928 3.13474 0.854928 5.98449 3.13474 5.98449 3.13474 8.2643 5.98449 8.2643 5.98449 5.98449 8.2643 5.98449 8.2643 3.13474 5.98449 3.13474 5.98449 0.854928 3.13474 0.854928" stroke="#5A8C5A" stroke-width="0.570852" fill="none" transform="matrix(1 0 0 1.00048 284.036 308.949)"/><path d="M1.99483 4.84459 1.99483 4.27464 7.1244 4.27464 7.1244 4.84459 1.99483 4.84459" fill="#5A8C5A" transform="matrix(1 0 0 1.00048 284.036 308.949)"/><path d="M1.99483 4.84459 1.99483 4.27464 7.1244 4.27464 7.1244 4.84459 1.99483 4.84459" stroke="#5A8C5A" stroke-width="0.570852" fill="none" transform="matrix(1 0 0 1.00048 284.036 308.949)"/><path d="M4.27464 1.99483 4.84459 1.99483 4.84459 7.1244 4.27464 7.1244 4.27464 1.99483" fill="#5A8C5A" transform="matrix(1 0 0 1.00048 284.036 308.949)"/><path d="M4.27464 1.99483 4.84459 1.99483 4.84459 7.1244 4.27464 7.1244 4.27464 1.99483" stroke="#5A8C5A" stroke-width="0.570852" fill="none" transform="matrix(1 0 0 1.00048 284.036 308.949)"/><path d="M-95.9419-15.1987 95.9419-15.1987 95.9419 15.1987-95.9419 15.1987Z" stroke="#EAE276" stroke-width="0.94992" stroke-linecap="square" stroke-linejoin="bevel" fill="#EEF283" fill-rule="evenodd" transform="matrix(1 0 0 1.00048 470.604 480.164)"/><text font-family="Verdana,Verdana_MSFontService,sans-serif" font-weight="400" font-size="12" transform="matrix(0.94992 0 0 0.950376 399.36 484)">Small cities</text><path d="M3.13474 0.854928 3.13474 3.13474 0.854928 3.13474 0.854928 5.98449 3.13474 5.98449 3.13474 8.2643 5.98449 8.2643 5.98449 5.98449 8.2643 5.98449 8.2643 3.13474 5.98449 3.13474 5.98449 0.854928 3.13474 0.854928" fill="#FFFFFF" transform="matrix(1 0 0 1.00048 378.462 472.561)"/><path d="M3.13474 0.854928 3.13474 3.13474 0.854928 3.13474 0.854928 5.98449 3.13474 5.98449 3.13474 8.2643 5.98449 8.2643 5.98449 5.98449 8.2643 5.98449 8.2643 3.13474 5.98449 3.13474 5.98449 0.854928 3.13474 0.854928" stroke="#5A8C5A" stroke-width="0.570852" fill="none" transform="matrix(1 0 0 1.00048 378.462 472.561)"/><path d="M1.99483 4.84459 1.99483 4.27464 7.1244 4.27464 7.1244 4.84459 1.99483 4.84459" fill="#5A8C5A" transform="matrix(1 0 0 1.00048 378.462 472.561)"/><path d="M1.99483 4.84459 1.99483 4.27464 7.1244 4.27464 7.1244 4.84459 1.99483 4.84459" stroke="#5A8C5A" stroke-width="0.570852" fill="none" transform="matrix(1 0 0 1.00048 378.462 472.561)"/><path d="M4.27464 1.99483 4.84459 1.99483 4.84459 7.1244 4.27464 7.1244 4.27464 1.99483" fill="#5A8C5A" transform="matrix(1 0 0 1.00048 378.462 472.561)"/><path d="M4.27464 1.99483 4.84459 1.99483 4.84459 7.1244 4.27464 7.1244 4.27464 1.99483" stroke="#5A8C5A" stroke-width="0.570852" fill="none" transform="matrix(1 0 0 1.00048 378.462 472.561)"/><path d="M-95.9419-15.1987 95.9419-15.1987 95.9419 15.1987-95.9419 15.1987Z" stroke="#EAE276" stroke-width="0.94992" stroke-linecap="square" stroke-linejoin="bevel" fill="#EEF283" fill-rule="evenodd" transform="matrix(1 0 0 1.00048 577.653 627.55)"/><text font-family="Verdana,Verdana_MSFontService,sans-serif" font-weight="400" font-size="12" transform="matrix(0.94992 0 0 0.950376 506.409 631)">Weights by City Level</text><path d="M3.13474 0.854928 3.13474 3.13474 0.854928 3.13474 0.854928 5.98449 3.13474 5.98449 3.13474 8.2643 5.98449 8.2643 5.98449 5.98449 8.2643 5.98449 8.2643 3.13474 5.98449 3.13474 5.98449 0.854928 3.13474 0.854928" fill="#FFFFFF" transform="matrix(1 0 0 1.00048 485.51 619.947)"/><path d="M3.13474 0.854928 3.13474 3.13474 0.854928 3.13474 0.854928 5.98449 3.13474 5.98449 3.13474 8.2643 5.98449 8.2643 5.98449 5.98449 8.2643 5.98449 8.2643 3.13474 5.98449 3.13474 5.98449 0.854928 3.13474 0.854928" stroke="#5A8C5A" stroke-width="0.570852" fill="none" transform="matrix(1 0 0 1.00048 485.51 619.947)"/><path d="M1.99483 4.84459 1.99483 4.27464 7.1244 4.27464 7.1244 4.84459 1.99483 4.84459" fill="#5A8C5A" transform="matrix(1 0 0 1.00048 485.51 619.947)"/><path d="M1.99483 4.84459 1.99483 4.27464 7.1244 4.27464 7.1244 4.84459 1.99483 4.84459" stroke="#5A8C5A" stroke-width="0.570852" fill="none" transform="matrix(1 0 0 1.00048 485.51 619.947)"/><path d="M4.27464 1.99483 4.84459 1.99483 4.84459 7.1244 4.27464 7.1244 4.27464 1.99483" fill="#5A8C5A" transform="matrix(1 0 0 1.00048 485.51 619.947)"/><path d="M4.27464 1.99483 4.84459 1.99483 4.84459 7.1244 4.27464 7.1244 4.27464 1.99483" stroke="#5A8C5A" stroke-width="0.570852" fill="none" transform="matrix(1 0 0 1.00048 485.51 619.947)"/><path d="M-95.9419-15.1987 95.9419-15.1987 95.9419 15.1987-95.9419 15.1987Z" stroke="#A0A0A4" stroke-width="0.94992" stroke-linecap="square" stroke-linejoin="bevel" fill="#FFFFFF" fill-rule="evenodd" transform="matrix(1 0 0 1.00048 613.994 227.135)"/><text font-family="Verdana,Verdana_MSFontService,sans-serif" font-weight="400" font-size="12" transform="matrix(0.94992 0 0 0.950376 542.75 231)">Res Dist to Largre City<tspan font-size="12" x="0" y="-30.5142">In</tspan><tspan font-size="12" x="0" y="26.3054">Out</tspan></text><path d="M4.23968 0.569952 3.93457 1.4188 3.93913 1.4682 4.08731 2.20533 3.22859 2.56022 2.81252 1.9348 2.7806 1.89756 1.96443 1.51227 1.51227 1.96443 1.89756 2.7806 1.9348 2.81252 2.56022 3.22897 2.20495 4.08693 1.46782 3.93875 1.41842 3.93495 0.569952 4.23968 0.569952 4.87955 1.4188 5.18466 1.4682 5.1801 2.20533 5.03191 2.56022 5.89064 1.9348 6.30671 1.89756 6.33862 1.51227 7.1548 1.96443 7.60696 2.7806 7.22167 2.81252 7.18443 3.22897 6.559 4.08693 6.91428 3.93875 7.65141 3.93495 7.70081 4.23968 8.54928 4.87955 8.54928 5.18466 7.70043 5.1801 7.65103 5.03191 6.9139 5.89064 6.559 6.30671 7.18443 6.33862 7.22167 7.1548 7.60696 7.60696 7.1548 7.22167 6.33862 7.18443 6.30671 6.559 5.89026 6.91428 5.03229 7.65141 5.18048 7.70081 5.18428 8.54928 4.87955 8.54928 4.23968 7.70043 3.93457 7.65103 3.93913 6.9139 4.08731 6.559 3.22859 7.18443 2.81252 7.22167 2.7806 7.60696 1.96443 7.1548 1.51227 6.33862 1.89756 6.30671 1.9348 5.89026 2.56022 5.03229 2.20495 5.18048 1.46782 5.18428 1.41842 4.87955 0.569952 4.23968 0.569952M4.55961 3.60969C5.08424 3.60969 5.50953 4.03499 5.50953 4.55961 5.50953 5.08424 5.08424 5.50953 4.55961 5.50953 4.03499 5.50953 3.60969 5.08424 3.60969 4.55961 3.60969 4.03499 4.03499 3.60969 4.55961 3.60969" fill="#98B5D8" transform="matrix(1 0 0 1.00048 521.852 219.532)"/><path d="M4.23968 0.569952 3.93457 1.4188 3.93913 1.4682 4.08731 2.20533 3.22859 2.56022 2.81252 1.9348 2.7806 1.89756 1.96443 1.51227 1.51227 1.96443 1.89756 2.7806 1.9348 2.81252 2.56022 3.22897 2.20495 4.08693 1.46782 3.93875 1.41842 3.93495 0.569952 4.23968 0.569952 4.87955 1.4188 5.18466 1.4682 5.1801 2.20533 5.03191 2.56022 5.89064 1.9348 6.30671 1.89756 6.33862 1.51227 7.1548 1.96443 7.60696 2.7806 7.22167 2.81252 7.18443 3.22897 6.559 4.08693 6.91428 3.93875 7.65141 3.93495 7.70081 4.23968 8.54928 4.87955 8.54928 5.18466 7.70043 5.1801 7.65103 5.03191 6.9139 5.89064 6.559 6.30671 7.18443 6.33862 7.22167 7.1548 7.60696 7.60696 7.1548 7.22167 6.33862 7.18443 6.30671 6.559 5.89026 6.91428 5.03229 7.65141 5.18048 7.70081 5.18428 8.54928 4.87955 8.54928 4.23968 7.70043 3.93457 7.65103 3.93913 6.9139 4.08731 6.559 3.22859 7.18443 2.81252 7.22167 2.7806 7.60696 1.96443 7.1548 1.51227 6.33862 1.89756 6.30671 1.9348 5.89026 2.56022 5.03229 2.20495 5.18048 1.46782 5.18428 1.41842 4.87955 0.569952 4.23968 0.569952M4.55961 3.60969C5.08424 3.60969 5.50953 4.03499 5.50953 4.55961 5.50953 5.08424 5.08424 5.50953 4.55961 5.50953 4.03499 5.50953 3.60969 5.08424 3.60969 4.55961 3.60969 4.03499 4.03499 3.60969 4.55961 3.60969" stroke="#457ABE" stroke-width="0.379968" fill="none" transform="matrix(1 0 0 1.00048 521.852 219.532)"/><path d="M-95.9419-15.1987 95.9419-15.1987 95.9419 15.1987-95.9419 15.1987Z" stroke="#A0A0A4" stroke-width="0.94992" stroke-linecap="square" stroke-linejoin="bevel" fill="#FFFFFF" fill-rule="evenodd" transform="matrix(1 0 0 1.00048 702.146 384.517)"/><text font-family="Verdana,Verdana_MSFontService,sans-serif" font-weight="400" font-size="12" transform="matrix(0.94992 0 0 0.950376 630.902 388)">Res Dist to Medium City<tspan font-size="12" x="0" y="-30.5142">In</tspan><tspan font-size="12" x="0" y="26.3054">Out</tspan></text><path d="M4.23968 0.569952 3.93457 1.4188 3.93913 1.4682 4.08731 2.20533 3.22859 2.56022 2.81252 1.9348 2.7806 1.89756 1.96443 1.51227 1.51227 1.96443 1.89756 2.7806 1.9348 2.81252 2.56022 3.22897 2.20495 4.08693 1.46782 3.93875 1.41842 3.93495 0.569952 4.23968 0.569952 4.87955 1.4188 5.18466 1.4682 5.1801 2.20533 5.03191 2.56022 5.89064 1.9348 6.30671 1.89756 6.33862 1.51227 7.1548 1.96443 7.60696 2.7806 7.22167 2.81252 7.18443 3.22897 6.559 4.08693 6.91428 3.93875 7.65141 3.93495 7.70081 4.23968 8.54928 4.87955 8.54928 5.18466 7.70043 5.1801 7.65103 5.03191 6.9139 5.89064 6.559 6.30671 7.18443 6.33862 7.22167 7.1548 7.60696 7.60696 7.1548 7.22167 6.33862 7.18443 6.30671 6.559 5.89026 6.91428 5.03229 7.65141 5.18048 7.70081 5.18428 8.54928 4.87955 8.54928 4.23968 7.70043 3.93457 7.65103 3.93913 6.9139 4.08731 6.559 3.22859 7.18443 2.81252 7.22167 2.7806 7.60696 1.96443 7.1548 1.51227 6.33862 1.89756 6.30671 1.9348 5.89026 2.56022 5.03229 2.20495 5.18048 1.46782 5.18428 1.41842 4.87955 0.569952 4.23968 0.569952M4.55961 3.60969C5.08424 3.60969 5.50953 4.03499 5.50953 4.55961 5.50953 5.08424 5.08424 5.50953 4.55961 5.50953 4.03499 5.50953 3.60969 5.08424 3.60969 4.55961 3.60969 4.03499 4.03499 3.60969 4.55961 3.60969" fill="#98B5D8" transform="matrix(1 0 0 1.00048 610.004 376.914)"/><path d="M4.23968 0.569952 3.93457 1.4188 3.93913 1.4682 4.08731 2.20533 3.22859 2.56022 2.81252 1.9348 2.7806 1.89756 1.96443 1.51227 1.51227 1.96443 1.89756 2.7806 1.9348 2.81252 2.56022 3.22897 2.20495 4.08693 1.46782 3.93875 1.41842 3.93495 0.569952 4.23968 0.569952 4.87955 1.4188 5.18466 1.4682 5.1801 2.20533 5.03191 2.56022 5.89064 1.9348 6.30671 1.89756 6.33862 1.51227 7.1548 1.96443 7.60696 2.7806 7.22167 2.81252 7.18443 3.22897 6.559 4.08693 6.91428 3.93875 7.65141 3.93495 7.70081 4.23968 8.54928 4.87955 8.54928 5.18466 7.70043 5.1801 7.65103 5.03191 6.9139 5.89064 6.559 6.30671 7.18443 6.33862 7.22167 7.1548 7.60696 7.60696 7.1548 7.22167 6.33862 7.18443 6.30671 6.559 5.89026 6.91428 5.03229 7.65141 5.18048 7.70081 5.18428 8.54928 4.87955 8.54928 4.23968 7.70043 3.93457 7.65103 3.93913 6.9139 4.08731 6.559 3.22859 7.18443 2.81252 7.22167 2.7806 7.60696 1.96443 7.1548 1.51227 6.33862 1.89756 6.30671 1.9348 5.89026 2.56022 5.03229 2.20495 5.18048 1.46782 5.18428 1.41842 4.87955 0.569952 4.23968 0.569952M4.55961 3.60969C5.08424 3.60969 5.50953 4.03499 5.50953 4.55961 5.50953 5.08424 5.08424 5.50953 4.55961 5.50953 4.03499 5.50953 3.60969 5.08424 3.60969 4.55961 3.60969 4.03499 4.03499 3.60969 4.55961 3.60969" stroke="#457ABE" stroke-width="0.379968" fill="none" transform="matrix(1 0 0 1.00048 610.004 376.914)"/><path d="M-95.9419-15.1987 95.9419-15.1987 95.9419 15.1987-95.9419 15.1987Z" stroke="#A0A0A4" stroke-width="0.94992" stroke-linecap="square" stroke-linejoin="bevel" fill="#FFFFFF" fill-rule="evenodd" transform="matrix(1 0 0 1.00048 808.537 539.619)"/><text font-family="Verdana,Verdana_MSFontService,sans-serif" font-weight="400" font-size="12" transform="matrix(0.94992 0 0 0.950376 737.293 543)">Res Dist to Small City<tspan font-size="12" x="0" y="-30.5142">In</tspan><tspan font-size="12" x="0" y="27.3576">Out</tspan></text><path d="M4.23968 0.569952 3.93457 1.4188 3.93913 1.4682 4.08731 2.20533 3.22859 2.56022 2.81252 1.9348 2.7806 1.89756 1.96443 1.51227 1.51227 1.96443 1.89756 2.7806 1.9348 2.81252 2.56022 3.22897 2.20495 4.08693 1.46782 3.93875 1.41842 3.93495 0.569952 4.23968 0.569952 4.87955 1.4188 5.18466 1.4682 5.1801 2.20533 5.03191 2.56022 5.89064 1.9348 6.30671 1.89756 6.33862 1.51227 7.1548 1.96443 7.60696 2.7806 7.22167 2.81252 7.18443 3.22897 6.559 4.08693 6.91428 3.93875 7.65141 3.93495 7.70081 4.23968 8.54928 4.87955 8.54928 5.18466 7.70043 5.1801 7.65103 5.03191 6.9139 5.89064 6.559 6.30671 7.18443 6.33862 7.22167 7.1548 7.60696 7.60696 7.1548 7.22167 6.33862 7.18443 6.30671 6.559 5.89026 6.91428 5.03229 7.65141 5.18048 7.70081 5.18428 8.54928 4.87955 8.54928 4.23968 7.70043 3.93457 7.65103 3.93913 6.9139 4.08731 6.559 3.22859 7.18443 2.81252 7.22167 2.7806 7.60696 1.96443 7.1548 1.51227 6.33862 1.89756 6.30671 1.9348 5.89026 2.56022 5.03229 2.20495 5.18048 1.46782 5.18428 1.41842 4.87955 0.569952 4.23968 0.569952M4.55961 3.60969C5.08424 3.60969 5.50953 4.03499 5.50953 4.55961 5.50953 5.08424 5.08424 5.50953 4.55961 5.50953 4.03499 5.50953 3.60969 5.08424 3.60969 4.55961 3.60969 4.03499 4.03499 3.60969 4.55961 3.60969" fill="#98B5D8" transform="matrix(1 0 0 1.00048 716.395 532.016)"/><path d="M4.23968 0.569952 3.93457 1.4188 3.93913 1.4682 4.08731 2.20533 3.22859 2.56022 2.81252 1.9348 2.7806 1.89756 1.96443 1.51227 1.51227 1.96443 1.89756 2.7806 1.9348 2.81252 2.56022 3.22897 2.20495 4.08693 1.46782 3.93875 1.41842 3.93495 0.569952 4.23968 0.569952 4.87955 1.4188 5.18466 1.4682 5.1801 2.20533 5.03191 2.56022 5.89064 1.9348 6.30671 1.89756 6.33862 1.51227 7.1548 1.96443 7.60696 2.7806 7.22167 2.81252 7.18443 3.22897 6.559 4.08693 6.91428 3.93875 7.65141 3.93495 7.70081 4.23968 8.54928 4.87955 8.54928 5.18466 7.70043 5.1801 7.65103 5.03191 6.9139 5.89064 6.559 6.30671 7.18443 6.33862 7.22167 7.1548 7.60696 7.60696 7.1548 7.22167 6.33862 7.18443 6.30671 6.559 5.89026 6.91428 5.03229 7.65141 5.18048 7.70081 5.18428 8.54928 4.87955 8.54928 4.23968 7.70043 3.93457 7.65103 3.93913 6.9139 4.08731 6.559 3.22859 7.18443 2.81252 7.22167 2.7806 7.60696 1.96443 7.1548 1.51227 6.33862 1.89756 6.30671 1.9348 5.89026 2.56022 5.03229 2.20495 5.18048 1.46782 5.18428 1.41842 4.87955 0.569952 4.23968 0.569952M4.55961 3.60969C5.08424 3.60969 5.50953 4.03499 5.50953 4.55961 5.50953 5.08424 5.08424 5.50953 4.55961 5.50953 4.03499 5.50953 3.60969 5.08424 3.60969 4.55961 3.60969 4.03499 4.03499 3.60969 4.55961 3.60969" stroke="#457ABE" stroke-width="0.379968" fill="none" transform="matrix(1 0 0 1.00048 716.395 532.016)"/><path d="M-95.9419-15.1987 95.9419-15.1987 95.9419 15.1987-95.9419 15.1987Z" stroke="#A0A0A4" stroke-width="0.94992" stroke-linecap="square" stroke-linejoin="bevel" fill="#FFFFFF" fill-rule="evenodd" transform="matrix(1 0 0 1.00048 544.08 142.742)"/><text font-family="Verdana,Verdana_MSFontService,sans-serif" font-weight="400" font-size="12" transform="matrix(0.94992 0 0 0.950376 472.836 147)">Distance to Large City<tspan font-size="12" x="0" y="-31.5665">In</tspan><tspan font-size="12" x="0" y="26.3054">Out</tspan></text><path d="M4.23968 0.569952 3.93457 1.4188 3.93913 1.4682 4.08731 2.20533 3.22859 2.56022 2.81252 1.9348 2.7806 1.89756 1.96443 1.51227 1.51227 1.96443 1.89756 2.7806 1.9348 2.81252 2.56022 3.22897 2.20495 4.08693 1.46782 3.93875 1.41842 3.93495 0.569952 4.23968 0.569952 4.87955 1.4188 5.18466 1.4682 5.1801 2.20533 5.03191 2.56022 5.89064 1.9348 6.30671 1.89756 6.33862 1.51227 7.1548 1.96443 7.60696 2.7806 7.22167 2.81252 7.18443 3.22897 6.559 4.08693 6.91428 3.93875 7.65141 3.93495 7.70081 4.23968 8.54928 4.87955 8.54928 5.18466 7.70043 5.1801 7.65103 5.03191 6.9139 5.89064 6.559 6.30671 7.18443 6.33862 7.22167 7.1548 7.60696 7.60696 7.1548 7.22167 6.33862 7.18443 6.30671 6.559 5.89026 6.91428 5.03229 7.65141 5.18048 7.70081 5.18428 8.54928 4.87955 8.54928 4.23968 7.70043 3.93457 7.65103 3.93913 6.9139 4.08731 6.559 3.22859 7.18443 2.81252 7.22167 2.7806 7.60696 1.96443 7.1548 1.51227 6.33862 1.89756 6.30671 1.9348 5.89026 2.56022 5.03229 2.20495 5.18048 1.46782 5.18428 1.41842 4.87955 0.569952 4.23968 0.569952M4.55961 3.60969C5.08424 3.60969 5.50953 4.03499 5.50953 4.55961 5.50953 5.08424 5.08424 5.50953 4.55961 5.50953 4.03499 5.50953 3.60969 5.08424 3.60969 4.55961 3.60969 4.03499 4.03499 3.60969 4.55961 3.60969" fill="#98B5D8" transform="matrix(1 0 0 1.00048 451.937 135.139)"/><path d="M4.23968 0.569952 3.93457 1.4188 3.93913 1.4682 4.08731 2.20533 3.22859 2.56022 2.81252 1.9348 2.7806 1.89756 1.96443 1.51227 1.51227 1.96443 1.89756 2.7806 1.9348 2.81252 2.56022 3.22897 2.20495 4.08693 1.46782 3.93875 1.41842 3.93495 0.569952 4.23968 0.569952 4.87955 1.4188 5.18466 1.4682 5.1801 2.20533 5.03191 2.56022 5.89064 1.9348 6.30671 1.89756 6.33862 1.51227 7.1548 1.96443 7.60696 2.7806 7.22167 2.81252 7.18443 3.22897 6.559 4.08693 6.91428 3.93875 7.65141 3.93495 7.70081 4.23968 8.54928 4.87955 8.54928 5.18466 7.70043 5.1801 7.65103 5.03191 6.9139 5.89064 6.559 6.30671 7.18443 6.33862 7.22167 7.1548 7.60696 7.60696 7.1548 7.22167 6.33862 7.18443 6.30671 6.559 5.89026 6.91428 5.03229 7.65141 5.18048 7.70081 5.18428 8.54928 4.87955 8.54928 4.23968 7.70043 3.93457 7.65103 3.93913 6.9139 4.08731 6.559 3.22859 7.18443 2.81252 7.22167 2.7806 7.60696 1.96443 7.1548 1.51227 6.33862 1.89756 6.30671 1.9348 5.89026 2.56022 5.03229 2.20495 5.18048 1.46782 5.18428 1.41842 4.87955 0.569952 4.23968 0.569952M4.55961 3.60969C5.08424 3.60969 5.50953 4.03499 5.50953 4.55961 5.50953 5.08424 5.08424 5.50953 4.55961 5.50953 4.03499 5.50953 3.60969 5.08424 3.60969 4.55961 3.60969 4.03499 4.03499 3.60969 4.55961 3.60969" stroke="#457ABE" stroke-width="0.379968" fill="none" transform="matrix(1 0 0 1.00048 451.937 135.139)"/><path d="M-95.9419-15.1987 95.9419-15.1987 95.9419 15.1987-95.9419 15.1987Z" stroke="#A0A0A4" stroke-width="0.94992" stroke-linecap="square" stroke-linejoin="bevel" fill="#FFFFFF" fill-rule="evenodd" transform="matrix(1 0 0 1.00048 667.949 304.686)"/><text font-family="Verdana,Verdana_MSFontService,sans-serif" font-weight="400" font-size="12" transform="matrix(0.94992 0 0 0.950376 596.705 308)">Distance to Medium City<tspan font-size="12" x="0" y="-30.5142">In</tspan><tspan font-size="12" x="0" y="27.3576">Out</tspan></text><path d="M4.23968 0.569952 3.93457 1.4188 3.93913 1.4682 4.08731 2.20533 3.22859 2.56022 2.81252 1.9348 2.7806 1.89756 1.96443 1.51227 1.51227 1.96443 1.89756 2.7806 1.9348 2.81252 2.56022 3.22897 2.20495 4.08693 1.46782 3.93875 1.41842 3.93495 0.569952 4.23968 0.569952 4.87955 1.4188 5.18466 1.4682 5.1801 2.20533 5.03191 2.56022 5.89064 1.9348 6.30671 1.89756 6.33862 1.51227 7.1548 1.96443 7.60696 2.7806 7.22167 2.81252 7.18443 3.22897 6.559 4.08693 6.91428 3.93875 7.65141 3.93495 7.70081 4.23968 8.54928 4.87955 8.54928 5.18466 7.70043 5.1801 7.65103 5.03191 6.9139 5.89064 6.559 6.30671 7.18443 6.33862 7.22167 7.1548 7.60696 7.60696 7.1548 7.22167 6.33862 7.18443 6.30671 6.559 5.89026 6.91428 5.03229 7.65141 5.18048 7.70081 5.18428 8.54928 4.87955 8.54928 4.23968 7.70043 3.93457 7.65103 3.93913 6.9139 4.08731 6.559 3.22859 7.18443 2.81252 7.22167 2.7806 7.60696 1.96443 7.1548 1.51227 6.33862 1.89756 6.30671 1.9348 5.89026 2.56022 5.03229 2.20495 5.18048 1.46782 5.18428 1.41842 4.87955 0.569952 4.23968 0.569952M4.55961 3.60969C5.08424 3.60969 5.50953 4.03499 5.50953 4.55961 5.50953 5.08424 5.08424 5.50953 4.55961 5.50953 4.03499 5.50953 3.60969 5.08424 3.60969 4.55961 3.60969 4.03499 4.03499 3.60969 4.55961 3.60969" fill="#98B5D8" transform="matrix(1 0 0 1.00048 575.807 297.083)"/><path d="M4.23968 0.569952 3.93457 1.4188 3.93913 1.4682 4.08731 2.20533 3.22859 2.56022 2.81252 1.9348 2.7806 1.89756 1.96443 1.51227 1.51227 1.96443 1.89756 2.7806 1.9348 2.81252 2.56022 3.22897 2.20495 4.08693 1.46782 3.93875 1.41842 3.93495 0.569952 4.23968 0.569952 4.87955 1.4188 5.18466 1.4682 5.1801 2.20533 5.03191 2.56022 5.89064 1.9348 6.30671 1.89756 6.33862 1.51227 7.1548 1.96443 7.60696 2.7806 7.22167 2.81252 7.18443 3.22897 6.559 4.08693 6.91428 3.93875 7.65141 3.93495 7.70081 4.23968 8.54928 4.87955 8.54928 5.18466 7.70043 5.1801 7.65103 5.03191 6.9139 5.89064 6.559 6.30671 7.18443 6.33862 7.22167 7.1548 7.60696 7.60696 7.1548 7.22167 6.33862 7.18443 6.30671 6.559 5.89026 6.91428 5.03229 7.65141 5.18048 7.70081 5.18428 8.54928 4.87955 8.54928 4.23968 7.70043 3.93457 7.65103 3.93913 6.9139 4.08731 6.559 3.22859 7.18443 2.81252 7.22167 2.7806 7.60696 1.96443 7.1548 1.51227 6.33862 1.89756 6.30671 1.9348 5.89026 2.56022 5.03229 2.20495 5.18048 1.46782 5.18428 1.41842 4.87955 0.569952 4.23968 0.569952M4.55961 3.60969C5.08424 3.60969 5.50953 4.03499 5.50953 4.55961 5.50953 5.08424 5.08424 5.50953 4.55961 5.50953 4.03499 5.50953 3.60969 5.08424 3.60969 4.55961 3.60969 4.03499 4.03499 3.60969 4.55961 3.60969" stroke="#457ABE" stroke-width="0.379968" fill="none" transform="matrix(1 0 0 1.00048 575.807 297.083)"/><path d="M-95.9419-15.1987 95.9419-15.1987 95.9419 15.1987-95.9419 15.1987Z" stroke="#A0A0A4" stroke-width="0.94992" stroke-linecap="square" stroke-linejoin="bevel" fill="#FFFFFF" fill-rule="evenodd" transform="matrix(1 0 0 1.00048 751.542 464.349)"/><text font-family="Verdana,Verdana_MSFontService,sans-serif" font-weight="400" font-size="12" transform="matrix(0.94992 0 0 0.950376 680.298 468)">Distance to Small City<tspan font-size="12" x="0" y="-30.5142">In</tspan><tspan font-size="12" x="0" y="26.3054">Out</tspan></text><path d="M4.23968 0.569952 3.93457 1.4188 3.93913 1.4682 4.08731 2.20533 3.22859 2.56022 2.81252 1.9348 2.7806 1.89756 1.96443 1.51227 1.51227 1.96443 1.89756 2.7806 1.9348 2.81252 2.56022 3.22897 2.20495 4.08693 1.46782 3.93875 1.41842 3.93495 0.569952 4.23968 0.569952 4.87955 1.4188 5.18466 1.4682 5.1801 2.20533 5.03191 2.56022 5.89064 1.9348 6.30671 1.89756 6.33862 1.51227 7.1548 1.96443 7.60696 2.7806 7.22167 2.81252 7.18443 3.22897 6.559 4.08693 6.91428 3.93875 7.65141 3.93495 7.70081 4.23968 8.54928 4.87955 8.54928 5.18466 7.70043 5.1801 7.65103 5.03191 6.9139 5.89064 6.559 6.30671 7.18443 6.33862 7.22167 7.1548 7.60696 7.60696 7.1548 7.22167 6.33862 7.18443 6.30671 6.559 5.89026 6.91428 5.03229 7.65141 5.18048 7.70081 5.18428 8.54928 4.87955 8.54928 4.23968 7.70043 3.93457 7.65103 3.93913 6.9139 4.08731 6.559 3.22859 7.18443 2.81252 7.22167 2.7806 7.60696 1.96443 7.1548 1.51227 6.33862 1.89756 6.30671 1.9348 5.89026 2.56022 5.03229 2.20495 5.18048 1.46782 5.18428 1.41842 4.87955 0.569952 4.23968 0.569952M4.55961 3.60969C5.08424 3.60969 5.50953 4.03499 5.50953 4.55961 5.50953 5.08424 5.08424 5.50953 4.55961 5.50953 4.03499 5.50953 3.60969 5.08424 3.60969 4.55961 3.60969 4.03499 4.03499 3.60969 4.55961 3.60969" fill="#98B5D8" transform="matrix(1 0 0 1.00048 659.4 456.746)"/><path d="M4.23968 0.569952 3.93457 1.4188 3.93913 1.4682 4.08731 2.20533 3.22859 2.56022 2.81252 1.9348 2.7806 1.89756 1.96443 1.51227 1.51227 1.96443 1.89756 2.7806 1.9348 2.81252 2.56022 3.22897 2.20495 4.08693 1.46782 3.93875 1.41842 3.93495 0.569952 4.23968 0.569952 4.87955 1.4188 5.18466 1.4682 5.1801 2.20533 5.03191 2.56022 5.89064 1.9348 6.30671 1.89756 6.33862 1.51227 7.1548 1.96443 7.60696 2.7806 7.22167 2.81252 7.18443 3.22897 6.559 4.08693 6.91428 3.93875 7.65141 3.93495 7.70081 4.23968 8.54928 4.87955 8.54928 5.18466 7.70043 5.1801 7.65103 5.03191 6.9139 5.89064 6.559 6.30671 7.18443 6.33862 7.22167 7.1548 7.60696 7.60696 7.1548 7.22167 6.33862 7.18443 6.30671 6.559 5.89026 6.91428 5.03229 7.65141 5.18048 7.70081 5.18428 8.54928 4.87955 8.54928 4.23968 7.70043 3.93457 7.65103 3.93913 6.9139 4.08731 6.559 3.22859 7.18443 2.81252 7.22167 2.7806 7.60696 1.96443 7.1548 1.51227 6.33862 1.89756 6.30671 1.9348 5.89026 2.56022 5.03229 2.20495 5.18048 1.46782 5.18428 1.41842 4.87955 0.569952 4.23968 0.569952M4.55961 3.60969C5.08424 3.60969 5.50953 4.03499 5.50953 4.55961 5.50953 5.08424 5.08424 5.50953 4.55961 5.50953 4.03499 5.50953 3.60969 5.08424 3.60969 4.55961 3.60969 4.03499 4.03499 3.60969 4.55961 3.60969" stroke="#457ABE" stroke-width="0.379968" fill="none" transform="matrix(1 0 0 1.00048 659.4 456.746)"/><path d="M-95.9419-15.1987 95.9419-15.1987 95.9419 15.1987-95.9419 15.1987Z" stroke="#A0A0A4" stroke-width="0.94992" stroke-linecap="square" stroke-linejoin="bevel" fill="#FFFFFF" fill-rule="evenodd" transform="matrix(1 0 0 1.00048 866.292 622.491)"/><text font-family="Verdana,Verdana_MSFontService,sans-serif" font-weight="400" font-size="12" transform="matrix(0.94992 0 0 0.950376 795.048 626)">Weighted Sum of Fields<tspan font-size="12" x="0" y="-30.5142">In</tspan><tspan font-size="12" x="0" y="26.3054">Out</tspan></text><path d="M4.23968 0.569952 3.93457 1.4188 3.93913 1.4682 4.08731 2.20533 3.22859 2.56022 2.81252 1.9348 2.7806 1.89756 1.96443 1.51227 1.51227 1.96443 1.89756 2.7806 1.9348 2.81252 2.56022 3.22897 2.20495 4.08693 1.46782 3.93875 1.41842 3.93495 0.569952 4.23968 0.569952 4.87955 1.4188 5.18466 1.4682 5.1801 2.20533 5.03191 2.56022 5.89064 1.9348 6.30671 1.89756 6.33862 1.51227 7.1548 1.96443 7.60696 2.7806 7.22167 2.81252 7.18443 3.22897 6.559 4.08693 6.91428 3.93875 7.65141 3.93495 7.70081 4.23968 8.54928 4.87955 8.54928 5.18466 7.70043 5.1801 7.65103 5.03191 6.9139 5.89064 6.559 6.30671 7.18443 6.33862 7.22167 7.1548 7.60696 7.60696 7.1548 7.22167 6.33862 7.18443 6.30671 6.559 5.89026 6.91428 5.03229 7.65141 5.18048 7.70081 5.18428 8.54928 4.87955 8.54928 4.23968 7.70043 3.93457 7.65103 3.93913 6.9139 4.08731 6.559 3.22859 7.18443 2.81252 7.22167 2.7806 7.60696 1.96443 7.1548 1.51227 6.33862 1.89756 6.30671 1.9348 5.89026 2.56022 5.03229 2.20495 5.18048 1.46782 5.18428 1.41842 4.87955 0.569952 4.23968 0.569952M4.55961 3.60969C5.08424 3.60969 5.50953 4.03499 5.50953 4.55961 5.50953 5.08424 5.08424 5.50953 4.55961 5.50953 4.03499 5.50953 3.60969 5.08424 3.60969 4.55961 3.60969 4.03499 4.03499 3.60969 4.55961 3.60969" fill="#98B5D8" transform="matrix(1 0 0 1.00048 774.15 614.888)"/><path d="M4.23968 0.569952 3.93457 1.4188 3.93913 1.4682 4.08731 2.20533 3.22859 2.56022 2.81252 1.9348 2.7806 1.89756 1.96443 1.51227 1.51227 1.96443 1.89756 2.7806 1.9348 2.81252 2.56022 3.22897 2.20495 4.08693 1.46782 3.93875 1.41842 3.93495 0.569952 4.23968 0.569952 4.87955 1.4188 5.18466 1.4682 5.1801 2.20533 5.03191 2.56022 5.89064 1.9348 6.30671 1.89756 6.33862 1.51227 7.1548 1.96443 7.60696 2.7806 7.22167 2.81252 7.18443 3.22897 6.559 4.08693 6.91428 3.93875 7.65141 3.93495 7.70081 4.23968 8.54928 4.87955 8.54928 5.18466 7.70043 5.1801 7.65103 5.03191 6.9139 5.89064 6.559 6.30671 7.18443 6.33862 7.22167 7.1548 7.60696 7.60696 7.1548 7.22167 6.33862 7.18443 6.30671 6.559 5.89026 6.91428 5.03229 7.65141 5.18048 7.70081 5.18428 8.54928 4.87955 8.54928 4.23968 7.70043 3.93457 7.65103 3.93913 6.9139 4.08731 6.559 3.22859 7.18443 2.81252 7.22167 2.7806 7.60696 1.96443 7.1548 1.51227 6.33862 1.89756 6.30671 1.9348 5.89026 2.56022 5.03229 2.20495 5.18048 1.46782 5.18428 1.41842 4.87955 0.569952 4.23968 0.569952M4.55961 3.60969C5.08424 3.60969 5.50953 4.03499 5.50953 4.55961 5.50953 5.08424 5.08424 5.50953 4.55961 5.50953 4.03499 5.50953 3.60969 5.08424 3.60969 4.55961 3.60969 4.03499 4.03499 3.60969 4.55961 3.60969" stroke="#457ABE" stroke-width="0.379968" fill="none" transform="matrix(1 0 0 1.00048 774.15 614.888)"/><path d="M-95.9419-15.1987 95.9419-15.1987 95.9419 15.1987-95.9419 15.1987Z" stroke="#5A8C5A" stroke-width="0.94992" stroke-linecap="square" stroke-linejoin="bevel" fill="#ACC472" fill-rule="evenodd" transform="matrix(1 0 0 1.00048 1056.28 665.258)"/><text font-family="Verdana,Verdana_MSFontService,sans-serif" font-weight="400" font-size="12" transform="matrix(0.94992 0 0 0.950376 985.032 669)">rcrp<tspan font-size="12" x="24" y="0">_</tspan><tspan font-size="12" x="32" y="0">Market</tspan></text><path d="M0 2.84976 4.55961 2.84976 4.55961 0 9.11923 4.55961 4.55961 9.11923 4.55961 6.26947 0 6.26947 0 2.84976" fill="#5A8C5A" transform="matrix(1 0 0 1.00048 964.134 657.655)"/><path d="M0.569952 5.69952 0.569952 3.41971 5.12957 3.41971 5.12957 1.42488 8.2643 4.55961 5.12957 7.69435 5.12957 5.69952 0.569952 5.69952" fill="#FFFFFF" transform="matrix(1 0 0 1.00048 964.134 657.655)"/><path d="M1.1399 3.98966 1.1399 5.12957 5.69952 5.12957 5.69952 6.26947 7.58036 4.55961 5.69952 2.84976 5.69952 3.98966 1.1399 3.98966" fill="#5A8C5A" transform="matrix(1 0 0 1.00048 964.134 657.655)"/></g></g></g><path d="M870.5 38.0001 878 30.5001 885.5 38.0001 878 45.5001Z" stroke="#507E32" stroke-width="1.33333" stroke-miterlimit="8" fill="#0D0D0D" fill-rule="evenodd"/><text font-family="Calibri,Calibri_MSFontService,sans-serif" font-weight="400" font-size="15" transform="translate(895.455 44)">Input V<tspan font-size="15" x="43.1667" y="0">ector Layer</tspan></text><path d="M870.5 60.0001 878 52.5001 885.5 60.0001 878 67.5001Z" stroke="#507E32" stroke-width="1.33333" stroke-miterlimit="8" fill="#FF00FF" fill-rule="evenodd"/><text font-family="Calibri,Calibri_MSFontService,sans-serif" font-weight="400" font-size="15" transform="translate(895.455 66)">I<tspan font-size="15" x="3.66669" y="0">nput String</tspan></text><path d="M869.5 90.5001 877.5 76.5001 885.5 90.5001Z" stroke="#AE5A21" stroke-width="1.33333" stroke-miterlimit="8" fill="#ED7D31" fill-rule="evenodd"/><text font-family="Calibri,Calibri_MSFontService,sans-serif" font-weight="400" font-size="15" transform="translate(896.071 90)">Distance to Point Features Process</text><path d="M612.5 147.5 621 133.5 629.5 147.5Z" stroke="#AE5A21" stroke-width="1.33333" stroke-miterlimit="8" fill="#ED7D31" fill-rule="evenodd"/><path d="M744.5 310.5 753 295.5 761.5 310.5Z" stroke="#AE5A21" stroke-width="1.33333" stroke-miterlimit="8" fill="#ED7D31" fill-rule="evenodd"/><path d="M825.5 470.5 834 455.5 842.5 470.5Z" stroke="#AE5A21" stroke-width="1.33333" stroke-miterlimit="8" fill="#ED7D31" fill-rule="evenodd"/><path d="M869.5 107C869.5 102.858 873.082 99.5001 877.5 99.5001 881.918 99.5001 885.5 102.858 885.5 107 885.5 111.142 881.918 114.5 877.5 114.5 873.082 114.5 869.5 111.142 869.5 107Z" stroke="#BC8C00" stroke-width="1.33333" stroke-miterlimit="8" fill="#FFC000" fill-rule="evenodd"/><text font-family="Calibri,Calibri_MSFontService,sans-serif" font-weight="400" font-size="15" transform="translate(896.422 112)">Rescale <tspan font-size="15" x="48.1666" y="0">Field </tspan><tspan font-size="15" x="79.8333" y="0">Linearly Process</tspan></text><path d="M870.5 127.848 879 122.5 887.5 127.848 884.253 136.5 873.747 136.5Z" stroke="#2F528F" stroke-width="1.33333" stroke-miterlimit="8" fill="#00B0F0" fill-rule="evenodd"/><text font-family="Calibri,Calibri_MSFontService,sans-serif" font-weight="400" font-size="15" transform="translate(895.822 135)">Weighted <tspan font-size="15" x="61.3333" y="0">Sum of Fields Process</tspan></text><path d="M870.5 149.848 876.994 149.848 879 144.5 881.007 149.848 887.5 149.848 882.247 153.152 884.253 158.5 879 155.195 873.747 158.5 875.753 153.152Z" stroke="#2F528F" stroke-width="1.33333" stroke-miterlimit="8" fill="#FF0000" fill-rule="evenodd"/><text font-family="Calibri,Calibri_MSFontService,sans-serif" font-weight="400" font-size="15" transform="translate(895.822 159)">Output</text><path d="M351.5 56.0001 359 48.5001 366.5 56.0001 359 63.5001Z" stroke="#507E32" stroke-width="1.33333" stroke-miterlimit="8" fill="#0D0D0D" fill-rule="evenodd"/><path d="M351.5 168 359 160.5 366.5 168 359 175.5Z" stroke="#507E32" stroke-width="1.33333" stroke-miterlimit="8" fill="#0D0D0D" fill-rule="evenodd"/><path d="M429.5 316 437 308.5 444.5 316 437 323.5Z" stroke="#507E32" stroke-width="1.33333" stroke-miterlimit="8" fill="#0D0D0D" fill-rule="evenodd"/><path d="M525.5 481 532.5 473.5 539.5 481 532.5 488.5Z" stroke="#507E32" stroke-width="1.33333" stroke-miterlimit="8" fill="#0D0D0D" fill-rule="evenodd"/><path d="M1120.5 662.848 1126.99 662.848 1129 657.5 1131.01 662.848 1137.5 662.848 1132.25 666.153 1134.25 671.5 1129 668.195 1123.75 671.5 1125.75 666.153Z" stroke="#2F528F" stroke-width="1.33333" stroke-miterlimit="8" fill="#FF0000" fill-rule="evenodd"/><path d="M650.5 629 657.5 621.5 664.5 629 657.5 636.5Z" stroke="#507E32" stroke-width="1.33333" stroke-miterlimit="8" fill="#FF00FF" fill-rule="evenodd"/><path d="M688.5 227.5C688.5 223.634 691.41 220.5 695 220.5 698.59 220.5 701.5 223.634 701.5 227.5 701.5 231.366 698.59 234.5 695 234.5 691.41 234.5 688.5 231.366 688.5 227.5Z" stroke="#BC8C00" stroke-width="1.33333" stroke-miterlimit="8" fill="#FFC000" fill-rule="evenodd"/><path d="M778.5 384.5C778.5 380.634 781.41 377.5 785 377.5 788.59 377.5 791.5 380.634 791.5 384.5 791.5 388.366 788.59 391.5 785 391.5 781.41 391.5 778.5 388.366 778.5 384.5Z" stroke="#BC8C00" stroke-width="1.33333" stroke-miterlimit="8" fill="#FFC000" fill-rule="evenodd"/><path d="M880.5 540C880.5 535.858 883.41 532.5 887 532.5 890.59 532.5 893.5 535.858 893.5 540 893.5 544.142 890.59 547.5 887 547.5 883.41 547.5 880.5 544.142 880.5 540Z" stroke="#BC8C00" stroke-width="1.33333" stroke-miterlimit="8" fill="#FFC000" fill-rule="evenodd"/><path d="M940.5 620.848 949 615.5 957.5 620.848 954.253 629.5 943.747 629.5Z" stroke="#2F528F" stroke-width="1.33333" stroke-miterlimit="8" fill="#00B0F0" fill-rule="evenodd"/></g></svg>