<svg width="1202" height="739" xmlns="http://www.w3.org/2000/svg" xmlns:xlink="http://www.w3.org/1999/xlink" overflow="hidden"><defs><clipPath id="clip0"><rect x="34" y="-1" width="1202" height="739"/></clipPath><clipPath id="clip1"><rect x="34" y="0" width="1056" height="738"/></clipPath><clipPath id="clip2"><rect x="34" y="0" width="1056" height="738"/></clipPath><clipPath id="clip3"><rect x="34" y="0" width="1056" height="738"/></clipPath></defs><g clip-path="url(#clip0)" transform="translate(-34 1)"><g clip-path="url(#clip1)"><g clip-path="url(#clip2)"><g clip-path="url(#clip3)"><path d="M445.012 726.882C445.012 728.297 443.865 729.445 442.45 729.445 441.035 729.445 439.888 728.297 439.888 726.882 439.888 725.467 441.035 724.32 442.45 724.32 443.865 724.32 445.012 725.467 445.012 726.882Z" stroke="#000000" stroke-width="0.854151" stroke-linecap="round" stroke-linejoin="round" stroke-opacity="0.313725" fill="#000000" fill-rule="evenodd" fill-opacity="0.313725" transform="matrix(1 0 0 1.00002 -26.619 -555.045)"/><path d="M364.722 741.403C364.722 742.818 363.575 743.965 362.16 743.965 360.745 743.965 359.597 742.818 359.597 741.403 359.597 739.987 360.745 738.84 362.16 738.84 363.575 738.84 364.722 739.987 364.722 741.403Z" stroke="#000000" stroke-width="0.854151" stroke-linecap="round" stroke-linejoin="round" stroke-opacity="0.313725" fill="#000000" fill-rule="evenodd" fill-opacity="0.313725" transform="matrix(1 0 0 1.00002 -26.619 -555.045)"/><path d="M443.133 726.882C500.077 726.882 305.387 741.744 362.331 741.744" stroke="#000000" stroke-width="0.854151" stroke-linecap="round" stroke-linejoin="round" stroke-opacity="0.313725" fill="none" fill-rule="evenodd" transform="matrix(1 0 0 1.00002 -26.619 -555.045)"/><path d="M580.822 871.234C580.822 872.649 579.675 873.796 578.26 873.796 576.845 873.796 575.697 872.649 575.697 871.234 575.697 869.818 576.845 868.671 578.26 868.671 579.675 868.671 580.822 869.818 580.822 871.234Z" stroke="#000000" stroke-width="0.854151" stroke-linecap="round" stroke-linejoin="round" stroke-opacity="0.313725" fill="#000000" fill-rule="evenodd" fill-opacity="0.313725" transform="matrix(1 0 0 1.00002 -26.619 -555.045)"/><path d="M501.386 890.879C501.386 892.294 500.239 893.441 498.824 893.441 497.409 893.441 496.261 892.294 496.261 890.879 496.261 889.464 497.409 888.317 498.824 888.317 500.239 888.317 501.386 889.464 501.386 890.879Z" stroke="#000000" stroke-width="0.854151" stroke-linecap="round" stroke-linejoin="round" stroke-opacity="0.313725" fill="#000000" fill-rule="evenodd" fill-opacity="0.313725" transform="matrix(1 0 0 1.00002 -26.619 -555.045)"/><path d="M578.431 871.746C635.374 871.746 442.051 891.391 498.995 891.391" stroke="#000000" stroke-width="0.854151" stroke-linecap="round" stroke-linejoin="round" stroke-opacity="0.313725" fill="none" fill-rule="evenodd" transform="matrix(1 0 0 1.00002 -26.619 -555.045)"/><path d="M719.195 1024.98C719.195 1026.4 718.047 1027.54 716.632 1027.54 715.217 1027.54 714.07 1026.4 714.07 1024.98 714.07 1023.57 715.217 1022.42 716.632 1022.42 718.047 1022.42 719.195 1023.57 719.195 1024.98Z" stroke="#000000" stroke-width="0.854151" stroke-linecap="round" stroke-linejoin="round" stroke-opacity="0.313725" fill="#000000" fill-rule="evenodd" fill-opacity="0.313725" transform="matrix(1 0 0 1.00002 -26.619 -555.045)"/><path d="M640.613 1039.5C640.613 1040.92 639.466 1042.06 638.05 1042.06 636.635 1042.06 635.488 1040.92 635.488 1039.5 635.488 1038.09 636.635 1036.94 638.05 1036.94 639.466 1036.94 640.613 1038.09 640.613 1039.5Z" stroke="#000000" stroke-width="0.854151" stroke-linecap="round" stroke-linejoin="round" stroke-opacity="0.313725" fill="#000000" fill-rule="evenodd" fill-opacity="0.313725" transform="matrix(1 0 0 1.00002 -26.619 -555.045)"/><path d="M717.145 1025.49C774.088 1025.49 581.448 1039.67 638.392 1039.67" stroke="#000000" stroke-width="0.854151" stroke-linecap="round" stroke-linejoin="round" stroke-opacity="0.313725" fill="none" fill-rule="evenodd" transform="matrix(1 0 0 1.00002 -26.619 -555.045)"/><path d="M365.576 677.341C365.576 678.757 364.429 679.904 363.014 679.904 361.599 679.904 360.452 678.757 360.452 677.341 360.452 675.926 361.599 674.779 363.014 674.779 364.429 674.779 365.576 675.926 365.576 677.341Z" stroke="#000000" stroke-width="0.854151" stroke-linecap="round" stroke-linejoin="round" stroke-opacity="0.313725" fill="#000000" fill-rule="evenodd" fill-opacity="0.313725" transform="matrix(1 0 0 1.00002 -26.619 -555.045)"/><path d="M277.414 605.939C334.358 605.939 306.754 677.512 363.697 677.512" stroke="#000000" stroke-width="0.854151" stroke-linecap="round" stroke-linejoin="round" stroke-opacity="0.313725" fill="none" fill-rule="evenodd" transform="matrix(1 0 0 1.00002 -26.619 -555.045)"/><path d="M365.576 677.341C365.576 678.757 364.429 679.904 363.014 679.904 361.599 679.904 360.452 678.757 360.452 677.341 360.452 675.926 361.599 674.779 363.014 674.779 364.429 674.779 365.576 675.926 365.576 677.341Z" stroke="#000000" stroke-width="0.854151" stroke-linecap="round" stroke-linejoin="round" stroke-opacity="0.313725" fill="#000000" fill-rule="evenodd" fill-opacity="0.313725" transform="matrix(1 0 0 1.00002 -26.619 -555.045)"/><path d="M155.676 722.599C212.619 722.599 306.754 677.512 363.697 677.512" stroke="#000000" stroke-width="0.854151" stroke-linecap="round" stroke-linejoin="round" stroke-opacity="0.313725" fill="none" fill-rule="evenodd" transform="matrix(1 0 0 1.00002 -26.619 -555.045)"/><path d="M444.158 790.943C444.158 792.359 443.011 793.506 441.596 793.506 440.181 793.506 439.033 792.359 439.033 790.943 439.033 789.528 440.181 788.381 441.596 788.381 443.011 788.381 444.158 789.528 444.158 790.943Z" stroke="#000000" stroke-width="0.854151" stroke-linecap="round" stroke-linejoin="round" stroke-opacity="0.313725" fill="#000000" fill-rule="evenodd" fill-opacity="0.313725" transform="matrix(1 0 0 1.00002 -26.619 -555.045)"/><path d="M501.386 821.693C501.386 823.108 500.239 824.255 498.824 824.255 497.409 824.255 496.261 823.108 496.261 821.693 496.261 820.278 497.409 819.13 498.824 819.13 500.239 819.13 501.386 820.278 501.386 821.693Z" stroke="#000000" stroke-width="0.854151" stroke-linecap="round" stroke-linejoin="round" stroke-opacity="0.313725" fill="#000000" fill-rule="evenodd" fill-opacity="0.313725" transform="matrix(1 0 0 1.00002 -26.619 -555.045)"/><path d="M441.767 791.114C498.71 791.114 442.051 822.376 498.995 822.376" stroke="#000000" stroke-width="0.854151" stroke-linecap="round" stroke-linejoin="round" stroke-opacity="0.313725" fill="none" fill-rule="evenodd" transform="matrix(1 0 0 1.00002 -26.619 -555.045)"/><path d="M501.386 821.693C501.386 823.108 500.239 824.255 498.824 824.255 497.409 824.255 496.261 823.108 496.261 821.693 496.261 820.278 497.409 819.13 498.824 819.13 500.239 819.13 501.386 820.278 501.386 821.693Z" stroke="#000000" stroke-width="0.854151" stroke-linecap="round" stroke-linejoin="round" stroke-opacity="0.313725" fill="#000000" fill-rule="evenodd" fill-opacity="0.313725" transform="matrix(1 0 0 1.00002 -26.619 -555.045)"/><path d="M259.018 848.416C315.961 848.416 442.051 822.376 498.995 822.376" stroke="#000000" stroke-width="0.854151" stroke-linecap="round" stroke-linejoin="round" stroke-opacity="0.313725" fill="none" fill-rule="evenodd" transform="matrix(1 0 0 1.00002 -26.619 -555.045)"/><path d="M580.822 940.42C580.822 941.835 579.675 942.982 578.26 942.982 576.845 942.982 575.697 941.835 575.697 940.42 575.697 939.005 576.845 937.857 578.26 937.857 579.675 937.857 580.822 939.005 580.822 940.42Z" stroke="#000000" stroke-width="0.854151" stroke-linecap="round" stroke-linejoin="round" stroke-opacity="0.313725" fill="#000000" fill-rule="evenodd" fill-opacity="0.313725" transform="matrix(1 0 0 1.00002 -26.619 -555.045)"/><path d="M639.759 975.44C639.759 976.855 638.612 978.002 637.196 978.002 635.781 978.002 634.634 976.855 634.634 975.44 634.634 974.025 635.781 972.877 637.196 972.877 638.612 972.877 639.759 974.025 639.759 975.44Z" stroke="#000000" stroke-width="0.854151" stroke-linecap="round" stroke-linejoin="round" stroke-opacity="0.313725" fill="#000000" fill-rule="evenodd" fill-opacity="0.313725" transform="matrix(1 0 0 1.00002 -26.619 -555.045)"/><path d="M578.431 940.761C635.374 940.761 580.765 976.123 637.709 976.123" stroke="#000000" stroke-width="0.854151" stroke-linecap="round" stroke-linejoin="round" stroke-opacity="0.313725" fill="none" fill-rule="evenodd" transform="matrix(1 0 0 1.00002 -26.619 -555.045)"/><path d="M639.759 975.44C639.759 976.855 638.612 978.002 637.196 978.002 635.781 978.002 634.634 976.855 634.634 975.44 634.634 974.025 635.781 972.877 637.196 972.877 638.612 972.877 639.759 974.025 639.759 975.44Z" stroke="#000000" stroke-width="0.854151" stroke-linecap="round" stroke-linejoin="round" stroke-opacity="0.313725" fill="#000000" fill-rule="evenodd" fill-opacity="0.313725" transform="matrix(1 0 0 1.00002 -26.619 -555.045)"/><path d="M416.357 1000.24C473.3 1000.24 580.765 976.123 637.709 976.123" stroke="#000000" stroke-width="0.854151" stroke-linecap="round" stroke-linejoin="round" stroke-opacity="0.313725" fill="none" fill-rule="evenodd" transform="matrix(1 0 0 1.00002 -26.619 -555.045)"/><path d="M720.049 1089.04C720.049 1090.46 718.902 1091.6 717.486 1091.6 716.071 1091.6 714.924 1090.46 714.924 1089.04 714.924 1087.63 716.071 1086.48 717.486 1086.48 718.902 1086.48 720.049 1087.63 720.049 1089.04Z" stroke="#000000" stroke-width="0.854151" stroke-linecap="round" stroke-linejoin="round" stroke-opacity="0.313725" fill="#000000" fill-rule="evenodd" fill-opacity="0.313725" transform="matrix(1 0 0 1.00002 -26.619 -555.045)"/><path d="M787.527 1144.56C787.527 1145.98 786.38 1147.12 784.964 1147.12 783.549 1147.12 782.402 1145.98 782.402 1144.56 782.402 1143.15 783.549 1142 784.964 1142 786.38 1142 787.527 1143.15 787.527 1144.56Z" stroke="#000000" stroke-width="0.854151" stroke-linecap="round" stroke-linejoin="round" stroke-opacity="0.313725" fill="#000000" fill-rule="evenodd" fill-opacity="0.313725" transform="matrix(1 0 0 1.00002 -26.619 -555.045)"/><path d="M717.828 1089.04C774.772 1089.04 728.362 1144.9 785.306 1144.9" stroke="#000000" stroke-width="0.854151" stroke-linecap="round" stroke-linejoin="round" stroke-opacity="0.313725" fill="none" fill-rule="evenodd" transform="matrix(1 0 0 1.00002 -26.619 -555.045)"/><path d="M787.527 1144.56C787.527 1145.98 786.38 1147.12 784.964 1147.12 783.549 1147.12 782.402 1145.98 782.402 1144.56 782.402 1143.15 783.549 1142 784.964 1142 786.38 1142 787.527 1143.15 787.527 1144.56Z" stroke="#000000" stroke-width="0.854151" stroke-linecap="round" stroke-linejoin="round" stroke-opacity="0.313725" fill="#000000" fill-rule="evenodd" fill-opacity="0.313725" transform="matrix(1 0 0 1.00002 -26.619 -555.045)"/><path d="M549.512 1139.54C606.455 1139.54 728.362 1144.9 785.306 1144.9" stroke="#000000" stroke-width="0.854151" stroke-linecap="round" stroke-linejoin="round" stroke-opacity="0.313725" fill="none" fill-rule="evenodd" transform="matrix(1 0 0 1.00002 -26.619 -555.045)"/><path d="M866.963 1194.1C866.963 1195.52 865.816 1196.66 864.4 1196.66 862.985 1196.66 861.838 1195.52 861.838 1194.1 861.838 1192.69 862.985 1191.54 864.4 1191.54 865.816 1191.54 866.963 1192.69 866.963 1194.1Z" stroke="#000000" stroke-width="0.854151" stroke-linecap="round" stroke-linejoin="round" stroke-opacity="0.313725" fill="#000000" fill-rule="evenodd" fill-opacity="0.313725" transform="matrix(1 0 0 1.00002 -26.619 -555.045)"/><path d="M960.065 1243.64C960.065 1245.06 958.918 1246.21 957.503 1246.21 956.088 1246.21 954.94 1245.06 954.94 1243.64 954.94 1242.23 956.088 1241.08 957.503 1241.08 958.918 1241.08 960.065 1242.23 960.065 1243.64Z" stroke="#000000" stroke-width="0.854151" stroke-linecap="round" stroke-linejoin="round" stroke-opacity="0.313725" fill="#000000" fill-rule="evenodd" fill-opacity="0.313725" transform="matrix(1 0 0 1.00002 -26.619 -555.045)"/><path d="M864.742 1194.27C921.688 1194.27 900.557 1243.81 957.503 1243.81" stroke="#000000" stroke-width="0.854151" stroke-linecap="round" stroke-linejoin="round" stroke-opacity="0.313725" fill="none" fill-rule="evenodd" transform="matrix(1 0 0 1.00002 -26.619 -555.045)"/><path d="M-86.2692-13.6664 86.2692-13.6664 86.2692 13.6664-86.2692 13.6664Z" stroke="#EAE276" stroke-width="0.854151" stroke-linecap="square" stroke-linejoin="bevel" fill="#EEF283" fill-rule="evenodd" transform="matrix(1 0 0 1.00002 250.795 50.9086)"/><text font-family="Verdana,Verdana_MSFontService,sans-serif" font-weight="400" font-size="12" transform="matrix(0.854151 0 0 0.854172 186.734 54)">InputPolygon</text><path d="M2.8187 0.768736 2.8187 2.8187 0.768736 2.8187 0.768736 5.38115 2.8187 5.38115 2.8187 7.43111 5.38115 7.43111 5.38115 5.38115 7.43111 5.38115 7.43111 2.8187 5.38115 2.8187 5.38115 0.768736 2.8187 0.768736" fill="#FFFFFF" transform="matrix(1 0 0 1.00002 167.943 44.0753)"/><path d="M2.8187 0.768736 2.8187 2.8187 0.768736 2.8187 0.768736 5.38115 2.8187 5.38115 2.8187 7.43111 5.38115 7.43111 5.38115 5.38115 7.43111 5.38115 7.43111 2.8187 5.38115 2.8187 5.38115 0.768736 2.8187 0.768736" stroke="#5A8C5A" stroke-width="0.5133" fill="none" transform="matrix(1 0 0 1.00002 167.943 44.0753)"/><path d="M1.79372 4.35617 1.79372 3.84368 6.40613 3.84368 6.40613 4.35617 1.79372 4.35617" fill="#5A8C5A" transform="matrix(1 0 0 1.00002 167.943 44.0753)"/><path d="M1.79372 4.35617 1.79372 3.84368 6.40613 3.84368 6.40613 4.35617 1.79372 4.35617" stroke="#5A8C5A" stroke-width="0.5133" fill="none" transform="matrix(1 0 0 1.00002 167.943 44.0753)"/><path d="M3.84368 1.79372 4.35617 1.79372 4.35617 6.40613 3.84368 6.40613 3.84368 1.79372" fill="#5A8C5A" transform="matrix(1 0 0 1.00002 167.943 44.0753)"/><path d="M3.84368 1.79372 4.35617 1.79372 4.35617 6.40613 3.84368 6.40613 3.84368 1.79372" stroke="#5A8C5A" stroke-width="0.5133" fill="none" transform="matrix(1 0 0 1.00002 167.943 44.0753)"/><path d="M-86.2692-13.6664 86.2692-13.6664 86.2692 13.6664-86.2692 13.6664Z" stroke="#EAE276" stroke-width="0.854151" stroke-linecap="square" stroke-linejoin="bevel" fill="#EEF283" fill-rule="evenodd" transform="matrix(1 0 0 1.00002 129.057 167.571)"/><text font-family="Verdana,Verdana_MSFontService,sans-serif" font-weight="400" font-size="12" transform="matrix(0.854151 0 0 0.854172 64.9954 171)">Large cities</text><path d="M2.8187 0.768736 2.8187 2.8187 0.768736 2.8187 0.768736 5.38115 2.8187 5.38115 2.8187 7.43111 5.38115 7.43111 5.38115 5.38115 7.43111 5.38115 7.43111 2.8187 5.38115 2.8187 5.38115 0.768736 2.8187 0.768736" fill="#FFFFFF" transform="matrix(1 0 0 1.00002 46.2041 160.738)"/><path d="M2.8187 0.768736 2.8187 2.8187 0.768736 2.8187 0.768736 5.38115 2.8187 5.38115 2.8187 7.43111 5.38115 7.43111 5.38115 5.38115 7.43111 5.38115 7.43111 2.8187 5.38115 2.8187 5.38115 0.768736 2.8187 0.768736" stroke="#5A8C5A" stroke-width="0.5133" fill="none" transform="matrix(1 0 0 1.00002 46.2041 160.738)"/><path d="M1.79372 4.35617 1.79372 3.84368 6.40613 3.84368 6.40613 4.35617 1.79372 4.35617" fill="#5A8C5A" transform="matrix(1 0 0 1.00002 46.2041 160.738)"/><path d="M1.79372 4.35617 1.79372 3.84368 6.40613 3.84368 6.40613 4.35617 1.79372 4.35617" stroke="#5A8C5A" stroke-width="0.5133" fill="none" transform="matrix(1 0 0 1.00002 46.2041 160.738)"/><path d="M3.84368 1.79372 4.35617 1.79372 4.35617 6.40613 3.84368 6.40613 3.84368 1.79372" fill="#5A8C5A" transform="matrix(1 0 0 1.00002 46.2041 160.738)"/><path d="M3.84368 1.79372 4.35617 1.79372 4.35617 6.40613 3.84368 6.40613 3.84368 1.79372" stroke="#5A8C5A" stroke-width="0.5133" fill="none" transform="matrix(1 0 0 1.00002 46.2041 160.738)"/><path d="M-86.2692-13.6664 86.2692-13.6664 86.2692 13.6664-86.2692 13.6664Z" stroke="#EAE276" stroke-width="0.854151" stroke-linecap="square" stroke-linejoin="bevel" fill="#EEF283" fill-rule="evenodd" transform="matrix(1 0 0 1.00002 232.399 293.392)"/><text font-family="Verdana,Verdana_MSFontService,sans-serif" font-weight="400" font-size="12" transform="matrix(0.854151 0 0 0.854172 168.337 297)">Medium cities</text><path d="M2.8187 0.768736 2.8187 2.8187 0.768736 2.8187 0.768736 5.38115 2.8187 5.38115 2.8187 7.43111 5.38115 7.43111 5.38115 5.38115 7.43111 5.38115 7.43111 2.8187 5.38115 2.8187 5.38115 0.768736 2.8187 0.768736" fill="#FFFFFF" transform="matrix(1 0 0 1.00002 149.546 286.558)"/><path d="M2.8187 0.768736 2.8187 2.8187 0.768736 2.8187 0.768736 5.38115 2.8187 5.38115 2.8187 7.43111 5.38115 7.43111 5.38115 5.38115 7.43111 5.38115 7.43111 2.8187 5.38115 2.8187 5.38115 0.768736 2.8187 0.768736" stroke="#5A8C5A" stroke-width="0.5133" fill="none" transform="matrix(1 0 0 1.00002 149.546 286.558)"/><path d="M1.79372 4.35617 1.79372 3.84368 6.40613 3.84368 6.40613 4.35617 1.79372 4.35617" fill="#5A8C5A" transform="matrix(1 0 0 1.00002 149.546 286.558)"/><path d="M1.79372 4.35617 1.79372 3.84368 6.40613 3.84368 6.40613 4.35617 1.79372 4.35617" stroke="#5A8C5A" stroke-width="0.5133" fill="none" transform="matrix(1 0 0 1.00002 149.546 286.558)"/><path d="M3.84368 1.79372 4.35617 1.79372 4.35617 6.40613 3.84368 6.40613 3.84368 1.79372" fill="#5A8C5A" transform="matrix(1 0 0 1.00002 149.546 286.558)"/><path d="M3.84368 1.79372 4.35617 1.79372 4.35617 6.40613 3.84368 6.40613 3.84368 1.79372" stroke="#5A8C5A" stroke-width="0.5133" fill="none" transform="matrix(1 0 0 1.00002 149.546 286.558)"/><path d="M-86.2692-13.6664 86.2692-13.6664 86.2692 13.6664-86.2692 13.6664Z" stroke="#EAE276" stroke-width="0.854151" stroke-linecap="square" stroke-linejoin="bevel" fill="#EEF283" fill-rule="evenodd" transform="matrix(1 0 0 1.00002 389.737 445.225)"/><text font-family="Verdana,Verdana_MSFontService,sans-serif" font-weight="400" font-size="12" transform="matrix(0.854151 0 0 0.854172 325.676 449)">Small cities</text><path d="M2.8187 0.768736 2.8187 2.8187 0.768736 2.8187 0.768736 5.38115 2.8187 5.38115 2.8187 7.43111 5.38115 7.43111 5.38115 5.38115 7.43111 5.38115 7.43111 2.8187 5.38115 2.8187 5.38115 0.768736 2.8187 0.768736" fill="#FFFFFF" transform="matrix(1 0 0 1.00002 306.885 438.392)"/><path d="M2.8187 0.768736 2.8187 2.8187 0.768736 2.8187 0.768736 5.38115 2.8187 5.38115 2.8187 7.43111 5.38115 7.43111 5.38115 5.38115 7.43111 5.38115 7.43111 2.8187 5.38115 2.8187 5.38115 0.768736 2.8187 0.768736" stroke="#5A8C5A" stroke-width="0.5133" fill="none" transform="matrix(1 0 0 1.00002 306.885 438.392)"/><path d="M1.79372 4.35617 1.79372 3.84368 6.40613 3.84368 6.40613 4.35617 1.79372 4.35617" fill="#5A8C5A" transform="matrix(1 0 0 1.00002 306.885 438.392)"/><path d="M1.79372 4.35617 1.79372 3.84368 6.40613 3.84368 6.40613 4.35617 1.79372 4.35617" stroke="#5A8C5A" stroke-width="0.5133" fill="none" transform="matrix(1 0 0 1.00002 306.885 438.392)"/><path d="M3.84368 1.79372 4.35617 1.79372 4.35617 6.40613 3.84368 6.40613 3.84368 1.79372" fill="#5A8C5A" transform="matrix(1 0 0 1.00002 306.885 438.392)"/><path d="M3.84368 1.79372 4.35617 1.79372 4.35617 6.40613 3.84368 6.40613 3.84368 1.79372" stroke="#5A8C5A" stroke-width="0.5133" fill="none" transform="matrix(1 0 0 1.00002 306.885 438.392)"/><path d="M-86.2692-13.6664 86.2692-13.6664 86.2692 13.6664-86.2692 13.6664Z" stroke="#EAE276" stroke-width="0.854151" stroke-linecap="square" stroke-linejoin="bevel" fill="#EEF283" fill-rule="evenodd" transform="matrix(1 0 0 1.00002 522.893 584.525)"/><text font-family="Verdana,Verdana_MSFontService,sans-serif" font-weight="400" font-size="12" transform="matrix(0.854151 0 0 0.854172 458.831 588)">Weights by City Level</text><path d="M2.8187 0.768736 2.8187 2.8187 0.768736 2.8187 0.768736 5.38115 2.8187 5.38115 2.8187 7.43111 5.38115 7.43111 5.38115 5.38115 7.43111 5.38115 7.43111 2.8187 5.38115 2.8187 5.38115 0.768736 2.8187 0.768736" fill="#FFFFFF" transform="matrix(1 0 0 1.00002 440.04 577.692)"/><path d="M2.8187 0.768736 2.8187 2.8187 0.768736 2.8187 0.768736 5.38115 2.8187 5.38115 2.8187 7.43111 5.38115 7.43111 5.38115 5.38115 7.43111 5.38115 7.43111 2.8187 5.38115 2.8187 5.38115 0.768736 2.8187 0.768736" stroke="#5A8C5A" stroke-width="0.5133" fill="none" transform="matrix(1 0 0 1.00002 440.04 577.692)"/><path d="M1.79372 4.35617 1.79372 3.84368 6.40613 3.84368 6.40613 4.35617 1.79372 4.35617" fill="#5A8C5A" transform="matrix(1 0 0 1.00002 440.04 577.692)"/><path d="M1.79372 4.35617 1.79372 3.84368 6.40613 3.84368 6.40613 4.35617 1.79372 4.35617" stroke="#5A8C5A" stroke-width="0.5133" fill="none" transform="matrix(1 0 0 1.00002 440.04 577.692)"/><path d="M3.84368 1.79372 4.35617 1.79372 4.35617 6.40613 3.84368 6.40613 3.84368 1.79372" fill="#5A8C5A" transform="matrix(1 0 0 1.00002 440.04 577.692)"/><path d="M3.84368 1.79372 4.35617 1.79372 4.35617 6.40613 3.84368 6.40613 3.84368 1.79372" stroke="#5A8C5A" stroke-width="0.5133" fill="none" transform="matrix(1 0 0 1.00002 440.04 577.692)"/><path d="M-86.2692-13.6664 86.2692-13.6664 86.2692 13.6664-86.2692 13.6664Z" stroke="#A0A0A4" stroke-width="0.854151" stroke-linecap="square" stroke-linejoin="bevel" fill="#FFFFFF" fill-rule="evenodd" transform="matrix(1 0 0 1.00002 406.606 213.026)"/><text font-family="Verdana,Verdana_MSFontService,sans-serif" font-weight="400" font-size="12" transform="matrix(0.854151 0 0 0.854172 342.545 216)">Res Dist to Largre City<tspan font-size="12" x="0" y="-30.4388">In</tspan><tspan font-size="12" x="0" y="26.9267">Out</tspan></text><path d="M3.81224 0.51249 3.53789 1.27576 3.54199 1.32018 3.67524 1.983 2.90309 2.30211 2.52897 1.73973 2.50027 1.70625 1.76638 1.35981 1.35981 1.76638 1.70625 2.50027 1.73973 2.52897 2.30211 2.90343 1.98265 3.6749 1.31983 3.54165 1.27542 3.53823 0.51249 3.81224 0.51249 4.3876 1.27576 4.66195 1.32018 4.65785 1.983 4.52461 2.30211 5.29676 1.73973 5.67088 1.70625 5.69958 1.35981 6.43346 1.76638 6.84004 2.50027 6.49359 2.52897 6.46011 2.90343 5.89774 3.6749 6.21719 3.54165 6.88001 3.53823 6.92443 3.81224 7.68735 4.3876 7.68735 4.66195 6.92409 4.65785 6.87967 4.52461 6.21685 5.29676 5.89774 5.67088 6.46011 5.69958 6.49359 6.43346 6.84004 6.84004 6.43346 6.49359 5.69958 6.46011 5.67088 5.89774 5.29642 6.21719 4.52495 6.88001 4.6582 6.92443 4.66161 7.68735 4.3876 7.68735 3.81224 6.92409 3.53789 6.87967 3.54199 6.21685 3.67524 5.89774 2.90309 6.46011 2.52897 6.49359 2.50027 6.84004 1.76638 6.43346 1.35981 5.69958 1.70625 5.67088 1.73973 5.29642 2.30211 4.52495 1.98265 4.6582 1.31983 4.66161 1.27542 4.3876 0.51249 3.81224 0.51249M4.09992 3.24577C4.57165 3.24577 4.95407 3.62819 4.95407 4.09992 4.95407 4.57165 4.57165 4.95407 4.09992 4.95407 3.62819 4.95407 3.24577 4.57165 3.24577 4.09992 3.24577 3.62819 3.62819 3.24577 4.09992 3.24577" fill="#98B5D8" transform="matrix(1 0 0 1.00002 323.754 206.193)"/><path d="M3.81224 0.51249 3.53789 1.27576 3.54199 1.32018 3.67524 1.983 2.90309 2.30211 2.52897 1.73973 2.50027 1.70625 1.76638 1.35981 1.35981 1.76638 1.70625 2.50027 1.73973 2.52897 2.30211 2.90343 1.98265 3.6749 1.31983 3.54165 1.27542 3.53823 0.51249 3.81224 0.51249 4.3876 1.27576 4.66195 1.32018 4.65785 1.983 4.52461 2.30211 5.29676 1.73973 5.67088 1.70625 5.69958 1.35981 6.43346 1.76638 6.84004 2.50027 6.49359 2.52897 6.46011 2.90343 5.89774 3.6749 6.21719 3.54165 6.88001 3.53823 6.92443 3.81224 7.68735 4.3876 7.68735 4.66195 6.92409 4.65785 6.87967 4.52461 6.21685 5.29676 5.89774 5.67088 6.46011 5.69958 6.49359 6.43346 6.84004 6.84004 6.43346 6.49359 5.69958 6.46011 5.67088 5.89774 5.29642 6.21719 4.52495 6.88001 4.6582 6.92443 4.66161 7.68735 4.3876 7.68735 3.81224 6.92409 3.53789 6.87967 3.54199 6.21685 3.67524 5.89774 2.90309 6.46011 2.52897 6.49359 2.50027 6.84004 1.76638 6.43346 1.35981 5.69958 1.70625 5.67088 1.73973 5.29642 2.30211 4.52495 1.98265 4.6582 1.31983 4.66161 1.27542 4.3876 0.51249 3.81224 0.51249M4.09992 3.24577C4.57165 3.24577 4.95407 3.62819 4.95407 4.09992 4.95407 4.57165 4.57165 4.95407 4.09992 4.95407 3.62819 4.95407 3.24577 4.57165 3.24577 4.09992 3.24577 3.62819 3.62819 3.24577 4.09992 3.24577" stroke="#457ABE" stroke-width="0.34166" fill="none" transform="matrix(1 0 0 1.00002 323.754 206.193)"/><path d="M-86.2692-13.6664 86.2692-13.6664 86.2692 13.6664-86.2692 13.6664Z" stroke="#A0A0A4" stroke-width="0.854151" stroke-linecap="square" stroke-linejoin="bevel" fill="#FFFFFF" fill-rule="evenodd" transform="matrix(1 0 0 1.00002 543.27 362.677)"/><text font-family="Verdana,Verdana_MSFontService,sans-serif" font-weight="400" font-size="12" transform="matrix(0.854151 0 0 0.854172 479.209 366)">Res Dist to Medium City<tspan font-size="12" x="0" y="-30.4388">In</tspan><tspan font-size="12" x="0" y="26.9267">Out</tspan></text><path d="M3.81224 0.51249 3.53789 1.27576 3.54199 1.32018 3.67524 1.983 2.90309 2.30211 2.52897 1.73973 2.50027 1.70625 1.76638 1.35981 1.35981 1.76638 1.70625 2.50027 1.73973 2.52897 2.30211 2.90343 1.98265 3.6749 1.31983 3.54165 1.27542 3.53823 0.51249 3.81224 0.51249 4.3876 1.27576 4.66195 1.32018 4.65785 1.983 4.52461 2.30211 5.29676 1.73973 5.67088 1.70625 5.69958 1.35981 6.43346 1.76638 6.84004 2.50027 6.49359 2.52897 6.46011 2.90343 5.89774 3.6749 6.21719 3.54165 6.88001 3.53823 6.92443 3.81224 7.68735 4.3876 7.68735 4.66195 6.92409 4.65785 6.87967 4.52461 6.21685 5.29676 5.89774 5.67088 6.46011 5.69958 6.49359 6.43346 6.84004 6.84004 6.43346 6.49359 5.69958 6.46011 5.67088 5.89774 5.29642 6.21719 4.52495 6.88001 4.6582 6.92443 4.66161 7.68735 4.3876 7.68735 3.81224 6.92409 3.53789 6.87967 3.54199 6.21685 3.67524 5.89774 2.90309 6.46011 2.52897 6.49359 2.50027 6.84004 1.76638 6.43346 1.35981 5.69958 1.70625 5.67088 1.73973 5.29642 2.30211 4.52495 1.98265 4.6582 1.31983 4.66161 1.27542 4.3876 0.51249 3.81224 0.51249M4.09992 3.24577C4.57165 3.24577 4.95407 3.62819 4.95407 4.09992 4.95407 4.57165 4.57165 4.95407 4.09992 4.95407 3.62819 4.95407 3.24577 4.57165 3.24577 4.09992 3.24577 3.62819 3.62819 3.24577 4.09992 3.24577" fill="#98B5D8" transform="matrix(1 0 0 1.00002 460.418 355.844)"/><path d="M3.81224 0.51249 3.53789 1.27576 3.54199 1.32018 3.67524 1.983 2.90309 2.30211 2.52897 1.73973 2.50027 1.70625 1.76638 1.35981 1.35981 1.76638 1.70625 2.50027 1.73973 2.52897 2.30211 2.90343 1.98265 3.6749 1.31983 3.54165 1.27542 3.53823 0.51249 3.81224 0.51249 4.3876 1.27576 4.66195 1.32018 4.65785 1.983 4.52461 2.30211 5.29676 1.73973 5.67088 1.70625 5.69958 1.35981 6.43346 1.76638 6.84004 2.50027 6.49359 2.52897 6.46011 2.90343 5.89774 3.6749 6.21719 3.54165 6.88001 3.53823 6.92443 3.81224 7.68735 4.3876 7.68735 4.66195 6.92409 4.65785 6.87967 4.52461 6.21685 5.29676 5.89774 5.67088 6.46011 5.69958 6.49359 6.43346 6.84004 6.84004 6.43346 6.49359 5.69958 6.46011 5.67088 5.89774 5.29642 6.21719 4.52495 6.88001 4.6582 6.92443 4.66161 7.68735 4.3876 7.68735 3.81224 6.92409 3.53789 6.87967 3.54199 6.21685 3.67524 5.89774 2.90309 6.46011 2.52897 6.49359 2.50027 6.84004 1.76638 6.43346 1.35981 5.69958 1.70625 5.67088 1.73973 5.29642 2.30211 4.52495 1.98265 4.6582 1.31983 4.66161 1.27542 4.3876 0.51249 3.81224 0.51249M4.09992 3.24577C4.57165 3.24577 4.95407 3.62819 4.95407 4.09992 4.95407 4.57165 4.57165 4.95407 4.09992 4.95407 3.62819 4.95407 3.24577 4.57165 3.24577 4.09992 3.24577 3.62819 3.62819 3.24577 4.09992 3.24577" stroke="#457ABE" stroke-width="0.34166" fill="none" transform="matrix(1 0 0 1.00002 460.418 355.844)"/><path d="M-86.2692-13.6664 86.2692-13.6664 86.2692 13.6664-86.2692 13.6664Z" stroke="#A0A0A4" stroke-width="0.854151" stroke-linecap="square" stroke-linejoin="bevel" fill="#FFFFFF" fill-rule="evenodd" transform="matrix(1 0 0 1.00002 682.668 510.961)"/><text font-family="Verdana,Verdana_MSFontService,sans-serif" font-weight="400" font-size="12" transform="matrix(0.854151 0 0 0.854172 618.606 514)">Res Dist to Small City<tspan font-size="12" x="0" y="-30.4388">In</tspan><tspan font-size="12" x="0" y="26.9267">Out</tspan></text><path d="M3.81224 0.51249 3.53789 1.27576 3.54199 1.32018 3.67524 1.983 2.90309 2.30211 2.52897 1.73973 2.50027 1.70625 1.76638 1.35981 1.35981 1.76638 1.70625 2.50027 1.73973 2.52897 2.30211 2.90343 1.98265 3.6749 1.31983 3.54165 1.27542 3.53823 0.51249 3.81224 0.51249 4.3876 1.27576 4.66195 1.32018 4.65785 1.983 4.52461 2.30211 5.29676 1.73973 5.67088 1.70625 5.69958 1.35981 6.43346 1.76638 6.84004 2.50027 6.49359 2.52897 6.46011 2.90343 5.89774 3.6749 6.21719 3.54165 6.88001 3.53823 6.92443 3.81224 7.68735 4.3876 7.68735 4.66195 6.92409 4.65785 6.87967 4.52461 6.21685 5.29676 5.89774 5.67088 6.46011 5.69958 6.49359 6.43346 6.84004 6.84004 6.43346 6.49359 5.69958 6.46011 5.67088 5.89774 5.29642 6.21719 4.52495 6.88001 4.6582 6.92443 4.66161 7.68735 4.3876 7.68735 3.81224 6.92409 3.53789 6.87967 3.54199 6.21685 3.67524 5.89774 2.90309 6.46011 2.52897 6.49359 2.50027 6.84004 1.76638 6.43346 1.35981 5.69958 1.70625 5.67088 1.73973 5.29642 2.30211 4.52495 1.98265 4.6582 1.31983 4.66161 1.27542 4.3876 0.51249 3.81224 0.51249M4.09992 3.24577C4.57165 3.24577 4.95407 3.62819 4.95407 4.09992 4.95407 4.57165 4.57165 4.95407 4.09992 4.95407 3.62819 4.95407 3.24577 4.57165 3.24577 4.09992 3.24577 3.62819 3.62819 3.24577 4.09992 3.24577" fill="#98B5D8" transform="matrix(1 0 0 1.00002 599.815 504.128)"/><path d="M3.81224 0.51249 3.53789 1.27576 3.54199 1.32018 3.67524 1.983 2.90309 2.30211 2.52897 1.73973 2.50027 1.70625 1.76638 1.35981 1.35981 1.76638 1.70625 2.50027 1.73973 2.52897 2.30211 2.90343 1.98265 3.6749 1.31983 3.54165 1.27542 3.53823 0.51249 3.81224 0.51249 4.3876 1.27576 4.66195 1.32018 4.65785 1.983 4.52461 2.30211 5.29676 1.73973 5.67088 1.70625 5.69958 1.35981 6.43346 1.76638 6.84004 2.50027 6.49359 2.52897 6.46011 2.90343 5.89774 3.6749 6.21719 3.54165 6.88001 3.53823 6.92443 3.81224 7.68735 4.3876 7.68735 4.66195 6.92409 4.65785 6.87967 4.52461 6.21685 5.29676 5.89774 5.67088 6.46011 5.69958 6.49359 6.43346 6.84004 6.84004 6.43346 6.49359 5.69958 6.46011 5.67088 5.89774 5.29642 6.21719 4.52495 6.88001 4.6582 6.92443 4.66161 7.68735 4.3876 7.68735 3.81224 6.92409 3.53789 6.87967 3.54199 6.21685 3.67524 5.89774 2.90309 6.46011 2.52897 6.49359 2.50027 6.84004 1.76638 6.43346 1.35981 5.69958 1.70625 5.67088 1.73973 5.29642 2.30211 4.52495 1.98265 4.6582 1.31983 4.66161 1.27542 4.3876 0.51249 3.81224 0.51249M4.09992 3.24577C4.57165 3.24577 4.95407 3.62819 4.95407 4.09992 4.95407 4.57165 4.57165 4.95407 4.09992 4.95407 3.62819 4.95407 3.24577 4.57165 3.24577 4.09992 3.24577 3.62819 3.62819 3.24577 4.09992 3.24577" stroke="#457ABE" stroke-width="0.34166" fill="none" transform="matrix(1 0 0 1.00002 599.815 504.128)"/><path d="M-86.2692-13.6664 86.2692-13.6664 86.2692 13.6664-86.2692 13.6664Z" stroke="#A0A0A4" stroke-width="0.854151" stroke-linecap="square" stroke-linejoin="bevel" fill="#FFFFFF" fill-rule="evenodd" transform="matrix(1 0 0 1.00002 407.973 148.792)"/><text font-family="Verdana,Verdana_MSFontService,sans-serif" font-weight="400" font-size="12" transform="matrix(0.854151 0 0 0.854172 343.911 152)">Distance to Large City<tspan font-size="12" x="0" y="-30.4388">In</tspan><tspan font-size="12" x="0" y="26.9267">Out</tspan></text><path d="M3.81224 0.51249 3.53789 1.27576 3.54199 1.32018 3.67524 1.983 2.90309 2.30211 2.52897 1.73973 2.50027 1.70625 1.76638 1.35981 1.35981 1.76638 1.70625 2.50027 1.73973 2.52897 2.30211 2.90343 1.98265 3.6749 1.31983 3.54165 1.27542 3.53823 0.51249 3.81224 0.51249 4.3876 1.27576 4.66195 1.32018 4.65785 1.983 4.52461 2.30211 5.29676 1.73973 5.67088 1.70625 5.69958 1.35981 6.43346 1.76638 6.84004 2.50027 6.49359 2.52897 6.46011 2.90343 5.89774 3.6749 6.21719 3.54165 6.88001 3.53823 6.92443 3.81224 7.68735 4.3876 7.68735 4.66195 6.92409 4.65785 6.87967 4.52461 6.21685 5.29676 5.89774 5.67088 6.46011 5.69958 6.49359 6.43346 6.84004 6.84004 6.43346 6.49359 5.69958 6.46011 5.67088 5.89774 5.29642 6.21719 4.52495 6.88001 4.6582 6.92443 4.66161 7.68735 4.3876 7.68735 3.81224 6.92409 3.53789 6.87967 3.54199 6.21685 3.67524 5.89774 2.90309 6.46011 2.52897 6.49359 2.50027 6.84004 1.76638 6.43346 1.35981 5.69958 1.70625 5.67088 1.73973 5.29642 2.30211 4.52495 1.98265 4.6582 1.31983 4.66161 1.27542 4.3876 0.51249 3.81224 0.51249M4.09992 3.24577C4.57165 3.24577 4.95407 3.62819 4.95407 4.09992 4.95407 4.57165 4.57165 4.95407 4.09992 4.95407 3.62819 4.95407 3.24577 4.57165 3.24577 4.09992 3.24577 3.62819 3.62819 3.24577 4.09992 3.24577" fill="#98B5D8" transform="matrix(1 0 0 1.00002 325.12 141.959)"/><path d="M3.81224 0.51249 3.53789 1.27576 3.54199 1.32018 3.67524 1.983 2.90309 2.30211 2.52897 1.73973 2.50027 1.70625 1.76638 1.35981 1.35981 1.76638 1.70625 2.50027 1.73973 2.52897 2.30211 2.90343 1.98265 3.6749 1.31983 3.54165 1.27542 3.53823 0.51249 3.81224 0.51249 4.3876 1.27576 4.66195 1.32018 4.65785 1.983 4.52461 2.30211 5.29676 1.73973 5.67088 1.70625 5.69958 1.35981 6.43346 1.76638 6.84004 2.50027 6.49359 2.52897 6.46011 2.90343 5.89774 3.6749 6.21719 3.54165 6.88001 3.53823 6.92443 3.81224 7.68735 4.3876 7.68735 4.66195 6.92409 4.65785 6.87967 4.52461 6.21685 5.29676 5.89774 5.67088 6.46011 5.69958 6.49359 6.43346 6.84004 6.84004 6.43346 6.49359 5.69958 6.46011 5.67088 5.89774 5.29642 6.21719 4.52495 6.88001 4.6582 6.92443 4.66161 7.68735 4.3876 7.68735 3.81224 6.92409 3.53789 6.87967 3.54199 6.21685 3.67524 5.89774 2.90309 6.46011 2.52897 6.49359 2.50027 6.84004 1.76638 6.43346 1.35981 5.69958 1.70625 5.67088 1.73973 5.29642 2.30211 4.52495 1.98265 4.6582 1.31983 4.66161 1.27542 4.3876 0.51249 3.81224 0.51249M4.09992 3.24577C4.57165 3.24577 4.95407 3.62819 4.95407 4.09992 4.95407 4.57165 4.57165 4.95407 4.09992 4.95407 3.62819 4.95407 3.24577 4.57165 3.24577 4.09992 3.24577 3.62819 3.62819 3.24577 4.09992 3.24577" stroke="#457ABE" stroke-width="0.34166" fill="none" transform="matrix(1 0 0 1.00002 325.12 141.959)"/><path d="M-86.2692-13.6664 86.2692-13.6664 86.2692 13.6664-86.2692 13.6664Z" stroke="#A0A0A4" stroke-width="0.854151" stroke-linecap="square" stroke-linejoin="bevel" fill="#FFFFFF" fill-rule="evenodd" transform="matrix(1 0 0 1.00002 543.27 293.66)"/><text font-family="Verdana,Verdana_MSFontService,sans-serif" font-weight="400" font-size="12" transform="matrix(0.854151 0 0 0.854172 479.209 297)">Distance to Medium City<tspan font-size="12" x="0" y="-30.4388">In</tspan><tspan font-size="12" x="0" y="26.9267">Out</tspan></text><path d="M3.81224 0.51249 3.53789 1.27576 3.54199 1.32018 3.67524 1.983 2.90309 2.30211 2.52897 1.73973 2.50027 1.70625 1.76638 1.35981 1.35981 1.76638 1.70625 2.50027 1.73973 2.52897 2.30211 2.90343 1.98265 3.6749 1.31983 3.54165 1.27542 3.53823 0.51249 3.81224 0.51249 4.3876 1.27576 4.66195 1.32018 4.65785 1.983 4.52461 2.30211 5.29676 1.73973 5.67088 1.70625 5.69958 1.35981 6.43346 1.76638 6.84004 2.50027 6.49359 2.52897 6.46011 2.90343 5.89774 3.6749 6.21719 3.54165 6.88001 3.53823 6.92443 3.81224 7.68735 4.3876 7.68735 4.66195 6.92409 4.65785 6.87967 4.52461 6.21685 5.29676 5.89774 5.67088 6.46011 5.69958 6.49359 6.43346 6.84004 6.84004 6.43346 6.49359 5.69958 6.46011 5.67088 5.89774 5.29642 6.21719 4.52495 6.88001 4.6582 6.92443 4.66161 7.68735 4.3876 7.68735 3.81224 6.92409 3.53789 6.87967 3.54199 6.21685 3.67524 5.89774 2.90309 6.46011 2.52897 6.49359 2.50027 6.84004 1.76638 6.43346 1.35981 5.69958 1.70625 5.67088 1.73973 5.29642 2.30211 4.52495 1.98265 4.6582 1.31983 4.66161 1.27542 4.3876 0.51249 3.81224 0.51249M4.09992 3.24577C4.57165 3.24577 4.95407 3.62819 4.95407 4.09992 4.95407 4.57165 4.57165 4.95407 4.09992 4.95407 3.62819 4.95407 3.24577 4.57165 3.24577 4.09992 3.24577 3.62819 3.62819 3.24577 4.09992 3.24577" fill="#98B5D8" transform="matrix(1 0 0 1.00002 460.418 286.827)"/><path d="M3.81224 0.51249 3.53789 1.27576 3.54199 1.32018 3.67524 1.983 2.90309 2.30211 2.52897 1.73973 2.50027 1.70625 1.76638 1.35981 1.35981 1.76638 1.70625 2.50027 1.73973 2.52897 2.30211 2.90343 1.98265 3.6749 1.31983 3.54165 1.27542 3.53823 0.51249 3.81224 0.51249 4.3876 1.27576 4.66195 1.32018 4.65785 1.983 4.52461 2.30211 5.29676 1.73973 5.67088 1.70625 5.69958 1.35981 6.43346 1.76638 6.84004 2.50027 6.49359 2.52897 6.46011 2.90343 5.89774 3.6749 6.21719 3.54165 6.88001 3.53823 6.92443 3.81224 7.68735 4.3876 7.68735 4.66195 6.92409 4.65785 6.87967 4.52461 6.21685 5.29676 5.89774 5.67088 6.46011 5.69958 6.49359 6.43346 6.84004 6.84004 6.43346 6.49359 5.69958 6.46011 5.67088 5.89774 5.29642 6.21719 4.52495 6.88001 4.6582 6.92443 4.66161 7.68735 4.3876 7.68735 3.81224 6.92409 3.53789 6.87967 3.54199 6.21685 3.67524 5.89774 2.90309 6.46011 2.52897 6.49359 2.50027 6.84004 1.76638 6.43346 1.35981 5.69958 1.70625 5.67088 1.73973 5.29642 2.30211 4.52495 1.98265 4.6582 1.31983 4.66161 1.27542 4.3876 0.51249 3.81224 0.51249M4.09992 3.24577C4.57165 3.24577 4.95407 3.62819 4.95407 4.09992 4.95407 4.57165 4.57165 4.95407 4.09992 4.95407 3.62819 4.95407 3.24577 4.57165 3.24577 4.09992 3.24577 3.62819 3.62819 3.24577 4.09992 3.24577" stroke="#457ABE" stroke-width="0.34166" fill="none" transform="matrix(1 0 0 1.00002 460.418 286.827)"/><path d="M-86.2692-13.6664 86.2692-13.6664 86.2692 13.6664-86.2692 13.6664Z" stroke="#A0A0A4" stroke-width="0.854151" stroke-linecap="square" stroke-linejoin="bevel" fill="#FFFFFF" fill-rule="evenodd" transform="matrix(1 0 0 1.00002 681.984 447.411)"/><text font-family="Verdana,Verdana_MSFontService,sans-serif" font-weight="400" font-size="12" transform="matrix(0.854151 0 0 0.854172 617.923 451)">Distance to Small City<tspan font-size="12" x="0" y="-30.4388">In</tspan><tspan font-size="12" x="0" y="25.7559">Out</tspan></text><path d="M3.81224 0.51249 3.53789 1.27576 3.54199 1.32018 3.67524 1.983 2.90309 2.30211 2.52897 1.73973 2.50027 1.70625 1.76638 1.35981 1.35981 1.76638 1.70625 2.50027 1.73973 2.52897 2.30211 2.90343 1.98265 3.6749 1.31983 3.54165 1.27542 3.53823 0.51249 3.81224 0.51249 4.3876 1.27576 4.66195 1.32018 4.65785 1.983 4.52461 2.30211 5.29676 1.73973 5.67088 1.70625 5.69958 1.35981 6.43346 1.76638 6.84004 2.50027 6.49359 2.52897 6.46011 2.90343 5.89774 3.6749 6.21719 3.54165 6.88001 3.53823 6.92443 3.81224 7.68735 4.3876 7.68735 4.66195 6.92409 4.65785 6.87967 4.52461 6.21685 5.29676 5.89774 5.67088 6.46011 5.69958 6.49359 6.43346 6.84004 6.84004 6.43346 6.49359 5.69958 6.46011 5.67088 5.89774 5.29642 6.21719 4.52495 6.88001 4.6582 6.92443 4.66161 7.68735 4.3876 7.68735 3.81224 6.92409 3.53789 6.87967 3.54199 6.21685 3.67524 5.89774 2.90309 6.46011 2.52897 6.49359 2.50027 6.84004 1.76638 6.43346 1.35981 5.69958 1.70625 5.67088 1.73973 5.29642 2.30211 4.52495 1.98265 4.6582 1.31983 4.66161 1.27542 4.3876 0.51249 3.81224 0.51249M4.09992 3.24577C4.57165 3.24577 4.95407 3.62819 4.95407 4.09992 4.95407 4.57165 4.57165 4.95407 4.09992 4.95407 3.62819 4.95407 3.24577 4.57165 3.24577 4.09992 3.24577 3.62819 3.62819 3.24577 4.09992 3.24577" fill="#98B5D8" transform="matrix(1 0 0 1.00002 599.132 440.577)"/><path d="M3.81224 0.51249 3.53789 1.27576 3.54199 1.32018 3.67524 1.983 2.90309 2.30211 2.52897 1.73973 2.50027 1.70625 1.76638 1.35981 1.35981 1.76638 1.70625 2.50027 1.73973 2.52897 2.30211 2.90343 1.98265 3.6749 1.31983 3.54165 1.27542 3.53823 0.51249 3.81224 0.51249 4.3876 1.27576 4.66195 1.32018 4.65785 1.983 4.52461 2.30211 5.29676 1.73973 5.67088 1.70625 5.69958 1.35981 6.43346 1.76638 6.84004 2.50027 6.49359 2.52897 6.46011 2.90343 5.89774 3.6749 6.21719 3.54165 6.88001 3.53823 6.92443 3.81224 7.68735 4.3876 7.68735 4.66195 6.92409 4.65785 6.87967 4.52461 6.21685 5.29676 5.89774 5.67088 6.46011 5.69958 6.49359 6.43346 6.84004 6.84004 6.43346 6.49359 5.69958 6.46011 5.67088 5.89774 5.29642 6.21719 4.52495 6.88001 4.6582 6.92443 4.66161 7.68735 4.3876 7.68735 3.81224 6.92409 3.53789 6.87967 3.54199 6.21685 3.67524 5.89774 2.90309 6.46011 2.52897 6.49359 2.50027 6.84004 1.76638 6.43346 1.35981 5.69958 1.70625 5.67088 1.73973 5.29642 2.30211 4.52495 1.98265 4.6582 1.31983 4.66161 1.27542 4.3876 0.51249 3.81224 0.51249M4.09992 3.24577C4.57165 3.24577 4.95407 3.62819 4.95407 4.09992 4.95407 4.57165 4.57165 4.95407 4.09992 4.95407 3.62819 4.95407 3.24577 4.57165 3.24577 4.09992 3.24577 3.62819 3.62819 3.24577 4.09992 3.24577" stroke="#457ABE" stroke-width="0.34166" fill="none" transform="matrix(1 0 0 1.00002 599.132 440.577)"/><path d="M-86.2692-13.6664 86.2692-13.6664 86.2692 13.6664-86.2692 13.6664Z" stroke="#A0A0A4" stroke-width="0.854151" stroke-linecap="square" stroke-linejoin="bevel" fill="#FFFFFF" fill-rule="evenodd" transform="matrix(1 0 0 1.00002 829.581 616.195)"/><text font-family="Verdana,Verdana_MSFontService,sans-serif" font-weight="400" font-size="12" transform="matrix(0.854151 0 0 0.854172 765.52 620)">Weighted Sum of Fields<tspan font-size="12" x="0" y="-31.6096">In</tspan><tspan font-size="12" x="0" y="25.7559">Out</tspan></text><path d="M3.81224 0.51249 3.53789 1.27576 3.54199 1.32018 3.67524 1.983 2.90309 2.30211 2.52897 1.73973 2.50027 1.70625 1.76638 1.35981 1.35981 1.76638 1.70625 2.50027 1.73973 2.52897 2.30211 2.90343 1.98265 3.6749 1.31983 3.54165 1.27542 3.53823 0.51249 3.81224 0.51249 4.3876 1.27576 4.66195 1.32018 4.65785 1.983 4.52461 2.30211 5.29676 1.73973 5.67088 1.70625 5.69958 1.35981 6.43346 1.76638 6.84004 2.50027 6.49359 2.52897 6.46011 2.90343 5.89774 3.6749 6.21719 3.54165 6.88001 3.53823 6.92443 3.81224 7.68735 4.3876 7.68735 4.66195 6.92409 4.65785 6.87967 4.52461 6.21685 5.29676 5.89774 5.67088 6.46011 5.69958 6.49359 6.43346 6.84004 6.84004 6.43346 6.49359 5.69958 6.46011 5.67088 5.89774 5.29642 6.21719 4.52495 6.88001 4.6582 6.92443 4.66161 7.68735 4.3876 7.68735 3.81224 6.92409 3.53789 6.87967 3.54199 6.21685 3.67524 5.89774 2.90309 6.46011 2.52897 6.49359 2.50027 6.84004 1.76638 6.43346 1.35981 5.69958 1.70625 5.67088 1.73973 5.29642 2.30211 4.52495 1.98265 4.6582 1.31983 4.66161 1.27542 4.3876 0.51249 3.81224 0.51249M4.09992 3.24577C4.57165 3.24577 4.95407 3.62819 4.95407 4.09992 4.95407 4.57165 4.57165 4.95407 4.09992 4.95407 3.62819 4.95407 3.24577 4.57165 3.24577 4.09992 3.24577 3.62819 3.62819 3.24577 4.09992 3.24577" fill="#98B5D8" transform="matrix(1 0 0 1.00002 746.729 609.362)"/><path d="M3.81224 0.51249 3.53789 1.27576 3.54199 1.32018 3.67524 1.983 2.90309 2.30211 2.52897 1.73973 2.50027 1.70625 1.76638 1.35981 1.35981 1.76638 1.70625 2.50027 1.73973 2.52897 2.30211 2.90343 1.98265 3.6749 1.31983 3.54165 1.27542 3.53823 0.51249 3.81224 0.51249 4.3876 1.27576 4.66195 1.32018 4.65785 1.983 4.52461 2.30211 5.29676 1.73973 5.67088 1.70625 5.69958 1.35981 6.43346 1.76638 6.84004 2.50027 6.49359 2.52897 6.46011 2.90343 5.89774 3.6749 6.21719 3.54165 6.88001 3.53823 6.92443 3.81224 7.68735 4.3876 7.68735 4.66195 6.92409 4.65785 6.87967 4.52461 6.21685 5.29676 5.89774 5.67088 6.46011 5.69958 6.49359 6.43346 6.84004 6.84004 6.43346 6.49359 5.69958 6.46011 5.67088 5.89774 5.29642 6.21719 4.52495 6.88001 4.6582 6.92443 4.66161 7.68735 4.3876 7.68735 3.81224 6.92409 3.53789 6.87967 3.54199 6.21685 3.67524 5.89774 2.90309 6.46011 2.52897 6.49359 2.50027 6.84004 1.76638 6.43346 1.35981 5.69958 1.70625 5.67088 1.73973 5.29642 2.30211 4.52495 1.98265 4.6582 1.31983 4.66161 1.27542 4.3876 0.51249 3.81224 0.51249M4.09992 3.24577C4.57165 3.24577 4.95407 3.62819 4.95407 4.09992 4.95407 4.57165 4.57165 4.95407 4.09992 4.95407 3.62819 4.95407 3.24577 4.57165 3.24577 4.09992 3.24577 3.62819 3.62819 3.24577 4.09992 3.24577" stroke="#457ABE" stroke-width="0.34166" fill="none" transform="matrix(1 0 0 1.00002 746.729 609.362)"/><path d="M-86.2692-13.6664 86.2692-13.6664 86.2692 13.6664-86.2692 13.6664Z" stroke="#5A8C5A" stroke-width="0.854151" stroke-linecap="square" stroke-linejoin="bevel" fill="#ACC472" fill-rule="evenodd" transform="matrix(1 0 0 1.00002 994.943 688.8)"/><text font-family="Verdana,Verdana_MSFontService,sans-serif" font-weight="400" font-size="12" transform="matrix(0.854151 0 0 0.854172 930.882 692)">rcrp<tspan font-size="12" x="24" y="0">_</tspan><tspan font-size="12" x="32" y="0">Market</tspan></text><path d="M0 2.56245 4.09992 2.56245 4.09992 0 8.19985 4.09992 4.09992 8.19985 4.09992 5.63739 0 5.63739 0 2.56245" fill="#5A8C5A" transform="matrix(1 0 0 1.00002 912.091 681.966)"/><path d="M0.51249 5.1249 0.51249 3.07494 4.61241 3.07494 4.61241 1.28123 7.43111 4.09992 4.61241 6.91862 4.61241 5.1249 0.51249 5.1249" fill="#FFFFFF" transform="matrix(1 0 0 1.00002 912.091 681.966)"/><path d="M1.02498 3.58743 1.02498 4.61241 5.1249 4.61241 5.1249 5.63739 6.81612 4.09992 5.1249 2.56245 5.1249 3.58743 1.02498 3.58743" fill="#5A8C5A" transform="matrix(1 0 0 1.00002 912.091 681.966)"/></g></g></g><text font-family="Calibri,Calibri_MSFontService,sans-serif" font-weight="400" font-size="19" transform="translate(707.483 335)">Distance to Middle City<tspan font-size="19" x="-138.005" y="-146">Distance to Large City</tspan><tspan font-size="15" x="302.709" y="-266">Input V</tspan><tspan font-size="15" x="345.876" y="-266">ector Layer</tspan></text><path d="M185.5 168 193 160.5 200.5 168 193 175.5Z" stroke="#507E32" stroke-width="1.33333" stroke-miterlimit="8" fill="#0D0D0D" fill-rule="evenodd"/><path d="M445.5 445.5 453 437.5 460.5 445.5 453 453.5Z" stroke="#507E32" stroke-width="1.33333" stroke-miterlimit="8" fill="#0D0D0D" fill-rule="evenodd"/><path d="M292.5 295 300 287.5 307.5 295 300 302.5Z" stroke="#507E32" stroke-width="1.33333" stroke-miterlimit="8" fill="#0D0D0D" fill-rule="evenodd"/><path d="M307.5 51.0001 314.5 43.5001 321.5 51.0001 314.5 58.5001Z" stroke="#507E32" stroke-width="1.33333" stroke-miterlimit="8" fill="#0D0D0D" fill-rule="evenodd"/><path d="M985.5 63.0001 992.5 55.5001 999.5 63.0001 992.5 70.5001Z" stroke="#507E32" stroke-width="1.33333" stroke-miterlimit="8" fill="#0D0D0D" fill-rule="evenodd"/><path d="M985.5 88.0001 992.5 80.5001 999.5 88.0001 992.5 95.5001Z" stroke="#C00000" stroke-width="1.33333" stroke-miterlimit="8" fill="#FF00FF" fill-rule="evenodd"/><text font-family="Calibri,Calibri_MSFontService,sans-serif" font-weight="400" font-size="15" transform="translate(1010.19 92)">I<tspan font-size="15" x="3.66669" y="0">nput </tspan><tspan font-size="15" x="34.8334" y="0">String</tspan></text><path d="M582.5 585 590 577.5 597.5 585 590 592.5Z" stroke="#C00000" stroke-width="1.33333" stroke-miterlimit="8" fill="#FF00FF" fill-rule="evenodd"/><path d="M983.5 121.5 992 107.5 1000.5 121.5Z" stroke="#AE5A21" stroke-width="1.33333" stroke-miterlimit="8" fill="#ED7D31" fill-rule="evenodd"/><text font-family="Calibri,Calibri_MSFontService,sans-serif" font-weight="400" font-size="15" transform="translate(1010.21 118)">Distance to Point Features Process</text><path d="M471.5 156.5 480 142.5 488.5 156.5Z" stroke="#AE5A21" stroke-width="1.33333" stroke-miterlimit="8" fill="#ED7D31" fill-rule="evenodd"/><path d="M607.5 300.5 615.5 286.5 623.5 300.5Z" stroke="#AE5A21" stroke-width="1.33333" stroke-miterlimit="8" fill="#ED7D31" fill-rule="evenodd"/><path d="M748.5 455.5 757 440.5 765.5 455.5Z" stroke="#AE5A21" stroke-width="1.33333" stroke-miterlimit="8" fill="#ED7D31" fill-rule="evenodd"/><path d="M983.5 140C983.5 135.858 987.082 132.5 991.5 132.5 995.918 132.5 999.5 135.858 999.5 140 999.5 144.142 995.918 147.5 991.5 147.5 987.082 147.5 983.5 144.142 983.5 140Z" stroke="#BC8C00" stroke-width="1.33333" stroke-miterlimit="8" fill="#FFC000" fill-rule="evenodd"/><text font-family="Calibri,Calibri_MSFontService,sans-serif" font-weight="400" font-size="15" transform="translate(1010.12 145)">Rescale Field Linearly Process</text><path d="M472.5 212.5C472.5 208.634 476.082 205.5 480.5 205.5 484.918 205.5 488.5 208.634 488.5 212.5 488.5 216.366 484.918 219.5 480.5 219.5 476.082 219.5 472.5 216.366 472.5 212.5Z" stroke="#BC8C00" stroke-width="1.33333" stroke-miterlimit="8" fill="#FFC000" fill-rule="evenodd"/><path d="M608.5 364.5C608.5 360.634 611.858 357.5 616 357.5 620.142 357.5 623.5 360.634 623.5 364.5 623.5 368.366 620.142 371.5 616 371.5 611.858 371.5 608.5 368.366 608.5 364.5Z" stroke="#BC8C00" stroke-width="1.33333" stroke-miterlimit="8" fill="#FFC000" fill-rule="evenodd"/><path d="M749.5 511.5C749.5 507.634 753.082 504.5 757.5 504.5 761.918 504.5 765.5 507.634 765.5 511.5 765.5 515.366 761.918 518.5 757.5 518.5 753.082 518.5 749.5 515.366 749.5 511.5Z" stroke="#BC8C00" stroke-width="1.33333" stroke-miterlimit="8" fill="#FFC000" fill-rule="evenodd"/><path d="M983.5 162.848 992 157.5 1000.5 162.848 997.253 171.5 986.747 171.5Z" stroke="#2F528F" stroke-width="1.33333" stroke-miterlimit="8" fill="#00B0F0" fill-rule="evenodd"/><text font-family="Calibri,Calibri_MSFontService,sans-serif" font-weight="400" font-size="15" transform="translate(1009.58 170)">Weighted Sum of Fields Process</text><path d="M893.5 613.848 902.5 608.5 911.5 613.848 908.062 622.5 896.938 622.5Z" stroke="#2F528F" stroke-width="1.33333" stroke-miterlimit="8" fill="#00B0F0" fill-rule="evenodd"/><path d="M982.5 187.848 988.994 187.848 991 182.5 993.007 187.848 999.5 187.848 994.247 191.152 996.253 196.5 991 193.195 985.747 196.5 987.753 191.152Z" stroke="#C00000" stroke-width="1.33333" stroke-miterlimit="8" fill="#FF0000" fill-rule="evenodd"/><text font-family="Calibri,Calibri_MSFontService,sans-serif" font-weight="400" font-size="15" transform="translate(1008.96 194)">Output</text><path d="M1057.5 685.848 1064.38 685.848 1066.5 680.5 1068.62 685.848 1075.5 685.848 1069.94 689.153 1072.06 694.5 1066.5 691.195 1060.94 694.5 1063.06 689.153Z" stroke="#C00000" stroke-width="1.33333" stroke-miterlimit="8" fill="#FF0000" fill-rule="evenodd"/><path d="M652.5 270.5C664.098 270.5 673.5 272.067 673.5 274L673.5 326.5C673.5 328.433 682.902 330 694.5 330 682.902 330 673.5 331.567 673.5 333.5L673.5 386C673.5 387.933 664.098 389.5 652.5 389.5" stroke="#4472C4" stroke-width="0.666667" stroke-miterlimit="8" fill="none" fill-rule="evenodd"/><path d="M793.5 422.5C805.098 422.5 814.5 424.067 814.5 426L814.5 478C814.5 479.933 823.902 481.5 835.5 481.5 823.902 481.5 814.5 483.067 814.5 485L814.5 537C814.5 538.933 805.098 540.5 793.5 540.5" stroke="#4472C4" stroke-width="0.666667" stroke-miterlimit="8" fill="none" fill-rule="evenodd"/><text font-family="Calibri,Calibri_MSFontService,sans-serif" font-weight="400" font-size="19" transform="translate(848.018 486)">Distance to Small City</text><path d="M933.5 587.5C942.06 587.5 949 588.657 949 590.083L949 612.917C949 614.344 955.94 615.5 964.5 615.5 955.94 615.5 949 616.657 949 618.083L949 640.917C949 642.344 942.06 643.5 933.5 643.5" stroke="#4472C4" stroke-width="0.666667" stroke-miterlimit="8" fill="none" fill-rule="evenodd"/><text font-family="Calibri,Calibri_MSFontService,sans-serif" font-weight="400" font-size="19" transform="translate(977.887 620)">Aggregation</text><path d="M514.5 124.5C526.098 124.5 535.5 126.067 535.5 128L535.5 180C535.5 181.933 544.902 183.5 556.5 183.5 544.902 183.5 535.5 185.067 535.5 187L535.5 239C535.5 240.933 526.098 242.5 514.5 242.5" stroke="#4472C4" stroke-width="0.666667" stroke-miterlimit="8" fill="none" fill-rule="evenodd"/></g></svg>