<svg width="1202" height="649" xmlns="http://www.w3.org/2000/svg" xmlns:xlink="http://www.w3.org/1999/xlink" overflow="hidden"><defs><clipPath id="clip0"><rect x="73" y="28" width="1202" height="649"/></clipPath></defs><g clip-path="url(#clip0)" transform="translate(-73 -28)"><text font-family="Calibri,Calibri_MSFontService,sans-serif" font-weight="400" font-size="19" transform="translate(574.744 134)">Distance to Large City</text><path d="M428.492 163.426C428.492 165.082 427.373 166.426 425.992 166.426 424.611 166.426 423.492 165.082 423.492 163.426 423.492 161.769 424.611 160.425 425.992 160.425 427.373 160.425 428.492 161.769 428.492 163.426Z" stroke="#000000" stroke-width="0.950026" stroke-linecap="round" stroke-linejoin="round" stroke-miterlimit="10" stroke-opacity="0.309804" fill="#000000" fill-rule="evenodd" fill-opacity="0.309804"/><path d="M343.491 179.426C343.491 181.082 342.147 182.426 340.491 182.426 338.834 182.426 337.491 181.082 337.491 179.426 337.491 177.769 338.834 176.425 340.491 176.425 342.147 176.425 343.491 177.769 343.491 179.426Z" stroke="#000000" stroke-width="0.950026" stroke-linecap="round" stroke-linejoin="round" stroke-miterlimit="10" stroke-opacity="0.309804" fill="#000000" fill-rule="evenodd" fill-opacity="0.309804"/><path d="M426.562 164.428C489.948 164.428 277.034 180.428 340.42 180.428" stroke="#000000" stroke-width="0.950026" stroke-linecap="round" stroke-linejoin="round" stroke-miterlimit="10" stroke-opacity="0.309804" fill="none" fill-rule="evenodd"/><path d="M553.491 325.938C553.491 327.319 552.147 328.438 550.49 328.438 548.834 328.438 547.491 327.319 547.491 325.938 547.491 324.557 548.834 323.438 550.49 323.438 552.147 323.438 553.491 324.557 553.491 325.938Z" stroke="#000000" stroke-width="0.950026" stroke-linecap="round" stroke-linejoin="round" stroke-miterlimit="10" stroke-opacity="0.309804" fill="#000000" fill-rule="evenodd" fill-opacity="0.309804"/><path d="M466.491 347.938C466.491 349.319 465.147 350.438 463.491 350.438 461.834 350.438 460.491 349.319 460.491 347.938 460.491 346.557 461.834 345.438 463.491 345.438 465.147 345.438 466.491 346.557 466.491 347.938Z" stroke="#000000" stroke-width="0.950026" stroke-linecap="round" stroke-linejoin="round" stroke-miterlimit="10" stroke-opacity="0.309804" fill="#000000" fill-rule="evenodd" fill-opacity="0.309804"/><path d="M550.672 326.429C613.664 326.429 401.318 348.429 464.31 348.429" stroke="#000000" stroke-width="0.950026" stroke-linecap="round" stroke-linejoin="round" stroke-miterlimit="10" stroke-opacity="0.309804" fill="none" fill-rule="evenodd"/><path d="M637.491 485.426C637.491 487.082 636.147 488.426 634.49 488.426 632.834 488.426 631.491 487.082 631.491 485.426 631.491 483.769 632.834 482.425 634.49 482.425 636.147 482.425 637.491 483.769 637.491 485.426Z" stroke="#000000" stroke-width="0.950026" stroke-linecap="round" stroke-linejoin="round" stroke-miterlimit="10" stroke-opacity="0.309804" fill="#000000" fill-rule="evenodd" fill-opacity="0.309804"/><path d="M550.491 500.426C550.491 502.082 549.147 503.426 547.49 503.426 545.834 503.426 544.491 502.082 544.491 500.426 544.491 498.769 545.834 497.425 547.49 497.425 549.147 497.425 550.491 498.769 550.491 500.426Z" stroke="#000000" stroke-width="0.950026" stroke-linecap="round" stroke-linejoin="round" stroke-miterlimit="10" stroke-opacity="0.309804" fill="#000000" fill-rule="evenodd" fill-opacity="0.309804"/><path d="M634.562 485.428C697.948 485.428 485.034 501.428 548.42 501.428" stroke="#000000" stroke-width="0.950026" stroke-linecap="round" stroke-linejoin="round" stroke-miterlimit="10" stroke-opacity="0.309804" fill="none" fill-rule="evenodd"/><path d="M340.491 109.426C340.491 111.082 339.147 112.426 337.491 112.426 335.834 112.426 334.491 111.082 334.491 109.426 334.491 107.769 335.834 106.425 337.491 106.425 339.147 106.425 340.491 107.769 340.491 109.426Z" stroke="#000000" stroke-width="0.950026" stroke-linecap="round" stroke-linejoin="round" stroke-miterlimit="10" stroke-opacity="0.309804" fill="#000000" fill-rule="evenodd" fill-opacity="0.309804"/><path d="M173.491 52.4289C236.777 52.4289 275.205 109.429 338.491 109.429" stroke="#000000" stroke-width="0.950026" stroke-linecap="round" stroke-linejoin="round" stroke-miterlimit="10" stroke-opacity="0.309804" fill="none" fill-rule="evenodd"/><path d="M340.491 109.426C340.491 111.082 339.147 112.426 337.491 112.426 335.834 112.426 334.491 111.082 334.491 109.426 334.491 107.769 335.834 106.425 337.491 106.425 339.147 106.425 340.491 107.769 340.491 109.426Z" stroke="#000000" stroke-width="0.950026" stroke-linecap="round" stroke-linejoin="round" stroke-miterlimit="10" stroke-opacity="0.309804" fill="#000000" fill-rule="evenodd" fill-opacity="0.309804"/><path d="M170.491 164.429C234.004 164.429 274.978 109.429 338.491 109.429" stroke="#000000" stroke-width="0.950026" stroke-linecap="round" stroke-linejoin="round" stroke-miterlimit="10" stroke-opacity="0.309804" fill="none" fill-rule="evenodd"/><path d="M431.492 234.426C431.492 236.082 430.373 237.426 428.992 237.426 427.611 237.426 426.492 236.082 426.492 234.426 426.492 232.769 427.611 231.425 428.992 231.425 430.373 231.425 431.492 232.769 431.492 234.426Z" stroke="#000000" stroke-width="0.950026" stroke-linecap="round" stroke-linejoin="round" stroke-miterlimit="10" stroke-opacity="0.309804" fill="#000000" fill-rule="evenodd" fill-opacity="0.309804"/><path d="M465.491 270.938C465.491 272.319 464.147 273.438 462.491 273.438 460.834 273.438 459.491 272.319 459.491 270.938 459.491 269.557 460.834 268.438 462.491 268.438 464.147 268.438 465.491 269.557 465.491 270.938Z" stroke="#000000" stroke-width="0.950026" stroke-linecap="round" stroke-linejoin="round" stroke-miterlimit="10" stroke-opacity="0.309804" fill="#000000" fill-rule="evenodd" fill-opacity="0.309804"/><path d="M429.491 235.43C492.349 235.43 399.633 271.43 462.491 271.43" stroke="#000000" stroke-width="0.950026" stroke-linecap="round" stroke-linejoin="round" stroke-miterlimit="10" stroke-opacity="0.309804" fill="none" fill-rule="evenodd"/><path d="M465.491 270.938C465.491 272.319 464.147 273.438 462.491 273.438 460.834 273.438 459.491 272.319 459.491 270.938 459.491 269.557 460.834 268.438 462.491 268.438 464.147 268.438 465.491 269.557 465.491 270.938Z" stroke="#000000" stroke-width="0.950026" stroke-linecap="round" stroke-linejoin="round" stroke-miterlimit="10" stroke-opacity="0.309804" fill="#000000" fill-rule="evenodd" fill-opacity="0.309804"/><path d="M249.491 312.43C312.841 312.43 399.141 271.429 462.491 271.429" stroke="#000000" stroke-width="0.950026" stroke-linecap="round" stroke-linejoin="round" stroke-miterlimit="10" stroke-opacity="0.309804" fill="none" fill-rule="evenodd"/><path d="M554.491 402.938C554.491 404.319 553.147 405.438 551.49 405.438 549.834 405.438 548.491 404.319 548.491 402.938 548.491 401.557 549.834 400.438 551.49 400.438 553.147 400.438 554.491 401.557 554.491 402.938Z" stroke="#000000" stroke-width="0.950026" stroke-linecap="round" stroke-linejoin="round" stroke-miterlimit="10" stroke-opacity="0.309804" fill="#000000" fill-rule="evenodd" fill-opacity="0.309804"/><path d="M548.492 430.426C548.492 432.082 547.373 433.426 545.992 433.426 544.611 433.426 543.492 432.082 543.492 430.426 543.492 428.769 544.611 427.425 545.992 427.425 547.373 427.425 548.492 428.769 548.492 430.426Z" stroke="#000000" stroke-width="0.950026" stroke-linecap="round" stroke-linejoin="round" stroke-miterlimit="10" stroke-opacity="0.309804" fill="#000000" fill-rule="evenodd" fill-opacity="0.309804"/><path d="M552.092 402.429C614.739 402.429 483.243 430.429 545.89 430.429" stroke="#000000" stroke-width="0.950026" stroke-linecap="round" stroke-linejoin="round" stroke-miterlimit="10" stroke-opacity="0.309804" fill="none" fill-rule="evenodd"/><path d="M548.492 430.426C548.492 432.082 547.373 433.426 545.992 433.426 544.611 433.426 543.492 432.082 543.492 430.426 543.492 428.769 544.611 427.425 545.992 427.425 547.373 427.425 548.492 428.769 548.492 430.426Z" stroke="#000000" stroke-width="0.950026" stroke-linecap="round" stroke-linejoin="round" stroke-miterlimit="10" stroke-opacity="0.309804" fill="#000000" fill-rule="evenodd" fill-opacity="0.309804"/><path d="M343.491 475.429C407.103 475.429 482.879 430.429 546.491 430.429" stroke="#000000" stroke-width="0.950026" stroke-linecap="round" stroke-linejoin="round" stroke-miterlimit="10" stroke-opacity="0.309804" fill="none" fill-rule="evenodd"/><path d="M639.491 555.938C639.491 557.319 638.147 558.438 636.49 558.438 634.834 558.438 633.491 557.319 633.491 555.938 633.491 554.557 634.834 553.438 636.49 553.438 638.147 553.438 639.491 554.557 639.491 555.938Z" stroke="#000000" stroke-width="0.950026" stroke-linecap="round" stroke-linejoin="round" stroke-miterlimit="10" stroke-opacity="0.309804" fill="#000000" fill-rule="evenodd" fill-opacity="0.309804"/><path d="M662.492 588.426C662.492 590.082 661.373 591.426 659.992 591.426 658.611 591.426 657.492 590.082 657.492 588.426 657.492 586.769 658.611 585.425 659.992 585.425 661.373 585.425 662.492 586.769 662.492 588.426Z" stroke="#000000" stroke-width="0.950026" stroke-linecap="round" stroke-linejoin="round" stroke-miterlimit="10" stroke-opacity="0.309804" fill="#000000" fill-rule="evenodd" fill-opacity="0.309804"/><path d="M636.491 556.43C699.484 556.43 597.498 588.43 660.491 588.43" stroke="#000000" stroke-width="0.950026" stroke-linecap="round" stroke-linejoin="round" stroke-miterlimit="10" stroke-opacity="0.309804" fill="none" fill-rule="evenodd"/><path d="M662.492 588.426C662.492 590.082 661.373 591.426 659.992 591.426 658.611 591.426 657.492 590.082 657.492 588.426 657.492 586.769 658.611 585.425 659.992 585.425 661.373 585.425 662.492 586.769 662.492 588.426Z" stroke="#000000" stroke-width="0.950026" stroke-linecap="round" stroke-linejoin="round" stroke-miterlimit="10" stroke-opacity="0.309804" fill="#000000" fill-rule="evenodd" fill-opacity="0.309804"/><path d="M450.491 623.428C513.88 623.428 597.101 588.428 660.491 588.428" stroke="#000000" stroke-width="0.950026" stroke-linecap="round" stroke-linejoin="round" stroke-miterlimit="10" stroke-opacity="0.309804" fill="none" fill-rule="evenodd"/><path d="M751.491 643.426C751.491 645.082 750.147 646.426 748.49 646.426 746.834 646.426 745.491 645.082 745.491 643.426 745.491 641.769 746.834 640.425 748.49 640.425 750.147 640.425 751.491 641.769 751.491 643.426Z" stroke="#000000" stroke-width="0.950026" stroke-linecap="round" stroke-linejoin="round" stroke-miterlimit="10" stroke-opacity="0.309804" fill="#000000" fill-rule="evenodd" fill-opacity="0.309804"/><path d="M860.491 660.426C860.491 662.082 859.147 663.426 857.49 663.426 855.834 663.426 854.491 662.082 854.491 660.426 854.491 658.769 855.834 657.425 857.49 657.425 859.147 657.425 860.491 658.769 860.491 660.426Z" stroke="#000000" stroke-width="0.950026" stroke-linecap="round" stroke-linejoin="round" stroke-miterlimit="10" stroke-opacity="0.309804" fill="#000000" fill-rule="evenodd" fill-opacity="0.309804"/><path d="M749.491 643.43C812.68 643.43 795.302 660.43 858.491 660.43" stroke="#000000" stroke-width="0.950026" stroke-linecap="round" stroke-linejoin="round" stroke-miterlimit="10" stroke-opacity="0.309804" fill="none" fill-rule="evenodd"/><path d="M77.512 37.5063 269.512 37.5063 269.512 67.5063 77.512 67.5063Z" stroke="#EAE276" stroke-width="0.950026" stroke-linecap="square" stroke-linejoin="bevel" stroke-miterlimit="10" fill="#EEF283" fill-rule="evenodd"/><text font-family="Verdana,Verdana_MSFontService,sans-serif" font-weight="400" font-size="11" transform="translate(101.478 56)">InputPolygon</text><path d="M83.4631 45.0054 83.4631 47.467 81.0015 47.467 81.0015 50.544 83.4631 50.544 83.4631 53.0056 86.5401 53.0056 86.5401 50.544 89.0016 50.544 89.0016 47.467 86.5401 47.467 86.5401 45.0054 83.4631 45.0054" fill="#FFFFFF" fill-rule="evenodd"/><path d="M83.9631 45.5055 83.9631 47.967 81.5015 47.967 81.5015 51.0441 83.9631 51.0441 83.9631 53.5056 87.0401 53.5056 87.0401 51.0441 89.5016 51.0441 89.5016 47.967 87.0401 47.967 87.0401 45.5055 83.9631 45.5055" stroke="#5A8C5A" stroke-width="0.570919" stroke-miterlimit="8" fill="none" fill-rule="evenodd"/><path d="M83.0013 50.009 83.0013 49.0088 88.0014 49.0088 88.0014 50.009 83.0013 50.009" fill="#5A8C5A" fill-rule="evenodd"/><path d="M83.5014 50.5091 83.5014 49.5089 88.5015 49.5089 88.5015 50.5091 83.5014 50.5091" stroke="#5A8C5A" stroke-width="0.570919" stroke-miterlimit="8" fill="none" fill-rule="evenodd"/><path d="M85.0024 47.0049 86.0024 47.0049 86.0024 52.005 85.0024 52.005 85.0024 47.0049" fill="#5A8C5A" fill-rule="evenodd"/><path d="M85.5024 47.505 86.5024 47.505 86.5024 52.5051 85.5024 52.5051 85.5024 47.505" stroke="#5A8C5A" stroke-width="0.570919" stroke-miterlimit="8" fill="none" fill-rule="evenodd"/><path d="M74.5117 148.519 266.512 148.519 266.512 179.519 74.5117 179.519Z" stroke="#EAE276" stroke-width="0.950026" stroke-linecap="square" stroke-linejoin="bevel" stroke-miterlimit="10" fill="#EEF283" fill-rule="evenodd"/><text font-family="Verdana,Verdana_MSFontService,sans-serif" font-weight="400" font-size="11" transform="translate(99.0771 167)">Large cities</text><path d="M81.1549 157.016 81.1549 159.17 79.0011 159.17 79.0011 161.863 81.1549 161.863 81.1549 164.016 83.8473 164.016 83.8473 161.863 86.0012 161.863 86.0012 159.17 83.8473 159.17 83.8473 157.016 81.1549 157.016" fill="#FFFFFF" fill-rule="evenodd"/><path d="M81.655 157.517 81.655 159.67 79.5011 159.67 79.5011 162.363 81.655 162.363 81.655 164.517 84.3473 164.517 84.3473 162.363 86.5012 162.363 86.5012 159.67 84.3473 159.67 84.3473 157.517 81.655 157.517" stroke="#5A8C5A" stroke-width="0.570919" stroke-miterlimit="8" fill="none" fill-rule="evenodd"/><path d="M80.0011 161.031 80.0011 160.031 85.0011 160.031 85.0011 161.031 80.0011 161.031" fill="#5A8C5A" fill-rule="evenodd"/><path d="M80.5012 161.531 80.5012 160.531 85.5012 160.531 85.5012 161.531 80.5012 161.531" stroke="#5A8C5A" stroke-width="0.570919" stroke-miterlimit="8" fill="none" fill-rule="evenodd"/><path d="M82.002 158.017 83.002 158.017 83.002 163.017 82.002 163.017 82.002 158.017" fill="#5A8C5A" fill-rule="evenodd"/><path d="M82.5021 158.517 83.5021 158.517 83.5021 163.517 82.5021 163.517 82.5021 158.517" stroke="#5A8C5A" stroke-width="0.570919" stroke-miterlimit="8" fill="none" fill-rule="evenodd"/><path d="M153.52 297.535 345.52 297.535 345.52 327.535 153.52 327.535Z" stroke="#EAE276" stroke-width="0.950026" stroke-linecap="square" stroke-linejoin="bevel" stroke-miterlimit="10" fill="#EEF283" fill-rule="evenodd"/><text font-family="Verdana,Verdana_MSFontService,sans-serif" font-weight="400" font-size="11" transform="translate(177.577 315)">Medium cities</text><path d="M160.163 305.036 160.163 307.498 158.009 307.498 158.009 310.575 160.163 310.575 160.163 313.036 162.855 313.036 162.855 310.575 165.009 310.575 165.009 307.498 162.855 307.498 162.855 305.036 160.163 305.036" fill="#FFFFFF" fill-rule="evenodd"/><path d="M160.663 305.537 160.663 307.998 158.509 307.998 158.509 311.075 160.663 311.075 160.663 313.537 163.356 313.537 163.356 311.075 165.509 311.075 165.509 307.998 163.356 307.998 163.356 305.537 160.663 305.537" stroke="#5A8C5A" stroke-width="0.570919" stroke-miterlimit="8" fill="none" fill-rule="evenodd"/><path d="M159.01 310.059 159.01 309.059 164.01 309.059 164.01 310.059 159.01 310.059" fill="#5A8C5A" fill-rule="evenodd"/><path d="M159.51 310.559 159.51 309.559 164.51 309.559 164.51 310.559 159.51 310.559" stroke="#5A8C5A" stroke-width="0.570919" stroke-miterlimit="8" fill="none" fill-rule="evenodd"/><path d="M161.017 306.033 162.017 306.033 162.017 311.033 161.017 311.033 161.017 306.033" fill="#5A8C5A" fill-rule="evenodd"/><path d="M161.517 306.533 162.517 306.533 162.517 311.533 161.517 311.533 161.517 306.533" stroke="#5A8C5A" stroke-width="0.570919" stroke-miterlimit="8" fill="none" fill-rule="evenodd"/><path d="M247.531 460.554 439.531 460.554 439.531 491.554 247.531 491.554Z" stroke="#EAE276" stroke-width="0.950026" stroke-linecap="square" stroke-linejoin="bevel" stroke-miterlimit="10" fill="#EEF283" fill-rule="evenodd"/><text font-family="Verdana,Verdana_MSFontService,sans-serif" font-weight="400" font-size="11" transform="translate(272.062 479)">Small cities</text><path d="M254.173 469.049 254.173 471.203 252.019 471.203 252.019 473.895 254.173 473.895 254.173 476.049 256.865 476.049 256.865 473.895 259.019 473.895 259.019 471.203 256.865 471.203 256.865 469.049 254.173 469.049" fill="#FFFFFF" fill-rule="evenodd"/><path d="M254.673 469.549 254.673 471.703 252.519 471.703 252.519 474.395 254.673 474.395 254.673 476.549 257.365 476.549 257.365 474.395 259.519 474.395 259.519 471.703 257.365 471.703 257.365 469.549 254.673 469.549" stroke="#5A8C5A" stroke-width="0.570919" stroke-miterlimit="8" fill="none" fill-rule="evenodd"/><path d="M253.02 473.091 253.02 472.091 258.02 472.091 258.02 473.091 253.02 473.091" fill="#5A8C5A" fill-rule="evenodd"/><path d="M253.52 473.591 253.52 472.591 258.52 472.591 258.52 473.591 253.52 473.591" stroke="#5A8C5A" stroke-width="0.570919" stroke-miterlimit="8" fill="none" fill-rule="evenodd"/><path d="M255.036 470.051 256.036 470.051 256.036 475.051 255.036 475.051 255.036 470.051" fill="#5A8C5A" fill-rule="evenodd"/><path d="M255.536 470.551 256.536 470.551 256.536 475.551 255.536 475.551 255.536 470.551" stroke="#5A8C5A" stroke-width="0.570919" stroke-miterlimit="8" fill="none" fill-rule="evenodd"/><path d="M354.543 608.568 546.543 608.568 546.543 638.569 354.543 638.569Z" stroke="#EAE276" stroke-width="0.950026" stroke-linecap="square" stroke-linejoin="bevel" stroke-miterlimit="10" fill="#EEF283" fill-rule="evenodd"/><text font-family="Verdana,Verdana_MSFontService,sans-serif" font-weight="400" font-size="11" transform="translate(379.177 626)">Weights by City Level</text><path d="M361.496 616.064 361.496 618.218 359.035 618.218 359.035 620.911 361.496 620.911 361.496 623.064 364.573 623.064 364.573 620.911 367.035 620.911 367.035 618.218 364.573 618.218 364.573 616.064 361.496 616.064" fill="#FFFFFF" fill-rule="evenodd"/><path d="M361.996 616.564 361.996 618.718 359.535 618.718 359.535 621.411 361.996 621.411 361.996 623.565 365.073 623.565 365.073 621.411 367.535 621.411 367.535 618.718 365.073 618.718 365.073 616.564 361.996 616.564" stroke="#5A8C5A" stroke-width="0.570919" stroke-miterlimit="8" fill="none" fill-rule="evenodd"/><path d="M360.031 620.12 360.031 619.12 365.031 619.12 365.031 620.12 360.031 620.12" fill="#5A8C5A" fill-rule="evenodd"/><path d="M360.531 620.62 360.531 619.62 365.531 619.62 365.531 620.62 360.531 620.62" stroke="#5A8C5A" stroke-width="0.570919" stroke-miterlimit="8" fill="none" fill-rule="evenodd"/><path d="M363.056 617.066 364.056 617.066 364.056 622.067 363.056 622.067 363.056 617.066" fill="#5A8C5A" fill-rule="evenodd"/><path d="M363.556 617.566 364.556 617.566 364.556 622.567 363.556 622.567 363.556 617.566" stroke="#5A8C5A" stroke-width="0.570919" stroke-miterlimit="8" fill="none" fill-rule="evenodd"/><path d="M323.539 194.523 515.539 194.523 515.539 224.523 323.539 224.523Z" stroke="#A0A0A4" stroke-width="0.950026" stroke-linecap="square" stroke-linejoin="bevel" stroke-miterlimit="10" fill="#FFFFFF" fill-rule="evenodd"/><text font-family="Verdana,Verdana_MSFontService,sans-serif" font-weight="400" font-size="11" transform="translate(347.864 212)">Res Dist to Largre City<tspan font-size="11" x="0" y="-29">In</tspan><tspan font-size="11" x="0" y="25">Out</tspan></text><path d="M331.708 202.022 331.402 202.873 331.406 202.923 331.555 203.662 330.694 204.018 330.277 203.39 330.245 203.353 329.426 202.967 328.973 203.42 329.359 204.238 329.397 204.27 330.024 204.688 329.668 205.548 328.928 205.4 328.879 205.396 328.028 205.701 328.028 206.343 328.879 206.649 328.929 206.644 329.668 206.496 330.024 207.357 329.397 207.774 329.359 207.806 328.973 208.624 329.426 209.077 330.245 208.691 330.277 208.654 330.694 208.027 331.554 208.383 331.406 209.122 331.402 209.171 331.708 210.022 332.349 210.022 332.655 209.171 332.65 209.122 332.502 208.382 333.363 208.027 333.78 208.654 333.812 208.691 334.63 209.077 335.084 208.624 334.697 207.806 334.66 207.774 334.033 207.356 334.389 206.496 335.128 206.645 335.178 206.648 336.028 206.343 336.028 205.701 335.177 205.395 335.128 205.4 334.389 205.549 334.033 204.688 334.66 204.27 334.697 204.238 335.084 203.42 334.63 202.967 333.812 203.353 333.78 203.39 333.362 204.018 332.502 203.661 332.651 202.922 332.655 202.873 332.349 202.022 331.708 202.022M332.028 205.07C332.554 205.07 332.981 205.496 332.981 206.022 332.981 206.548 332.554 206.974 332.028 206.974 331.502 206.974 331.076 206.548 331.076 206.022 331.076 205.496 331.502 205.07 332.028 205.07" fill="#98B5D8" fill-rule="evenodd"/><path d="M332.208 202.522 331.902 203.373 331.906 203.423 332.055 204.162 331.194 204.518 330.777 203.891 330.745 203.853 329.926 203.467 329.473 203.92 329.859 204.739 329.897 204.771 330.524 205.188 330.168 206.048 329.429 205.9 329.379 205.896 328.528 206.201 328.528 206.843 329.379 207.149 329.429 207.144 330.168 206.996 330.524 207.857 329.897 208.274 329.859 208.306 329.473 209.124 329.926 209.577 330.745 209.191 330.777 209.154 331.194 208.527 332.054 208.883 331.906 209.622 331.902 209.671 332.208 210.522 332.849 210.522 333.155 209.671 333.15 209.622 333.002 208.883 333.863 208.527 334.28 209.154 334.312 209.191 335.13 209.577 335.584 209.124 335.197 208.306 335.16 208.274 334.533 207.856 334.889 206.996 335.628 207.145 335.678 207.148 336.528 206.843 336.528 206.201 335.677 205.896 335.628 205.9 334.889 206.049 334.533 205.188 335.16 204.771 335.197 204.739 335.584 203.92 335.13 203.467 334.312 203.853 334.28 203.891 333.862 204.518 333.002 204.161 333.151 203.422 333.155 203.373 332.849 202.522 332.208 202.522M332.528 205.57C333.054 205.57 333.481 205.996 333.481 206.522 333.481 207.048 333.054 207.474 332.528 207.474 332.002 207.474 331.576 207.048 331.576 206.522 331.576 205.996 332.002 205.57 332.528 205.57" stroke="#457ABE" stroke-width="0.380052" stroke-miterlimit="8" fill="none" fill-rule="evenodd"/><path d="M446.553 362.542 638.553 362.542 638.553 392.542 446.553 392.542Z" stroke="#A0A0A4" stroke-width="0.950026" stroke-linecap="square" stroke-linejoin="bevel" stroke-miterlimit="10" fill="#FFFFFF" fill-rule="evenodd"/><text font-family="Verdana,Verdana_MSFontService,sans-serif" font-weight="400" font-size="11" transform="translate(471.05 380)">Res Dist to Medium City<tspan font-size="11" x="0" y="-29">In</tspan><tspan font-size="11" x="0" y="25">Out</tspan></text><path d="M454.721 370.041 454.415 370.892 454.42 370.941 454.568 371.68 453.707 372.036 453.29 371.409 453.258 371.372 452.44 370.985 451.987 371.439 452.373 372.257 452.41 372.289 453.037 372.707 452.681 373.567 451.942 373.418 451.893 373.414 451.042 373.72 451.042 374.361 451.893 374.667 451.942 374.663 452.682 374.514 453.037 375.375 452.41 375.792 452.373 375.824 451.987 376.643 452.44 377.096 453.258 376.71 453.29 376.672 453.708 376.045 454.568 376.402 454.419 377.141 454.416 377.19 454.721 378.041 455.363 378.041 455.669 377.19 455.664 377.14 455.516 376.401 456.376 376.045 456.794 376.672 456.826 376.71 457.644 377.096 458.097 376.643 457.711 375.824 457.674 375.792 457.047 375.375 457.403 374.515 458.142 374.663 458.191 374.667 459.042 374.361 459.042 373.72 458.191 373.414 458.141 373.419 457.402 373.567 457.047 372.706 457.674 372.289 457.711 372.257 458.097 371.439 457.644 370.985 456.826 371.372 456.794 371.409 456.376 372.036 455.516 371.68 455.664 370.941 455.668 370.891 455.363 370.041 454.721 370.041M455.042 373.088C455.568 373.088 455.994 373.515 455.994 374.041 455.994 374.567 455.568 374.993 455.042 374.993 454.516 374.993 454.09 374.567 454.09 374.041 454.09 373.515 454.516 373.088 455.042 373.088" fill="#98B5D8" fill-rule="evenodd"/><path d="M455.221 370.541 454.915 371.392 454.92 371.441 455.069 372.18 454.207 372.536 453.79 371.909 453.758 371.872 452.94 371.485 452.487 371.939 452.873 372.757 452.91 372.789 453.537 373.207 453.181 374.067 452.442 373.918 452.393 373.914 451.542 374.22 451.542 374.862 452.393 375.167 452.443 375.163 453.182 375.014 453.537 375.875 452.91 376.292 452.873 376.324 452.487 377.143 452.94 377.596 453.758 377.21 453.79 377.172 454.208 376.545 455.068 376.902 454.92 377.641 454.916 377.69 455.221 378.541 455.863 378.541 456.169 377.69 456.164 377.64 456.016 376.901 456.876 376.545 457.294 377.172 457.326 377.21 458.144 377.596 458.597 377.143 458.211 376.324 458.174 376.292 457.547 375.875 457.903 375.015 458.642 375.163 458.691 375.167 459.542 374.862 459.542 374.22 458.691 373.914 458.641 373.919 457.902 374.067 457.547 373.206 458.174 372.789 458.211 372.757 458.597 371.939 458.144 371.485 457.326 371.872 457.294 371.909 456.876 372.536 456.016 372.18 456.165 371.441 456.168 371.391 455.863 370.541 455.221 370.541M455.542 373.588C456.068 373.588 456.494 374.015 456.494 374.541 456.494 375.067 456.068 375.493 455.542 375.493 455.016 375.493 454.59 375.067 454.59 374.541 454.59 374.015 455.016 373.588 455.542 373.588" stroke="#457ABE" stroke-width="0.380052" stroke-miterlimit="8" fill="none" fill-rule="evenodd"/><path d="M531.562 515.56 723.562 515.56 723.562 546.56 531.562 546.56Z" stroke="#A0A0A4" stroke-width="0.950026" stroke-linecap="square" stroke-linejoin="bevel" stroke-miterlimit="10" fill="#FFFFFF" fill-rule="evenodd"/><text font-family="Verdana,Verdana_MSFontService,sans-serif" font-weight="400" font-size="11" transform="translate(555.454 534)">Res Dist to Small City<tspan font-size="11" x="0" y="-30">In</tspan><tspan font-size="11" x="0" y="25">Out</tspan></text><path d="M538.731 523.058 538.425 523.909 538.429 523.958 538.578 524.697 537.717 525.053 537.3 524.426 537.268 524.389 536.449 524.002 535.996 524.456 536.382 525.274 536.42 525.306 537.047 525.724 536.69 526.584 535.951 526.435 535.902 526.431 535.051 526.737 535.051 527.378 535.902 527.684 535.952 527.68 536.691 527.531 537.047 528.392 536.42 528.809 536.382 528.841 535.996 529.66 536.449 530.113 537.268 529.727 537.3 529.689 537.717 529.062 538.577 529.418 538.429 530.158 538.425 530.207 538.731 531.058 539.372 531.058 539.678 530.207 539.673 530.157 539.525 529.418 540.386 529.062 540.803 529.689 540.835 529.727 541.653 530.113 542.107 529.66 541.72 528.841 541.683 528.809 541.056 528.392 541.412 527.532 542.151 527.68 542.201 527.684 543.051 527.378 543.051 526.737 542.2 526.431 542.151 526.436 541.412 526.584 541.056 525.723 541.683 525.306 541.72 525.274 542.107 524.456 541.653 524.002 540.835 524.389 540.803 524.426 540.385 525.053 539.525 524.697 539.674 523.958 539.678 523.908 539.372 523.058 538.731 523.058M539.051 526.105C539.577 526.105 540.004 526.532 540.004 527.058 540.004 527.584 539.577 528.01 539.051 528.01 538.525 528.01 538.099 527.584 538.099 527.058 538.099 526.532 538.525 526.105 539.051 526.105" fill="#98B5D8" fill-rule="evenodd"/><path d="M539.231 523.558 538.925 524.409 538.929 524.458 539.078 525.197 538.217 525.553 537.8 524.926 537.768 524.889 536.949 524.503 536.496 524.956 536.882 525.774 536.92 525.806 537.547 526.224 537.191 527.084 536.451 526.935 536.402 526.932 535.551 527.237 535.551 527.878 536.402 528.185 536.452 528.18 537.191 528.031 537.547 528.892 536.92 529.309 536.882 529.341 536.496 530.16 536.949 530.613 537.768 530.227 537.8 530.189 538.217 529.562 539.077 529.919 538.929 530.658 538.925 530.707 539.231 531.558 539.872 531.558 540.178 530.707 540.173 530.657 540.025 529.918 540.886 529.562 541.303 530.189 541.335 530.227 542.153 530.613 542.607 530.16 542.22 529.341 542.183 529.309 541.556 528.892 541.912 528.032 542.651 528.18 542.701 528.184 543.551 527.878 543.551 527.237 542.7 526.931 542.651 526.936 541.912 527.084 541.556 526.223 542.183 525.806 542.22 525.774 542.607 524.956 542.153 524.503 541.335 524.889 541.303 524.926 540.885 525.553 540.025 525.197 540.174 524.458 540.178 524.408 539.872 523.558 539.231 523.558M539.551 526.605C540.077 526.605 540.504 527.032 540.504 527.558 540.504 528.084 540.077 528.51 539.551 528.51 539.025 528.51 538.599 528.084 538.599 527.558 538.599 527.032 539.025 526.605 539.551 526.605" stroke="#457ABE" stroke-width="0.380052" stroke-miterlimit="8" fill="none" fill-rule="evenodd"/><path d="M321.539 123.516 513.539 123.516 513.539 153.516 321.539 153.516Z" stroke="#A0A0A4" stroke-width="0.950026" stroke-linecap="square" stroke-linejoin="bevel" stroke-miterlimit="10" fill="#FFFFFF" fill-rule="evenodd"/><text font-family="Verdana,Verdana_MSFontService,sans-serif" font-weight="400" font-size="11" transform="translate(345.583 142)">Distance to Large City<tspan font-size="11" x="0" y="-30">In</tspan><tspan font-size="11" x="0" y="25">Out</tspan></text><path d="M328.707 131.014 328.401 131.865 328.406 131.915 328.555 132.654 327.694 133.01 327.276 132.383 327.244 132.345 326.426 131.959 325.973 132.412 326.359 133.231 326.396 133.263 327.023 133.68 326.667 134.54 325.928 134.392 325.879 134.388 325.028 134.693 325.028 135.335 325.879 135.641 325.929 135.636 326.668 135.488 327.023 136.349 326.396 136.766 326.359 136.798 325.973 137.616 326.426 138.07 327.244 137.683 327.276 137.646 327.694 137.019 328.554 137.375 328.406 138.114 328.402 138.164 328.707 139.014 329.349 139.014 329.655 138.163 329.65 138.114 329.502 137.375 330.363 137.019 330.78 137.646 330.812 137.683 331.63 138.07 332.083 137.616 331.697 136.798 331.66 136.766 331.033 136.348 331.389 135.488 332.128 135.637 332.177 135.641 333.028 135.335 333.028 134.693 332.177 134.388 332.128 134.392 331.388 134.541 331.033 133.68 331.66 133.263 331.697 133.231 332.083 132.412 331.63 131.959 330.812 132.345 330.78 132.383 330.362 133.01 329.502 132.654 329.651 131.914 329.654 131.865 329.349 131.014 328.707 131.014M329.028 134.062C329.554 134.062 329.98 134.488 329.98 135.014 329.98 135.54 329.554 135.967 329.028 135.967 328.502 135.967 328.076 135.54 328.076 135.014 328.076 134.488 328.502 134.062 329.028 134.062" fill="#98B5D8" fill-rule="evenodd"/><path d="M329.207 131.514 328.901 132.365 328.906 132.415 329.055 133.154 328.194 133.51 327.776 132.883 327.745 132.845 326.926 132.459 326.473 132.912 326.859 133.731 326.896 133.763 327.523 134.18 327.167 135.04 326.428 134.892 326.379 134.888 325.528 135.194 325.528 135.835 326.379 136.141 326.429 136.136 327.168 135.988 327.523 136.849 326.896 137.266 326.859 137.298 326.473 138.116 326.926 138.57 327.745 138.183 327.776 138.146 328.194 137.519 329.054 137.875 328.906 138.614 328.902 138.664 329.207 139.514 329.849 139.514 330.155 138.663 330.15 138.614 330.002 137.875 330.863 137.519 331.28 138.146 331.312 138.183 332.13 138.57 332.583 138.116 332.197 137.298 332.16 137.266 331.533 136.848 331.889 135.988 332.628 136.137 332.677 136.141 333.528 135.835 333.528 135.194 332.677 134.888 332.628 134.892 331.888 135.041 331.533 134.18 332.16 133.763 332.197 133.731 332.583 132.912 332.13 132.459 331.312 132.845 331.28 132.883 330.862 133.51 330.002 133.154 330.151 132.414 330.154 132.365 329.849 131.514 329.207 131.514M329.528 134.562C330.054 134.562 330.481 134.988 330.481 135.514 330.481 136.04 330.054 136.467 329.528 136.467 329.002 136.467 328.576 136.04 328.576 135.514 328.576 134.988 329.002 134.562 329.528 134.562" stroke="#457ABE" stroke-width="0.380052" stroke-miterlimit="8" fill="none" fill-rule="evenodd"/><path d="M445.553 285.533 637.553 285.533 637.553 315.533 445.553 315.533Z" stroke="#A0A0A4" stroke-width="0.950026" stroke-linecap="square" stroke-linejoin="bevel" stroke-miterlimit="10" fill="#FFFFFF" fill-rule="evenodd"/><text font-family="Verdana,Verdana_MSFontService,sans-serif" font-weight="400" font-size="11" transform="translate(469.529 303)">Distance to Medium City<tspan font-size="11" x="0" y="-29">In</tspan><tspan font-size="11" x="0" y="26">Out</tspan></text><path d="M452.721 293.032 452.415 293.883 452.42 293.933 452.568 294.672 451.707 295.028 451.29 294.401 451.258 294.363 450.44 293.977 449.987 294.43 450.373 295.249 450.41 295.281 451.037 295.698 450.681 296.558 449.942 296.41 449.892 296.406 449.042 296.711 449.042 297.353 449.893 297.659 449.942 297.654 450.681 297.506 451.037 298.367 450.41 298.784 450.373 298.816 449.987 299.634 450.44 300.087 451.258 299.701 451.29 299.664 451.708 299.037 452.568 299.393 452.419 300.132 452.415 300.182 452.721 301.032 453.363 301.032 453.668 300.181 453.664 300.132 453.515 299.393 454.376 299.037 454.793 299.664 454.825 299.701 455.644 300.087 456.097 299.634 455.711 298.816 455.673 298.784 455.046 298.366 455.402 297.506 456.142 297.655 456.191 297.659 457.042 297.353 457.042 296.711 456.191 296.406 456.141 296.41 455.402 296.559 455.046 295.698 455.673 295.281 455.711 295.249 456.097 294.43 455.644 293.977 454.825 294.363 454.793 294.401 454.376 295.028 453.516 294.671 453.664 293.932 453.668 293.883 453.363 293.032 452.721 293.032M453.042 296.08C453.568 296.08 453.994 296.506 453.994 297.032 453.994 297.558 453.568 297.985 453.042 297.985 452.516 297.985 452.089 297.558 452.089 297.032 452.089 296.506 452.516 296.08 453.042 296.08" fill="#98B5D8" fill-rule="evenodd"/><path d="M453.221 293.532 452.915 294.383 452.92 294.433 453.068 295.172 452.207 295.528 451.79 294.901 451.758 294.863 450.94 294.477 450.487 294.93 450.873 295.749 450.91 295.781 451.537 296.198 451.181 297.058 450.442 296.91 450.392 296.906 449.542 297.212 449.542 297.853 450.393 298.159 450.442 298.154 451.181 298.006 451.537 298.867 450.91 299.284 450.873 299.316 450.487 300.134 450.94 300.588 451.758 300.201 451.79 300.164 452.208 299.537 453.068 299.893 452.919 300.632 452.916 300.682 453.221 301.532 453.863 301.532 454.169 300.681 454.164 300.632 454.015 299.893 454.876 299.537 455.293 300.164 455.325 300.201 456.144 300.588 456.597 300.134 456.211 299.316 456.173 299.284 455.546 298.866 455.903 298.006 456.642 298.155 456.691 298.159 457.542 297.853 457.542 297.212 456.691 296.906 456.641 296.91 455.902 297.059 455.546 296.198 456.173 295.781 456.211 295.749 456.597 294.93 456.144 294.477 455.325 294.863 455.293 294.901 454.876 295.528 454.016 295.171 454.164 294.432 454.168 294.383 453.863 293.532 453.221 293.532M453.542 296.58C454.068 296.58 454.494 297.006 454.494 297.532 454.494 298.058 454.068 298.485 453.542 298.485 453.016 298.485 452.589 298.058 452.589 297.532 452.589 297.006 453.016 296.58 453.542 296.58" stroke="#457ABE" stroke-width="0.380052" stroke-miterlimit="8" fill="none" fill-rule="evenodd"/><path d="M528.562 444.552 720.562 444.552 720.562 475.552 528.562 475.552Z" stroke="#A0A0A4" stroke-width="0.950026" stroke-linecap="square" stroke-linejoin="bevel" stroke-miterlimit="10" fill="#FFFFFF" fill-rule="evenodd"/><text font-family="Verdana,Verdana_MSFontService,sans-serif" font-weight="400" font-size="11" transform="translate(553.173 463)">Distance to Small City<tspan font-size="11" x="0" y="-29">In</tspan><tspan font-size="11" x="0" y="25">Out</tspan></text><path d="M536.73 453.05 536.424 453.901 536.429 453.95 536.577 454.69 535.717 455.045 535.299 454.418 535.267 454.381 534.449 453.995 533.996 454.448 534.382 455.266 534.419 455.298 535.046 455.716 534.69 456.576 533.951 456.427 533.902 456.424 533.051 456.729 533.051 457.371 533.902 457.677 533.952 457.672 534.691 457.523 535.046 458.384 534.419 458.802 534.382 458.834 533.996 459.652 534.449 460.105 535.267 459.719 535.299 459.682 535.717 459.054 536.577 459.411 536.429 460.15 536.425 460.199 536.73 461.05 537.372 461.05 537.678 460.199 537.673 460.149 537.525 459.41 538.385 459.054 538.803 459.682 538.835 459.719 539.653 460.105 540.106 459.652 539.72 458.834 539.683 458.802 539.056 458.384 539.412 457.524 540.151 457.672 540.2 457.676 541.051 457.371 541.051 456.729 540.2 456.423 540.15 456.428 539.411 456.576 539.056 455.715 539.683 455.298 539.72 455.266 540.106 454.448 539.653 453.995 538.835 454.381 538.803 454.418 538.385 455.045 537.525 454.689 537.674 453.95 537.677 453.901 537.372 453.05 536.73 453.05M537.051 456.097C537.577 456.097 538.003 456.524 538.003 457.05 538.003 457.576 537.577 458.002 537.051 458.002 536.525 458.002 536.099 457.576 536.099 457.05 536.099 456.524 536.525 456.097 537.051 456.097" fill="#98B5D8" fill-rule="evenodd"/><path d="M537.23 453.55 536.924 454.401 536.929 454.451 537.078 455.19 536.217 455.545 535.799 454.918 535.767 454.881 534.949 454.495 534.496 454.948 534.882 455.766 534.919 455.798 535.547 456.216 535.19 457.076 534.451 456.927 534.402 456.924 533.551 457.229 533.551 457.871 534.402 458.177 534.452 458.172 535.191 458.023 535.547 458.884 534.919 459.302 534.882 459.334 534.496 460.152 534.949 460.605 535.767 460.219 535.799 460.182 536.217 459.555 537.077 459.911 536.929 460.65 536.925 460.699 537.23 461.55 537.872 461.55 538.178 460.699 538.173 460.649 538.025 459.91 538.886 459.555 539.303 460.182 539.335 460.219 540.153 460.605 540.606 460.152 540.22 459.334 540.183 459.302 539.556 458.884 539.912 458.024 540.651 458.172 540.701 458.176 541.551 457.871 541.551 457.229 540.7 456.923 540.651 456.928 539.911 457.076 539.556 456.216 540.183 455.798 540.22 455.766 540.606 454.948 540.153 454.495 539.335 454.881 539.303 454.918 538.885 455.545 538.025 455.189 538.174 454.45 538.177 454.401 537.872 453.55 537.23 453.55M537.551 456.598C538.077 456.598 538.503 457.024 538.503 457.55 538.503 458.076 538.077 458.502 537.551 458.502 537.025 458.502 536.599 458.076 536.599 457.55 536.599 457.024 537.025 456.598 537.551 456.598" stroke="#457ABE" stroke-width="0.380052" stroke-miterlimit="8" fill="none" fill-rule="evenodd"/><path d="M643.575 603.568 835.575 603.568 835.575 633.568 643.575 633.568Z" stroke="#A0A0A4" stroke-width="0.950026" stroke-linecap="square" stroke-linejoin="bevel" stroke-miterlimit="10" fill="#FFFFFF" fill-rule="evenodd"/><text font-family="Verdana,Verdana_MSFontService,sans-serif" font-weight="400" font-size="11" transform="translate(667.994 621)">Weighted Sum of Fields<tspan font-size="11" x="0" y="-29">In</tspan><tspan font-size="11" x="0" y="25">Out</tspan></text><path d="M651.743 611.067 651.437 611.918 651.442 611.968 651.59 612.707 650.729 613.063 650.312 612.436 650.28 612.398 649.462 612.012 649.008 612.466 649.395 613.284 649.432 613.316 650.059 613.733 649.703 614.593 648.964 614.445 648.914 614.441 648.064 614.747 648.064 615.388 648.915 615.694 648.964 615.69 649.703 615.541 650.059 616.402 649.432 616.819 649.395 616.851 649.008 617.669 649.462 618.123 650.28 617.736 650.312 617.699 650.73 617.072 651.59 617.428 651.441 618.167 651.437 618.217 651.743 619.068 652.385 619.068 652.69 618.216 652.686 618.167 652.537 617.428 653.398 617.072 653.815 617.699 653.847 617.736 654.666 618.123 655.119 617.669 654.733 616.851 654.695 616.819 654.068 616.401 654.424 615.541 655.164 615.69 655.213 615.694 656.064 615.388 656.064 614.747 655.213 614.441 655.163 614.445 654.424 614.594 654.068 613.733 654.695 613.316 654.733 613.284 655.119 612.466 654.666 612.012 653.847 612.398 653.815 612.436 653.398 613.063 652.538 612.707 652.686 611.968 652.69 611.918 652.385 611.067 651.743 611.067M652.064 614.115C652.59 614.115 653.016 614.541 653.016 615.067 653.016 615.593 652.59 616.02 652.064 616.02 651.538 616.02 651.111 615.593 651.111 615.067 651.111 614.541 651.538 614.115 652.064 614.115" fill="#98B5D8" fill-rule="evenodd"/><path d="M652.243 611.567 651.937 612.419 651.942 612.468 652.09 613.207 651.229 613.563 650.812 612.936 650.78 612.898 649.962 612.512 649.508 612.966 649.895 613.784 649.932 613.816 650.559 614.233 650.203 615.094 649.464 614.945 649.414 614.941 648.564 615.247 648.564 615.888 649.415 616.194 649.464 616.19 650.203 616.041 650.559 616.902 649.932 617.319 649.895 617.351 649.508 618.169 649.962 618.623 650.78 618.236 650.812 618.199 651.23 617.572 652.09 617.928 651.941 618.667 651.938 618.717 652.243 619.568 652.885 619.568 653.19 618.716 653.186 618.667 653.037 617.928 653.898 617.572 654.315 618.199 654.347 618.236 655.166 618.623 655.619 618.169 655.233 617.351 655.195 617.319 654.568 616.902 654.925 616.041 655.664 616.19 655.713 616.194 656.564 615.888 656.564 615.247 655.713 614.941 655.663 614.945 654.924 615.094 654.568 614.233 655.195 613.816 655.233 613.784 655.619 612.966 655.166 612.512 654.347 612.898 654.315 612.936 653.898 613.563 653.038 613.207 653.186 612.468 653.19 612.418 652.885 611.567 652.243 611.567M652.564 614.615C653.09 614.615 653.516 615.042 653.516 615.567 653.516 616.093 653.09 616.52 652.564 616.52 652.038 616.52 651.611 616.093 651.611 615.567 651.611 615.042 652.038 614.615 652.564 614.615" stroke="#457ABE" stroke-width="0.380052" stroke-miterlimit="8" fill="none" fill-rule="evenodd"/><path d="M833.596 645.575 1025.6 645.575 1025.6 676.575 833.596 676.575Z" stroke="#5A8C5A" stroke-width="0.950026" stroke-linecap="square" stroke-linejoin="bevel" stroke-miterlimit="10" fill="#ACC472" fill-rule="evenodd"/><text font-family="Verdana,Verdana_MSFontService,sans-serif" font-weight="400" font-size="11" transform="translate(858.095 664)">rcrp_Market</text><path d="M837.084 655.884 841.584 655.884 841.584 653.071 846.084 657.571 841.584 662.071 841.584 659.259 837.084 659.259 837.084 655.884" fill="#5A8C5A" fill-rule="evenodd"/><path d="M838.077 658.854 838.077 656.308 842.226 656.308 842.226 654.081 845.077 657.581 842.226 661.081 842.226 658.854 838.077 658.854" fill="#FFFFFF" fill-rule="evenodd"/><path d="M838.092 657.063 838.092 658.064 843.048 658.064 843.048 659.064 845.092 657.563 843.048 656.063 843.048 657.063 838.092 657.063" fill="#5A8C5A" fill-rule="evenodd"/><path d="M879.5 41.0001 887 33.5001 894.5 41.0001 887 48.5001Z" stroke="#507E32" stroke-width="1.33333" stroke-miterlimit="8" fill="#0D0D0D" fill-rule="evenodd"/><text font-family="Calibri,Calibri_MSFontService,sans-serif" font-weight="400" font-size="15" transform="translate(904.259 48)">Input V<tspan font-size="15" x="43.1666" y="0">ector Layer</tspan></text><path d="M244.5 51.5001 252 43.5001 259.5 51.5001 252 59.5001Z" stroke="#507E32" stroke-width="1.33333" stroke-miterlimit="8" fill="#0D0D0D" fill-rule="evenodd"/><path d="M241.5 163 248.5 155.5 255.5 163 248.5 170.5Z" stroke="#507E32" stroke-width="1.33333" stroke-miterlimit="8" fill="#0D0D0D" fill-rule="evenodd"/><path d="M411.5 473 418.5 465.5 425.5 473 418.5 480.5Z" stroke="#507E32" stroke-width="1.33333" stroke-miterlimit="8" fill="#0D0D0D" fill-rule="evenodd"/><path d="M312.5 311 320 303.5 327.5 311 320 318.5Z" stroke="#507E32" stroke-width="1.33333" stroke-miterlimit="8" fill="#0D0D0D" fill-rule="evenodd"/><path d="M879.5 62.0001 886.5 54.5001 893.5 62.0001 886.5 69.5001Z" stroke="#C00000" stroke-width="1.33333" stroke-miterlimit="8" fill="#FF00FF" fill-rule="evenodd"/><text font-family="Calibri,Calibri_MSFontService,sans-serif" font-weight="400" font-size="15" transform="translate(904.259 68)">I<tspan font-size="15" x="3.66663" y="0">nput String</tspan></text><path d="M522.5 622 530 614.5 537.5 622 530 629.5Z" stroke="#C00000" stroke-width="1.33333" stroke-miterlimit="8" fill="#FF00FF" fill-rule="evenodd"/><path d="M878.5 90.5001 886.5 76.5001 894.5 90.5001Z" stroke="#AE5A21" stroke-width="1.33333" stroke-miterlimit="8" fill="#ED7D31" fill-rule="evenodd"/><text font-family="Calibri,Calibri_MSFontService,sans-serif" font-weight="400" font-size="15" transform="translate(905.007 88)">Distance to Point Features Process</text><path d="M488.5 144.5 496.5 130.5 504.5 144.5Z" stroke="#AE5A21" stroke-width="1.33333" stroke-miterlimit="8" fill="#ED7D31" fill-rule="evenodd"/><path d="M616.5 306.5 625 292.5 633.5 306.5Z" stroke="#AE5A21" stroke-width="1.33333" stroke-miterlimit="8" fill="#ED7D31" fill-rule="evenodd"/><path d="M698.5 464.5 706.5 450.5 714.5 464.5Z" stroke="#AE5A21" stroke-width="1.33333" stroke-miterlimit="8" fill="#ED7D31" fill-rule="evenodd"/><path d="M878.5 103.5C878.5 99.6341 882.082 96.5001 886.5 96.5001 890.918 96.5001 894.5 99.6341 894.5 103.5 894.5 107.366 890.918 110.5 886.5 110.5 882.082 110.5 878.5 107.366 878.5 103.5Z" stroke="#BC8C00" stroke-width="1.33333" stroke-miterlimit="8" fill="#FFC000" fill-rule="evenodd"/><text font-family="Calibri,Calibri_MSFontService,sans-serif" font-weight="400" font-size="15" transform="translate(905.186 108)">Rescale <tspan font-size="15" x="48.1667" y="0">Field </tspan><tspan font-size="15" x="79.8333" y="0">Linearly Process</tspan></text><path d="M488.5 209C488.5 204.858 492.082 201.5 496.5 201.5 500.918 201.5 504.5 204.858 504.5 209 504.5 213.142 500.918 216.5 496.5 216.5 492.082 216.5 488.5 213.142 488.5 209Z" stroke="#BC8C00" stroke-width="1.33333" stroke-miterlimit="8" fill="#FFC000" fill-rule="evenodd"/><path d="M617.5 376C617.5 371.858 621.082 368.5 625.5 368.5 629.918 368.5 633.5 371.858 633.5 376 633.5 380.142 629.918 383.5 625.5 383.5 621.082 383.5 617.5 380.142 617.5 376Z" stroke="#BC8C00" stroke-width="1.33333" stroke-miterlimit="8" fill="#FFC000" fill-rule="evenodd"/><path d="M700.5 531C700.5 526.858 703.858 523.5 708 523.5 712.142 523.5 715.5 526.858 715.5 531 715.5 535.142 712.142 538.5 708 538.5 703.858 538.5 700.5 535.142 700.5 531Z" stroke="#BC8C00" stroke-width="1.33333" stroke-miterlimit="8" fill="#FFC000" fill-rule="evenodd"/><path d="M878.5 123.848 887 118.5 895.5 123.848 892.253 132.5 881.747 132.5Z" stroke="#2F528F" stroke-width="1.33333" stroke-miterlimit="8" fill="#00B0F0" fill-rule="evenodd"/><text font-family="Calibri,Calibri_MSFontService,sans-serif" font-weight="400" font-size="15" transform="translate(903.644 132)">Weighted <tspan font-size="15" x="61.3334" y="0">Sum of Fields Process</tspan></text><path d="M809.5 615.848 818 610.5 826.5 615.848 823.253 624.5 812.747 624.5Z" stroke="#2F528F" stroke-width="1.33333" stroke-miterlimit="8" fill="#00B0F0" fill-rule="evenodd"/><path d="M878.5 146.848 884.994 146.848 887 141.5 889.007 146.848 895.5 146.848 890.247 150.152 892.253 155.5 887 152.195 881.747 155.5 883.753 150.152Z" stroke="#C00000" stroke-width="1.33333" stroke-miterlimit="8" fill="#FF0000" fill-rule="evenodd"/><text font-family="Calibri,Calibri_MSFontService,sans-serif" font-weight="400" font-size="15" transform="translate(903.561 156)">Output</text><path d="M997.5 656.848 1003.99 656.848 1006 651.5 1008.01 656.848 1014.5 656.848 1009.25 660.153 1011.25 665.5 1006 662.195 1000.75 665.5 1002.75 660.153Z" stroke="#C00000" stroke-width="1.33333" stroke-miterlimit="8" fill="#FF0000" fill-rule="evenodd"/><path d="M520.5 37.5001C532.926 37.5001 543 39.1789 543 41.2499L543 122.75C543 124.821 553.074 126.5 565.5 126.5 553.074 126.5 543 128.179 543 130.25L543 211.75C543 213.821 532.926 215.5 520.5 215.5" stroke="#4472C4" stroke-width="0.666667" stroke-miterlimit="8" fill="none" fill-rule="evenodd"/><path d="M651.5 281.5C663.098 281.5 672.5 283.067 672.5 285L672.5 337C672.5 338.933 681.902 340.5 693.5 340.5 681.902 340.5 672.5 342.067 672.5 344L672.5 396C672.5 397.933 663.098 399.5 651.5 399.5" stroke="#4472C4" stroke-width="0.666667" stroke-miterlimit="8" fill="none" fill-rule="evenodd"/><text font-family="Calibri,Calibri_MSFontService,sans-serif" font-weight="400" font-size="19" transform="translate(703.216 346)">Distance to Middle City</text><path d="M734.5 437.5C746.098 437.5 755.5 439.067 755.5 441L755.5 493.5C755.5 495.433 764.902 497 776.5 497 764.902 497 755.5 498.567 755.5 500.5L755.5 553C755.5 554.933 746.098 556.5 734.5 556.5" stroke="#4472C4" stroke-width="0.666667" stroke-miterlimit="8" fill="none" fill-rule="evenodd"/><text font-family="Calibri,Calibri_MSFontService,sans-serif" font-weight="400" font-size="19" transform="translate(792.018 501)">Distance to Small City</text><path d="M1033.5 574.5C1045.1 574.5 1054.5 576.067 1054.5 578L1054.5 622C1054.5 623.933 1063.9 625.5 1075.5 625.5 1063.9 625.5 1054.5 627.067 1054.5 629L1054.5 673C1054.5 674.933 1045.1 676.5 1033.5 676.5" stroke="#4472C4" stroke-width="0.666667" stroke-miterlimit="8" fill="none" fill-rule="evenodd"/><text font-family="Calibri,Calibri_MSFontService,sans-serif" font-weight="400" font-size="19" transform="translate(1084.22 632)">Aggregation</text></g></svg>