<svg width="990" height="340" xmlns="http://www.w3.org/2000/svg" xmlns:xlink="http://www.w3.org/1999/xlink" overflow="hidden"><defs><clipPath id="clip0"><rect x="145" y="61" width="990" height="340"/></clipPath><clipPath id="clip1"><rect x="146" y="17" width="183" height="136"/></clipPath><clipPath id="clip2"><rect x="329" y="17" width="200" height="136"/></clipPath><clipPath id="clip3"><rect x="529" y="17" width="192" height="136"/></clipPath><clipPath id="clip4"><rect x="721" y="17" width="196" height="136"/></clipPath><clipPath id="clip5"><rect x="917" y="17" width="217" height="136"/></clipPath><clipPath id="clip6"><rect x="146" y="-748" width="183" height="2002"/></clipPath><clipPath id="clip7"><rect x="146" y="-748" width="183" height="2002"/></clipPath><clipPath id="clip8"><rect x="146" y="-748" width="183" height="2002"/></clipPath><clipPath id="clip9"><rect x="146" y="-748" width="183" height="2002"/></clipPath><clipPath id="clip10"><rect x="146" y="-748" width="183" height="2002"/></clipPath><clipPath id="clip11"><rect x="146" y="-748" width="183" height="2002"/></clipPath><clipPath id="clip12"><rect x="146" y="-748" width="183" height="2002"/></clipPath><clipPath id="clip13"><rect x="146" y="-748" width="183" height="2002"/></clipPath><clipPath id="clip14"><rect x="146" y="-748" width="183" height="2002"/></clipPath><clipPath id="clip15"><rect x="146" y="-748" width="183" height="2002"/></clipPath><clipPath id="clip16"><rect x="329" y="-388" width="200" height="1162"/></clipPath><clipPath id="clip17"><rect x="329" y="-388" width="200" height="1162"/></clipPath><clipPath id="clip18"><rect x="329" y="-388" width="200" height="1162"/></clipPath><clipPath id="clip19"><rect x="329" y="-388" width="200" height="1162"/></clipPath><clipPath id="clip20"><rect x="329" y="-388" width="200" height="1162"/></clipPath><clipPath id="clip21"><rect x="529" y="-388" width="192" height="1162"/></clipPath><clipPath id="clip22"><rect x="529" y="-388" width="192" height="1162"/></clipPath><clipPath id="clip23"><rect x="529" y="-388" width="192" height="1162"/></clipPath><clipPath id="clip24"><rect x="529" y="-388" width="192" height="1162"/></clipPath><clipPath id="clip25"><rect x="529" y="-388" width="192" height="1162"/></clipPath><clipPath id="clip26"><rect x="721" y="-526" width="196" height="1484"/></clipPath><clipPath id="clip27"><rect x="721" y="-526" width="196" height="1484"/></clipPath><clipPath id="clip28"><rect x="721" y="-526" width="196" height="1484"/></clipPath><clipPath id="clip29"><rect x="721" y="-526" width="196" height="1484"/></clipPath><clipPath id="clip30"><rect x="721" y="-526" width="196" height="1484"/></clipPath><clipPath id="clip31"><rect x="721" y="-526" width="196" height="1484"/></clipPath><clipPath id="clip32"><rect x="721" y="-526" width="196" height="1484"/></clipPath><clipPath id="clip33"><rect x="917" y="-388" width="217" height="1162"/></clipPath><clipPath id="clip34"><rect x="917" y="-388" width="217" height="1162"/></clipPath><clipPath id="clip35"><rect x="917" y="-388" width="217" height="1162"/></clipPath><clipPath id="clip36"><rect x="917" y="-388" width="217" height="1162"/></clipPath><clipPath id="clip37"><rect x="917" y="-388" width="217" height="1162"/></clipPath></defs><g clip-path="url(#clip0)" transform="translate(-145 -61)"><path d="M146 62.67 1134 62.67" stroke="#70AD47" stroke-width="1.33333" stroke-linejoin="round" stroke-miterlimit="10" fill="none" fill-rule="evenodd"/><path d="M146 399.49 1134 399.49" stroke="#70AD47" stroke-width="1.33333" stroke-linejoin="round" stroke-miterlimit="10" fill="none" fill-rule="evenodd"/><g clip-path="url(#clip1)"><text font-family="Calibri,Calibri_MSFontService,sans-serif" font-weight="700" font-size="16" transform="translate(146.579 90)">Add Value for Land Cover</text></g><path d="M146.579 92.3597 188.579 92.3597 230.579 92.3597 272.579 92.3597 314.579 92.3597 314.579 93.3597 272.579 93.3597 230.579 93.3597 188.579 93.3597 146.579 93.3597Z" fill-rule="evenodd"/><g clip-path="url(#clip2)"><text font-family="Calibri,Calibri_MSFontService,sans-serif" font-weight="700" font-size="16" transform="translate(329.579 90)">Add LC to Polygon</text></g><path d="M329.579 92.3597 369.579 92.3597 409.579 92.3597 449.579 92.3597 449.579 93.3597 409.579 93.3597 369.579 93.3597 329.579 93.3597Z" fill-rule="evenodd"/><g clip-path="url(#clip3)"><text font-family="Calibri,Calibri_MSFontService,sans-serif" font-weight="700" font-size="16" transform="translate(529.579 90)">Add Slope to Polygon</text></g><path d="M529.579 92.3597 576.913 92.3597 624.246 92.3597 671.579 92.3597 671.579 93.3597 624.246 93.3597 576.913 93.3597 529.579 93.3597Z" fill-rule="evenodd"/><g clip-path="url(#clip4)"><text font-family="Calibri,Calibri_MSFontService,sans-serif" font-weight="700" font-size="16" transform="translate(721.579 90)">Rec Slope Percent</text></g><path d="M721.579 92.3597 760.913 92.3597 800.246 92.3597 839.579 92.3597 839.579 93.3597 800.246 93.3597 760.913 93.3597 721.579 93.3597Z" fill-rule="evenodd"/><g clip-path="url(#clip5)"><text font-family="Calibri,Calibri_MSFontService,sans-serif" font-weight="700" font-size="16" transform="translate(917.579 90)">Weighted Sum MR &amp; SR</text></g><path d="M917.579 92.3597 970.579 92.3597 1023.58 92.3597 1076.58 92.3597 1076.58 93.3597 1023.58 93.3597 970.579 93.3597 917.579 93.3597Z" fill-rule="evenodd"/><g clip-path="url(#clip6)"><text font-family="Calibri,Calibri_MSFontService,sans-serif" font-weight="400" font-size="15" transform="translate(146.579 124)">1.</text></g><text font-family="Calibri,Calibri_MSFontService,sans-serif" font-weight="400" font-size="15" transform="translate(160.979 124)">​<tspan font-weight="700" font-size="15" x="0" y="0">Raster layer</tspan><tspan font-size="15" x="72.6667" y="0">: Land Cover</tspan></text><g clip-path="url(#clip7)"><text font-family="Calibri,Calibri_MSFontService,sans-serif" font-weight="400" font-size="15" transform="translate(146.579 152)">2.</text></g><text font-family="Calibri,Calibri_MSFontService,sans-serif" font-weight="400" font-size="15" transform="translate(160.979 152)">​<tspan font-weight="700" font-size="15" x="0" y="0">Band number</tspan><tspan font-size="15" x="82.3333" y="0">: 1</tspan></text><g clip-path="url(#clip8)"><text font-family="Calibri,Calibri_MSFontService,sans-serif" font-weight="400" font-size="15" transform="translate(146.579 180)">3.</text></g><text font-family="Calibri,Calibri_MSFontService,sans-serif" font-weight="400" font-size="15" transform="translate(160.979 180)">​<tspan font-weight="700" font-size="15" x="0" y="0">Output column name</tspan></text><g clip-path="url(#clip9)"><text font-family="Calibri,Calibri_MSFontService,sans-serif" font-weight="400" font-size="15" transform="translate(291.146 180)">: Add </text></g><text font-family="Calibri,Calibri_MSFontService,sans-serif" font-weight="400" font-size="15" transform="translate(160.979 198)">Value for Land Cover</text><g clip-path="url(#clip10)"><text font-family="Calibri,Calibri_MSFontService,sans-serif" font-weight="400" font-size="15" transform="translate(146.579 226)">4.</text></g><text font-family="Calibri,Calibri_MSFontService,sans-serif" font-weight="400" font-size="15" transform="translate(160.979 226)">​<tspan font-weight="700" font-size="15" x="0" y="0">Output no data value</tspan>: <tspan font-size="15" x="137.167" y="0">-</tspan><tspan font-size="15" x="0" y="18">9999</tspan></text><g clip-path="url(#clip11)"><text font-family="Calibri,Calibri_MSFontService,sans-serif" font-weight="400" font-size="15" transform="translate(146.579 272)">5.</text></g><text font-family="Calibri,Calibri_MSFontService,sans-serif" font-weight="400" font-size="15" transform="translate(160.979 272)">​<tspan font-weight="700" font-size="15" x="0" y="0">Range boundaries:</tspan></text><g clip-path="url(#clip12)"><text font-family="Calibri,Calibri_MSFontService,sans-serif" font-weight="400" font-size="15" transform="translate(277.646 272)">min &lt;= </text></g><text font-family="Calibri,Calibri_MSFontService,sans-serif" font-weight="400" font-size="15" transform="translate(160.979 290)">value &lt; max</text><g clip-path="url(#clip13)"><text font-family="Calibri,Calibri_MSFontService,sans-serif" font-weight="400" font-size="15" transform="translate(146.579 318)">6.</text></g><text font-family="Calibri,Calibri_MSFontService,sans-serif" font-weight="400" font-size="15" transform="translate(160.979 318)">​</text><g clip-path="url(#clip14)"><text font-family="Calibri,Calibri_MSFontService,sans-serif" font-weight="700" font-size="15" transform="translate(160.979 318)">Use no data when no range </text></g><text font-family="Calibri,Calibri_MSFontService,sans-serif" font-weight="700" font-size="15" transform="translate(160.979 335)">matches value<tspan font-weight="400" font-size="15" x="87.8333" y="0">: Yes</tspan></text><g clip-path="url(#clip15)"><text font-family="Calibri,Calibri_MSFontService,sans-serif" font-weight="400" font-size="15" transform="translate(146.579 364)">7.</text></g><text font-family="Calibri,Calibri_MSFontService,sans-serif" font-weight="400" font-size="15" transform="translate(160.979 364)">​<tspan font-weight="700" font-size="15" x="0" y="0">Output data type</tspan>: Float32</text><g clip-path="url(#clip16)"><text font-family="Calibri,Calibri_MSFontService,sans-serif" font-weight="400" font-size="15" transform="translate(329.579 124)">1.</text></g><text font-family="Calibri,Calibri_MSFontService,sans-serif" font-weight="400" font-size="15" transform="translate(343.979 124)">​<tspan font-weight="700" font-size="15" x="0" y="0">​​Input layer</tspan><tspan font-size="15" x="66.1667" y="0">: Input layer</tspan></text><g clip-path="url(#clip17)"><text font-family="Calibri,Calibri_MSFontService,sans-serif" font-weight="400" font-size="15" transform="translate(329.579 152)">2.</text></g><text font-family="Calibri,Calibri_MSFontService,sans-serif" font-weight="400" font-size="15" transform="translate(343.979 152)">​<tspan font-weight="700" font-size="15" x="0" y="0">​Raster layer</tspan><tspan font-size="15" x="72.6667" y="0">:</tspan><tspan font-size="15" x="80" y="0">'Reclassified </tspan><tspan font-size="15" x="0" y="18">raster' from algorithm 'Add </tspan><tspan font-size="15" x="0" y="35">Value for Land Cover’</tspan></text><g clip-path="url(#clip18)"><text font-family="Calibri,Calibri_MSFontService,sans-serif" font-weight="400" font-size="15" transform="translate(329.579 215)">3.</text></g><text font-family="Calibri,Calibri_MSFontService,sans-serif" font-weight="400" font-size="15" transform="translate(343.979 215)">​<tspan font-weight="700" font-size="15" x="0" y="0">​Types of statistics</tspan>: mean</text><g clip-path="url(#clip19)"><text font-family="Calibri,Calibri_MSFontService,sans-serif" font-weight="400" font-size="15" transform="translate(329.579 244)">4.</text></g><text font-family="Calibri,Calibri_MSFontService,sans-serif" font-weight="400" font-size="15" transform="translate(343.979 244)">​<tspan font-weight="700" font-size="15" x="0" y="0">Output column prefix</tspan><tspan font-size="15" x="131.167" y="0">: LC</tspan></text><g clip-path="url(#clip20)"><text font-family="Calibri,Calibri_MSFontService,sans-serif" font-weight="400" font-size="15" transform="translate(329.579 272)">5.</text></g><text font-family="Calibri,Calibri_MSFontService,sans-serif" font-weight="400" font-size="15" transform="translate(343.979 272)">​<tspan font-weight="700" font-size="15" x="0" y="0">​​No data value</tspan><tspan font-size="15" x="84.5" y="0">: </tspan><tspan font-size="15" x="91.8333" y="0">-</tspan>9999</text><g clip-path="url(#clip21)"><text font-family="Calibri,Calibri_MSFontService,sans-serif" font-weight="400" font-size="15" transform="translate(529.579 124)">1.</text></g><text font-family="Calibri,Calibri_MSFontService,sans-serif" font-weight="400" font-size="15" transform="translate(543.979 124)">​<tspan font-weight="700" font-size="15" x="0" y="0">Input layer</tspan><tspan font-size="15" x="66.1667" y="0">: 'Output layer' </tspan><tspan font-size="15" x="0" y="17">from algorithm 'Add LC to </tspan><tspan font-size="15" x="0" y="35">Polygon’</tspan></text><g clip-path="url(#clip22)"><text font-family="Calibri,Calibri_MSFontService,sans-serif" font-weight="400" font-size="15" transform="translate(529.579 187)">2.</text></g><text font-family="Calibri,Calibri_MSFontService,sans-serif" font-weight="400" font-size="15" transform="translate(543.979 187)">​<tspan font-weight="700" font-size="15" x="0" y="0">Raster layer</tspan><tspan font-size="15" x="72.6667" y="0">: Slope</tspan></text><g clip-path="url(#clip23)"><text font-family="Calibri,Calibri_MSFontService,sans-serif" font-weight="400" font-size="15" transform="translate(529.579 215)">3.</text></g><text font-family="Calibri,Calibri_MSFontService,sans-serif" font-weight="400" font-size="15" transform="translate(543.979 215)">​<tspan font-weight="700" font-size="15" x="0" y="0">Types of statistics</tspan><tspan font-size="15" x="108.167" y="0">: mean</tspan></text><g clip-path="url(#clip24)"><text font-family="Calibri,Calibri_MSFontService,sans-serif" font-weight="400" font-size="15" transform="translate(529.579 244)">4.</text></g><text font-family="Calibri,Calibri_MSFontService,sans-serif" font-weight="400" font-size="15" transform="translate(543.979 244)">​<tspan font-weight="700" font-size="15" x="0" y="0">Output column prefix</tspan><tspan font-size="15" x="131.167" y="0">: </tspan><tspan font-size="15" x="138.5" y="0">Slp</tspan></text><g clip-path="url(#clip25)"><text font-family="Calibri,Calibri_MSFontService,sans-serif" font-weight="400" font-size="15" transform="translate(529.579 272)">5.</text></g><text font-family="Calibri,Calibri_MSFontService,sans-serif" font-weight="400" font-size="15" transform="translate(543.979 272)">​<tspan font-weight="700" font-size="15" x="0" y="0">No data value</tspan><tspan font-size="15" x="84.5" y="0">: Not set</tspan></text><g clip-path="url(#clip26)"><text font-family="Calibri,Calibri_MSFontService,sans-serif" font-weight="400" font-size="15" transform="translate(721.579 124)">1.</text></g><text font-family="Calibri,Calibri_MSFontService,sans-serif" font-weight="400" font-size="15" transform="translate(735.979 124)">​<tspan font-weight="700" font-size="15" x="0" y="0">Input layer</tspan><tspan font-size="15" x="66.1667" y="0">: 'Output layer' </tspan></text><g clip-path="url(#clip27)"><text font-family="Calibri,Calibri_MSFontService,sans-serif" font-weight="400" font-size="15" transform="translate(735.979 141)">from algorithm 'Add Slope to </text></g><text font-family="Calibri,Calibri_MSFontService,sans-serif" font-weight="400" font-size="15" transform="translate(735.979 159)">Polygon’</text><g clip-path="url(#clip28)"><text font-family="Calibri,Calibri_MSFontService,sans-serif" font-weight="400" font-size="15" transform="translate(721.579 187)">2.</text></g><text font-family="Calibri,Calibri_MSFontService,sans-serif" font-weight="400" font-size="15" transform="translate(735.979 187)">​<tspan font-weight="700" font-size="15" x="0" y="0">​Field to reclassify</tspan><tspan font-size="15" x="105.333" y="0">:</tspan><tspan font-size="15" x="112.667" y="0">S</tspan><tspan font-size="15" x="119.333" y="0">lp_mean</tspan></text><g clip-path="url(#clip29)"><text font-family="Calibri,Calibri_MSFontService,sans-serif" font-weight="400" font-size="15" transform="translate(721.579 215)">3.</text></g><text font-family="Calibri,Calibri_MSFontService,sans-serif" font-weight="400" font-size="15" transform="translate(735.979 215)">​<tspan font-weight="700" font-size="15" x="0" y="0">​Old values</tspan><tspan font-size="15" x="63.6667" y="0">: Parameters for </tspan><tspan font-size="15" x="0" y="18">LCC</tspan></text><g clip-path="url(#clip30)"><text font-family="Calibri,Calibri_MSFontService,sans-serif" font-weight="400" font-size="15" transform="translate(721.579 261)">4.</text></g><text font-family="Calibri,Calibri_MSFontService,sans-serif" font-weight="400" font-size="15" transform="translate(735.979 261)">​<tspan font-weight="700" font-size="15" x="0" y="0">New values</tspan><tspan font-size="15" x="70.1667" y="0">: LCC Classes</tspan></text><g clip-path="url(#clip31)"><text font-family="Calibri,Calibri_MSFontService,sans-serif" font-weight="400" font-size="15" transform="translate(721.579 290)">5.</text></g><text font-family="Calibri,Calibri_MSFontService,sans-serif" font-weight="400" font-size="15" transform="translate(735.979 290)">​<tspan font-weight="700" font-size="15" x="0" y="0">No data value</tspan><tspan font-size="15" x="84.5" y="0">: 255</tspan></text><g clip-path="url(#clip32)"><text font-family="Calibri,Calibri_MSFontService,sans-serif" font-weight="400" font-size="15" transform="translate(721.579 318)">6.</text></g><text font-family="Calibri,Calibri_MSFontService,sans-serif" font-weight="400" font-size="15" transform="translate(735.979 318)">​<tspan font-weight="700" font-size="15" x="0" y="0">Output column name</tspan><tspan font-size="15" x="130.167" y="0">: </tspan><tspan font-size="15" x="137.5" y="0">Slp_r</tspan></text><g clip-path="url(#clip33)"><text font-family="Calibri,Calibri_MSFontService,sans-serif" font-weight="400" font-size="15" transform="translate(917.579 124)">1.</text></g><text font-family="Calibri,Calibri_MSFontService,sans-serif" font-weight="400" font-size="15" transform="translate(931.979 124)">​<tspan font-weight="700" font-size="15" x="0" y="0">Input layer</tspan><tspan font-size="15" x="66.1667" y="0">: 'Output layer' from </tspan><tspan font-size="15" x="0" y="17">algorithm 'Rec Slope Percent’</tspan></text><g clip-path="url(#clip34)"><text font-family="Calibri,Calibri_MSFontService,sans-serif" font-weight="400" font-size="15" transform="translate(917.579 170)">2.</text></g><text font-family="Calibri,Calibri_MSFontService,sans-serif" font-weight="400" font-size="15" transform="translate(931.979 170)">​<tspan font-weight="700" font-size="15" x="0" y="0">Fields</tspan>: LC_mean;Slp_r</text><g clip-path="url(#clip35)"><text font-family="Calibri,Calibri_MSFontService,sans-serif" font-weight="400" font-size="15" transform="translate(917.579 198)">3.</text></g><text font-family="Calibri,Calibri_MSFontService,sans-serif" font-weight="400" font-size="15" transform="translate(931.979 198)">​<tspan font-weight="700" font-size="15" x="0" y="0">Weights</tspan><tspan font-size="15" x="50.1667" y="0">: Weight by LC Slop</tspan></text><g clip-path="url(#clip36)"><text font-family="Calibri,Calibri_MSFontService,sans-serif" font-weight="400" font-size="15" transform="translate(917.579 226)">4.</text></g><text font-family="Calibri,Calibri_MSFontService,sans-serif" font-weight="400" font-size="15" transform="translate(931.979 226)">​<tspan font-weight="700" font-size="15" x="0" y="0">Output field name</tspan><tspan font-size="15" x="112" y="0">: </tspan><tspan font-size="15" x="119.333" y="0">LandCondit</tspan></text><g clip-path="url(#clip37)"><text font-family="Calibri,Calibri_MSFontService,sans-serif" font-weight="400" font-size="15" transform="translate(917.579 254)">5.</text></g><text font-family="Calibri,Calibri_MSFontService,sans-serif" font-weight="400" font-size="15" transform="translate(931.979 254)">​<tspan font-weight="700" font-size="15" x="0" y="0">Output layer</tspan>: <tspan font-size="15" x="0" y="18">rcrp_LandCondition</tspan></text></g></svg>