<svg width="990" height="601" xmlns="http://www.w3.org/2000/svg" xmlns:xlink="http://www.w3.org/1999/xlink" overflow="hidden"><defs><clipPath id="clip0"><rect x="58" y="66" width="990" height="601"/></clipPath><clipPath id="clip1"><rect x="58" y="22" width="231" height="135"/></clipPath><clipPath id="clip2"><rect x="288" y="22" width="272" height="135"/></clipPath><clipPath id="clip3"><rect x="559" y="22" width="245" height="135"/></clipPath><clipPath id="clip4"><rect x="803" y="22" width="241" height="135"/></clipPath><clipPath id="clip5"><rect x="58" y="-278" width="231" height="916"/></clipPath><clipPath id="clip6"><rect x="58" y="-278" width="231" height="916"/></clipPath><clipPath id="clip7"><rect x="58" y="-278" width="231" height="916"/></clipPath><clipPath id="clip8"><rect x="58" y="-278" width="231" height="916"/></clipPath><clipPath id="clip9"><rect x="58" y="-278" width="231" height="916"/></clipPath><clipPath id="clip10"><rect x="288" y="-416" width="272" height="1237"/></clipPath><clipPath id="clip11"><rect x="288" y="-416" width="272" height="1237"/></clipPath><clipPath id="clip12"><rect x="288" y="-416" width="272" height="1237"/></clipPath><clipPath id="clip13"><rect x="288" y="-416" width="272" height="1237"/></clipPath><clipPath id="clip14"><rect x="288" y="-416" width="272" height="1237"/></clipPath><clipPath id="clip15"><rect x="288" y="-416" width="272" height="1237"/></clipPath><clipPath id="clip16"><rect x="559" y="-331" width="245" height="1039"/></clipPath><clipPath id="clip17"><rect x="559" y="-331" width="245" height="1039"/></clipPath><clipPath id="clip18"><rect x="559" y="-331" width="245" height="1039"/></clipPath><clipPath id="clip19"><rect x="559" y="-331" width="245" height="1039"/></clipPath><clipPath id="clip20"><rect x="559" y="-331" width="245" height="1039"/></clipPath><clipPath id="clip21"><rect x="803" y="-416" width="241" height="1237"/></clipPath><clipPath id="clip22"><rect x="803" y="-416" width="241" height="1237"/></clipPath><clipPath id="clip23"><rect x="803" y="-416" width="241" height="1237"/></clipPath><clipPath id="clip24"><rect x="803" y="-416" width="241" height="1237"/></clipPath><clipPath id="clip25"><rect x="803" y="-416" width="241" height="1237"/></clipPath><clipPath id="clip26"><rect x="803" y="-416" width="241" height="1237"/></clipPath><clipPath id="clip27"><rect x="58" y="258" width="179" height="135"/></clipPath><clipPath id="clip28"><rect x="236" y="258" width="178" height="135"/></clipPath><clipPath id="clip29"><rect x="413" y="258" width="231" height="135"/></clipPath><clipPath id="clip30"><rect x="643" y="258" width="196" height="135"/></clipPath><clipPath id="clip31"><rect x="838" y="258" width="209" height="135"/></clipPath><clipPath id="clip32"><rect x="58" y="-305" width="179" height="1531"/></clipPath><clipPath id="clip33"><rect x="58" y="-305" width="179" height="1531"/></clipPath><clipPath id="clip34"><rect x="58" y="-305" width="179" height="1531"/></clipPath><clipPath id="clip35"><rect x="58" y="-305" width="179" height="1531"/></clipPath><clipPath id="clip36"><rect x="58" y="-305" width="179" height="1531"/></clipPath><clipPath id="clip37"><rect x="236" y="-548" width="178" height="2099"/></clipPath><clipPath id="clip38"><rect x="236" y="-548" width="178" height="2099"/></clipPath><clipPath id="clip39"><rect x="236" y="-548" width="178" height="2099"/></clipPath><clipPath id="clip40"><rect x="236" y="-548" width="178" height="2099"/></clipPath><clipPath id="clip41"><rect x="236" y="-548" width="178" height="2099"/></clipPath><clipPath id="clip42"><rect x="236" y="-548" width="178" height="2099"/></clipPath><clipPath id="clip43"><rect x="236" y="-548" width="178" height="2099"/></clipPath><clipPath id="clip44"><rect x="413" y="-558" width="231" height="2122"/></clipPath><clipPath id="clip45"><rect x="413" y="-558" width="231" height="2122"/></clipPath><clipPath id="clip46"><rect x="413" y="-558" width="231" height="2122"/></clipPath><clipPath id="clip47"><rect x="413" y="-558" width="231" height="2122"/></clipPath><clipPath id="clip48"><rect x="413" y="-558" width="231" height="2122"/></clipPath><clipPath id="clip49"><rect x="643" y="-452" width="196" height="1875"/></clipPath><clipPath id="clip50"><rect x="643" y="-452" width="196" height="1875"/></clipPath><clipPath id="clip51"><rect x="643" y="-452" width="196" height="1875"/></clipPath><clipPath id="clip52"><rect x="838" y="-516" width="209" height="2024"/></clipPath><clipPath id="clip53"><rect x="838" y="-516" width="209" height="2024"/></clipPath><clipPath id="clip54"><rect x="838" y="-516" width="209" height="2024"/></clipPath><clipPath id="clip55"><rect x="838" y="-516" width="209" height="2024"/></clipPath><clipPath id="clip56"><rect x="838" y="-516" width="209" height="2024"/></clipPath><clipPath id="clip57"><rect x="838" y="-516" width="209" height="2024"/></clipPath><clipPath id="clip58"><rect x="838" y="-516" width="209" height="2024"/></clipPath><clipPath id="clip59"><rect x="838" y="-516" width="209" height="2024"/></clipPath></defs><g clip-path="url(#clip0)" transform="translate(-58 -66)"><path d="M58.6493 67.0826 1043.56 67.0826" stroke="#70AD47" stroke-width="1.33333" stroke-linejoin="round" stroke-miterlimit="10" fill="none" fill-rule="evenodd"/><path d="M58.6493 299.45 1043.56 299.45" stroke="#70AD47" stroke-width="1.33333" stroke-linejoin="round" stroke-miterlimit="10" fill="none" fill-rule="evenodd"/><g clip-path="url(#clip1)"><text font-family="Calibri,Calibri_MSFontService,sans-serif" font-weight="700" font-size="16" transform="translate(59.2288 95)">Root Zone Depth</text></g><path d="M59.2288 96.7723 115.729 96.7723 172.229 96.7723 172.229 97.7723 115.729 97.7723 59.2288 97.7723Z" fill-rule="evenodd"/><g clip-path="url(#clip2)"><text font-family="Calibri,Calibri_MSFontService,sans-serif" font-weight="700" font-size="16" transform="translate(288.579 95)">Rec RZD</text></g><path d="M288.579 96.7723 342.579 96.7723 342.579 97.7723 288.579 97.7723Z" fill-rule="evenodd"/><g clip-path="url(#clip3)"><text font-family="Calibri,Calibri_MSFontService,sans-serif" font-weight="700" font-size="16" transform="translate(559.69 95)">Drainage</text></g><path d="M559.69 96.7723 618.69 96.7723 618.69 97.7723 559.69 97.7723Z" fill-rule="evenodd"/><g clip-path="url(#clip4)"><text font-family="Calibri,Calibri_MSFontService,sans-serif" font-weight="700" font-size="16" transform="translate(804.135 95)">Rec Drainage</text></g><path d="M804.135 96.7723 847.135 96.7723 890.135 96.7723 890.135 97.7723 847.135 97.7723 804.135 97.7723Z" fill-rule="evenodd"/><g clip-path="url(#clip5)"><text font-family="Calibri,Calibri_MSFontService,sans-serif" font-weight="400" font-size="15" transform="translate(59.2288 129)">1.</text></g><text font-family="Calibri,Calibri_MSFontService,sans-serif" font-weight="400" font-size="15" transform="translate(73.6288 129)">​<tspan font-weight="700" font-size="15" x="0" y="0">Input layer</tspan><tspan font-size="15" x="66.1667" y="0">: Input Polygon</tspan></text><g clip-path="url(#clip6)"><text font-family="Calibri,Calibri_MSFontService,sans-serif" font-weight="400" font-size="15" transform="translate(59.2288 157)">2.</text></g><text font-family="Calibri,Calibri_MSFontService,sans-serif" font-weight="400" font-size="15" transform="translate(73.6288 157)">​<tspan font-weight="700" font-size="15" x="0" y="0">Raster layer</tspan><tspan font-size="15" x="72.6667" y="0">: Root Zone Depth</tspan></text><g clip-path="url(#clip7)"><text font-family="Calibri,Calibri_MSFontService,sans-serif" font-weight="400" font-size="15" transform="translate(59.2288 185)">3. </text></g><text font-family="Calibri,Calibri_MSFontService,sans-serif" font-weight="700" font-size="15" transform="translate(73.7288 185)">Types of Statistics:<tspan font-weight="400" font-size="15" x="116.667" y="0">mean</tspan></text><g clip-path="url(#clip8)"><text font-family="Calibri,Calibri_MSFontService,sans-serif" font-weight="400" font-size="15" transform="translate(59.2288 213)">4. </text></g><text font-family="Calibri,Calibri_MSFontService,sans-serif" font-weight="700" font-size="15" transform="translate(73.7288 213)">Output column prefix: <tspan font-weight="400" font-size="15" x="138.5" y="0">RZD</tspan></text><g clip-path="url(#clip9)"><text font-family="Calibri,Calibri_MSFontService,sans-serif" font-weight="400" font-size="15" transform="translate(59.2288 242)">5. </text></g><text font-family="Calibri,Calibri_MSFontService,sans-serif" font-weight="700" font-size="15" transform="translate(73.7288 242)">No data value: <tspan font-weight="400" font-size="15" x="91.8333" y="0">255</tspan></text><g clip-path="url(#clip10)"><text font-family="Calibri,Calibri_MSFontService,sans-serif" font-weight="400" font-size="15" transform="translate(288.579 129)">1.</text></g><text font-family="Calibri,Calibri_MSFontService,sans-serif" font-weight="400" font-size="15" transform="translate(302.979 129)">​<tspan font-weight="700" font-size="15" x="0" y="0">​​Input layer</tspan><tspan font-size="15" x="66.1667" y="0">: 'Output layer' </tspan><tspan font-size="15" x="158.333" y="0">from</tspan><tspan font-size="15" x="0" y="17">algorithm </tspan><tspan font-size="15" x="60.8333" y="17">'Root Zone Depth'</tspan></text><g clip-path="url(#clip11)"><text font-family="Calibri,Calibri_MSFontService,sans-serif" font-weight="400" font-size="15" transform="translate(288.579 175)">2.</text></g><text font-family="Calibri,Calibri_MSFontService,sans-serif" font-weight="400" font-size="15" transform="translate(302.979 175)">​<tspan font-weight="700" font-size="15" x="0" y="0">​Field to</tspan><tspan font-weight="700" font-size="15" x="48.8333" y="0">reclassify</tspan>:<tspan font-size="15" x="112.667" y="0">RZD_mean</tspan></text><g clip-path="url(#clip12)"><text font-family="Calibri,Calibri_MSFontService,sans-serif" font-weight="400" font-size="15" transform="translate(288.579 203)">3.</text></g><text font-family="Calibri,Calibri_MSFontService,sans-serif" font-weight="400" font-size="15" transform="translate(302.979 203)">​<tspan font-weight="700" font-size="15" x="0" y="0">​Old values</tspan><tspan font-size="15" x="63.6667" y="0">: 0</tspan><tspan font-size="15" x="78.5" y="0">-</tspan>15, 15-45, 45-60, 60-150​</text><g clip-path="url(#clip13)"><text font-family="Calibri,Calibri_MSFontService,sans-serif" font-weight="400" font-size="15" transform="translate(288.579 231)">4. </text></g><text font-family="Calibri,Calibri_MSFontService,sans-serif" font-weight="700" font-size="15" transform="translate(303.079 231)">New values: <tspan font-weight="400" font-size="15" x="77.5" y="0">3, 5, 7, 9</tspan></text><g clip-path="url(#clip14)"><text font-family="Calibri,Calibri_MSFontService,sans-serif" font-weight="400" font-size="15" transform="translate(288.579 259)">5. </text></g><text font-family="Calibri,Calibri_MSFontService,sans-serif" font-weight="700" font-size="15" transform="translate(303.079 259)">N<tspan font-size="15" x="9.66666" y="0">o data value: </tspan><tspan font-weight="400" font-size="15" x="91.8333" y="0">0</tspan></text><g clip-path="url(#clip15)"><text font-family="Calibri,Calibri_MSFontService,sans-serif" font-weight="400" font-size="15" transform="translate(288.579 288)">6. ​</text></g><text font-family="Calibri,Calibri_MSFontService,sans-serif" font-weight="700" font-size="15" transform="translate(303.079 288)">​​Output column name<tspan font-weight="400" font-size="15" x="130.167" y="0">: </tspan><tspan font-weight="400" font-size="15" x="137.5" y="0">RZD_r</tspan></text><g clip-path="url(#clip16)"><text font-family="Calibri,Calibri_MSFontService,sans-serif" font-weight="400" font-size="15" transform="translate(559.69 129)">1.</text></g><text font-family="Calibri,Calibri_MSFontService,sans-serif" font-weight="400" font-size="15" transform="translate(574.091 129)">​<tspan font-weight="700" font-size="15" x="0" y="0">Input layer</tspan><tspan font-size="15" x="66.1666" y="0">: 'Output layer' from </tspan><tspan font-size="15" x="0" y="17">algorithm 'Rec RZD’</tspan></text><g clip-path="url(#clip17)"><text font-family="Calibri,Calibri_MSFontService,sans-serif" font-weight="400" font-size="15" transform="translate(559.69 175)">2.</text></g><text font-family="Calibri,Calibri_MSFontService,sans-serif" font-weight="400" font-size="15" transform="translate(574.091 175)">​<tspan font-weight="700" font-size="15" x="0" y="0">Raster layer</tspan><tspan font-size="15" x="72.6666" y="0">: Drainage</tspan></text><g clip-path="url(#clip18)"><text font-family="Calibri,Calibri_MSFontService,sans-serif" font-weight="400" font-size="15" transform="translate(559.69 203)">3. </text></g><text font-family="Calibri,Calibri_MSFontService,sans-serif" font-weight="700" font-size="15" transform="translate(574.19 203)">Types of Statistics:<tspan font-weight="400" font-size="15" x="116.667" y="0">mean</tspan></text><g clip-path="url(#clip19)"><text font-family="Calibri,Calibri_MSFontService,sans-serif" font-weight="400" font-size="15" transform="translate(559.69 231)">4. </text></g><text font-family="Calibri,Calibri_MSFontService,sans-serif" font-weight="700" font-size="15" transform="translate(574.19 231)">Output column prefix: <tspan font-weight="400" font-size="15" x="138.5" y="0">Drain</tspan></text><g clip-path="url(#clip20)"><text font-family="Calibri,Calibri_MSFontService,sans-serif" font-weight="400" font-size="15" transform="translate(559.69 259)">5. </text></g><text font-family="Calibri,Calibri_MSFontService,sans-serif" font-weight="700" font-size="15" transform="translate(574.19 259)">No data value: <tspan font-weight="400" font-size="15" x="91.8334" y="0">255</tspan></text><g clip-path="url(#clip21)"><text font-family="Calibri,Calibri_MSFontService,sans-serif" font-weight="400" font-size="15" transform="translate(804.135 129)">1.</text></g><text font-family="Calibri,Calibri_MSFontService,sans-serif" font-weight="400" font-size="15" transform="translate(818.535 129)">​<tspan font-weight="700" font-size="15" x="0" y="0">​​Input layer</tspan><tspan font-size="15" x="66.1666" y="0">: 'Output layer' from </tspan><tspan font-size="15" x="0" y="17">algorithm 'Drainage’</tspan></text><g clip-path="url(#clip22)"><text font-family="Calibri,Calibri_MSFontService,sans-serif" font-weight="400" font-size="15" transform="translate(804.135 175)">2.</text></g><text font-family="Calibri,Calibri_MSFontService,sans-serif" font-weight="400" font-size="15" transform="translate(818.535 175)">​<tspan font-weight="700" font-size="15" x="0" y="0">​Field to</tspan><tspan font-weight="700" font-size="15" x="48.8333" y="0">reclassify</tspan>:<tspan font-size="15" x="112.667" y="0">Drain_mean</tspan></text><g clip-path="url(#clip23)"><text font-family="Calibri,Calibri_MSFontService,sans-serif" font-weight="400" font-size="15" transform="translate(804.135 203)">3.</text></g><text font-family="Calibri,Calibri_MSFontService,sans-serif" font-weight="400" font-size="15" transform="translate(818.535 203)">​<tspan font-weight="700" font-size="15" x="0" y="0">​Old values</tspan><tspan font-size="15" x="63.6666" y="0">: 3</tspan><tspan font-size="15" x="78.5" y="0">-</tspan>3.5, 3.5<tspan font-size="15" x="127.333" y="0">-</tspan>4.5, 4.5<tspan font-size="15" x="176.167" y="0">-</tspan>5</text><g clip-path="url(#clip24)"><text font-family="Calibri,Calibri_MSFontService,sans-serif" font-weight="400" font-size="15" transform="translate(804.135 231)">4. </text></g><text font-family="Calibri,Calibri_MSFontService,sans-serif" font-weight="700" font-size="15" transform="translate(818.635 231)">New values<tspan font-weight="400" font-size="15" x="70.1667" y="0">: 3, 7, 9 </tspan></text><g clip-path="url(#clip25)"><text font-family="Calibri,Calibri_MSFontService,sans-serif" font-weight="400" font-size="15" transform="translate(804.135 259)">5. </text></g><text font-family="Calibri,Calibri_MSFontService,sans-serif" font-weight="700" font-size="15" transform="translate(818.635 259)">N<tspan font-size="15" x="9.66669" y="0">o data value: </tspan><tspan font-weight="400" font-size="15" x="91.8333" y="0">0</tspan></text><g clip-path="url(#clip26)"><text font-family="Calibri,Calibri_MSFontService,sans-serif" font-weight="400" font-size="15" transform="translate(804.135 288)">6. ​</text></g><text font-family="Calibri,Calibri_MSFontService,sans-serif" font-weight="700" font-size="15" transform="translate(818.635 288)">​​Output column name<tspan font-weight="400" font-size="15" x="130.167" y="0">: </tspan><tspan font-weight="400" font-size="15" x="137.5" y="0">Drain_r</tspan></text><path d="M58.6493 665.721 1046.31 665.721" stroke="#70AD47" stroke-width="1.33333" stroke-linejoin="round" stroke-miterlimit="10" fill="none" fill-rule="evenodd"/><g clip-path="url(#clip27)"><text font-family="Calibri,Calibri_MSFontService,sans-serif" font-weight="700" font-size="16" transform="translate(59.2288 331)">PH (0</text></g><text font-family="Calibri,Calibri_MSFontService,sans-serif" font-weight="700" font-size="16" transform="translate(94.7288 331)">-<tspan font-size="16" x="4.83334" y="0">5 cm)</tspan></text><path d="M59.2288 333.114 97.7288 333.114 136.229 333.114 136.229 334.114 97.7288 334.114 59.2288 334.114Z" fill-rule="evenodd"/><g clip-path="url(#clip28)"><text font-family="Calibri,Calibri_MSFontService,sans-serif" font-weight="700" font-size="16" transform="translate(237.497 331)">Rec PH (0</text></g><text font-family="Calibri,Calibri_MSFontService,sans-serif" font-weight="700" font-size="16" transform="translate(300.097 331)">-<tspan font-size="16" x="4.83334" y="0">5 cm)</tspan></text><path d="M237.497 333.114 272.163 333.114 306.83 333.114 341.497 333.114 341.497 334.114 306.83 334.114 272.163 334.114 237.497 334.114Z" fill-rule="evenodd"/><g clip-path="url(#clip29)"><text font-family="Calibri,Calibri_MSFontService,sans-serif" font-weight="700" font-size="16" transform="translate(414.524 331)">PH …</text></g><text font-family="Calibri,Calibri_MSFontService,sans-serif" font-weight="400" font-size="16" transform="translate(451.858 331)">(5 repetitions)</text><path d="M414.524 333.114 451.524 333.114 451.524 334.114 414.524 334.114Z" fill-rule="evenodd"/><g clip-path="url(#clip30)"><text font-family="Calibri,Calibri_MSFontService,sans-serif" font-weight="700" font-size="16" transform="translate(644.396 331)">Rec PH … </text></g><text font-family="Calibri,Calibri_MSFontService,sans-serif" font-weight="400" font-size="16" transform="translate(708.829 331)">(5 repetitions)</text><path d="M644.396 333.114 676.396 333.114 708.396 333.114 708.396 334.114 676.396 334.114 644.396 334.114Z" fill-rule="evenodd"/><g clip-path="url(#clip31)"><text font-family="Calibri,Calibri_MSFontService,sans-serif" font-weight="700" font-size="16" transform="translate(839.038 331)">Weighted Sum of </text></g><text font-family="Calibri,Calibri_MSFontService,sans-serif" font-weight="700" font-size="16" transform="translate(956.958 331)">Fields</text><path d="M839.038 333.114 878.038 333.114 917.038 333.114 956.038 333.114 995.038 333.114 995.038 334.114 956.038 334.114 917.038 334.114 878.038 334.114 839.038 334.114Z" fill-rule="evenodd"/><g clip-path="url(#clip32)"><text font-family="Calibri,Calibri_MSFontService,sans-serif" font-weight="400" font-size="15" transform="translate(59.2288 365)">1.</text></g><text font-family="Calibri,Calibri_MSFontService,sans-serif" font-weight="400" font-size="15" transform="translate(73.6288 365)">​<tspan font-weight="700" font-size="15" x="0" y="0">Input layer</tspan><tspan font-size="15" x="66.1667" y="0">: </tspan><tspan font-size="15" x="0" y="17">'Output layer' from </tspan><tspan font-size="15" x="0" y="35">algorithm 'Rec Drainage'</tspan></text><g clip-path="url(#clip33)"><text font-family="Calibri,Calibri_MSFontService,sans-serif" font-weight="400" font-size="15" transform="translate(59.2288 428)">2.</text></g><text font-family="Calibri,Calibri_MSFontService,sans-serif" font-weight="400" font-size="15" transform="translate(73.6288 428)">​<tspan font-weight="700" font-size="15" x="0" y="0">Raster layer</tspan><tspan font-size="15" x="72.6667" y="0">:</tspan><tspan font-size="15" x="0" y="18">Soil (0</tspan><tspan font-size="15" x="36.3333" y="18">-</tspan><tspan font-size="15" x="40.8333" y="18">5 cm) PH Value</tspan></text><g clip-path="url(#clip34)"><text font-family="Calibri,Calibri_MSFontService,sans-serif" font-weight="400" font-size="15" transform="translate(59.2288 474)">3. </text></g><text font-family="Calibri,Calibri_MSFontService,sans-serif" font-weight="700" font-size="15" transform="translate(73.7288 474)">Types of Statistics:<tspan font-weight="400" font-size="15" x="-0.0999985" y="18">mean</tspan></text><g clip-path="url(#clip35)"><text font-family="Calibri,Calibri_MSFontService,sans-serif" font-weight="400" font-size="15" transform="translate(59.2288 520)">4. </text></g><text font-family="Calibri,Calibri_MSFontService,sans-serif" font-weight="700" font-size="15" transform="translate(73.7288 520)">Output column prefix: <tspan font-weight="400" font-size="15" x="-0.0999985" y="17">PHd1</tspan></text><g clip-path="url(#clip36)"><text font-family="Calibri,Calibri_MSFontService,sans-serif" font-weight="400" font-size="15" transform="translate(59.2288 566)">5. </text></g><text font-family="Calibri,Calibri_MSFontService,sans-serif" font-weight="700" font-size="15" transform="translate(73.7288 566)">No data value: <tspan font-weight="400" font-size="15" x="91.8333" y="0">255</tspan></text><g clip-path="url(#clip37)"><text font-family="Calibri,Calibri_MSFontService,sans-serif" font-weight="400" font-size="15" transform="translate(237.497 365)">1.</text></g><text font-family="Calibri,Calibri_MSFontService,sans-serif" font-weight="400" font-size="15" transform="translate(251.897 365)">​<tspan font-weight="700" font-size="15" x="0" y="0">​​Input layer</tspan><tspan font-size="15" x="66.1667" y="0">: </tspan><tspan font-size="15" x="0" y="17">'Output layer' from </tspan><tspan font-size="15" x="0" y="35">algorithm 'PH (0</tspan><tspan font-size="15" x="96" y="35">-</tspan>5 cm)’</text><g clip-path="url(#clip38)"><text font-family="Calibri,Calibri_MSFontService,sans-serif" font-weight="400" font-size="15" transform="translate(237.497 428)">2.</text></g><text font-family="Calibri,Calibri_MSFontService,sans-serif" font-weight="400" font-size="15" transform="translate(251.897 428)">​<tspan font-weight="700" font-size="15" x="0" y="0">​Field to</tspan><tspan font-weight="700" font-size="15" x="48.8333" y="0">reclassify</tspan>:<tspan font-size="15" x="0" y="18">PHd1_mean</tspan></text><g clip-path="url(#clip39)"><text font-family="Calibri,Calibri_MSFontService,sans-serif" font-weight="400" font-size="15" transform="translate(237.497 474)">3.</text></g><text font-family="Calibri,Calibri_MSFontService,sans-serif" font-weight="400" font-size="15" transform="translate(251.897 474)">​<tspan font-weight="700" font-size="15" x="0" y="0">​Old values</tspan><tspan font-size="15" x="63.6667" y="0">:</tspan><tspan font-size="15" x="0" y="18">0</tspan><tspan font-size="15" x="7.49998" y="18">-</tspan>45, 45-55, 55-79, 79-</text><g clip-path="url(#clip40)"><text font-family="Calibri,Calibri_MSFontService,sans-serif" font-weight="400" font-size="15" transform="translate(388.397 492)">84, </text></g><text font-family="Calibri,Calibri_MSFontService,sans-serif" font-weight="400" font-size="15" transform="translate(251.897 509)">84<tspan font-size="15" x="15" y="0">-</tspan>140</text><g clip-path="url(#clip41)"><text font-family="Calibri,Calibri_MSFontService,sans-serif" font-weight="400" font-size="15" transform="translate(237.497 537)">4. </text></g><text font-family="Calibri,Calibri_MSFontService,sans-serif" font-weight="700" font-size="15" transform="translate(251.997 537)">New values:<tspan font-weight="400" font-size="15" x="-0.0999908" y="18">3, 7, 9, 6, 3</tspan></text><g clip-path="url(#clip42)"><text font-family="Calibri,Calibri_MSFontService,sans-serif" font-weight="400" font-size="15" transform="translate(237.497 583)">5. </text></g><text font-family="Calibri,Calibri_MSFontService,sans-serif" font-weight="700" font-size="15" transform="translate(251.997 583)">N<tspan font-size="15" x="9.66666" y="0">o data value:</tspan><tspan font-weight="400" font-size="15" x="-0.0999908" y="18">0</tspan></text><g clip-path="url(#clip43)"><text font-family="Calibri,Calibri_MSFontService,sans-serif" font-weight="400" font-size="15" transform="translate(237.497 629)">6. ​</text></g><text font-family="Calibri,Calibri_MSFontService,sans-serif" font-weight="700" font-size="15" transform="translate(251.997 629)">​​Output column name<tspan font-weight="400" font-size="15" x="130.167" y="0">: </tspan><tspan font-weight="400" font-size="15" x="-0.0999908" y="18">PHd1_r</tspan></text><g clip-path="url(#clip44)"><text font-family="Calibri,Calibri_MSFontService,sans-serif" font-weight="400" font-size="15" transform="translate(414.524 365)">1.</text></g><text font-family="Calibri,Calibri_MSFontService,sans-serif" font-weight="400" font-size="15" transform="translate(428.924 365)">​The setting is identical to <tspan font-weight="700" font-size="15" x="0" y="17">PH (0</tspan><tspan font-weight="700" font-size="15" x="32.5" y="17">-</tspan><tspan font-weight="700" font-size="15" x="37" y="17">5 cm)</tspan></text><g clip-path="url(#clip45)"><text font-family="Calibri,Calibri_MSFontService,sans-serif" font-weight="400" font-size="15" transform="translate(502.758 382)">for the rest of the soil </text></g><path d="M428.524 384.321 464.024 384.321 499.524 384.321 499.524 385.321 464.024 385.321 428.524 385.321Z" fill-rule="evenodd"/><text font-family="Calibri,Calibri_MSFontService,sans-serif" font-weight="400" font-size="15" transform="translate(428.924 400)">depth intervals.</text><g clip-path="url(#clip46)"><text font-family="Calibri,Calibri_MSFontService,sans-serif" font-weight="400" font-size="15" transform="translate(414.524 428)">2.</text></g><text font-family="Calibri,Calibri_MSFontService,sans-serif" font-weight="400" font-size="15" transform="translate(428.924 428)">​<tspan font-weight="700" font-size="15" x="0" y="0">Raster layers </tspan><tspan font-size="15" x="81.8333" y="0">are</tspan><tspan font-size="15" x="0" y="18">Soil (5</tspan><tspan font-size="15" x="36.3333" y="18">-</tspan>15 cm) PH Value, <tspan font-size="15" x="0" y="35">Soil (15</tspan><tspan font-size="15" x="43.8333" y="35">-</tspan>30 cm) PH Value, <tspan font-size="15" x="0" y="53">Soil (30</tspan><tspan font-size="15" x="43.8333" y="53">-</tspan>60 cm) PH Value, <tspan font-size="15" x="0" y="71">Soil (60</tspan><tspan font-size="15" x="43.8333" y="71">-</tspan>100 cm) PH Value, and<tspan font-size="15" x="0" y="88">Soil (100</tspan><tspan font-size="15" x="51.3333" y="88">-</tspan>200 cm) PH Value, <tspan font-size="15" x="0" y="106">respectively.</tspan></text><g clip-path="url(#clip47)"><text font-family="Calibri,Calibri_MSFontService,sans-serif" font-weight="400" font-size="15" transform="translate(414.524 562)">3.</text></g><text font-family="Calibri,Calibri_MSFontService,sans-serif" font-weight="400" font-size="15" transform="translate(428.924 562)">​<tspan font-weight="700" font-size="15" x="0" y="0">Output column prefixes </tspan><tspan font-size="15" x="147.667" y="0">are PHd2 </tspan><tspan font-size="15" x="0" y="18">for 5</tspan><tspan font-size="15" x="28.1667" y="18">-</tspan>15 cm,<tspan font-size="15" x="0" y="35">PHd3 for 15</tspan><tspan font-size="15" x="70.8333" y="35">-</tspan>30 cm, <tspan font-size="15" x="0" y="53">PHd4 for 30</tspan><tspan font-size="15" x="70.8333" y="53">-</tspan>60 cm, <tspan font-size="15" x="0" y="70">PHd5 for 60</tspan><tspan font-size="15" x="70.8333" y="70">-</tspan>100 cm, and<tspan font-size="15" x="0" y="88">PHd6 for 100</tspan><tspan font-size="15" x="78.3333" y="88">-</tspan></text><g clip-path="url(#clip48)"><text font-family="Calibri,Calibri_MSFontService,sans-serif" font-weight="400" font-size="15" transform="translate(511.758 650)">200 cm, respectively. </text></g><g clip-path="url(#clip49)"><text font-family="Calibri,Calibri_MSFontService,sans-serif" font-weight="400" font-size="15" transform="translate(644.396 365)">1.</text></g><text font-family="Calibri,Calibri_MSFontService,sans-serif" font-weight="400" font-size="15" transform="translate(658.796 365)">The setting is identical to<tspan font-weight="700" font-size="15" x="0" y="17">Rec PH (0</tspan><tspan font-weight="700" font-size="15" x="57.6667" y="17">-</tspan><tspan font-weight="700" font-size="15" x="62.1667" y="17">5 cm)</tspan><tspan font-size="15" x="99" y="17">for the rest</tspan></text><path d="M658.396 384.321 706.396 384.321 754.396 384.321 754.396 385.321 706.396 385.321 658.396 385.321Z" fill-rule="evenodd"/><text font-family="Calibri,Calibri_MSFontService,sans-serif" font-weight="400" font-size="15" transform="translate(658.796 400)">of the soil depth intervals.</text><g clip-path="url(#clip50)"><text font-family="Calibri,Calibri_MSFontService,sans-serif" font-weight="400" font-size="15" transform="translate(644.396 428)">2.</text></g><text font-family="Calibri,Calibri_MSFontService,sans-serif" font-weight="400" font-size="15" transform="translate(658.796 428)">​<tspan font-weight="700" font-size="15" x="0" y="0">Fields to reclassify </tspan><tspan font-size="15" x="114.5" y="0">are </tspan><tspan font-size="15" x="0" y="18">PHd2_mean for 5</tspan><tspan font-size="15" x="104.333" y="18">-</tspan>15 cm, <tspan font-size="15" x="0" y="35">PHd3_mean for 15</tspan><tspan font-size="15" x="111.833" y="35">-</tspan><tspan font-size="15" x="116.333" y="35">30 cm, </tspan><tspan font-size="15" x="0" y="53">PHd4_mean for 30</tspan><tspan font-size="15" x="111.833" y="53">-</tspan><tspan font-size="15" x="116.333" y="53">60 cm, </tspan><tspan font-size="15" x="0" y="71">PHd5_mean for 60</tspan><tspan font-size="15" x="111.833" y="71">-</tspan><tspan font-size="15" x="116.333" y="71">100 cm, </tspan><tspan font-size="15" x="0" y="88">and PHd6_mean for</tspan><tspan font-size="15" x="0" y="106">100</tspan>-200 cm, respectively. </text><g clip-path="url(#clip51)"><text font-family="Calibri,Calibri_MSFontService,sans-serif" font-weight="400" font-size="15" transform="translate(644.396 562)">3.</text></g><text font-family="Calibri,Calibri_MSFontService,sans-serif" font-weight="400" font-size="15" transform="translate(658.796 562)">​<tspan font-weight="700" font-size="15" x="0" y="0">Output column names </tspan><tspan font-size="15" x="139.333" y="0">are </tspan><tspan font-size="15" x="0" y="18">PHd2_r, PHd3_r, PHd4_r, </tspan><tspan font-size="15" x="0" y="35">PHd5_r, and PHd6_r, </tspan><tspan font-size="15" x="0" y="53">respectively. </tspan></text><g clip-path="url(#clip52)"><text font-family="Calibri,Calibri_MSFontService,sans-serif" font-weight="400" font-size="15" transform="translate(839.038 365)">1.</text></g><text font-family="Calibri,Calibri_MSFontService,sans-serif" font-weight="400" font-size="15" transform="translate(853.438 365)">​<tspan font-weight="700" font-size="15" x="0" y="0">Input layer</tspan><tspan font-size="15" x="66.1667" y="0">: </tspan><tspan font-size="15" x="0" y="17">'Output layer' from algorithm </tspan><tspan font-size="15" x="0" y="35">'Rec PH (100</tspan>-200 cm)’</text><g clip-path="url(#clip53)"><text font-family="Calibri,Calibri_MSFontService,sans-serif" font-weight="400" font-size="15" transform="translate(839.038 428)">2.</text></g><text font-family="Calibri,Calibri_MSFontService,sans-serif" font-weight="400" font-size="15" transform="translate(853.438 428)">​<tspan font-weight="700" font-size="15" x="0" y="0">Fields</tspan>: </text><g clip-path="url(#clip54)"><text font-family="Calibri,Calibri_MSFontService,sans-serif" font-weight="400" font-size="15" transform="translate(853.438 446)">RZD_r;Drain_r;PHd1_r;PHd2_r;</text></g><g clip-path="url(#clip55)"><text font-family="Calibri,Calibri_MSFontService,sans-serif" font-weight="400" font-size="15" transform="translate(853.438 463)">PHd3_r;PHd4_r;PHd5_r;PHd6_r</text></g><g clip-path="url(#clip56)"><text font-family="Calibri,Calibri_MSFontService,sans-serif" font-weight="400" font-size="15" transform="translate(839.038 492)">3.</text></g><text font-family="Calibri,Calibri_MSFontService,sans-serif" font-weight="400" font-size="15" transform="translate(853.438 492)">​<tspan font-weight="700" font-size="15" x="0" y="0">Weights</tspan><tspan font-size="15" x="50.1667" y="0">:</tspan><tspan font-style="italic" font-size="15" x="0" y="17">Using model input</tspan></text><g clip-path="url(#clip57)"><text font-family="Calibri,Calibri_MSFontService,sans-serif" font-weight="400" font-size="15" transform="translate(961.105 509)">: Weights for </text></g><text font-family="Calibri,Calibri_MSFontService,sans-serif" font-weight="400" font-size="15" transform="translate(853.438 527)">RZD, Drainage, and PH <tspan font-size="15" x="0" y="17">(different depths)</tspan></text><g clip-path="url(#clip58)"><text font-family="Calibri,Calibri_MSFontService,sans-serif" font-weight="400" font-size="15" transform="translate(839.038 573)">4.</text></g><text font-family="Calibri,Calibri_MSFontService,sans-serif" font-weight="400" font-size="15" transform="translate(853.438 573)">​<tspan font-weight="700" font-size="15" x="0" y="0">Output field name</tspan><tspan font-size="15" x="112" y="0">:</tspan><tspan font-size="15" x="0" y="17">rcrp_sc</tspan></text><g clip-path="url(#clip59)"><text font-family="Calibri,Calibri_MSFontService,sans-serif" font-weight="400" font-size="15" transform="translate(839.038 619)">5.</text></g><text font-family="Calibri,Calibri_MSFontService,sans-serif" font-weight="400" font-size="15" transform="translate(853.438 619)">​<tspan font-weight="700" font-size="15" x="0" y="0">Output layer</tspan>:<tspan font-size="15" x="0" y="17">rcrp_SoilCondition</tspan></text></g></svg>