<svg width="911" height="431" xmlns="http://www.w3.org/2000/svg" xmlns:xlink="http://www.w3.org/1999/xlink" overflow="hidden"><defs><clipPath id="clip0"><rect x="445" y="1127" width="911" height="431"/></clipPath><clipPath id="clip1"><rect x="445" y="945" width="271" height="463"/></clipPath><clipPath id="clip2"><rect x="445" y="1187" width="271" height="425"/></clipPath></defs><g clip-path="url(#clip0)" transform="translate(-445 -1127)"><path d="M445.551 1141.85 1353.05 1141.85" stroke="#70AD47" stroke-width="4.58333" stroke-linejoin="round" stroke-miterlimit="10" fill="none" fill-rule="evenodd"/><path d="M445.551 1544.58 1353.05 1544.58" stroke="#70AD47" stroke-width="4.58333" stroke-linejoin="round" stroke-miterlimit="10" fill="none" fill-rule="evenodd"/><g clip-path="url(#clip1)"><text font-family="Calibri,Calibri_MSFontService,sans-serif" font-weight="700" font-size="55" transform="matrix(1 0 0 1 447.542 1196)">NGO</text></g><path d="M447.542 1201.84 501.542 1201.84 555.542 1201.84 555.542 1205.84 501.542 1205.84 447.542 1205.84Z" fill-rule="evenodd"/><text font-family="Calibri,Calibri_MSFontService,sans-serif" font-weight="700" font-size="55" transform="matrix(1 0 0 1 792.356 1231)">Ag<tspan font-size="55" x="197.752" y="0">Con</tspan><tspan font-size="55" x="411.832" y="0">Urb</tspan><tspan font-size="55" x="-175.389" y="90">Ag</tspan><tspan font-weight="400" font-size="50" x="16.9012" y="88">1</tspan><tspan font-weight="400" font-size="50" x="206.632" y="88">1/9</tspan><tspan font-weight="400" font-size="50" x="441.623" y="88">1</tspan></text><g clip-path="url(#clip2)"><text font-family="Calibri,Calibri_MSFontService,sans-serif" font-weight="700" font-size="50" transform="matrix(1 0 0 1 606.368 1416)">Con</text></g><text font-family="Calibri,Calibri_MSFontService,sans-serif" font-weight="400" font-size="50" transform="matrix(1 0 0 1 809.257 1416)">9<tspan font-size="50" x="212.361" y="0">1</tspan><tspan font-size="50" x="424.722" y="0">9</tspan><tspan font-weight="700" font-size="50" x="-201.17" y="97">Urb</tspan><tspan font-size="50" x="0" y="97">1</tspan><tspan font-size="50" x="189.731" y="97">1/9</tspan><tspan font-size="50" x="424.722" y="97">1</tspan></text></g></svg>