<svg width="2096" height="1265" xmlns="http://www.w3.org/2000/svg" xmlns:xlink="http://www.w3.org/1999/xlink" overflow="hidden"><defs><clipPath id="clip0"><rect x="1153" y="336" width="2096" height="1265"/></clipPath><clipPath id="clip1"><rect x="1153" y="-44" width="276" height="925"/></clipPath><clipPath id="clip2"><rect x="1153" y="-44" width="276" height="925"/></clipPath><clipPath id="clip3"><rect x="2455" y="192" width="792" height="463"/></clipPath><clipPath id="clip4"><rect x="1153" y="307" width="276" height="463"/></clipPath><clipPath id="clip5"><rect x="2455" y="142" width="792" height="848"/></clipPath><clipPath id="clip6"><rect x="2455" y="142" width="792" height="848"/></clipPath><clipPath id="clip7"><rect x="1153" y="467" width="276" height="463"/></clipPath><clipPath id="clip8"><rect x="2455" y="275" width="792" height="848"/></clipPath><clipPath id="clip9"><rect x="2455" y="275" width="792" height="848"/></clipPath><clipPath id="clip10"><rect x="1153" y="612" width="276" height="463"/></clipPath><clipPath id="clip11"><rect x="2455" y="420" width="792" height="848"/></clipPath><clipPath id="clip12"><rect x="2455" y="420" width="792" height="848"/></clipPath><clipPath id="clip13"><rect x="1153" y="757" width="276" height="463"/></clipPath><clipPath id="clip14"><rect x="2455" y="565" width="792" height="848"/></clipPath><clipPath id="clip15"><rect x="2455" y="565" width="792" height="848"/></clipPath><clipPath id="clip16"><rect x="2455" y="565" width="792" height="848"/></clipPath><clipPath id="clip17"><rect x="1153" y="932" width="276" height="463"/></clipPath><clipPath id="clip18"><rect x="2455" y="528" width="792" height="1272"/></clipPath><clipPath id="clip19"><rect x="2455" y="528" width="792" height="1272"/></clipPath><clipPath id="clip20"><rect x="2455" y="528" width="792" height="1272"/></clipPath><clipPath id="clip21"><rect x="1153" y="1116" width="276" height="463"/></clipPath><clipPath id="clip22"><rect x="2455" y="1135" width="792" height="425"/></clipPath><clipPath id="clip23"><rect x="1153" y="1278" width="276" height="463"/></clipPath></defs><g clip-path="url(#clip0)" transform="translate(-1153 -336)"><path d="M1153.33 350.787 3246.67 350.787" stroke="#70AD47" stroke-width="4.58333" stroke-linejoin="round" stroke-miterlimit="10" fill="none" fill-rule="evenodd"/><path d="M1153.33 1591.03 3246.67 1591.03" stroke="#70AD47" stroke-width="4.58333" stroke-linejoin="round" stroke-miterlimit="10" fill="none" fill-rule="evenodd"/><g clip-path="url(#clip1)"><text font-family="Calibri,Calibri_MSFontService,sans-serif" font-weight="700" font-size="55" transform="matrix(1 0 0 1 1155.32 405)">Intensity of </text></g><path d="M1155.32 410.779 1220.32 410.779 1285.32 410.779 1350.32 410.779 1415.32 410.779 1415.32 414.779 1350.32 414.779 1285.32 414.779 1220.32 414.779 1155.32 414.779Z" fill-rule="evenodd"/><g clip-path="url(#clip2)"><text font-family="Calibri,Calibri_MSFontService,sans-serif" font-weight="700" font-size="55" transform="matrix(1 0 0 1 1155.32 471)">importance</text></g><path d="M1155.32 476.779 1221.07 476.779 1286.82 476.779 1352.57 476.779 1418.32 476.779 1418.32 480.779 1352.57 480.779 1286.82 480.779 1221.07 480.779 1155.32 480.779Z" fill-rule="evenodd"/><text font-family="Calibri,Calibri_MSFontService,sans-serif" font-weight="700" font-size="55" transform="matrix(1 0 0 1 1481.18 442)">Definition</text><path d="M1480.76 448.256 1709.76 448.256 1709.76 452.256 1480.76 452.256Z" fill-rule="evenodd"/><g clip-path="url(#clip3)"><text font-family="Calibri,Calibri_MSFontService,sans-serif" font-weight="700" font-size="55" transform="matrix(1 0 0 1 2457.26 442)">Explanation</text></g><path d="M2457.26 448.256 2592.76 448.256 2728.26 448.256 2728.26 452.256 2592.76 452.256 2457.26 452.256Z" fill-rule="evenodd"/><g clip-path="url(#clip4)"><text font-family="Calibri,Calibri_MSFontService,sans-serif" font-weight="700" font-size="55" transform="matrix(1 0 0 1 1155.32 557)">1</text></g><text font-family="Calibri,Calibri_MSFontService,sans-serif" font-weight="400" font-size="50" transform="matrix(1 0 0 1 1467.74 582)">Equal importance</text><g clip-path="url(#clip5)"><text font-family="Calibri,Calibri_MSFontService,sans-serif" font-weight="400" font-size="50" transform="matrix(1 0 0 1 2457.26 552)">Two activities contribute equally to </text></g><g clip-path="url(#clip6)"><text font-family="Calibri,Calibri_MSFontService,sans-serif" font-weight="400" font-size="50" transform="matrix(1 0 0 1 2457.26 612)">the objective</text></g><g clip-path="url(#clip7)"><text font-family="Calibri,Calibri_MSFontService,sans-serif" font-weight="700" font-size="55" transform="matrix(1 0 0 1 1155.32 718)">3</text></g><text font-family="Calibri,Calibri_MSFontService,sans-serif" font-weight="400" font-size="50" transform="matrix(1 0 0 1 1467.74 716)">Moderate importance of one over another</text><g clip-path="url(#clip8)"><text font-family="Calibri,Calibri_MSFontService,sans-serif" font-weight="400" font-size="50" transform="matrix(1 0 0 1 2457.26 685)">Experience and judgement strongly </text></g><g clip-path="url(#clip9)"><text font-family="Calibri,Calibri_MSFontService,sans-serif" font-weight="400" font-size="50" transform="matrix(1 0 0 1 2457.26 745)">favor one activity over another</text></g><g clip-path="url(#clip10)"><text font-family="Calibri,Calibri_MSFontService,sans-serif" font-weight="700" font-size="55" transform="matrix(1 0 0 1 1155.32 863)">5</text></g><text font-family="Calibri,Calibri_MSFontService,sans-serif" font-weight="400" font-size="50" transform="matrix(1 0 0 1 1467.74 861)">Essential or strong importance</text><g clip-path="url(#clip11)"><text font-family="Calibri,Calibri_MSFontService,sans-serif" font-weight="400" font-size="50" transform="matrix(1 0 0 1 2457.26 830)">Experience and judgement strongly </text></g><g clip-path="url(#clip12)"><text font-family="Calibri,Calibri_MSFontService,sans-serif" font-weight="400" font-size="50" transform="matrix(1 0 0 1 2457.26 890)">favor one activity over another</text></g><g clip-path="url(#clip13)"><text font-family="Calibri,Calibri_MSFontService,sans-serif" font-weight="700" font-size="55" transform="matrix(1 0 0 1 1155.32 1008)">7</text></g><text font-family="Calibri,Calibri_MSFontService,sans-serif" font-weight="400" font-size="50" transform="matrix(1 0 0 1 1467.74 1005)">Very strong importance</text><g clip-path="url(#clip14)"><text font-family="Calibri,Calibri_MSFontService,sans-serif" font-weight="400" font-size="50" transform="matrix(1 0 0 1 2457.26 975)">An activity is strongly </text></g><text font-family="Calibri,Calibri_MSFontService,sans-serif" font-weight="400" font-size="50" transform="matrix(1 0 0 1 2901.27 975)">favored</text><g clip-path="url(#clip15)"><text font-family="Calibri,Calibri_MSFontService,sans-serif" font-weight="400" font-size="50" transform="matrix(1 0 0 1 3070.86 975)">and its </text></g><g clip-path="url(#clip16)"><text font-family="Calibri,Calibri_MSFontService,sans-serif" font-weight="400" font-size="50" transform="matrix(1 0 0 1 2457.26 1035)">dominance demonstrated in practice</text></g><g clip-path="url(#clip17)"><text font-family="Calibri,Calibri_MSFontService,sans-serif" font-weight="700" font-size="55" transform="matrix(1 0 0 1 1155.32 1183)">9</text></g><text font-family="Calibri,Calibri_MSFontService,sans-serif" font-weight="400" font-size="50" transform="matrix(1 0 0 1 1467.74 1181)">Extreme importance</text><g clip-path="url(#clip18)"><text font-family="Calibri,Calibri_MSFontService,sans-serif" font-weight="400" font-size="50" transform="matrix(1 0 0 1 2457.26 1120)">The evidence favoring one activity </text></g><g clip-path="url(#clip19)"><text font-family="Calibri,Calibri_MSFontService,sans-serif" font-weight="400" font-size="50" transform="matrix(1 0 0 1 2457.26 1180)">over another is of the highest possible </text></g><g clip-path="url(#clip20)"><text font-family="Calibri,Calibri_MSFontService,sans-serif" font-weight="400" font-size="50" transform="matrix(1 0 0 1 2457.26 1241)">order of affirmation</text></g><g clip-path="url(#clip21)"><text font-family="Calibri,Calibri_MSFontService,sans-serif" font-weight="700" font-size="55" transform="matrix(1 0 0 1 1155.32 1367)">2,4,6,8</text></g><text font-family="Calibri,Calibri_MSFontService,sans-serif" font-weight="400" font-size="50" transform="matrix(1 0 0 1 1467.74 1334)">Intermediate values between the two <tspan font-size="50" x="0" y="60">adjacent judgments</tspan></text><g clip-path="url(#clip22)"><text font-family="Calibri,Calibri_MSFontService,sans-serif" font-weight="400" font-size="50" transform="matrix(1 0 0 1 2457.26 1364)">When compromise is needed</text></g><g clip-path="url(#clip23)"><text font-family="Calibri,Calibri_MSFontService,sans-serif" font-weight="700" font-size="55" transform="matrix(1 0 0 1 1155.32 1529)">Reciprocals</text></g><text font-family="Calibri,Calibri_MSFontService,sans-serif" font-weight="400" font-size="50" transform="matrix(1 0 0 1 1467.74 1496)">If activity i has one of the above numbers assigned to it when compared with activity <tspan font-size="50" x="0" y="61">j, then j has the reciprocal value when compared with i.</tspan></text></g></svg>