<svg width="911" height="441" xmlns="http://www.w3.org/2000/svg" xmlns:xlink="http://www.w3.org/1999/xlink" overflow="hidden"><defs><clipPath id="clip0"><rect x="1541" y="229" width="911" height="441"/></clipPath><clipPath id="clip1"><rect x="1541" y="-150" width="272" height="925"/></clipPath><clipPath id="clip2"><rect x="1541" y="-150" width="272" height="925"/></clipPath><clipPath id="clip3"><rect x="1541" y="305" width="272" height="425"/></clipPath></defs><g clip-path="url(#clip0)" transform="translate(-1541 -229)"><path d="M1541.81 244.225 2449.31 244.225" stroke="#70AD47" stroke-width="4.58333" stroke-linejoin="round" stroke-miterlimit="10" fill="none" fill-rule="evenodd"/><path d="M1541.81 656.358 2449.31 656.358" stroke="#70AD47" stroke-width="4.58333" stroke-linejoin="round" stroke-miterlimit="10" fill="none" fill-rule="evenodd"/><g clip-path="url(#clip1)"><text font-family="Calibri,Calibri_MSFontService,sans-serif" font-weight="700" font-size="55" transform="matrix(1 0 0 1 1543.8 298)">Property </text></g><path d="M1543.8 304.217 1610.14 304.217 1676.47 304.217 1742.8 304.217 1742.8 308.217 1676.47 308.217 1610.14 308.217 1543.8 308.217Z" fill-rule="evenodd"/><g clip-path="url(#clip2)"><text font-family="Calibri,Calibri_MSFontService,sans-serif" font-weight="700" font-size="55" transform="matrix(1 0 0 1 1543.8 364)">developer</text></g><path d="M1543.8 370.217 1601.3 370.217 1658.8 370.217 1716.3 370.217 1773.8 370.217 1773.8 374.217 1716.3 374.217 1658.8 374.217 1601.3 374.217 1543.8 374.217Z" fill-rule="evenodd"/><text font-family="Calibri,Calibri_MSFontService,sans-serif" font-weight="700" font-size="55" transform="matrix(1 0 0 1 1888.62 333)">Ag<tspan font-size="55" x="197.752" y="0">Con</tspan><tspan font-size="55" x="411.831" y="0">Urb</tspan><tspan font-size="55" x="-175.389" y="113">Ag</tspan><tspan font-weight="400" font-size="50" x="16.9012" y="110">1</tspan><tspan font-weight="400" font-size="50" x="229.262" y="110">2</tspan><tspan font-weight="400" font-size="50" x="418.993" y="110">1/4</tspan></text><g clip-path="url(#clip3)"><text font-family="Calibri,Calibri_MSFontService,sans-serif" font-weight="700" font-size="50" transform="matrix(1 0 0 1 1702.63 534)">Con</text></g><text font-family="Calibri,Calibri_MSFontService,sans-serif" font-weight="400" font-size="50" transform="matrix(1 0 0 1 1882.89 534)">1/2<tspan font-size="50" x="234.991" y="0">1</tspan><tspan font-size="50" x="424.722" y="0">1/8</tspan><tspan font-weight="700" font-size="50" x="-178.54" y="91">Urb</tspan><tspan font-size="50" x="22.6304" y="91">4</tspan><tspan font-size="50" x="234.991" y="91">8</tspan><tspan font-size="50" x="447.352" y="91">1</tspan></text></g></svg>