<svg width="2571" height="578" xmlns="http://www.w3.org/2000/svg" xmlns:xlink="http://www.w3.org/1999/xlink" overflow="hidden"><defs><clipPath id="clip0"><rect x="800" y="724" width="2571" height="578"/></clipPath><clipPath id="clip1"><rect x="800" y="811" width="230" height="463"/></clipPath><clipPath id="clip2"><rect x="800" y="929" width="230" height="424"/></clipPath><clipPath id="clip3"><rect x="800" y="1027" width="230" height="424"/></clipPath></defs><g clip-path="url(#clip0)" transform="translate(-800 -724)"><path d="M800.971 727.226 3368.22 727.226" stroke="#70AD47" stroke-width="4.58333" stroke-linejoin="round" stroke-miterlimit="10" fill="none" fill-rule="evenodd"/><path d="M800.971 1288 3368.22 1288" stroke="#70AD47" stroke-width="4.58333" stroke-linejoin="round" stroke-miterlimit="10" fill="none" fill-rule="evenodd"/><text font-family="Calibri,Calibri_MSFontService,sans-serif" font-weight="700" font-size="55" transform="matrix(1 0 0 1 1143.23 819)">Farmer</text><path d="M1143.33 824.695 1224.33 824.695 1305.33 824.695 1305.33 828.695 1224.33 828.695 1143.33 828.695Z" fill-rule="evenodd"/><text font-family="Calibri,Calibri_MSFontService,sans-serif" font-weight="700" font-size="55" transform="matrix(1 0 0 1 1514.3 819)">Property </text><path d="M1514.16 824.695 1580.5 824.695 1646.83 824.695 1713.16 824.695 1713.16 828.695 1646.83 828.695 1580.5 828.695 1514.16 828.695Z" fill-rule="evenodd"/><text font-family="Calibri,Calibri_MSFontService,sans-serif" font-weight="700" font-size="55" transform="matrix(1 0 0 1 1498.9 885)">developer</text><path d="M1499.16 890.695 1575.83 890.695 1652.5 890.695 1729.16 890.695 1729.16 894.695 1652.5 894.695 1575.83 894.695 1499.16 894.695Z" fill-rule="evenodd"/><text font-family="Calibri,Calibri_MSFontService,sans-serif" font-weight="700" font-size="55" transform="matrix(1 0 0 1 1860.28 819)">Government </text><path d="M1860.01 824.695 1955.68 824.695 2051.35 824.695 2147.01 824.695 2147.01 828.695 2051.35 828.695 1955.68 828.695 1860.01 828.695Z" fill-rule="evenodd"/><text font-family="Calibri,Calibri_MSFontService,sans-serif" font-weight="700" font-size="55" transform="matrix(1 0 0 1 1926.17 885)">official </text><path d="M1926.01 890.695 2003.51 890.695 2081.01 890.695 2081.01 894.695 2003.51 894.695 1926.01 894.695Z" fill-rule="evenodd"/><text font-family="Calibri,Calibri_MSFontService,sans-serif" font-weight="700" font-size="55" transform="matrix(1 0 0 1 2339.48 819)">NGO</text><path d="M2339.84 824.695 2393.84 824.695 2447.84 824.695 2447.84 828.695 2393.84 828.695 2339.84 828.695Z" fill-rule="evenodd"/><text font-family="Calibri,Calibri_MSFontService,sans-serif" font-weight="700" font-size="55" transform="matrix(1 0 0 1 2641.15 819)">Homeowner</text><path d="M2640.69 824.695 2735.69 824.695 2830.69 824.695 2925.69 824.695 2925.69 828.695 2830.69 828.695 2735.69 828.695 2640.69 828.695Z" fill-rule="evenodd"/><text font-family="Calibri,Calibri_MSFontService,sans-serif" font-weight="400" font-size="50" transform="matrix(1 0 0 1 1176.56 973)">(0.2)<tspan font-size="50" x="389.837" y="0">(0.2)</tspan><tspan font-size="50" x="779.675" y="0">(0.2)</tspan><tspan font-size="50" x="1169.51" y="0">(0.2)</tspan><tspan font-size="50" x="1559.35" y="0">(0.2)</tspan></text><g clip-path="url(#clip1)"><text font-family="Calibri,Calibri_MSFontService,sans-serif" font-weight="700" font-size="55" transform="matrix(1 0 0 1 951.29 1062)">Ag</text></g><text font-family="Calibri,Calibri_MSFontService,sans-serif" font-weight="400" font-size="50" transform="matrix(1 0 0 1 1166.25 1060)">0.751<tspan font-size="50" x="389.837" y="0">0.182</tspan><tspan font-size="50" x="779.675" y="0">0.319</tspan><tspan font-size="50" x="1169.51" y="0">0.091</tspan><tspan font-size="50" x="1559.35" y="0">0.455</tspan><tspan font-size="50" x="1936.3" y="1">0.3596</tspan></text><g clip-path="url(#clip2)"><text font-family="Calibri,Calibri_MSFontService,sans-serif" font-weight="700" font-size="50" transform="matrix(1 0 0 1 940.692 1158)">Con</text></g><text font-family="Calibri,Calibri_MSFontService,sans-serif" font-weight="400" font-size="50" transform="matrix(1 0 0 1 1166.25 1158)">0.087<tspan font-size="50" x="389.837" y="0">0.091</tspan><tspan font-size="50" x="779.675" y="0">0.066</tspan><tspan font-size="50" x="1169.51" y="0">0.818</tspan><tspan font-size="50" x="1559.35" y="0">0.091</tspan><tspan font-size="50" x="1936.3" y="1">0.2306</tspan></text><g clip-path="url(#clip3)"><text font-family="Calibri,Calibri_MSFontService,sans-serif" font-weight="700" font-size="50" transform="matrix(1 0 0 1 942.41 1256)">Urb</text></g><text font-family="Calibri,Calibri_MSFontService,sans-serif" font-weight="400" font-size="50" transform="matrix(1 0 0 1 1166.25 1256)">0.162<tspan font-size="50" x="389.837" y="0">0.727</tspan><tspan font-size="50" x="779.675" y="0">0.615</tspan><tspan font-size="50" x="1169.51" y="0">0.091</tspan><tspan font-size="50" x="1559.35" y="0">0.455</tspan><tspan font-size="50" x="1962.08" y="1">0.41</tspan></text></g></svg>