<svg width="911" height="431" xmlns="http://www.w3.org/2000/svg" xmlns:xlink="http://www.w3.org/1999/xlink" overflow="hidden"><defs><clipPath id="clip0"><rect x="445" y="229" width="911" height="431"/></clipPath><clipPath id="clip1"><rect x="445" y="48" width="271" height="463"/></clipPath><clipPath id="clip2"><rect x="445" y="289" width="271" height="425"/></clipPath></defs><g clip-path="url(#clip0)" transform="translate(-445 -229)"><path d="M445.551 244.226 1353.05 244.226" stroke="#70AD47" stroke-width="4.58333" stroke-linejoin="round" stroke-miterlimit="10" fill="none" fill-rule="evenodd"/><path d="M445.551 646.962 1353.05 646.962" stroke="#70AD47" stroke-width="4.58333" stroke-linejoin="round" stroke-miterlimit="10" fill="none" fill-rule="evenodd"/><g clip-path="url(#clip1)"><text font-family="Calibri,Calibri_MSFontService,sans-serif" font-weight="700" font-size="55" transform="matrix(1 0 0 1 447.542 298)">Farmer</text></g><path d="M447.542 304.217 501.542 304.217 555.542 304.217 609.542 304.217 609.542 308.217 555.542 308.217 501.542 308.217 447.542 308.217Z" fill-rule="evenodd"/><text font-family="Calibri,Calibri_MSFontService,sans-serif" font-weight="700" font-size="55" transform="matrix(1 0 0 1 792.356 333)">Ag<tspan font-size="55" x="197.752" y="0">Con</tspan><tspan font-size="55" x="411.832" y="0">Urb</tspan><tspan font-size="55" x="-175.389" y="91">Ag</tspan><tspan font-weight="400" font-size="50" x="16.9012" y="89">1</tspan><tspan font-weight="400" font-size="50" x="229.262" y="89">8</tspan><tspan font-weight="400" font-size="50" x="441.623" y="89">5</tspan></text><g clip-path="url(#clip2)"><text font-family="Calibri,Calibri_MSFontService,sans-serif" font-weight="700" font-size="50" transform="matrix(1 0 0 1 606.368 518)">Con</text></g><text font-family="Calibri,Calibri_MSFontService,sans-serif" font-weight="400" font-size="50" transform="matrix(1 0 0 1 786.627 518)">1/8<tspan font-size="50" x="234.991" y="0">1</tspan><tspan font-size="50" x="424.722" y="0">1/2</tspan><tspan font-weight="700" font-size="50" x="-178.54" y="97">Urb</tspan><tspan font-size="50" x="0" y="97">1/5</tspan><tspan font-size="50" x="234.991" y="97">2</tspan><tspan font-size="50" x="447.352" y="97">1</tspan></text></g></svg>