<svg width="2571" height="583" xmlns="http://www.w3.org/2000/svg" xmlns:xlink="http://www.w3.org/1999/xlink" overflow="hidden"><defs><clipPath id="clip0"><rect x="800" y="724" width="2571" height="583"/></clipPath><clipPath id="clip1"><rect x="800" y="817" width="230" height="463"/></clipPath><clipPath id="clip2"><rect x="800" y="934" width="230" height="424"/></clipPath><clipPath id="clip3"><rect x="800" y="1032" width="230" height="424"/></clipPath></defs><g clip-path="url(#clip0)" transform="translate(-800 -724)"><path d="M800.971 727.226 3368.22 727.226" stroke="#70AD47" stroke-width="4.58333" stroke-linejoin="round" stroke-miterlimit="10" fill="none" fill-rule="evenodd"/><path d="M800.971 1293.08 3368.22 1293.08" stroke="#70AD47" stroke-width="4.58333" stroke-linejoin="round" stroke-miterlimit="10" fill="none" fill-rule="evenodd"/><text font-family="Calibri,Calibri_MSFontService,sans-serif" font-weight="700" font-size="55" transform="matrix(1 0 0 1 1143.23 827)">Farmer</text><path d="M1143.33 832.791 1224.33 832.791 1305.33 832.791 1305.33 836.791 1224.33 836.791 1143.33 836.791Z" fill-rule="evenodd"/><text font-family="Calibri,Calibri_MSFontService,sans-serif" font-weight="700" font-size="55" transform="matrix(1 0 0 1 1514.3 794)">Property </text><path d="M1514.16 799.791 1580.5 799.791 1646.83 799.791 1713.16 799.791 1713.16 803.791 1646.83 803.791 1580.5 803.791 1514.16 803.791Z" fill-rule="evenodd"/><text font-family="Calibri,Calibri_MSFontService,sans-serif" font-weight="700" font-size="55" transform="matrix(1 0 0 1 1498.9 860)">developer</text><path d="M1499.16 865.791 1575.83 865.791 1652.5 865.791 1729.16 865.791 1729.16 869.791 1652.5 869.791 1575.83 869.791 1499.16 869.791Z" fill-rule="evenodd"/><text font-family="Calibri,Calibri_MSFontService,sans-serif" font-weight="700" font-size="55" transform="matrix(1 0 0 1 1860.28 794)">Government </text><path d="M1860.01 799.791 1955.68 799.791 2051.35 799.791 2147.01 799.791 2147.01 803.791 2051.35 803.791 1955.68 803.791 1860.01 803.791Z" fill-rule="evenodd"/><text font-family="Calibri,Calibri_MSFontService,sans-serif" font-weight="700" font-size="55" transform="matrix(1 0 0 1 1926.17 860)">official </text><path d="M1926.01 865.791 2003.51 865.791 2081.01 865.791 2081.01 869.791 2003.51 869.791 1926.01 869.791Z" fill-rule="evenodd"/><text font-family="Calibri,Calibri_MSFontService,sans-serif" font-weight="700" font-size="55" transform="matrix(1 0 0 1 2339.48 827)">NGO</text><path d="M2339.84 832.791 2393.84 832.791 2447.84 832.791 2447.84 836.791 2393.84 836.791 2339.84 836.791Z" fill-rule="evenodd"/><text font-family="Calibri,Calibri_MSFontService,sans-serif" font-weight="700" font-size="55" transform="matrix(1 0 0 1 2641.15 827)">Homeowner</text><path d="M2640.69 832.791 2735.69 832.791 2830.69 832.791 2925.69 832.791 2925.69 836.791 2830.69 836.791 2735.69 836.791 2640.69 836.791Z" fill-rule="evenodd"/><text font-family="Calibri,Calibri_MSFontService,sans-serif" font-weight="400" font-size="50" transform="matrix(1 0 0 1 1176.56 960)">(0.2)<tspan font-size="50" x="389.837" y="0">(0.2)</tspan><tspan font-size="50" x="779.675" y="0">(0.2)</tspan><tspan font-size="50" x="1169.51" y="0">(0.2)</tspan><tspan font-size="50" x="1559.35" y="0">(0.2)</tspan></text><g clip-path="url(#clip1)"><text font-family="Calibri,Calibri_MSFontService,sans-serif" font-weight="700" font-size="55" transform="matrix(1 0 0 1 951.29 1067)">Ag</text></g><text font-family="Calibri,Calibri_MSFontService,sans-serif" font-weight="400" font-size="50" transform="matrix(1 0 0 1 1166.25 1065)">0.751<tspan font-size="50" x="389.837" y="0">0.182</tspan><tspan font-size="50" x="779.675" y="0">0.319</tspan><tspan font-size="50" x="1169.51" y="0">0.091</tspan><tspan font-size="50" x="1559.35" y="0">0.455</tspan><tspan font-size="50" x="1936.3" y="1">0.3596</tspan></text><g clip-path="url(#clip2)"><text font-family="Calibri,Calibri_MSFontService,sans-serif" font-weight="700" font-size="50" transform="matrix(1 0 0 1 940.692 1163)">Con</text></g><text font-family="Calibri,Calibri_MSFontService,sans-serif" font-weight="400" font-size="50" transform="matrix(1 0 0 1 1166.25 1163)">0.087<tspan font-size="50" x="389.837" y="0">0.091</tspan><tspan font-size="50" x="779.675" y="0">0.066</tspan><tspan font-size="50" x="1169.51" y="0">0.818</tspan><tspan font-size="50" x="1559.35" y="0">0.091</tspan><tspan font-size="50" x="1936.3" y="1">0.2306</tspan></text><g clip-path="url(#clip3)"><text font-family="Calibri,Calibri_MSFontService,sans-serif" font-weight="700" font-size="50" transform="matrix(1 0 0 1 942.41 1261)">Urb</text></g><text font-family="Calibri,Calibri_MSFontService,sans-serif" font-weight="400" font-size="50" transform="matrix(1 0 0 1 1166.25 1261)">0.162<tspan font-size="50" x="389.837" y="0">0.727</tspan><tspan font-size="50" x="779.675" y="0">0.615</tspan><tspan font-size="50" x="1169.51" y="0">0.091</tspan><tspan font-size="50" x="1559.35" y="0">0.455</tspan><tspan font-size="50" x="1962.08" y="1">0.41</tspan></text></g></svg>