<svg width="1011" height="453" xmlns="http://www.w3.org/2000/svg" xmlns:xlink="http://www.w3.org/1999/xlink" overflow="hidden"><defs><clipPath id="clip0"><rect x="2668" y="229" width="1011" height="453"/></clipPath><clipPath id="clip1"><rect x="2668" y="-150" width="302" height="925"/></clipPath><clipPath id="clip2"><rect x="2668" y="-150" width="302" height="925"/></clipPath></defs><g clip-path="url(#clip0)" transform="translate(-2668 -229)"><path d="M2668.83 244.225 3676.4 244.225" stroke="#70AD47" stroke-width="4.58333" stroke-linejoin="round" stroke-miterlimit="10" fill="none" fill-rule="evenodd"/><path d="M2668.83 668.826 3676.4 668.826" stroke="#70AD47" stroke-width="4.58333" stroke-linejoin="round" stroke-miterlimit="10" fill="none" fill-rule="evenodd"/><g clip-path="url(#clip1)"><text font-family="Calibri,Calibri_MSFontService,sans-serif" font-weight="700" font-size="55" transform="matrix(1 0 0 1 2670.83 298)">Government </text></g><path d="M2670.83 304.217 2742.58 304.217 2814.33 304.217 2886.08 304.217 2957.83 304.217 2957.83 308.217 2886.08 308.217 2814.33 308.217 2742.58 308.217 2670.83 308.217Z" fill-rule="evenodd"/><g clip-path="url(#clip2)"><text font-family="Calibri,Calibri_MSFontService,sans-serif" font-weight="700" font-size="55" transform="matrix(1 0 0 1 2670.83 364)">official </text></g><path d="M2670.83 370.217 2722.49 370.217 2774.16 370.217 2825.83 370.217 2825.83 374.217 2774.16 374.217 2722.49 374.217 2670.83 374.217Z" fill-rule="evenodd"/><text font-family="Calibri,Calibri_MSFontService,sans-serif" font-weight="700" font-size="55" transform="matrix(1 0 0 1 3057.17 333)">Ag<tspan font-size="55" x="221.168" y="0">Con</tspan><tspan font-size="55" x="458.664" y="0">Urb</tspan><tspan font-size="55" x="-202.005" y="113">Ag</tspan><tspan font-weight="400" font-size="50" x="16.9011" y="110">1</tspan><tspan font-weight="400" font-size="50" x="252.678" y="110">5</tspan><tspan font-weight="400" font-size="50" x="465.825" y="110">1/2</tspan><tspan font-size="50" x="-212.605" y="207">Con</tspan><tspan font-weight="400" font-size="50" x="-5.729" y="207">1/5</tspan><tspan font-weight="400" font-size="50" x="252.678" y="207">1</tspan><tspan font-weight="400" font-size="50" x="465.825" y="207">1/9</tspan><tspan font-size="50" x="-210.886" y="304">Urb</tspan><tspan font-weight="400" font-size="50" x="16.9011" y="304">2</tspan><tspan font-weight="400" font-size="50" x="252.678" y="304">9</tspan><tspan font-weight="400" font-size="50" x="488.455" y="304">1</tspan></text></g></svg>