<svg width="2775" height="681" xmlns="http://www.w3.org/2000/svg" xmlns:xlink="http://www.w3.org/1999/xlink" overflow="hidden"><defs><clipPath id="clip0"><rect x="566" y="724" width="2775" height="681"/></clipPath><clipPath id="clip1"><rect x="566" y="1130" width="440" height="424"/></clipPath></defs><g clip-path="url(#clip0)" transform="translate(-566 -724)"><path d="M566.147 727.226 3338.15 727.226" stroke="#70AD47" stroke-width="4.58333" stroke-linejoin="round" stroke-miterlimit="10" fill="none" fill-rule="evenodd"/><path d="M566.147 1391.08 3338.15 1391.08" stroke="#70AD47" stroke-width="4.58333" stroke-linejoin="round" stroke-miterlimit="10" fill="none" fill-rule="evenodd"/><text font-family="Calibri,Calibri_MSFontService,sans-serif" font-weight="700" font-size="55" transform="matrix(1 0 0 1 1137.12 827)">Farmer 1</text><path d="M1137.18 832.791 1238.18 832.791 1339.18 832.791 1339.18 836.791 1238.18 836.791 1137.18 836.791Z" fill-rule="evenodd"/><text font-family="Calibri,Calibri_MSFontService,sans-serif" font-weight="700" font-size="55" transform="matrix(1 0 0 1 1603.74 827)">Farmer 2</text><path d="M1603.8 832.791 1704.8 832.791 1805.8 832.791 1805.8 836.791 1704.8 836.791 1603.8 836.791Z" fill-rule="evenodd"/><text font-family="Calibri,Calibri_MSFontService,sans-serif" font-weight="700" font-size="55" transform="matrix(1 0 0 1 2070.36 827)">Farmer 3</text><path d="M2070.43 832.791 2171.43 832.791 2272.43 832.791 2272.43 836.791 2171.43 836.791 2070.43 836.791Z" fill-rule="evenodd"/><text font-family="Calibri,Calibri_MSFontService,sans-serif" font-weight="700" font-size="55" transform="matrix(1 0 0 1 2536.99 827)">Farmer 4</text><path d="M2537.05 832.791 2638.05 832.791 2739.05 832.791 2739.05 836.791 2638.05 836.791 2537.05 836.791Z" fill-rule="evenodd"/><text font-family="Calibri,Calibri_MSFontService,sans-serif" font-weight="400" font-size="50" transform="matrix(1 0 0 1 1177.9 960)">(<tspan font-size="50" x="15.4688" y="0">0.25)</tspan><tspan font-size="50" x="466.624" y="0">(</tspan>0.25)<tspan font-size="50" x="933.248" y="0">(</tspan>0.25)<tspan font-size="50" x="1399.87" y="0">(</tspan>0.25)<tspan font-weight="700" font-size="55" x="-513.619" y="107">Row Crops</tspan><tspan font-size="50" x="2.57813" y="105">0.667</tspan><tspan font-size="50" x="469.202" y="105">0.082</tspan><tspan font-size="50" x="935.826" y="105">0.081</tspan><tspan font-size="50" x="1402.45" y="105">0.084</tspan><tspan font-size="50" x="1856.18" y="106">0.2285</tspan><tspan font-weight="700" font-size="50" x="-488.846" y="203">Livestock</tspan><tspan font-size="50" x="2.57813" y="203">0.167</tspan><tspan font-size="50" x="469.202" y="203">0.675</tspan><tspan font-size="50" x="935.826" y="203">0.081</tspan><tspan font-size="50" x="1402.45" y="203">0.079</tspan><tspan font-size="50" x="1856.18" y="204">0.2505</tspan><tspan font-weight="700" font-size="50" x="-512.336" y="301">Timberland</tspan><tspan font-size="50" x="2.57813" y="301">0.083</tspan><tspan font-size="50" x="469.202" y="301">0.164</tspan><tspan font-size="50" x="935.826" y="301">0.685</tspan><tspan font-size="50" x="1402.45" y="301">0.153</tspan><tspan font-size="50" x="1843.29" y="302">0.27125</tspan></text><g clip-path="url(#clip1)"><text font-family="Calibri,Calibri_MSFontService,sans-serif" font-weight="700" font-size="50" transform="matrix(1 0 0 1 571.03 1359)">Orchards and groves</text></g><text font-family="Calibri,Calibri_MSFontService,sans-serif" font-weight="400" font-size="50" transform="matrix(1 0 0 1 1180.47 1359)">0.083<tspan font-size="50" x="466.624" y="0">0.079</tspan><tspan font-size="50" x="933.248" y="0">0.153</tspan><tspan font-size="50" x="1399.87" y="0">0.684</tspan><tspan font-size="50" x="1840.71" y="1">0.24975</tspan></text></g></svg>