<svg width="3877" height="1286" xmlns="http://www.w3.org/2000/svg" xmlns:xlink="http://www.w3.org/1999/xlink" overflow="hidden"><defs><clipPath id="clip0"><rect x="206" y="438" width="3877" height="1286"/></clipPath><clipPath id="clip1"><rect x="206" y="257" width="526" height="463"/></clipPath><clipPath id="clip2"><rect x="1730" y="94" width="334" height="925"/></clipPath><clipPath id="clip3"><rect x="206" y="706" width="526" height="463"/></clipPath><clipPath id="clip4"><rect x="2223" y="257" width="525" height="463"/></clipPath><clipPath id="clip5"><rect x="3746" y="94" width="335" height="925"/></clipPath><clipPath id="clip6"><rect x="2223" y="706" width="525" height="463"/></clipPath><clipPath id="clip7"><rect x="206" y="977" width="526" height="463"/></clipPath><clipPath id="clip8"><rect x="1730" y="814" width="334" height="925"/></clipPath><clipPath id="clip9"><rect x="206" y="1426" width="526" height="463"/></clipPath><clipPath id="clip10"><rect x="2223" y="977" width="525" height="463"/></clipPath><clipPath id="clip11"><rect x="3746" y="814" width="335" height="925"/></clipPath><clipPath id="clip12"><rect x="2223" y="1426" width="525" height="463"/></clipPath></defs><g clip-path="url(#clip0)" transform="translate(-206 -438)"><path d="M206.756 453.371 2063.76 453.371" stroke="#70AD47" stroke-width="4.58333" stroke-linejoin="round" stroke-miterlimit="10" fill="none" fill-rule="evenodd"/><path d="M206.756 981.96 2063.76 981.96" stroke="#70AD47" stroke-width="4.58333" stroke-linejoin="round" stroke-miterlimit="10" fill="none" fill-rule="evenodd"/><g clip-path="url(#clip1)"><text font-family="Calibri,Calibri_MSFontService,sans-serif" font-weight="700" font-size="55" transform="matrix(1 0 0 1 208.748 507)">Farmer 1</text></g><path d="M208.748 513.363 309.748 513.363 410.748 513.363 410.748 517.363 309.748 517.363 208.748 517.363Z" fill-rule="evenodd"/><text font-family="Calibri,Calibri_MSFontService,sans-serif" font-weight="700" font-size="55" transform="matrix(1 0 0 1 776.39 542)">Row Crops<tspan font-size="55" x="350.165" y="0">Livestock</tspan><tspan font-size="55" x="656.146" y="0">Timberland</tspan></text><g clip-path="url(#clip2)"><text font-family="Calibri,Calibri_MSFontService,sans-serif" font-weight="700" font-size="55" transform="matrix(1 0 0 1 1744.65 542)">Orchards and </text></g><text font-family="Calibri,Calibri_MSFontService,sans-serif" font-weight="700" font-size="55" transform="matrix(1 0 0 1 1822.5 608)">groves<tspan font-size="55" x="-1474.87" y="78">Row Crops</tspan><tspan font-weight="400" font-size="55" x="-938.832" y="78">1</tspan><tspan font-weight="400" font-size="55" x="-605.672" y="78">4</tspan><tspan font-weight="400" font-size="55" x="-272.511" y="78">8</tspan><tspan font-weight="400" font-size="55" x="60.6491" y="78">8</tspan><tspan font-size="55" x="-1457.86" y="168">Livestock</tspan><tspan font-weight="400" font-size="55" x="-963.467" y="168">1/4</tspan><tspan font-weight="400" font-size="55" x="-605.672" y="168">1</tspan><tspan font-weight="400" font-size="55" x="-272.511" y="168">2</tspan><tspan font-weight="400" font-size="55" x="60.6491" y="168">2</tspan><tspan font-size="55" x="-1485.04" y="258">Timberland</tspan><tspan font-weight="400" font-size="55" x="-963.467" y="258">1/8</tspan><tspan font-weight="400" font-size="55" x="-630.307" y="258">1/2</tspan><tspan font-weight="400" font-size="55" x="-272.511" y="258">1</tspan><tspan font-weight="400" font-size="55" x="60.6491" y="258">1</tspan></text><g clip-path="url(#clip3)"><text font-family="Calibri,Calibri_MSFontService,sans-serif" font-weight="700" font-size="55" transform="matrix(1 0 0 1 235.428 956)">Orchards and groves</text></g><text font-family="Calibri,Calibri_MSFontService,sans-serif" font-weight="400" font-size="55" transform="matrix(1 0 0 1 859.028 956)">1/8<tspan font-size="55" x="333.16" y="0">1/2</tspan><tspan font-size="55" x="690.956" y="0">1</tspan><tspan font-size="55" x="1024.12" y="0">1</tspan></text><path d="M2223.09 453.371 4080.09 453.371" stroke="#70AD47" stroke-width="4.58333" stroke-linejoin="round" stroke-miterlimit="10" fill="none" fill-rule="evenodd"/><path d="M2223.09 981.96 4080.09 981.96" stroke="#70AD47" stroke-width="4.58333" stroke-linejoin="round" stroke-miterlimit="10" fill="none" fill-rule="evenodd"/><g clip-path="url(#clip4)"><text font-family="Calibri,Calibri_MSFontService,sans-serif" font-weight="700" font-size="55" transform="matrix(1 0 0 1 2225.08 507)">Farmer 2</text></g><path d="M2225.08 513.363 2326.08 513.363 2427.08 513.363 2427.08 517.363 2326.08 517.363 2225.08 517.363Z" fill-rule="evenodd"/><text font-family="Calibri,Calibri_MSFontService,sans-serif" font-weight="700" font-size="55" transform="matrix(1 0 0 1 2792.72 542)">Row Crops<tspan font-size="55" x="350.165" y="0">Livestock</tspan><tspan font-size="55" x="656.146" y="0">Timberland</tspan></text><g clip-path="url(#clip5)"><text font-family="Calibri,Calibri_MSFontService,sans-serif" font-weight="700" font-size="55" transform="matrix(1 0 0 1 3760.98 542)">Orchards and </text></g><text font-family="Calibri,Calibri_MSFontService,sans-serif" font-weight="700" font-size="55" transform="matrix(1 0 0 1 3838.83 608)">groves<tspan font-size="55" x="-1474.87" y="78">Row Crops</tspan><tspan font-weight="400" font-size="55" x="-938.832" y="78">1</tspan><tspan font-weight="400" font-size="55" x="-630.307" y="78">1/8</tspan><tspan font-weight="400" font-size="55" x="-297.147" y="78">1/2</tspan><tspan font-weight="400" font-size="55" x="60.6492" y="78">1</tspan><tspan font-size="55" x="-1457.86" y="168">Livestock</tspan><tspan font-weight="400" font-size="55" x="-938.832" y="168">8</tspan><tspan font-weight="400" font-size="55" x="-605.671" y="168">1</tspan><tspan font-weight="400" font-size="55" x="-272.511" y="168">4</tspan><tspan font-weight="400" font-size="55" x="60.6492" y="168">9</tspan><tspan font-size="55" x="-1485.04" y="258">Timberland</tspan><tspan font-weight="400" font-size="55" x="-938.832" y="258">2</tspan><tspan font-weight="400" font-size="55" x="-630.307" y="258">1/4</tspan><tspan font-weight="400" font-size="55" x="-272.511" y="258">1</tspan><tspan font-weight="400" font-size="55" x="60.6492" y="258">2</tspan></text><g clip-path="url(#clip6)"><text font-family="Calibri,Calibri_MSFontService,sans-serif" font-weight="700" font-size="55" transform="matrix(1 0 0 1 2251.76 956)">Orchards and groves</text></g><text font-family="Calibri,Calibri_MSFontService,sans-serif" font-weight="400" font-size="55" transform="matrix(1 0 0 1 2899.99 956)">1<tspan font-size="55" x="308.525" y="0">1/9</tspan><tspan font-size="55" x="641.685" y="0">1/2</tspan><tspan font-size="55" x="999.481" y="0">1</tspan></text><path d="M206.756 1173.92 2063.76 1173.92" stroke="#70AD47" stroke-width="4.58333" stroke-linejoin="round" stroke-miterlimit="10" fill="none" fill-rule="evenodd"/><path d="M206.756 1702.51 2063.76 1702.51" stroke="#70AD47" stroke-width="4.58333" stroke-linejoin="round" stroke-miterlimit="10" fill="none" fill-rule="evenodd"/><g clip-path="url(#clip7)"><text font-family="Calibri,Calibri_MSFontService,sans-serif" font-weight="700" font-size="55" transform="matrix(1 0 0 1 208.748 1228)">Farmer 3</text></g><path d="M208.748 1233.91 309.748 1233.91 410.748 1233.91 410.748 1237.91 309.748 1237.91 208.748 1237.91Z" fill-rule="evenodd"/><text font-family="Calibri,Calibri_MSFontService,sans-serif" font-weight="700" font-size="55" transform="matrix(1 0 0 1 776.39 1263)">Row Crops<tspan font-size="55" x="350.165" y="0">Livestock</tspan><tspan font-size="55" x="656.146" y="0">Timberland</tspan></text><g clip-path="url(#clip8)"><text font-family="Calibri,Calibri_MSFontService,sans-serif" font-weight="700" font-size="55" transform="matrix(1 0 0 1 1744.65 1263)">Orchards and </text></g><text font-family="Calibri,Calibri_MSFontService,sans-serif" font-weight="700" font-size="55" transform="matrix(1 0 0 1 1822.5 1329)">groves<tspan font-size="55" x="-1474.87" y="78">Row Crops</tspan><tspan font-weight="400" font-size="55" x="-938.832" y="78">1</tspan><tspan font-weight="400" font-size="55" x="-605.672" y="78">1</tspan><tspan font-weight="400" font-size="55" x="-297.147" y="78">1/8</tspan><tspan font-weight="400" font-size="55" x="36.0136" y="78">1/2</tspan><tspan font-size="55" x="-1457.86" y="168">Livestock</tspan><tspan font-weight="400" font-size="55" x="-938.832" y="168">1</tspan><tspan font-weight="400" font-size="55" x="-605.672" y="168">1</tspan><tspan font-weight="400" font-size="55" x="-297.147" y="168">1/8</tspan><tspan font-weight="400" font-size="55" x="36.0136" y="168">1/2</tspan><tspan font-size="55" x="-1485.04" y="258">Timberland</tspan><tspan font-weight="400" font-size="55" x="-938.832" y="258">8</tspan><tspan font-weight="400" font-size="55" x="-605.672" y="258">8</tspan><tspan font-weight="400" font-size="55" x="-272.511" y="258">1</tspan><tspan font-weight="400" font-size="55" x="60.6491" y="258">5</tspan></text><g clip-path="url(#clip9)"><text font-family="Calibri,Calibri_MSFontService,sans-serif" font-weight="700" font-size="55" transform="matrix(1 0 0 1 235.428 1677)">Orchards and groves</text></g><text font-family="Calibri,Calibri_MSFontService,sans-serif" font-weight="400" font-size="55" transform="matrix(1 0 0 1 883.663 1677)">2<tspan font-size="55" x="333.16" y="0">2</tspan><tspan font-size="55" x="641.685" y="0">1/5</tspan><tspan font-size="55" x="999.481" y="0">1</tspan></text><path d="M2223.09 1173.92 4080.09 1173.92" stroke="#70AD47" stroke-width="4.58333" stroke-linejoin="round" stroke-miterlimit="10" fill="none" fill-rule="evenodd"/><path d="M2223.09 1702.51 4080.09 1702.51" stroke="#70AD47" stroke-width="4.58333" stroke-linejoin="round" stroke-miterlimit="10" fill="none" fill-rule="evenodd"/><g clip-path="url(#clip10)"><text font-family="Calibri,Calibri_MSFontService,sans-serif" font-weight="700" font-size="55" transform="matrix(1 0 0 1 2225.08 1228)">Farmer 4</text></g><path d="M2225.08 1233.91 2326.08 1233.91 2427.08 1233.91 2427.08 1237.91 2326.08 1237.91 2225.08 1237.91Z" fill-rule="evenodd"/><text font-family="Calibri,Calibri_MSFontService,sans-serif" font-weight="700" font-size="55" transform="matrix(1 0 0 1 2792.72 1263)">Row Crops<tspan font-size="55" x="350.165" y="0">Livestock</tspan><tspan font-size="55" x="656.146" y="0">Timberland</tspan></text><g clip-path="url(#clip11)"><text font-family="Calibri,Calibri_MSFontService,sans-serif" font-weight="700" font-size="55" transform="matrix(1 0 0 1 3760.98 1263)">Orchards and </text></g><text font-family="Calibri,Calibri_MSFontService,sans-serif" font-weight="700" font-size="55" transform="matrix(1 0 0 1 3838.83 1329)">groves<tspan font-size="55" x="-1474.87" y="78">Row Crops</tspan><tspan font-weight="400" font-size="55" x="-938.832" y="78">1</tspan><tspan font-weight="400" font-size="55" x="-605.671" y="78">1</tspan><tspan font-weight="400" font-size="55" x="-297.147" y="78">1/2</tspan><tspan font-weight="400" font-size="55" x="36.0137" y="78">1/7</tspan><tspan font-size="55" x="-1457.86" y="168">Livestock</tspan><tspan font-weight="400" font-size="55" x="-938.832" y="168">1</tspan><tspan font-weight="400" font-size="55" x="-605.671" y="168">1</tspan><tspan font-weight="400" font-size="55" x="-297.147" y="168">1/2</tspan><tspan font-weight="400" font-size="55" x="36.0137" y="168">1/9</tspan><tspan font-size="55" x="-1485.04" y="258">Timberland</tspan><tspan font-weight="400" font-size="55" x="-938.832" y="258">2</tspan><tspan font-weight="400" font-size="55" x="-605.671" y="258">2</tspan><tspan font-weight="400" font-size="55" x="-272.511" y="258">1</tspan><tspan font-weight="400" font-size="55" x="36.0137" y="258">1/5</tspan></text><g clip-path="url(#clip12)"><text font-family="Calibri,Calibri_MSFontService,sans-serif" font-weight="700" font-size="55" transform="matrix(1 0 0 1 2251.76 1677)">Orchards and groves</text></g><text font-family="Calibri,Calibri_MSFontService,sans-serif" font-weight="400" font-size="55" transform="matrix(1 0 0 1 2899.99 1677)">7<tspan font-size="55" x="333.16" y="0">9</tspan><tspan font-size="55" x="666.321" y="0">5</tspan><tspan font-size="55" x="999.481" y="0">1</tspan></text></g></svg>