<svg width="3877" height="1280" xmlns="http://www.w3.org/2000/svg" xmlns:xlink="http://www.w3.org/1999/xlink" overflow="hidden"><defs><clipPath id="clip0"><rect x="206" y="438" width="3877" height="1280"/></clipPath><clipPath id="clip1"><rect x="206" y="257" width="526" height="463"/></clipPath><clipPath id="clip2"><rect x="1730" y="94" width="334" height="925"/></clipPath><clipPath id="clip3"><rect x="2223" y="257" width="525" height="463"/></clipPath><clipPath id="clip4"><rect x="3746" y="94" width="335" height="925"/></clipPath><clipPath id="clip5"><rect x="206" y="977" width="526" height="463"/></clipPath><clipPath id="clip6"><rect x="1730" y="814" width="334" height="925"/></clipPath><clipPath id="clip7"><rect x="2223" y="977" width="525" height="463"/></clipPath><clipPath id="clip8"><rect x="3746" y="814" width="335" height="925"/></clipPath></defs><g clip-path="url(#clip0)" transform="translate(-206 -438)"><path d="M206.756 453.371 2063.76 453.371" stroke="#70AD47" stroke-width="4.58333" stroke-linejoin="round" stroke-miterlimit="10" fill="none" fill-rule="evenodd"/><path d="M206.756 980.063 2063.76 980.063" stroke="#70AD47" stroke-width="4.58333" stroke-linejoin="round" stroke-miterlimit="10" fill="none" fill-rule="evenodd"/><g clip-path="url(#clip1)"><text font-family="Calibri,Calibri_MSFontService,sans-serif" font-weight="700" font-size="55" transform="matrix(1 0 0 1 208.748 507)">Farmer 1</text></g><path d="M208.748 513.363 309.748 513.363 410.748 513.363 410.748 517.363 309.748 517.363 208.748 517.363Z" fill-rule="evenodd"/><text font-family="Calibri,Calibri_MSFontService,sans-serif" font-weight="700" font-size="55" transform="matrix(1 0 0 1 776.39 542)">Row Crops<tspan font-size="55" x="350.165" y="0">Livestock</tspan><tspan font-size="55" x="656.146" y="0">Timberland</tspan></text><g clip-path="url(#clip2)"><text font-family="Calibri,Calibri_MSFontService,sans-serif" font-weight="700" font-size="55" transform="matrix(1 0 0 1 1744.65 542)">Orchards and </text></g><text font-family="Calibri,Calibri_MSFontService,sans-serif" font-weight="700" font-size="55" transform="matrix(1 0 0 1 1822.5 608)">groves<tspan font-size="55" x="-1474.87" y="78">Row Crops</tspan><tspan font-weight="400" font-size="50" x="-937.686" y="76">1</tspan><tspan font-weight="400" font-size="50" x="-604.526" y="76">4</tspan><tspan font-weight="400" font-size="50" x="-271.366" y="76">8</tspan><tspan font-weight="400" font-size="50" x="61.7948" y="76">8</tspan><tspan font-size="50" x="-1450.09" y="166">Livestock</tspan><tspan font-weight="400" font-size="50" x="-960.317" y="166">1/4</tspan><tspan font-weight="400" font-size="50" x="-604.526" y="166">1</tspan><tspan font-weight="400" font-size="50" x="-271.366" y="166">2</tspan><tspan font-weight="400" font-size="50" x="61.7948" y="166">2</tspan><tspan font-size="50" x="-1473.58" y="255">Timberland</tspan><tspan font-weight="400" font-size="50" x="-960.317" y="255">1/8</tspan><tspan font-weight="400" font-size="50" x="-627.156" y="255">1/2</tspan><tspan font-weight="400" font-size="50" x="-271.366" y="255">1</tspan><tspan font-weight="400" font-size="50" x="61.7948" y="255">1</tspan><tspan font-size="50" x="-1568.11" y="344">Orchards and groves</tspan><tspan font-weight="400" font-size="50" x="-960.317" y="344">1/8</tspan><tspan font-weight="400" font-size="50" x="-627.156" y="344">1/2</tspan><tspan font-weight="400" font-size="50" x="-271.366" y="344">1</tspan><tspan font-weight="400" font-size="50" x="61.7948" y="344">1</tspan></text><path d="M2223.09 453.371 4080.09 453.371" stroke="#70AD47" stroke-width="4.58333" stroke-linejoin="round" stroke-miterlimit="10" fill="none" fill-rule="evenodd"/><path d="M2223.09 980.063 4080.09 980.063" stroke="#70AD47" stroke-width="4.58333" stroke-linejoin="round" stroke-miterlimit="10" fill="none" fill-rule="evenodd"/><g clip-path="url(#clip3)"><text font-family="Calibri,Calibri_MSFontService,sans-serif" font-weight="700" font-size="55" transform="matrix(1 0 0 1 2225.08 507)">Farmer 2</text></g><path d="M2225.08 513.363 2326.08 513.363 2427.08 513.363 2427.08 517.363 2326.08 517.363 2225.08 517.363Z" fill-rule="evenodd"/><text font-family="Calibri,Calibri_MSFontService,sans-serif" font-weight="700" font-size="55" transform="matrix(1 0 0 1 2792.72 542)">Row Crops<tspan font-size="55" x="350.165" y="0">Livestock</tspan><tspan font-size="55" x="656.146" y="0">Timberland</tspan></text><g clip-path="url(#clip4)"><text font-family="Calibri,Calibri_MSFontService,sans-serif" font-weight="700" font-size="55" transform="matrix(1 0 0 1 3760.98 542)">Orchards and </text></g><text font-family="Calibri,Calibri_MSFontService,sans-serif" font-weight="700" font-size="55" transform="matrix(1 0 0 1 3838.83 608)">groves<tspan font-size="55" x="-1474.87" y="78">Row Crops</tspan><tspan font-weight="400" font-size="50" x="-937.686" y="76">1</tspan><tspan font-weight="400" font-size="50" x="-627.156" y="76">1/8</tspan><tspan font-weight="400" font-size="50" x="-293.996" y="76">1/2</tspan><tspan font-weight="400" font-size="50" x="61.7949" y="76">1</tspan><tspan font-size="50" x="-1450.09" y="166">Livestock</tspan><tspan font-weight="400" font-size="50" x="-937.686" y="166">8</tspan><tspan font-weight="400" font-size="50" x="-604.526" y="166">1</tspan><tspan font-weight="400" font-size="50" x="-271.365" y="166">4</tspan><tspan font-weight="400" font-size="50" x="61.7949" y="166">9</tspan><tspan font-size="50" x="-1473.58" y="255">Timberland</tspan><tspan font-weight="400" font-size="50" x="-937.686" y="255">2</tspan><tspan font-weight="400" font-size="50" x="-627.156" y="255">1/4</tspan><tspan font-weight="400" font-size="50" x="-271.365" y="255">1</tspan><tspan font-weight="400" font-size="50" x="61.7949" y="255">2</tspan><tspan font-size="50" x="-1568.11" y="344">Orchards and groves</tspan><tspan font-weight="400" font-size="50" x="-937.686" y="344">1</tspan><tspan font-weight="400" font-size="50" x="-627.156" y="344">1/9</tspan><tspan font-weight="400" font-size="50" x="-293.996" y="344">1/2</tspan><tspan font-weight="400" font-size="50" x="61.7949" y="344">1</tspan></text><path d="M206.756 1173.92 2063.76 1173.92" stroke="#70AD47" stroke-width="4.58333" stroke-linejoin="round" stroke-miterlimit="10" fill="none" fill-rule="evenodd"/><path d="M206.756 1700.61 2063.76 1700.61" stroke="#70AD47" stroke-width="4.58333" stroke-linejoin="round" stroke-miterlimit="10" fill="none" fill-rule="evenodd"/><g clip-path="url(#clip5)"><text font-family="Calibri,Calibri_MSFontService,sans-serif" font-weight="700" font-size="55" transform="matrix(1 0 0 1 208.748 1228)">Farmer 3</text></g><path d="M208.748 1233.91 309.748 1233.91 410.748 1233.91 410.748 1237.91 309.748 1237.91 208.748 1237.91Z" fill-rule="evenodd"/><text font-family="Calibri,Calibri_MSFontService,sans-serif" font-weight="700" font-size="55" transform="matrix(1 0 0 1 776.39 1263)">Row Crops<tspan font-size="55" x="350.165" y="0">Livestock</tspan><tspan font-size="55" x="656.146" y="0">Timberland</tspan></text><g clip-path="url(#clip6)"><text font-family="Calibri,Calibri_MSFontService,sans-serif" font-weight="700" font-size="55" transform="matrix(1 0 0 1 1744.65 1263)">Orchards and </text></g><text font-family="Calibri,Calibri_MSFontService,sans-serif" font-weight="700" font-size="55" transform="matrix(1 0 0 1 1822.5 1329)">groves<tspan font-size="55" x="-1474.87" y="78">Row Crops</tspan><tspan font-weight="400" font-size="50" x="-937.686" y="76">1</tspan><tspan font-weight="400" font-size="50" x="-604.526" y="76">1</tspan><tspan font-weight="400" font-size="50" x="-293.996" y="76">1/8</tspan><tspan font-weight="400" font-size="50" x="39.1646" y="76">1/2</tspan><tspan font-size="50" x="-1450.09" y="165">Livestock</tspan><tspan font-weight="400" font-size="50" x="-937.686" y="165">1</tspan><tspan font-weight="400" font-size="50" x="-604.526" y="165">1</tspan><tspan font-weight="400" font-size="50" x="-293.996" y="165">1/8</tspan><tspan font-weight="400" font-size="50" x="39.1646" y="165">1/2</tspan><tspan font-size="50" x="-1473.58" y="254">Timberland</tspan><tspan font-weight="400" font-size="50" x="-937.686" y="254">8</tspan><tspan font-weight="400" font-size="50" x="-604.526" y="254">8</tspan><tspan font-weight="400" font-size="50" x="-271.366" y="254">1</tspan><tspan font-weight="400" font-size="50" x="61.7948" y="254">5</tspan><tspan font-size="50" x="-1568.11" y="344">Orchards and groves</tspan><tspan font-weight="400" font-size="50" x="-937.686" y="344">2</tspan><tspan font-weight="400" font-size="50" x="-604.526" y="344">2</tspan><tspan font-weight="400" font-size="50" x="-293.996" y="344">1/5</tspan><tspan font-weight="400" font-size="50" x="61.7948" y="344">1</tspan></text><path d="M2223.09 1173.92 4080.09 1173.92" stroke="#70AD47" stroke-width="4.58333" stroke-linejoin="round" stroke-miterlimit="10" fill="none" fill-rule="evenodd"/><path d="M2223.09 1700.61 4080.09 1700.61" stroke="#70AD47" stroke-width="4.58333" stroke-linejoin="round" stroke-miterlimit="10" fill="none" fill-rule="evenodd"/><g clip-path="url(#clip7)"><text font-family="Calibri,Calibri_MSFontService,sans-serif" font-weight="700" font-size="55" transform="matrix(1 0 0 1 2225.08 1228)">Farmer 4</text></g><path d="M2225.08 1233.91 2326.08 1233.91 2427.08 1233.91 2427.08 1237.91 2326.08 1237.91 2225.08 1237.91Z" fill-rule="evenodd"/><text font-family="Calibri,Calibri_MSFontService,sans-serif" font-weight="700" font-size="55" transform="matrix(1 0 0 1 2792.72 1263)">Row Crops<tspan font-size="55" x="350.165" y="0">Livestock</tspan><tspan font-size="55" x="656.146" y="0">Timberland</tspan></text><g clip-path="url(#clip8)"><text font-family="Calibri,Calibri_MSFontService,sans-serif" font-weight="700" font-size="55" transform="matrix(1 0 0 1 3760.98 1263)">Orchards and </text></g><text font-family="Calibri,Calibri_MSFontService,sans-serif" font-weight="700" font-size="55" transform="matrix(1 0 0 1 3838.83 1329)">groves<tspan font-size="55" x="-1474.87" y="78">Row Crops</tspan><tspan font-weight="400" font-size="50" x="-937.686" y="76">1</tspan><tspan font-weight="400" font-size="50" x="-604.526" y="76">1</tspan><tspan font-weight="400" font-size="50" x="-293.996" y="76">1/2</tspan><tspan font-weight="400" font-size="50" x="39.1648" y="76">1/7</tspan><tspan font-size="50" x="-1450.09" y="165">Livestock</tspan><tspan font-weight="400" font-size="50" x="-937.686" y="165">1</tspan><tspan font-weight="400" font-size="50" x="-604.526" y="165">1</tspan><tspan font-weight="400" font-size="50" x="-293.996" y="165">1/2</tspan><tspan font-weight="400" font-size="50" x="39.1648" y="165">1/9</tspan><tspan font-size="50" x="-1473.58" y="254">Timberland</tspan><tspan font-weight="400" font-size="50" x="-937.686" y="254">2</tspan><tspan font-weight="400" font-size="50" x="-604.526" y="254">2</tspan><tspan font-weight="400" font-size="50" x="-271.365" y="254">1</tspan><tspan font-weight="400" font-size="50" x="39.1648" y="254">1/5</tspan><tspan font-size="50" x="-1568.11" y="344">Orchards and groves</tspan><tspan font-weight="400" font-size="50" x="-937.686" y="344">7</tspan><tspan font-weight="400" font-size="50" x="-604.526" y="344">9</tspan><tspan font-weight="400" font-size="50" x="-271.365" y="344">5</tspan><tspan font-weight="400" font-size="50" x="61.7949" y="344">1</tspan></text></g></svg>