<svg width="2643" height="2554" xmlns="http://www.w3.org/2000/svg" xmlns:xlink="http://www.w3.org/1999/xlink" overflow="hidden"><defs><clipPath id="clip0"><rect x="903" y="97" width="2643" height="2554"/></clipPath><clipPath id="clip1"><rect x="903" y="137" width="2641" height="617"/></clipPath><clipPath id="clip2"><rect x="1172" y="325" width="2372" height="617"/></clipPath><clipPath id="clip3"><rect x="1172" y="520" width="2372" height="617"/></clipPath><clipPath id="clip4"><rect x="1172" y="716" width="2372" height="617"/></clipPath><clipPath id="clip5"><rect x="1172" y="913" width="2372" height="617"/></clipPath><clipPath id="clip6"><rect x="903" y="-140" width="2641" height="694"/></clipPath><clipPath id="clip7"><rect x="903" y="1187" width="2641" height="617"/></clipPath><clipPath id="clip8"><rect x="1172" y="1375" width="2372" height="617"/></clipPath><clipPath id="clip9"><rect x="1172" y="1577" width="2372" height="617"/></clipPath><clipPath id="clip10"><rect x="1172" y="1773" width="2372" height="617"/></clipPath><clipPath id="clip11"><rect x="1172" y="1970" width="2372" height="617"/></clipPath><clipPath id="clip12"><rect x="1172" y="1902" width="2372" height="1233"/></clipPath><clipPath id="clip13"><rect x="1172" y="1902" width="2372" height="1233"/></clipPath></defs><g clip-path="url(#clip0)" transform="translate(-903 -97)"><path d="M903.461 1361.52 3543.5 1361.52" stroke="#70AD47" stroke-width="4.58333" stroke-linejoin="round" stroke-miterlimit="10" fill="none" fill-rule="evenodd"/><g clip-path="url(#clip1)"><text font-family="Calibri,Calibri_MSFontService,sans-serif" font-weight="700" font-size="73" transform="matrix(1 0 0 1 905.453 470)">Objective 1    </text></g><text font-family="Calibri,Calibri_MSFontService,sans-serif" font-weight="400" font-size="73" transform="matrix(1 0 0 1 1315.55 470)">Determine lands physically suitable for residential land use.</text><g clip-path="url(#clip2)"><text font-family="Calibri,Calibri_MSFontService,sans-serif" font-weight="400" font-size="73" transform="matrix(1 0 0 1 1174.61 658)">Sub</text></g><text font-family="Calibri,Calibri_MSFontService,sans-serif" font-weight="400" font-size="73" transform="matrix(1 0 0 1 1285.19 658)">-<tspan font-size="73" x="22.3438" y="0">objective 1.1</tspan><tspan font-size="73" x="421.529" y="0">Identify</tspan><tspan font-size="73" x="666.417" y="0">soils suitable for residential land use.</tspan></text><path d="M1174.61 665.942 1689.61 665.942 1689.61 670.942 1174.61 670.942Z" fill-rule="evenodd"/><g clip-path="url(#clip3)"><text font-family="Calibri,Calibri_MSFontService,sans-serif" font-weight="400" font-size="73" transform="matrix(1 0 0 1 1174.61 852)">Sub</text></g><text font-family="Calibri,Calibri_MSFontService,sans-serif" font-weight="400" font-size="73" transform="matrix(1 0 0 1 1285.19 852)">-<tspan font-size="73" x="22.3438" y="0">objective 1.2</tspan><tspan font-size="73" x="421.529" y="0">Identify quiet areas.</tspan></text><path d="M1174.61 860.086 1689.61 860.086 1689.61 865.086 1174.61 865.086Z" fill-rule="evenodd"/><g clip-path="url(#clip4)"><text font-family="Calibri,Calibri_MSFontService,sans-serif" font-weight="400" font-size="73" transform="matrix(1 0 0 1 1174.61 1049)">Sub</text></g><text font-family="Calibri,Calibri_MSFontService,sans-serif" font-weight="400" font-size="73" transform="matrix(1 0 0 1 1285.19 1049)">-<tspan font-size="73" x="22.3438" y="0">objective 1.3</tspan><tspan font-size="73" x="421.529" y="0">Identify lands free of hazardous waste.</tspan></text><path d="M1174.61 1056.55 1689.61 1056.55 1689.61 1061.55 1174.61 1061.55Z" fill-rule="evenodd"/><g clip-path="url(#clip5)"><text font-family="Calibri,Calibri_MSFontService,sans-serif" font-weight="400" font-size="73" transform="matrix(1 0 0 1 1174.61 1245)">Sub</text></g><text font-family="Calibri,Calibri_MSFontService,sans-serif" font-weight="400" font-size="73" transform="matrix(1 0 0 1 1285.19 1245)">-<tspan font-size="73" x="22.3438" y="0">objective 1.4</tspan><tspan font-size="73" x="421.529" y="0">Identify lands with good air quality.</tspan></text><path d="M1174.61 1253.01 1689.61 1253.01 1689.61 1258.01 1174.61 1258.01Z" fill-rule="evenodd"/><path d="M903.462 100.038 3543.5 100.038" stroke="#70AD47" stroke-width="4.58333" stroke-linejoin="round" stroke-miterlimit="10" fill="none" fill-rule="evenodd"/><path d="M903.462 311.906 3543.5 311.906" stroke="#70AD47" stroke-width="4.58333" stroke-linejoin="round" stroke-miterlimit="10" fill="none" fill-rule="evenodd"/><g clip-path="url(#clip6)"><text font-family="Calibri,Calibri_MSFontService,sans-serif" font-weight="700" font-size="83" transform="matrix(1 0 0 1 905.454 234)">Goal: Identify lands suitable for residential land use in THLD area.</text></g><path d="M903.461 2618.7 3543.5 2618.7" stroke="#70AD47" stroke-width="4.58333" stroke-linejoin="round" stroke-miterlimit="10" fill="none" fill-rule="evenodd"/><g clip-path="url(#clip7)"><text font-family="Calibri,Calibri_MSFontService,sans-serif" font-weight="700" font-size="73" transform="matrix(1 0 0 1 905.453 1520)">Objective </text></g><text font-family="Calibri,Calibri_MSFontService,sans-serif" font-weight="700" font-size="73" transform="matrix(1 0 0 1 1211.85 1520)">2    <tspan font-weight="400" font-size="73" x="103.698" y="0">Determine lands economically suitable for residential land use.</tspan></text><g clip-path="url(#clip8)"><text font-family="Calibri,Calibri_MSFontService,sans-serif" font-weight="400" font-size="73" transform="matrix(1 0 0 1 1174.61 1708)">Sub</text></g><text font-family="Calibri,Calibri_MSFontService,sans-serif" font-weight="400" font-size="73" transform="matrix(1 0 0 1 1285.19 1708)">-<tspan font-size="73" x="22.3438" y="0">objective 1.1</tspan><tspan font-size="73" x="421.529" y="0">Identify lands proximal to schools.</tspan></text><path d="M1174.61 1715.91 1689.61 1715.91 1689.61 1720.91 1174.61 1720.91Z" fill-rule="evenodd"/><g clip-path="url(#clip9)"><text font-family="Calibri,Calibri_MSFontService,sans-serif" font-weight="400" font-size="73" transform="matrix(1 0 0 1 1174.61 1909)">Sub</text></g><text font-family="Calibri,Calibri_MSFontService,sans-serif" font-weight="400" font-size="73" transform="matrix(1 0 0 1 1285.19 1909)">-<tspan font-size="73" x="22.3438" y="0">objective 1.2</tspan><tspan font-size="73" x="421.529" y="0">Identify lands proximal to hospitals.</tspan></text><path d="M1174.61 1917.37 1689.61 1917.37 1689.61 1922.37 1174.61 1922.37Z" fill-rule="evenodd"/><g clip-path="url(#clip10)"><text font-family="Calibri,Calibri_MSFontService,sans-serif" font-weight="400" font-size="73" transform="matrix(1 0 0 1 1174.61 2106)">Sub</text></g><text font-family="Calibri,Calibri_MSFontService,sans-serif" font-weight="400" font-size="73" transform="matrix(1 0 0 1 1285.19 2106)">-<tspan font-size="73" x="22.3438" y="0">objective 1.3</tspan><tspan font-size="73" x="421.529" y="0">Identify lands proximal to roads.</tspan></text><path d="M1174.61 2113.83 1689.61 2113.83 1689.61 2118.83 1174.61 2118.83Z" fill-rule="evenodd"/><g clip-path="url(#clip11)"><text font-family="Calibri,Calibri_MSFontService,sans-serif" font-weight="400" font-size="73" transform="matrix(1 0 0 1 1174.61 2302)">Sub</text></g><text font-family="Calibri,Calibri_MSFontService,sans-serif" font-weight="400" font-size="73" transform="matrix(1 0 0 1 1285.19 2302)">-<tspan font-size="73" x="22.3438" y="0">objective 1.4</tspan><tspan font-size="73" x="421.529" y="0">Identify lands with values suitable for residential use.</tspan></text><path d="M1174.61 2310.29 1689.61 2310.29 1689.61 2315.29 1174.61 2315.29Z" fill-rule="evenodd"/><g clip-path="url(#clip12)"><text font-family="Calibri,Calibri_MSFontService,sans-serif" font-weight="400" font-size="73" transform="matrix(1 0 0 1 1174.61 2499)">Sub</text></g><text font-family="Calibri,Calibri_MSFontService,sans-serif" font-weight="400" font-size="73" transform="matrix(1 0 0 1 1285.19 2499)">-<tspan font-size="73" x="22.3438" y="0">objective 1.5</tspan><tspan font-size="73" x="438.144" y="0">Identify lands proximal to existing public water and sewer </tspan></text><path d="M1174.61 2506.75 1689.61 2506.75 1689.61 2511.75 1174.61 2511.75Z" fill-rule="evenodd"/><g clip-path="url(#clip13)"><text font-family="Calibri,Calibri_MSFontService,sans-serif" font-weight="400" font-size="73" transform="matrix(1 0 0 1 1174.61 2587)">service.</text></g></g></svg>