<svg width="2843" height="2562" xmlns="http://www.w3.org/2000/svg" xmlns:xlink="http://www.w3.org/1999/xlink" overflow="hidden"><defs><clipPath id="clip0"><rect x="903" y="97" width="2843" height="2562"/></clipPath><clipPath id="clip1"><rect x="903" y="140" width="2840" height="617"/></clipPath><clipPath id="clip2"><rect x="1192" y="330" width="2551" height="617"/></clipPath><clipPath id="clip3"><rect x="1192" y="527" width="2551" height="617"/></clipPath><clipPath id="clip4"><rect x="1192" y="727" width="2551" height="617"/></clipPath><clipPath id="clip5"><rect x="1192" y="926" width="2551" height="617"/></clipPath><clipPath id="clip6"><rect x="903" y="-138" width="2840" height="694"/></clipPath><clipPath id="clip7"><rect x="903" y="1206" width="2840" height="617"/></clipPath><clipPath id="clip8"><rect x="1192" y="1397" width="2551" height="617"/></clipPath><clipPath id="clip9"><rect x="1192" y="1601" width="2551" height="617"/></clipPath><clipPath id="clip10"><rect x="1192" y="1801" width="2551" height="617"/></clipPath><clipPath id="clip11"><rect x="1192" y="2000" width="2551" height="617"/></clipPath><clipPath id="clip12"><rect x="1192" y="2200" width="2551" height="617"/></clipPath></defs><g clip-path="url(#clip0)" transform="translate(-903 -97)"><path d="M903.461 311.759 3742.78 311.759 3742.78 582.457 903.461 582.457Z" fill="#C5E0B4" fill-rule="evenodd"/><path d="M903.461 582.457 1192.94 582.457 1192.94 779.699 903.461 779.699Z" fill="#E2F0D9" fill-rule="evenodd"/><path d="M1192.94 582.457 3742.78 582.457 3742.78 779.699 1192.94 779.699Z" fill="#E2F0D9" fill-rule="evenodd"/><path d="M903.461 779.699 1192.94 779.699 1192.94 979.293 903.461 979.293Z" fill="#E2F0D9" fill-rule="evenodd"/><path d="M1192.94 779.699 3742.78 779.699 3742.78 979.293 1192.94 979.293Z" fill="#E2F0D9" fill-rule="evenodd"/><path d="M903.461 979.293 1192.94 979.293 1192.94 1178.89 903.461 1178.89Z" fill="#E2F0D9" fill-rule="evenodd"/><path d="M1192.94 979.293 3742.78 979.293 3742.78 1178.89 1192.94 1178.89Z" fill="#E2F0D9" fill-rule="evenodd"/><path d="M903.461 1178.89 1192.94 1178.89 1192.94 1378.48 903.461 1378.48Z" fill="#E2F0D9" fill-rule="evenodd"/><path d="M1192.94 1178.89 3742.78 1178.89 3742.78 1378.48 1192.94 1378.48Z" fill="#E2F0D9" fill-rule="evenodd"/><path d="M1192.94 779.699 3742.78 779.699" stroke="#A9D18E" stroke-width="4.58333" stroke-linejoin="round" stroke-miterlimit="10" fill="none" fill-rule="evenodd"/><path d="M1192.94 979.293 3742.78 979.293" stroke="#A9D18E" stroke-width="4.58333" stroke-linejoin="round" stroke-miterlimit="10" fill="none" fill-rule="evenodd"/><path d="M1192.94 1178.89 3742.78 1178.89" stroke="#A9D18E" stroke-width="4.58333" stroke-linejoin="round" stroke-miterlimit="10" fill="none" fill-rule="evenodd"/><path d="M903.461 1378.48 3742.78 1378.48" stroke="#70AD47" stroke-width="4.58333" stroke-linejoin="round" stroke-miterlimit="10" fill="none" fill-rule="evenodd"/><g clip-path="url(#clip1)"><text font-family="Calibri,Calibri_MSFontService,sans-serif" font-weight="700" font-size="73" transform="matrix(1 0 0 1 905.453 472)">Objective 1    </text></g><text font-family="Calibri,Calibri_MSFontService,sans-serif" font-weight="400" font-size="73" transform="matrix(1 0 0 1 1315.55 472)">Determine lands physically suitable for residential land use.</text><g clip-path="url(#clip2)"><text font-family="Calibri,Calibri_MSFontService,sans-serif" font-weight="400" font-size="73" transform="matrix(1 0 0 1 1194.93 662)">Sub</text></g><text font-family="Calibri,Calibri_MSFontService,sans-serif" font-weight="400" font-size="73" transform="matrix(1 0 0 1 1305.5 662)">-<tspan font-size="73" x="22.3438" y="0">objective 1.1</tspan><tspan font-size="73" x="421.529" y="0">Identify</tspan><tspan font-size="73" x="666.417" y="0">soils suitable for residential land use.</tspan></text><path d="M1194.93 670.407 1709.93 670.407 1709.93 675.407 1194.93 675.407Z" fill-rule="evenodd"/><g clip-path="url(#clip3)"><text font-family="Calibri,Calibri_MSFontService,sans-serif" font-weight="400" font-size="73" transform="matrix(1 0 0 1 1194.93 860)">Sub</text></g><text font-family="Calibri,Calibri_MSFontService,sans-serif" font-weight="400" font-size="73" transform="matrix(1 0 0 1 1305.5 860)">-<tspan font-size="73" x="22.3438" y="0">objective 1.2</tspan><tspan font-size="73" x="421.529" y="0">Identify quiet areas.</tspan></text><path d="M1194.93 867.649 1709.93 867.649 1709.93 872.649 1194.93 872.649Z" fill-rule="evenodd"/><g clip-path="url(#clip4)"><text font-family="Calibri,Calibri_MSFontService,sans-serif" font-weight="400" font-size="73" transform="matrix(1 0 0 1 1194.93 1059)">Sub</text></g><text font-family="Calibri,Calibri_MSFontService,sans-serif" font-weight="400" font-size="73" transform="matrix(1 0 0 1 1305.5 1059)">-<tspan font-size="73" x="22.3438" y="0">objective 1.3</tspan><tspan font-size="73" x="421.529" y="0">Identify lands free of hazardous waste.</tspan></text><path d="M1194.93 1067.24 1709.93 1067.24 1709.93 1072.24 1194.93 1072.24Z" fill-rule="evenodd"/><g clip-path="url(#clip5)"><text font-family="Calibri,Calibri_MSFontService,sans-serif" font-weight="400" font-size="73" transform="matrix(1 0 0 1 1194.93 1259)">Sub</text></g><text font-family="Calibri,Calibri_MSFontService,sans-serif" font-weight="400" font-size="73" transform="matrix(1 0 0 1 1305.5 1259)">-<tspan font-size="73" x="22.3438" y="0">objective 1.4</tspan><tspan font-size="73" x="421.529" y="0">Identify lands with good air quality.</tspan></text><path d="M1194.93 1266.84 1709.93 1266.84 1709.93 1271.84 1194.93 1271.84Z" fill-rule="evenodd"/><path d="M903.462 100.081 3742.79 100.081 3742.79 315.329 903.462 315.329Z" fill="#A9D18E" fill-rule="evenodd"/><path d="M903.462 100.081 3742.79 100.081" stroke="#70AD47" stroke-width="4.58333" stroke-linejoin="round" stroke-miterlimit="10" fill="none" fill-rule="evenodd"/><g clip-path="url(#clip6)"><text font-family="Calibri,Calibri_MSFontService,sans-serif" font-weight="700" font-size="83" transform="matrix(1 0 0 1 905.453 236)">Goal: Identify lands suitable for residential land use in THLD area.</text></g><path d="M903.461 1378.48 3742.78 1378.48 3742.78 1649.18 903.461 1649.18Z" fill="#C5E0B4" fill-rule="evenodd"/><path d="M903.461 1649.18 1192.94 1649.18 1192.94 1853.85 903.461 1853.85Z" fill="#E2F0D9" fill-rule="evenodd"/><path d="M1192.94 1649.18 3742.78 1649.18 3742.78 1853.85 1192.94 1853.85Z" fill="#E2F0D9" fill-rule="evenodd"/><path d="M903.461 1853.85 1192.94 1853.85 1192.94 2053.44 903.461 2053.44Z" fill="#E2F0D9" fill-rule="evenodd"/><path d="M1192.94 1853.85 3742.78 1853.85 3742.78 2053.44 1192.94 2053.44Z" fill="#E2F0D9" fill-rule="evenodd"/><path d="M903.461 2053.44 1192.94 2053.44 1192.94 2253.04 903.461 2253.04Z" fill="#E2F0D9" fill-rule="evenodd"/><path d="M1192.94 2053.44 3742.78 2053.44 3742.78 2253.04 1192.94 2253.04Z" fill="#E2F0D9" fill-rule="evenodd"/><path d="M903.461 2253.04 1192.94 2253.04 1192.94 2452.63 903.461 2452.63Z" fill="#E2F0D9" fill-rule="evenodd"/><path d="M1192.94 2253.04 3742.78 2253.04 3742.78 2452.63 1192.94 2452.63Z" fill="#E2F0D9" fill-rule="evenodd"/><path d="M903.461 2452.63 1192.94 2452.63 1192.94 2655.76 903.461 2655.76Z" fill="#E2F0D9" fill-rule="evenodd"/><path d="M1192.94 2452.63 3742.78 2452.63 3742.78 2655.76 1192.94 2655.76Z" fill="#E2F0D9" fill-rule="evenodd"/><path d="M1192.94 1853.85 3742.78 1853.85" stroke="#A9D18E" stroke-width="4.58333" stroke-linejoin="round" stroke-miterlimit="10" fill="none" fill-rule="evenodd"/><path d="M1192.94 2053.44 3742.78 2053.44" stroke="#A9D18E" stroke-width="4.58333" stroke-linejoin="round" stroke-miterlimit="10" fill="none" fill-rule="evenodd"/><path d="M1192.94 2253.04 3742.78 2253.04" stroke="#A9D18E" stroke-width="4.58333" stroke-linejoin="round" stroke-miterlimit="10" fill="none" fill-rule="evenodd"/><path d="M1192.94 2452.63 3742.78 2452.63" stroke="#A9D18E" stroke-width="4.58333" stroke-linejoin="round" stroke-miterlimit="10" fill="none" fill-rule="evenodd"/><path d="M903.461 2655.76 3742.78 2655.76" stroke="#70AD47" stroke-width="4.58333" stroke-linejoin="round" stroke-miterlimit="10" fill="none" fill-rule="evenodd"/><g clip-path="url(#clip7)"><text font-family="Calibri,Calibri_MSFontService,sans-serif" font-weight="700" font-size="73" transform="matrix(1 0 0 1 905.453 1539)">Objective </text></g><text font-family="Calibri,Calibri_MSFontService,sans-serif" font-weight="700" font-size="73" transform="matrix(1 0 0 1 1211.85 1539)">2    <tspan font-weight="400" font-size="73" x="103.698" y="0">Determine lands economically suitable for residential land use.</tspan></text><g clip-path="url(#clip8)"><text font-family="Calibri,Calibri_MSFontService,sans-serif" font-weight="400" font-size="73" transform="matrix(1 0 0 1 1194.93 1729)">Sub</text></g><text font-family="Calibri,Calibri_MSFontService,sans-serif" font-weight="400" font-size="73" transform="matrix(1 0 0 1 1305.5 1729)">-<tspan font-size="73" x="22.3438" y="0">objective 1.1</tspan><tspan font-size="73" x="421.529" y="0">Identify lands proximal to schools.</tspan></text><path d="M1194.93 1737.13 1709.93 1737.13 1709.93 1742.13 1194.93 1742.13Z" fill-rule="evenodd"/><g clip-path="url(#clip9)"><text font-family="Calibri,Calibri_MSFontService,sans-serif" font-weight="400" font-size="73" transform="matrix(1 0 0 1 1194.93 1934)">Sub</text></g><text font-family="Calibri,Calibri_MSFontService,sans-serif" font-weight="400" font-size="73" transform="matrix(1 0 0 1 1305.5 1934)">-<tspan font-size="73" x="22.3438" y="0">objective 1.2</tspan><tspan font-size="73" x="421.529" y="0">Identify lands proximal to hospitals.</tspan></text><path d="M1194.93 1941.8 1709.93 1941.8 1709.93 1946.8 1194.93 1946.8Z" fill-rule="evenodd"/><g clip-path="url(#clip10)"><text font-family="Calibri,Calibri_MSFontService,sans-serif" font-weight="400" font-size="73" transform="matrix(1 0 0 1 1194.93 2133)">Sub</text></g><text font-family="Calibri,Calibri_MSFontService,sans-serif" font-weight="400" font-size="73" transform="matrix(1 0 0 1 1305.5 2133)">-<tspan font-size="73" x="22.3438" y="0">objective 1.3</tspan><tspan font-size="73" x="421.529" y="0">Identify lands proximal to roads.</tspan></text><path d="M1194.93 2141.39 1709.93 2141.39 1709.93 2146.39 1194.93 2146.39Z" fill-rule="evenodd"/><g clip-path="url(#clip11)"><text font-family="Calibri,Calibri_MSFontService,sans-serif" font-weight="400" font-size="73" transform="matrix(1 0 0 1 1194.93 2333)">Sub</text></g><text font-family="Calibri,Calibri_MSFontService,sans-serif" font-weight="400" font-size="73" transform="matrix(1 0 0 1 1305.5 2333)">-<tspan font-size="73" x="22.3438" y="0">objective 1.4</tspan><tspan font-size="73" x="421.529" y="0">Identify lands with values suitable for residential use.</tspan></text><path d="M1194.93 2340.99 1709.93 2340.99 1709.93 2345.99 1194.93 2345.99Z" fill-rule="evenodd"/><g clip-path="url(#clip12)"><text font-family="Calibri,Calibri_MSFontService,sans-serif" font-weight="400" font-size="73" transform="matrix(1 0 0 1 1194.93 2533)">Sub</text></g><text font-family="Calibri,Calibri_MSFontService,sans-serif" font-weight="400" font-size="73" transform="matrix(1 0 0 1 1305.5 2533)">-<tspan font-size="73" x="22.3438" y="0">objective 1.5</tspan><tspan font-size="73" x="438.144" y="0">Identify lands proximal to existing public water and sewer service.</tspan></text><path d="M1194.93 2540.58 1709.93 2540.58 1709.93 2545.58 1194.93 2545.58Z" fill-rule="evenodd"/></g></svg>