<svg width="2843" height="2643" xmlns="http://www.w3.org/2000/svg" xmlns:xlink="http://www.w3.org/1999/xlink" overflow="hidden"><defs><clipPath id="clip0"><rect x="903" y="97" width="2843" height="2643"/></clipPath><clipPath id="clip1"><rect x="903" y="78" width="2840" height="617"/></clipPath><clipPath id="clip2"><rect x="1192" y="326" width="2551" height="617"/></clipPath><clipPath id="clip3"><rect x="1192" y="560" width="2551" height="617"/></clipPath><clipPath id="clip4"><rect x="1192" y="794" width="2551" height="617"/></clipPath><clipPath id="clip5"><rect x="1192" y="1028" width="2551" height="617"/></clipPath><clipPath id="clip6"><rect x="903" y="-138" width="2840" height="694"/></clipPath><clipPath id="clip7"><rect x="903" y="1160" width="2840" height="617"/></clipPath><clipPath id="clip8"><rect x="1192" y="1408" width="2551" height="617"/></clipPath><clipPath id="clip9"><rect x="1192" y="1642" width="2551" height="617"/></clipPath><clipPath id="clip10"><rect x="1192" y="1876" width="2551" height="617"/></clipPath><clipPath id="clip11"><rect x="1192" y="2110" width="2551" height="617"/></clipPath><clipPath id="clip12"><rect x="1192" y="2343" width="2551" height="617"/></clipPath></defs><g clip-path="url(#clip0)" transform="translate(-903 -97)"><path d="M903.461 311.759 3742.78 311.759 3742.78 458.749 903.461 458.749Z" fill="#C5E0B4" fill-rule="evenodd"/><path d="M903.461 458.749 1192.94 458.749 1192.94 692.516 903.461 692.516Z" fill="#E2F0D9" fill-rule="evenodd"/><path d="M1192.94 458.749 3742.78 458.749 3742.78 692.516 1192.94 692.516Z" fill="#E2F0D9" fill-rule="evenodd"/><path d="M903.461 692.516 1192.94 692.516 1192.94 926.282 903.461 926.282Z" fill="#E2F0D9" fill-rule="evenodd"/><path d="M1192.94 692.516 3742.78 692.516 3742.78 926.282 1192.94 926.282Z" fill="#E2F0D9" fill-rule="evenodd"/><path d="M903.461 926.282 1192.94 926.282 1192.94 1160.05 903.461 1160.05Z" fill="#E2F0D9" fill-rule="evenodd"/><path d="M1192.94 926.282 3742.78 926.282 3742.78 1160.05 1192.94 1160.05Z" fill="#E2F0D9" fill-rule="evenodd"/><path d="M903.461 1160.05 1192.94 1160.05 1192.94 1393.82 903.461 1393.82Z" fill="#E2F0D9" fill-rule="evenodd"/><path d="M1192.94 1160.05 3742.78 1160.05 3742.78 1393.82 1192.94 1393.82Z" fill="#E2F0D9" fill-rule="evenodd"/><path d="M1192.94 692.516 3742.78 692.516" stroke="#A9D18E" stroke-width="4.58333" stroke-linejoin="round" stroke-miterlimit="10" fill="none" fill-rule="evenodd"/><path d="M1192.94 926.282 3742.78 926.282" stroke="#A9D18E" stroke-width="4.58333" stroke-linejoin="round" stroke-miterlimit="10" fill="none" fill-rule="evenodd"/><path d="M1192.94 1160.05 3742.78 1160.05" stroke="#A9D18E" stroke-width="4.58333" stroke-linejoin="round" stroke-miterlimit="10" fill="none" fill-rule="evenodd"/><path d="M903.461 1393.82 3742.78 1393.82" stroke="#70AD47" stroke-width="4.58333" stroke-linejoin="round" stroke-miterlimit="10" fill="none" fill-rule="evenodd"/><g clip-path="url(#clip1)"><text font-family="Calibri,Calibri_MSFontService,sans-serif" font-weight="700" font-size="73" transform="matrix(1 0 0 1 905.453 410)">Objective 1    </text></g><text font-family="Calibri,Calibri_MSFontService,sans-serif" font-weight="400" font-size="73" transform="matrix(1 0 0 1 1315.55 410)">Determine lands physically suitable for residential land use.</text><g clip-path="url(#clip2)"><text font-family="Calibri,Calibri_MSFontService,sans-serif" font-weight="400" font-size="73" transform="matrix(1 0 0 1 1194.93 659)">Sub</text></g><text font-family="Calibri,Calibri_MSFontService,sans-serif" font-weight="400" font-size="73" transform="matrix(1 0 0 1 1305.5 659)">-<tspan font-size="73" x="22.3438" y="0">objective 1.1</tspan><tspan font-size="73" x="421.529" y="0">Identify soils suitable for residential land use.</tspan></text><g clip-path="url(#clip3)"><text font-family="Calibri,Calibri_MSFontService,sans-serif" font-weight="400" font-size="73" transform="matrix(1 0 0 1 1194.93 893)">Sub</text></g><text font-family="Calibri,Calibri_MSFontService,sans-serif" font-weight="400" font-size="73" transform="matrix(1 0 0 1 1305.5 893)">-<tspan font-size="73" x="22.3438" y="0">objective 1.2 Identify quiet areas.</tspan></text><g clip-path="url(#clip4)"><text font-family="Calibri,Calibri_MSFontService,sans-serif" font-weight="400" font-size="73" transform="matrix(1 0 0 1 1194.93 1126)">Sub</text></g><text font-family="Calibri,Calibri_MSFontService,sans-serif" font-weight="400" font-size="73" transform="matrix(1 0 0 1 1305.5 1126)">-<tspan font-size="73" x="22.3438" y="0">objective 1.3 Identify lands free of hazardous waste.</tspan></text><g clip-path="url(#clip5)"><text font-family="Calibri,Calibri_MSFontService,sans-serif" font-weight="400" font-size="73" transform="matrix(1 0 0 1 1194.93 1360)">Sub</text></g><text font-family="Calibri,Calibri_MSFontService,sans-serif" font-weight="400" font-size="73" transform="matrix(1 0 0 1 1305.5 1360)">-<tspan font-size="73" x="22.3438" y="0">objective 1.4 Identify lands with good air quality.</tspan></text><path d="M903.462 100.081 3742.79 100.081 3742.79 315.329 903.462 315.329Z" fill="#A9D18E" fill-rule="evenodd"/><path d="M903.462 100.081 3742.79 100.081" stroke="#70AD47" stroke-width="4.58333" stroke-linejoin="round" stroke-miterlimit="10" fill="none" fill-rule="evenodd"/><g clip-path="url(#clip6)"><text font-family="Calibri,Calibri_MSFontService,sans-serif" font-weight="700" font-size="83" transform="matrix(1 0 0 1 905.453 236)">Goal: Identify lands suitable for residential land use in THLD area.</text></g><path d="M903.46 1393.81 3742.78 1393.81 3742.78 1540.8 903.46 1540.8Z" fill="#C5E0B4" fill-rule="evenodd"/><path d="M903.46 1540.8 1192.94 1540.8 1192.94 1774.57 903.46 1774.57Z" fill="#E2F0D9" fill-rule="evenodd"/><path d="M1192.94 1540.8 3742.78 1540.8 3742.78 1774.57 1192.94 1774.57Z" fill="#E2F0D9" fill-rule="evenodd"/><path d="M903.46 1774.57 1192.94 1774.57 1192.94 2008.34 903.46 2008.34Z" fill="#E2F0D9" fill-rule="evenodd"/><path d="M1192.94 1774.57 3742.78 1774.57 3742.78 2008.34 1192.94 2008.34Z" fill="#E2F0D9" fill-rule="evenodd"/><path d="M903.46 2008.34 1192.94 2008.34 1192.94 2242.1 903.46 2242.1Z" fill="#E2F0D9" fill-rule="evenodd"/><path d="M1192.94 2008.34 3742.78 2008.34 3742.78 2242.1 1192.94 2242.1Z" fill="#E2F0D9" fill-rule="evenodd"/><path d="M903.46 2242.1 1192.94 2242.1 1192.94 2475.87 903.46 2475.87Z" fill="#E2F0D9" fill-rule="evenodd"/><path d="M1192.94 2242.1 3742.78 2242.1 3742.78 2475.87 1192.94 2475.87Z" fill="#E2F0D9" fill-rule="evenodd"/><path d="M903.46 2475.87 1192.94 2475.87 1192.94 2709.64 903.46 2709.64Z" fill="#E2F0D9" fill-rule="evenodd"/><path d="M1192.94 2475.87 3742.78 2475.87 3742.78 2709.64 1192.94 2709.64Z" fill="#E2F0D9" fill-rule="evenodd"/><path d="M1192.94 1774.57 3742.78 1774.57" stroke="#A9D18E" stroke-width="4.58333" stroke-linejoin="round" stroke-miterlimit="10" fill="none" fill-rule="evenodd"/><path d="M1192.94 2008.34 3742.78 2008.34" stroke="#A9D18E" stroke-width="4.58333" stroke-linejoin="round" stroke-miterlimit="10" fill="none" fill-rule="evenodd"/><path d="M1192.94 2242.1 3742.78 2242.1" stroke="#A9D18E" stroke-width="4.58333" stroke-linejoin="round" stroke-miterlimit="10" fill="none" fill-rule="evenodd"/><path d="M1192.94 2475.87 3742.78 2475.87" stroke="#A9D18E" stroke-width="4.58333" stroke-linejoin="round" stroke-miterlimit="10" fill="none" fill-rule="evenodd"/><path d="M903.46 2709.64 3742.78 2709.64" stroke="#70AD47" stroke-width="4.58333" stroke-linejoin="round" stroke-miterlimit="10" fill="none" fill-rule="evenodd"/><g clip-path="url(#clip7)"><text font-family="Calibri,Calibri_MSFontService,sans-serif" font-weight="700" font-size="73" transform="matrix(1 0 0 1 905.452 1492)">Objective </text></g><text font-family="Calibri,Calibri_MSFontService,sans-serif" font-weight="700" font-size="73" transform="matrix(1 0 0 1 1211.85 1492)">2    <tspan font-weight="400" font-size="73" x="103.698" y="0">Determine lands economically suitable for residential land use.</tspan></text><g clip-path="url(#clip8)"><text font-family="Calibri,Calibri_MSFontService,sans-serif" font-weight="400" font-size="73" transform="matrix(1 0 0 1 1194.93 1741)">Sub</text></g><text font-family="Calibri,Calibri_MSFontService,sans-serif" font-weight="400" font-size="73" transform="matrix(1 0 0 1 1305.5 1741)">-<tspan font-size="73" x="22.3438" y="0">objective </tspan>2.1<tspan font-size="73" x="421.529" y="0">Identify lands proximal to schools.</tspan></text><g clip-path="url(#clip9)"><text font-family="Calibri,Calibri_MSFontService,sans-serif" font-weight="400" font-size="73" transform="matrix(1 0 0 1 1194.93 1975)">Sub</text></g><text font-family="Calibri,Calibri_MSFontService,sans-serif" font-weight="400" font-size="73" transform="matrix(1 0 0 1 1305.5 1975)">-<tspan font-size="73" x="22.3438" y="0">objective </tspan>2.2 Identify lands proximal to hospitals.</text><g clip-path="url(#clip10)"><text font-family="Calibri,Calibri_MSFontService,sans-serif" font-weight="400" font-size="73" transform="matrix(1 0 0 1 1194.93 2208)">Sub</text></g><text font-family="Calibri,Calibri_MSFontService,sans-serif" font-weight="400" font-size="73" transform="matrix(1 0 0 1 1305.5 2208)">-<tspan font-size="73" x="22.3438" y="0">objective </tspan>2.3 Identify lands proximal to roads.</text><g clip-path="url(#clip11)"><text font-family="Calibri,Calibri_MSFontService,sans-serif" font-weight="400" font-size="73" transform="matrix(1 0 0 1 1194.93 2442)">Sub</text></g><text font-family="Calibri,Calibri_MSFontService,sans-serif" font-weight="400" font-size="73" transform="matrix(1 0 0 1 1305.5 2442)">-<tspan font-size="73" x="22.3438" y="0">objective </tspan>2.4 Identify lands with values suitable for residential use.</text><g clip-path="url(#clip12)"><text font-family="Calibri,Calibri_MSFontService,sans-serif" font-weight="400" font-size="73" transform="matrix(1 0 0 1 1194.93 2676)">Sub</text></g><text font-family="Calibri,Calibri_MSFontService,sans-serif" font-weight="400" font-size="73" transform="matrix(1 0 0 1 1305.5 2676)">-<tspan font-size="73" x="22.3438" y="0">objective 2.5  Identify lands proximal to existing public water and sewer service.</tspan></text></g></svg>