<svg width="2843" height="1785" xmlns="http://www.w3.org/2000/svg" xmlns:xlink="http://www.w3.org/1999/xlink" overflow="hidden"><defs><clipPath id="clip0"><rect x="903" y="97" width="2843" height="1785"/></clipPath><clipPath id="clip1"><rect x="903" y="78" width="2840" height="617"/></clipPath><clipPath id="clip2"><rect x="1192" y="216" width="2551" height="617"/></clipPath><clipPath id="clip3"><rect x="1192" y="348" width="2551" height="617"/></clipPath><clipPath id="clip4"><rect x="1192" y="480" width="2551" height="617"/></clipPath><clipPath id="clip5"><rect x="1192" y="612" width="2551" height="617"/></clipPath><clipPath id="clip6"><rect x="903" y="-138" width="2840" height="694"/></clipPath><clipPath id="clip7"><rect x="903" y="753" width="2840" height="617"/></clipPath><clipPath id="clip8"><rect x="1192" y="891" width="2551" height="617"/></clipPath><clipPath id="clip9"><rect x="1192" y="1023" width="2551" height="617"/></clipPath><clipPath id="clip10"><rect x="1192" y="1155" width="2551" height="617"/></clipPath><clipPath id="clip11"><rect x="1192" y="1287" width="2551" height="617"/></clipPath><clipPath id="clip12"><rect x="1192" y="1133" width="2551" height="1233"/></clipPath><clipPath id="clip13"><rect x="1192" y="1133" width="2551" height="1233"/></clipPath></defs><g clip-path="url(#clip0)" transform="translate(-903 -97)"><path d="M903.461 311.759 3742.78 311.759 3742.78 458.749 903.461 458.749Z" fill="#C5E0B4" fill-rule="evenodd"/><path d="M903.461 458.749 1192.94 458.749 1192.94 590.749 903.461 590.749Z" fill="#E2F0D9" fill-rule="evenodd"/><path d="M1192.94 458.749 3742.78 458.749 3742.78 590.749 1192.94 590.749Z" fill="#E2F0D9" fill-rule="evenodd"/><path d="M903.461 590.749 1192.94 590.749 1192.94 722.749 903.461 722.749Z" fill="#E2F0D9" fill-rule="evenodd"/><path d="M1192.94 590.749 3742.78 590.749 3742.78 722.749 1192.94 722.749Z" fill="#E2F0D9" fill-rule="evenodd"/><path d="M903.461 722.749 1192.94 722.749 1192.94 854.749 903.461 854.749Z" fill="#E2F0D9" fill-rule="evenodd"/><path d="M1192.94 722.749 3742.78 722.749 3742.78 854.749 1192.94 854.749Z" fill="#E2F0D9" fill-rule="evenodd"/><path d="M903.461 854.749 1192.94 854.749 1192.94 986.749 903.461 986.749Z" fill="#E2F0D9" fill-rule="evenodd"/><path d="M1192.94 854.749 3742.78 854.749 3742.78 986.749 1192.94 986.749Z" fill="#E2F0D9" fill-rule="evenodd"/><path d="M1192.94 590.749 3742.78 590.749" stroke="#A9D18E" stroke-width="4.58333" stroke-linejoin="round" stroke-miterlimit="10" fill="none" fill-rule="evenodd"/><path d="M1192.94 722.749 3742.78 722.749" stroke="#A9D18E" stroke-width="4.58333" stroke-linejoin="round" stroke-miterlimit="10" fill="none" fill-rule="evenodd"/><path d="M1192.94 854.749 3742.78 854.749" stroke="#A9D18E" stroke-width="4.58333" stroke-linejoin="round" stroke-miterlimit="10" fill="none" fill-rule="evenodd"/><path d="M903.461 986.749 3742.78 986.749" stroke="#70AD47" stroke-width="4.58333" stroke-linejoin="round" stroke-miterlimit="10" fill="none" fill-rule="evenodd"/><g clip-path="url(#clip1)"><text font-family="Calibri,Calibri_MSFontService,sans-serif" font-weight="700" font-size="73" transform="matrix(1 0 0 1 905.453 410)">Objective </text></g><text font-family="Calibri,Calibri_MSFontService,sans-serif" font-weight="700" font-size="73" transform="matrix(1 0 0 1 1211.85 410)">1.1    <tspan font-weight="400" font-size="73" x="160.417" y="0">Determine lands physically suitable for residential land use.</tspan></text><g clip-path="url(#clip2)"><text font-family="Calibri,Calibri_MSFontService,sans-serif" font-weight="400" font-size="73" transform="matrix(1 0 0 1 1194.93 549)">Sub</text></g><text font-family="Calibri,Calibri_MSFontService,sans-serif" font-weight="400" font-size="73" transform="matrix(1 0 0 1 1305.5 549)">-<tspan font-size="73" x="22.3438" y="0">objective </tspan>1.1.1<tspan font-size="73" x="477.102" y="0">Identify soils suitable for residential land use.</tspan></text><g clip-path="url(#clip3)"><text font-family="Calibri,Calibri_MSFontService,sans-serif" font-weight="400" font-size="73" transform="matrix(1 0 0 1 1194.93 681)">Sub</text></g><text font-family="Calibri,Calibri_MSFontService,sans-serif" font-weight="400" font-size="73" transform="matrix(1 0 0 1 1305.5 681)">-<tspan font-size="73" x="22.3438" y="0">objective </tspan>1.1.2 <tspan font-size="73" x="477.102" y="0">Identify quiet areas.</tspan></text><g clip-path="url(#clip4)"><text font-family="Calibri,Calibri_MSFontService,sans-serif" font-weight="400" font-size="73" transform="matrix(1 0 0 1 1194.93 813)">Sub</text></g><text font-family="Calibri,Calibri_MSFontService,sans-serif" font-weight="400" font-size="73" transform="matrix(1 0 0 1 1305.5 813)">-<tspan font-size="73" x="22.3438" y="0">objective </tspan>1.1.3 <tspan font-size="73" x="477.102" y="0">Identify lands free of hazardous waste.</tspan></text><g clip-path="url(#clip5)"><text font-family="Calibri,Calibri_MSFontService,sans-serif" font-weight="400" font-size="73" transform="matrix(1 0 0 1 1194.93 945)">Sub</text></g><text font-family="Calibri,Calibri_MSFontService,sans-serif" font-weight="400" font-size="73" transform="matrix(1 0 0 1 1305.5 945)">-<tspan font-size="73" x="22.3438" y="0">objective </tspan>1.1.4 <tspan font-size="73" x="477.102" y="0">Identify lands with good air quality.</tspan></text><path d="M903.462 100.081 3742.79 100.081 3742.79 315.329 903.462 315.329Z" fill="#A9D18E" fill-rule="evenodd"/><path d="M903.462 100.081 3742.79 100.081" stroke="#70AD47" stroke-width="4.58333" stroke-linejoin="round" stroke-miterlimit="10" fill="none" fill-rule="evenodd"/><g clip-path="url(#clip6)"><text font-family="Calibri,Calibri_MSFontService,sans-serif" font-weight="700" font-size="83" transform="matrix(1 0 0 1 905.453 236)">Goal 1: </text></g><text font-family="Calibri,Calibri_MSFontService,sans-serif" font-weight="700" font-size="83" transform="matrix(1 0 0 1 1165.56 236)">Identify lands suitable for residential land use in THLD area.</text><path d="M903.46 986.749 3742.78 986.749 3742.78 1133.74 903.46 1133.74Z" fill="#C5E0B4" fill-rule="evenodd"/><path d="M903.46 1133.74 1192.94 1133.74 1192.94 1265.74 903.46 1265.74Z" fill="#E2F0D9" fill-rule="evenodd"/><path d="M1192.94 1133.74 3742.78 1133.74 3742.78 1265.74 1192.94 1265.74Z" fill="#E2F0D9" fill-rule="evenodd"/><path d="M903.46 1265.74 1192.94 1265.74 1192.94 1397.74 903.46 1397.74Z" fill="#E2F0D9" fill-rule="evenodd"/><path d="M1192.94 1265.74 3742.78 1265.74 3742.78 1397.74 1192.94 1397.74Z" fill="#E2F0D9" fill-rule="evenodd"/><path d="M903.46 1397.74 1192.94 1397.74 1192.94 1529.74 903.46 1529.74Z" fill="#E2F0D9" fill-rule="evenodd"/><path d="M1192.94 1397.74 3742.78 1397.74 3742.78 1529.74 1192.94 1529.74Z" fill="#E2F0D9" fill-rule="evenodd"/><path d="M903.46 1529.74 1192.94 1529.74 1192.94 1661.74 903.46 1661.74Z" fill="#E2F0D9" fill-rule="evenodd"/><path d="M1192.94 1529.74 3742.78 1529.74 3742.78 1661.74 1192.94 1661.74Z" fill="#E2F0D9" fill-rule="evenodd"/><path d="M903.46 1661.74 1192.94 1661.74 1192.94 1837.74 903.46 1837.74Z" fill="#E2F0D9" fill-rule="evenodd"/><path d="M1192.94 1661.74 3742.78 1661.74 3742.78 1837.74 1192.94 1837.74Z" fill="#E2F0D9" fill-rule="evenodd"/><path d="M1192.94 1265.74 3742.78 1265.74" stroke="#A9D18E" stroke-width="4.58333" stroke-linejoin="round" stroke-miterlimit="10" fill="none" fill-rule="evenodd"/><path d="M1192.94 1397.74 3742.78 1397.74" stroke="#A9D18E" stroke-width="4.58333" stroke-linejoin="round" stroke-miterlimit="10" fill="none" fill-rule="evenodd"/><path d="M1192.94 1529.74 3742.78 1529.74" stroke="#A9D18E" stroke-width="4.58333" stroke-linejoin="round" stroke-miterlimit="10" fill="none" fill-rule="evenodd"/><path d="M1192.94 1661.74 3742.78 1661.74" stroke="#A9D18E" stroke-width="4.58333" stroke-linejoin="round" stroke-miterlimit="10" fill="none" fill-rule="evenodd"/><path d="M903.46 1837.74 3742.78 1837.74" stroke="#70AD47" stroke-width="4.58333" stroke-linejoin="round" stroke-miterlimit="10" fill="none" fill-rule="evenodd"/><g clip-path="url(#clip7)"><text font-family="Calibri,Calibri_MSFontService,sans-serif" font-weight="700" font-size="73" transform="matrix(1 0 0 1 905.452 1085)">Objective </text></g><text font-family="Calibri,Calibri_MSFontService,sans-serif" font-weight="700" font-size="73" transform="matrix(1 0 0 1 1211.85 1085)">1.2    <tspan font-weight="400" font-size="73" x="160.417" y="0">Determine lands economically suitable for residential land use.</tspan></text><g clip-path="url(#clip8)"><text font-family="Calibri,Calibri_MSFontService,sans-serif" font-weight="400" font-size="73" transform="matrix(1 0 0 1 1194.93 1224)">Sub</text></g><text font-family="Calibri,Calibri_MSFontService,sans-serif" font-weight="400" font-size="73" transform="matrix(1 0 0 1 1305.5 1224)">-<tspan font-size="73" x="22.3438" y="0">objective </tspan>1.2.1<tspan font-size="73" x="477.102" y="0">Identify lands proximal to schools.</tspan></text><g clip-path="url(#clip9)"><text font-family="Calibri,Calibri_MSFontService,sans-serif" font-weight="400" font-size="73" transform="matrix(1 0 0 1 1194.93 1356)">Sub</text></g><text font-family="Calibri,Calibri_MSFontService,sans-serif" font-weight="400" font-size="73" transform="matrix(1 0 0 1 1305.5 1356)">-<tspan font-size="73" x="22.3438" y="0">objective </tspan>1.2.2 <tspan font-size="73" x="477.102" y="0">Identify lands proximal to hospitals.</tspan></text><g clip-path="url(#clip10)"><text font-family="Calibri,Calibri_MSFontService,sans-serif" font-weight="400" font-size="73" transform="matrix(1 0 0 1 1194.93 1488)">Sub</text></g><text font-family="Calibri,Calibri_MSFontService,sans-serif" font-weight="400" font-size="73" transform="matrix(1 0 0 1 1305.5 1488)">-<tspan font-size="73" x="22.3438" y="0">objective </tspan>1.2.3 <tspan font-size="73" x="477.102" y="0">Identify lands proximal to roads.</tspan></text><g clip-path="url(#clip11)"><text font-family="Calibri,Calibri_MSFontService,sans-serif" font-weight="400" font-size="73" transform="matrix(1 0 0 1 1194.93 1620)">Sub</text></g><text font-family="Calibri,Calibri_MSFontService,sans-serif" font-weight="400" font-size="73" transform="matrix(1 0 0 1 1305.5 1620)">-<tspan font-size="73" x="22.3438" y="0">objective </tspan>1.2.4 <tspan font-size="73" x="477.102" y="0">Identify lands with values suitable for residential use.</tspan></text><g clip-path="url(#clip12)"><text font-family="Calibri,Calibri_MSFontService,sans-serif" font-weight="400" font-size="73" transform="matrix(1 0 0 1 1194.93 1730)">Sub</text></g><text font-family="Calibri,Calibri_MSFontService,sans-serif" font-weight="400" font-size="73" transform="matrix(1 0 0 1 1305.5 1730)">-<tspan font-size="73" x="22.3438" y="0">objective </tspan>1.2.5  <tspan font-size="73" x="493.717" y="0">Identify lands proximal to existing public water and sewer </tspan></text><g clip-path="url(#clip13)"><text font-family="Calibri,Calibri_MSFontService,sans-serif" font-weight="400" font-size="73" transform="matrix(1 0 0 1 1194.93 1818)">service.</text></g></g></svg>