<svg width="3175" height="2284" xmlns="http://www.w3.org/2000/svg" xmlns:xlink="http://www.w3.org/1999/xlink" overflow="hidden"><defs><clipPath id="clip0"><rect x="678" y="84" width="3175" height="2284"/></clipPath><clipPath id="clip1"><rect x="678" y="-6" width="3172" height="771"/></clipPath><clipPath id="clip2"><rect x="1001" y="214" width="2849" height="694"/></clipPath><clipPath id="clip3"><rect x="1001" y="418" width="2849" height="694"/></clipPath><clipPath id="clip4"><rect x="1001" y="622" width="2849" height="694"/></clipPath><clipPath id="clip5"><rect x="1001" y="826" width="2849" height="694"/></clipPath><clipPath id="clip6"><rect x="678" y="-268" width="3173" height="925"/></clipPath><clipPath id="clip7"><rect x="678" y="974" width="3172" height="771"/></clipPath><clipPath id="clip8"><rect x="1001" y="1180" width="2849" height="694"/></clipPath><clipPath id="clip9"><rect x="1001" y="1347" width="2849" height="694"/></clipPath><clipPath id="clip10"><rect x="1001" y="1515" width="2849" height="694"/></clipPath><clipPath id="clip11"><rect x="1001" y="1683" width="2849" height="694"/></clipPath><clipPath id="clip12"><rect x="1001" y="1525" width="2849" height="1387"/></clipPath><clipPath id="clip13"><rect x="1001" y="1525" width="2849" height="1387"/></clipPath></defs><g clip-path="url(#clip0)" transform="translate(-678 -84)"><path d="M678.605 298.008 3850 298.008 3850 459.357 678.605 459.357Z" fill="#C5E0B4" fill-rule="evenodd"/><path d="M678.605 459.357 1001.94 459.357 1001.94 663.279 678.605 663.279Z" fill="#E2F0D9" fill-rule="evenodd"/><path d="M1001.94 459.357 3850 459.357 3850 663.279 1001.94 663.279Z" fill="#E2F0D9" fill-rule="evenodd"/><path d="M678.605 663.279 1001.94 663.279 1001.94 867.201 678.605 867.201Z" fill="#E2F0D9" fill-rule="evenodd"/><path d="M1001.94 663.279 3850 663.279 3850 867.201 1001.94 867.201Z" fill="#E2F0D9" fill-rule="evenodd"/><path d="M678.605 867.201 1001.94 867.201 1001.94 1071.12 678.605 1071.12Z" fill="#E2F0D9" fill-rule="evenodd"/><path d="M1001.94 867.201 3850 867.201 3850 1071.12 1001.94 1071.12Z" fill="#E2F0D9" fill-rule="evenodd"/><path d="M678.605 1071.12 1001.94 1071.12 1001.94 1275.05 678.605 1275.05Z" fill="#E2F0D9" fill-rule="evenodd"/><path d="M1001.94 1071.12 3850 1071.12 3850 1275.05 1001.94 1275.05Z" fill="#E2F0D9" fill-rule="evenodd"/><path d="M1001.94 663.279 3850 663.279" stroke="#A9D18E" stroke-width="4.58333" stroke-linejoin="round" stroke-miterlimit="10" fill="none" fill-rule="evenodd"/><path d="M1001.94 867.201 3850 867.201" stroke="#A9D18E" stroke-width="4.58333" stroke-linejoin="round" stroke-miterlimit="10" fill="none" fill-rule="evenodd"/><path d="M1001.94 1071.12 3850 1071.12" stroke="#A9D18E" stroke-width="4.58333" stroke-linejoin="round" stroke-miterlimit="10" fill="none" fill-rule="evenodd"/><path d="M678.605 1275.05 3850 1275.05" stroke="#70AD47" stroke-width="4.58333" stroke-linejoin="round" stroke-miterlimit="10" fill="none" fill-rule="evenodd"/><g clip-path="url(#clip1)"><text font-family="Calibri,Calibri_MSFontService,sans-serif" font-weight="700" font-size="92" transform="matrix(1 0 0 1 680.596 411)">Objective </text></g><text font-family="Calibri,Calibri_MSFontService,sans-serif" font-weight="700" font-size="92" transform="matrix(1 0 0 1 1063.6 411)">1.1    <tspan font-weight="400" font-size="92" x="199.948" y="0">Determine lands physically suitable for residential land use.</tspan></text><g clip-path="url(#clip2)"><text font-family="Calibri,Calibri_MSFontService,sans-serif" font-weight="400" font-size="83" transform="matrix(1 0 0 1 1003.93 589)">Sub</text></g><text font-family="Calibri,Calibri_MSFontService,sans-serif" font-weight="400" font-size="83" transform="matrix(1 0 0 1 1128.83 589)">-<tspan font-size="83" x="25.2084" y="0">objective </tspan>1.1.1<tspan font-size="83" x="536.594" y="0">Identify soils suitable for residential land use.</tspan></text><g clip-path="url(#clip3)"><text font-family="Calibri,Calibri_MSFontService,sans-serif" font-weight="400" font-size="83" transform="matrix(1 0 0 1 1003.93 793)">Sub</text></g><text font-family="Calibri,Calibri_MSFontService,sans-serif" font-weight="400" font-size="83" transform="matrix(1 0 0 1 1128.83 793)">-<tspan font-size="83" x="25.2084" y="0">objective </tspan>1.1.2 <tspan font-size="83" x="536.594" y="0">Identify quiet areas.</tspan></text><g clip-path="url(#clip4)"><text font-family="Calibri,Calibri_MSFontService,sans-serif" font-weight="400" font-size="83" transform="matrix(1 0 0 1 1003.93 997)">Sub</text></g><text font-family="Calibri,Calibri_MSFontService,sans-serif" font-weight="400" font-size="83" transform="matrix(1 0 0 1 1128.83 997)">-<tspan font-size="83" x="25.2084" y="0">objective </tspan>1.1.3 <tspan font-size="83" x="536.594" y="0">Identify lands free of hazardous waste.</tspan></text><g clip-path="url(#clip5)"><text font-family="Calibri,Calibri_MSFontService,sans-serif" font-weight="400" font-size="83" transform="matrix(1 0 0 1 1003.93 1201)">Sub</text></g><text font-family="Calibri,Calibri_MSFontService,sans-serif" font-weight="400" font-size="83" transform="matrix(1 0 0 1 1128.83 1201)">-<tspan font-size="83" x="25.2084" y="0">objective </tspan>1.1.4 <tspan font-size="83" x="536.594" y="0">Identify lands with good air quality.</tspan></text><path d="M678.605 86.3312 3850 86.3312 3850 301.579 678.605 301.579Z" fill="#A9D18E" fill-rule="evenodd"/><path d="M678.605 86.3312 3850 86.3312" stroke="#70AD47" stroke-width="4.58333" stroke-linejoin="round" stroke-miterlimit="10" fill="none" fill-rule="evenodd"/><g clip-path="url(#clip6)"><text font-family="Calibri,Calibri_MSFontService,sans-serif" font-weight="700" font-size="110" transform="matrix(1 0 0 1 680.597 231)">Goal 1: </text></g><text font-family="Calibri,Calibri_MSFontService,sans-serif" font-weight="700" font-size="110" transform="matrix(1 0 0 1 1026.07 231)">Identify lands suitable for residential land use in THLD area.</text><path d="M678.605 1275.05 3850 1275.05 3850 1442.95 678.605 1442.95Z" fill="#C5E0B4" fill-rule="evenodd"/><path d="M678.605 1442.95 1001.94 1442.95 1001.94 1610.64 678.605 1610.64Z" fill="#E2F0D9" fill-rule="evenodd"/><path d="M1001.94 1442.95 3850 1442.95 3850 1610.64 1001.94 1610.64Z" fill="#E2F0D9" fill-rule="evenodd"/><path d="M678.605 1610.64 1001.94 1610.64 1001.94 1778.34 678.605 1778.34Z" fill="#E2F0D9" fill-rule="evenodd"/><path d="M1001.94 1610.64 3850 1610.64 3850 1778.34 1001.94 1778.34Z" fill="#E2F0D9" fill-rule="evenodd"/><path d="M678.605 1778.34 1001.94 1778.34 1001.94 1946.03 678.605 1946.03Z" fill="#E2F0D9" fill-rule="evenodd"/><path d="M1001.94 1778.34 3850 1778.34 3850 1946.03 1001.94 1946.03Z" fill="#E2F0D9" fill-rule="evenodd"/><path d="M678.605 1946.03 1001.94 1946.03 1001.94 2113.72 678.605 2113.72Z" fill="#E2F0D9" fill-rule="evenodd"/><path d="M1001.94 1946.03 3850 1946.03 3850 2113.72 1001.94 2113.72Z" fill="#E2F0D9" fill-rule="evenodd"/><path d="M678.605 2113.72 1001.94 2113.72 1001.94 2323.48 678.605 2323.48Z" fill="#E2F0D9" fill-rule="evenodd"/><path d="M1001.94 2113.72 3850 2113.72 3850 2323.48 1001.94 2323.48Z" fill="#E2F0D9" fill-rule="evenodd"/><path d="M1001.94 1610.64 3850 1610.64" stroke="#A9D18E" stroke-width="4.58333" stroke-linejoin="round" stroke-miterlimit="10" fill="none" fill-rule="evenodd"/><path d="M1001.94 1778.34 3850 1778.34" stroke="#A9D18E" stroke-width="4.58333" stroke-linejoin="round" stroke-miterlimit="10" fill="none" fill-rule="evenodd"/><path d="M1001.94 1946.03 3850 1946.03" stroke="#A9D18E" stroke-width="4.58333" stroke-linejoin="round" stroke-miterlimit="10" fill="none" fill-rule="evenodd"/><path d="M1001.94 2113.72 3850 2113.72" stroke="#A9D18E" stroke-width="4.58333" stroke-linejoin="round" stroke-miterlimit="10" fill="none" fill-rule="evenodd"/><path d="M678.605 2323.48 3850 2323.48" stroke="#70AD47" stroke-width="4.58333" stroke-linejoin="round" stroke-miterlimit="10" fill="none" fill-rule="evenodd"/><g clip-path="url(#clip7)"><text font-family="Calibri,Calibri_MSFontService,sans-serif" font-weight="700" font-size="92" transform="matrix(1 0 0 1 680.596 1391)">Objective </text></g><text font-family="Calibri,Calibri_MSFontService,sans-serif" font-weight="700" font-size="92" transform="matrix(1 0 0 1 1063.6 1391)">1.2    <tspan font-weight="400" font-size="92" x="199.948" y="0">Determine lands economically suitable for residential land use.</tspan></text><g clip-path="url(#clip8)"><text font-family="Calibri,Calibri_MSFontService,sans-serif" font-weight="400" font-size="83" transform="matrix(1 0 0 1 1003.93 1554)">Sub</text></g><text font-family="Calibri,Calibri_MSFontService,sans-serif" font-weight="400" font-size="83" transform="matrix(1 0 0 1 1128.83 1554)">-<tspan font-size="83" x="25.2084" y="0">objective </tspan>1.2.1<tspan font-size="83" x="536.594" y="0">Identify lands proximal to schools.</tspan></text><g clip-path="url(#clip9)"><text font-family="Calibri,Calibri_MSFontService,sans-serif" font-weight="400" font-size="83" transform="matrix(1 0 0 1 1003.93 1722)">Sub</text></g><text font-family="Calibri,Calibri_MSFontService,sans-serif" font-weight="400" font-size="83" transform="matrix(1 0 0 1 1128.83 1722)">-<tspan font-size="83" x="25.2084" y="0">objective </tspan>1.2.2 <tspan font-size="83" x="536.594" y="0">Identify lands proximal to hospitals.</tspan></text><g clip-path="url(#clip10)"><text font-family="Calibri,Calibri_MSFontService,sans-serif" font-weight="400" font-size="83" transform="matrix(1 0 0 1 1003.93 1890)">Sub</text></g><text font-family="Calibri,Calibri_MSFontService,sans-serif" font-weight="400" font-size="83" transform="matrix(1 0 0 1 1128.83 1890)">-<tspan font-size="83" x="25.2084" y="0">objective </tspan>1.2.3 <tspan font-size="83" x="536.594" y="0">Identify lands proximal to roads.</tspan></text><g clip-path="url(#clip11)"><text font-family="Calibri,Calibri_MSFontService,sans-serif" font-weight="400" font-size="83" transform="matrix(1 0 0 1 1003.93 2057)">Sub</text></g><text font-family="Calibri,Calibri_MSFontService,sans-serif" font-weight="400" font-size="83" transform="matrix(1 0 0 1 1128.83 2057)">-<tspan font-size="83" x="25.2084" y="0">objective </tspan>1.2.4 <tspan font-size="83" x="536.594" y="0">Identify lands with values suitable for residential use.</tspan></text><g clip-path="url(#clip12)"><text font-family="Calibri,Calibri_MSFontService,sans-serif" font-weight="400" font-size="83" transform="matrix(1 0 0 1 1003.93 2197)">Sub</text></g><text font-family="Calibri,Calibri_MSFontService,sans-serif" font-weight="400" font-size="83" transform="matrix(1 0 0 1 1128.83 2197)">-<tspan font-size="83" x="25.2084" y="0">objective </tspan>1.2.5  <tspan font-size="83" x="555.5" y="0">Identify lands proximal to existing public water and sewer </tspan></text><g clip-path="url(#clip13)"><text font-family="Calibri,Calibri_MSFontService,sans-serif" font-weight="400" font-size="83" transform="matrix(1 0 0 1 1003.93 2296)">service.</text></g></g></svg>