<svg width="3028" height="1099" xmlns="http://www.w3.org/2000/svg" xmlns:xlink="http://www.w3.org/1999/xlink" overflow="hidden"><defs><clipPath id="clip0"><rect x="297" y="548" width="3028" height="1099"/></clipPath><clipPath id="clip1"><rect x="297" y="394" width="1303" height="617"/></clipPath><clipPath id="clip2"><rect x="2178" y="-222" width="563" height="1849"/></clipPath><clipPath id="clip3"><rect x="2178" y="-222" width="563" height="1849"/></clipPath><clipPath id="clip4"><rect x="297" y="605" width="1303" height="617"/></clipPath><clipPath id="clip5"><rect x="297" y="764" width="1303" height="617"/></clipPath><clipPath id="clip6"><rect x="297" y="922" width="1303" height="617"/></clipPath><clipPath id="clip7"><rect x="297" y="1080" width="1303" height="617"/></clipPath><clipPath id="clip8"><rect x="297" y="1239" width="1303" height="617"/></clipPath></defs><g clip-path="url(#clip0)" transform="translate(-297 -548)"><path d="M297.869 568.857 1599.44 568.857 1599.44 834.849 297.869 834.849Z" fill="#C5E0B4" fill-rule="evenodd"/><path d="M1599.44 568.857 2178.21 568.857 2178.21 834.849 1599.44 834.849Z" fill="#C5E0B4" fill-rule="evenodd"/><path d="M2178.21 568.857 2740.33 568.857 2740.33 834.849 2178.21 834.849Z" fill="#C5E0B4" fill-rule="evenodd"/><path d="M2740.33 568.857 3319.11 568.857 3319.11 834.849 2740.33 834.849Z" fill="#C5E0B4" fill-rule="evenodd"/><path d="M297.869 834.849 1599.44 834.849 1599.44 993.143 297.869 993.143Z" fill="#E2F0D9" fill-rule="evenodd"/><path d="M1599.44 834.849 2178.21 834.849 2178.21 993.143 1599.44 993.143Z" fill="#E2F0D9" fill-rule="evenodd"/><path d="M2178.21 834.849 2740.33 834.849 2740.33 993.143 2178.21 993.143Z" fill="#E2F0D9" fill-rule="evenodd"/><path d="M2740.33 834.849 3319.11 834.849 3319.11 993.143 2740.33 993.143Z" fill="#E2F0D9" fill-rule="evenodd"/><path d="M297.869 993.143 1599.44 993.143 1599.44 1151.44 297.869 1151.44Z" fill="#E2F0D9" fill-rule="evenodd"/><path d="M1599.44 993.143 2178.21 993.143 2178.21 1151.44 1599.44 1151.44Z" fill="#E2F0D9" fill-rule="evenodd"/><path d="M2178.21 993.143 2740.33 993.143 2740.33 1151.44 2178.21 1151.44Z" fill="#E2F0D9" fill-rule="evenodd"/><path d="M2740.33 993.143 3319.11 993.143 3319.11 1151.44 2740.33 1151.44Z" fill="#E2F0D9" fill-rule="evenodd"/><path d="M297.869 1151.44 1599.44 1151.44 1599.44 1309.73 297.869 1309.73Z" fill="#E2F0D9" fill-rule="evenodd"/><path d="M1599.44 1151.44 2178.21 1151.44 2178.21 1309.73 1599.44 1309.73Z" fill="#E2F0D9" fill-rule="evenodd"/><path d="M2178.21 1151.44 2740.33 1151.44 2740.33 1309.73 2178.21 1309.73Z" fill="#E2F0D9" fill-rule="evenodd"/><path d="M2740.33 1151.44 3319.11 1151.44 3319.11 1309.73 2740.33 1309.73Z" fill="#E2F0D9" fill-rule="evenodd"/><path d="M297.869 1309.73 1599.44 1309.73 1599.44 1468.02 297.869 1468.02Z" fill="#E2F0D9" fill-rule="evenodd"/><path d="M1599.44 1309.73 2178.21 1309.73 2178.21 1468.02 1599.44 1468.02Z" fill="#E2F0D9" fill-rule="evenodd"/><path d="M2178.21 1309.73 2740.33 1309.73 2740.33 1468.02 2178.21 1468.02Z" fill="#E2F0D9" fill-rule="evenodd"/><path d="M2740.33 1309.73 3319.11 1309.73 3319.11 1468.02 2740.33 1468.02Z" fill="#E2F0D9" fill-rule="evenodd"/><path d="M297.869 1468.02 1599.44 1468.02 1599.44 1626.32 297.869 1626.32Z" fill="#E2F0D9" fill-rule="evenodd"/><path d="M1599.44 1468.02 2178.21 1468.02 2178.21 1626.32 1599.44 1626.32Z" fill="#E2F0D9" fill-rule="evenodd"/><path d="M2178.21 1468.02 2740.33 1468.02 2740.33 1626.32 2178.21 1626.32Z" fill="#E2F0D9" fill-rule="evenodd"/><path d="M2740.33 1468.02 3319.11 1468.02 3319.11 1626.32 2740.33 1626.32Z" fill="#E2F0D9" fill-rule="evenodd"/><path d="M1599.44 568.857 1599.44 1628.61" stroke="#548235" stroke-width="4.58333" stroke-linejoin="round" stroke-miterlimit="10" fill="none" fill-rule="evenodd"/><path d="M2178.21 568.857 2178.21 1628.61" stroke="#548235" stroke-width="4.58333" stroke-linejoin="round" stroke-miterlimit="10" fill="none" fill-rule="evenodd"/><path d="M2740.33 568.857 2740.33 1628.61" stroke="#548235" stroke-width="4.58333" stroke-linejoin="round" stroke-miterlimit="10" fill="none" fill-rule="evenodd"/><path d="M297.869 834.849 3319.11 834.849" stroke="#548235" stroke-width="4.58333" stroke-linejoin="round" stroke-miterlimit="10" fill="none" fill-rule="evenodd"/><path d="M297.869 993.143 3319.11 993.143" stroke="#548235" stroke-width="4.58333" stroke-linejoin="round" stroke-miterlimit="10" fill="none" fill-rule="evenodd"/><path d="M297.869 1151.44 3319.11 1151.44" stroke="#548235" stroke-width="4.58333" stroke-linejoin="round" stroke-miterlimit="10" fill="none" fill-rule="evenodd"/><path d="M297.869 1309.73 3319.11 1309.73" stroke="#548235" stroke-width="4.58333" stroke-linejoin="round" stroke-miterlimit="10" fill="none" fill-rule="evenodd"/><path d="M297.869 1468.02 3319.11 1468.02" stroke="#000000" stroke-width="10.3125" stroke-linejoin="round" stroke-miterlimit="10" fill="none" fill-rule="evenodd"/><path d="M297.869 1626.32 3319.11 1626.32" stroke="#548235" stroke-width="4.58333" stroke-linejoin="round" stroke-miterlimit="10" fill="none" fill-rule="evenodd"/><g clip-path="url(#clip1)"><text font-family="Calibri,Calibri_MSFontService,sans-serif" font-weight="700" font-size="73" transform="matrix(1 0 0 1 299.86 727)">Layer Name</text></g><text font-family="Calibri,Calibri_MSFontService,sans-serif" font-weight="700" font-size="73" transform="matrix(1 0 0 1 1812.92 640)">Rank<tspan font-size="73" x="33.5042" y="88">(</tspan><tspan font-size="73" x="56.4208" y="88">r</tspan><tspan font-size="49" x="82.775" y="105">j</tspan><tspan font-size="73" x="95.3792" y="88">)</tspan><tspan font-size="73" x="414.086" y="0">Inverse ranking</tspan></text><g clip-path="url(#clip2)"><text font-family="Calibri,Calibri_MSFontService,sans-serif" font-weight="700" font-size="73" transform="matrix(1 0 0 1 2188.46 728)">(n</text></g><text font-family="Calibri,Calibri_MSFontService,sans-serif" font-weight="700" font-size="73" transform="matrix(1 0 0 1 2250.9 728)">–<tspan font-size="73" x="36.6665" y="0">1) + ranking</tspan>(<tspan font-size="73" x="417.198" y="0">r</tspan><tspan font-size="49" x="443.552" y="17">j</tspan></text><g clip-path="url(#clip3)"><text font-family="Calibri,Calibri_MSFontService,sans-serif" font-weight="700" font-size="73" transform="matrix(1 0 0 1 2707.06 728)">)</text></g><text font-family="Calibri,Calibri_MSFontService,sans-serif" font-weight="700" font-size="73" transform="matrix(1 0 0 1 2921.08 728)">Weight</text><g clip-path="url(#clip4)"><text font-family="Calibri,Calibri_MSFontService,sans-serif" font-weight="400" font-size="73" transform="matrix(1 0 0 1 299.86 939)">Soils suitable for residential land use (SO1)</text></g><text font-family="Calibri,Calibri_MSFontService,sans-serif" font-weight="400" font-size="83" transform="matrix(1 0 0 1 1867.92 941)">1<tspan font-size="83" x="570.446" y="0">4</tspan><tspan font-size="83" x="1010.27" y="0">4/10=0.4</tspan></text><g clip-path="url(#clip5)"><text font-family="Calibri,Calibri_MSFontService,sans-serif" font-weight="400" font-size="73" transform="matrix(1 0 0 1 299.86 1097)">Quiet areas (SO2)</text></g><text font-family="Calibri,Calibri_MSFontService,sans-serif" font-weight="400" font-size="83" transform="matrix(1 0 0 1 1867.92 1100)">4<tspan font-size="83" x="570.446" y="0">1</tspan><tspan font-size="83" x="1010.27" y="0">1/10=0.1</tspan></text><g clip-path="url(#clip6)"><text font-family="Calibri,Calibri_MSFontService,sans-serif" font-weight="400" font-size="73" transform="matrix(1 0 0 1 299.86 1256)">Lands free of hazardous waste (SO3)</text></g><text font-family="Calibri,Calibri_MSFontService,sans-serif" font-weight="400" font-size="83" transform="matrix(1 0 0 1 1867.92 1258)">2<tspan font-size="83" x="570.446" y="0">3</tspan><tspan font-size="83" x="1010.27" y="0">3/10=0.3</tspan></text><g clip-path="url(#clip7)"><text font-family="Calibri,Calibri_MSFontService,sans-serif" font-weight="400" font-size="73" transform="matrix(1 0 0 1 299.86 1414)">Lands with good air quality (SO4)</text></g><text font-family="Calibri,Calibri_MSFontService,sans-serif" font-weight="400" font-size="83" transform="matrix(1 0 0 1 1867.92 1416)">3<tspan font-size="83" x="570.446" y="0">2</tspan><tspan font-size="83" x="1010.27" y="0">2/10=0.2</tspan></text><g clip-path="url(#clip8)"><text font-family="Calibri,Calibri_MSFontService,sans-serif" font-weight="400" font-size="73" transform="matrix(1 0 0 1 299.86 1572)">Sum</text></g><text font-family="Calibri,Calibri_MSFontService,sans-serif" font-weight="400" font-size="83" transform="matrix(1 0 0 1 2417.45 1575)">10<tspan font-size="83" x="560.134" y="0">1.0</tspan></text></g></svg>