<svg width="1885" height="654" xmlns="http://www.w3.org/2000/svg" xmlns:xlink="http://www.w3.org/1999/xlink" overflow="hidden"><defs><clipPath id="clip0"><rect x="406" y="1286" width="1885" height="654"/></clipPath><clipPath id="clip1"><rect x="406" y="1058" width="1111" height="617"/></clipPath><clipPath id="clip2"><rect x="406" y="1177" width="1111" height="694"/></clipPath><clipPath id="clip3"><rect x="406" y="1335" width="1111" height="694"/></clipPath><clipPath id="clip4"><rect x="406" y="1494" width="1111" height="694"/></clipPath></defs><g clip-path="url(#clip0)" transform="translate(-406 -1286)"><path d="M406.859 1286.38 1516.79 1286.38 1516.79 1444.78 406.859 1444.78Z" fill="#C5E0B4" fill-rule="evenodd"/><path d="M1516.79 1286.38 2285.75 1286.38 2285.75 1444.78 1516.79 1444.78Z" fill="#C5E0B4" fill-rule="evenodd"/><path d="M406.859 1444.78 1516.79 1444.78 1516.79 1603.07 406.859 1603.07Z" fill="#E2F0D9" fill-rule="evenodd"/><path d="M1516.79 1444.78 2285.75 1444.78 2285.75 1603.07 1516.79 1603.07Z" fill="#E2F0D9" fill-rule="evenodd"/><path d="M406.859 1603.07 1516.79 1603.07 1516.79 1761.37 406.859 1761.37Z" fill="#E2F0D9" fill-rule="evenodd"/><path d="M1516.79 1603.07 2285.75 1603.07 2285.75 1761.37 1516.79 1761.37Z" fill="#E2F0D9" fill-rule="evenodd"/><path d="M406.859 1761.37 1516.79 1761.37 1516.79 1919.66 406.859 1919.66Z" fill="#E2F0D9" fill-rule="evenodd"/><path d="M1516.79 1761.37 2285.75 1761.37 2285.75 1919.66 1516.79 1919.66Z" fill="#E2F0D9" fill-rule="evenodd"/><path d="M1516.79 1286.38 1516.79 1921.95" stroke="#548235" stroke-width="4.58333" stroke-linejoin="round" stroke-miterlimit="10" fill="none" fill-rule="evenodd"/><path d="M406.859 1444.78 2285.75 1444.78" stroke="#548235" stroke-width="4.58333" stroke-linejoin="round" stroke-miterlimit="10" fill="none" fill-rule="evenodd"/><path d="M406.859 1603.07 2285.75 1603.07" stroke="#548235" stroke-width="4.58333" stroke-linejoin="round" stroke-miterlimit="10" fill="none" fill-rule="evenodd"/><path d="M406.859 1761.37 2285.75 1761.37" stroke="#000000" stroke-width="10.3125" stroke-linejoin="round" stroke-miterlimit="10" fill="none" fill-rule="evenodd"/><path d="M406.859 1919.66 2285.75 1919.66" stroke="#548235" stroke-width="4.58333" stroke-linejoin="round" stroke-miterlimit="10" fill="none" fill-rule="evenodd"/><g clip-path="url(#clip1)"><text font-family="Calibri,Calibri_MSFontService,sans-serif" font-weight="700" font-size="73" transform="matrix(1 0 0 1 408.851 1391)">Layer Name</text></g><text font-family="Calibri,Calibri_MSFontService,sans-serif" font-weight="700" font-size="73" transform="matrix(1 0 0 1 1792.63 1392)">Weight</text><g clip-path="url(#clip2)"><text font-family="Calibri,Calibri_MSFontService,sans-serif" font-weight="400" font-size="83" transform="matrix(1 0 0 1 408.851 1551)">Transportation Accessibility (TA)</text></g><text font-family="Calibri,Calibri_MSFontService,sans-serif" font-weight="400" font-size="83" transform="matrix(1 0 0 1 1849.13 1551)">0.6</text><g clip-path="url(#clip3)"><text font-family="Calibri,Calibri_MSFontService,sans-serif" font-weight="400" font-size="83" transform="matrix(1 0 0 1 408.851 1710)">Market (M)</text></g><text font-family="Calibri,Calibri_MSFontService,sans-serif" font-weight="400" font-size="83" transform="matrix(1 0 0 1 1849.13 1710)">0.4</text><g clip-path="url(#clip4)"><text font-family="Calibri,Calibri_MSFontService,sans-serif" font-weight="400" font-size="83" transform="matrix(1 0 0 1 408.851 1868)">Sum</text></g><text font-family="Calibri,Calibri_MSFontService,sans-serif" font-weight="400" font-size="83" transform="matrix(1 0 0 1 1849.13 1868)">1.0</text></g></svg>