<svg width="109" height="39" xmlns="http://www.w3.org/2000/svg" xmlns:xlink="http://www.w3.org/1999/xlink" overflow="hidden"><defs><filter id="fx0" x="-10%" y="-10%" width="120%" height="120%" filterUnits="userSpaceOnUse" primitiveUnits="userSpaceOnUse"><feComponentTransfer color-interpolation-filters="sRGB"><feFuncR type="discrete" tableValues="0 0"/><feFuncG type="discrete" tableValues="0 0"/><feFuncB type="discrete" tableValues="0 0"/><feFuncA type="linear" slope="0.4" intercept="0"/></feComponentTransfer><feGaussianBlur stdDeviation="1.77778 1.77778"/></filter><clipPath id="clip1"><rect x="227" y="331" width="109" height="39"/></clipPath><clipPath id="clip2"><path d="M231.5 335.5 231.5 360.5 326.5 360.5 326.5 335.5ZM227 331 336 331 336 370 227 370Z" fill-rule="evenodd" clip-rule="evenodd"/></clipPath><clipPath id="clip3"><rect x="-2" y="-2" width="112" height="42"/></clipPath><clipPath id="clip4"><rect x="0" y="0" width="110" height="40"/></clipPath><clipPath id="clip5"><rect x="236" y="339" width="16" height="16"/></clipPath><clipPath id="clip6"><rect x="236" y="339" width="16" height="16"/></clipPath><clipPath id="clip7"><rect x="236" y="339" width="16" height="16"/></clipPath></defs><g clip-path="url(#clip1)" transform="translate(-227 -331)"><g clip-path="url(#clip2)"><g clip-path="url(#clip3)" filter="url(#fx0)" transform="translate(227 331)"><g clip-path="url(#clip4)"><rect x="7.32848" y="7.32849" width="95" height="25" stroke="#BFBFBF" stroke-miterlimit="8" fill="#FFFFFF"/></g></g></g><rect x="231.5" y="335.5" width="95" height="25" stroke="#BFBFBF" stroke-width="1.33333" stroke-miterlimit="8" fill="#FFFFFF"/><g clip-path="url(#clip5)"><g clip-path="url(#clip6)"><g clip-path="url(#clip7)"><path d="M245.45 339.709C245.169 339.737 245.011 340.017 244.945 340.263 244.87 340.47 244.79 340.743 244.541 340.792 244.176 340.848 243.806 340.797 243.441 340.828 243.169 340.799 243.007 340.537 242.947 340.294 242.863 340.066 242.743 339.782 242.47 339.744 242.145 339.704 241.879 339.937 241.584 340.028 241.043 340.262 240.494 340.472 239.964 340.732 239.723 340.915 239.74 341.284 239.895 341.517 239.981 341.73 240.14 341.969 240.022 342.201 239.803 342.512 239.493 342.742 239.249 343.031 239.038 343.204 238.737 343.134 238.523 343.004 238.303 342.902 238.018 342.788 237.798 342.953 237.538 343.154 237.515 343.508 237.37 343.782 237.153 344.33 236.913 344.872 236.722 345.432 236.68 345.731 236.951 345.982 237.225 346.036 237.436 346.126 237.719 346.182 237.799 346.43 237.861 346.809 237.81 347.195 237.839 347.58 237.801 347.839 237.556 348.01 237.314 348.056 237.034 348.162 236.757 348.409 236.765 348.731 236.909 349.19 237.14 349.616 237.311 350.061 237.459 350.407 237.588 350.767 237.782 351.091 237.978 351.29 238.31 351.264 238.529 351.119 238.741 351.032 238.98 350.873 239.212 350.99 239.523 351.209 239.753 351.52 240.042 351.765 240.214 351.977 240.145 352.279 240.015 352.493 239.912 352.713 239.796 352.999 239.962 353.219 240.165 353.477 240.516 353.501 240.79 353.645 241.337 353.862 241.88 354.103 242.43 354.295 242.729 354.337 242.979 354.065 243.033 353.79 243.122 353.579 243.18 353.297 243.426 353.217 243.803 353.153 244.186 353.206 244.566 353.178 244.824 353.201 244.986 353.442 245.046 353.673 245.128 353.905 245.234 354.192 245.505 354.254 245.807 354.319 246.064 354.1 246.337 354.012 246.906 353.765 247.488 353.545 248.038 353.272 248.279 353.089 248.262 352.72 248.107 352.487 248.021 352.274 247.861 352.035 247.979 351.803 248.201 351.491 248.51 351.258 248.758 350.969 248.965 350.81 249.255 350.864 249.464 350.993 249.682 351.091 249.956 351.215 250.182 351.066 250.454 350.879 250.477 350.521 250.62 350.248 250.84 349.691 251.085 349.148 251.279 348.578 251.322 348.279 251.051 348.026 250.777 347.972 250.566 347.882 250.283 347.826 250.202 347.579 250.139 347.201 250.192 346.816 250.162 346.439 250.197 346.179 250.44 346.013 250.678 345.956 250.903 345.871 251.184 345.765 251.239 345.499 251.298 345.174 251.062 344.905 250.971 344.612 250.727 344.057 250.519 343.482 250.242 342.942 250.055 342.716 249.702 342.736 249.474 342.886 249.263 342.977 249.024 343.133 248.792 343.018 248.479 342.8 248.25 342.487 247.96 342.243 247.789 342.032 247.856 341.732 247.985 341.518 248.087 341.301 248.205 341.024 248.048 340.803 247.859 340.539 247.508 340.516 247.239 340.374 246.693 340.155 246.149 339.923 245.599 339.719 245.55 339.71 245.499 339.708 245.449 339.715ZM244 343.919C245.36 343.893 246.7 344.846 247.06 346.169 247.415 347.369 246.931 348.749 245.91 349.469 244.9 350.217 243.44 350.3 242.36 349.648 241.365 349.069 240.72 347.908 240.84 346.748 240.943 345.558 241.793 344.478 242.93 344.098 243.273 343.977 243.637 343.914 244 343.914Z" stroke="#477BBE" stroke-linecap="round" stroke-linejoin="round" fill="#95B3D7"/></g></g></g></g></svg>