<?xml version="1.0"?>
<svg xmlns="http://www.w3.org/2000/svg" version="1.1" width="1377.25219726563pt" height="768.7822265625pt" viewBox="-100.026123046875 -116.945995330811 1377.2522277832 768.7822265625" preserveAspectRatio="none" xmlns:xlink="http://www.w3.org/1999/xlink">
  <defs>
  </defs>
  <path d="M178.799987792969,225.900009155273 L188.099990844727,225.900009155273 " stroke="#6E6E6E" fill="none" stroke-width="1" stroke-opacity="1" />
  <path d="M193.799987792969,225.899993896484 L188.099975585938,228.119995117188 L188.099975585938,223.68000793457 L193.799987792969,225.899993896484 " stroke="none" fill="#6E6E6E" fill-rule="evenodd" stroke-width="0" fill-opacity="1" />
  <path d="M193.799987792969,225.899993896484 L188.099975585938,228.119995117188 L188.099975585938,223.68000793457 L193.799987792969,225.899993896484 " stroke="#6E6E6E" fill="none" stroke-width="1" stroke-opacity="1" />
  <path d="M536.399963378906,288.300018310547 L545.699951171875,288.300018310547 " stroke="#6E6E6E" fill="none" stroke-width="1" stroke-opacity="1" />
  <path d="M551.399963378906,288.299987792969 L545.699951171875,290.519989013672 L545.699951171875,286.080017089844 L551.399963378906,288.299987792969 " stroke="none" fill="#6E6E6E" fill-rule="evenodd" stroke-width="0" fill-opacity="1" />
  <path d="M551.399963378906,288.299987792969 L545.699951171875,290.519989013672 L545.699951171875,286.080017089844 L551.399963378906,288.299987792969 " stroke="#6E6E6E" fill="none" stroke-width="1" stroke-opacity="1" />
  <path d="M89.3999938964844,225.900009155273 L98.6999893188477,225.900009155273 " stroke="#6E6E6E" fill="none" stroke-width="1" stroke-opacity="1" />
  <path d="M104.399993896484,225.899993896484 L98.6999893188477,228.119995117188 L98.6999893188477,223.68000793457 L104.399993896484,225.899993896484 " stroke="none" fill="#6E6E6E" fill-rule="evenodd" stroke-width="0" fill-opacity="1" />
  <path d="M104.399993896484,225.899993896484 L98.6999893188477,228.119995117188 L98.6999893188477,223.68000793457 L104.399993896484,225.899993896484 " stroke="#6E6E6E" fill="none" stroke-width="1" stroke-opacity="1" />
  <path d="M357.599975585938,225.900009155273 L366.899963378906,225.900009155273 " stroke="#6E6E6E" fill="none" stroke-width="1" stroke-opacity="1" />
  <path d="M372.599975585938,225.899993896484 L366.899963378906,228.119995117188 L366.899963378906,223.68000793457 L372.599975585938,225.899993896484 " stroke="none" fill="#6E6E6E" fill-rule="evenodd" stroke-width="0" fill-opacity="1" />
  <path d="M372.599975585938,225.899993896484 L366.899963378906,228.119995117188 L366.899963378906,223.68000793457 L372.599975585938,225.899993896484 " stroke="#6E6E6E" fill="none" stroke-width="1" stroke-opacity="1" />
  <path d="M268.199981689453,225.900009155273 L277.5,225.900009155273 " stroke="#6E6E6E" fill="none" stroke-width="1" stroke-opacity="1" />
  <path d="M283.200012207031,225.899993896484 L277.5,228.119995117188 L277.5,223.68000793457 L283.200012207031,225.899993896484 " stroke="none" fill="#6E6E6E" fill-rule="evenodd" stroke-width="0" fill-opacity="1" />
  <path d="M283.200012207031,225.899993896484 L277.5,228.119995117188 L277.5,223.68000793457 L283.200012207031,225.899993896484 " stroke="#6E6E6E" fill="none" stroke-width="1" stroke-opacity="1" />
  <path d="M434.79541015625,243.346481323242 L461.962188720703,262.308502197266 " stroke="#6E6E6E" fill="none" stroke-width="1" stroke-opacity="1" />
  <path d="M466.63623046875,265.570922851563 L460.691558837891,264.128936767578 L463.232818603516,260.488098144531 L466.63623046875,265.570922851563 " stroke="none" fill="#6E6E6E" fill-rule="evenodd" stroke-width="0" fill-opacity="1" />
  <path d="M466.63623046875,265.570922851563 L460.691558837891,264.128936767578 L463.232818603516,260.488098144531 L466.63623046875,265.570922851563 " stroke="#6E6E6E" fill="none" stroke-width="1" stroke-opacity="1" />
  <path d="M447,288.300018310547 L456.300018310547,288.300018310547 " stroke="#6E6E6E" fill="none" stroke-width="1" stroke-opacity="1" />
  <path d="M462,288.299987792969 L456.299987792969,290.519989013672 L456.299987792969,286.080017089844 L462,288.299987792969 " stroke="none" fill="#6E6E6E" fill-rule="evenodd" stroke-width="0" fill-opacity="1" />
  <path d="M462,288.299987792969 L456.299987792969,290.519989013672 L456.299987792969,286.080017089844 L462,288.299987792969 " stroke="#6E6E6E" fill="none" stroke-width="1" stroke-opacity="1" />
  <path d="M434.79541015625,333.253509521484 L461.962188720703,314.291473388672 " stroke="#6E6E6E" fill="none" stroke-width="1" stroke-opacity="1" />
  <path d="M466.636199951172,311.029052734375 L463.232788085938,316.111907958984 L460.691528320313,312.471069335938 L466.636199951172,311.029052734375 " stroke="none" fill="#6E6E6E" fill-rule="evenodd" stroke-width="0" fill-opacity="1" />
  <path d="M466.636199951172,311.029052734375 L463.232788085938,316.111907958984 L460.691528320313,312.471069335938 L466.636199951172,311.029052734375 " stroke="#6E6E6E" fill="none" stroke-width="1" stroke-opacity="1" />
  <path d="M715.199951171875,319.5 L724.5,319.5 " stroke="#6E6E6E" fill="none" stroke-width="1" stroke-opacity="1" />
  <path d="M730.199951171875,319.499969482422 L724.499938964844,321.719970703125 L724.499938964844,317.279998779297 L730.199951171875,319.499969482422 " stroke="none" fill="#6E6E6E" fill-rule="evenodd" stroke-width="0" fill-opacity="1" />
  <path d="M730.199951171875,319.499969482422 L724.499938964844,321.719970703125 L724.499938964844,317.279998779297 L730.199951171875,319.499969482422 " stroke="#6E6E6E" fill="none" stroke-width="1" stroke-opacity="1" />
  <path d="M621.22509765625,299.685974121094 L635.418273925781,304.639251708984 " stroke="#6E6E6E" fill="none" stroke-width="1" stroke-opacity="1" />
  <path d="M640.799926757813,306.517456054688 L634.686706542969,306.735290527344 L636.149719238281,302.543243408203 L640.799926757813,306.517456054688 " stroke="none" fill="#6E6E6E" fill-rule="evenodd" stroke-width="0" fill-opacity="1" />
  <path d="M640.799926757813,306.517456054688 L634.686706542969,306.735290527344 L636.149719238281,302.543243408203 L640.799926757813,306.517456054688 " stroke="#6E6E6E" fill="none" stroke-width="1" stroke-opacity="1" />
  <path d="M1072.79992675781,288.300018310547 L1082.09997558594,288.300018310547 " stroke="#6E6E6E" fill="none" stroke-width="1" stroke-opacity="1" />
  <path d="M1087.80004882813,288.299987792969 L1082.09997558594,290.519989013672 L1082.09997558594,286.080017089844 L1087.80004882813,288.299987792969 " stroke="none" fill="#6E6E6E" fill-rule="evenodd" stroke-width="0" fill-opacity="1" />
  <path d="M1087.80004882813,288.299987792969 L1082.09997558594,290.519989013672 L1082.09997558594,286.080017089844 L1087.80004882813,288.299987792969 " stroke="#6E6E6E" fill="none" stroke-width="1" stroke-opacity="1" />
  <path d="M804.599914550781,319.5 L856.799987792969,319.5 " stroke="#6E6E6E" fill="none" stroke-width="1" stroke-opacity="1" />
  <path d="M856.799987792969,319.5 L946.199951171875,319.5 " stroke="#6E6E6E" fill="none" stroke-width="1" stroke-opacity="1" />
  <path d="M946.199951171875,319.5 L993.018310546875,303.160705566406 " stroke="#6E6E6E" fill="none" stroke-width="1" stroke-opacity="1" />
  <path d="M998.39990234375,301.282562255859 L993.749755859375,305.256744384766 L992.286743164063,301.064697265625 L998.39990234375,301.282562255859 " stroke="none" fill="#6E6E6E" fill-rule="evenodd" stroke-width="0" fill-opacity="1" />
  <path d="M998.39990234375,301.282562255859 L993.749755859375,305.256744384766 L992.286743164063,301.064697265625 L998.39990234375,301.282562255859 " stroke="#6E6E6E" fill="none" stroke-width="1" stroke-opacity="1" />
  <path d="M893.999877929688,257.100006103516 L903.299987792969,257.100006103516 " stroke="#6E6E6E" fill="none" stroke-width="1" stroke-opacity="1" />
  <path d="M909,257.099975585938 L903.299987792969,259.319976806641 L903.299987792969,254.880004882813 L909,257.099975585938 " stroke="none" fill="#6E6E6E" fill-rule="evenodd" stroke-width="0" fill-opacity="1" />
  <path d="M909,257.099975585938 L903.299987792969,259.319976806641 L903.299987792969,254.880004882813 L909,257.099975585938 " stroke="#6E6E6E" fill="none" stroke-width="1" stroke-opacity="1" />
  <path d="M792.395385742188,302.053527832031 L819.562133789063,283.091491699219 " stroke="#6E6E6E" fill="none" stroke-width="1" stroke-opacity="1" stroke-dasharray="3,1,1,1,1,1" />
  <path d="M824.236145019531,279.829040527344 L820.832702636719,284.911895751953 L818.291442871094,281.271057128906 L824.236145019531,279.829040527344 " stroke="none" fill="#6E6E6E" fill-rule="evenodd" stroke-width="0" fill-opacity="1" />
  <path d="M824.236145019531,279.829040527344 L820.832702636719,284.911895751953 L818.291442871094,281.271057128906 L824.236145019531,279.829040527344 " stroke="#6E6E6E" fill="none" stroke-width="1" stroke-opacity="1" />
  <path d="M978.825134277344,268.485961914063 L993.018310546875,273.439270019531 " stroke="#6E6E6E" fill="none" stroke-width="1" stroke-opacity="1" stroke-dasharray="3,1,1,1,1,1" />
  <path d="M998.399963378906,275.317443847656 L992.286743164063,275.535278320313 L993.749755859375,271.343231201172 L998.399963378906,275.317443847656 " stroke="none" fill="#6E6E6E" fill-rule="evenodd" stroke-width="0" fill-opacity="1" />
  <path d="M998.399963378906,275.317443847656 L992.286743164063,275.535278320313 L993.749755859375,271.343231201172 L998.399963378906,275.317443847656 " stroke="#6E6E6E" fill="none" stroke-width="1" stroke-opacity="1" />
  <path d="M681.790832519531,233.400009155273 L693.918762207031,157.579360961914 " stroke="#6E6E6E" fill="none" stroke-width="1" stroke-opacity="1" />
  <path d="M694.819091796875,151.950912475586 L696.110900878906,157.93000793457 L691.726623535156,157.228729248047 L694.819091796875,151.950912475586 " stroke="none" fill="#6E6E6E" fill-rule="evenodd" stroke-width="0" fill-opacity="1" />
  <path d="M694.819091796875,151.950912475586 L696.110900878906,157.93000793457 L691.726623535156,157.228729248047 L694.819091796875,151.950912475586 " stroke="#6E6E6E" fill="none" stroke-width="1" stroke-opacity="1" />
  <path d="M715.199951171875,257.100006103516 L724.5,257.100006103516 " stroke="#6E6E6E" fill="none" stroke-width="1" stroke-opacity="1" />
  <path d="M730.199951171875,257.099975585938 L724.499938964844,259.319976806641 L724.499938964844,254.880004882813 L730.199951171875,257.099975585938 " stroke="none" fill="#6E6E6E" fill-rule="evenodd" stroke-width="0" fill-opacity="1" />
  <path d="M730.199951171875,257.099975585938 L724.499938964844,259.319976806641 L724.499938964844,254.880004882813 L730.199951171875,257.099975585938 " stroke="#6E6E6E" fill="none" stroke-width="1" stroke-opacity="1" />
  <path d="M621.22509765625,276.914031982422 L643.416442871094,269.169403076172 " stroke="#6E6E6E" fill="none" stroke-width="1" stroke-opacity="1" />
  <path d="M648.798095703125,267.291229248047 L644.14794921875,271.265411376953 L642.684936523438,267.073364257813 L648.798095703125,267.291229248047 " stroke="none" fill="#6E6E6E" fill-rule="evenodd" stroke-width="0" fill-opacity="1" />
  <path d="M648.798095703125,267.291229248047 L644.14794921875,271.265411376953 L642.684936523438,267.073364257813 L648.798095703125,267.291229248047 " stroke="#6E6E6E" fill="none" stroke-width="1" stroke-opacity="1" />
  <path d="M823.465759277344,148.749618530273 L855.038696289063,166.769256591797 " stroke="#6E6E6E" fill="none" stroke-width="1" stroke-opacity="1" />
  <path d="M859.989196777344,169.594619750977 L853.938293457031,168.697311401367 L856.139099121094,164.841156005859 L859.989196777344,169.594619750977 " stroke="none" fill="#6E6E6E" fill-rule="evenodd" stroke-width="0" fill-opacity="1" />
  <path d="M859.989196777344,169.594619750977 L853.938293457031,168.697311401367 L856.139099121094,164.841156005859 L859.989196777344,169.594619750977 " stroke="#6E6E6E" fill="none" stroke-width="1" stroke-opacity="1" />
  <path d="M825.17138671875,127.452713012695 L842.733581542969,126.962104797363 " stroke="#6E6E6E" fill="none" stroke-width="1" stroke-opacity="1" />
  <path d="M848.431274414063,126.802932739258 L842.795471191406,129.181228637695 L842.671508789063,124.742973327637 L848.431274414063,126.802932739258 " stroke="none" fill="#6E6E6E" fill-rule="evenodd" stroke-width="0" fill-opacity="1" />
  <path d="M848.431274414063,126.802932739258 L842.795471191406,129.181228637695 L842.671508789063,124.742973327637 L848.431274414063,126.802932739258 " stroke="#6E6E6E" fill="none" stroke-width="1" stroke-opacity="1" />
  <path d="M820.562805175781,105.781433105469 L853.808898925781,82.6146621704102 " stroke="#6E6E6E" fill="none" stroke-width="1" stroke-opacity="1" />
  <path d="M858.485473632813,79.3558959960938 L855.078125,84.4360656738281 L852.539733886719,80.7932510375977 L858.485473632813,79.3558959960938 " stroke="none" fill="#6E6E6E" fill-rule="evenodd" stroke-width="0" fill-opacity="1" />
  <path d="M858.485473632813,79.3558959960938 L855.078125,84.4360656738281 L852.539733886719,80.7932510375977 L858.485473632813,79.3558959960938 " stroke="#6E6E6E" fill="none" stroke-width="1" stroke-opacity="1" />
  <path d="M735.771423339844,128.491912841797 L745.071411132813,128.491912841797 " stroke="#6E6E6E" fill="none" stroke-width="1" stroke-opacity="1" />
  <path d="M750.771423339844,128.491897583008 L745.071411132813,130.711898803711 L745.071411132813,126.271911621094 L750.771423339844,128.491897583008 " stroke="none" fill="#6E6E6E" fill-rule="evenodd" stroke-width="0" fill-opacity="1" />
  <path d="M750.771423339844,128.491897583008 L745.071411132813,130.711898803711 L745.071411132813,126.271911621094 L750.771423339844,128.491897583008 " stroke="#6E6E6E" fill="none" stroke-width="1" stroke-opacity="1" />
  <path d="M1036.68200683594,183.986343383789 L1045.98193359375,183.986343383789 " stroke="#6E6E6E" fill="none" stroke-width="1" stroke-opacity="1" />
  <path d="M1051.68200683594,183.986328125 L1045.98193359375,186.206329345703 L1045.98193359375,181.766342163086 L1051.68200683594,183.986328125 " stroke="none" fill="#6E6E6E" fill-rule="evenodd" stroke-width="0" fill-opacity="1" />
  <path d="M1051.68200683594,183.986328125 L1045.98193359375,186.206329345703 L1045.98193359375,181.766342163086 L1051.68200683594,183.986328125 " stroke="#6E6E6E" fill="none" stroke-width="1" stroke-opacity="1" />
  <path d="M924.757568359375,184.896560668945 L956.582397460938,184.508895874023 " stroke="#6E6E6E" fill="none" stroke-width="1" stroke-opacity="1" />
  <path d="M962.281982421875,184.439468383789 L956.609436035156,186.728729248047 L956.555358886719,182.2890625 L962.281982421875,184.439468383789 " stroke="none" fill="#6E6E6E" fill-rule="evenodd" stroke-width="0" fill-opacity="1" />
  <path d="M962.281982421875,184.439468383789 L956.609436035156,186.728729248047 L956.555358886719,182.2890625 L962.281982421875,184.439468383789 " stroke="#6E6E6E" fill="none" stroke-width="1" stroke-opacity="1" />
  <path d="M112.903930664063,202.200012207031 L170.296051025391,202.200012207031 L170.296035766602,202.200012207031 C174.992614746094,202.199996948242 178.79997253418,206.007339477539 178.79997253418,210.70393371582 C178.79997253418,210.70393371582 178.79997253418,210.703948974609 178.79997253418,210.703948974609 L178.799987792969,210.703948974609 L178.799987792969,241.096069335938 L178.79997253418,241.096069335938 C178.79997253418,245.792663574219 174.992645263672,249.600006103516 170.296051025391,249.600006103516 L170.296051025391,249.600006103516 L112.903930664063,249.600006103516 L112.903930664063,249.600006103516 C108.207336425781,249.600006103516 104.399993896484,245.792663574219 104.399993896484,241.096069335938 L104.399993896484,210.703948974609 L104.39998626709,210.703948974609 C104.39998626709,206.007354736328 108.207321166992,202.200012207031 112.903915405273,202.199996948242 " stroke="none" fill="#F2E279" fill-rule="evenodd" stroke-width="0" fill-opacity="1" />
  <text x="19.6328563690186" y="29.9967193603516" dx="0" dy="0" font-family="Arial" font-size="8.99999973177911pt" fill="#000000" style="text-anchor:start" transform="matrix(0.750000 0.000000 0.000000 0.750000 104.399993896484 202.200012207031)">Extract by </text>
  <text x="20.9628562927246" y="43.7967185974121" dx="0" dy="0" font-family="Arial" font-size="8.99999973177911pt" fill="#000000" style="text-anchor:start" transform="matrix(0.750000 0.000000 0.000000 0.750000 104.399993896484 202.200012207031)">Attributes</text>
  <path d="M112.903930664063,202.200012207031 L170.296051025391,202.200012207031 L170.296035766602,202.200012207031 C174.992614746094,202.199996948242 178.79997253418,206.007339477539 178.79997253418,210.70393371582 C178.79997253418,210.70393371582 178.79997253418,210.703948974609 178.79997253418,210.703948974609 L178.799987792969,210.703948974609 L178.799987792969,241.096069335938 L178.79997253418,241.096069335938 C178.79997253418,245.792663574219 174.992645263672,249.600006103516 170.296051025391,249.600006103516 L170.296051025391,249.600006103516 L112.903930664063,249.600006103516 L112.903930664063,249.600006103516 C108.207336425781,249.600006103516 104.399993896484,245.792663574219 104.399993896484,241.096069335938 L104.399993896484,210.703948974609 L104.39998626709,210.703948974609 C104.39998626709,206.007354736328 108.207321166992,202.200012207031 112.903915405273,202.199996948242 " stroke="none" fill="none" stroke-width="0.75" stroke-opacity="0" />
  <path d="M268.199951171875,225.899993896484 C268.199951171875,238.989151000977 251.544967651367,249.600006103516 231,249.600006103516 C210.455001831055,249.600006103516 193.799987792969,238.989166259766 193.79997253418,225.900024414063 L193.79997253418,225.900024414063 C193.799957275391,212.81086730957 210.454956054688,202.200012207031 230.999938964844,202.200012207031 C251.544937133789,202.199996948242 268.199951171875,212.810836791992 268.199951171875,225.900009155273 C268.199951171875,225.900009155273 268.199951171875,225.900009155273 268.199951171875,225.900009155273 " stroke="none" fill="#83CC7C" fill-rule="evenodd" stroke-width="0" fill-opacity="1" />
  <text x="20.6188564300537" y="36.8967208862305" dx="0" dy="0" font-family="Arial" font-size="8.99999973177911pt" fill="#000000" style="text-anchor:start" transform="matrix(0.750000 0.000000 0.000000 0.750000 193.799987792969 202.200012207031)">built_area</text>
  <path d="M268.199951171875,225.899993896484 C268.199951171875,238.989151000977 251.544967651367,249.600006103516 231,249.600006103516 C210.455001831055,249.600006103516 193.799987792969,238.989166259766 193.79997253418,225.900024414063 L193.79997253418,225.900024414063 C193.799957275391,212.81086730957 210.454956054688,202.200012207031 230.999938964844,202.200012207031 C251.544937133789,202.199996948242 268.199951171875,212.810836791992 268.199951171875,225.900009155273 C268.199951171875,225.900009155273 268.199951171875,225.900009155273 268.199951171875,225.900009155273 " stroke="none" fill="none" stroke-width="0.75" stroke-opacity="0" />
  <path d="M89.3999862670898,225.899993896484 C89.3999862670898,238.989151000977 72.7449798583984,249.600006103516 52.2000122070313,249.600006103516 C31.6550273895264,249.600006103516 15.0000143051147,238.989166259766 14.9999971389771,225.900024414063 L14.9999942779541,225.900024414063 C14.9999771118164,212.81086730957 31.6549739837646,202.200012207031 52.1999626159668,202.200012207031 C72.7449493408203,202.199996948242 89.3999633789063,212.810836791992 89.3999862670898,225.900009155273 C89.3999862670898,225.900009155273 89.3999862670898,225.900009155273 89.3999862670898,225.900009155273 " stroke="none" fill="#70AECC" fill-rule="evenodd" stroke-width="0" fill-opacity="1" />
  <text x="15.9521884918213" y="36.8967208862305" dx="0" dy="0" font-family="Arial" font-size="8.99999973177911pt" fill="#000000" style="text-anchor:start" transform="matrix(0.750000 0.000000 0.000000 0.750000 15 202.200012207031)">Land Cover</text>
  <path d="M89.3999862670898,225.899993896484 C89.3999862670898,238.989151000977 72.7449798583984,249.600006103516 52.2000122070313,249.600006103516 C31.6550273895264,249.600006103516 15.0000143051147,238.989166259766 14.9999971389771,225.900024414063 L14.9999942779541,225.900024414063 C14.9999771118164,212.81086730957 31.6549739837646,202.200012207031 52.1999626159668,202.200012207031 C72.7449493408203,202.199996948242 89.3999633789063,212.810836791992 89.3999862670898,225.900009155273 C89.3999862670898,225.900009155273 89.3999862670898,225.900009155273 89.3999862670898,225.900009155273 " stroke="none" fill="none" stroke-width="0.75" stroke-opacity="0" />
  <path d="M470.503936767578,264.600006103516 L527.896057128906,264.600006103516 L527.89599609375,264.600006103516 C532.592590332031,264.599975585938 536.399963378906,268.407318115234 536.399963378906,273.103912353516 C536.399963378906,273.103912353516 536.399963378906,273.103942871094 536.399963378906,273.103942871094 L536.399963378906,273.103942871094 L536.399963378906,303.496063232422 L536.399963378906,303.496063232422 C536.399963378906,308.192657470703 532.592651367188,312 527.896057128906,312 L527.896057128906,312 L470.503936767578,312 L470.503936767578,312 C465.807342529297,312 462,308.192657470703 462,303.496063232422 L462,273.103942871094 L461.999969482422,273.103942871094 C461.999969482422,268.407348632813 465.807312011719,264.600006103516 470.50390625,264.599975585938 " stroke="none" fill="#F2E279" fill-rule="evenodd" stroke-width="0" fill-opacity="1" />
  <text x="19.6288566589355" y="29.9967193603516" dx="0" dy="0" font-family="Arial" font-size="8.99999973177911pt" fill="#000000" style="text-anchor:start" transform="matrix(0.750000 0.000000 0.000000 0.750000 462 264.600006103516)">Find Point </text>
  <text x="23.9695224761963" y="43.7967185974121" dx="0" dy="0" font-family="Arial" font-size="8.99999973177911pt" fill="#000000" style="text-anchor:start" transform="matrix(0.750000 0.000000 0.000000 0.750000 462 264.600006103516)">Clusters</text>
  <path d="M470.503936767578,264.600006103516 L527.896057128906,264.600006103516 L527.89599609375,264.600006103516 C532.592590332031,264.599975585938 536.399963378906,268.407318115234 536.399963378906,273.103912353516 C536.399963378906,273.103912353516 536.399963378906,273.103942871094 536.399963378906,273.103942871094 L536.399963378906,273.103942871094 L536.399963378906,303.496063232422 L536.399963378906,303.496063232422 C536.399963378906,308.192657470703 532.592651367188,312 527.896057128906,312 L527.896057128906,312 L470.503936767578,312 L470.503936767578,312 C465.807342529297,312 462,308.192657470703 462,303.496063232422 L462,273.103942871094 L461.999969482422,273.103942871094 C461.999969482422,268.407348632813 465.807312011719,264.600006103516 470.50390625,264.599975585938 " stroke="none" fill="none" stroke-width="0.75" stroke-opacity="0" />
  <path d="M625.799926757813,288.299987792969 C625.799926757813,301.389129638672 609.144897460938,312 588.599975585938,312 C568.054931640625,312 551.399963378906,301.38916015625 551.39990234375,288.300018310547 L551.39990234375,288.300018310547 C551.39990234375,275.210845947266 568.054931640625,264.600006103516 588.599914550781,264.600006103516 C609.144897460938,264.599975585938 625.799926757813,275.210815429688 625.799926757813,288.299987792969 C625.799926757813,288.299987792969 625.799926757813,288.299987792969 625.799926757813,288.299987792969 " stroke="none" fill="#83CC7C" fill-rule="evenodd" stroke-width="0" fill-opacity="1" />
  <text x="5.28685569763184" y="29.9967193603516" dx="0" dy="0" font-family="Arial" font-size="8.99999973177911pt" fill="#000000" style="text-anchor:start" transform="matrix(0.750000 0.000000 0.000000 0.750000 551.399963378906 264.600006103516)">Output Feature </text>
  <text x="30.9728565216064" y="43.7967185974121" dx="0" dy="0" font-family="Arial" font-size="8.99999973177911pt" fill="#000000" style="text-anchor:start" transform="matrix(0.750000 0.000000 0.000000 0.750000 551.399963378906 264.600006103516)">Class</text>
  <path d="M625.799926757813,288.299987792969 C625.799926757813,301.389129638672 609.144897460938,312 588.599975585938,312 C568.054931640625,312 551.399963378906,301.38916015625 551.39990234375,288.300018310547 L551.39990234375,288.300018310547 C551.39990234375,275.210845947266 568.054931640625,264.600006103516 588.599914550781,264.600006103516 C609.144897460938,264.599975585938 625.799926757813,275.210815429688 625.799926757813,288.299987792969 C625.799926757813,288.299987792969 625.799926757813,288.299987792969 625.799926757813,288.299987792969 " stroke="none" fill="none" stroke-width="0.75" stroke-opacity="0" />
  <path d="M291.703948974609,202.200012207031 L349.096069335938,202.200012207031 L349.096038818359,202.200012207031 C353.792633056641,202.199996948242 357.599975585938,206.007339477539 357.599975585938,210.70393371582 C357.599975585938,210.70393371582 357.599975585938,210.703948974609 357.599975585938,210.703948974609 L357.600006103516,210.703948974609 L357.600006103516,241.096069335938 L357.599975585938,241.096069335938 C357.599975585938,245.792663574219 353.792663574219,249.600006103516 349.096069335938,249.600006103516 L349.096069335938,249.600006103516 L291.703948974609,249.600006103516 L291.703948974609,249.600006103516 C287.007354736328,249.600006103516 283.200012207031,245.792663574219 283.200012207031,241.096069335938 L283.200012207031,210.703948974609 L283.199981689453,210.703948974609 C283.199981689453,206.007354736328 287.00732421875,202.200012207031 291.703918457031,202.199996948242 " stroke="none" fill="#F2E279" fill-rule="evenodd" stroke-width="0" fill-opacity="1" />
  <text x="6.29285573959351" y="36.8967208862305" dx="0" dy="0" font-family="Arial" font-size="8.99999973177911pt" fill="#000000" style="text-anchor:start" transform="matrix(0.750000 0.000000 0.000000 0.750000 283.200012207031 202.200012207031)">Raster to Point</text>
  <path d="M291.703948974609,202.200012207031 L349.096069335938,202.200012207031 L349.096038818359,202.200012207031 C353.792633056641,202.199996948242 357.599975585938,206.007339477539 357.599975585938,210.70393371582 C357.599975585938,210.70393371582 357.599975585938,210.703948974609 357.599975585938,210.703948974609 L357.600006103516,210.703948974609 L357.600006103516,241.096069335938 L357.599975585938,241.096069335938 C357.599975585938,245.792663574219 353.792663574219,249.600006103516 349.096069335938,249.600006103516 L349.096069335938,249.600006103516 L291.703948974609,249.600006103516 L291.703948974609,249.600006103516 C287.007354736328,249.600006103516 283.200012207031,245.792663574219 283.200012207031,241.096069335938 L283.200012207031,210.703948974609 L283.199981689453,210.703948974609 C283.199981689453,206.007354736328 287.00732421875,202.200012207031 291.703918457031,202.199996948242 " stroke="none" fill="none" stroke-width="0.75" stroke-opacity="0" />
  <path d="M446.999938964844,225.899993896484 C446.999938964844,238.989151000977 430.344940185547,249.600006103516 409.799987792969,249.600006103516 C389.254974365234,249.600006103516 372.599975585938,238.989166259766 372.599945068359,225.900024414063 L372.599945068359,225.900024414063 C372.599945068359,212.81086730957 389.254943847656,202.200012207031 409.799926757813,202.200012207031 C430.344909667969,202.199996948242 446.999938964844,212.810836791992 446.999938964844,225.900009155273 C446.999938964844,225.900009155273 446.999938964844,225.900009155273 446.999938964844,225.900009155273 " stroke="none" fill="#83CC7C" fill-rule="evenodd" stroke-width="0" fill-opacity="1" />
  <text x="12.9535217285156" y="29.9967193603516" dx="0" dy="0" font-family="Arial" font-size="8.99999973177911pt" fill="#000000" style="text-anchor:start" transform="matrix(0.750000 0.000000 0.000000 0.750000 372.599975585938 202.200012207031)">Output point </text>
  <text x="26.9601898193359" y="43.7967185974121" dx="0" dy="0" font-family="Arial" font-size="8.99999973177911pt" fill="#000000" style="text-anchor:start" transform="matrix(0.750000 0.000000 0.000000 0.750000 372.599975585938 202.200012207031)">features</text>
  <path d="M446.999938964844,225.899993896484 C446.999938964844,238.989151000977 430.344940185547,249.600006103516 409.799987792969,249.600006103516 C389.254974365234,249.600006103516 372.599975585938,238.989166259766 372.599945068359,225.900024414063 L372.599945068359,225.900024414063 C372.599945068359,212.81086730957 389.254943847656,202.200012207031 409.799926757813,202.200012207031 C430.344909667969,202.199996948242 446.999938964844,212.810836791992 446.999938964844,225.900009155273 C446.999938964844,225.900009155273 446.999938964844,225.900009155273 446.999938964844,225.900009155273 " stroke="none" fill="none" stroke-width="0.75" stroke-opacity="0" />
  <path d="M446.999938964844,288.299987792969 C446.999938964844,301.389129638672 430.344940185547,312 409.799987792969,312 C389.254974365234,312 372.599975585938,301.38916015625 372.599945068359,288.300018310547 L372.599945068359,288.300018310547 C372.599945068359,275.210845947266 389.254943847656,264.600006103516 409.799926757813,264.600006103516 C430.344909667969,264.599975585938 446.999938964844,275.210815429688 446.999938964844,288.299987792969 C446.999938964844,288.299987792969 446.999938964844,288.299987792969 446.999938964844,288.299987792969 " stroke="none" fill="#52C0CC" fill-rule="evenodd" stroke-width="0" fill-opacity="1" />
  <text x="20.9768562316895" y="23.0967178344727" dx="0" dy="0" font-family="Arial" font-size="8.99999973177911pt" fill="#000000" style="text-anchor:start" transform="matrix(0.750000 0.000000 0.000000 0.750000 372.599975585938 264.600006103516)">Minimum </text>
  <text x="12.6288557052612" y="36.8967208862305" dx="0" dy="0" font-family="Arial" font-size="8.99999973177911pt" fill="#000000" style="text-anchor:start" transform="matrix(0.750000 0.000000 0.000000 0.750000 372.599975585938 264.600006103516)">Features per </text>
  <text x="26.9695224761963" y="50.696720123291" dx="0" dy="0" font-family="Arial" font-size="8.99999973177911pt" fill="#000000" style="text-anchor:start" transform="matrix(0.750000 0.000000 0.000000 0.750000 372.599975585938 264.600006103516)">Cluster</text>
  <path d="M446.999938964844,288.299987792969 C446.999938964844,301.389129638672 430.344940185547,312 409.799987792969,312 C389.254974365234,312 372.599975585938,301.38916015625 372.599945068359,288.300018310547 L372.599945068359,288.300018310547 C372.599945068359,275.210845947266 389.254943847656,264.600006103516 409.799926757813,264.600006103516 C430.344909667969,264.599975585938 446.999938964844,275.210815429688 446.999938964844,288.299987792969 C446.999938964844,288.299987792969 446.999938964844,288.299987792969 446.999938964844,288.299987792969 " stroke="none" fill="none" stroke-width="0.75" stroke-opacity="0" />
  <path d="M446.999938964844,350.699981689453 C446.999938964844,363.789123535156 430.344940185547,374.399993896484 409.799987792969,374.399993896484 C389.254974365234,374.399993896484 372.599975585938,363.789154052734 372.599945068359,350.700012207031 L372.599945068359,350.700012207031 C372.599945068359,337.61083984375 389.254943847656,327 409.799926757813,327 C430.344909667969,326.999969482422 446.999938964844,337.610809326172 446.999938964844,350.699981689453 C446.999938964844,350.699981689453 446.999938964844,350.699981689453 446.999938964844,350.699981689453 " stroke="none" fill="#52C0CC" fill-rule="evenodd" stroke-width="0" fill-opacity="1" />
  <text x="2.28618907928467" y="36.8967208862305" dx="0" dy="0" font-family="Arial" font-size="8.99999973177911pt" fill="#000000" style="text-anchor:start" transform="matrix(0.750000 0.000000 0.000000 0.750000 372.599975585938 327)">Search Distance</text>
  <path d="M446.999938964844,350.699981689453 C446.999938964844,363.789123535156 430.344940185547,374.399993896484 409.799987792969,374.399993896484 C389.254974365234,374.399993896484 372.599975585938,363.789154052734 372.599945068359,350.700012207031 L372.599945068359,350.700012207031 C372.599945068359,337.61083984375 389.254943847656,327 409.799926757813,327 C430.344909667969,326.999969482422 446.999938964844,337.610809326172 446.999938964844,350.699981689453 C446.999938964844,350.699981689453 446.999938964844,350.699981689453 446.999938964844,350.699981689453 " stroke="none" fill="none" stroke-width="0.75" stroke-opacity="0" />
  <path d="M649.303894042969,295.799987792969 L706.696044921875,295.799987792969 L706.695983886719,295.799987792969 C711.392578125,295.799957275391 715.199951171875,299.607299804688 715.199951171875,304.303894042969 C715.199951171875,304.303894042969 715.199951171875,304.303924560547 715.199951171875,304.303924560547 L715.199951171875,304.303924560547 L715.199951171875,334.696044921875 L715.199951171875,334.696044921875 C715.199951171875,339.392639160156 711.392639160156,343.199981689453 706.696044921875,343.199981689453 L706.696044921875,343.199981689453 L649.303894042969,343.199981689453 L649.303894042969,343.199981689453 C644.607299804688,343.199981689453 640.799987792969,339.392639160156 640.799987792969,334.696044921875 L640.799987792969,304.303924560547 L640.799926757813,304.303924560547 C640.799926757813,299.607330322266 644.607299804688,295.799987792969 649.303894042969,295.799957275391 " stroke="none" fill="#F2E279" fill-rule="evenodd" stroke-width="0" fill-opacity="1" />
  <text x="20.6361904144287" y="29.9967193603516" dx="0" dy="0" font-family="Arial" font-size="8.99999973177911pt" fill="#000000" style="text-anchor:start" transform="matrix(0.750000 0.000000 0.000000 0.750000 640.799987792969 295.799987792969)">Summary </text>
  <text x="22.2995223999023" y="43.7967185974121" dx="0" dy="0" font-family="Arial" font-size="8.99999973177911pt" fill="#000000" style="text-anchor:start" transform="matrix(0.750000 0.000000 0.000000 0.750000 640.799987792969 295.799987792969)">Statistics</text>
  <path d="M649.303894042969,295.799987792969 L706.696044921875,295.799987792969 L706.695983886719,295.799987792969 C711.392578125,295.799957275391 715.199951171875,299.607299804688 715.199951171875,304.303894042969 C715.199951171875,304.303894042969 715.199951171875,304.303924560547 715.199951171875,304.303924560547 L715.199951171875,304.303924560547 L715.199951171875,334.696044921875 L715.199951171875,334.696044921875 C715.199951171875,339.392639160156 711.392639160156,343.199981689453 706.696044921875,343.199981689453 L706.696044921875,343.199981689453 L649.303894042969,343.199981689453 L649.303894042969,343.199981689453 C644.607299804688,343.199981689453 640.799987792969,339.392639160156 640.799987792969,334.696044921875 L640.799987792969,304.303924560547 L640.799926757813,304.303924560547 C640.799926757813,299.607330322266 644.607299804688,295.799987792969 649.303894042969,295.799957275391 " stroke="none" fill="none" stroke-width="0.75" stroke-opacity="0" />
  <path d="M804.599914550781,319.499969482422 C804.599914550781,332.589111328125 787.944885253906,343.199981689453 767.399963378906,343.199981689453 C746.854919433594,343.199981689453 730.199951171875,332.589141845703 730.199890136719,319.5 L730.199890136719,319.5 C730.199890136719,306.410827636719 746.854919433594,295.799987792969 767.39990234375,295.799987792969 C787.944885253906,295.799957275391 804.599914550781,306.410797119141 804.599914550781,319.499969482422 C804.599914550781,319.499969482422 804.599914550781,319.499969482422 804.599914550781,319.499969482422 " stroke="none" fill="#83CC7C" fill-rule="evenodd" stroke-width="0" fill-opacity="1" />
  <text x="0.959522366523743" y="36.8967208862305" dx="0" dy="0" font-family="Arial" font-size="8.99999973177911pt" fill="#000000" style="text-anchor:start" transform="matrix(0.750000 0.000000 0.000000 0.750000 730.199951171875 295.799987792969)">RasterT_built_</text>
  <text x="77.3248596191406" y="36.8967208862305" dx="0" dy="0" font-family="Arial" font-size="8.99999973177911pt" fill="#000000" style="text-anchor:start" transform="matrix(0.750000 0.000000 0.000000 0.750000 730.199951171875 295.799987792969)"> ...</text>
  <path d="M804.599914550781,319.499969482422 C804.599914550781,332.589111328125 787.944885253906,343.199981689453 767.399963378906,343.199981689453 C746.854919433594,343.199981689453 730.199951171875,332.589141845703 730.199890136719,319.5 L730.199890136719,319.5 C730.199890136719,306.410827636719 746.854919433594,295.799987792969 767.39990234375,295.799987792969 C787.944885253906,295.799957275391 804.599914550781,306.410797119141 804.599914550781,319.499969482422 C804.599914550781,319.499969482422 804.599914550781,319.499969482422 804.599914550781,319.499969482422 " stroke="none" fill="none" stroke-width="0.75" stroke-opacity="0" />
  <path d="M1006.90386962891,264.600006103516 L1064.29602050781,264.600006103516 L1064.2958984375,264.600006103516 C1068.99255371094,264.599975585938 1072.79992675781,268.407318115234 1072.79992675781,273.103912353516 C1072.79992675781,273.103912353516 1072.79992675781,273.103942871094 1072.79992675781,273.103942871094 L1072.79992675781,273.103942871094 L1072.79992675781,303.496063232422 L1072.79992675781,303.496063232422 C1072.79992675781,308.192657470703 1068.99255371094,312 1064.29602050781,312 L1064.29602050781,312 L1006.90386962891,312 L1006.90386962891,312 C1002.20727539063,312 998.399963378906,308.192657470703 998.399963378906,303.496063232422 L998.399963378906,273.103942871094 L998.39990234375,273.103942871094 C998.39990234375,268.407348632813 1002.20727539063,264.600006103516 1006.90386962891,264.599975585938 " stroke="none" fill="#F2E279" fill-rule="evenodd" stroke-width="0" fill-opacity="1" />
  <text x="6.28952264785767" y="36.8967208862305" dx="0" dy="0" font-family="Arial" font-size="8.99999973177911pt" fill="#000000" style="text-anchor:start" transform="matrix(0.750000 0.000000 0.000000 0.750000 998.399963378906 264.600006103516)">Calculate Field</text>
  <path d="M1006.90386962891,264.600006103516 L1064.29602050781,264.600006103516 L1064.2958984375,264.600006103516 C1068.99255371094,264.599975585938 1072.79992675781,268.407318115234 1072.79992675781,273.103912353516 C1072.79992675781,273.103912353516 1072.79992675781,273.103942871094 1072.79992675781,273.103942871094 L1072.79992675781,273.103942871094 L1072.79992675781,303.496063232422 L1072.79992675781,303.496063232422 C1072.79992675781,308.192657470703 1068.99255371094,312 1064.29602050781,312 L1064.29602050781,312 L1006.90386962891,312 L1006.90386962891,312 C1002.20727539063,312 998.399963378906,308.192657470703 998.399963378906,303.496063232422 L998.399963378906,273.103942871094 L998.39990234375,273.103942871094 C998.39990234375,268.407348632813 1002.20727539063,264.600006103516 1006.90386962891,264.599975585938 " stroke="none" fill="none" stroke-width="0.75" stroke-opacity="0" />
  <path d="M1162.19995117188,288.299987792969 C1162.19995117188,301.389129638672 1145.544921875,312 1125,312 C1104.45495605469,312 1087.80004882813,301.38916015625 1087.79992675781,288.300018310547 L1087.79992675781,288.300018310547 C1087.79992675781,275.210845947266 1104.45495605469,264.600006103516 1125,264.600006103516 C1145.544921875,264.599975585938 1162.19995117188,275.210815429688 1162.19995117188,288.299987792969 C1162.19995117188,288.299987792969 1162.19995117188,288.299987792969 1162.19995117188,288.299987792969 " stroke="none" fill="#83CC7C" fill-rule="evenodd" stroke-width="0" fill-opacity="1" />
  <text x="0.959522366523743" y="29.9967193603516" dx="0" dy="0" font-family="Arial" font-size="8.99999973177911pt" fill="#000000" style="text-anchor:start" transform="matrix(0.750000 0.000000 0.000000 0.750000 1087.80004882813 264.600006103516)">RasterT_built_</text>
  <text x="77.3248596191406" y="29.9967193603516" dx="0" dy="0" font-family="Arial" font-size="8.99999973177911pt" fill="#000000" style="text-anchor:start" transform="matrix(0.750000 0.000000 0.000000 0.750000 1087.80004882813 264.600006103516)"> ...</text>
  <text x="40.9768562316895" y="43.7967185974121" dx="0" dy="0" font-family="Arial" font-size="8.99999973177911pt" fill="#000000" style="text-anchor:start" transform="matrix(0.750000 0.000000 0.000000 0.750000 1087.80004882813 264.600006103516)">(3)</text>
  <path d="M1162.19995117188,288.299987792969 C1162.19995117188,301.389129638672 1145.544921875,312 1125,312 C1104.45495605469,312 1087.80004882813,301.38916015625 1087.79992675781,288.300018310547 L1087.79992675781,288.300018310547 C1087.79992675781,275.210845947266 1104.45495605469,264.600006103516 1125,264.600006103516 C1145.544921875,264.599975585938 1162.19995117188,275.210815429688 1162.19995117188,288.299987792969 C1162.19995117188,288.299987792969 1162.19995117188,288.299987792969 1162.19995117188,288.299987792969 " stroke="none" fill="none" stroke-width="0.75" stroke-opacity="0" />
  <path d="M828.103881835938,233.400009155273 L885.496032714844,233.400009155273 L885.495971679688,233.400009155273 C890.192565917969,233.399993896484 893.999938964844,237.207336425781 893.999938964844,241.903930664063 C893.999938964844,241.903930664063 893.999938964844,241.903945922852 893.999938964844,241.903945922852 L893.999938964844,241.903945922852 L893.999938964844,272.296051025391 L893.999938964844,272.296051025391 C893.999938964844,276.992645263672 890.192626953125,280.799987792969 885.496032714844,280.799987792969 L885.496032714844,280.799987792969 L828.103881835938,280.799987792969 L828.103881835938,280.799987792969 C823.407287597656,280.799987792969 819.599975585938,276.992645263672 819.599975585938,272.296051025391 L819.599975585938,241.903945922852 L819.599914550781,241.903945922852 C819.599914550781,237.20735168457 823.407287597656,233.400009155273 828.103881835938,233.399993896484 " stroke="none" fill="#F2E279" fill-rule="evenodd" stroke-width="0" fill-opacity="1" />
  <text x="4.39618921279907" y="36.8967208862305" dx="0" dy="0" font-family="Arial" font-size="8.99999973177911pt" fill="#000000" style="text-anchor:start" transform="matrix(0.750000 0.000000 0.000000 0.750000 819.599975585938 233.400009155273)">Calculate Value</text>
  <path d="M828.103881835938,233.400009155273 L885.496032714844,233.400009155273 L885.495971679688,233.400009155273 C890.192565917969,233.399993896484 893.999938964844,237.207336425781 893.999938964844,241.903930664063 C893.999938964844,241.903930664063 893.999938964844,241.903945922852 893.999938964844,241.903945922852 L893.999938964844,241.903945922852 L893.999938964844,272.296051025391 L893.999938964844,272.296051025391 C893.999938964844,276.992645263672 890.192626953125,280.799987792969 885.496032714844,280.799987792969 L885.496032714844,280.799987792969 L828.103881835938,280.799987792969 L828.103881835938,280.799987792969 C823.407287597656,280.799987792969 819.599975585938,276.992645263672 819.599975585938,272.296051025391 L819.599975585938,241.903945922852 L819.599914550781,241.903945922852 C819.599914550781,237.20735168457 823.407287597656,233.400009155273 828.103881835938,233.399993896484 " stroke="none" fill="none" stroke-width="0.75" stroke-opacity="0" />
  <path d="M983.399963378906,257.099975585938 C983.399963378906,270.189147949219 966.744934082031,280.799987792969 946.200012207031,280.799987792969 C925.654968261719,280.799987792969 909,270.189147949219 908.999938964844,257.100006103516 L908.999938964844,257.100006103516 C908.999938964844,244.010864257813 925.654968261719,233.400009155273 946.199951171875,233.400009155273 C966.744934082031,233.399993896484 983.399963378906,244.010833740234 983.399963378906,257.100006103516 C983.399963378906,257.100006103516 983.399963378906,257.100006103516 983.399963378906,257.100006103516 " stroke="none" fill="#83CC7C" fill-rule="evenodd" stroke-width="0" fill-opacity="1" />
  <text x="31.8501892089844" y="36.8967208862305" dx="0" dy="0" font-family="Arial" font-size="8.99999973177911pt" fill="#000000" style="text-anchor:start" transform="matrix(0.750000 0.000000 0.000000 0.750000 909 233.400009155273)">Value</text>
  <path d="M983.399963378906,257.099975585938 C983.399963378906,270.189147949219 966.744934082031,280.799987792969 946.200012207031,280.799987792969 C925.654968261719,280.799987792969 909,270.189147949219 908.999938964844,257.100006103516 L908.999938964844,257.100006103516 C908.999938964844,244.010864257813 925.654968261719,233.400009155273 946.199951171875,233.400009155273 C966.744934082031,233.399993896484 983.399963378906,244.010833740234 983.399963378906,257.100006103516 C983.399963378906,257.100006103516 983.399963378906,257.100006103516 983.399963378906,257.100006103516 " stroke="none" fill="none" stroke-width="0.75" stroke-opacity="0" />
  <path d="M640.799987792969,257.100006103516 L659.399963378906,280.799987792969 L696.599975585938,280.799987792969 L715.199951171875,257.100006103516 L696.599975585938,233.400009155273 L659.399963378906,233.400009155273 L640.799987792969,257.100006103516 " stroke="none" fill="#F0B871" fill-rule="evenodd" stroke-width="0" fill-opacity="1" />
  <text x="9.28685569763184" y="29.9967193603516" dx="0" dy="0" font-family="Arial" font-size="8.99999973177911pt" fill="#000000" style="text-anchor:start" transform="matrix(0.750000 0.000000 0.000000 0.750000 640.799987792969 233.400009155273)">Iterate Feature </text>
  <text x="21.6261901855469" y="43.7967185974121" dx="0" dy="0" font-family="Arial" font-size="8.99999973177911pt" fill="#000000" style="text-anchor:start" transform="matrix(0.750000 0.000000 0.000000 0.750000 640.799987792969 233.400009155273)">Selection</text>
  <path d="M640.799987792969,257.100006103516 L659.399963378906,280.799987792969 L696.599975585938,280.799987792969 L715.199951171875,257.100006103516 L696.599975585938,233.400009155273 L659.399963378906,233.400009155273 L640.799987792969,257.100006103516 " stroke="none" fill="none" stroke-width="0.75" stroke-opacity="0" />
  <path d="M735.771423339844,128.491897583008 C735.771423339844,141.5810546875 719.116394042969,152.191909790039 698.571472167969,152.191909790039 C678.026428222656,152.191909790039 661.371459960938,141.581069946289 661.371398925781,128.491928100586 L661.371398925781,128.491928100586 C661.371398925781,115.402778625488 678.026428222656,104.791923522949 698.571411132813,104.791915893555 C719.116394042969,104.791900634766 735.771423339844,115.40274810791 735.771423339844,128.491912841797 C735.771423339844,128.491912841797 735.771423339844,128.491912841797 735.771423339844,128.491912841797 " stroke="none" fill="#83CC7C" fill-rule="evenodd" stroke-width="0" fill-opacity="1" />
  <text x="3.62352228164673" y="36.8967208862305" dx="0" dy="0" font-family="Arial" font-size="8.99999973177911pt" fill="#000000" style="text-anchor:start" transform="matrix(0.750000 0.000000 0.000000 0.750000 661.371459960938 104.791915893555)">I_RasterT_buil</text>
  <text x="77.3248596191406" y="36.8967208862305" dx="0" dy="0" font-family="Arial" font-size="8.99999973177911pt" fill="#000000" style="text-anchor:start" transform="matrix(0.750000 0.000000 0.000000 0.750000 661.371459960938 104.791915893555)"> ...</text>
  <path d="M735.771423339844,128.491897583008 C735.771423339844,141.5810546875 719.116394042969,152.191909790039 698.571472167969,152.191909790039 C678.026428222656,152.191909790039 661.371459960938,141.581069946289 661.371398925781,128.491928100586 L661.371398925781,128.491928100586 C661.371398925781,115.402778625488 678.026428222656,104.791923522949 698.571411132813,104.791915893555 C719.116394042969,104.791900634766 735.771423339844,115.40274810791 735.771423339844,128.491912841797 C735.771423339844,128.491912841797 735.771423339844,128.491912841797 735.771423339844,128.491912841797 " stroke="none" fill="none" stroke-width="0.75" stroke-opacity="0" />
  <path d="M804.599914550781,257.099975585938 C804.599914550781,270.189147949219 787.944885253906,280.799987792969 767.399963378906,280.799987792969 C746.854919433594,280.799987792969 730.199951171875,270.189147949219 730.199890136719,257.100006103516 L730.199890136719,257.100006103516 C730.199890136719,244.010864257813 746.854919433594,233.400009155273 767.39990234375,233.400009155273 C787.944885253906,233.399993896484 804.599914550781,244.010833740234 804.599914550781,257.100006103516 C804.599914550781,257.100006103516 804.599914550781,257.100006103516 804.599914550781,257.100006103516 " stroke="none" fill="#82CAED" fill-rule="evenodd" stroke-width="0" fill-opacity="1" />
  <text x="22.8501892089844" y="36.8967208862305" dx="0" dy="0" font-family="Arial" font-size="8.99999973177911pt" fill="#000000" style="text-anchor:start" transform="matrix(0.750000 0.000000 0.000000 0.750000 730.199951171875 233.400009155273)">Value (2)</text>
  <path d="M804.599914550781,257.099975585938 C804.599914550781,270.189147949219 787.944885253906,280.799987792969 767.399963378906,280.799987792969 C746.854919433594,280.799987792969 730.199951171875,270.189147949219 730.199890136719,257.100006103516 L730.199890136719,257.100006103516 C730.199890136719,244.010864257813 746.854919433594,233.400009155273 767.39990234375,233.400009155273 C787.944885253906,233.399993896484 804.599914550781,244.010833740234 804.599914550781,257.100006103516 C804.599914550781,257.100006103516 804.599914550781,257.100006103516 804.599914550781,257.100006103516 " stroke="none" fill="none" stroke-width="0.75" stroke-opacity="0" />
  <path d="M759.275329589844,104.791915893555 L816.66748046875,104.791915893555 L816.667419433594,104.791915893555 C821.364013671875,104.79190826416 825.17138671875,108.599243164063 825.17138671875,113.295845031738 C825.17138671875,113.295845031738 825.17138671875,113.295852661133 825.17138671875,113.295852661133 L825.17138671875,113.295852661133 L825.17138671875,143.687973022461 L825.17138671875,143.687973022461 C825.17138671875,148.384567260742 821.364074707031,152.191909790039 816.66748046875,152.191909790039 L816.66748046875,152.191909790039 L759.275329589844,152.191909790039 L759.275329589844,152.191909790039 C754.578735351563,152.191909790039 750.771423339844,148.384567260742 750.771423339844,143.687973022461 L750.771423339844,113.295852661133 L750.771362304688,113.295852661133 C750.771362304688,108.599258422852 754.578735351563,104.791915893555 759.275329589844,104.79190826416 " stroke="none" fill="#F2E279" fill-rule="evenodd" stroke-width="0" fill-opacity="1" />
  <text x="19.9528560638428" y="29.9967193603516" dx="0" dy="0" font-family="Arial" font-size="8.99999973177911pt" fill="#000000" style="text-anchor:start" transform="matrix(0.750000 0.000000 0.000000 0.750000 750.771423339844 104.791915893555)">Euclidean </text>
  <text x="22.6328563690186" y="43.7967185974121" dx="0" dy="0" font-family="Arial" font-size="8.99999973177911pt" fill="#000000" style="text-anchor:start" transform="matrix(0.750000 0.000000 0.000000 0.750000 750.771423339844 104.791915893555)">Distance</text>
  <path d="M759.275329589844,104.791915893555 L816.66748046875,104.791915893555 L816.667419433594,104.791915893555 C821.364013671875,104.79190826416 825.17138671875,108.599243164063 825.17138671875,113.295845031738 C825.17138671875,113.295845031738 825.17138671875,113.295852661133 825.17138671875,113.295852661133 L825.17138671875,113.295852661133 L825.17138671875,143.687973022461 L825.17138671875,143.687973022461 C825.17138671875,148.384567260742 821.364074707031,152.191909790039 816.66748046875,152.191909790039 L816.66748046875,152.191909790039 L759.275329589844,152.191909790039 L759.275329589844,152.191909790039 C754.578735351563,152.191909790039 750.771423339844,148.384567260742 750.771423339844,143.687973022461 L750.771423339844,113.295852661133 L750.771362304688,113.295852661133 C750.771362304688,108.599258422852 754.578735351563,104.791915893555 759.275329589844,104.79190826416 " stroke="none" fill="none" stroke-width="0.75" stroke-opacity="0" />
  <path d="M924.793518066406,185.349258422852 C924.793518066406,198.438415527344 908.138488769531,209.049270629883 887.593566894531,209.049270629883 C867.048522949219,209.049270629883 850.3935546875,198.438430786133 850.393493652344,185.34928894043 L850.393493652344,185.34928894043 C850.393493652344,172.260131835938 867.048522949219,161.649276733398 887.593505859375,161.649276733398 C908.138488769531,161.649261474609 924.793518066406,172.260101318359 924.793518066406,185.349273681641 C924.793518066406,185.349273681641 924.793518066406,185.349273681641 924.793518066406,185.349273681641 " stroke="none" fill="#83CC7C" fill-rule="evenodd" stroke-width="0" fill-opacity="1" />
  <text x="6.62618923187256" y="36.8967208862305" dx="0" dy="0" font-family="Arial" font-size="8.99999973177911pt" fill="#000000" style="text-anchor:start" transform="matrix(0.750000 0.000000 0.000000 0.750000 850.3935546875 161.649276733398)">EucDist_Rast1</text>
  <path d="M924.793518066406,185.349258422852 C924.793518066406,198.438415527344 908.138488769531,209.049270629883 887.593566894531,209.049270629883 C867.048522949219,209.049270629883 850.3935546875,198.438430786133 850.393493652344,185.34928894043 L850.393493652344,185.34928894043 C850.393493652344,172.260131835938 867.048522949219,161.649276733398 887.593505859375,161.649276733398 C908.138488769531,161.649261474609 924.793518066406,172.260101318359 924.793518066406,185.349273681641 C924.793518066406,185.349273681641 924.793518066406,185.349273681641 924.793518066406,185.349273681641 " stroke="none" fill="none" stroke-width="0.75" stroke-opacity="0" />
  <path d="M922.749084472656,125.766021728516 C922.749084472656,138.855163574219 906.094055175781,149.466018676758 885.549133300781,149.466018676758 C865.004089355469,149.466033935547 848.34912109375,138.855178833008 848.349060058594,125.766044616699 L848.349060058594,125.766044616699 C848.349060058594,112.676895141602 865.004089355469,102.066040039063 885.549072265625,102.066032409668 C906.094055175781,102.066017150879 922.749084472656,112.676864624023 922.749084472656,125.76602935791 C922.749084472656,125.76602935791 922.749084472656,125.76602935791 922.749084472656,125.76602935791 " stroke="none" fill="#E7E7E7" fill-rule="evenodd" stroke-width="0" fill-opacity="1" />
  <text x="3.28685569763184" y="29.9967193603516" dx="0" dy="0" font-family="Arial" font-size="8.99999973177911pt" fill="#000000" style="text-anchor:start" transform="matrix(0.750000 0.000000 0.000000 0.750000 848.34912109375 102.066032409668)">Output direction </text>
  <text x="32.9735221862793" y="43.7967185974121" dx="0" dy="0" font-family="Arial" font-size="8.99999973177911pt" fill="#000000" style="text-anchor:start" transform="matrix(0.750000 0.000000 0.000000 0.750000 848.34912109375 102.066032409668)">raster</text>
  <path d="M922.749084472656,125.766021728516 C922.749084472656,138.855163574219 906.094055175781,149.466018676758 885.549133300781,149.466018676758 C865.004089355469,149.466033935547 848.34912109375,138.855178833008 848.349060058594,125.766044616699 L848.349060058594,125.766044616699 C848.349060058594,112.676895141602 865.004089355469,102.066040039063 885.549072265625,102.066032409668 C906.094055175781,102.066017150879 922.749084472656,112.676864624023 922.749084472656,125.76602935791 C922.749084472656,125.76602935791 922.749084472656,125.76602935791 922.749084472656,125.76602935791 " stroke="none" fill="none" stroke-width="0.75" stroke-opacity="0" />
  <path d="M920.704650878906,61.9218940734863 C920.704650878906,75.0110397338867 904.049621582031,85.6218948364258 883.504699707031,85.6218948364258 C862.959655761719,85.6219024658203 846.3046875,75.0110549926758 846.304626464844,61.9219131469727 L846.304626464844,61.9219169616699 C846.304626464844,48.8327674865723 862.959655761719,38.2219085693359 883.504638671875,38.2219009399414 C904.049621582031,38.2218894958496 920.704650878906,48.8327331542969 920.704650878906,61.9218978881836 C920.704650878906,61.9218978881836 920.704650878906,61.9218978881836 920.704650878906,61.9218978881836 " stroke="none" fill="#E7E7E7" fill-rule="evenodd" stroke-width="0" fill-opacity="1" />
  <text x="21.6301898956299" y="29.9967193603516" dx="0" dy="0" font-family="Arial" font-size="8.99999973177911pt" fill="#000000" style="text-anchor:start" transform="matrix(0.750000 0.000000 0.000000 0.750000 846.3046875 38.2219009399414)">Out back </text>
  <text x="7.29218912124634" y="43.7967185974121" dx="0" dy="0" font-family="Arial" font-size="8.99999973177911pt" fill="#000000" style="text-anchor:start" transform="matrix(0.750000 0.000000 0.000000 0.750000 846.3046875 38.2219009399414)">direction raster</text>
  <path d="M920.704650878906,61.9218940734863 C920.704650878906,75.0110397338867 904.049621582031,85.6218948364258 883.504699707031,85.6218948364258 C862.959655761719,85.6219024658203 846.3046875,75.0110549926758 846.304626464844,61.9219131469727 L846.304626464844,61.9219169616699 C846.304626464844,48.8327674865723 862.959655761719,38.2219085693359 883.504638671875,38.2219009399414 C904.049621582031,38.2218894958496 920.704650878906,48.8327331542969 920.704650878906,61.9218978881836 C920.704650878906,61.9218978881836 920.704650878906,61.9218978881836 920.704650878906,61.9218978881836 " stroke="none" fill="none" stroke-width="0.75" stroke-opacity="0" />
  <path d="M970.785949707031,160.286346435547 L1028.17810058594,160.286346435547 L1028.17797851563,160.286346435547 C1032.87463378906,160.286331176758 1036.68200683594,164.093673706055 1036.68200683594,168.790267944336 C1036.68200683594,168.790267944336 1036.68200683594,168.790283203125 1036.68200683594,168.790283203125 L1036.68200683594,168.790283203125 L1036.68200683594,199.182403564453 L1036.68200683594,199.182403564453 C1036.68200683594,203.878997802734 1032.87463378906,207.686340332031 1028.17810058594,207.686340332031 L1028.17810058594,207.686340332031 L970.785949707031,207.686340332031 L970.785949707031,207.686340332031 C966.08935546875,207.686340332031 962.282043457031,203.878997802734 962.282043457031,199.182403564453 L962.282043457031,168.790283203125 L962.281982421875,168.790283203125 C962.281982421875,164.093688964844 966.08935546875,160.286346435547 970.785949707031,160.286331176758 " stroke="none" fill="#F2E279" fill-rule="evenodd" stroke-width="0" fill-opacity="1" />
  <text x="8.0695219039917" y="36.8967208862305" dx="0" dy="0" font-family="Arial" font-size="8.99999973177911pt" fill="#000000" style="text-anchor:start" transform="matrix(0.750000 0.000000 0.000000 0.750000 962.282043457031 160.286346435547)">Collect Values</text>
  <path d="M970.785949707031,160.286346435547 L1028.17810058594,160.286346435547 L1028.17797851563,160.286346435547 C1032.87463378906,160.286331176758 1036.68200683594,164.093673706055 1036.68200683594,168.790267944336 C1036.68200683594,168.790267944336 1036.68200683594,168.790283203125 1036.68200683594,168.790283203125 L1036.68200683594,168.790283203125 L1036.68200683594,199.182403564453 L1036.68200683594,199.182403564453 C1036.68200683594,203.878997802734 1032.87463378906,207.686340332031 1028.17810058594,207.686340332031 L1028.17810058594,207.686340332031 L970.785949707031,207.686340332031 L970.785949707031,207.686340332031 C966.08935546875,207.686340332031 962.282043457031,203.878997802734 962.282043457031,199.182403564453 L962.282043457031,168.790283203125 L962.281982421875,168.790283203125 C962.281982421875,164.093688964844 966.08935546875,160.286346435547 970.785949707031,160.286331176758 " stroke="none" fill="none" stroke-width="0.75" stroke-opacity="0" />
  <path d="M1126.08190917969,183.986328125 C1126.08190917969,197.075485229492 1109.42687988281,207.686340332031 1088.88195800781,207.686340332031 C1068.3369140625,207.686340332031 1051.68200683594,197.075500488281 1051.68188476563,183.986358642578 L1051.68188476563,183.986358642578 C1051.68188476563,170.897201538086 1068.3369140625,160.286346435547 1088.88195800781,160.286346435547 C1109.42687988281,160.286331176758 1126.08190917969,170.897171020508 1126.08190917969,183.986343383789 C1126.08190917969,183.986343383789 1126.08190917969,183.986343383789 1126.08190917969,183.986343383789 " stroke="none" fill="#83CC7C" fill-rule="evenodd" stroke-width="0" fill-opacity="1" />
  <text x="8.06352233886719" y="36.8967208862305" dx="0" dy="0" font-family="Arial" font-size="8.99999973177911pt" fill="#000000" style="text-anchor:start" transform="matrix(0.750000 0.000000 0.000000 0.750000 1051.68200683594 160.286346435547)">Output Values</text>
  <path d="M1126.08190917969,183.986328125 C1126.08190917969,197.075485229492 1109.42687988281,207.686340332031 1088.88195800781,207.686340332031 C1068.3369140625,207.686340332031 1051.68200683594,197.075500488281 1051.68188476563,183.986358642578 L1051.68188476563,183.986358642578 C1051.68188476563,170.897201538086 1068.3369140625,160.286346435547 1088.88195800781,160.286346435547 C1109.42687988281,160.286331176758 1126.08190917969,170.897171020508 1126.08190917969,183.986343383789 C1126.08190917969,183.986343383789 1126.08190917969,183.986343383789 1126.08190917969,183.986343383789 " stroke="none" fill="none" stroke-width="0.75" stroke-opacity="0" />
</svg>