<svg width="788" height="527" xmlns="http://www.w3.org/2000/svg" xmlns:xlink="http://www.w3.org/1999/xlink" overflow="hidden"><defs><clipPath id="clip0"><rect x="1412" y="711" width="788" height="527"/></clipPath><clipPath id="clip1"><rect x="1412" y="529" width="230" height="463"/></clipPath><clipPath id="clip2"><rect x="1412" y="655" width="230" height="463"/></clipPath><clipPath id="clip3"><rect x="1412" y="771" width="230" height="424"/></clipPath><clipPath id="clip4"><rect x="1412" y="868" width="230" height="424"/></clipPath><clipPath id="clip5"><rect x="1412" y="964" width="230" height="425"/></clipPath></defs><g clip-path="url(#clip0)" transform="translate(-1412 -711)"><path d="M1412.91 725.578 2197.37 725.578" stroke="#70AD47" stroke-width="4.58333" stroke-linejoin="round" stroke-miterlimit="10" fill="none" fill-rule="evenodd"/><path d="M1412.91 1225.18 2197.37 1225.18" stroke="#70AD47" stroke-width="4.58333" stroke-linejoin="round" stroke-miterlimit="10" fill="none" fill-rule="evenodd"/><g clip-path="url(#clip1)"><text font-family="Calibri,Calibri_MSFontService,sans-serif" font-weight="700" font-size="55" transform="matrix(1 0 0 1 1414.9 780)">Fraction</text></g><path d="M1414.9 785.569 1461.4 785.569 1507.9 785.569 1554.4 785.569 1600.9 785.569 1600.9 789.569 1554.4 789.569 1507.9 789.569 1461.4 789.569 1414.9 789.569Z" fill-rule="evenodd"/><text font-family="Calibri,Calibri_MSFontService,sans-serif" font-weight="700" font-size="55" transform="matrix(1 0 0 1 1862.22 815)">Float</text><g clip-path="url(#clip2)"><text font-family="Calibri,Calibri_MSFontService,sans-serif" font-weight="700" font-size="55" transform="matrix(1 0 0 1 1553.21 905)">1/3</text></g><text font-family="Calibri,Calibri_MSFontService,sans-serif" font-weight="400" font-size="50" transform="matrix(1 0 0 1 1680.92 903)">0.33333333333333333</text><g clip-path="url(#clip3)"><text font-family="Calibri,Calibri_MSFontService,sans-serif" font-weight="700" font-size="50" transform="matrix(1 0 0 1 1556.36 1000)">1/6</text></g><text font-family="Calibri,Calibri_MSFontService,sans-serif" font-weight="400" font-size="50" transform="matrix(1 0 0 1 1680.92 1000)">0.16666666666666667</text><g clip-path="url(#clip4)"><text font-family="Calibri,Calibri_MSFontService,sans-serif" font-weight="700" font-size="50" transform="matrix(1 0 0 1 1556.36 1097)">1/7</text></g><text font-family="Calibri,Calibri_MSFontService,sans-serif" font-weight="400" font-size="50" transform="matrix(1 0 0 1 1680.92 1097)">0.14285714285714285</text><g clip-path="url(#clip5)"><text font-family="Calibri,Calibri_MSFontService,sans-serif" font-weight="700" font-size="50" transform="matrix(1 0 0 1 1556.36 1193)">1/9</text></g><text font-family="Calibri,Calibri_MSFontService,sans-serif" font-weight="400" font-size="50" transform="matrix(1 0 0 1 1680.92 1193)">0.11111111111111111</text></g></svg>