<svg width="4262" height="2113" xmlns="http://www.w3.org/2000/svg" xmlns:xlink="http://www.w3.org/1999/xlink" overflow="hidden"><defs><clipPath id="clip0"><rect x="64" y="207" width="4262" height="2113"/></clipPath></defs><g clip-path="url(#clip0)" transform="translate(-64 -207)"><rect x="454.5" y="1823.5" width="3863" height="495" stroke="#44546A" stroke-width="3.4375" stroke-linejoin="round" stroke-miterlimit="10" fill="#D0E0E3"/><rect x="65.5002" y="208.5" width="389" height="495" stroke="#000000" stroke-width="3.4375" stroke-linejoin="round" stroke-miterlimit="10" fill="#FFFFFF"/><text font-family="Calibri,Calibri_MSFontService,sans-serif" font-weight="700" font-size="64" transform="matrix(1 0 0 1 156.413 400)">Overlay <tspan font-size="64" x="32.0833" y="77">Input </tspan><tspan font-size="64" x="5.15625" y="154">Rasters</tspan></text><rect x="65.5002" y="746.5" width="389" height="495" stroke="#000000" stroke-width="3.4375" stroke-linejoin="round" stroke-miterlimit="10" fill="#FFFFFF"/><text font-family="Calibri,Calibri_MSFontService,sans-serif" font-weight="700" font-size="64" transform="matrix(1 0 0 1 118.028 977)">Base Layer <tspan font-size="64" x="27.5" y="77">Cleaning</tspan></text><rect x="65.5002" y="1284.5" width="389" height="495" stroke="#000000" stroke-width="3.4375" stroke-linejoin="round" stroke-miterlimit="10" fill="#FFFFFF"/><text font-family="Calibri,Calibri_MSFontService,sans-serif" font-weight="700" font-size="64" transform="matrix(1 0 0 1 165.591 1476)">Adding <tspan font-size="64" x="11.7333" y="77">Urban </tspan><tspan font-size="64" x="-12.3292" y="154">Clusters</tspan></text><rect x="65.5002" y="1823.5" width="389" height="495" stroke="#000000" stroke-width="3.4375" stroke-linejoin="round" stroke-miterlimit="10" fill="#FFFFFF"/><text font-family="Calibri,Calibri_MSFontService,sans-serif" font-weight="700" font-size="64" transform="matrix(1 0 0 1 173.039 2053)">Merge <tspan font-size="64" x="-9.46459" y="77">Results</tspan></text><rect x="454.5" y="746.5" width="3863" height="495" stroke="#44546A" stroke-width="3.4375" stroke-linejoin="round" stroke-miterlimit="10" fill="#D9D2E9"/><rect x="454.5" y="208.5" width="3863" height="495" stroke="#44546A" stroke-width="3.4375" stroke-linejoin="round" stroke-miterlimit="10" fill="#E7E6E6"/><rect x="584.5" y="1365.5" width="2333" height="396" stroke="#44546A" stroke-width="3.4375" stroke-linejoin="round" stroke-miterlimit="10" fill="#EAD1DC"/><rect x="2949.5" y="1365.5" width="1184" height="396" stroke="#44546A" stroke-width="3.4375" stroke-linejoin="round" stroke-miterlimit="10" fill="#FFF2CC"/><path d="M730.5 341.5C730.5 286.824 860.113 242.5 1020 242.5 1179.89 242.5 1309.5 286.824 1309.5 341.5 1309.5 396.176 1179.89 440.5 1020 440.5 860.113 440.5 730.5 396.176 730.5 341.5Z" stroke="#31538F" stroke-width="4.58333" stroke-miterlimit="8" fill="#4472C4" fill-rule="evenodd"/><text fill="#FFFFFF" font-family="Calibri,Calibri_MSFontService,sans-serif" font-weight="400" font-size="69" transform="matrix(1 0 0 1 874.244 323)">land cover <tspan font-size="69" x="63.0208" y="83">raster</tspan></text><path d="M731.5 569.5C731.5 514.824 860.89 470.5 1020.5 470.5 1180.11 470.5 1309.5 514.824 1309.5 569.5 1309.5 624.176 1180.11 668.5 1020.5 668.5 860.89 668.5 731.5 624.176 731.5 569.5Z" stroke="#31538F" stroke-width="4.58333" stroke-miterlimit="8" fill="#4472C4" fill-rule="evenodd"/><text fill="#FFFFFF" font-family="Calibri,Calibri_MSFontService,sans-serif" font-weight="400" font-size="69" transform="matrix(1 0 0 1 897.733 550)">drainage <tspan font-size="69" x="39.5313" y="83">raster</tspan></text><path d="M1696.5 372.834C1696.5 350.006 1715.01 331.5 1737.83 331.5L2150.17 331.5C2172.99 331.5 2191.5 350.006 2191.5 372.834L2191.5 538.166C2191.5 560.994 2172.99 579.5 2150.17 579.5L1737.83 579.5C1715.01 579.5 1696.5 560.994 1696.5 538.166Z" stroke="#BA8C00" stroke-width="4.58333" stroke-miterlimit="8" fill="#FFC000" fill-rule="evenodd"/><text font-family="Calibri,Calibri_MSFontService,sans-serif" font-weight="400" font-size="69" transform="matrix(1 0 0 1 1766.95 437)">Reclassify by <tspan font-size="69" x="105.99" y="83">table</tspan></text><path d="M2436.5 372.834C2436.5 350.006 2455.01 331.5 2477.83 331.5L2890.17 331.5C2912.99 331.5 2931.5 350.006 2931.5 372.834L2931.5 538.166C2931.5 560.994 2912.99 579.5 2890.17 579.5L2477.83 579.5C2455.01 579.5 2436.5 560.994 2436.5 538.166Z" stroke="#BA8C00" stroke-width="4.58333" stroke-miterlimit="8" fill="#FFC000" fill-rule="evenodd"/><text font-family="Calibri,Calibri_MSFontService,sans-serif" font-weight="400" font-size="69" transform="matrix(1 0 0 1 2594.51 437)">Raster <tspan font-size="69" x="-48.3999" y="83">calculator</tspan></text><path d="M3176.5 455.5C3176.5 400.824 3305.89 356.5 3465.5 356.5 3625.11 356.5 3754.5 400.824 3754.5 455.5 3754.5 510.176 3625.11 554.5 3465.5 554.5 3305.89 554.5 3176.5 510.176 3176.5 455.5Z" stroke="#38761D" stroke-width="4.58333" stroke-miterlimit="8" fill="#70AD47" fill-rule="evenodd"/><text fill="#FFFFFF" font-family="Calibri,Calibri_MSFontService,sans-serif" font-weight="400" font-size="69" transform="matrix(1 0 0 1 3325.58 437)">combined <tspan font-size="69" x="56.9937" y="83">raster</tspan></text><path d="M2191 449.844 2415.06 449.844 2415.06 460.157 2191 460.156ZM2415.06 455 2404.75 439.532 2435.69 455 2404.75 470.469Z" fill="#44546A"/><path d="M2931 449.844 3155.06 449.844 3155.06 460.157 2931 460.156ZM3155.06 455 3144.75 439.532 3175.69 455 3144.75 470.469Z" fill="#44546A"/><path d="M2005.5 897.835C2005.5 875.006 2024.01 856.5 2046.83 856.5L2459.17 856.5C2481.99 856.5 2500.5 875.006 2500.5 897.835L2500.5 1063.17C2500.5 1085.99 2481.99 1104.5 2459.17 1104.5L2046.83 1104.5C2024.01 1104.5 2005.5 1085.99 2005.5 1063.17Z" stroke="#BA8C00" stroke-width="4.58333" stroke-miterlimit="8" fill="#FFC000" fill-rule="evenodd"/><text font-family="Calibri,Calibri_MSFontService,sans-serif" font-weight="400" font-size="69" transform="matrix(1 0 0 1 2163.34 961)">Raster <tspan font-size="69" x="-48.3999" y="83">calculator</tspan></text><path d="M2890.5 899.5C2890.5 844.824 3001.31 800.5 3138 800.5 3274.69 800.5 3385.5 844.824 3385.5 899.5 3385.5 954.176 3274.69 998.5 3138 998.5 3001.31 998.5 2890.5 954.176 2890.5 899.5Z" stroke="#31538F" stroke-width="4.58333" stroke-miterlimit="8" fill="#4472C4" fill-rule="evenodd"/><text fill="#FFFFFF" font-family="Calibri,Calibri_MSFontService,sans-serif" font-weight="400" font-size="69" transform="matrix(1 0 0 1 3070.59 880)">rural<tspan font-size="69" x="-16.0417" y="83">raster</tspan></text><path d="M1211.5 1480.67C1211.5 1457.93 1229.93 1439.5 1252.67 1439.5L1665.33 1439.5C1688.07 1439.5 1706.5 1457.93 1706.5 1480.67L1706.5 1645.33C1706.5 1668.07 1688.07 1686.5 1665.33 1686.5L1252.67 1686.5C1229.93 1686.5 1211.5 1668.07 1211.5 1645.33Z" stroke="#BA8C00" stroke-width="4.58333" stroke-miterlimit="8" fill="#FFC000" fill-rule="evenodd"/><text font-family="Calibri,Calibri_MSFontService,sans-serif" font-weight="400" font-size="69" transform="matrix(1 0 0 1 1419.73 1544)">Fix <tspan font-size="69" x="-119.442" y="83">geometries</tspan></text><path d="M627.5 1480.67C627.5 1457.93 645.931 1439.5 668.667 1439.5L1081.33 1439.5C1104.07 1439.5 1122.5 1457.93 1122.5 1480.67L1122.5 1645.33C1122.5 1668.07 1104.07 1686.5 1081.33 1686.5L668.667 1686.5C645.931 1686.5 627.5 1668.07 627.5 1645.33Z" stroke="#BA8C00" stroke-width="4.58333" stroke-miterlimit="8" fill="#FFC000" fill-rule="evenodd"/><text font-family="Calibri,Calibri_MSFontService,sans-serif" font-weight="400" font-size="69" transform="matrix(1 0 0 1 757.288 1586)">r.to.vect</text><path d="M1795.5 1480.67C1795.5 1457.93 1813.93 1439.5 1836.67 1439.5L2249.33 1439.5C2272.07 1439.5 2290.5 1457.93 2290.5 1480.67L2290.5 1645.33C2290.5 1668.07 2272.07 1686.5 2249.33 1686.5L1836.67 1686.5C1813.93 1686.5 1795.5 1668.07 1795.5 1645.33Z" stroke="#BA8C00" stroke-width="4.58333" stroke-miterlimit="8" fill="#FFC000" fill-rule="evenodd"/><text font-family="Calibri,Calibri_MSFontService,sans-serif" font-weight="400" font-size="69" transform="matrix(1 0 0 1 1905.45 1586)">Subdivide</text><path d="M2378.5 1480.67C2378.5 1457.93 2396.93 1439.5 2419.67 1439.5L2832.33 1439.5C2855.07 1439.5 2873.5 1457.93 2873.5 1480.67L2873.5 1645.33C2873.5 1668.07 2855.07 1686.5 2832.33 1686.5L2419.67 1686.5C2396.93 1686.5 2378.5 1668.07 2378.5 1645.33Z" stroke="#BA8C00" stroke-width="4.58333" stroke-miterlimit="8" fill="#FFC000" fill-rule="evenodd"/><text font-family="Calibri,Calibri_MSFontService,sans-serif" font-weight="400" font-size="69" transform="matrix(1 0 0 1 2455.62 1544)">Multipart to <tspan font-size="69" x="18.0354" y="83">singleparts</tspan></text><path d="M3357.5 1115.5C3357.5 1060.82 3468.31 1016.5 3605 1016.5 3741.69 1016.5 3852.5 1060.82 3852.5 1115.5 3852.5 1170.18 3741.69 1214.5 3605 1214.5 3468.31 1214.5 3357.5 1170.18 3357.5 1115.5Z" stroke="#31538F" stroke-width="4.58333" stroke-miterlimit="8" fill="#4472C4" fill-rule="evenodd"/><text fill="#FFFFFF" font-family="Calibri,Calibri_MSFontService,sans-serif" font-weight="400" font-size="69" transform="matrix(1 0 0 1 3522.05 1097)">urban<tspan font-size="69" x="0" y="83">raster</tspan></text><path d="M1309 335.844 1502.69 335.844C1505.53 335.844 1507.84 338.152 1507.84 341L1507.84 454.681 1502.69 449.525 1675.76 449.525 1675.76 459.837 1502.69 459.837C1499.84 459.837 1497.53 457.529 1497.53 454.681L1497.53 341 1502.69 346.156 1309 346.156ZM1675.76 454.681 1665.44 439.212 1696.38 454.681 1665.44 470.15Z" fill="#44546A"/><path d="M0-5.15625 193.985-5.15625C196.833-5.15625 199.141-2.84772 199.141 0L199.141 113.681 193.985 108.525 367.298 108.525 367.298 118.837 193.985 118.837C191.137 118.837 188.829 116.529 188.829 113.681L188.829 0 193.985 5.15625 0 5.15625ZM367.298 113.681 356.986 98.2123 387.923 113.681 356.986 129.15Z" fill="#44546A" transform="matrix(1 -1.22465e-16 -1.22465e-16 -1 1309 568.681)"/><path d="M4164.68 1426.14C4180.55 1441.45 4209.23 1439.46 4234.42 1421.3L4228.2 1415.29 4253.77 1415.93 4253.1 1439.33 4246.87 1433.32C4221.68 1451.48 4193 1453.47 4177.13 1438.15Z" fill="#E7E6E6" fill-rule="evenodd"/><path d="M4190.41 1354.77C4167.18 1378.84 4159.3 1411.07 4171.68 1431.34 4148.03 1418.02 4147.24 1382.59 4169.92 1352.21 4172.38 1348.9 4175.07 1345.74 4177.96 1342.75Z" fill="#BAB9B9" fill-rule="evenodd"/><path d="M4164.68 1426.14C4180.55 1441.45 4209.23 1439.46 4234.42 1421.3L4228.2 1415.29 4253.77 1415.93 4253.1 1439.33 4246.87 1433.32C4221.68 1451.48 4193 1453.47 4177.13 1438.15L4164.68 1426.14C4145.46 1407.59 4151.41 1370.26 4177.96 1342.75L4190.41 1354.77C4167.18 1378.84 4159.3 1411.07 4171.68 1431.34" stroke="#44546A" stroke-width="3.4375" stroke-linejoin="round" stroke-miterlimit="10" fill="none" fill-rule="evenodd"/><path d="M0 105.344 17.324 86.4854 17.324 95.1474C43.4842 90.4354 63.3332 75.5462 68.1745 57.0033 74.683 81.9322 52.4935 106.137 17.324 112.471L17.324 121.133Z" fill="#E7E6E6" fill-rule="evenodd" transform="matrix(0.693702 -0.720262 -0.720262 -0.693702 4271.13 1420.97)"/><path d="M69.296 65.6652C69.296 38.967 38.2711 17.324-7.80867e-15 17.324L0 0C38.2711-7.80866e-15 69.296 21.6431 69.296 48.3412Z" fill="#BAB9B9" fill-rule="evenodd" transform="matrix(0.693702 -0.720262 -0.720262 -0.693702 4271.13 1420.97)"/><path d="M69.296 65.6652C69.296 38.967 38.2711 17.324-7.80867e-15 17.324L0 0C38.2711-7.80866e-15 69.296 21.6431 69.296 48.3412L69.296 65.6652C69.296 87.7087 47.9195 106.96 17.324 112.471L17.324 121.133 0 105.344 17.324 86.4854 17.324 95.1474C43.4842 90.4354 63.3332 75.5462 68.1745 57.0033" stroke="#44546A" stroke-width="3.4375" stroke-linejoin="round" stroke-miterlimit="10" fill="none" fill-rule="evenodd" transform="matrix(0.693702 -0.720262 -0.720262 -0.693702 4271.13 1420.97)"/><path d="M1185.5 1066.5C1185.5 1002.99 1309.96 951.5 1463.5 951.5 1617.04 951.5 1741.5 1002.99 1741.5 1066.5 1741.5 1130.01 1617.04 1181.5 1463.5 1181.5 1309.96 1181.5 1185.5 1130.01 1185.5 1066.5Z" stroke="#274E13" stroke-width="4.58333" stroke-miterlimit="8" fill="#70AD47" fill-rule="evenodd"/><text fill="#FFFFFF" font-family="Calibri,Calibri_MSFontService,sans-serif" font-weight="400" font-size="64" transform="matrix(1 0 0 1 1332.8 1010)">combined <tspan font-size="64" x="18.9063" y="77">raster of</tspan><tspan font-size="64" x="67.9021" y="154">rural</tspan></text><path d="M661.5 893.5C661.5 829.987 785.965 778.5 939.5 778.5 1093.04 778.5 1217.5 829.987 1217.5 893.5 1217.5 957.013 1093.04 1008.5 939.5 1008.5 785.965 1008.5 661.5 957.013 661.5 893.5Z" stroke="#274E13" stroke-width="4.58333" stroke-miterlimit="8" fill="#70AD47" fill-rule="evenodd"/><text fill="#FFFFFF" font-family="Calibri,Calibri_MSFontService,sans-serif" font-weight="400" font-size="64" transform="matrix(1 0 0 1 808.764 838)">combined <tspan font-size="64" x="18.9063" y="77">raster of</tspan><tspan font-size="64" x="52.7084" y="154">urban</tspan></text><path d="M3465.55 554 3465.55 898.616 3385 898.616" stroke="#5A3DAF" stroke-width="10.3125" stroke-linejoin="round" stroke-miterlimit="10" fill="none" fill-rule="evenodd"/><path d="M2889.16 898.766 2694.35 898.766 2694.35 800.905 2252 800.905 2252 856" stroke="#5A3DAF" stroke-width="10.3125" stroke-linejoin="round" stroke-miterlimit="10" fill="none" fill-rule="evenodd"/><path d="M0 0-85.9376 0-85.9376 379.501 37.6772 379.501 37.6772 511.457" stroke="#5A3DAF" stroke-width="10.3125" stroke-linejoin="round" stroke-miterlimit="10" fill="none" fill-rule="evenodd" transform="matrix(-6.12323e-17 -1 -1 6.12323e-17 2252.46 1103.68)"/><path d="M3357.16 1115.44 2928.6 1115.44 2928.6 980 2500 980" stroke="#FF9100" stroke-width="10.3125" stroke-linejoin="round" stroke-miterlimit="10" fill="none" fill-rule="evenodd"/><path d="M3754 455 3937.55 455 3937.55 1115 3851.66 1115" stroke="#FF9100" stroke-width="10.3125" stroke-linejoin="round" stroke-miterlimit="10" fill="none" fill-rule="evenodd"/><path d="M2005.08 979.614 1797.95 979.614 1797.95 893 1217 893" stroke="#FF9100" stroke-width="10.3125" stroke-linejoin="round" stroke-miterlimit="10" fill="none" fill-rule="evenodd"/><path d="M1185 1071.16 1094.67 1071.16 1099.83 1066 1099.83 1292.62 1094.67 1287.47 1750.48 1287.47C1753.33 1287.47 1755.64 1289.78 1755.64 1292.62L1755.64 1344.09 1745.33 1344.09 1745.33 1292.62 1750.48 1297.78 1094.67 1297.78C1091.82 1297.78 1089.51 1295.47 1089.51 1292.62L1089.51 1066C1089.51 1063.15 1091.82 1060.84 1094.67 1060.84L1185 1060.84ZM1750.48 1344.09 1765.95 1333.77 1750.48 1364.71 1735.01 1333.77Z" fill="#5A3DAF"/><path d="M0-5.15625 162.293-5.15625C165.14-5.15625 167.449-2.84772 167.449 0L167.449 669.419C167.449 672.267 165.14 674.576 162.293 674.576L97.8199 674.576 97.8199 664.263 162.293 664.263 157.136 669.419 157.136 0 162.293 5.15625 0 5.15625ZM97.8199 669.419 108.132 684.888 77.1949 669.419 108.132 653.951Z" fill="#FF9100" transform="matrix(-1 0 0 1 661.195 893)"/><path d="M1122 1557.84 1166.34 1557.84C1169.19 1557.84 1171.5 1560.15 1171.5 1563L1171.5 1563.22 1166.34 1558.06 1190.05 1558.06 1190.05 1568.37 1166.34 1568.37C1163.49 1568.37 1161.18 1566.06 1161.18 1563.22L1161.18 1563 1166.34 1568.16 1122 1568.16ZM1190.05 1563.22 1179.73 1547.75 1210.67 1563.22 1179.73 1578.69Z" fill="#44546A"/><path d="M1706 1557.84 1750.34 1557.84C1753.19 1557.84 1755.5 1560.15 1755.5 1563L1755.5 1563.22 1750.34 1558.06 1774.05 1558.06 1774.05 1568.37 1750.34 1568.37C1747.49 1568.37 1745.18 1566.06 1745.18 1563.22L1745.18 1563 1750.34 1568.16 1706 1568.16ZM1774.05 1563.22 1763.73 1547.75 1794.67 1563.22 1763.73 1578.69Z" fill="#44546A"/><path d="M2290 1557.84 2334.34 1557.84C2337.19 1557.84 2339.5 1560.15 2339.5 1563L2339.5 1563.22 2334.34 1558.06 2358.05 1558.06 2358.05 1568.37 2334.34 1568.37C2331.49 1568.37 2329.18 1566.06 2329.18 1563.22L2329.18 1563 2334.34 1568.16 2290 1568.16ZM2358.05 1563.22 2347.73 1547.75 2378.67 1563.22 2347.73 1578.69Z" fill="#44546A"/><path d="M2999.5 1480.67C2999.5 1457.93 3017.93 1439.5 3040.67 1439.5L3453.33 1439.5C3476.07 1439.5 3494.5 1457.93 3494.5 1480.67L3494.5 1645.33C3494.5 1668.07 3476.07 1686.5 3453.33 1686.5L3040.67 1686.5C3017.93 1686.5 2999.5 1668.07 2999.5 1645.33Z" stroke="#BA8C00" stroke-width="4.58333" stroke-miterlimit="8" fill="#FFC000" fill-rule="evenodd"/><text font-family="Calibri,Calibri_MSFontService,sans-serif" font-weight="400" font-size="69" transform="matrix(1 0 0 1 3121.21 1544)">Select by <tspan font-size="69" x="1.4209" y="83">attribute</tspan></text><path d="M3590.5 1480.67C3590.5 1457.93 3608.93 1439.5 3631.67 1439.5L4044.33 1439.5C4067.07 1439.5 4085.5 1457.93 4085.5 1480.67L4085.5 1645.33C4085.5 1668.07 4067.07 1686.5 4044.33 1686.5L3631.67 1686.5C3608.93 1686.5 3590.5 1668.07 3590.5 1645.33Z" stroke="#BA8C00" stroke-width="4.58333" stroke-miterlimit="8" fill="#FFC000" fill-rule="evenodd"/><text font-family="Calibri,Calibri_MSFontService,sans-serif" font-weight="400" font-size="69" transform="matrix(1 0 0 1 3706.45 1503)">Eliminate <tspan font-size="69" x="14.3228" y="83">selected </tspan><tspan font-size="69" x="6.302" y="166">polygons</tspan></text><path d="M1895.5 1977.67C1895.5 1954.93 1913.93 1936.5 1936.67 1936.5L2349.33 1936.5C2372.07 1936.5 2390.5 1954.93 2390.5 1977.67L2390.5 2142.33C2390.5 2165.07 2372.07 2183.5 2349.33 2183.5L1936.67 2183.5C1913.93 2183.5 1895.5 2165.07 1895.5 2142.33Z" stroke="#BA8C00" stroke-width="4.58333" stroke-miterlimit="8" fill="#FFC000" fill-rule="evenodd"/><text font-family="Calibri,Calibri_MSFontService,sans-serif" font-weight="400" font-size="69" transform="matrix(1 0 0 1 1953.95 2041)">Merge vector <tspan font-size="69" x="105.99" y="83">layers</tspan></text><path d="M3450.5 2153.5C3450.5 2089.99 3574.96 2038.5 3728.5 2038.5 3882.03 2038.5 4006.5 2089.99 4006.5 2153.5 4006.5 2217.01 3882.03 2268.5 3728.5 2268.5 3574.96 2268.5 3450.5 2217.01 3450.5 2153.5Z" stroke="#274E13" stroke-width="4.58333" stroke-miterlimit="8" fill="#70AD47" fill-rule="evenodd"/><text fill="#FFFFFF" font-family="Calibri,Calibri_MSFontService,sans-serif" font-weight="400" font-size="64" transform="matrix(1 0 0 1 3597.59 2174)">rural IDUs</text><path d="M2749.5 1977.5C2749.5 1913.99 2873.97 1862.5 3027.5 1862.5 3181.04 1862.5 3305.5 1913.99 3305.5 1977.5 3305.5 2041.01 3181.04 2092.5 3027.5 2092.5 2873.97 2092.5 2749.5 2041.01 2749.5 1977.5Z" stroke="#274E13" stroke-width="4.58333" stroke-miterlimit="8" fill="#70AD47" fill-rule="evenodd"/><text fill="#FFFFFF" font-family="Calibri,Calibri_MSFontService,sans-serif" font-weight="400" font-size="64" transform="matrix(1 0 0 1 2881.16 1998)">urban IDUs</text><path d="M818.5 2060C818.5 1996.21 942.965 1944.5 1096.5 1944.5 1250.04 1944.5 1374.5 1996.21 1374.5 2060 1374.5 2123.79 1250.04 2175.5 1096.5 2175.5 942.965 2175.5 818.5 2123.79 818.5 2060Z" stroke="#274E13" stroke-width="4.58333" stroke-miterlimit="8" fill="#70AD47" fill-rule="evenodd"/><text fill="#FFFFFF" font-family="Calibri,Calibri_MSFontService,sans-serif" font-weight="400" font-size="64" transform="matrix(1 0 0 1 970.559 2081)">final IDUs</text><path d="M3494 1557.84 3542.12 1557.84C3544.97 1557.84 3547.28 1560.15 3547.28 1563L3547.28 1563.22 3542.12 1558.06 3569.62 1558.06 3569.62 1568.37 3542.12 1568.37C3539.28 1568.37 3536.97 1566.06 3536.97 1563.22L3536.97 1563 3542.12 1568.16 3494 1568.16ZM3569.62 1563.22 3559.31 1547.75 3590.25 1563.22 3559.31 1578.69Z" fill="#44546A"/><path d="M2873 1557.84 2935.95 1557.84C2938.8 1557.84 2941.11 1560.15 2941.11 1563L2941.11 1563.22 2935.95 1558.06 2978.29 1558.06 2978.29 1568.37 2935.95 1568.37C2933.11 1568.37 2930.8 1566.06 2930.8 1563.22L2930.8 1563 2935.95 1568.16 2873 1568.16ZM2978.29 1563.22 2967.98 1547.75 2998.92 1563.22 2967.98 1578.69Z" fill="#44546A"/><path d="M0 5.15625-85.9377 5.15625-80.7814 0-80.7814 779.88-85.9377 774.723 198.022 774.723 192.865 779.88 192.865 612.308 203.178 612.308 203.178 779.88C203.178 782.727 200.869 785.036 198.022 785.036L-85.9377 785.036C-88.7854 785.036-91.0939 782.727-91.0939 779.88L-91.0939 0C-91.0939-2.84772-88.7854-5.15625-85.9377-5.15625L0-5.15625ZM198.022 612.308 182.553 622.621 198.022 591.683 213.49 622.621Z" fill="#44546A" transform="matrix(1.83697e-16 1 1 -1.83697e-16 3541 1365)"/><path d="M3546.4 1761 3546.4 1977.21C3546.4 1980.06 3544.09 1982.37 3541.24 1982.37L3325.62 1982.37 3325.62 1972.05 3541.24 1972.05 3536.08 1977.21 3536.08 1761ZM3325.62 1977.21 3335.94 1992.68 3305 1977.21 3335.94 1961.74Z" fill="#FF9100"/><path d="M0-5.15625 138.47-5.15625C141.317-5.15625 143.626-2.84772 143.626 0L143.626 550.893 138.47 545.737 392.254 545.737 387.098 550.893 387.098 485.635 397.41 485.635 397.41 550.893C397.41 553.74 395.102 556.049 392.254 556.049L138.47 556.049C135.622 556.049 133.313 553.74 133.313 550.893L133.313 0 138.47 5.15625 0 5.15625ZM392.254 485.635 376.785 495.947 392.254 465.01 407.723 495.947Z" fill="#5A3DAF" transform="matrix(1.83697e-16 1 1 -1.83697e-16 3541 1761)"/><path d="M2748.19 1982.41 2568.86 1982.41C2566.01 1982.41 2563.71 1980.1 2563.71 1977.25L2563.71 1850.06 2568.86 1855.22 2142 1855.22 2147.16 1850.06 2147.16 1915.38 2136.84 1915.38 2136.84 1850.06C2136.84 1847.21 2139.15 1844.91 2142 1844.91L2568.86 1844.91C2571.71 1844.91 2574.02 1847.21 2574.02 1850.06L2574.02 1977.25 2568.86 1972.09 2748.19 1972.09ZM2142 1915.38 2157.47 1905.06 2142 1936 2126.53 1905.06Z" fill="#44546A"/><path d="M0-5.15625 529.958-5.15625C532.806-5.15625 535.115-2.84772 535.115 0L535.115 116.156 529.958 110.999 1307.44 110.999 1302.28 116.156 1302.28 50.8317 1312.6 50.8317 1312.6 116.156C1312.6 119.003 1310.29 121.312 1307.44 121.312L529.958 121.312C527.111 121.312 524.802 119.003 524.802 116.156L524.802 0 529.958 5.15625 0 5.15625ZM1307.44 50.8317 1291.97 61.1442 1307.44 30.2067 1322.91 61.1442Z" fill="#44546A" transform="matrix(-1 0 0 1 3449.44 2153)"/><path d="M0-5.15625 260.557-5.15625C263.404-5.15625 265.713-2.84772 265.713 0L265.713 0.216535 260.557-4.93971 500.468-4.93971 500.468 5.37279 260.557 5.37279C257.709 5.37279 255.4 3.06425 255.4 0.216535L255.4 0 260.557 5.15625 0 5.15625ZM500.468 0.216535 490.155-15.2522 521.093 0.216535 490.155 15.6853Z" fill="#44546A" transform="matrix(-1 0 0 1 1895.09 2059)"/></g></svg>