<svg width="4020" height="1989" xmlns="http://www.w3.org/2000/svg" xmlns:xlink="http://www.w3.org/1999/xlink" overflow="hidden"><defs><clipPath id="clip0"><rect x="267" y="218" width="4020" height="1989"/></clipPath></defs><g clip-path="url(#clip0)" transform="translate(-267 -218)"><rect x="268.5" y="446.5" width="978" height="1759" stroke="#44546A" stroke-width="3.4375" stroke-linejoin="round" stroke-miterlimit="10" fill="#E7E6E6"/><rect x="268.5" y="219.5" width="978" height="227" stroke="#000000" stroke-width="3.4375" stroke-linejoin="round" stroke-miterlimit="10" fill="#FFFFFF"/><text font-family="Calibri,Calibri_MSFontService,sans-serif" font-weight="700" font-size="64" transform="matrix(1 0 0 1 450.644 354)">Identify Urban Clusters</text><rect x="1281.5" y="446.5" width="978" height="1759" stroke="#44546A" stroke-width="3.4375" stroke-linejoin="round" stroke-miterlimit="10" fill="#D9D2E9"/><path d="M489.5 1243.67C489.5 1220.93 507.931 1202.5 530.667 1202.5L943.333 1202.5C966.069 1202.5 984.5 1220.93 984.5 1243.67L984.5 1408.33C984.5 1431.07 966.069 1449.5 943.333 1449.5L530.667 1449.5C507.931 1449.5 489.5 1431.07 489.5 1408.33Z" stroke="#BA8C00" stroke-width="4.58333" stroke-miterlimit="8" fill="#FFC000" fill-rule="evenodd"/><text font-family="Calibri,Calibri_MSFontService,sans-serif" font-weight="400" font-size="69" transform="matrix(1 0 0 1 597.78 1307)">Extract by <tspan font-size="69" x="14.8958" y="83">attribute</tspan></text><rect x="1281.5" y="222.5" width="978" height="224" stroke="#000000" stroke-width="3.4375" stroke-linejoin="round" stroke-miterlimit="10" fill="#FFFFFF"/><text font-family="Calibri,Calibri_MSFontService,sans-serif" font-weight="700" font-size="64" transform="matrix(1 0 0 1 1325.05 355)">Measure Distance to Each Cluster</text><path d="M489.5 1593.67C489.5 1570.93 507.931 1552.5 530.667 1552.5L943.333 1552.5C966.069 1552.5 984.5 1570.93 984.5 1593.67L984.5 1758.33C984.5 1781.07 966.069 1799.5 943.333 1799.5L530.667 1799.5C507.931 1799.5 489.5 1781.07 489.5 1758.33Z" stroke="#BA8C00" stroke-width="4.58333" stroke-miterlimit="8" fill="#FFC000" fill-rule="evenodd"/><text font-family="Calibri,Calibri_MSFontService,sans-serif" font-weight="400" font-size="69" transform="matrix(1 0 0 1 620.983 1657)">DBSCAN <tspan font-size="69" x="-21.1979" y="83">clustering</tspan></text><path d="M448.5 2026.5C448.5 1958.02 577.666 1902.5 737 1902.5 896.334 1902.5 1025.5 1958.02 1025.5 2026.5 1025.5 2094.98 896.334 2150.5 737 2150.5 577.666 2150.5 448.5 2094.98 448.5 2026.5Z" stroke="#274E13" stroke-width="4.58333" stroke-miterlimit="8" fill="#70AD47" fill-rule="evenodd"/><text fill="#FFFFFF" font-family="Calibri,Calibri_MSFontService,sans-serif" font-weight="400" font-size="69" transform="matrix(1 0 0 1 654.212 2007)">urban <tspan font-size="69" x="-25.7813" y="83">clusters</tspan></text><path d="M742.156 1799 742.157 1881.12 731.844 1881.12 731.844 1799ZM737 1881.12 752.469 1870.81 737 1901.75 721.531 1870.81Z" fill="#44546A"/><path d="M742.156 1449 742.157 1531.12 731.844 1531.12 731.844 1449ZM737 1531.12 752.469 1520.81 737 1551.75 721.531 1520.81Z" fill="#44546A"/><rect x="2294.5" y="446.5" width="978" height="1759" stroke="#44546A" stroke-width="3.4375" stroke-linejoin="round" stroke-miterlimit="10" fill="#EAD1DC"/><rect x="2294.5" y="222.5" width="978" height="227" stroke="#000000" stroke-width="3.4375" stroke-linejoin="round" stroke-miterlimit="10" fill="#FFFFFF"/><text font-family="Calibri,Calibri_MSFontService,sans-serif" font-weight="700" font-size="64" transform="matrix(1 0 0 1 2328.36 357)">Aggregate Inverse Distance Raster </text><path d="M1358.5 639.667C1358.5 616.931 1376.93 598.5 1399.67 598.5L1812.33 598.5C1835.07 598.5 1853.5 616.931 1853.5 639.667L1853.5 804.332C1853.5 827.068 1835.07 845.5 1812.33 845.5L1399.67 845.5C1376.93 845.5 1358.5 827.068 1358.5 804.332Z" stroke="#BA8C00" stroke-width="4.58333" stroke-miterlimit="8" fill="#FFC000" fill-rule="evenodd"/><text font-family="Calibri,Calibri_MSFontService,sans-serif" font-weight="400" font-size="69" transform="matrix(1 0 0 1 1466.31 703)">Extract by <tspan font-size="69" x="14.8958" y="83">attribute</tspan></text><path d="M2036.5 1330 2391 1132.5 2745.5 1330 2391 1527.5Z" stroke="#660000" stroke-width="3.4375" stroke-linejoin="round" stroke-miterlimit="10" fill="#E06666" fill-rule="evenodd"/><text fill="#FFFFFF" font-family="Arial,Arial_MSFontService,sans-serif" font-weight="400" font-size="55" transform="matrix(1 0 0 1 2260.88 1316)">all clusters <tspan font-size="55" x="-12.0313" y="66">processed?</tspan><tspan fill="#000000" font-family="Calibri,Calibri_MSFontService,sans-serif" font-weight="700" font-size="83" x="69.4177" y="419">yes</tspan></text><path d="M1358.5 1177.83C1358.5 1155.01 1377.01 1136.5 1399.83 1136.5L1812.17 1136.5C1834.99 1136.5 1853.5 1155.01 1853.5 1177.83L1853.5 1343.17C1853.5 1365.99 1834.99 1384.5 1812.17 1384.5L1399.83 1384.5C1377.01 1384.5 1358.5 1365.99 1358.5 1343.17Z" stroke="#BA8C00" stroke-width="4.58333" stroke-miterlimit="8" fill="#FFC000" fill-rule="evenodd"/><text font-family="Calibri,Calibri_MSFontService,sans-serif" font-weight="400" font-size="69" transform="matrix(1 0 0 1 1477.48 1284)">Rasterize</text><path d="M2704.5 1512.67C2704.5 1489.93 2722.93 1471.5 2745.67 1471.5L3158.33 1471.5C3181.07 1471.5 3199.5 1489.93 3199.5 1512.67L3199.5 1677.33C3199.5 1700.07 3181.07 1718.5 3158.33 1718.5L2745.67 1718.5C2722.93 1718.5 2704.5 1700.07 2704.5 1677.33Z" stroke="#BA8C00" stroke-width="4.58333" stroke-miterlimit="8" fill="#FFC000" fill-rule="evenodd"/><text font-family="Calibri,Calibri_MSFontService,sans-serif" font-weight="400" font-size="69" transform="matrix(1 0 0 1 2862.67 1576)">Raster <tspan font-size="69" x="-48.3999" y="83">calculator</tspan></text><path d="M1358.5 1716.83C1358.5 1694.01 1377.01 1675.5 1399.83 1675.5L1812.17 1675.5C1834.99 1675.5 1853.5 1694.01 1853.5 1716.83L1853.5 1882.17C1853.5 1904.99 1834.99 1923.5 1812.17 1923.5L1399.83 1923.5C1377.01 1923.5 1358.5 1904.99 1358.5 1882.17Z" stroke="#BA8C00" stroke-width="4.58333" stroke-miterlimit="8" fill="#FFC000" fill-rule="evenodd"/><text font-family="Calibri,Calibri_MSFontService,sans-serif" font-weight="400" font-size="69" transform="matrix(1 0 0 1 1472.04 1823)">Proximity</text><path d="M1610.16 845 1610.16 1110.57 1599.84 1110.57 1599.84 845ZM1620.47 1105.41 1605 1136.35 1589.53 1105.41Z" fill="#44546A"/><path d="M1610.16 1384 1610.16 1649.57 1599.84 1649.57 1599.84 1384ZM1620.47 1644.41 1605 1675.35 1589.53 1644.41Z" fill="#44546A"/><text font-family="Calibri,Calibri_MSFontService,sans-serif" font-weight="700" font-size="83" transform="matrix(1 0 0 1 2346.24 978)">no</text><path d="M0-5.15625 146.27-5.15625C149.117-5.15625 151.426-2.84772 151.426 0L151.426 517.033 141.113 517.033 141.113 0 146.27 5.15625 0 5.15625ZM146.27 517.032 161.738 506.72 146.27 537.657 130.801 506.72Z" fill="#44546A" transform="matrix(-6.12323e-17 -1 -1 6.12323e-17 2390.66 867.27)"/><path d="M447.5 625.5C447.5 557.017 577.114 501.5 737 501.5 896.886 501.5 1026.5 557.017 1026.5 625.5 1026.5 693.983 896.886 749.5 737 749.5 577.114 749.5 447.5 693.983 447.5 625.5Z" stroke="#31538F" stroke-width="4.58333" stroke-miterlimit="8" fill="#4472C4" fill-rule="evenodd"/><text fill="#FFFFFF" font-family="Calibri,Calibri_MSFontService,sans-serif" font-weight="400" font-size="69" transform="matrix(1 0 0 1 591.191 606)">land cover <tspan font-size="69" x="-13.75" y="83">raster layer</tspan></text><path d="M2662.5 995.5C2662.5 927.017 2792.11 871.5 2952 871.5 3111.89 871.5 3241.5 927.017 3241.5 995.5 3241.5 1063.98 3111.89 1119.5 2952 1119.5 2792.11 1119.5 2662.5 1063.98 2662.5 995.5Z" stroke="#274E13" stroke-width="4.58333" stroke-miterlimit="8" fill="#70AD47" fill-rule="evenodd"/><text fill="#FFFFFF" font-family="Calibri,Calibri_MSFontService,sans-serif" font-weight="400" font-size="69" transform="matrix(1 0 0 1 2821.15 976)">weighted <tspan font-size="69" x="48.125" y="83">raster</tspan></text><path d="M0-5.15625 166.14-5.15625C168.987-5.15625 171.296-2.84772 171.296 0L171.296 1304.52 166.14 1299.36 311.649 1299.36 311.649 1309.67 166.14 1309.67C163.292 1309.67 160.983 1307.37 160.983 1304.52L160.983 0 166.14 5.15625 0 5.15625ZM311.649 1304.52 301.336 1289.05 332.274 1304.52 301.336 1319.99Z" fill="#44546A" transform="matrix(1 -1.22465e-16 -1.22465e-16 -1 1025 2025.52)"/><rect x="3307.5" y="446.5" width="978" height="1759" stroke="#44546A" stroke-width="3.4375" stroke-linejoin="round" stroke-miterlimit="10" fill="#FFF2CC"/><rect x="3307.5" y="219.5" width="978" height="227" stroke="#000000" stroke-width="3.4375" stroke-linejoin="round" stroke-miterlimit="10" fill="#FFFFFF"/><text font-family="Calibri,Calibri_MSFontService,sans-serif" font-weight="700" font-size="64" transform="matrix(1 0 0 1 3482.09 354)">Define Urban Boundary</text><path d="M3541.5 912.834C3541.5 890.006 3560.01 871.5 3582.83 871.5L3995.17 871.5C4017.99 871.5 4036.5 890.006 4036.5 912.834L4036.5 1078.17C4036.5 1100.99 4017.99 1119.5 3995.17 1119.5L3582.83 1119.5C3560.01 1119.5 3541.5 1100.99 3541.5 1078.17Z" stroke="#BA8C00" stroke-width="4.58333" stroke-miterlimit="8" fill="#FFC000" fill-rule="evenodd"/><text font-family="Calibri,Calibri_MSFontService,sans-serif" font-weight="400" font-size="69" transform="matrix(1 0 0 1 3611.15 976)">Reclassify by <tspan font-size="69" x="105.99" y="83">table</tspan></text><path d="M3375.5 1820C3375.5 1757.87 3469.74 1707.5 3586 1707.5 3702.26 1707.5 3796.5 1757.87 3796.5 1820 3796.5 1882.13 3702.26 1932.5 3586 1932.5 3469.74 1932.5 3375.5 1882.13 3375.5 1820Z" stroke="#274E13" stroke-width="4.58333" stroke-miterlimit="8" fill="#70AD47" fill-rule="evenodd"/><text fill="#FFFFFF" font-family="Calibri,Calibri_MSFontService,sans-serif" font-weight="400" font-size="69" transform="matrix(1 0 0 1 3503.02 1801)">urban <tspan font-size="69" x="0" y="83">raster</tspan></text><path d="M3821.5 1595C3821.5 1532.87 3915.74 1482.5 4032 1482.5 4148.26 1482.5 4242.5 1532.87 4242.5 1595 4242.5 1657.13 4148.26 1707.5 4032 1707.5 3915.74 1707.5 3821.5 1657.13 3821.5 1595Z" stroke="#274E13" stroke-width="4.58333" stroke-miterlimit="8" fill="#70AD47" fill-rule="evenodd"/><text fill="#FFFFFF" font-family="Calibri,Calibri_MSFontService,sans-serif" font-weight="400" font-size="69" transform="matrix(1 0 0 1 3964.96 1576)">rural <tspan font-size="69" x="-16.0417" y="83">raster</tspan></text><path d="M0-5.15625 141.628-5.15625C144.476-5.15625 146.784-2.84772 146.784 0L146.784 243.278 141.628 238.121 343.046 238.121 343.046 248.434 141.628 248.434C138.78 248.434 136.472 246.125 136.472 243.278L136.472 0 141.628 5.15625 0 5.15625ZM343.046 243.278 332.734 227.809 363.671 243.278 332.734 258.746Z" fill="#44546A" transform="matrix(1.83697e-16 1 1 -1.83697e-16 3788 1119)"/><path d="M3793.83 1119 3793.83 1413.34C3793.83 1416.19 3791.52 1418.5 3788.68 1418.5L3586 1418.5 3591.16 1413.34 3591.16 1687.03 3580.84 1687.03 3580.84 1413.34C3580.84 1410.5 3583.15 1408.19 3586 1408.19L3788.68 1408.19 3783.52 1413.34 3783.52 1119ZM3586 1687.03 3601.47 1676.71 3586 1707.65 3570.53 1676.71Z" fill="#44546A"/><path d="M3241 989.844 3390.78 989.844C3393.63 989.844 3395.94 992.152 3395.94 995L3395.94 995.217 3390.78 990.06 3519.95 990.06 3519.95 1000.37 3390.78 1000.37C3387.93 1000.37 3385.63 998.064 3385.63 995.217L3385.63 995 3390.78 1000.16 3241 1000.16ZM3519.95 995.217 3509.64 979.748 3540.58 995.217 3509.64 1010.69Z" fill="#44546A"/><path d="M0-5.15625 51.3709-5.15625C54.2186-5.15625 56.5271-2.84772 56.5271 0L56.5271 0.216535 51.3709-4.93971 82.1211-4.93971 82.1211 5.37279 51.3709 5.37279C48.5231 5.37279 46.2146 3.06425 46.2146 0.216535L46.2146 0 51.3709 5.15625 0 5.15625ZM82.1211 0.216535 71.8086-15.2522 102.746 0.216535 71.8086 15.6853Z" fill="#44546A" transform="matrix(1.83697e-16 1 1 -1.83697e-16 737 749)"/><path d="M2390 1131.33 2390 1082.65 2390.22 1082.65 2390.22 1034" stroke="#44546A" stroke-width="10.3125" stroke-linejoin="round" stroke-miterlimit="10" fill="none" fill-rule="evenodd"/><path d="M0-5.15625 91.4375-5.15625C94.2852-5.15625 96.5937-2.84772 96.5937 0L96.5937 469.557 91.4375 464.401 162.239 464.401 162.239 474.713 91.4375 474.713C88.5898 474.713 86.2812 472.405 86.2812 469.557L86.2812 0 91.4375 5.15625 0 5.15625ZM162.239 469.557 151.927 454.088 182.864 469.557 151.927 485.026Z" fill="#44546A" transform="matrix(1 -1.22465e-16 -1.22465e-16 -1 1853 1799.56)"/><path d="M0 0 48.6819 0 48.6819 0.216535 97.3327 0.216535" stroke="#44546A" stroke-width="10.3125" stroke-linejoin="round" stroke-miterlimit="10" fill="none" fill-rule="evenodd" transform="matrix(1.83697e-16 1 1 -1.83697e-16 2390 1527)"/><path d="M2395.16 1791.19 2395.16 2013.64 2390 2008.48 2951.37 2008.48 2946.21 2013.64 2946.21 1738.63 2956.52 1738.63 2956.52 2013.64C2956.52 2016.49 2954.22 2018.8 2951.37 2018.8L2390 2018.8C2387.15 2018.8 2384.84 2016.49 2384.84 2013.64L2384.84 1791.19ZM2951.37 1738.63 2935.9 1748.94 2951.37 1718 2966.84 1748.94Z" fill="#44546A"/><path d="M2946.84 1471.09 2946.84 1295.05C2946.84 1292.2 2949.15 1289.89 2952 1289.89L2952.22 1289.89 2947.06 1295.05 2947.06 1139.62 2957.37 1139.62 2957.37 1295.05C2957.37 1297.89 2955.06 1300.2 2952.22 1300.2L2952 1300.2 2957.16 1295.05 2957.16 1471.09ZM2952.22 1139.62 2936.75 1149.94 2952.22 1119 2967.69 1149.94Z" fill="#44546A"/><path d="M489.5 892.834C489.5 870.006 508.006 851.5 530.834 851.5L943.166 851.5C965.994 851.5 984.5 870.006 984.5 892.834L984.5 1058.17C984.5 1080.99 965.994 1099.5 943.166 1099.5L530.834 1099.5C508.006 1099.5 489.5 1080.99 489.5 1058.17Z" stroke="#BA8C00" stroke-width="4.58333" stroke-miterlimit="8" fill="#FFC000" fill-rule="evenodd"/><text font-family="Calibri,Calibri_MSFontService,sans-serif" font-weight="400" font-size="69" transform="matrix(1 0 0 1 560.254 957)">Raster pixels <tspan font-size="69" x="52.1354" y="83">to points</tspan></text><path d="M0-5.15625 51.3709-5.15625C54.2186-5.15625 56.5271-2.84772 56.5271 0L56.5271 0.216535 51.3709-4.93971 82.1211-4.93971 82.1211 5.37279 51.3709 5.37279C48.5231 5.37279 46.2146 3.06425 46.2146 0.216535L46.2146 0 51.3709 5.15625 0 5.15625ZM82.1211 0.216535 71.8086-15.2522 102.746 0.216535 71.8086 15.6853Z" fill="#44546A" transform="matrix(1.83697e-16 1 1 -1.83697e-16 737 1099)"/></g></svg>