<svg width="4264" height="2113" xmlns="http://www.w3.org/2000/svg" xmlns:xlink="http://www.w3.org/1999/xlink" overflow="hidden"><defs><clipPath id="clip0"><rect x="62" y="207" width="4264" height="2113"/></clipPath></defs><g clip-path="url(#clip0)" transform="translate(-62 -207)"><rect x="454.5" y="1823.5" width="3863" height="495" stroke="#44546A" stroke-width="3.4375" stroke-linejoin="round" stroke-miterlimit="10" fill="#D0E0E3"/><rect x="65.5002" y="208.5" width="389" height="495" stroke="#000000" stroke-width="3.4375" stroke-linejoin="round" stroke-miterlimit="10" fill="#FFFFFF"/><text font-family="Calibri,Calibri_MSFontService,sans-serif" font-weight="700" font-size="64" transform="matrix(1 0 0 1 156.413 400)">Overlay <tspan font-size="64" x="32.0833" y="77">Input </tspan><tspan font-size="64" x="5.15625" y="154">Rasters</tspan></text><rect x="65.5002" y="746.5" width="389" height="495" stroke="#000000" stroke-width="3.4375" stroke-linejoin="round" stroke-miterlimit="10" fill="#FFFFFF"/><text font-family="Calibri,Calibri_MSFontService,sans-serif" font-weight="700" font-size="64" transform="matrix(1 0 0 1 141.231 900)">Separate <tspan font-size="64" x="-9.16666" y="77">Rural and </tspan><tspan font-size="64" x="36.0938" y="154">Urban </tspan><tspan font-size="64" x="42.9688" y="231">Areas</tspan></text><rect x="65.5002" y="1284.5" width="389" height="495" stroke="#000000" stroke-width="3.4375" stroke-linejoin="round" stroke-miterlimit="10" fill="#FFFFFF"/><text font-family="Calibri,Calibri_MSFontService,sans-serif" font-weight="700" font-size="64" transform="matrix(1 0 0 1 158.705 1476)">Process <tspan font-size="64" x="-57.2917" y="77">Vector Data </tspan><tspan font-size="64" x="-34.9479" y="154">(iteration)</tspan></text><rect x="65.5002" y="1823.5" width="389" height="495" stroke="#000000" stroke-width="3.4375" stroke-linejoin="round" stroke-miterlimit="10" fill="#FFFFFF"/><text font-family="Calibri,Calibri_MSFontService,sans-serif" font-weight="700" font-size="64" transform="matrix(1 0 0 1 173.039 2053)">Merge <tspan font-size="64" x="-9.46459" y="77">Results</tspan></text><rect x="454.5" y="746.5" width="3863" height="495" stroke="#44546A" stroke-width="3.4375" stroke-linejoin="round" stroke-miterlimit="10" fill="#D9D2E9"/><rect x="454.5" y="208.5" width="3863" height="495" stroke="#44546A" stroke-width="3.4375" stroke-linejoin="round" stroke-miterlimit="10" fill="#E7E6E6"/><rect x="584.5" y="1365.5" width="2333" height="396" stroke="#44546A" stroke-width="3.4375" stroke-linejoin="round" stroke-miterlimit="10" fill="#EAD1DC"/><rect x="2949.5" y="1365.5" width="1184" height="396" stroke="#44546A" stroke-width="3.4375" stroke-linejoin="round" stroke-miterlimit="10" fill="#FFF2CC"/><path d="M730.5 341.5C730.5 286.824 860.113 242.5 1020 242.5 1179.89 242.5 1309.5 286.824 1309.5 341.5 1309.5 396.176 1179.89 440.5 1020 440.5 860.113 440.5 730.5 396.176 730.5 341.5Z" stroke="#31538F" stroke-width="4.58333" stroke-miterlimit="8" fill="#4472C4" fill-rule="evenodd"/><text fill="#FFFFFF" font-family="Calibri,Calibri_MSFontService,sans-serif" font-weight="400" font-size="69" transform="matrix(1 0 0 1 874.244 323)">land cover <tspan font-size="69" x="63.0208" y="83">raster</tspan></text><path d="M731.5 569.5C731.5 514.824 860.89 470.5 1020.5 470.5 1180.11 470.5 1309.5 514.824 1309.5 569.5 1309.5 624.176 1180.11 668.5 1020.5 668.5 860.89 668.5 731.5 624.176 731.5 569.5Z" stroke="#31538F" stroke-width="4.58333" stroke-miterlimit="8" fill="#4472C4" fill-rule="evenodd"/><text fill="#FFFFFF" font-family="Calibri,Calibri_MSFontService,sans-serif" font-weight="400" font-size="69" transform="matrix(1 0 0 1 897.733 550)">drainage <tspan font-size="69" x="39.5313" y="83">raster</tspan></text><path d="M1696.5 372.834C1696.5 350.006 1715.01 331.5 1737.83 331.5L2150.17 331.5C2172.99 331.5 2191.5 350.006 2191.5 372.834L2191.5 538.166C2191.5 560.994 2172.99 579.5 2150.17 579.5L1737.83 579.5C1715.01 579.5 1696.5 560.994 1696.5 538.166Z" stroke="#BA8C00" stroke-width="4.58333" stroke-miterlimit="8" fill="#FFC000" fill-rule="evenodd"/><text font-family="Calibri,Calibri_MSFontService,sans-serif" font-weight="400" font-size="69" transform="matrix(1 0 0 1 1766.95 437)">Reclassify by <tspan font-size="69" x="105.99" y="83">table</tspan></text><path d="M2436.5 372.834C2436.5 350.006 2455.01 331.5 2477.83 331.5L2890.17 331.5C2912.99 331.5 2931.5 350.006 2931.5 372.834L2931.5 538.166C2931.5 560.994 2912.99 579.5 2890.17 579.5L2477.83 579.5C2455.01 579.5 2436.5 560.994 2436.5 538.166Z" stroke="#BA8C00" stroke-width="4.58333" stroke-miterlimit="8" fill="#FFC000" fill-rule="evenodd"/><text font-family="Calibri,Calibri_MSFontService,sans-serif" font-weight="400" font-size="69" transform="matrix(1 0 0 1 2594.51 437)">Raster <tspan font-size="69" x="-48.3999" y="83">calculator</tspan></text><path d="M3231.5 455.5C3231.5 400.824 3360.89 356.5 3520.5 356.5 3680.11 356.5 3809.5 400.824 3809.5 455.5 3809.5 510.176 3680.11 554.5 3520.5 554.5 3360.89 554.5 3231.5 510.176 3231.5 455.5Z" stroke="#38761D" stroke-width="4.58333" stroke-miterlimit="8" fill="#70AD47" fill-rule="evenodd"/><text fill="#FFFFFF" font-family="Calibri,Calibri_MSFontService,sans-serif" font-weight="400" font-size="69" transform="matrix(1 0 0 1 3380.58 437)">combined <tspan font-size="69" x="56.9937" y="83">raster</tspan></text><path d="M2191 449.844 2415.06 449.844 2415.06 460.157 2191 460.156ZM2415.06 455 2404.75 439.532 2435.69 455 2404.75 470.469Z" fill="#44546A"/><path d="M2931 449.844 3210.06 449.844 3210.06 460.157 2931 460.156ZM3210.06 455 3199.75 439.532 3230.69 455 3199.75 470.469Z" fill="#44546A"/><path d="M2548.5 886.835C2548.5 864.006 2567.01 845.5 2589.83 845.5L3002.17 845.5C3024.99 845.5 3043.5 864.006 3043.5 886.835L3043.5 1052.17C3043.5 1074.99 3024.99 1093.5 3002.17 1093.5L2589.83 1093.5C2567.01 1093.5 2548.5 1074.99 2548.5 1052.17Z" stroke="#BA8C00" stroke-width="4.58333" stroke-miterlimit="8" fill="#FFC000" fill-rule="evenodd"/><text font-family="Calibri,Calibri_MSFontService,sans-serif" font-weight="400" font-size="69" transform="matrix(1 0 0 1 2706.25 951)">Raster <tspan font-size="69" x="-48.3999" y="83">calculator</tspan></text><path d="M3273.5 871.5C3273.5 816.824 3384.31 772.5 3521 772.5 3657.69 772.5 3768.5 816.824 3768.5 871.5 3768.5 926.176 3657.69 970.5 3521 970.5 3384.31 970.5 3273.5 926.176 3273.5 871.5Z" stroke="#31538F" stroke-width="4.58333" stroke-miterlimit="8" fill="#4472C4" fill-rule="evenodd"/><text fill="#FFFFFF" font-family="Calibri,Calibri_MSFontService,sans-serif" font-weight="400" font-size="69" transform="matrix(1 0 0 1 3453.63 853)">rural<tspan font-size="69" x="4.58325" y="83">area</tspan></text><path d="M1211.5 1480.67C1211.5 1457.93 1229.93 1439.5 1252.67 1439.5L1665.33 1439.5C1688.07 1439.5 1706.5 1457.93 1706.5 1480.67L1706.5 1645.33C1706.5 1668.07 1688.07 1686.5 1665.33 1686.5L1252.67 1686.5C1229.93 1686.5 1211.5 1668.07 1211.5 1645.33Z" stroke="#BA8C00" stroke-width="4.58333" stroke-miterlimit="8" fill="#FFC000" fill-rule="evenodd"/><text font-family="Calibri,Calibri_MSFontService,sans-serif" font-weight="400" font-size="69" transform="matrix(1 0 0 1 1419.73 1544)">Fix <tspan font-size="69" x="-119.442" y="83">geometries</tspan></text><path d="M627.5 1480.67C627.5 1457.93 645.931 1439.5 668.667 1439.5L1081.33 1439.5C1104.07 1439.5 1122.5 1457.93 1122.5 1480.67L1122.5 1645.33C1122.5 1668.07 1104.07 1686.5 1081.33 1686.5L668.667 1686.5C645.931 1686.5 627.5 1668.07 627.5 1645.33Z" stroke="#BA8C00" stroke-width="4.58333" stroke-miterlimit="8" fill="#FFC000" fill-rule="evenodd"/><text font-family="Calibri,Calibri_MSFontService,sans-serif" font-weight="400" font-size="69" transform="matrix(1 0 0 1 757.288 1586)">r.to.vect</text><path d="M1795.5 1480.67C1795.5 1457.93 1813.93 1439.5 1836.67 1439.5L2249.33 1439.5C2272.07 1439.5 2290.5 1457.93 2290.5 1480.67L2290.5 1645.33C2290.5 1668.07 2272.07 1686.5 2249.33 1686.5L1836.67 1686.5C1813.93 1686.5 1795.5 1668.07 1795.5 1645.33Z" stroke="#BA8C00" stroke-width="4.58333" stroke-miterlimit="8" fill="#FFC000" fill-rule="evenodd"/><text font-family="Calibri,Calibri_MSFontService,sans-serif" font-weight="400" font-size="69" transform="matrix(1 0 0 1 1905.45 1586)">Subdivide</text><path d="M2378.5 1480.67C2378.5 1457.93 2396.93 1439.5 2419.67 1439.5L2832.33 1439.5C2855.07 1439.5 2873.5 1457.93 2873.5 1480.67L2873.5 1645.33C2873.5 1668.07 2855.07 1686.5 2832.33 1686.5L2419.67 1686.5C2396.93 1686.5 2378.5 1668.07 2378.5 1645.33Z" stroke="#BA8C00" stroke-width="4.58333" stroke-miterlimit="8" fill="#FFC000" fill-rule="evenodd"/><text font-family="Calibri,Calibri_MSFontService,sans-serif" font-weight="400" font-size="69" transform="matrix(1 0 0 1 2455.62 1544)">Multipart to <tspan font-size="69" x="18.0354" y="83">singleparts</tspan></text><path d="M3687.5 1088.5C3687.5 1033.82 3798.31 989.5 3935 989.5 4071.69 989.5 4182.5 1033.82 4182.5 1088.5 4182.5 1143.18 4071.69 1187.5 3935 1187.5 3798.31 1187.5 3687.5 1143.18 3687.5 1088.5Z" stroke="#31538F" stroke-width="4.58333" stroke-miterlimit="8" fill="#4472C4" fill-rule="evenodd"/><text fill="#FFFFFF" font-family="Calibri,Calibri_MSFontService,sans-serif" font-weight="400" font-size="69" transform="matrix(1 0 0 1 3852.05 1069)">urban<tspan font-size="69" x="20.625" y="83">area</tspan></text><path d="M1309 335.844 1502.69 335.844C1505.53 335.844 1507.84 338.152 1507.84 341L1507.84 454.681 1502.69 449.525 1675.76 449.525 1675.76 459.837 1502.69 459.837C1499.84 459.837 1497.53 457.529 1497.53 454.681L1497.53 341 1502.69 346.156 1309 346.156ZM1675.76 454.681 1665.44 439.212 1696.38 454.681 1665.44 470.15Z" fill="#44546A"/><path d="M0-5.15625 193.985-5.15625C196.833-5.15625 199.141-2.84772 199.141 0L199.141 113.681 193.985 108.525 367.298 108.525 367.298 118.837 193.985 118.837C191.137 118.837 188.829 116.529 188.829 113.681L188.829 0 193.985 5.15625 0 5.15625ZM367.298 113.681 356.986 98.2123 387.923 113.681 356.986 129.15Z" fill="#44546A" transform="matrix(1 -1.22465e-16 -1.22465e-16 -1 1309 568.681)"/><path d="M4164.68 1426.14C4180.55 1441.45 4209.23 1439.46 4234.42 1421.3L4228.2 1415.29 4253.77 1415.93 4253.1 1439.33 4246.87 1433.32C4221.68 1451.48 4193 1453.47 4177.13 1438.15Z" fill="#E7E6E6" fill-rule="evenodd"/><path d="M4190.41 1354.77C4167.18 1378.84 4159.3 1411.07 4171.68 1431.34 4148.03 1418.02 4147.24 1382.59 4169.92 1352.21 4172.38 1348.9 4175.07 1345.74 4177.96 1342.75Z" fill="#BAB9B9" fill-rule="evenodd"/><path d="M4164.68 1426.14C4180.55 1441.45 4209.23 1439.46 4234.42 1421.3L4228.2 1415.29 4253.77 1415.93 4253.1 1439.33 4246.87 1433.32C4221.68 1451.48 4193 1453.47 4177.13 1438.15L4164.68 1426.14C4145.46 1407.59 4151.41 1370.26 4177.96 1342.75L4190.41 1354.77C4167.18 1378.84 4159.3 1411.07 4171.68 1431.34" stroke="#44546A" stroke-width="3.4375" stroke-linejoin="round" stroke-miterlimit="10" fill="none" fill-rule="evenodd"/><path d="M0 105.344 17.324 86.4854 17.324 95.1474C43.4842 90.4354 63.3332 75.5462 68.1745 57.0033 74.683 81.9322 52.4935 106.137 17.324 112.471L17.324 121.133Z" fill="#E7E6E6" fill-rule="evenodd" transform="matrix(0.693702 -0.720262 -0.720262 -0.693702 4271.13 1420.97)"/><path d="M69.296 65.6652C69.296 38.967 38.2711 17.324-7.80867e-15 17.324L0 0C38.2711-7.80866e-15 69.296 21.6431 69.296 48.3412Z" fill="#BAB9B9" fill-rule="evenodd" transform="matrix(0.693702 -0.720262 -0.720262 -0.693702 4271.13 1420.97)"/><path d="M69.296 65.6652C69.296 38.967 38.2711 17.324-7.80867e-15 17.324L0 0C38.2711-7.80866e-15 69.296 21.6431 69.296 48.3412L69.296 65.6652C69.296 87.7087 47.9195 106.96 17.324 112.471L17.324 121.133 0 105.344 17.324 86.4854 17.324 95.1474C43.4842 90.4354 63.3332 75.5462 68.1745 57.0033" stroke="#44546A" stroke-width="3.4375" stroke-linejoin="round" stroke-miterlimit="10" fill="none" fill-rule="evenodd" transform="matrix(0.693702 -0.720262 -0.720262 -0.693702 4271.13 1420.97)"/><path d="M1102.5 1094C1102.5 1030.21 1226.96 978.5 1380.5 978.5 1534.04 978.5 1658.5 1030.21 1658.5 1094 1658.5 1157.79 1534.04 1209.5 1380.5 1209.5 1226.96 1209.5 1102.5 1157.79 1102.5 1094Z" stroke="#274E13" stroke-width="4.58333" stroke-miterlimit="8" fill="#70AD47" fill-rule="evenodd"/><text fill="#FFFFFF" font-family="Calibri,Calibri_MSFontService,sans-serif" font-weight="400" font-size="64" transform="matrix(1 0 0 1 1250.3 1038)">combined <tspan font-size="64" x="21.1979" y="77">raster in</tspan><tspan font-size="64" x="67.9021" y="154">rural</tspan></text><path d="M661.5 893.5C661.5 829.987 785.965 778.5 939.5 778.5 1093.04 778.5 1217.5 829.987 1217.5 893.5 1217.5 957.013 1093.04 1008.5 939.5 1008.5 785.965 1008.5 661.5 957.013 661.5 893.5Z" stroke="#274E13" stroke-width="4.58333" stroke-miterlimit="8" fill="#70AD47" fill-rule="evenodd"/><text fill="#FFFFFF" font-family="Calibri,Calibri_MSFontService,sans-serif" font-weight="400" font-size="64" transform="matrix(1 0 0 1 808.764 838)">combined <tspan font-size="64" x="21.1979" y="77">raster in</tspan><tspan font-size="64" x="52.7084" y="154">urban</tspan></text><path d="M0 0 109.041 0 109.041 0.216535 218.051 0.216535" stroke="#5A3DAF" stroke-width="10.3125" stroke-linejoin="round" stroke-miterlimit="10" fill="none" fill-rule="evenodd" transform="matrix(1.83697e-16 1 1 -1.83697e-16 3520 554)"/><path d="M3272.24 871.768 3157.38 871.768 3157.38 760.015 2795 760.015 2795 846" stroke="#5A3DAF" stroke-width="10.3125" stroke-linejoin="round" stroke-miterlimit="10" fill="none" fill-rule="evenodd"/><path d="M2795.73 1093 2795.73 1178.94 2117 1178.94 2117 1093.22" stroke="#5A3DAF" stroke-width="10.3125" stroke-linejoin="round" stroke-miterlimit="10" fill="none" fill-rule="evenodd"/><path d="M3687.19 1087.44 3213.09 1087.44 3213.09 969 3043 969" stroke="#FF9100" stroke-width="10.3125" stroke-linejoin="round" stroke-miterlimit="10" fill="none" fill-rule="evenodd"/><path d="M3809 455 3934.16 455 3934.16 988.543" stroke="#FF9100" stroke-width="10.3125" stroke-linejoin="round" stroke-miterlimit="10" fill="none" fill-rule="evenodd"/><path d="M0 0 91.8431 0 91.8431 0.216535 183.73 0.216535" stroke="#FF9100" stroke-width="10.3125" stroke-linejoin="round" stroke-miterlimit="10" fill="none" fill-rule="evenodd" transform="matrix(-1 0 0 1 2547.73 969)"/><path d="M1102 1098.16 1016.06 1098.16 1021.22 1093 1021.22 1286.23 1016.06 1281.08 1749.98 1281.08C1752.83 1281.08 1755.14 1283.38 1755.14 1286.23L1755.14 1343.59 1744.83 1343.59 1744.83 1286.23 1749.98 1291.39 1016.06 1291.39C1013.22 1291.39 1010.91 1289.08 1010.91 1286.23L1010.91 1093C1010.91 1090.15 1013.22 1087.84 1016.06 1087.84L1102 1087.84ZM1749.98 1343.59 1765.45 1333.27 1749.98 1364.21 1734.51 1333.27Z" fill="#5A3DAF"/><path d="M0-5.15625 162.293-5.15625C165.14-5.15625 167.449-2.84772 167.449 0L167.449 669.419C167.449 672.267 165.14 674.576 162.293 674.576L97.8199 674.576 97.8199 664.263 162.293 664.263 157.136 669.419 157.136 0 162.293 5.15625 0 5.15625ZM97.8199 669.419 108.132 684.888 77.1949 669.419 108.132 653.951Z" fill="#FF9100" transform="matrix(-1 0 0 1 661.195 893)"/><path d="M1122 1557.84 1166.34 1557.84C1169.19 1557.84 1171.5 1560.15 1171.5 1563L1171.5 1563.22 1166.34 1558.06 1190.05 1558.06 1190.05 1568.37 1166.34 1568.37C1163.49 1568.37 1161.18 1566.06 1161.18 1563.22L1161.18 1563 1166.34 1568.16 1122 1568.16ZM1190.05 1563.22 1179.73 1547.75 1210.67 1563.22 1179.73 1578.69Z" fill="#44546A"/><path d="M1706 1557.84 1750.34 1557.84C1753.19 1557.84 1755.5 1560.15 1755.5 1563L1755.5 1563.22 1750.34 1558.06 1774.05 1558.06 1774.05 1568.37 1750.34 1568.37C1747.49 1568.37 1745.18 1566.06 1745.18 1563.22L1745.18 1563 1750.34 1568.16 1706 1568.16ZM1774.05 1563.22 1763.73 1547.75 1794.67 1563.22 1763.73 1578.69Z" fill="#44546A"/><path d="M2290 1557.84 2334.34 1557.84C2337.19 1557.84 2339.5 1560.15 2339.5 1563L2339.5 1563.22 2334.34 1558.06 2358.05 1558.06 2358.05 1568.37 2334.34 1568.37C2331.49 1568.37 2329.18 1566.06 2329.18 1563.22L2329.18 1563 2334.34 1568.16 2290 1568.16ZM2358.05 1563.22 2347.73 1547.75 2378.67 1563.22 2347.73 1578.69Z" fill="#44546A"/><path d="M2999.5 1480.67C2999.5 1457.93 3017.93 1439.5 3040.67 1439.5L3453.33 1439.5C3476.07 1439.5 3494.5 1457.93 3494.5 1480.67L3494.5 1645.33C3494.5 1668.07 3476.07 1686.5 3453.33 1686.5L3040.67 1686.5C3017.93 1686.5 2999.5 1668.07 2999.5 1645.33Z" stroke="#BA8C00" stroke-width="4.58333" stroke-miterlimit="8" fill="#FFC000" fill-rule="evenodd"/><text font-family="Calibri,Calibri_MSFontService,sans-serif" font-weight="400" font-size="69" transform="matrix(1 0 0 1 3121.22 1544)">Select by <tspan font-size="69" x="-24.9334" y="83">expression</tspan></text><path d="M3590.5 1480.67C3590.5 1457.93 3608.93 1439.5 3631.67 1439.5L4044.33 1439.5C4067.07 1439.5 4085.5 1457.93 4085.5 1480.67L4085.5 1645.33C4085.5 1668.07 4067.07 1686.5 4044.33 1686.5L3631.67 1686.5C3608.93 1686.5 3590.5 1668.07 3590.5 1645.33Z" stroke="#BA8C00" stroke-width="4.58333" stroke-miterlimit="8" fill="#FFC000" fill-rule="evenodd"/><text font-family="Calibri,Calibri_MSFontService,sans-serif" font-weight="400" font-size="69" transform="matrix(1 0 0 1 3706.45 1503)">Eliminate <tspan font-size="69" x="14.3228" y="83">selected </tspan><tspan font-size="69" x="6.302" y="166">polygons</tspan></text><path d="M1455.5 1977.67C1455.5 1954.93 1473.93 1936.5 1496.67 1936.5L1909.33 1936.5C1932.07 1936.5 1950.5 1954.93 1950.5 1977.67L1950.5 2142.33C1950.5 2165.07 1932.07 2183.5 1909.33 2183.5L1496.67 2183.5C1473.93 2183.5 1455.5 2165.07 1455.5 2142.33Z" stroke="#BA8C00" stroke-width="4.58333" stroke-miterlimit="8" fill="#FFC000" fill-rule="evenodd"/><text font-family="Calibri,Calibri_MSFontService,sans-serif" font-weight="400" font-size="69" transform="matrix(1 0 0 1 1513.95 2041)">Merge vector <tspan font-size="69" x="105.99" y="83">layers</tspan></text><path d="M2680.5 2153.5C2680.5 2089.99 2804.96 2038.5 2958.5 2038.5 3112.03 2038.5 3236.5 2089.99 3236.5 2153.5 3236.5 2217.01 3112.03 2268.5 2958.5 2268.5 2804.96 2268.5 2680.5 2217.01 2680.5 2153.5Z" stroke="#274E13" stroke-width="4.58333" stroke-miterlimit="8" fill="#70AD47" fill-rule="evenodd"/><text fill="#FFFFFF" font-family="Calibri,Calibri_MSFontService,sans-serif" font-weight="400" font-size="64" transform="matrix(1 0 0 1 2827.59 2174)">rural IDUs</text><path d="M2116.5 1977.5C2116.5 1913.99 2240.96 1862.5 2394.5 1862.5 2548.04 1862.5 2672.5 1913.99 2672.5 1977.5 2672.5 2041.01 2548.04 2092.5 2394.5 2092.5 2240.96 2092.5 2116.5 2041.01 2116.5 1977.5Z" stroke="#274E13" stroke-width="4.58333" stroke-miterlimit="8" fill="#70AD47" fill-rule="evenodd"/><text fill="#FFFFFF" font-family="Calibri,Calibri_MSFontService,sans-serif" font-weight="400" font-size="64" transform="matrix(1 0 0 1 2248.66 1998)">urban IDUs</text><path d="M680.5 2060C680.5 1996.21 804.965 1944.5 958.5 1944.5 1112.04 1944.5 1236.5 1996.21 1236.5 2060 1236.5 2123.79 1112.04 2175.5 958.5 2175.5 804.965 2175.5 680.5 2123.79 680.5 2060Z" stroke="#274E13" stroke-width="4.58333" stroke-miterlimit="8" fill="#70AD47" fill-rule="evenodd"/><text fill="#FFFFFF" font-family="Calibri,Calibri_MSFontService,sans-serif" font-weight="400" font-size="64" transform="matrix(1 0 0 1 833.059 2081)">final IDUs</text><path d="M3494 1557.84 3542.12 1557.84C3544.97 1557.84 3547.28 1560.15 3547.28 1563L3547.28 1563.22 3542.12 1558.06 3569.62 1558.06 3569.62 1568.37 3542.12 1568.37C3539.28 1568.37 3536.97 1566.06 3536.97 1563.22L3536.97 1563 3542.12 1568.16 3494 1568.16ZM3569.62 1563.22 3559.31 1547.75 3590.25 1563.22 3559.31 1578.69Z" fill="#44546A"/><path d="M2873 1557.84 2935.95 1557.84C2938.8 1557.84 2941.11 1560.15 2941.11 1563L2941.11 1563.22 2935.95 1558.06 2978.29 1558.06 2978.29 1568.37 2935.95 1568.37C2933.11 1568.37 2930.8 1566.06 2930.8 1563.22L2930.8 1563 2935.95 1568.16 2873 1568.16ZM2978.29 1563.22 2967.98 1547.75 2998.92 1563.22 2967.98 1578.69Z" fill="#44546A"/><path d="M0 5.15625-85.9377 5.15625-80.7814 0-80.7814 779.88-85.9377 774.723 198.022 774.723 192.865 779.88 192.865 612.308 203.178 612.308 203.178 779.88C203.178 782.727 200.869 785.036 198.022 785.036L-85.9377 785.036C-88.7854 785.036-91.0939 782.727-91.0939 779.88L-91.0939 0C-91.0939-2.84772-88.7854-5.15625-85.9377-5.15625L0-5.15625ZM198.022 612.308 182.553 622.621 198.022 591.683 213.49 622.621Z" fill="#44546A" transform="matrix(1.83697e-16 1 1 -1.83697e-16 3541 1365)"/><path d="M3604.29 2064.66 3431.69 2064.66C3428.84 2064.66 3426.53 2062.35 3426.53 2059.5L3426.53 1977 3431.69 1982.16 2692.63 1982.16 2692.63 1971.84 3431.69 1971.84C3434.54 1971.84 3436.84 1974.15 3436.84 1977L3436.84 2059.5 3431.69 2054.34 3604.29 2054.34ZM2692.62 1977 2702.94 1992.47 2672 1977 2702.94 1961.53Z" fill="#FF9100"/><path d="M0 5.15625-85.9378 5.15625-80.7815 0-80.7815 431.767-85.9378 426.61 30.2067 426.61C33.0544 426.61 35.3629 428.919 35.3629 431.767L35.3629 595.418 25.0504 595.418 25.0504 431.767 30.2067 436.923-85.9378 436.923C-88.7855 436.923-91.094 434.614-91.094 431.767L-91.094 0C-91.094-2.84772-88.7855-5.15625-85.9378-5.15625L0-5.15625ZM30.2067 595.418 45.6754 585.106 30.2067 616.043 14.7379 585.106Z" fill="#5A3DAF" transform="matrix(-6.12323e-17 -1 -1 6.12323e-17 3852.04 2183.21)"/><path d="M2115.69 1982.41 2032.61 1982.41C2029.77 1982.41 2027.46 1980.1 2027.46 1977.25L2027.46 1850.06 2032.61 1855.22 1702 1855.22 1707.16 1850.06 1707.16 1915.38 1696.84 1915.38 1696.84 1850.06C1696.84 1847.21 1699.15 1844.91 1702 1844.91L2032.61 1844.91C2035.46 1844.91 2037.77 1847.21 2037.77 1850.06L2037.77 1977.25 2032.61 1972.09 2115.69 1972.09ZM1702 1915.38 1717.47 1905.06 1702 1936 1686.53 1905.06Z" fill="#44546A"/><path d="M0-5.15625 364.957-5.15625C367.805-5.15625 370.113-2.84772 370.113 0L370.113 116.156 364.957 111 977.441 111 972.285 116.156 972.285 50.8317 982.597 50.8317 982.597 116.156C982.597 119.004 980.289 121.313 977.441 121.313L364.957 121.313C362.11 121.313 359.801 119.004 359.801 116.156L359.801 0 364.957 5.15625 0 5.15625ZM977.441 50.8317 961.972 61.1442 977.441 30.2067 992.91 61.1442Z" fill="#44546A" transform="matrix(-1 0 0 1 2679.44 2153)"/><path d="M0-5.15625 109.305-5.15625C112.153-5.15625 114.461-2.84772 114.461 0L114.461 0.216535 109.305-4.93971 197.968-4.93971 197.968 5.37279 109.305 5.37279C106.457 5.37279 104.149 3.06425 104.149 0.216535L104.149 0 109.305 5.15625 0 5.15625ZM197.968 0.216535 187.655-15.2522 218.593 0.216535 187.655 15.6853Z" fill="#44546A" transform="matrix(-1 0 0 1 1454.59 2059)"/><path d="M1869.5 886.835C1869.5 864.006 1888.01 845.5 1910.83 845.5L2323.17 845.5C2345.99 845.5 2364.5 864.006 2364.5 886.835L2364.5 1052.17C2364.5 1074.99 2345.99 1093.5 2323.17 1093.5L1910.83 1093.5C1888.01 1093.5 1869.5 1074.99 1869.5 1052.17Z" stroke="#BA8C00" stroke-width="4.58333" stroke-miterlimit="8" fill="#FFC000" fill-rule="evenodd"/><text font-family="Calibri,Calibri_MSFontService,sans-serif" font-weight="400" font-size="69" transform="matrix(1 0 0 1 2043.9 992)">r.null</text><path d="M2116.19 845 2116.19 759.061 1763.32 759.061 1763.32 1092.93 1658 1092.93" stroke="#5A3DAF" stroke-width="10.3125" stroke-linejoin="round" stroke-miterlimit="10" fill="none" fill-rule="evenodd"/><path d="M1869.31 969.112 1543.18 969.112 1543.18 893 1217 893" stroke="#FF9100" stroke-width="10.3125" stroke-linejoin="round" stroke-miterlimit="10" fill="none" fill-rule="evenodd"/><path d="M3605.5 1977.67C3605.5 1954.93 3623.93 1936.5 3646.67 1936.5L4059.33 1936.5C4082.07 1936.5 4100.5 1954.93 4100.5 1977.67L4100.5 2142.33C4100.5 2165.07 4082.07 2183.5 4059.33 2183.5L3646.67 2183.5C3623.93 2183.5 3605.5 2165.07 3605.5 2142.33Z" stroke="#BA8C00" stroke-width="4.58333" stroke-miterlimit="8" fill="#FFC000" fill-rule="evenodd"/><text font-family="Calibri,Calibri_MSFontService,sans-serif" font-weight="400" font-size="69" transform="matrix(1 0 0 1 3753.8 2041)">v.clean <tspan font-size="69" x="-38.3855" y="83">(optional)</tspan></text><path d="M0-5.15625 87.4805-5.15625C90.3282-5.15625 92.6367-2.84772 92.6367 0L92.6367 310.945 87.4805 305.789 154.336 305.789 154.336 316.101 87.4805 316.101C84.6328 316.101 82.3242 313.793 82.3242 310.945L82.3242 0 87.4805 5.15625 0 5.15625ZM154.336 310.945 144.023 295.476 174.961 310.945 144.023 326.414Z" fill="#44546A" transform="matrix(1.83697e-16 1 1 -1.83697e-16 3541 1761)"/></g></svg>