<svg width="776" height="607" xmlns="http://www.w3.org/2000/svg" xmlns:xlink="http://www.w3.org/1999/xlink" overflow="hidden"><defs><clipPath id="clip0"><rect x="39" y="111" width="776" height="607"/></clipPath><clipPath id="clip1"><rect x="42" y="67" width="184" height="135"/></clipPath><clipPath id="clip2"><rect x="225" y="67" width="201" height="135"/></clipPath><clipPath id="clip3"><rect x="425" y="67" width="193" height="135"/></clipPath><clipPath id="clip4"><rect x="617" y="67" width="197" height="135"/></clipPath><clipPath id="clip5"><rect x="42" y="-116" width="184" height="643"/></clipPath><clipPath id="clip6"><rect x="42" y="-116" width="184" height="643"/></clipPath><clipPath id="clip7"><rect x="42" y="-116" width="184" height="643"/></clipPath><clipPath id="clip8"><rect x="42" y="-116" width="184" height="643"/></clipPath><clipPath id="clip9"><rect x="225" y="-561" width="201" height="1681"/></clipPath><clipPath id="clip10"><rect x="225" y="-561" width="201" height="1681"/></clipPath><clipPath id="clip11"><rect x="225" y="-561" width="201" height="1681"/></clipPath><clipPath id="clip12"><rect x="225" y="-561" width="201" height="1681"/></clipPath><clipPath id="clip13"><rect x="225" y="-561" width="201" height="1681"/></clipPath><clipPath id="clip14"><rect x="225" y="-561" width="201" height="1681"/></clipPath><clipPath id="clip15"><rect x="225" y="-561" width="201" height="1681"/></clipPath><clipPath id="clip16"><rect x="225" y="-561" width="201" height="1681"/></clipPath><clipPath id="clip17"><rect x="225" y="-561" width="201" height="1681"/></clipPath><clipPath id="clip18"><rect x="225" y="-561" width="201" height="1681"/></clipPath><clipPath id="clip19"><rect x="225" y="-561" width="201" height="1681"/></clipPath><clipPath id="clip20"><rect x="225" y="-561" width="201" height="1681"/></clipPath><clipPath id="clip21"><rect x="425" y="-222" width="193" height="890"/></clipPath><clipPath id="clip22"><rect x="425" y="-222" width="193" height="890"/></clipPath><clipPath id="clip23"><rect x="425" y="-222" width="193" height="890"/></clipPath><clipPath id="clip24"><rect x="425" y="-222" width="193" height="890"/></clipPath><clipPath id="clip25"><rect x="617" y="-614" width="197" height="1804"/></clipPath><clipPath id="clip26"><rect x="617" y="-614" width="197" height="1804"/></clipPath><clipPath id="clip27"><rect x="617" y="-614" width="197" height="1804"/></clipPath><clipPath id="clip28"><rect x="617" y="-614" width="197" height="1804"/></clipPath><clipPath id="clip29"><rect x="617" y="-614" width="197" height="1804"/></clipPath><clipPath id="clip30"><rect x="617" y="-614" width="197" height="1804"/></clipPath><clipPath id="clip31"><rect x="617" y="-614" width="197" height="1804"/></clipPath><clipPath id="clip32"><rect x="617" y="-614" width="197" height="1804"/></clipPath><clipPath id="clip33"><rect x="617" y="-614" width="197" height="1804"/></clipPath><clipPath id="clip34"><rect x="617" y="-614" width="197" height="1804"/></clipPath><clipPath id="clip35"><rect x="40" y="375" width="183" height="136"/></clipPath><clipPath id="clip36"><rect x="223" y="375" width="200" height="136"/></clipPath><clipPath id="clip37"><rect x="423" y="375" width="217" height="136"/></clipPath><clipPath id="clip38"><rect x="40" y="87" width="183" height="889"/></clipPath><clipPath id="clip39"><rect x="40" y="87" width="183" height="889"/></clipPath><clipPath id="clip40"><rect x="40" y="87" width="183" height="889"/></clipPath><clipPath id="clip41"><rect x="40" y="87" width="183" height="889"/></clipPath><clipPath id="clip42"><rect x="40" y="87" width="183" height="889"/></clipPath><clipPath id="clip43"><rect x="223" y="-252" width="200" height="1681"/></clipPath><clipPath id="clip44"><rect x="223" y="-252" width="200" height="1681"/></clipPath><clipPath id="clip45"><rect x="223" y="-252" width="200" height="1681"/></clipPath><clipPath id="clip46"><rect x="223" y="-252" width="200" height="1681"/></clipPath><clipPath id="clip47"><rect x="223" y="-252" width="200" height="1681"/></clipPath><clipPath id="clip48"><rect x="223" y="-252" width="200" height="1681"/></clipPath><clipPath id="clip49"><rect x="223" y="-252" width="200" height="1681"/></clipPath><clipPath id="clip50"><rect x="223" y="-252" width="200" height="1681"/></clipPath><clipPath id="clip51"><rect x="223" y="-252" width="200" height="1681"/></clipPath><clipPath id="clip52"><rect x="423" y="-83" width="217" height="1285"/></clipPath><clipPath id="clip53"><rect x="423" y="-83" width="217" height="1285"/></clipPath><clipPath id="clip54"><rect x="423" y="-83" width="217" height="1285"/></clipPath><clipPath id="clip55"><rect x="423" y="-83" width="217" height="1285"/></clipPath><clipPath id="clip56"><rect x="423" y="-83" width="217" height="1285"/></clipPath></defs><g clip-path="url(#clip0)" transform="translate(-39 -111)"><path d="M42.7961 112 813.796 112" stroke="#70AD47" stroke-width="1.33333" stroke-linejoin="round" stroke-miterlimit="10" fill="none" fill-rule="evenodd"/><path d="M42.7961 420.553 813.796 420.553" stroke="#70AD47" stroke-width="1.33333" stroke-linejoin="round" stroke-miterlimit="10" fill="none" fill-rule="evenodd"/><g clip-path="url(#clip1)"><text font-family="Calibri,Calibri_MSFontService,sans-serif" font-weight="700" font-size="16" transform="translate(43.3755 140)">Distance to Large City</text></g><path d="M43.3755 141.69 79.1255 141.69 114.876 141.69 150.626 141.69 186.376 141.69 186.376 142.69 150.626 142.69 114.876 142.69 79.1255 142.69 43.3755 142.69Z" fill-rule="evenodd"/><g clip-path="url(#clip2)"><text font-family="Calibri,Calibri_MSFontService,sans-serif" font-weight="700" font-size="16" transform="translate(226.376 140)">Res </text></g><text font-family="Calibri,Calibri_MSFontService,sans-serif" font-weight="700" font-size="16" transform="translate(253.142 140)">Dist<tspan font-size="16" x="29.4867" y="0">to Large City</tspan></text><path d="M226.376 141.69 272.709 141.69 319.042 141.69 365.376 141.69 365.376 142.69 319.042 142.69 272.709 142.69 226.376 142.69Z" fill-rule="evenodd"/><g clip-path="url(#clip3)"><text font-family="Calibri,Calibri_MSFontService,sans-serif" font-weight="700" font-size="16" transform="translate(426.376 140)">Distance to Medium City</text></g><path d="M426.376 141.69 467.376 141.69 508.376 141.69 549.376 141.69 590.376 141.69 590.376 142.69 549.376 142.69 508.376 142.69 467.376 142.69 426.376 142.69Z" fill-rule="evenodd"/><g clip-path="url(#clip4)"><text font-family="Calibri,Calibri_MSFontService,sans-serif" font-weight="700" font-size="16" transform="translate(618.376 140)">Res </text></g><text font-family="Calibri,Calibri_MSFontService,sans-serif" font-weight="700" font-size="16" transform="translate(645.142 140)">Dist<tspan font-size="16" x="29.4866" y="0">to Medium City</tspan></text><path d="M618.376 141.69 658.126 141.69 697.876 141.69 737.626 141.69 777.376 141.69 777.376 142.69 737.626 142.69 697.876 142.69 658.126 142.69 618.376 142.69Z" fill-rule="evenodd"/><g clip-path="url(#clip5)"><text font-family="Calibri,Calibri_MSFontService,sans-serif" font-weight="400" font-size="15" transform="translate(43.3755 173)">1.</text></g><text font-family="Calibri,Calibri_MSFontService,sans-serif" font-weight="400" font-size="15" transform="translate(57.7755 173)">​<tspan font-weight="700" font-size="15" x="0" y="0">Input layer</tspan><tspan font-size="15" x="66.1667" y="0">: Input Polygon</tspan></text><g clip-path="url(#clip6)"><text font-family="Calibri,Calibri_MSFontService,sans-serif" font-weight="400" font-size="15" transform="translate(43.3755 201)">2.</text></g><text font-family="Calibri,Calibri_MSFontService,sans-serif" font-weight="400" font-size="15" transform="translate(57.7755 201)">​<tspan font-weight="700" font-size="15" x="0" y="0">P</tspan><tspan font-weight="700" font-size="15" x="7.83333" y="0">oint</tspan><tspan font-weight="700" font-size="15" x="35.6667" y="0">layer</tspan>: Large cities</text><g clip-path="url(#clip7)"><text font-family="Calibri,Calibri_MSFontService,sans-serif" font-weight="400" font-size="15" transform="translate(43.3755 229)">3. </text></g><text font-family="Calibri,Calibri_MSFontService,sans-serif" font-weight="700" font-size="15" transform="translate(57.8755 229)">Output column name: </text><g clip-path="url(#clip8)"><text font-family="Calibri,Calibri_MSFontService,sans-serif" font-weight="400" font-size="15" transform="translate(43.3755 247)">Dis_to_BC</text></g><g clip-path="url(#clip9)"><text font-family="Calibri,Calibri_MSFontService,sans-serif" font-weight="400" font-size="15" transform="translate(226.376 173)">1.</text></g><text font-family="Calibri,Calibri_MSFontService,sans-serif" font-weight="400" font-size="15" transform="translate(240.776 173)">​<tspan font-weight="700" font-size="15" x="0" y="0">​​Input layer</tspan><tspan font-size="15" x="66.1667" y="0">: </tspan></text><g clip-path="url(#clip10)"><text font-family="Calibri,Calibri_MSFontService,sans-serif" font-weight="400" font-size="15" transform="translate(314.276 173)">'Output shapefile' </text></g><text font-family="Calibri,Calibri_MSFontService,sans-serif" font-weight="400" font-size="15" transform="translate(240.776 190)">from algorithm 'Distance to <tspan font-size="15" x="0" y="18">Large City'</tspan></text><g clip-path="url(#clip11)"><text font-family="Calibri,Calibri_MSFontService,sans-serif" font-weight="400" font-size="15" transform="translate(226.376 236)">2.</text></g><text font-family="Calibri,Calibri_MSFontService,sans-serif" font-weight="400" font-size="15" transform="translate(240.776 236)">​<tspan font-weight="700" font-size="15" x="0" y="0">​</tspan><tspan font-weight="700" font-size="15" x="0" y="0">Field to</tspan><tspan font-weight="700" font-size="15" x="48.8333" y="0">rescale</tspan><tspan font-size="15" x="91.5" y="0">:</tspan><tspan font-size="15" x="98.8333" y="0">Dis_to_BC</tspan></text><g clip-path="url(#clip12)"><text font-family="Calibri,Calibri_MSFontService,sans-serif" font-weight="400" font-size="15" transform="translate(226.376 264)">3.</text></g><text font-family="Calibri,Calibri_MSFontService,sans-serif" font-weight="400" font-size="15" transform="translate(240.776 264)">​<tspan font-weight="700" font-size="15" x="0" y="0">​Start value for rescaling</tspan>: <tspan font-size="15" x="0" y="18">30000</tspan></text><g clip-path="url(#clip13)"><text font-family="Calibri,Calibri_MSFontService,sans-serif" font-weight="400" font-size="15" transform="translate(226.376 310)">4. </text></g><text font-family="Calibri,Calibri_MSFontService,sans-serif" font-weight="700" font-size="15" transform="translate(240.876 310)">End value for rescaling<tspan font-weight="400" font-size="15" x="137.333" y="0">: 0</tspan></text><g clip-path="url(#clip14)"><text font-family="Calibri,Calibri_MSFontService,sans-serif" font-weight="400" font-size="15" transform="translate(226.376 339)">5</text></g><g clip-path="url(#clip15)"><text font-family="Calibri,Calibri_MSFontService,sans-serif" font-weight="400" font-size="15" transform="translate(233.876 339)">. </text></g><text font-family="Calibri,Calibri_MSFontService,sans-serif" font-weight="700" font-size="15" transform="translate(240.876 339)">New minimum: <tspan font-weight="400" font-size="15" x="97.6667" y="0">1</tspan></text><g clip-path="url(#clip16)"><text font-family="Calibri,Calibri_MSFontService,sans-serif" font-weight="400" font-size="15" transform="translate(226.376 367)">6</text></g><g clip-path="url(#clip17)"><text font-family="Calibri,Calibri_MSFontService,sans-serif" font-weight="400" font-size="15" transform="translate(233.876 367)">. </text></g><text font-family="Calibri,Calibri_MSFontService,sans-serif" font-weight="700" font-size="15" transform="translate(240.876 367)">New maximum<tspan font-size="15" x="92.6667" y="0">: </tspan><tspan font-weight="400" font-size="15" x="100" y="0">9</tspan></text><g clip-path="url(#clip18)"><text font-family="Calibri,Calibri_MSFontService,sans-serif" font-weight="400" font-size="15" transform="translate(226.376 395)">7</text></g><g clip-path="url(#clip19)"><text font-family="Calibri,Calibri_MSFontService,sans-serif" font-weight="400" font-size="15" transform="translate(233.876 395)">. </text></g><text font-family="Calibri,Calibri_MSFontService,sans-serif" font-weight="400" font-size="15" transform="translate(240.876 395)">​<tspan font-weight="700" font-size="15" x="0" y="0">​​Output </tspan><tspan font-weight="700" font-size="15" x="47.1667" y="0">field </tspan><tspan font-weight="700" font-size="15" x="77.6667" y="0">name</tspan><tspan font-size="15" x="112" y="0">: </tspan></text><g clip-path="url(#clip20)"><text font-family="Calibri,Calibri_MSFontService,sans-serif" font-weight="400" font-size="15" transform="translate(360.209 395)">Res_D_BC</text></g><g clip-path="url(#clip21)"><text font-family="Calibri,Calibri_MSFontService,sans-serif" font-weight="400" font-size="15" transform="translate(426.376 173)">1.</text></g><text font-family="Calibri,Calibri_MSFontService,sans-serif" font-weight="400" font-size="15" transform="translate(440.776 173)">​<tspan font-weight="700" font-size="15" x="0" y="0">Input layer</tspan><tspan font-size="15" x="66.1667" y="0">: </tspan><tspan font-size="15" x="73.5" y="0">'Output layer' </tspan><tspan font-size="15" x="0" y="17">from algorithm 'Res </tspan><tspan font-size="15" x="120.667" y="17">Dist</tspan><tspan font-size="15" x="146.833" y="17">to </tspan><tspan font-size="15" x="0" y="35">Largre</tspan><tspan font-size="15" x="41" y="35">City’</tspan></text><g clip-path="url(#clip22)"><text font-family="Calibri,Calibri_MSFontService,sans-serif" font-weight="400" font-size="15" transform="translate(426.376 236)">2.</text></g><text font-family="Calibri,Calibri_MSFontService,sans-serif" font-weight="400" font-size="15" transform="translate(440.776 236)">​​<tspan font-weight="700" font-size="15" x="0" y="0">P</tspan><tspan font-weight="700" font-size="15" x="7.83334" y="0">oint</tspan><tspan font-weight="700" font-size="15" x="35.6667" y="0">layer</tspan><tspan font-size="15" x="66" y="0">: Medium cities</tspan></text><g clip-path="url(#clip23)"><text font-family="Calibri,Calibri_MSFontService,sans-serif" font-weight="400" font-size="15" transform="translate(426.376 264)">3. </text></g><text font-family="Calibri,Calibri_MSFontService,sans-serif" font-weight="700" font-size="15" transform="translate(440.876 264)">Output column name: </text><g clip-path="url(#clip24)"><text font-family="Calibri,Calibri_MSFontService,sans-serif" font-weight="400" font-size="15" transform="translate(426.376 282)">Dis_to_MC</text></g><g clip-path="url(#clip25)"><text font-family="Calibri,Calibri_MSFontService,sans-serif" font-weight="400" font-size="15" transform="translate(618.376 173)">1.</text></g><text font-family="Calibri,Calibri_MSFontService,sans-serif" font-weight="400" font-size="15" transform="translate(632.776 173)">​<tspan font-weight="700" font-size="15" x="0" y="0">​​Input layer</tspan></text><g clip-path="url(#clip26)"><text font-family="Calibri,Calibri_MSFontService,sans-serif" font-weight="400" font-size="15" transform="translate(698.942 173)">: 'Output shapefile' </text></g><text font-family="Calibri,Calibri_MSFontService,sans-serif" font-weight="400" font-size="15" transform="translate(632.776 190)">from algorithm 'Distance to <tspan font-size="15" x="0" y="18">Medium City’</tspan></text><g clip-path="url(#clip27)"><text font-family="Calibri,Calibri_MSFontService,sans-serif" font-weight="400" font-size="15" transform="translate(618.376 236)">2. ​</text></g><text font-family="Calibri,Calibri_MSFontService,sans-serif" font-weight="700" font-size="15" transform="translate(632.876 236)">​Field to<tspan font-size="15" x="48.8333" y="0">rescale</tspan><tspan font-weight="400" font-size="15" x="91.5" y="0">:</tspan><tspan font-weight="400" font-size="15" x="98.8333" y="0">Dis_to_MC</tspan></text><g clip-path="url(#clip28)"><text font-family="Calibri,Calibri_MSFontService,sans-serif" font-weight="400" font-size="15" transform="translate(618.376 264)">3. </text></g><text font-family="Calibri,Calibri_MSFontService,sans-serif" font-weight="700" font-size="15" transform="translate(632.876 264)">Start value for rescaling<tspan font-weight="400" font-size="15" x="144.167" y="0">: </tspan></text><g clip-path="url(#clip29)"><text font-family="Calibri,Calibri_MSFontService,sans-serif" font-weight="400" font-size="15" transform="translate(618.376 282)">30000</text></g><g clip-path="url(#clip30)"><text font-family="Calibri,Calibri_MSFontService,sans-serif" font-weight="400" font-size="15" transform="translate(618.376 310)">4. </text></g><text font-family="Calibri,Calibri_MSFontService,sans-serif" font-weight="700" font-size="15" transform="translate(632.876 310)">End value for rescaling<tspan font-weight="400" font-size="15" x="137.333" y="0">: 0</tspan></text><g clip-path="url(#clip31)"><text font-family="Calibri,Calibri_MSFontService,sans-serif" font-weight="400" font-size="15" transform="translate(618.376 339)">5. </text></g><text font-family="Calibri,Calibri_MSFontService,sans-serif" font-weight="700" font-size="15" transform="translate(632.876 339)">New minimum: <tspan font-weight="400" font-size="15" x="97.6667" y="0">1</tspan></text><g clip-path="url(#clip32)"><text font-family="Calibri,Calibri_MSFontService,sans-serif" font-weight="400" font-size="15" transform="translate(618.376 367)">6. </text></g><text font-family="Calibri,Calibri_MSFontService,sans-serif" font-weight="700" font-size="15" transform="translate(632.876 367)">New maximum<tspan font-size="15" x="92.6667" y="0">: </tspan><tspan font-weight="400" font-size="15" x="100" y="0">9</tspan></text><g clip-path="url(#clip33)"><text font-family="Calibri,Calibri_MSFontService,sans-serif" font-weight="400" font-size="15" transform="translate(618.376 395)">7. ​</text></g><text font-family="Calibri,Calibri_MSFontService,sans-serif" font-weight="700" font-size="15" transform="translate(632.876 395)">​​Output field name<tspan font-weight="400" font-size="15" x="112" y="0">: </tspan></text><g clip-path="url(#clip34)"><text font-family="Calibri,Calibri_MSFontService,sans-serif" font-weight="400" font-size="15" transform="translate(618.376 413)">Res_D_MC</text></g><path d="M40 711.506 640 711.506" stroke="#70AD47" stroke-width="1.33333" stroke-linejoin="round" stroke-miterlimit="10" fill="none" fill-rule="evenodd"/><g clip-path="url(#clip35)"><text font-family="Calibri,Calibri_MSFontService,sans-serif" font-weight="700" font-size="16" transform="translate(40.5794 448)">Distance to Small City</text></g><path d="M40.5794 450.243 76.5794 450.243 112.579 450.243 148.579 450.243 184.579 450.243 184.579 451.243 148.579 451.243 112.579 451.243 76.5794 451.243 40.5794 451.243Z" fill-rule="evenodd"/><g clip-path="url(#clip36)"><text font-family="Calibri,Calibri_MSFontService,sans-serif" font-weight="700" font-size="16" transform="translate(223.579 448)">Res </text></g><text font-family="Calibri,Calibri_MSFontService,sans-serif" font-weight="700" font-size="16" transform="translate(250.346 448)">Dist<tspan font-size="16" x="29.4867" y="0">to Small City</tspan></text><path d="M223.579 450.243 269.913 450.243 316.246 450.243 362.579 450.243 362.579 451.243 316.246 451.243 269.913 451.243 223.579 451.243Z" fill-rule="evenodd"/><g clip-path="url(#clip37)"><text font-family="Calibri,Calibri_MSFontService,sans-serif" font-weight="700" font-size="16" transform="translate(423.579 448)">Weighted Sum of </text></g><text font-family="Calibri,Calibri_MSFontService,sans-serif" font-weight="700" font-size="16" transform="translate(541.499 448)">Fields</text><path d="M423.579 450.243 475.579 450.243 527.579 450.243 579.579 450.243 579.579 451.243 527.579 451.243 475.579 451.243 423.579 451.243Z" fill-rule="evenodd"/><g clip-path="url(#clip38)"><text font-family="Calibri,Calibri_MSFontService,sans-serif" font-weight="400" font-size="15" transform="translate(40.5794 482)">1.</text></g><text font-family="Calibri,Calibri_MSFontService,sans-serif" font-weight="400" font-size="15" transform="translate(54.9794 482)">​<tspan font-weight="700" font-size="15" x="0" y="0">Input layer</tspan>: <tspan font-size="15" x="73.5" y="0">'Output layer' </tspan><tspan font-size="15" x="0" y="17">from algorithm 'Res </tspan>Dist</text><g clip-path="url(#clip39)"><text font-family="Calibri,Calibri_MSFontService,sans-serif" font-weight="400" font-size="15" transform="translate(201.813 499)">to </text></g><text font-family="Calibri,Calibri_MSFontService,sans-serif" font-weight="400" font-size="15" transform="translate(54.9794 517)">Medium City'</text><g clip-path="url(#clip40)"><text font-family="Calibri,Calibri_MSFontService,sans-serif" font-weight="400" font-size="15" transform="translate(40.5794 545)">2.</text></g><text font-family="Calibri,Calibri_MSFontService,sans-serif" font-weight="400" font-size="15" transform="translate(54.9794 545)">​<tspan font-weight="700" font-size="15" x="0" y="0">P</tspan><tspan font-weight="700" font-size="15" x="7.83333" y="0">oint</tspan><tspan font-weight="700" font-size="15" x="35.6667" y="0">layer</tspan>: Small cities</text><g clip-path="url(#clip41)"><text font-family="Calibri,Calibri_MSFontService,sans-serif" font-weight="400" font-size="15" transform="translate(40.5794 573)">3. </text></g><text font-family="Calibri,Calibri_MSFontService,sans-serif" font-weight="700" font-size="15" transform="translate(55.0794 573)">Output column name: </text><g clip-path="url(#clip42)"><text font-family="Calibri,Calibri_MSFontService,sans-serif" font-weight="400" font-size="15" transform="translate(40.5794 591)">Dis_to_SC</text></g><g clip-path="url(#clip43)"><text font-family="Calibri,Calibri_MSFontService,sans-serif" font-weight="400" font-size="15" transform="translate(223.579 482)">1.</text></g><text font-family="Calibri,Calibri_MSFontService,sans-serif" font-weight="400" font-size="15" transform="translate(237.979 482)">​<tspan font-weight="700" font-size="15" x="0" y="0">​​Input layer</tspan><tspan font-size="15" x="66.1667" y="0">: </tspan></text><g clip-path="url(#clip44)"><text font-family="Calibri,Calibri_MSFontService,sans-serif" font-weight="400" font-size="15" transform="translate(311.479 482)">'Output shapefile' </text></g><text font-family="Calibri,Calibri_MSFontService,sans-serif" font-weight="400" font-size="15" transform="translate(237.979 499)">from algorithm 'Distance to <tspan font-size="15" x="0" y="18">Small City’</tspan></text><g clip-path="url(#clip45)"><text font-family="Calibri,Calibri_MSFontService,sans-serif" font-weight="400" font-size="15" transform="translate(223.579 545)">2.</text></g><text font-family="Calibri,Calibri_MSFontService,sans-serif" font-weight="400" font-size="15" transform="translate(237.979 545)">​<tspan font-weight="700" font-size="15" x="0" y="0">​Field to</tspan><tspan font-weight="700" font-size="15" x="48.8333" y="0">rescale</tspan><tspan font-size="15" x="91.5" y="0">:</tspan><tspan font-size="15" x="98.8333" y="0">Dis_to_SC</tspan></text><g clip-path="url(#clip46)"><text font-family="Calibri,Calibri_MSFontService,sans-serif" font-weight="400" font-size="15" transform="translate(223.579 573)">3.</text></g><text font-family="Calibri,Calibri_MSFontService,sans-serif" font-weight="400" font-size="15" transform="translate(237.979 573)">​<tspan font-weight="700" font-size="15" x="0" y="0">​</tspan><tspan font-weight="700" font-size="15" x="0" y="0">Start value for rescaling</tspan><tspan font-size="15" x="144.167" y="0">: </tspan><tspan font-size="15" x="0" y="18">30000</tspan></text><g clip-path="url(#clip47)"><text font-family="Calibri,Calibri_MSFontService,sans-serif" font-weight="400" font-size="15" transform="translate(223.579 619)">4. </text></g><text font-family="Calibri,Calibri_MSFontService,sans-serif" font-weight="700" font-size="15" transform="translate(238.079 619)">End value for rescaling<tspan font-weight="400" font-size="15" x="137.333" y="0">: 0</tspan></text><g clip-path="url(#clip48)"><text font-family="Calibri,Calibri_MSFontService,sans-serif" font-weight="400" font-size="15" transform="translate(223.579 648)">5. </text></g><text font-family="Calibri,Calibri_MSFontService,sans-serif" font-weight="700" font-size="15" transform="translate(238.079 648)">New minimum: <tspan font-weight="400" font-size="15" x="97.6667" y="0">1</tspan></text><g clip-path="url(#clip49)"><text font-family="Calibri,Calibri_MSFontService,sans-serif" font-weight="400" font-size="15" transform="translate(223.579 676)">6. </text></g><text font-family="Calibri,Calibri_MSFontService,sans-serif" font-weight="700" font-size="15" transform="translate(238.079 676)">New maximum<tspan font-size="15" x="92.6667" y="0">: </tspan><tspan font-weight="400" font-size="15" x="100" y="0">9</tspan></text><g clip-path="url(#clip50)"><text font-family="Calibri,Calibri_MSFontService,sans-serif" font-weight="400" font-size="15" transform="translate(223.579 704)">7. ​</text></g><text font-family="Calibri,Calibri_MSFontService,sans-serif" font-weight="700" font-size="15" transform="translate(238.079 704)">​​Output field name<tspan font-weight="400" font-size="15" x="112" y="0">: </tspan><tspan font-weight="400" font-size="15" x="119.333" y="0">Res_D</tspan></text><g clip-path="url(#clip51)"><text font-family="Calibri,Calibri_MSFontService,sans-serif" font-weight="400" font-size="15" transform="translate(394.746 704)">_SC</text></g><g clip-path="url(#clip52)"><text font-family="Calibri,Calibri_MSFontService,sans-serif" font-weight="400" font-size="15" transform="translate(423.579 482)">1.</text></g><text font-family="Calibri,Calibri_MSFontService,sans-serif" font-weight="400" font-size="15" transform="translate(437.979 482)">​<tspan font-weight="700" font-size="15" x="0" y="0">Input layer</tspan><tspan font-size="15" x="66.1667" y="0">: </tspan><tspan font-size="15" x="73.5" y="0">'Output layer' from </tspan><tspan font-size="15" x="0" y="17">algorithm 'Res </tspan><tspan font-size="15" x="88.3333" y="17">Dist</tspan><tspan font-size="15" x="114.5" y="17">to Small City'</tspan></text><g clip-path="url(#clip53)"><text font-family="Calibri,Calibri_MSFontService,sans-serif" font-weight="400" font-size="15" transform="translate(423.579 528)">2.</text></g><text font-family="Calibri,Calibri_MSFontService,sans-serif" font-weight="400" font-size="15" transform="translate(437.979 528)">​<tspan font-weight="700" font-size="15" x="0" y="0">Fields</tspan>: <tspan font-size="15" x="0" y="17">Res_D_BC;Res_D_MC;Res_D_SC</tspan></text><g clip-path="url(#clip54)"><text font-family="Calibri,Calibri_MSFontService,sans-serif" font-weight="400" font-size="15" transform="translate(423.579 573)">3.</text></g><text font-family="Calibri,Calibri_MSFontService,sans-serif" font-weight="400" font-size="15" transform="translate(437.979 573)">​<tspan font-weight="700" font-size="15" x="0" y="0">Weights</tspan><tspan font-size="15" x="50.1667" y="0">: Using model input: </tspan><tspan font-size="15" x="0" y="18">Weights for </tspan><tspan font-size="15" x="72.6667" y="18">City Level</tspan></text><g clip-path="url(#clip55)"><text font-family="Calibri,Calibri_MSFontService,sans-serif" font-weight="400" font-size="15" transform="translate(423.579 619)">4.</text></g><text font-family="Calibri,Calibri_MSFontService,sans-serif" font-weight="400" font-size="15" transform="translate(437.979 619)">​<tspan font-weight="700" font-size="15" x="0" y="0">Output field name</tspan><tspan font-size="15" x="112" y="0">: </tspan><tspan font-size="15" x="119.333" y="0">Market</tspan></text><g clip-path="url(#clip56)"><text font-family="Calibri,Calibri_MSFontService,sans-serif" font-weight="400" font-size="15" transform="translate(423.579 648)">5.</text></g><text font-family="Calibri,Calibri_MSFontService,sans-serif" font-weight="400" font-size="15" transform="translate(437.979 648)">​<tspan font-weight="700" font-size="15" x="0" y="0">Output layer</tspan>: <tspan font-size="15" x="84.8333" y="0">rcrp_Market</tspan></text></g></svg>