<svg width="602" height="298" xmlns="http://www.w3.org/2000/svg" xmlns:xlink="http://www.w3.org/1999/xlink" overflow="hidden"><defs><clipPath id="clip0"><rect x="39" y="112" width="602" height="298"/></clipPath><clipPath id="clip1"><rect x="40" y="68" width="183" height="135"/></clipPath><clipPath id="clip2"><rect x="223" y="68" width="200" height="135"/></clipPath><clipPath id="clip3"><rect x="423" y="68" width="217" height="135"/></clipPath><clipPath id="clip4"><rect x="40" y="-221" width="183" height="890"/></clipPath><clipPath id="clip5"><rect x="40" y="-221" width="183" height="890"/></clipPath><clipPath id="clip6"><rect x="40" y="-221" width="183" height="890"/></clipPath><clipPath id="clip7"><rect x="40" y="-221" width="183" height="890"/></clipPath><clipPath id="clip8"><rect x="40" y="-221" width="183" height="890"/></clipPath><clipPath id="clip9"><rect x="223" y="-560" width="200" height="1681"/></clipPath><clipPath id="clip10"><rect x="223" y="-560" width="200" height="1681"/></clipPath><clipPath id="clip11"><rect x="223" y="-560" width="200" height="1681"/></clipPath><clipPath id="clip12"><rect x="223" y="-560" width="200" height="1681"/></clipPath><clipPath id="clip13"><rect x="223" y="-560" width="200" height="1681"/></clipPath><clipPath id="clip14"><rect x="223" y="-560" width="200" height="1681"/></clipPath><clipPath id="clip15"><rect x="223" y="-560" width="200" height="1681"/></clipPath><clipPath id="clip16"><rect x="223" y="-560" width="200" height="1681"/></clipPath><clipPath id="clip17"><rect x="223" y="-560" width="200" height="1681"/></clipPath><clipPath id="clip18"><rect x="423" y="-390" width="217" height="1285"/></clipPath><clipPath id="clip19"><rect x="423" y="-390" width="217" height="1285"/></clipPath><clipPath id="clip20"><rect x="423" y="-390" width="217" height="1285"/></clipPath><clipPath id="clip21"><rect x="423" y="-390" width="217" height="1285"/></clipPath><clipPath id="clip22"><rect x="423" y="-390" width="217" height="1285"/></clipPath></defs><g clip-path="url(#clip0)" transform="translate(-39 -112)"><path d="M40 113 640 113" stroke="#70AD47" stroke-width="1.33333" stroke-linejoin="round" stroke-miterlimit="10" fill="none" fill-rule="evenodd"/><path d="M40 403.953 640 403.953" stroke="#70AD47" stroke-width="1.33333" stroke-linejoin="round" stroke-miterlimit="10" fill="none" fill-rule="evenodd"/><g clip-path="url(#clip1)"><text font-family="Calibri,Calibri_MSFontService,sans-serif" font-weight="700" font-size="16" transform="translate(40.5794 141)">Distance to Small City</text></g><path d="M40.5794 142.69 76.5794 142.69 112.579 142.69 148.579 142.69 184.579 142.69 184.579 143.69 148.579 143.69 112.579 143.69 76.5794 143.69 40.5794 143.69Z" fill-rule="evenodd"/><g clip-path="url(#clip2)"><text font-family="Calibri,Calibri_MSFontService,sans-serif" font-weight="700" font-size="16" transform="translate(223.579 141)">Res </text></g><text font-family="Calibri,Calibri_MSFontService,sans-serif" font-weight="700" font-size="16" transform="translate(250.346 141)">Dist<tspan font-size="16" x="29.4867" y="0">to Small City</tspan></text><path d="M223.579 142.69 269.913 142.69 316.246 142.69 362.579 142.69 362.579 143.69 316.246 143.69 269.913 143.69 223.579 143.69Z" fill-rule="evenodd"/><g clip-path="url(#clip3)"><text font-family="Calibri,Calibri_MSFontService,sans-serif" font-weight="700" font-size="16" transform="translate(423.579 141)">Weighted Sum of </text></g><text font-family="Calibri,Calibri_MSFontService,sans-serif" font-weight="700" font-size="16" transform="translate(541.499 141)">Fields</text><path d="M423.579 142.69 475.579 142.69 527.579 142.69 579.579 142.69 579.579 143.69 527.579 143.69 475.579 143.69 423.579 143.69Z" fill-rule="evenodd"/><g clip-path="url(#clip4)"><text font-family="Calibri,Calibri_MSFontService,sans-serif" font-weight="400" font-size="15" transform="translate(40.5794 174)">1.</text></g><text font-family="Calibri,Calibri_MSFontService,sans-serif" font-weight="400" font-size="15" transform="translate(54.9794 174)">​<tspan font-weight="700" font-size="15" x="0" y="0">Input layer</tspan>: <tspan font-size="15" x="73.5" y="0">'Output layer' </tspan><tspan font-size="15" x="0" y="17">from algorithm 'Res </tspan>Dist</text><g clip-path="url(#clip5)"><text font-family="Calibri,Calibri_MSFontService,sans-serif" font-weight="400" font-size="15" transform="translate(201.813 191)">to </text></g><text font-family="Calibri,Calibri_MSFontService,sans-serif" font-weight="400" font-size="15" transform="translate(54.9794 209)">Medium City'</text><g clip-path="url(#clip6)"><text font-family="Calibri,Calibri_MSFontService,sans-serif" font-weight="400" font-size="15" transform="translate(40.5794 237)">2.</text></g><text font-family="Calibri,Calibri_MSFontService,sans-serif" font-weight="400" font-size="15" transform="translate(54.9794 237)">​<tspan font-weight="700" font-size="15" x="0" y="0">P</tspan><tspan font-weight="700" font-size="15" x="7.83333" y="0">oint</tspan><tspan font-weight="700" font-size="15" x="35.6667" y="0">layer</tspan>: Small cities</text><g clip-path="url(#clip7)"><text font-family="Calibri,Calibri_MSFontService,sans-serif" font-weight="400" font-size="15" transform="translate(40.5794 265)">3. </text></g><text font-family="Calibri,Calibri_MSFontService,sans-serif" font-weight="700" font-size="15" transform="translate(55.0794 265)">Output column name: </text><g clip-path="url(#clip8)"><text font-family="Calibri,Calibri_MSFontService,sans-serif" font-weight="400" font-size="15" transform="translate(40.5794 283)">Dis_to_SC</text></g><g clip-path="url(#clip9)"><text font-family="Calibri,Calibri_MSFontService,sans-serif" font-weight="400" font-size="15" transform="translate(223.579 174)">1.</text></g><text font-family="Calibri,Calibri_MSFontService,sans-serif" font-weight="400" font-size="15" transform="translate(237.979 174)">​<tspan font-weight="700" font-size="15" x="0" y="0">​​Input layer</tspan><tspan font-size="15" x="66.1667" y="0">: </tspan></text><g clip-path="url(#clip10)"><text font-family="Calibri,Calibri_MSFontService,sans-serif" font-weight="400" font-size="15" transform="translate(311.479 174)">'Output shapefile' </text></g><text font-family="Calibri,Calibri_MSFontService,sans-serif" font-weight="400" font-size="15" transform="translate(237.979 191)">from algorithm 'Distance to <tspan font-size="15" x="0" y="18">Small City’</tspan></text><g clip-path="url(#clip11)"><text font-family="Calibri,Calibri_MSFontService,sans-serif" font-weight="400" font-size="15" transform="translate(223.579 237)">2.</text></g><text font-family="Calibri,Calibri_MSFontService,sans-serif" font-weight="400" font-size="15" transform="translate(237.979 237)">​<tspan font-weight="700" font-size="15" x="0" y="0">​Field to</tspan><tspan font-weight="700" font-size="15" x="48.8333" y="0">rescale</tspan><tspan font-size="15" x="91.5" y="0">:</tspan><tspan font-size="15" x="98.8333" y="0">Dis_to_SC</tspan></text><g clip-path="url(#clip12)"><text font-family="Calibri,Calibri_MSFontService,sans-serif" font-weight="400" font-size="15" transform="translate(223.579 265)">3.</text></g><text font-family="Calibri,Calibri_MSFontService,sans-serif" font-weight="400" font-size="15" transform="translate(237.979 265)">​<tspan font-weight="700" font-size="15" x="0" y="0">​</tspan><tspan font-weight="700" font-size="15" x="0" y="0">Start value for rescaling</tspan><tspan font-size="15" x="144.167" y="0">: </tspan><tspan font-size="15" x="0" y="18">30000</tspan></text><g clip-path="url(#clip13)"><text font-family="Calibri,Calibri_MSFontService,sans-serif" font-weight="400" font-size="15" transform="translate(223.579 311)">4. </text></g><text font-family="Calibri,Calibri_MSFontService,sans-serif" font-weight="700" font-size="15" transform="translate(238.079 311)">End value for rescaling<tspan font-weight="400" font-size="15" x="137.333" y="0">: 0</tspan></text><g clip-path="url(#clip14)"><text font-family="Calibri,Calibri_MSFontService,sans-serif" font-weight="400" font-size="15" transform="translate(223.579 340)">5. </text></g><text font-family="Calibri,Calibri_MSFontService,sans-serif" font-weight="700" font-size="15" transform="translate(238.079 340)">New minimum: <tspan font-weight="400" font-size="15" x="97.6667" y="0">1</tspan></text><g clip-path="url(#clip15)"><text font-family="Calibri,Calibri_MSFontService,sans-serif" font-weight="400" font-size="15" transform="translate(223.579 368)">6. </text></g><text font-family="Calibri,Calibri_MSFontService,sans-serif" font-weight="700" font-size="15" transform="translate(238.079 368)">New maximum<tspan font-size="15" x="92.6667" y="0">: </tspan><tspan font-weight="400" font-size="15" x="100" y="0">9</tspan></text><g clip-path="url(#clip16)"><text font-family="Calibri,Calibri_MSFontService,sans-serif" font-weight="400" font-size="15" transform="translate(223.579 396)">7. ​</text></g><text font-family="Calibri,Calibri_MSFontService,sans-serif" font-weight="700" font-size="15" transform="translate(238.079 396)">​​Output field name<tspan font-weight="400" font-size="15" x="112" y="0">: </tspan><tspan font-weight="400" font-size="15" x="119.333" y="0">Res_D</tspan></text><g clip-path="url(#clip17)"><text font-family="Calibri,Calibri_MSFontService,sans-serif" font-weight="400" font-size="15" transform="translate(394.746 396)">_SC</text></g><g clip-path="url(#clip18)"><text font-family="Calibri,Calibri_MSFontService,sans-serif" font-weight="400" font-size="15" transform="translate(423.579 174)">1.</text></g><text font-family="Calibri,Calibri_MSFontService,sans-serif" font-weight="400" font-size="15" transform="translate(437.979 174)">​<tspan font-weight="700" font-size="15" x="0" y="0">Input layer</tspan><tspan font-size="15" x="66.1667" y="0">: </tspan><tspan font-size="15" x="73.5" y="0">'Output layer' from </tspan><tspan font-size="15" x="0" y="17">algorithm 'Res </tspan><tspan font-size="15" x="88.3333" y="17">Dist</tspan><tspan font-size="15" x="114.5" y="17">to Small City'</tspan></text><g clip-path="url(#clip19)"><text font-family="Calibri,Calibri_MSFontService,sans-serif" font-weight="400" font-size="15" transform="translate(423.579 220)">2.</text></g><text font-family="Calibri,Calibri_MSFontService,sans-serif" font-weight="400" font-size="15" transform="translate(437.979 220)">​<tspan font-weight="700" font-size="15" x="0" y="0">Fields</tspan>: <tspan font-size="15" x="0" y="17">Res_D_BC;Res_D_MC;Res_D_SC</tspan></text><g clip-path="url(#clip20)"><text font-family="Calibri,Calibri_MSFontService,sans-serif" font-weight="400" font-size="15" transform="translate(423.579 265)">3.</text></g><text font-family="Calibri,Calibri_MSFontService,sans-serif" font-weight="400" font-size="15" transform="translate(437.979 265)">​<tspan font-weight="700" font-size="15" x="0" y="0">Weights</tspan><tspan font-size="15" x="50.1667" y="0">: Using model input: </tspan><tspan font-size="15" x="0" y="18">Weights for </tspan><tspan font-size="15" x="72.6667" y="18">City Level</tspan></text><g clip-path="url(#clip21)"><text font-family="Calibri,Calibri_MSFontService,sans-serif" font-weight="400" font-size="15" transform="translate(423.579 311)">4.</text></g><text font-family="Calibri,Calibri_MSFontService,sans-serif" font-weight="400" font-size="15" transform="translate(437.979 311)">​<tspan font-weight="700" font-size="15" x="0" y="0">Output field name</tspan><tspan font-size="15" x="112" y="0">: </tspan><tspan font-size="15" x="119.333" y="0">Market</tspan></text><g clip-path="url(#clip22)"><text font-family="Calibri,Calibri_MSFontService,sans-serif" font-weight="400" font-size="15" transform="translate(423.579 340)">5.</text></g><text font-family="Calibri,Calibri_MSFontService,sans-serif" font-weight="400" font-size="15" transform="translate(437.979 340)">​<tspan font-weight="700" font-size="15" x="0" y="0">Output layer</tspan>: <tspan font-size="15" x="84.8333" y="0">rcrp_Market</tspan></text></g></svg>