<svg width="773" height="287" xmlns="http://www.w3.org/2000/svg" xmlns:xlink="http://www.w3.org/1999/xlink" overflow="hidden"><defs><clipPath id="clip0"><rect x="42" y="111" width="773" height="287"/></clipPath><clipPath id="clip1"><rect x="42" y="67" width="184" height="135"/></clipPath><clipPath id="clip2"><rect x="225" y="67" width="201" height="135"/></clipPath><clipPath id="clip3"><rect x="425" y="67" width="193" height="135"/></clipPath><clipPath id="clip4"><rect x="617" y="67" width="197" height="135"/></clipPath><clipPath id="clip5"><rect x="42" y="-286" width="184" height="1039"/></clipPath><clipPath id="clip6"><rect x="42" y="-286" width="184" height="1039"/></clipPath><clipPath id="clip7"><rect x="42" y="-286" width="184" height="1039"/></clipPath><clipPath id="clip8"><rect x="42" y="-286" width="184" height="1039"/></clipPath><clipPath id="clip9"><rect x="42" y="-286" width="184" height="1039"/></clipPath><clipPath id="clip10"><rect x="42" y="-286" width="184" height="1039"/></clipPath><clipPath id="clip11"><rect x="225" y="-476" width="201" height="1483"/></clipPath><clipPath id="clip12"><rect x="225" y="-476" width="201" height="1483"/></clipPath><clipPath id="clip13"><rect x="225" y="-476" width="201" height="1483"/></clipPath><clipPath id="clip14"><rect x="225" y="-476" width="201" height="1483"/></clipPath><clipPath id="clip15"><rect x="225" y="-476" width="201" height="1483"/></clipPath><clipPath id="clip16"><rect x="225" y="-476" width="201" height="1483"/></clipPath><clipPath id="clip17"><rect x="225" y="-476" width="201" height="1483"/></clipPath><clipPath id="clip18"><rect x="425" y="-286" width="193" height="1039"/></clipPath><clipPath id="clip19"><rect x="425" y="-286" width="193" height="1039"/></clipPath><clipPath id="clip20"><rect x="425" y="-286" width="193" height="1039"/></clipPath><clipPath id="clip21"><rect x="425" y="-286" width="193" height="1039"/></clipPath><clipPath id="clip22"><rect x="425" y="-286" width="193" height="1039"/></clipPath><clipPath id="clip23"><rect x="425" y="-286" width="193" height="1039"/></clipPath><clipPath id="clip24"><rect x="617" y="-529" width="197" height="1606"/></clipPath><clipPath id="clip25"><rect x="617" y="-529" width="197" height="1606"/></clipPath><clipPath id="clip26"><rect x="617" y="-529" width="197" height="1606"/></clipPath><clipPath id="clip27"><rect x="617" y="-529" width="197" height="1606"/></clipPath><clipPath id="clip28"><rect x="617" y="-529" width="197" height="1606"/></clipPath><clipPath id="clip29"><rect x="617" y="-529" width="197" height="1606"/></clipPath><clipPath id="clip30"><rect x="617" y="-529" width="197" height="1606"/></clipPath></defs><g clip-path="url(#clip0)" transform="translate(-42 -111)"><path d="M42.7961 112 813.796 112" stroke="#70AD47" stroke-width="1.33333" stroke-linejoin="round" stroke-miterlimit="10" fill="none" fill-rule="evenodd"/><path d="M42.7961 392.286 813.796 392.286" stroke="#70AD47" stroke-width="1.33333" stroke-linejoin="round" stroke-miterlimit="10" fill="none" fill-rule="evenodd"/><g clip-path="url(#clip1)"><text font-family="Calibri,Calibri_MSFontService,sans-serif" font-weight="700" font-size="16" transform="translate(43.3755 140)">Root Zone Depth</text></g><path d="M43.3755 141.69 81.0422 141.69 118.709 141.69 156.376 141.69 156.376 142.69 118.709 142.69 81.0422 142.69 43.3755 142.69Z" fill-rule="evenodd"/><g clip-path="url(#clip2)"><text font-family="Calibri,Calibri_MSFontService,sans-serif" font-weight="700" font-size="16" transform="translate(226.376 140)">Rec RZD</text></g><path d="M226.376 141.69 253.376 141.69 280.376 141.69 280.376 142.69 253.376 142.69 226.376 142.69Z" fill-rule="evenodd"/><g clip-path="url(#clip3)"><text font-family="Calibri,Calibri_MSFontService,sans-serif" font-weight="700" font-size="16" transform="translate(426.376 140)">Drainage</text></g><path d="M426.376 141.69 455.876 141.69 485.376 141.69 485.376 142.69 455.876 142.69 426.376 142.69Z" fill-rule="evenodd"/><g clip-path="url(#clip4)"><text font-family="Calibri,Calibri_MSFontService,sans-serif" font-weight="700" font-size="16" transform="translate(618.376 140)">Rec Drainage</text></g><path d="M618.376 141.69 661.376 141.69 704.376 141.69 704.376 142.69 661.376 142.69 618.376 142.69Z" fill-rule="evenodd"/><g clip-path="url(#clip5)"><text font-family="Calibri,Calibri_MSFontService,sans-serif" font-weight="400" font-size="15" transform="translate(43.3755 173)">1.</text></g><text font-family="Calibri,Calibri_MSFontService,sans-serif" font-weight="400" font-size="15" transform="translate(57.7755 173)">​<tspan font-weight="700" font-size="15" x="0" y="0">Input layer</tspan><tspan font-size="15" x="66.1667" y="0">: Input Polygon</tspan></text><g clip-path="url(#clip6)"><text font-family="Calibri,Calibri_MSFontService,sans-serif" font-weight="400" font-size="15" transform="translate(43.3755 201)">2.</text></g><text font-family="Calibri,Calibri_MSFontService,sans-serif" font-weight="400" font-size="15" transform="translate(57.7755 201)">​<tspan font-weight="700" font-size="15" x="0" y="0">Raster </tspan><tspan font-weight="700" font-size="15" x="42.3333" y="0">layer</tspan><tspan font-size="15" x="72.6667" y="0">: </tspan><tspan font-size="15" x="80" y="0">Root Zone </tspan><tspan font-size="15" x="0" y="18">Depth</tspan></text><g clip-path="url(#clip7)"><text font-family="Calibri,Calibri_MSFontService,sans-serif" font-weight="400" font-size="15" transform="translate(43.3755 247)">3. </text></g><text font-family="Calibri,Calibri_MSFontService,sans-serif" font-weight="700" font-size="15" transform="translate(57.8755 247)">Types of Statistics:<tspan font-weight="400" font-size="15" x="116.667" y="0">mean</tspan></text><g clip-path="url(#clip8)"><text font-family="Calibri,Calibri_MSFontService,sans-serif" font-weight="400" font-size="15" transform="translate(43.3755 275)">4. </text></g><text font-family="Calibri,Calibri_MSFontService,sans-serif" font-weight="700" font-size="15" transform="translate(57.8755 275)">Output column prefix: </text><g clip-path="url(#clip9)"><text font-family="Calibri,Calibri_MSFontService,sans-serif" font-weight="400" font-size="15" transform="translate(196.376 275)">RZD</text></g><g clip-path="url(#clip10)"><text font-family="Calibri,Calibri_MSFontService,sans-serif" font-weight="400" font-size="15" transform="translate(43.3755 303)">5. </text></g><text font-family="Calibri,Calibri_MSFontService,sans-serif" font-weight="700" font-size="15" transform="translate(57.8755 303)">No data value: <tspan font-weight="400" font-size="15" x="91.8333" y="0">255</tspan></text><g clip-path="url(#clip11)"><text font-family="Calibri,Calibri_MSFontService,sans-serif" font-weight="400" font-size="15" transform="translate(226.376 173)">1.</text></g><text font-family="Calibri,Calibri_MSFontService,sans-serif" font-weight="400" font-size="15" transform="translate(240.776 173)">​<tspan font-weight="700" font-size="15" x="0" y="0">​​Input layer</tspan><tspan font-size="15" x="66.1667" y="0">: </tspan><tspan font-size="15" x="73.5" y="0">'Output layer' </tspan><tspan font-size="15" x="0" y="17">from algorithm 'Root Zone </tspan><tspan font-size="15" x="0" y="35">Depth'</tspan></text><g clip-path="url(#clip12)"><text font-family="Calibri,Calibri_MSFontService,sans-serif" font-weight="400" font-size="15" transform="translate(226.376 236)">2.</text></g><text font-family="Calibri,Calibri_MSFontService,sans-serif" font-weight="400" font-size="15" transform="translate(240.776 236)">​<tspan font-weight="700" font-size="15" x="0" y="0">​Field to</tspan><tspan font-weight="700" font-size="15" x="48.8333" y="0">reclassify</tspan>:</text><g clip-path="url(#clip13)"><text font-family="Calibri,Calibri_MSFontService,sans-serif" font-weight="400" font-size="15" transform="translate(353.442 236)">RZD_mean</text></g><g clip-path="url(#clip14)"><text font-family="Calibri,Calibri_MSFontService,sans-serif" font-weight="400" font-size="15" transform="translate(226.376 264)">3.</text></g><text font-family="Calibri,Calibri_MSFontService,sans-serif" font-weight="400" font-size="15" transform="translate(240.776 264)">​<tspan font-weight="700" font-size="15" x="0" y="0">​Old values</tspan><tspan font-size="15" x="63.6667" y="0">: 0</tspan><tspan font-size="15" x="78.5" y="0">-</tspan>15, 15-45, 45-<tspan font-size="15" x="0" y="18">60, 60</tspan>-150​</text><g clip-path="url(#clip15)"><text font-family="Calibri,Calibri_MSFontService,sans-serif" font-weight="400" font-size="15" transform="translate(226.376 310)">4. </text></g><text font-family="Calibri,Calibri_MSFontService,sans-serif" font-weight="700" font-size="15" transform="translate(240.876 310)">New values: <tspan font-weight="400" font-size="15" x="77.5" y="0">3, 5, 7, 9</tspan></text><g clip-path="url(#clip16)"><text font-family="Calibri,Calibri_MSFontService,sans-serif" font-weight="400" font-size="15" transform="translate(226.376 339)">5. </text></g><text font-family="Calibri,Calibri_MSFontService,sans-serif" font-weight="700" font-size="15" transform="translate(240.876 339)">N<tspan font-size="15" x="9.66667" y="0">o data value: </tspan><tspan font-weight="400" font-size="15" x="91.8333" y="0">0</tspan></text><g clip-path="url(#clip17)"><text font-family="Calibri,Calibri_MSFontService,sans-serif" font-weight="400" font-size="15" transform="translate(226.376 367)">6. ​</text></g><text font-family="Calibri,Calibri_MSFontService,sans-serif" font-weight="700" font-size="15" transform="translate(240.876 367)">​​Output <tspan font-size="15" x="47.1667" y="0">column </tspan><tspan font-size="15" x="95.8333" y="0">name</tspan><tspan font-weight="400" font-size="15" x="130.167" y="0">: </tspan><tspan font-weight="400" font-size="15" x="137.5" y="0">RZD_r</tspan></text><g clip-path="url(#clip18)"><text font-family="Calibri,Calibri_MSFontService,sans-serif" font-weight="400" font-size="15" transform="translate(426.376 173)">1.</text></g><text font-family="Calibri,Calibri_MSFontService,sans-serif" font-weight="400" font-size="15" transform="translate(440.776 173)">​<tspan font-weight="700" font-size="15" x="0" y="0">Input layer</tspan><tspan font-size="15" x="66.1667" y="0">: 'Output layer' </tspan><tspan font-size="15" x="0" y="17">from algorithm 'Rec RZD’</tspan></text><g clip-path="url(#clip19)"><text font-family="Calibri,Calibri_MSFontService,sans-serif" font-weight="400" font-size="15" transform="translate(426.376 219)">2.</text></g><text font-family="Calibri,Calibri_MSFontService,sans-serif" font-weight="400" font-size="15" transform="translate(440.776 219)">​<tspan font-weight="700" font-size="15" x="0" y="0">Raster layer</tspan><tspan font-size="15" x="72.6667" y="0">: Drainage</tspan></text><g clip-path="url(#clip20)"><text font-family="Calibri,Calibri_MSFontService,sans-serif" font-weight="400" font-size="15" transform="translate(426.376 247)">3. </text></g><text font-family="Calibri,Calibri_MSFontService,sans-serif" font-weight="700" font-size="15" transform="translate(440.876 247)">Types of Statistics:<tspan font-weight="400" font-size="15" x="116.667" y="0">mean</tspan></text><g clip-path="url(#clip21)"><text font-family="Calibri,Calibri_MSFontService,sans-serif" font-weight="400" font-size="15" transform="translate(426.376 275)">4. </text></g><text font-family="Calibri,Calibri_MSFontService,sans-serif" font-weight="700" font-size="15" transform="translate(440.876 275)">Output column prefix: </text><g clip-path="url(#clip22)"><text font-family="Calibri,Calibri_MSFontService,sans-serif" font-weight="400" font-size="15" transform="translate(579.376 275)">Drain</text></g><g clip-path="url(#clip23)"><text font-family="Calibri,Calibri_MSFontService,sans-serif" font-weight="400" font-size="15" transform="translate(426.376 303)">5. </text></g><text font-family="Calibri,Calibri_MSFontService,sans-serif" font-weight="700" font-size="15" transform="translate(440.876 303)">No data value: <tspan font-weight="400" font-size="15" x="91.8333" y="0">255</tspan></text><g clip-path="url(#clip24)"><text font-family="Calibri,Calibri_MSFontService,sans-serif" font-weight="400" font-size="15" transform="translate(618.376 173)">1.</text></g><text font-family="Calibri,Calibri_MSFontService,sans-serif" font-weight="400" font-size="15" transform="translate(632.776 173)">​<tspan font-weight="700" font-size="15" x="0" y="0">​​Input layer</tspan><tspan font-size="15" x="66.1667" y="0">: 'Output layer' </tspan><tspan font-size="15" x="0" y="17">from algorithm 'Drainage’</tspan></text><g clip-path="url(#clip25)"><text font-family="Calibri,Calibri_MSFontService,sans-serif" font-weight="400" font-size="15" transform="translate(618.376 219)">2.</text></g><text font-family="Calibri,Calibri_MSFontService,sans-serif" font-weight="400" font-size="15" transform="translate(632.776 219)">​<tspan font-weight="700" font-size="15" x="0" y="0">​Field to</tspan><tspan font-weight="700" font-size="15" x="48.8334" y="0">reclassify</tspan>:<tspan font-size="15" x="0" y="17">Drain_mean</tspan></text><g clip-path="url(#clip26)"><text font-family="Calibri,Calibri_MSFontService,sans-serif" font-weight="400" font-size="15" transform="translate(618.376 264)">3.</text></g><text font-family="Calibri,Calibri_MSFontService,sans-serif" font-weight="400" font-size="15" transform="translate(632.776 264)">​<tspan font-weight="700" font-size="15" x="0" y="0">​Old values</tspan><tspan font-size="15" x="63.6667" y="0">: 3</tspan><tspan font-size="15" x="78.5" y="0">-</tspan>3.5, 3.5<tspan font-size="15" x="127.333" y="0">-</tspan>4.5, <tspan font-size="15" x="0" y="18">4.5</tspan><tspan font-size="15" x="18.6667" y="18">-</tspan>5</text><g clip-path="url(#clip27)"><text font-family="Calibri,Calibri_MSFontService,sans-serif" font-weight="400" font-size="15" transform="translate(618.376 310)">4. </text></g><text font-family="Calibri,Calibri_MSFontService,sans-serif" font-weight="700" font-size="15" transform="translate(632.876 310)">New values<tspan font-weight="400" font-size="15" x="70.1667" y="0">: 3, 7, 9 </tspan></text><g clip-path="url(#clip28)"><text font-family="Calibri,Calibri_MSFontService,sans-serif" font-weight="400" font-size="15" transform="translate(618.376 339)">5. </text></g><text font-family="Calibri,Calibri_MSFontService,sans-serif" font-weight="700" font-size="15" transform="translate(632.876 339)">N<tspan font-size="15" x="9.66663" y="0">o data value: </tspan><tspan font-weight="400" font-size="15" x="91.8333" y="0">0</tspan></text><g clip-path="url(#clip29)"><text font-family="Calibri,Calibri_MSFontService,sans-serif" font-weight="400" font-size="15" transform="translate(618.376 367)">6. ​</text></g><text font-family="Calibri,Calibri_MSFontService,sans-serif" font-weight="700" font-size="15" transform="translate(632.876 367)">​​Output column name<tspan font-weight="400" font-size="15" x="130.167" y="0">: </tspan></text><g clip-path="url(#clip30)"><text font-family="Calibri,Calibri_MSFontService,sans-serif" font-weight="400" font-size="15" transform="translate(618.376 384)">Drain_r</text></g></g></svg>