<svg width="773" height="287" xmlns="http://www.w3.org/2000/svg" xmlns:xlink="http://www.w3.org/1999/xlink" overflow="hidden"><defs><clipPath id="clip0"><rect x="46" y="134" width="773" height="287"/></clipPath><clipPath id="clip1"><rect x="46" y="90" width="184" height="135"/></clipPath><clipPath id="clip2"><rect x="229" y="90" width="201" height="135"/></clipPath><clipPath id="clip3"><rect x="429" y="90" width="193" height="135"/></clipPath><clipPath id="clip4"><rect x="621" y="90" width="197" height="135"/></clipPath><clipPath id="clip5"><rect x="46" y="-421" width="184" height="1408"/></clipPath><clipPath id="clip6"><rect x="46" y="-421" width="184" height="1408"/></clipPath><clipPath id="clip7"><rect x="46" y="-421" width="184" height="1408"/></clipPath><clipPath id="clip8"><rect x="46" y="-421" width="184" height="1408"/></clipPath><clipPath id="clip9"><rect x="46" y="-421" width="184" height="1408"/></clipPath><clipPath id="clip10"><rect x="46" y="-421" width="184" height="1408"/></clipPath><clipPath id="clip11"><rect x="229" y="-453" width="201" height="1483"/></clipPath><clipPath id="clip12"><rect x="229" y="-453" width="201" height="1483"/></clipPath><clipPath id="clip13"><rect x="229" y="-453" width="201" height="1483"/></clipPath><clipPath id="clip14"><rect x="229" y="-453" width="201" height="1483"/></clipPath><clipPath id="clip15"><rect x="229" y="-453" width="201" height="1483"/></clipPath><clipPath id="clip16"><rect x="229" y="-453" width="201" height="1483"/></clipPath><clipPath id="clip17"><rect x="229" y="-453" width="201" height="1483"/></clipPath><clipPath id="clip18"><rect x="429" y="-368" width="193" height="1285"/></clipPath><clipPath id="clip19"><rect x="429" y="-368" width="193" height="1285"/></clipPath><clipPath id="clip20"><rect x="429" y="-368" width="193" height="1285"/></clipPath><clipPath id="clip21"><rect x="429" y="-368" width="193" height="1285"/></clipPath><clipPath id="clip22"><rect x="429" y="-368" width="193" height="1285"/></clipPath><clipPath id="clip23"><rect x="429" y="-368" width="193" height="1285"/></clipPath><clipPath id="clip24"><rect x="429" y="-368" width="193" height="1285"/></clipPath><clipPath id="clip25"><rect x="621" y="-506" width="197" height="1606"/></clipPath><clipPath id="clip26"><rect x="621" y="-506" width="197" height="1606"/></clipPath><clipPath id="clip27"><rect x="621" y="-506" width="197" height="1606"/></clipPath><clipPath id="clip28"><rect x="621" y="-506" width="197" height="1606"/></clipPath><clipPath id="clip29"><rect x="621" y="-506" width="197" height="1606"/></clipPath><clipPath id="clip30"><rect x="621" y="-506" width="197" height="1606"/></clipPath><clipPath id="clip31"><rect x="621" y="-506" width="197" height="1606"/></clipPath><clipPath id="clip32"><rect x="621" y="-506" width="197" height="1606"/></clipPath></defs><g clip-path="url(#clip0)" transform="translate(-46 -134)"><path d="M46.7961 135 817.796 135" stroke="#70AD47" stroke-width="1.33333" stroke-linejoin="round" stroke-miterlimit="10" fill="none" fill-rule="evenodd"/><path d="M46.7961 415.286 817.796 415.286" stroke="#70AD47" stroke-width="1.33333" stroke-linejoin="round" stroke-miterlimit="10" fill="none" fill-rule="evenodd"/><g clip-path="url(#clip1)"><text font-family="Calibri,Calibri_MSFontService,sans-serif" font-weight="700" font-size="16" transform="translate(47.3755 163)">PH (0</text></g><text font-family="Calibri,Calibri_MSFontService,sans-serif" font-weight="700" font-size="16" transform="translate(82.8755 163)">-<tspan font-size="16" x="4.83333" y="0">5 cm)</tspan></text><path d="M47.3755 164.69 85.8755 164.69 124.376 164.69 124.376 165.69 85.8755 165.69 47.3755 165.69Z" fill-rule="evenodd"/><g clip-path="url(#clip2)"><text font-family="Calibri,Calibri_MSFontService,sans-serif" font-weight="700" font-size="16" transform="translate(230.376 163)">Rec PH (0</text></g><text font-family="Calibri,Calibri_MSFontService,sans-serif" font-weight="700" font-size="16" transform="translate(292.976 163)">-<tspan font-size="16" x="4.83334" y="0">5 cm)</tspan></text><path d="M230.376 164.69 265.042 164.69 299.709 164.69 334.376 164.69 334.376 165.69 299.709 165.69 265.042 165.69 230.376 165.69Z" fill-rule="evenodd"/><g clip-path="url(#clip3)"><text font-family="Calibri,Calibri_MSFontService,sans-serif" font-weight="700" font-size="16" transform="translate(430.376 163)">PH (5</text></g><text font-family="Calibri,Calibri_MSFontService,sans-serif" font-weight="700" font-size="16" transform="translate(465.876 163)">-<tspan font-size="16" x="4.83331" y="0">15 cm)</tspan></text><path d="M430.376 164.69 472.876 164.69 515.376 164.69 515.376 165.69 472.876 165.69 430.376 165.69Z" fill-rule="evenodd"/><g clip-path="url(#clip4)"><text font-family="Calibri,Calibri_MSFontService,sans-serif" font-weight="700" font-size="16" transform="translate(622.376 163)">Rec PH (5</text></g><text font-family="Calibri,Calibri_MSFontService,sans-serif" font-weight="700" font-size="16" transform="translate(684.976 163)">-<tspan font-size="16" x="4.83337" y="0">15 cm)</tspan></text><path d="M622.376 164.69 659.709 164.69 697.042 164.69 734.376 164.69 734.376 165.69 697.042 165.69 659.709 165.69 622.376 165.69Z" fill-rule="evenodd"/><g clip-path="url(#clip5)"><text font-family="Calibri,Calibri_MSFontService,sans-serif" font-weight="400" font-size="15" transform="translate(47.3755 196)">1.</text></g><text font-family="Calibri,Calibri_MSFontService,sans-serif" font-weight="400" font-size="15" transform="translate(61.7755 196)">​<tspan font-weight="700" font-size="15" x="0" y="0">Input layer</tspan><tspan font-size="15" x="66.1667" y="0">: </tspan><tspan font-size="15" x="73.5" y="0">'Output layer' </tspan><tspan font-size="15" x="0" y="17">from algorithm 'Rec </tspan><tspan font-size="15" x="0" y="35">Drainage'</tspan></text><g clip-path="url(#clip6)"><text font-family="Calibri,Calibri_MSFontService,sans-serif" font-weight="400" font-size="15" transform="translate(47.3755 259)">2.</text></g><text font-family="Calibri,Calibri_MSFontService,sans-serif" font-weight="400" font-size="15" transform="translate(61.7755 259)">​<tspan font-weight="700" font-size="15" x="0" y="0">Raster </tspan><tspan font-weight="700" font-size="15" x="42.3333" y="0">layer</tspan><tspan font-size="15" x="72.6667" y="0">: </tspan><tspan font-size="15" x="80" y="0">Soil (0</tspan><tspan font-size="15" x="116.333" y="0">-</tspan>5 cm) <tspan font-size="15" x="0" y="18">PH Value</tspan></text><g clip-path="url(#clip7)"><text font-family="Calibri,Calibri_MSFontService,sans-serif" font-weight="400" font-size="15" transform="translate(47.3755 305)">3. </text></g><text font-family="Calibri,Calibri_MSFontService,sans-serif" font-weight="700" font-size="15" transform="translate(61.8755 305)">Types of Statistics:<tspan font-weight="400" font-size="15" x="116.667" y="0">mean</tspan></text><g clip-path="url(#clip8)"><text font-family="Calibri,Calibri_MSFontService,sans-serif" font-weight="400" font-size="15" transform="translate(47.3755 333)">4. </text></g><text font-family="Calibri,Calibri_MSFontService,sans-serif" font-weight="700" font-size="15" transform="translate(61.8755 333)">Output column prefix: </text><g clip-path="url(#clip9)"><text font-family="Calibri,Calibri_MSFontService,sans-serif" font-weight="400" font-size="15" transform="translate(47.3755 351)">PHd1</text></g><g clip-path="url(#clip10)"><text font-family="Calibri,Calibri_MSFontService,sans-serif" font-weight="400" font-size="15" transform="translate(47.3755 379)">5. </text></g><text font-family="Calibri,Calibri_MSFontService,sans-serif" font-weight="700" font-size="15" transform="translate(61.8755 379)">No data value: <tspan font-weight="400" font-size="15" x="91.8333" y="0">255</tspan></text><g clip-path="url(#clip11)"><text font-family="Calibri,Calibri_MSFontService,sans-serif" font-weight="400" font-size="15" transform="translate(230.376 196)">1.</text></g><text font-family="Calibri,Calibri_MSFontService,sans-serif" font-weight="400" font-size="15" transform="translate(244.776 196)">​<tspan font-weight="700" font-size="15" x="0" y="0">​​Input layer</tspan><tspan font-size="15" x="66.1667" y="0">: </tspan><tspan font-size="15" x="73.5" y="0">'Output layer' </tspan><tspan font-size="15" x="0" y="17">from algorithm 'PH (0</tspan><tspan font-size="15" x="128.333" y="17">-</tspan>5 cm)’</text><g clip-path="url(#clip12)"><text font-family="Calibri,Calibri_MSFontService,sans-serif" font-weight="400" font-size="15" transform="translate(230.376 242)">2.</text></g><text font-family="Calibri,Calibri_MSFontService,sans-serif" font-weight="400" font-size="15" transform="translate(244.776 242)">​<tspan font-weight="700" font-size="15" x="0" y="0">​</tspan><tspan font-weight="700" font-size="15" x="0" y="0">Field to</tspan><tspan font-weight="700" font-size="15" x="48.8333" y="0">reclassify</tspan>:<tspan font-size="15" x="0" y="17">PHd1_mean</tspan></text><g clip-path="url(#clip13)"><text font-family="Calibri,Calibri_MSFontService,sans-serif" font-weight="400" font-size="15" transform="translate(230.376 287)">3.</text></g><text font-family="Calibri,Calibri_MSFontService,sans-serif" font-weight="400" font-size="15" transform="translate(244.776 287)">​<tspan font-weight="700" font-size="15" x="0" y="0">​Old values</tspan><tspan font-size="15" x="63.6667" y="0">: 0</tspan><tspan font-size="15" x="78.5" y="0">-</tspan>45, 45-55, 55-<tspan font-size="15" x="0" y="18">79, 79</tspan>-84, 84-140</text><g clip-path="url(#clip14)"><text font-family="Calibri,Calibri_MSFontService,sans-serif" font-weight="400" font-size="15" transform="translate(230.376 333)">4. </text></g><text font-family="Calibri,Calibri_MSFontService,sans-serif" font-weight="700" font-size="15" transform="translate(244.876 333)">New values: <tspan font-weight="400" font-size="15" x="77.5" y="0">3, 7, 9, 6, 3</tspan></text><g clip-path="url(#clip15)"><text font-family="Calibri,Calibri_MSFontService,sans-serif" font-weight="400" font-size="15" transform="translate(230.376 362)">5. </text></g><text font-family="Calibri,Calibri_MSFontService,sans-serif" font-weight="700" font-size="15" transform="translate(244.876 362)">N<tspan font-size="15" x="9.66667" y="0">o data value: </tspan><tspan font-weight="400" font-size="15" x="91.8333" y="0">0</tspan></text><g clip-path="url(#clip16)"><text font-family="Calibri,Calibri_MSFontService,sans-serif" font-weight="400" font-size="15" transform="translate(230.376 390)">6. ​</text></g><text font-family="Calibri,Calibri_MSFontService,sans-serif" font-weight="700" font-size="15" transform="translate(244.876 390)">​​Output <tspan font-size="15" x="47.1667" y="0">column </tspan><tspan font-size="15" x="95.8333" y="0">name</tspan><tspan font-weight="400" font-size="15" x="130.167" y="0">: </tspan></text><g clip-path="url(#clip17)"><text font-family="Calibri,Calibri_MSFontService,sans-serif" font-weight="400" font-size="15" transform="translate(382.376 390)">PHd1_r</text></g><g clip-path="url(#clip18)"><text font-family="Calibri,Calibri_MSFontService,sans-serif" font-weight="400" font-size="15" transform="translate(430.376 196)">1.</text></g><text font-family="Calibri,Calibri_MSFontService,sans-serif" font-weight="400" font-size="15" transform="translate(444.776 196)">​<tspan font-weight="700" font-size="15" x="0" y="0">Input layer</tspan><tspan font-size="15" x="66.1667" y="0">: 'Output layer' </tspan><tspan font-size="15" x="0" y="17">from algorithm 'Rec PH (0</tspan>-</text><g clip-path="url(#clip19)"><text font-family="Calibri,Calibri_MSFontService,sans-serif" font-weight="400" font-size="15" transform="translate(602.442 213)">5 </text></g><text font-family="Calibri,Calibri_MSFontService,sans-serif" font-weight="400" font-size="15" transform="translate(444.776 231)">cm)'</text><g clip-path="url(#clip20)"><text font-family="Calibri,Calibri_MSFontService,sans-serif" font-weight="400" font-size="15" transform="translate(430.376 259)">2.</text></g><text font-family="Calibri,Calibri_MSFontService,sans-serif" font-weight="400" font-size="15" transform="translate(444.776 259)">​<tspan font-weight="700" font-size="15" x="0" y="0">Raster layer</tspan><tspan font-size="15" x="72.6667" y="0">: Soil (5</tspan><tspan font-size="15" x="116.333" y="0">-</tspan>15 cm) <tspan font-size="15" x="0" y="18">PH Value</tspan></text><g clip-path="url(#clip21)"><text font-family="Calibri,Calibri_MSFontService,sans-serif" font-weight="400" font-size="15" transform="translate(430.376 305)">3. </text></g><text font-family="Calibri,Calibri_MSFontService,sans-serif" font-weight="700" font-size="15" transform="translate(444.876 305)">Types of Statistics:<tspan font-weight="400" font-size="15" x="116.667" y="0">mean</tspan></text><g clip-path="url(#clip22)"><text font-family="Calibri,Calibri_MSFontService,sans-serif" font-weight="400" font-size="15" transform="translate(430.376 333)">4. </text></g><text font-family="Calibri,Calibri_MSFontService,sans-serif" font-weight="700" font-size="15" transform="translate(444.876 333)">Output column prefix: </text><g clip-path="url(#clip23)"><text font-family="Calibri,Calibri_MSFontService,sans-serif" font-weight="400" font-size="15" transform="translate(583.376 333)">PHd2</text></g><g clip-path="url(#clip24)"><text font-family="Calibri,Calibri_MSFontService,sans-serif" font-weight="400" font-size="15" transform="translate(430.376 362)">5. </text></g><text font-family="Calibri,Calibri_MSFontService,sans-serif" font-weight="700" font-size="15" transform="translate(444.876 362)">No data value: <tspan font-weight="400" font-size="15" x="91.8333" y="0">255</tspan></text><g clip-path="url(#clip25)"><text font-family="Calibri,Calibri_MSFontService,sans-serif" font-weight="400" font-size="15" transform="translate(622.376 196)">1.</text></g><text font-family="Calibri,Calibri_MSFontService,sans-serif" font-weight="400" font-size="15" transform="translate(636.776 196)">​<tspan font-weight="700" font-size="15" x="0" y="0">​​Input layer</tspan><tspan font-size="15" x="66.1667" y="0">: 'Output layer' </tspan><tspan font-size="15" x="0" y="17">from algorithm 'PH (5</tspan><tspan font-size="15" x="128.333" y="17">-</tspan></text><g clip-path="url(#clip26)"><text font-family="Calibri,Calibri_MSFontService,sans-serif" font-weight="400" font-size="15" transform="translate(769.609 213)">15 cm)’</text></g><g clip-path="url(#clip27)"><text font-family="Calibri,Calibri_MSFontService,sans-serif" font-weight="400" font-size="15" transform="translate(622.376 242)">2.</text></g><text font-family="Calibri,Calibri_MSFontService,sans-serif" font-weight="400" font-size="15" transform="translate(636.776 242)">​<tspan font-weight="700" font-size="15" x="0" y="0">​Field to</tspan><tspan font-weight="700" font-size="15" x="48.8334" y="0">reclassify</tspan>:<tspan font-size="15" x="0" y="17">PHd2_mean</tspan></text><g clip-path="url(#clip28)"><text font-family="Calibri,Calibri_MSFontService,sans-serif" font-weight="400" font-size="15" transform="translate(622.376 287)">3.</text></g><text font-family="Calibri,Calibri_MSFontService,sans-serif" font-weight="400" font-size="15" transform="translate(636.776 287)">​<tspan font-weight="700" font-size="15" x="0" y="0">​Old values</tspan><tspan font-size="15" x="63.6667" y="0">: 0</tspan><tspan font-size="15" x="78.5" y="0">-</tspan>45, 45-55, 55-<tspan font-size="15" x="0" y="18">79, 79</tspan>-84, 84-140</text><g clip-path="url(#clip29)"><text font-family="Calibri,Calibri_MSFontService,sans-serif" font-weight="400" font-size="15" transform="translate(622.376 333)">4. </text></g><text font-family="Calibri,Calibri_MSFontService,sans-serif" font-weight="700" font-size="15" transform="translate(636.876 333)">New values<tspan font-weight="400" font-size="15" x="70.1667" y="0">: 3, 7, 9, 6, 3</tspan></text><g clip-path="url(#clip30)"><text font-family="Calibri,Calibri_MSFontService,sans-serif" font-weight="400" font-size="15" transform="translate(622.376 362)">5. </text></g><text font-family="Calibri,Calibri_MSFontService,sans-serif" font-weight="700" font-size="15" transform="translate(636.876 362)">N<tspan font-size="15" x="9.66663" y="0">o data value: </tspan><tspan font-weight="400" font-size="15" x="91.8333" y="0">0</tspan></text><g clip-path="url(#clip31)"><text font-family="Calibri,Calibri_MSFontService,sans-serif" font-weight="400" font-size="15" transform="translate(622.376 390)">6. ​</text></g><text font-family="Calibri,Calibri_MSFontService,sans-serif" font-weight="700" font-size="15" transform="translate(636.876 390)">​​Output column name<tspan font-weight="400" font-size="15" x="130.167" y="0">: </tspan></text><g clip-path="url(#clip32)"><text font-family="Calibri,Calibri_MSFontService,sans-serif" font-weight="400" font-size="15" transform="translate(622.376 407)">PHd2_r</text></g></g></svg>