<svg width="773" height="305" xmlns="http://www.w3.org/2000/svg" xmlns:xlink="http://www.w3.org/1999/xlink" overflow="hidden"><defs><clipPath id="clip0"><rect x="42" y="111" width="773" height="305"/></clipPath><clipPath id="clip1"><rect x="42" y="67" width="184" height="135"/></clipPath><clipPath id="clip2"><rect x="225" y="67" width="201" height="135"/></clipPath><clipPath id="clip3"><rect x="425" y="67" width="193" height="135"/></clipPath><clipPath id="clip4"><rect x="617" y="67" width="197" height="135"/></clipPath><clipPath id="clip5"><rect x="42" y="-444" width="184" height="1408"/></clipPath><clipPath id="clip6"><rect x="42" y="-444" width="184" height="1408"/></clipPath><clipPath id="clip7"><rect x="42" y="-444" width="184" height="1408"/></clipPath><clipPath id="clip8"><rect x="42" y="-444" width="184" height="1408"/></clipPath><clipPath id="clip9"><rect x="42" y="-444" width="184" height="1408"/></clipPath><clipPath id="clip10"><rect x="42" y="-444" width="184" height="1408"/></clipPath><clipPath id="clip11"><rect x="225" y="-476" width="201" height="1483"/></clipPath><clipPath id="clip12"><rect x="225" y="-476" width="201" height="1483"/></clipPath><clipPath id="clip13"><rect x="225" y="-476" width="201" height="1483"/></clipPath><clipPath id="clip14"><rect x="225" y="-476" width="201" height="1483"/></clipPath><clipPath id="clip15"><rect x="225" y="-476" width="201" height="1483"/></clipPath><clipPath id="clip16"><rect x="225" y="-476" width="201" height="1483"/></clipPath><clipPath id="clip17"><rect x="225" y="-476" width="201" height="1483"/></clipPath><clipPath id="clip18"><rect x="225" y="-476" width="201" height="1483"/></clipPath><clipPath id="clip19"><rect x="425" y="-391" width="193" height="1285"/></clipPath><clipPath id="clip20"><rect x="425" y="-391" width="193" height="1285"/></clipPath><clipPath id="clip21"><rect x="425" y="-391" width="193" height="1285"/></clipPath><clipPath id="clip22"><rect x="425" y="-391" width="193" height="1285"/></clipPath><clipPath id="clip23"><rect x="425" y="-391" width="193" height="1285"/></clipPath><clipPath id="clip24"><rect x="425" y="-391" width="193" height="1285"/></clipPath><clipPath id="clip25"><rect x="425" y="-391" width="193" height="1285"/></clipPath><clipPath id="clip26"><rect x="617" y="-582" width="197" height="1730"/></clipPath><clipPath id="clip27"><rect x="617" y="-582" width="197" height="1730"/></clipPath><clipPath id="clip28"><rect x="617" y="-582" width="197" height="1730"/></clipPath><clipPath id="clip29"><rect x="617" y="-582" width="197" height="1730"/></clipPath><clipPath id="clip30"><rect x="617" y="-582" width="197" height="1730"/></clipPath><clipPath id="clip31"><rect x="617" y="-582" width="197" height="1730"/></clipPath><clipPath id="clip32"><rect x="617" y="-582" width="197" height="1730"/></clipPath></defs><g clip-path="url(#clip0)" transform="translate(-42 -111)"><path d="M42.7961 112 813.796 112" stroke="#70AD47" stroke-width="1.33333" stroke-linejoin="round" stroke-miterlimit="10" fill="none" fill-rule="evenodd"/><path d="M42.7961 409.886 813.796 409.886" stroke="#70AD47" stroke-width="1.33333" stroke-linejoin="round" stroke-miterlimit="10" fill="none" fill-rule="evenodd"/><g clip-path="url(#clip1)"><text font-family="Calibri,Calibri_MSFontService,sans-serif" font-weight="700" font-size="16" transform="translate(43.3755 140)">PH (15</text></g><text font-family="Calibri,Calibri_MSFontService,sans-serif" font-weight="700" font-size="16" transform="translate(87.0422 140)">-<tspan font-size="16" x="4.83334" y="0">30 cm)</tspan></text><path d="M43.3755 141.69 74.3755 141.69 105.376 141.69 136.376 141.69 136.376 142.69 105.376 142.69 74.3755 142.69 43.3755 142.69Z" fill-rule="evenodd"/><g clip-path="url(#clip2)"><text font-family="Calibri,Calibri_MSFontService,sans-serif" font-weight="700" font-size="16" transform="translate(226.376 140)">Rec PH (15</text></g><text font-family="Calibri,Calibri_MSFontService,sans-serif" font-weight="700" font-size="16" transform="translate(297.142 140)">-<tspan font-size="16" x="4.83331" y="0">30 cm)</tspan></text><path d="M226.376 141.69 266.376 141.69 306.376 141.69 346.376 141.69 346.376 142.69 306.376 142.69 266.376 142.69 226.376 142.69Z" fill-rule="evenodd"/><g clip-path="url(#clip3)"><text font-family="Calibri,Calibri_MSFontService,sans-serif" font-weight="700" font-size="16" transform="translate(426.376 140)">PH (30</text></g><text font-family="Calibri,Calibri_MSFontService,sans-serif" font-weight="700" font-size="16" transform="translate(470.042 140)">-<tspan font-size="16" x="4.83334" y="0">60 cm)</tspan></text><path d="M426.376 141.69 472.876 141.69 519.376 141.69 519.376 142.69 472.876 142.69 426.376 142.69Z" fill-rule="evenodd"/><g clip-path="url(#clip4)"><text font-family="Calibri,Calibri_MSFontService,sans-serif" font-weight="700" font-size="16" transform="translate(618.376 140)">Rec PH (30</text></g><text font-family="Calibri,Calibri_MSFontService,sans-serif" font-weight="700" font-size="16" transform="translate(689.142 140)">-<tspan font-size="16" x="4.83331" y="0">60 cm)</tspan></text><path d="M618.376 141.69 658.376 141.69 698.376 141.69 738.376 141.69 738.376 142.69 698.376 142.69 658.376 142.69 618.376 142.69Z" fill-rule="evenodd"/><g clip-path="url(#clip5)"><text font-family="Calibri,Calibri_MSFontService,sans-serif" font-weight="400" font-size="15" transform="translate(43.3755 173)">1.</text></g><text font-family="Calibri,Calibri_MSFontService,sans-serif" font-weight="400" font-size="15" transform="translate(57.7755 173)">​<tspan font-weight="700" font-size="15" x="0" y="0">Input layer</tspan><tspan font-size="15" x="66.1667" y="0">: </tspan><tspan font-size="15" x="73.5" y="0">'Output layer' </tspan><tspan font-size="15" x="0" y="17">from algorithm 'Rec PH (5</tspan><tspan font-size="15" x="153.167" y="17">-</tspan><tspan font-size="15" x="0" y="35">15 cm)'</tspan></text><g clip-path="url(#clip6)"><text font-family="Calibri,Calibri_MSFontService,sans-serif" font-weight="400" font-size="15" transform="translate(43.3755 236)">2.</text></g><text font-family="Calibri,Calibri_MSFontService,sans-serif" font-weight="400" font-size="15" transform="translate(57.7755 236)">​<tspan font-weight="700" font-size="15" x="0" y="0">Raster layer</tspan><tspan font-size="15" x="72.6667" y="0">: Soil (15</tspan>-30 <tspan font-size="15" x="0" y="18">cm) PH Value</tspan></text><g clip-path="url(#clip7)"><text font-family="Calibri,Calibri_MSFontService,sans-serif" font-weight="400" font-size="15" transform="translate(43.3755 282)">3. </text></g><text font-family="Calibri,Calibri_MSFontService,sans-serif" font-weight="700" font-size="15" transform="translate(57.8755 282)">Types of Statistics:<tspan font-weight="400" font-size="15" x="116.667" y="0">mean</tspan></text><g clip-path="url(#clip8)"><text font-family="Calibri,Calibri_MSFontService,sans-serif" font-weight="400" font-size="15" transform="translate(43.3755 310)">4. </text></g><text font-family="Calibri,Calibri_MSFontService,sans-serif" font-weight="700" font-size="15" transform="translate(57.8755 310)">Output column prefix: </text><g clip-path="url(#clip9)"><text font-family="Calibri,Calibri_MSFontService,sans-serif" font-weight="400" font-size="15" transform="translate(43.3755 328)">PHd3</text></g><g clip-path="url(#clip10)"><text font-family="Calibri,Calibri_MSFontService,sans-serif" font-weight="400" font-size="15" transform="translate(43.3755 356)">5. </text></g><text font-family="Calibri,Calibri_MSFontService,sans-serif" font-weight="700" font-size="15" transform="translate(57.8755 356)">No data value: <tspan font-weight="400" font-size="15" x="91.8333" y="0">255</tspan></text><g clip-path="url(#clip11)"><text font-family="Calibri,Calibri_MSFontService,sans-serif" font-weight="400" font-size="15" transform="translate(226.376 173)">1.</text></g><text font-family="Calibri,Calibri_MSFontService,sans-serif" font-weight="400" font-size="15" transform="translate(240.776 173)">​<tspan font-weight="700" font-size="15" x="0" y="0">​​Input layer</tspan><tspan font-size="15" x="66.1667" y="0">: </tspan><tspan font-size="15" x="73.5" y="0">'Output layer' </tspan><tspan font-size="15" x="0" y="17">from algorithm 'PH (15</tspan><tspan font-size="15" x="135.833" y="17">-</tspan></text><g clip-path="url(#clip12)"><text font-family="Calibri,Calibri_MSFontService,sans-serif" font-weight="400" font-size="15" transform="translate(381.109 190)">30 cm)'</text></g><g clip-path="url(#clip13)"><text font-family="Calibri,Calibri_MSFontService,sans-serif" font-weight="400" font-size="15" transform="translate(226.376 219)">2.</text></g><text font-family="Calibri,Calibri_MSFontService,sans-serif" font-weight="400" font-size="15" transform="translate(240.776 219)">​<tspan font-weight="700" font-size="15" x="0" y="0">​</tspan><tspan font-weight="700" font-size="15" x="0" y="0">Field to</tspan><tspan font-weight="700" font-size="15" x="48.8333" y="0">reclassify</tspan>:<tspan font-size="15" x="0" y="17">PHd3_mean</tspan></text><g clip-path="url(#clip14)"><text font-family="Calibri,Calibri_MSFontService,sans-serif" font-weight="400" font-size="15" transform="translate(226.376 264)">3.</text></g><text font-family="Calibri,Calibri_MSFontService,sans-serif" font-weight="400" font-size="15" transform="translate(240.776 264)">​<tspan font-weight="700" font-size="15" x="0" y="0">​Old values</tspan><tspan font-size="15" x="63.6667" y="0">: 0</tspan><tspan font-size="15" x="78.5" y="0">-</tspan>45, 45-55, 55-<tspan font-size="15" x="0" y="18">79, 79</tspan>-84, 84-140</text><g clip-path="url(#clip15)"><text font-family="Calibri,Calibri_MSFontService,sans-serif" font-weight="400" font-size="15" transform="translate(226.376 310)">4. </text></g><text font-family="Calibri,Calibri_MSFontService,sans-serif" font-weight="700" font-size="15" transform="translate(240.876 310)">New values: <tspan font-weight="400" font-size="15" x="77.5" y="0">3, 7, 9, 6, 3</tspan></text><g clip-path="url(#clip16)"><text font-family="Calibri,Calibri_MSFontService,sans-serif" font-weight="400" font-size="15" transform="translate(226.376 339)">5. </text></g><text font-family="Calibri,Calibri_MSFontService,sans-serif" font-weight="700" font-size="15" transform="translate(240.876 339)">N<tspan font-size="15" x="9.66667" y="0">o data value: </tspan><tspan font-weight="400" font-size="15" x="91.8333" y="0">0</tspan></text><g clip-path="url(#clip17)"><text font-family="Calibri,Calibri_MSFontService,sans-serif" font-weight="400" font-size="15" transform="translate(226.376 367)">6. ​</text></g><text font-family="Calibri,Calibri_MSFontService,sans-serif" font-weight="700" font-size="15" transform="translate(240.876 367)">​​Output <tspan font-size="15" x="47.1667" y="0">column </tspan><tspan font-size="15" x="95.8333" y="0">name</tspan><tspan font-weight="400" font-size="15" x="130.167" y="0">: </tspan></text><g clip-path="url(#clip18)"><text font-family="Calibri,Calibri_MSFontService,sans-serif" font-weight="400" font-size="15" transform="translate(378.376 367)">PHd3_r</text></g><g clip-path="url(#clip19)"><text font-family="Calibri,Calibri_MSFontService,sans-serif" font-weight="400" font-size="15" transform="translate(426.376 173)">1.</text></g><text font-family="Calibri,Calibri_MSFontService,sans-serif" font-weight="400" font-size="15" transform="translate(440.776 173)">​<tspan font-weight="700" font-size="15" x="0" y="0">Input layer</tspan><tspan font-size="15" x="66.1667" y="0">: 'Output layer' </tspan><tspan font-size="15" x="0" y="17">from algorithm 'Rec PH (15</tspan>-<tspan font-size="15" x="0" y="35">30 cm)'</tspan></text><g clip-path="url(#clip20)"><text font-family="Calibri,Calibri_MSFontService,sans-serif" font-weight="400" font-size="15" transform="translate(426.376 236)">2.</text></g><text font-family="Calibri,Calibri_MSFontService,sans-serif" font-weight="400" font-size="15" transform="translate(440.776 236)">​<tspan font-weight="700" font-size="15" x="0" y="0">Raster layer</tspan><tspan font-size="15" x="72.6667" y="0">: Soil (30</tspan><tspan font-size="15" x="123.833" y="0">-</tspan></text><g clip-path="url(#clip21)"><text font-family="Calibri,Calibri_MSFontService,sans-serif" font-weight="400" font-size="15" transform="translate(569.109 236)">60 cm) </text></g><text font-family="Calibri,Calibri_MSFontService,sans-serif" font-weight="400" font-size="15" transform="translate(440.776 254)">PH Value</text><g clip-path="url(#clip22)"><text font-family="Calibri,Calibri_MSFontService,sans-serif" font-weight="400" font-size="15" transform="translate(426.376 282)">3. </text></g><text font-family="Calibri,Calibri_MSFontService,sans-serif" font-weight="700" font-size="15" transform="translate(440.876 282)">Types of Statistics:<tspan font-weight="400" font-size="15" x="116.667" y="0">mean</tspan></text><g clip-path="url(#clip23)"><text font-family="Calibri,Calibri_MSFontService,sans-serif" font-weight="400" font-size="15" transform="translate(426.376 310)">4. </text></g><text font-family="Calibri,Calibri_MSFontService,sans-serif" font-weight="700" font-size="15" transform="translate(440.876 310)">Output column prefix: </text><g clip-path="url(#clip24)"><text font-family="Calibri,Calibri_MSFontService,sans-serif" font-weight="400" font-size="15" transform="translate(579.376 310)">PHd4</text></g><g clip-path="url(#clip25)"><text font-family="Calibri,Calibri_MSFontService,sans-serif" font-weight="400" font-size="15" transform="translate(426.376 339)">5. </text></g><text font-family="Calibri,Calibri_MSFontService,sans-serif" font-weight="700" font-size="15" transform="translate(440.876 339)">No data value: <tspan font-weight="400" font-size="15" x="91.8333" y="0">255</tspan></text><g clip-path="url(#clip26)"><text font-family="Calibri,Calibri_MSFontService,sans-serif" font-weight="400" font-size="15" transform="translate(618.376 173)">1.</text></g><text font-family="Calibri,Calibri_MSFontService,sans-serif" font-weight="400" font-size="15" transform="translate(632.776 173)">​<tspan font-weight="700" font-size="15" x="0" y="0">​​Input layer</tspan><tspan font-size="15" x="66.1667" y="0">: 'Output layer' </tspan><tspan font-size="15" x="0" y="17">from algorithm 'PH (30</tspan><tspan font-size="15" x="135.833" y="17">-</tspan>60 <tspan font-size="15" x="0" y="35">cm)'</tspan></text><g clip-path="url(#clip27)"><text font-family="Calibri,Calibri_MSFontService,sans-serif" font-weight="400" font-size="15" transform="translate(618.376 236)">2.</text></g><text font-family="Calibri,Calibri_MSFontService,sans-serif" font-weight="400" font-size="15" transform="translate(632.776 236)">​<tspan font-weight="700" font-size="15" x="0" y="0">​Field to</tspan><tspan font-weight="700" font-size="15" x="48.8334" y="0">reclassify</tspan>:<tspan font-size="15" x="0" y="18">PHd4_mean</tspan></text><g clip-path="url(#clip28)"><text font-family="Calibri,Calibri_MSFontService,sans-serif" font-weight="400" font-size="15" transform="translate(618.376 282)">3.</text></g><text font-family="Calibri,Calibri_MSFontService,sans-serif" font-weight="400" font-size="15" transform="translate(632.776 282)">​<tspan font-weight="700" font-size="15" x="0" y="0">​Old values</tspan><tspan font-size="15" x="63.6667" y="0">: 0</tspan><tspan font-size="15" x="78.5" y="0">-</tspan>45, 45-55, 55-<tspan font-size="15" x="0" y="18">79, 79</tspan>-84, 84-140</text><g clip-path="url(#clip29)"><text font-family="Calibri,Calibri_MSFontService,sans-serif" font-weight="400" font-size="15" transform="translate(618.376 328)">4. </text></g><text font-family="Calibri,Calibri_MSFontService,sans-serif" font-weight="700" font-size="15" transform="translate(632.876 328)">New values<tspan font-weight="400" font-size="15" x="70.1667" y="0">: 3, 7, 9, 6, 3</tspan></text><g clip-path="url(#clip30)"><text font-family="Calibri,Calibri_MSFontService,sans-serif" font-weight="400" font-size="15" transform="translate(618.376 356)">5. </text></g><text font-family="Calibri,Calibri_MSFontService,sans-serif" font-weight="700" font-size="15" transform="translate(632.876 356)">N<tspan font-size="15" x="9.66663" y="0">o data value: </tspan><tspan font-weight="400" font-size="15" x="91.8333" y="0">0</tspan></text><g clip-path="url(#clip31)"><text font-family="Calibri,Calibri_MSFontService,sans-serif" font-weight="400" font-size="15" transform="translate(618.376 384)">6. ​</text></g><text font-family="Calibri,Calibri_MSFontService,sans-serif" font-weight="700" font-size="15" transform="translate(632.876 384)">​​Output column name<tspan font-weight="400" font-size="15" x="130.167" y="0">: </tspan></text><g clip-path="url(#clip32)"><text font-family="Calibri,Calibri_MSFontService,sans-serif" font-weight="400" font-size="15" transform="translate(618.376 402)">PHd4_r</text></g></g></svg>