<svg width="990" height="306" xmlns="http://www.w3.org/2000/svg" xmlns:xlink="http://www.w3.org/1999/xlink" overflow="hidden"><defs><clipPath id="clip0"><rect x="39" y="111" width="990" height="306"/></clipPath><clipPath id="clip1"><rect x="40" y="68" width="183" height="135"/></clipPath><clipPath id="clip2"><rect x="223" y="68" width="200" height="135"/></clipPath><clipPath id="clip3"><rect x="423" y="68" width="192" height="135"/></clipPath><clipPath id="clip4"><rect x="615" y="68" width="196" height="135"/></clipPath><clipPath id="clip5"><rect x="811" y="0" width="217" height="270"/></clipPath><clipPath id="clip6"><rect x="811" y="0" width="217" height="270"/></clipPath><clipPath id="clip7"><rect x="40" y="-443" width="183" height="1408"/></clipPath><clipPath id="clip8"><rect x="40" y="-443" width="183" height="1408"/></clipPath><clipPath id="clip9"><rect x="40" y="-443" width="183" height="1408"/></clipPath><clipPath id="clip10"><rect x="40" y="-443" width="183" height="1408"/></clipPath><clipPath id="clip11"><rect x="40" y="-443" width="183" height="1408"/></clipPath><clipPath id="clip12"><rect x="40" y="-443" width="183" height="1408"/></clipPath><clipPath id="clip13"><rect x="40" y="-443" width="183" height="1408"/></clipPath><clipPath id="clip14"><rect x="40" y="-443" width="183" height="1408"/></clipPath><clipPath id="clip15"><rect x="223" y="-528" width="200" height="1606"/></clipPath><clipPath id="clip16"><rect x="223" y="-528" width="200" height="1606"/></clipPath><clipPath id="clip17"><rect x="223" y="-528" width="200" height="1606"/></clipPath><clipPath id="clip18"><rect x="223" y="-528" width="200" height="1606"/></clipPath><clipPath id="clip19"><rect x="223" y="-528" width="200" height="1606"/></clipPath><clipPath id="clip20"><rect x="223" y="-528" width="200" height="1606"/></clipPath><clipPath id="clip21"><rect x="223" y="-528" width="200" height="1606"/></clipPath><clipPath id="clip22"><rect x="423" y="-390" width="192" height="1285"/></clipPath><clipPath id="clip23"><rect x="423" y="-390" width="192" height="1285"/></clipPath><clipPath id="clip24"><rect x="423" y="-390" width="192" height="1285"/></clipPath><clipPath id="clip25"><rect x="423" y="-390" width="192" height="1285"/></clipPath><clipPath id="clip26"><rect x="423" y="-390" width="192" height="1285"/></clipPath><clipPath id="clip27"><rect x="423" y="-390" width="192" height="1285"/></clipPath><clipPath id="clip28"><rect x="615" y="-581" width="196" height="1730"/></clipPath><clipPath id="clip29"><rect x="615" y="-581" width="196" height="1730"/></clipPath><clipPath id="clip30"><rect x="615" y="-581" width="196" height="1730"/></clipPath><clipPath id="clip31"><rect x="615" y="-581" width="196" height="1730"/></clipPath><clipPath id="clip32"><rect x="615" y="-581" width="196" height="1730"/></clipPath><clipPath id="clip33"><rect x="615" y="-581" width="196" height="1730"/></clipPath><clipPath id="clip34"><rect x="615" y="-581" width="196" height="1730"/></clipPath><clipPath id="clip35"><rect x="615" y="-581" width="196" height="1730"/></clipPath><clipPath id="clip36"><rect x="811" y="-496" width="217" height="1532"/></clipPath><clipPath id="clip37"><rect x="811" y="-496" width="217" height="1532"/></clipPath><clipPath id="clip38"><rect x="811" y="-496" width="217" height="1532"/></clipPath><clipPath id="clip39"><rect x="811" y="-496" width="217" height="1532"/></clipPath><clipPath id="clip40"><rect x="811" y="-496" width="217" height="1532"/></clipPath><clipPath id="clip41"><rect x="811" y="-496" width="217" height="1532"/></clipPath><clipPath id="clip42"><rect x="811" y="-496" width="218" height="1532"/></clipPath></defs><g clip-path="url(#clip0)" transform="translate(-39 -111)"><path d="M40 113 1028 113" stroke="#70AD47" stroke-width="1.33333" stroke-linejoin="round" stroke-miterlimit="10" fill="none" fill-rule="evenodd"/><path d="M40 410.886 1028 410.886" stroke="#70AD47" stroke-width="1.33333" stroke-linejoin="round" stroke-miterlimit="10" fill="none" fill-rule="evenodd"/><g clip-path="url(#clip1)"><text font-family="Calibri,Calibri_MSFontService,sans-serif" font-weight="700" font-size="16" transform="translate(40.5794 141)">PH (60</text></g><text font-family="Calibri,Calibri_MSFontService,sans-serif" font-weight="700" font-size="16" transform="translate(84.2461 141)">-<tspan font-size="16" x="4.83333" y="0">100 cm)</tspan></text><path d="M40.5794 142.69 74.2461 142.69 107.913 142.69 141.579 142.69 141.579 143.69 107.913 143.69 74.2461 143.69 40.5794 143.69Z" fill-rule="evenodd"/><g clip-path="url(#clip2)"><text font-family="Calibri,Calibri_MSFontService,sans-serif" font-weight="700" font-size="16" transform="translate(223.579 141)">Rec PH (60</text></g><text font-family="Calibri,Calibri_MSFontService,sans-serif" font-weight="700" font-size="16" transform="translate(294.346 141)">-<tspan font-size="16" x="4.83331" y="0">100 cm)</tspan></text><path d="M223.579 142.69 266.246 142.69 308.913 142.69 351.579 142.69 351.579 143.69 308.913 143.69 266.246 143.69 223.579 143.69Z" fill-rule="evenodd"/><g clip-path="url(#clip3)"><text font-family="Calibri,Calibri_MSFontService,sans-serif" font-weight="700" font-size="16" transform="translate(423.579 141)">PH (100</text></g><text font-family="Calibri,Calibri_MSFontService,sans-serif" font-weight="700" font-size="16" transform="translate(475.413 141)">-<tspan font-size="16" x="4.83334" y="0">200 cm)</tspan></text><path d="M423.579 142.69 460.246 142.69 496.913 142.69 533.579 142.69 533.579 143.69 496.913 143.69 460.246 143.69 423.579 143.69Z" fill-rule="evenodd"/><g clip-path="url(#clip4)"><text font-family="Calibri,Calibri_MSFontService,sans-serif" font-weight="700" font-size="16" transform="translate(615.579 141)">Rec PH (100</text></g><text font-family="Calibri,Calibri_MSFontService,sans-serif" font-weight="700" font-size="16" transform="translate(694.513 141)">-<tspan font-size="16" x="4.83331" y="0">200 cm)</tspan></text><path d="M615.579 142.69 661.246 142.69 706.913 142.69 752.579 142.69 752.579 143.69 706.913 143.69 661.246 143.69 615.579 143.69Z" fill-rule="evenodd"/><g clip-path="url(#clip5)"><text font-family="Calibri,Calibri_MSFontService,sans-serif" font-weight="700" font-size="16" transform="translate(811.579 131)">Weighted Sum of Fields (Soil </text></g><path d="M811.579 133.09 858.829 133.09 906.079 133.09 953.329 133.09 1000.58 133.09 1000.58 134.09 953.329 134.09 906.079 134.09 858.829 134.09 811.579 134.09Z" fill-rule="evenodd"/><g clip-path="url(#clip6)"><text font-family="Calibri,Calibri_MSFontService,sans-serif" font-weight="700" font-size="16" transform="translate(811.579 150)">Condition Weighted)</text></g><path d="M811.579 152.09 857.579 152.09 903.579 152.09 949.579 152.09 949.579 153.09 903.579 153.09 857.579 153.09 811.579 153.09Z" fill-rule="evenodd"/><g clip-path="url(#clip7)"><text font-family="Calibri,Calibri_MSFontService,sans-serif" font-weight="400" font-size="15" transform="translate(40.5794 174)">1.</text></g><text font-family="Calibri,Calibri_MSFontService,sans-serif" font-weight="400" font-size="15" transform="translate(54.9794 174)">​<tspan font-weight="700" font-size="15" x="0" y="0">Input layer</tspan>: 'Output layer' </text><g clip-path="url(#clip8)"><text font-family="Calibri,Calibri_MSFontService,sans-serif" font-weight="400" font-size="15" transform="translate(54.9794 191)">from algorithm 'Rec PH (30</text></g><g clip-path="url(#clip9)"><text font-family="Calibri,Calibri_MSFontService,sans-serif" font-weight="400" font-size="15" transform="translate(215.646 191)">-</text></g><text font-family="Calibri,Calibri_MSFontService,sans-serif" font-weight="400" font-size="15" transform="translate(54.9794 209)">60 cm)'</text><g clip-path="url(#clip10)"><text font-family="Calibri,Calibri_MSFontService,sans-serif" font-weight="400" font-size="15" transform="translate(40.5794 237)">2.</text></g><text font-family="Calibri,Calibri_MSFontService,sans-serif" font-weight="400" font-size="15" transform="translate(54.9794 237)">​<tspan font-weight="700" font-size="15" x="0" y="0">Raster layer</tspan>: Soil (60-100 <tspan font-size="15" x="0" y="18">cm) PH Value</tspan></text><g clip-path="url(#clip11)"><text font-family="Calibri,Calibri_MSFontService,sans-serif" font-weight="400" font-size="15" transform="translate(40.5794 283)">3. </text></g><text font-family="Calibri,Calibri_MSFontService,sans-serif" font-weight="700" font-size="15" transform="translate(55.0794 283)">Types of Statistics:<tspan font-weight="400" font-size="15" x="116.667" y="0">mean</tspan></text><g clip-path="url(#clip12)"><text font-family="Calibri,Calibri_MSFontService,sans-serif" font-weight="400" font-size="15" transform="translate(40.5794 311)">4. </text></g><text font-family="Calibri,Calibri_MSFontService,sans-serif" font-weight="700" font-size="15" transform="translate(55.0794 311)">Output column prefix: </text><g clip-path="url(#clip13)"><text font-family="Calibri,Calibri_MSFontService,sans-serif" font-weight="400" font-size="15" transform="translate(40.5794 329)">PHd5</text></g><g clip-path="url(#clip14)"><text font-family="Calibri,Calibri_MSFontService,sans-serif" font-weight="400" font-size="15" transform="translate(40.5794 357)">5. </text></g><text font-family="Calibri,Calibri_MSFontService,sans-serif" font-weight="700" font-size="15" transform="translate(55.0794 357)">No data value: <tspan font-weight="400" font-size="15" x="91.8333" y="0">255</tspan></text><g clip-path="url(#clip15)"><text font-family="Calibri,Calibri_MSFontService,sans-serif" font-weight="400" font-size="15" transform="translate(223.579 174)">1.</text></g><text font-family="Calibri,Calibri_MSFontService,sans-serif" font-weight="400" font-size="15" transform="translate(237.979 174)">​<tspan font-weight="700" font-size="15" x="0" y="0">​​Input layer</tspan><tspan font-size="15" x="66.1667" y="0">: 'Output layer' </tspan><tspan font-size="15" x="0" y="17">from algorithm 'PH (60</tspan><tspan font-size="15" x="135.833" y="17">-</tspan>100 <tspan font-size="15" x="0" y="35">cm)'</tspan></text><g clip-path="url(#clip16)"><text font-family="Calibri,Calibri_MSFontService,sans-serif" font-weight="400" font-size="15" transform="translate(223.579 237)">2.</text></g><text font-family="Calibri,Calibri_MSFontService,sans-serif" font-weight="400" font-size="15" transform="translate(237.979 237)">​<tspan font-weight="700" font-size="15" x="0" y="0">​Field to</tspan><tspan font-weight="700" font-size="15" x="48.8333" y="0">reclassify</tspan>:<tspan font-size="15" x="0" y="18">PHd5_mean</tspan></text><g clip-path="url(#clip17)"><text font-family="Calibri,Calibri_MSFontService,sans-serif" font-weight="400" font-size="15" transform="translate(223.579 283)">3.</text></g><text font-family="Calibri,Calibri_MSFontService,sans-serif" font-weight="400" font-size="15" transform="translate(237.979 283)">​<tspan font-weight="700" font-size="15" x="0" y="0">​Old values</tspan><tspan font-size="15" x="63.6667" y="0">: 0</tspan><tspan font-size="15" x="78.5" y="0">-</tspan>45, 45-55, 55-<tspan font-size="15" x="0" y="18">79, 79</tspan><tspan font-size="15" x="37" y="18">-</tspan>84, 84-140</text><g clip-path="url(#clip18)"><text font-family="Calibri,Calibri_MSFontService,sans-serif" font-weight="400" font-size="15" transform="translate(223.579 329)">4. </text></g><text font-family="Calibri,Calibri_MSFontService,sans-serif" font-weight="700" font-size="15" transform="translate(238.079 329)">New values: <tspan font-weight="400" font-size="15" x="77.5" y="0">3, 7, 9, 6, 3</tspan></text><g clip-path="url(#clip19)"><text font-family="Calibri,Calibri_MSFontService,sans-serif" font-weight="400" font-size="15" transform="translate(223.579 357)">5. </text></g><text font-family="Calibri,Calibri_MSFontService,sans-serif" font-weight="700" font-size="15" transform="translate(238.079 357)">N<tspan font-size="15" x="9.66667" y="0">o data value: </tspan><tspan font-weight="400" font-size="15" x="91.8333" y="0">0</tspan></text><g clip-path="url(#clip20)"><text font-family="Calibri,Calibri_MSFontService,sans-serif" font-weight="400" font-size="15" transform="translate(223.579 385)">6. ​</text></g><text font-family="Calibri,Calibri_MSFontService,sans-serif" font-weight="700" font-size="15" transform="translate(238.079 385)">​​Output column name</text><g clip-path="url(#clip21)"><text font-family="Calibri,Calibri_MSFontService,sans-serif" font-weight="400" font-size="15" transform="translate(368.246 385)">: PHd5_r</text></g><g clip-path="url(#clip22)"><text font-family="Calibri,Calibri_MSFontService,sans-serif" font-weight="400" font-size="15" transform="translate(423.579 174)">1.</text></g><text font-family="Calibri,Calibri_MSFontService,sans-serif" font-weight="400" font-size="15" transform="translate(437.979 174)">​<tspan font-weight="700" font-size="15" x="0" y="0">Input layer</tspan><tspan font-size="15" x="66.1667" y="0">: 'Output layer' </tspan><tspan font-size="15" x="0" y="17">from algorithm 'Rec PH (60</tspan><tspan font-size="15" x="160.667" y="17">-</tspan><tspan font-size="15" x="0" y="35">100 cm)'</tspan></text><g clip-path="url(#clip23)"><text font-family="Calibri,Calibri_MSFontService,sans-serif" font-weight="400" font-size="15" transform="translate(423.579 237)">2.</text></g><text font-family="Calibri,Calibri_MSFontService,sans-serif" font-weight="400" font-size="15" transform="translate(437.979 237)">​<tspan font-weight="700" font-size="15" x="0" y="0">Raster layer</tspan><tspan font-size="15" x="72.6667" y="0">: Soil (100</tspan><tspan font-size="15" x="131.333" y="0">-</tspan>200 <tspan font-size="15" x="0" y="18">cm) PH Value</tspan></text><g clip-path="url(#clip24)"><text font-family="Calibri,Calibri_MSFontService,sans-serif" font-weight="400" font-size="15" transform="translate(423.579 283)">3. </text></g><text font-family="Calibri,Calibri_MSFontService,sans-serif" font-weight="700" font-size="15" transform="translate(438.079 283)">Types of Statistics:<tspan font-weight="400" font-size="15" x="116.667" y="0">mean</tspan></text><g clip-path="url(#clip25)"><text font-family="Calibri,Calibri_MSFontService,sans-serif" font-weight="400" font-size="15" transform="translate(423.579 311)">4. </text></g><text font-family="Calibri,Calibri_MSFontService,sans-serif" font-weight="700" font-size="15" transform="translate(438.079 311)">Output column prefix: </text><g clip-path="url(#clip26)"><text font-family="Calibri,Calibri_MSFontService,sans-serif" font-weight="400" font-size="15" transform="translate(576.579 311)">PHd6</text></g><g clip-path="url(#clip27)"><text font-family="Calibri,Calibri_MSFontService,sans-serif" font-weight="400" font-size="15" transform="translate(423.579 340)">5. </text></g><text font-family="Calibri,Calibri_MSFontService,sans-serif" font-weight="700" font-size="15" transform="translate(438.079 340)">No data value: <tspan font-weight="400" font-size="15" x="91.8333" y="0">255</tspan></text><g clip-path="url(#clip28)"><text font-family="Calibri,Calibri_MSFontService,sans-serif" font-weight="400" font-size="15" transform="translate(615.579 174)">1.</text></g><text font-family="Calibri,Calibri_MSFontService,sans-serif" font-weight="400" font-size="15" transform="translate(629.979 174)">​<tspan font-weight="700" font-size="15" x="0" y="0">​​Input layer</tspan><tspan font-size="15" x="66.1667" y="0">: 'Output layer' </tspan><tspan font-size="15" x="0" y="17">from algorithm 'PH (100</tspan><tspan font-size="15" x="143.333" y="17">-</tspan></text><g clip-path="url(#clip29)"><text font-family="Calibri,Calibri_MSFontService,sans-serif" font-weight="400" font-size="15" transform="translate(777.813 191)">200 </text></g><text font-family="Calibri,Calibri_MSFontService,sans-serif" font-weight="400" font-size="15" transform="translate(629.979 209)">cm)'</text><g clip-path="url(#clip30)"><text font-family="Calibri,Calibri_MSFontService,sans-serif" font-weight="400" font-size="15" transform="translate(615.579 237)">2.</text></g><text font-family="Calibri,Calibri_MSFontService,sans-serif" font-weight="400" font-size="15" transform="translate(629.979 237)">​<tspan font-weight="700" font-size="15" x="0" y="0">​Field to</tspan><tspan font-weight="700" font-size="15" x="48.8333" y="0">reclassify</tspan>:<tspan font-size="15" x="0" y="18">PHd6_mean</tspan></text><g clip-path="url(#clip31)"><text font-family="Calibri,Calibri_MSFontService,sans-serif" font-weight="400" font-size="15" transform="translate(615.579 283)">3.</text></g><text font-family="Calibri,Calibri_MSFontService,sans-serif" font-weight="400" font-size="15" transform="translate(629.979 283)">​<tspan font-weight="700" font-size="15" x="0" y="0">​Old values</tspan><tspan font-size="15" x="63.6667" y="0">: 0</tspan><tspan font-size="15" x="78.5" y="0">-</tspan>45, 45-55, 55-<tspan font-size="15" x="0" y="18">79, 79</tspan>-84, 84-140</text><g clip-path="url(#clip32)"><text font-family="Calibri,Calibri_MSFontService,sans-serif" font-weight="400" font-size="15" transform="translate(615.579 329)">4. </text></g><text font-family="Calibri,Calibri_MSFontService,sans-serif" font-weight="700" font-size="15" transform="translate(630.079 329)">New values<tspan font-weight="400" font-size="15" x="70.1667" y="0">: 3, 7, 9, 6, 3</tspan></text><g clip-path="url(#clip33)"><text font-family="Calibri,Calibri_MSFontService,sans-serif" font-weight="400" font-size="15" transform="translate(615.579 357)">5. </text></g><text font-family="Calibri,Calibri_MSFontService,sans-serif" font-weight="700" font-size="15" transform="translate(630.079 357)">N<tspan font-size="15" x="9.66669" y="0">o data value: </tspan><tspan font-weight="400" font-size="15" x="91.8334" y="0">0</tspan></text><g clip-path="url(#clip34)"><text font-family="Calibri,Calibri_MSFontService,sans-serif" font-weight="400" font-size="15" transform="translate(615.579 385)">6. ​</text></g><text font-family="Calibri,Calibri_MSFontService,sans-serif" font-weight="700" font-size="15" transform="translate(630.079 385)">​​Output column name<tspan font-weight="400" font-size="15" x="130.167" y="0">: </tspan></text><g clip-path="url(#clip35)"><text font-family="Calibri,Calibri_MSFontService,sans-serif" font-weight="400" font-size="15" transform="translate(615.579 403)">PHd6_r</text></g><g clip-path="url(#clip36)"><text font-family="Calibri,Calibri_MSFontService,sans-serif" font-weight="400" font-size="15" transform="translate(811.579 174)">1.</text></g><text font-family="Calibri,Calibri_MSFontService,sans-serif" font-weight="400" font-size="15" transform="translate(825.979 174)">​<tspan font-weight="700" font-size="15" x="0" y="0">Input layer</tspan><tspan font-size="15" x="66.1667" y="0">: </tspan><tspan font-size="15" x="73.5" y="0">'Output layer' from </tspan><tspan font-size="15" x="0" y="17">algorithm 'Rec PH (100</tspan><tspan font-size="15" x="135.833" y="17">-</tspan>200 cm)’</text><g clip-path="url(#clip37)"><text font-family="Calibri,Calibri_MSFontService,sans-serif" font-weight="400" font-size="15" transform="translate(811.579 220)">2.</text></g><text font-family="Calibri,Calibri_MSFontService,sans-serif" font-weight="400" font-size="15" transform="translate(825.979 220)">​<tspan font-weight="700" font-size="15" x="0" y="0">Fields</tspan>: </text><g clip-path="url(#clip38)"><text font-family="Calibri,Calibri_MSFontService,sans-serif" font-weight="400" font-size="15" transform="translate(825.979 237)">RZD_r;Drain_r;PHd1_r;PHd2_r;P</text></g><text font-family="Calibri,Calibri_MSFontService,sans-serif" font-weight="400" font-size="15" transform="translate(825.979 255)">Hd3_r;PHd4_r;PHd5_r;PHd6_r</text><g clip-path="url(#clip39)"><text font-family="Calibri,Calibri_MSFontService,sans-serif" font-weight="400" font-size="15" transform="translate(811.579 283)">3.</text></g><text font-family="Calibri,Calibri_MSFontService,sans-serif" font-weight="400" font-size="15" transform="translate(825.979 283)">​<tspan font-weight="700" font-size="15" x="0" y="0">Weights</tspan><tspan font-size="15" x="50.1667" y="0">: Using model input: </tspan><tspan font-size="15" x="0" y="18">Weights for RZD, Drainage, and </tspan><tspan font-size="15" x="0" y="35">PH (different depths)</tspan></text><g clip-path="url(#clip40)"><text font-family="Calibri,Calibri_MSFontService,sans-serif" font-weight="400" font-size="15" transform="translate(811.579 346)">4.</text></g><text font-family="Calibri,Calibri_MSFontService,sans-serif" font-weight="400" font-size="15" transform="translate(825.979 346)">​<tspan font-weight="700" font-size="15" x="0" y="0">Output field name</tspan><tspan font-size="15" x="112" y="0">: </tspan><tspan font-size="15" x="119.333" y="0">rcrp_sc</tspan></text><g clip-path="url(#clip41)"><text font-family="Calibri,Calibri_MSFontService,sans-serif" font-weight="400" font-size="15" transform="translate(811.579 375)">5.</text></g><text font-family="Calibri,Calibri_MSFontService,sans-serif" font-weight="400" font-size="15" transform="translate(825.979 375)">​<tspan font-weight="700" font-size="15" x="0" y="0">Output layer</tspan>: </text><g clip-path="url(#clip42)"><text font-family="Calibri,Calibri_MSFontService,sans-serif" font-weight="400" font-size="15" transform="translate(910.813 375)">rcrp_SoilCondition</text></g></g></svg>