<svg width="3206" height="1889" xmlns="http://www.w3.org/2000/svg" xmlns:xlink="http://www.w3.org/1999/xlink" overflow="hidden"><defs><clipPath id="clip0"><rect x="597" y="293" width="3206" height="1889"/></clipPath><clipPath id="clip1"><rect x="597" y="292" width="3205" height="1890"/></clipPath><clipPath id="clip2"><rect x="597" y="292" width="3205" height="1890"/></clipPath><clipPath id="clip3"><rect x="597" y="292" width="3205" height="1890"/></clipPath><clipPath id="clip4"><rect x="597" y="292" width="3205" height="1890"/></clipPath><clipPath id="clip5"><rect x="597" y="292" width="3205" height="1890"/></clipPath><clipPath id="clip6"><rect x="597" y="292" width="3205" height="1890"/></clipPath><clipPath id="clip7"><rect x="597" y="292" width="3205" height="1890"/></clipPath><clipPath id="clip8"><rect x="597" y="292" width="3205" height="1890"/></clipPath><clipPath id="clip9"><rect x="597" y="292" width="3205" height="1890"/></clipPath><clipPath id="clip10"><rect x="597" y="292" width="3205" height="1890"/></clipPath><clipPath id="clip11"><rect x="597" y="292" width="3205" height="1890"/></clipPath><clipPath id="clip12"><rect x="597" y="292" width="3205" height="1890"/></clipPath><clipPath id="clip13"><rect x="597" y="292" width="3205" height="1890"/></clipPath><clipPath id="clip14"><rect x="597" y="292" width="3205" height="1890"/></clipPath><clipPath id="clip15"><rect x="597" y="292" width="3205" height="1890"/></clipPath><clipPath id="clip16"><rect x="597" y="292" width="3205" height="1890"/></clipPath><clipPath id="clip17"><rect x="597" y="292" width="3205" height="1890"/></clipPath><clipPath id="clip18"><rect x="597" y="292" width="3205" height="1890"/></clipPath><clipPath id="clip19"><rect x="597" y="292" width="3205" height="1890"/></clipPath><clipPath id="clip20"><rect x="597" y="292" width="3205" height="1890"/></clipPath><clipPath id="clip21"><rect x="597" y="292" width="3205" height="1890"/></clipPath><clipPath id="clip22"><rect x="597" y="292" width="3205" height="1890"/></clipPath><clipPath id="clip23"><rect x="597" y="292" width="3205" height="1890"/></clipPath><clipPath id="clip24"><rect x="597" y="292" width="3205" height="1890"/></clipPath><clipPath id="clip25"><rect x="978" y="491" width="2718" height="1428"/></clipPath><clipPath id="clip26"><rect x="597" y="292" width="3205" height="1890"/></clipPath><clipPath id="clip27"><rect x="597" y="292" width="3205" height="1890"/></clipPath><clipPath id="clip28"><rect x="597" y="292" width="3205" height="1890"/></clipPath><clipPath id="clip29"><rect x="597" y="292" width="3205" height="1890"/></clipPath><clipPath id="clip30"><rect x="597" y="292" width="3205" height="1890"/></clipPath><clipPath id="clip31"><rect x="597" y="292" width="3205" height="1890"/></clipPath><clipPath id="clip32"><rect x="597" y="292" width="3205" height="1890"/></clipPath><clipPath id="clip33"><rect x="597" y="292" width="3205" height="1890"/></clipPath><clipPath id="clip34"><rect x="597" y="292" width="3205" height="1890"/></clipPath><clipPath id="clip35"><rect x="597" y="292" width="3205" height="1890"/></clipPath><clipPath id="clip36"><rect x="597" y="292" width="3205" height="1890"/></clipPath><clipPath id="clip37"><rect x="597" y="292" width="3205" height="1890"/></clipPath><clipPath id="clip38"><rect x="597" y="292" width="3205" height="1890"/></clipPath><clipPath id="clip39"><rect x="597" y="292" width="3205" height="1890"/></clipPath><clipPath id="clip40"><rect x="597" y="292" width="3205" height="1890"/></clipPath><clipPath id="clip41"><rect x="597" y="292" width="3205" height="1890"/></clipPath><clipPath id="clip42"><rect x="597" y="292" width="3205" height="1890"/></clipPath><clipPath id="clip43"><rect x="597" y="292" width="3205" height="1890"/></clipPath><clipPath id="clip44"><rect x="597" y="292" width="3205" height="1890"/></clipPath><clipPath id="clip45"><rect x="597" y="292" width="3205" height="1890"/></clipPath><clipPath id="clip46"><rect x="597" y="292" width="3205" height="1890"/></clipPath><clipPath id="clip47"><rect x="597" y="292" width="3205" height="1890"/></clipPath><clipPath id="clip48"><rect x="597" y="292" width="3205" height="1890"/></clipPath><clipPath id="clip49"><rect x="597" y="292" width="3205" height="1890"/></clipPath><clipPath id="clip50"><rect x="597" y="292" width="3205" height="1890"/></clipPath><clipPath id="clip51"><rect x="597" y="292" width="3205" height="1890"/></clipPath></defs><g clip-path="url(#clip0)" transform="translate(-597 -293)"><g clip-path="url(#clip1)"><path d="M978.5 1760.56 3696.5 1760.56M978.5 1602.55 3696.5 1602.55M978.5 1443.55 3696.5 1443.55M978.5 1284.54 3696.5 1284.54M978.5 1126.54 3696.5 1126.54M978.5 967.532 3696.5 967.532M978.5 808.527 3696.5 808.527M978.5 649.521 3696.5 649.521M978.5 491.5 3696.5 491.5" stroke="#D9D9D9" stroke-width="3.4375" stroke-linejoin="round" stroke-miterlimit="10" fill="none"/></g><g clip-path="url(#clip2)"><path d="M1225.54 491.5 1225.54 1919.5M1472.55 491.5 1472.55 1919.5M1719.56 491.5 1719.56 1919.5M1966.56 491.5 1966.56 1919.5M2213.57 491.5 2213.57 1919.5M2461.58 491.5 2461.58 1919.5M2708.59 491.5 2708.59 1919.5M2955.6 491.5 2955.6 1919.5M3202.61 491.5 3202.61 1919.5M3449.61 491.5 3449.61 1919.5M3696.5 491.5 3696.5 1919.5" stroke="#D9D9D9" stroke-width="3.4375" stroke-linejoin="round" stroke-miterlimit="10" fill="none"/></g><g clip-path="url(#clip3)"><path d="M0 0 0.000360892 1428" stroke="#BFBFBF" stroke-width="3.4375" stroke-linejoin="round" stroke-miterlimit="10" fill="none" fill-rule="evenodd" transform="matrix(1 0 0 -1 978.5 1919.5)"/></g><g clip-path="url(#clip4)"><path d="M978.5 1919.5 3696.5 1919.5" stroke="#BFBFBF" stroke-width="3.4375" stroke-linejoin="round" stroke-miterlimit="10" fill="none" fill-rule="evenodd"/></g><g clip-path="url(#clip5)"><path d="M1236.59 1192.2C1236.59 1198.28 1231.67 1203.2 1225.59 1203.2 1219.52 1203.2 1214.59 1198.28 1214.59 1192.2 1214.59 1186.13 1219.52 1181.2 1225.59 1181.2 1231.67 1181.2 1236.59 1186.13 1236.59 1192.2Z" stroke="#4472C4" stroke-width="3.4375" stroke-linejoin="round" stroke-miterlimit="10" fill="#4472C4"/><path d="M1483.59 982.203C1483.59 988.277 1478.67 993.202 1472.59 993.202 1466.52 993.202 1461.59 988.277 1461.59 982.203 1461.59 976.128 1466.52 971.203 1472.59 971.203 1478.67 971.203 1483.59 976.128 1483.59 982.203Z" stroke="#4472C4" stroke-width="3.4375" stroke-linejoin="round" stroke-miterlimit="10" fill="#4472C4"/><path d="M1730.59 969.202C1730.59 975.277 1725.67 980.202 1719.59 980.202 1713.52 980.202 1708.59 975.277 1708.59 969.202 1708.59 963.128 1713.52 958.203 1719.59 958.203 1725.67 958.203 1730.59 963.128 1730.59 969.202Z" stroke="#4472C4" stroke-width="3.4375" stroke-linejoin="round" stroke-miterlimit="10" fill="#4472C4"/><path d="M1977.59 921.203C1977.59 927.278 1972.67 932.202 1966.59 932.202 1960.52 932.202 1955.59 927.278 1955.59 921.203 1955.59 915.128 1960.52 910.203 1966.59 910.203 1972.67 910.203 1977.59 915.128 1977.59 921.203Z" stroke="#4472C4" stroke-width="3.4375" stroke-linejoin="round" stroke-miterlimit="10" fill="#4472C4"/><path d="M2225.59 883.203C2225.59 889.277 2220.67 894.202 2214.59 894.202 2208.52 894.202 2203.59 889.277 2203.59 883.203 2203.59 877.128 2208.52 872.203 2214.59 872.203 2220.67 872.203 2225.59 877.128 2225.59 883.203Z" stroke="#4472C4" stroke-width="3.4375" stroke-linejoin="round" stroke-miterlimit="10" fill="#4472C4"/><path d="M2472.59 873.203C2472.59 879.278 2467.67 884.202 2461.59 884.202 2455.52 884.202 2450.59 879.278 2450.59 873.203 2450.59 867.128 2455.52 862.203 2461.59 862.203 2467.67 862.203 2472.59 867.128 2472.59 873.203Z" stroke="#4472C4" stroke-width="3.4375" stroke-linejoin="round" stroke-miterlimit="10" fill="#4472C4"/><path d="M2719.59 897.203C2719.59 903.278 2714.67 908.202 2708.59 908.202 2702.52 908.202 2697.59 903.278 2697.59 897.203 2697.59 891.128 2702.52 886.203 2708.59 886.203 2714.67 886.203 2719.59 891.128 2719.59 897.203Z" stroke="#4472C4" stroke-width="3.4375" stroke-linejoin="round" stroke-miterlimit="10" fill="#4472C4"/><path d="M2966.59 790.203C2966.59 796.278 2961.67 801.202 2955.59 801.202 2949.52 801.202 2944.59 796.278 2944.59 790.203 2944.59 784.128 2949.52 779.203 2955.59 779.203 2961.67 779.203 2966.59 784.128 2966.59 790.203Z" stroke="#4472C4" stroke-width="3.4375" stroke-linejoin="round" stroke-miterlimit="10" fill="#4472C4"/><path d="M3213.59 748.203C3213.59 754.278 3208.67 759.202 3202.59 759.202 3196.52 759.202 3191.59 754.278 3191.59 748.203 3191.59 742.128 3196.52 737.203 3202.59 737.203 3208.67 737.203 3213.59 742.128 3213.59 748.203Z" stroke="#4472C4" stroke-width="3.4375" stroke-linejoin="round" stroke-miterlimit="10" fill="#4472C4"/><path d="M3460.59 705.202C3460.59 711.277 3455.67 716.202 3449.59 716.202 3443.52 716.202 3438.59 711.277 3438.59 705.202 3438.59 699.128 3443.52 694.203 3449.59 694.203 3455.67 694.203 3460.59 699.128 3460.59 705.202Z" stroke="#4472C4" stroke-width="3.4375" stroke-linejoin="round" stroke-miterlimit="10" fill="#4472C4"/></g><g clip-path="url(#clip6)"><path d="M1225.5 1192.5 1274.54 1252.5 1295.5 1252.5" stroke="#A6A6A6" stroke-width="6.875" stroke-linejoin="round" stroke-miterlimit="10" fill="none"/></g><g clip-path="url(#clip7)"><path d="M1472.5 982.5 1560.5 893.5" stroke="#A6A6A6" stroke-width="6.875" stroke-linejoin="round" stroke-miterlimit="10" fill="none"/></g><g clip-path="url(#clip8)"><path d="M1719.5 969.5 1808.5 891.5" stroke="#A6A6A6" stroke-width="6.875" stroke-linejoin="round" stroke-miterlimit="10" fill="none"/></g><g clip-path="url(#clip9)"><path d="M1966.5 921.5 2000.57 840.5 2021.5 840.5" stroke="#A6A6A6" stroke-width="6.875" stroke-linejoin="round" stroke-miterlimit="10" fill="none"/></g><g clip-path="url(#clip10)"><path d="M2214.5 883.5 2259.57 1015.5 2280.5 1015.5" stroke="#A6A6A6" stroke-width="6.875" stroke-linejoin="round" stroke-miterlimit="10" fill="none"/></g><g clip-path="url(#clip11)"><path d="M2461.5 873.5 2503.58 975.5 2523.5 975.5" stroke="#A6A6A6" stroke-width="6.875" stroke-linejoin="round" stroke-miterlimit="10" fill="none"/></g><g clip-path="url(#clip12)"><path d="M2708.5 897.5 2752.59 984.5 2772.5 984.5" stroke="#A6A6A6" stroke-width="6.875" stroke-linejoin="round" stroke-miterlimit="10" fill="none"/></g><g clip-path="url(#clip13)"><path d="M2955.5 790.5 2982.6 895.5 3003.5 895.5" stroke="#A6A6A6" stroke-width="6.875" stroke-linejoin="round" stroke-miterlimit="10" fill="none"/></g><g clip-path="url(#clip14)"><path d="M3202.5 748.5 3220.61 838.5 3241.5 838.5" stroke="#A6A6A6" stroke-width="6.875" stroke-linejoin="round" stroke-miterlimit="10" fill="none"/></g><g clip-path="url(#clip15)"><text fill="#404040" font-family="Calibri,Calibri_MSFontService,sans-serif" font-weight="700" font-size="55" transform="matrix(1 0 0 1 1309.35 1271)">95,784</text></g><g clip-path="url(#clip16)"><text fill="#404040" font-family="Calibri,Calibri_MSFontService,sans-serif" font-weight="700" font-size="55" transform="matrix(1 0 0 1 1469.47 872)">109,049</text></g><g clip-path="url(#clip17)"><text fill="#404040" font-family="Calibri,Calibri_MSFontService,sans-serif" font-weight="700" font-size="55" transform="matrix(1 0 0 1 1717.34 870)">109,844</text></g><g clip-path="url(#clip18)"><text fill="#404040" font-family="Calibri,Calibri_MSFontService,sans-serif" font-weight="700" font-size="55" transform="matrix(1 0 0 1 2034.83 858)">112,873</text></g><g clip-path="url(#clip19)"><text fill="#404040" font-family="Calibri,Calibri_MSFontService,sans-serif" font-weight="700" font-size="55" transform="matrix(1 0 0 1 2294.05 1034)">115,257</text></g><g clip-path="url(#clip20)"><text fill="#404040" font-family="Calibri,Calibri_MSFontService,sans-serif" font-weight="700" font-size="55" transform="matrix(1 0 0 1 2537.67 994)">115,892</text></g><g clip-path="url(#clip21)"><text fill="#404040" font-family="Calibri,Calibri_MSFontService,sans-serif" font-weight="700" font-size="55" transform="matrix(1 0 0 1 2786.68 1003)">114,381</text></g><g clip-path="url(#clip22)"><text fill="#FF0000" font-family="Calibri,Calibri_MSFontService,sans-serif" font-weight="700" font-size="55" transform="matrix(1 0 0 1 3017.29 914)">121,141</text></g><g clip-path="url(#clip23)"><text fill="#FF0000" font-family="Calibri,Calibri_MSFontService,sans-serif" font-weight="700" font-size="55" transform="matrix(1 0 0 1 3255.24 856)">123,816</text></g><g clip-path="url(#clip24)"><text fill="#FF0000" font-family="Calibri,Calibri_MSFontService,sans-serif" font-weight="700" font-size="55" transform="matrix(1 0 0 1 3488.59 724)">126,491</text></g><g clip-path="url(#clip25)"><path d="M2349.13 895.159 2349.13 895.159C2349.17 895.152 2349.19 895.116 2349.18 895.079 2349.18 895.042 2349.14 895.017 2349.1 895.023L2349.1 895.023C2349.07 895.03 2349.04 895.065 2349.05 895.103 2349.05 895.14 2349.09 895.165 2349.13 895.159ZM2348.86 895.205 2348.86 895.205C2348.89 895.199 2348.92 895.163 2348.91 895.126 2348.91 895.088 2348.87 895.063 2348.83 895.07L2348.83 895.07C2348.8 895.076 2348.77 895.112 2348.78 895.149 2348.78 895.186 2348.82 895.212 2348.86 895.205ZM2348.58 895.252 2348.58 895.252C2348.62 895.245 2348.65 895.21 2348.64 895.172 2348.63 895.135 2348.6 895.11 2348.56 895.116L2348.56 895.116C2348.52 895.123 2348.5 895.158 2348.51 895.196 2348.51 895.233 2348.55 895.258 2348.58 895.252ZM2348.31 895.298 2348.31 895.298C2348.35 895.292 2348.38 895.256 2348.37 895.219 2348.36 895.181 2348.33 895.156 2348.29 895.163L2348.29 895.163C2348.25 895.169 2348.23 895.205 2348.23 895.242 2348.24 895.28 2348.28 895.305 2348.31 895.298ZM2348.04 895.345 2348.04 895.345C2348.08 895.338 2348.11 895.303 2348.1 895.265 2348.09 895.228 2348.06 895.203 2348.02 895.209L2348.02 895.209C2347.98 895.216 2347.96 895.251 2347.96 895.289 2347.97 895.326 2348.01 895.351 2348.04 895.345ZM2347.77 895.391 2347.77 895.391C2347.81 895.385 2347.83 895.349 2347.83 895.312 2347.82 895.275 2347.79 895.25 2347.75 895.256L2347.75 895.256C2347.71 895.262 2347.69 895.298 2347.69 895.335 2347.7 895.373 2347.73 895.398 2347.77 895.391ZM2347.5 895.438 2347.5 895.438C2347.54 895.432 2347.56 895.396 2347.56 895.359 2347.55 895.321 2347.51 895.296 2347.48 895.302L2347.48 895.302C2347.44 895.309 2347.41 895.344 2347.42 895.382 2347.43 895.419 2347.46 895.444 2347.5 895.438ZM2347.23 895.485 2347.23 895.485C2347.27 895.478 2347.29 895.443 2347.29 895.405 2347.28 895.368 2347.24 895.343 2347.21 895.349L2347.21 895.349C2347.17 895.356 2347.14 895.391 2347.15 895.428 2347.16 895.466 2347.19 895.491 2347.23 895.485ZM2346.96 895.531 2346.96 895.531C2347 895.525 2347.02 895.489 2347.01 895.452 2347.01 895.414 2346.97 895.389 2346.93 895.396L2346.93 895.396C2346.9 895.402 2346.87 895.438 2346.88 895.475 2346.89 895.512 2346.92 895.538 2346.96 895.531ZM2346.69 895.578 2346.69 895.578C2346.72 895.571 2346.75 895.536 2346.74 895.498 2346.74 895.461 2346.7 895.436 2346.66 895.442L2346.66 895.442C2346.63 895.449 2346.6 895.484 2346.61 895.522 2346.61 895.559 2346.65 895.584 2346.69 895.578ZM2346.42 895.624 2346.42 895.624C2346.45 895.618 2346.48 895.582 2346.47 895.545 2346.47 895.508 2346.43 895.482 2346.39 895.489L2346.39 895.489C2346.35 895.495 2346.33 895.531 2346.34 895.568 2346.34 895.606 2346.38 895.631 2346.42 895.624ZM2346.14 895.671 2346.14 895.671C2346.18 895.664 2346.21 895.629 2346.2 895.591 2346.19 895.554 2346.16 895.529 2346.12 895.535L2346.12 895.535C2346.08 895.542 2346.06 895.577 2346.06 895.615 2346.07 895.652 2346.11 895.677 2346.14 895.671ZM2345.87 895.717 2345.87 895.717C2345.91 895.711 2345.94 895.675 2345.93 895.638 2345.92 895.601 2345.89 895.576 2345.85 895.582L2345.85 895.582C2345.81 895.588 2345.79 895.624 2345.79 895.661 2345.8 895.699 2345.84 895.724 2345.87 895.717ZM2345.6 895.764 2345.6 895.764C2345.64 895.758 2345.66 895.722 2345.66 895.685 2345.65 895.647 2345.62 895.622 2345.58 895.628L2345.58 895.629C2345.54 895.635 2345.52 895.671 2345.52 895.708 2345.53 895.745 2345.56 895.77 2345.6 895.764ZM2345.33 895.811 2345.33 895.811C2345.37 895.804 2345.39 895.769 2345.39 895.731 2345.38 895.694 2345.35 895.669 2345.31 895.675L2345.31 895.675C2345.27 895.682 2345.25 895.717 2345.25 895.755 2345.26 895.792 2345.29 895.817 2345.33 895.811ZM2345.06 895.857 2345.06 895.857C2345.1 895.851 2345.12 895.815 2345.12 895.778 2345.11 895.74 2345.07 895.715 2345.04 895.722L2345.04 895.722C2345 895.728 2344.97 895.764 2344.98 895.801 2344.99 895.839 2345.02 895.864 2345.06 895.857ZM2344.79 895.904 2344.79 895.904C2344.83 895.897 2344.85 895.862 2344.84 895.824 2344.84 895.787 2344.8 895.762 2344.77 895.768L2344.77 895.768C2344.73 895.775 2344.7 895.81 2344.71 895.848 2344.72 895.885 2344.75 895.91 2344.79 895.904ZM2344.52 895.95 2344.52 895.95C2344.55 895.944 2344.58 895.908 2344.57 895.871 2344.57 895.833 2344.53 895.808 2344.49 895.815L2344.49 895.815C2344.46 895.821 2344.43 895.857 2344.44 895.894 2344.44 895.932 2344.48 895.957 2344.52 895.95ZM2344.25 895.997 2344.25 895.997C2344.28 895.99 2344.31 895.955 2344.3 895.917 2344.3 895.88 2344.26 895.855 2344.22 895.861L2344.22 895.861C2344.19 895.868 2344.16 895.903 2344.17 895.941 2344.17 895.978 2344.21 896.003 2344.25 895.997ZM2343.98 896.044 2343.98 896.043C2344.01 896.037 2344.04 896.002 2344.03 895.964 2344.02 895.927 2343.99 895.902 2343.95 895.908L2343.95 895.908C2343.91 895.914 2343.89 895.95 2343.9 895.987 2343.9 896.025 2343.94 896.05 2343.98 896.044ZM2343.7 896.09 2343.7 896.09C2343.74 896.084 2343.77 896.048 2343.76 896.011 2343.75 895.973 2343.72 895.948 2343.68 895.955L2343.68 895.955C2343.64 895.961 2343.62 895.997 2343.62 896.034 2343.63 896.071 2343.67 896.096 2343.7 896.09ZM2343.43 896.137 2343.43 896.137C2343.47 896.13 2343.5 896.095 2343.49 896.057 2343.48 896.02 2343.45 895.995 2343.41 896.001L2343.41 896.001C2343.37 896.008 2343.35 896.043 2343.35 896.081 2343.36 896.118 2343.4 896.143 2343.43 896.137ZM2343.16 896.183 2343.16 896.183C2343.2 896.177 2343.22 896.141 2343.22 896.104 2343.21 896.066 2343.18 896.041 2343.14 896.048L2343.14 896.048C2343.1 896.054 2343.08 896.09 2343.08 896.127 2343.09 896.165 2343.12 896.19 2343.16 896.183ZM2342.89 896.23 2342.89 896.23C2342.93 896.223 2342.95 896.188 2342.95 896.15 2342.94 896.113 2342.9 896.088 2342.87 896.094L2342.87 896.094C2342.83 896.101 2342.8 896.136 2342.81 896.174 2342.82 896.211 2342.85 896.236 2342.89 896.23ZM2342.62 896.276 2342.62 896.276C2342.66 896.27 2342.68 896.234 2342.68 896.197 2342.67 896.16 2342.63 896.134 2342.6 896.141L2342.6 896.141C2342.56 896.147 2342.53 896.183 2342.54 896.22 2342.55 896.258 2342.58 896.283 2342.62 896.276ZM2342.35 896.323 2342.35 896.323C2342.39 896.317 2342.41 896.281 2342.4 896.244 2342.4 896.206 2342.36 896.181 2342.32 896.187L2342.32 896.187C2342.29 896.194 2342.26 896.229 2342.27 896.267 2342.28 896.304 2342.31 896.329 2342.35 896.323ZM2342.08 896.37 2342.08 896.37C2342.11 896.363 2342.14 896.328 2342.13 896.29 2342.13 896.253 2342.09 896.228 2342.05 896.234L2342.05 896.234C2342.02 896.24 2341.99 896.276 2342 896.313 2342 896.351 2342.04 896.376 2342.08 896.37ZM2341.81 896.416 2341.81 896.416C2341.84 896.41 2341.87 896.374 2341.86 896.337 2341.86 896.299 2341.82 896.274 2341.78 896.281L2341.78 896.281C2341.75 896.287 2341.72 896.323 2341.73 896.36 2341.73 896.397 2341.77 896.423 2341.81 896.416ZM2341.53 896.463 2341.53 896.463C2341.57 896.456 2341.6 896.421 2341.59 896.383 2341.58 896.346 2341.55 896.321 2341.51 896.327L2341.51 896.327C2341.47 896.334 2341.45 896.369 2341.46 896.407 2341.46 896.444 2341.5 896.469 2341.53 896.463ZM2341.26 896.509 2341.26 896.509C2341.3 896.503 2341.33 896.467 2341.32 896.43 2341.31 896.392 2341.28 896.367 2341.24 896.374L2341.24 896.374C2341.2 896.38 2341.18 896.416 2341.18 896.453 2341.19 896.491 2341.23 896.516 2341.26 896.509ZM2340.99 896.556 2340.99 896.556C2341.03 896.549 2341.05 896.514 2341.05 896.476 2341.04 896.439 2341.01 896.414 2340.97 896.42L2340.97 896.42C2340.93 896.427 2340.91 896.462 2340.91 896.5 2340.92 896.537 2340.95 896.562 2340.99 896.556ZM2340.72 896.602 2340.72 896.602C2340.76 896.596 2340.78 896.56 2340.78 896.523 2340.77 896.486 2340.74 896.46 2340.7 896.467L2340.7 896.467C2340.66 896.473 2340.64 896.509 2340.64 896.546 2340.65 896.584 2340.68 896.609 2340.72 896.602ZM2340.45 896.649 2340.45 896.649C2340.49 896.643 2340.51 896.607 2340.51 896.57 2340.5 896.532 2340.46 896.507 2340.43 896.513L2340.43 896.513C2340.39 896.52 2340.36 896.555 2340.37 896.593 2340.38 896.63 2340.41 896.655 2340.45 896.649ZM2340.18 896.696 2340.18 896.696C2340.22 896.689 2340.24 896.654 2340.23 896.616 2340.23 896.579 2340.19 896.554 2340.16 896.56L2340.16 896.56C2340.12 896.566 2340.09 896.602 2340.1 896.639 2340.11 896.677 2340.14 896.702 2340.18 896.696ZM2339.91 896.742 2339.91 896.742C2339.95 896.736 2339.97 896.7 2339.96 896.663 2339.96 896.625 2339.92 896.6 2339.88 896.607L2339.88 896.607C2339.85 896.613 2339.82 896.649 2339.83 896.686 2339.83 896.723 2339.87 896.749 2339.91 896.742ZM2339.64 896.789 2339.64 896.789C2339.67 896.782 2339.7 896.747 2339.69 896.709 2339.69 896.672 2339.65 896.647 2339.61 896.653L2339.61 896.653C2339.58 896.66 2339.55 896.695 2339.56 896.733 2339.56 896.77 2339.6 896.795 2339.64 896.789ZM2339.37 896.835 2339.37 896.835C2339.4 896.829 2339.43 896.793 2339.42 896.756 2339.42 896.718 2339.38 896.693 2339.34 896.7L2339.34 896.7C2339.3 896.706 2339.28 896.742 2339.29 896.779 2339.29 896.817 2339.33 896.842 2339.37 896.835ZM2339.09 896.882 2339.09 896.882C2339.13 896.875 2339.16 896.84 2339.15 896.802 2339.14 896.765 2339.11 896.74 2339.07 896.746L2339.07 896.746C2339.03 896.753 2339.01 896.788 2339.01 896.826 2339.02 896.863 2339.06 896.888 2339.09 896.882ZM2338.82 896.928 2338.82 896.928C2338.86 896.922 2338.89 896.886 2338.88 896.849 2338.87 896.812 2338.84 896.786 2338.8 896.793L2338.8 896.793C2338.76 896.799 2338.74 896.835 2338.74 896.872 2338.75 896.91 2338.79 896.935 2338.82 896.928ZM2338.55 896.975 2338.55 896.975C2338.59 896.969 2338.61 896.933 2338.61 896.896 2338.6 896.858 2338.57 896.833 2338.53 896.839L2338.53 896.84C2338.49 896.846 2338.47 896.881 2338.47 896.919 2338.48 896.956 2338.51 896.981 2338.55 896.975ZM2338.28 897.022 2338.28 897.022C2338.32 897.015 2338.34 896.98 2338.34 896.942 2338.33 896.905 2338.29 896.88 2338.26 896.886L2338.26 896.886C2338.22 896.893 2338.19 896.928 2338.2 896.965 2338.21 897.003 2338.24 897.028 2338.28 897.022ZM2338.01 897.068 2338.01 897.068C2338.05 897.062 2338.07 897.026 2338.07 896.989 2338.06 896.951 2338.02 896.926 2337.99 896.933L2337.99 896.933C2337.95 896.939 2337.92 896.975 2337.93 897.012 2337.94 897.049 2337.97 897.075 2338.01 897.068ZM2337.74 897.115 2337.74 897.115C2337.78 897.108 2337.8 897.073 2337.79 897.035 2337.79 896.998 2337.75 896.973 2337.72 896.979L2337.71 896.979C2337.68 896.986 2337.65 897.021 2337.66 897.059 2337.67 897.096 2337.7 897.121 2337.74 897.115ZM2337.47 897.161 2337.47 897.161C2337.5 897.155 2337.53 897.119 2337.52 897.082 2337.52 897.044 2337.48 897.019 2337.44 897.026L2337.44 897.026C2337.41 897.032 2337.38 897.068 2337.39 897.105 2337.39 897.143 2337.43 897.168 2337.47 897.161ZM2337.2 897.208 2337.2 897.208C2337.23 897.201 2337.26 897.166 2337.25 897.129 2337.25 897.091 2337.21 897.066 2337.17 897.072L2337.17 897.072C2337.14 897.079 2337.11 897.114 2337.12 897.152 2337.12 897.189 2337.16 897.214 2337.2 897.208ZM2336.92 897.255 2336.92 897.254C2336.96 897.248 2336.99 897.213 2336.98 897.175 2336.97 897.138 2336.94 897.113 2336.9 897.119L2336.9 897.119C2336.86 897.125 2336.84 897.161 2336.85 897.198 2336.85 897.236 2336.89 897.261 2336.92 897.255ZM2336.65 897.301 2336.65 897.301C2336.69 897.295 2336.72 897.259 2336.71 897.222 2336.7 897.184 2336.67 897.159 2336.63 897.166L2336.63 897.166C2336.59 897.172 2336.57 897.208 2336.57 897.245 2336.58 897.282 2336.62 897.307 2336.65 897.301ZM2336.38 897.348 2336.38 897.348C2336.42 897.341 2336.45 897.306 2336.44 897.268 2336.43 897.231 2336.4 897.206 2336.36 897.212L2336.36 897.212C2336.32 897.219 2336.3 897.254 2336.3 897.292 2336.31 897.329 2336.34 897.354 2336.38 897.348ZM2336.11 897.394 2336.11 897.394C2336.15 897.388 2336.17 897.352 2336.17 897.315 2336.16 897.277 2336.13 897.252 2336.09 897.259L2336.09 897.259C2336.05 897.265 2336.03 897.301 2336.03 897.338 2336.04 897.375 2336.07 897.401 2336.11 897.394ZM2335.84 897.441 2335.84 897.441C2335.88 897.434 2335.9 897.399 2335.9 897.361 2335.89 897.324 2335.85 897.299 2335.82 897.305L2335.82 897.305C2335.78 897.312 2335.75 897.347 2335.76 897.385 2335.77 897.422 2335.8 897.447 2335.84 897.441ZM2335.57 897.487 2335.57 897.487C2335.61 897.481 2335.63 897.445 2335.63 897.408 2335.62 897.371 2335.58 897.345 2335.55 897.352L2335.55 897.352C2335.51 897.358 2335.48 897.394 2335.49 897.431 2335.5 897.469 2335.53 897.494 2335.57 897.487ZM2335.3 897.534 2335.3 897.534C2335.34 897.527 2335.36 897.492 2335.35 897.455 2335.35 897.417 2335.31 897.392 2335.27 897.398L2335.27 897.398C2335.24 897.405 2335.21 897.44 2335.22 897.478 2335.22 897.515 2335.26 897.54 2335.3 897.534ZM2335.03 897.581 2335.03 897.581C2335.06 897.574 2335.09 897.539 2335.08 897.501 2335.08 897.464 2335.04 897.439 2335 897.445L2335 897.445C2334.97 897.451 2334.94 897.487 2334.95 897.524 2334.95 897.562 2334.99 897.587 2335.03 897.581ZM2334.76 897.627 2334.76 897.627C2334.79 897.621 2334.82 897.585 2334.81 897.548 2334.81 897.51 2334.77 897.485 2334.73 897.492L2334.73 897.492C2334.69 897.498 2334.67 897.534 2334.68 897.571 2334.68 897.608 2334.72 897.634 2334.76 897.627ZM2334.48 897.674 2334.48 897.674C2334.52 897.667 2334.55 897.632 2334.54 897.594 2334.53 897.557 2334.5 897.532 2334.46 897.538L2334.46 897.538C2334.42 897.545 2334.4 897.58 2334.4 897.618 2334.41 897.655 2334.45 897.68 2334.48 897.674ZM2334.21 897.72 2334.21 897.72C2334.25 897.714 2334.28 897.678 2334.27 897.641 2334.26 897.603 2334.23 897.578 2334.19 897.585L2334.19 897.585C2334.15 897.591 2334.13 897.627 2334.13 897.664 2334.14 897.702 2334.18 897.727 2334.21 897.72ZM2333.94 897.767 2333.94 897.767C2333.98 897.76 2334 897.725 2334 897.687 2333.99 897.65 2333.96 897.625 2333.92 897.631L2333.92 897.631C2333.88 897.638 2333.86 897.673 2333.86 897.711 2333.87 897.748 2333.9 897.773 2333.94 897.767ZM2333.67 897.813 2333.67 897.813C2333.71 897.807 2333.73 897.771 2333.73 897.734 2333.72 897.697 2333.69 897.671 2333.65 897.678L2333.65 897.678C2333.61 897.684 2333.58 897.72 2333.59 897.757 2333.6 897.795 2333.63 897.82 2333.67 897.813ZM2333.4 897.86 2333.4 897.86C2333.44 897.854 2333.46 897.818 2333.46 897.781 2333.45 897.743 2333.41 897.718 2333.38 897.724L2333.38 897.724C2333.34 897.731 2333.31 897.766 2333.32 897.804 2333.33 897.841 2333.36 897.866 2333.4 897.86ZM2333.13 897.907 2333.13 897.906C2333.17 897.9 2333.19 897.865 2333.18 897.827 2333.18 897.79 2333.14 897.765 2333.11 897.771L2333.11 897.771C2333.07 897.777 2333.04 897.813 2333.05 897.85 2333.06 897.888 2333.09 897.913 2333.13 897.907ZM2332.86 897.953 2332.86 897.953C2332.89 897.947 2332.92 897.911 2332.91 897.874 2332.91 897.836 2332.87 897.811 2332.83 897.818L2332.83 897.818C2332.8 897.824 2332.77 897.86 2332.78 897.897 2332.78 897.934 2332.82 897.96 2332.86 897.953ZM2332.59 898 2332.59 898C2332.62 897.993 2332.65 897.958 2332.64 897.92 2332.64 897.883 2332.6 897.858 2332.56 897.864L2332.56 897.864C2332.53 897.871 2332.5 897.906 2332.51 897.944 2332.51 897.981 2332.55 898.006 2332.59 898ZM2332.31 898.046 2332.31 898.046C2332.35 898.04 2332.38 898.004 2332.37 897.967 2332.36 897.929 2332.33 897.904 2332.29 897.911L2332.29 897.911C2332.25 897.917 2332.23 897.953 2332.24 897.99 2332.24 898.028 2332.28 898.053 2332.31 898.046ZM2332.04 898.093 2332.04 898.093C2332.08 898.086 2332.11 898.051 2332.1 898.013 2332.09 897.976 2332.06 897.951 2332.02 897.957L2332.02 897.957C2331.98 897.964 2331.96 897.999 2331.96 898.037 2331.97 898.074 2332.01 898.099 2332.04 898.093ZM2331.77 898.139 2331.77 898.139C2331.81 898.133 2331.84 898.097 2331.83 898.06 2331.82 898.023 2331.79 897.997 2331.75 898.004L2331.75 898.004C2331.71 898.01 2331.69 898.046 2331.69 898.083 2331.7 898.121 2331.74 898.146 2331.77 898.139ZM2331.5 898.186 2331.5 898.186C2331.54 898.18 2331.56 898.144 2331.56 898.107 2331.55 898.069 2331.52 898.044 2331.48 898.05L2331.48 898.05C2331.44 898.057 2331.42 898.093 2331.42 898.13 2331.43 898.167 2331.46 898.192 2331.5 898.186ZM2331.23 898.233 2331.23 898.233C2331.27 898.226 2331.29 898.191 2331.29 898.153 2331.28 898.116 2331.24 898.091 2331.21 898.097L2331.21 898.097C2331.17 898.104 2331.14 898.139 2331.15 898.177 2331.16 898.214 2331.19 898.239 2331.23 898.233ZM2330.96 898.279 2330.96 898.279C2331 898.273 2331.02 898.237 2331.02 898.2 2331.01 898.162 2330.97 898.137 2330.94 898.144L2330.94 898.144C2330.9 898.15 2330.87 898.186 2330.88 898.223 2330.89 898.26 2330.92 898.286 2330.96 898.279ZM2330.69 898.326 2330.69 898.326C2330.73 898.319 2330.75 898.284 2330.74 898.246 2330.74 898.209 2330.7 898.184 2330.66 898.19L2330.66 898.19C2330.63 898.197 2330.6 898.232 2330.61 898.27 2330.61 898.307 2330.65 898.332 2330.69 898.326ZM2330.42 898.372 2330.42 898.372C2330.45 898.366 2330.48 898.33 2330.47 898.293 2330.47 898.255 2330.43 898.23 2330.39 898.237L2330.39 898.237C2330.36 898.243 2330.33 898.279 2330.34 898.316 2330.34 898.354 2330.38 898.379 2330.42 898.372ZM2330.15 898.419 2330.15 898.419C2330.18 898.412 2330.21 898.377 2330.2 898.339 2330.2 898.302 2330.16 898.277 2330.12 898.283L2330.12 898.283C2330.08 898.29 2330.06 898.325 2330.07 898.363 2330.07 898.4 2330.11 898.425 2330.15 898.419ZM2329.87 898.465 2329.87 898.465C2329.91 898.459 2329.94 898.423 2329.93 898.386 2329.92 898.349 2329.89 898.323 2329.85 898.33L2329.85 898.33C2329.81 898.336 2329.79 898.372 2329.79 898.409 2329.8 898.447 2329.84 898.472 2329.87 898.465ZM2329.6 898.512 2329.6 898.512C2329.64 898.506 2329.67 898.47 2329.66 898.433 2329.65 898.395 2329.62 898.37 2329.58 898.377L2329.58 898.377C2329.54 898.383 2329.52 898.419 2329.52 898.456 2329.53 898.493 2329.57 898.518 2329.6 898.512ZM2329.33 898.559 2329.33 898.559C2329.37 898.552 2329.39 898.517 2329.39 898.479 2329.38 898.442 2329.35 898.417 2329.31 898.423L2329.31 898.423C2329.27 898.43 2329.25 898.465 2329.25 898.503 2329.26 898.54 2329.29 898.565 2329.33 898.559ZM2329.06 898.605 2329.06 898.605C2329.1 898.599 2329.12 898.563 2329.12 898.526 2329.11 898.488 2329.08 898.463 2329.04 898.47L2329.04 898.47C2329 898.476 2328.98 898.512 2328.98 898.549 2328.99 898.587 2329.02 898.612 2329.06 898.605ZM2328.79 898.652 2328.79 898.652C2328.83 898.645 2328.85 898.61 2328.85 898.572 2328.84 898.535 2328.8 898.51 2328.77 898.516L2328.77 898.516C2328.73 898.523 2328.7 898.558 2328.71 898.596 2328.72 898.633 2328.75 898.658 2328.79 898.652ZM2328.52 898.698 2328.52 898.698C2328.56 898.692 2328.58 898.656 2328.57 898.619 2328.57 898.581 2328.53 898.556 2328.5 898.563L2328.5 898.563C2328.46 898.569 2328.43 898.605 2328.44 898.642 2328.45 898.68 2328.48 898.705 2328.52 898.698ZM2328.25 898.745 2328.25 898.745C2328.29 898.738 2328.31 898.703 2328.3 898.666 2328.3 898.628 2328.26 898.603 2328.22 898.609L2328.22 898.609C2328.19 898.616 2328.16 898.651 2328.17 898.689 2328.17 898.726 2328.21 898.751 2328.25 898.745ZM2327.98 898.792 2327.98 898.792C2328.01 898.785 2328.04 898.75 2328.03 898.712 2328.03 898.675 2327.99 898.65 2327.95 898.656L2327.95 898.656C2327.92 898.662 2327.89 898.698 2327.9 898.735 2327.9 898.773 2327.94 898.798 2327.98 898.792ZM2327.71 898.838 2327.71 898.838C2327.74 898.832 2327.77 898.796 2327.76 898.759 2327.75 898.721 2327.72 898.696 2327.68 898.703L2327.68 898.703C2327.64 898.709 2327.62 898.745 2327.63 898.782 2327.63 898.819 2327.67 898.844 2327.71 898.838ZM2327.43 898.885 2327.43 898.885C2327.47 898.878 2327.5 898.843 2327.49 898.805 2327.48 898.768 2327.45 898.743 2327.41 898.749L2327.41 898.749C2327.37 898.756 2327.35 898.791 2327.35 898.829 2327.36 898.866 2327.4 898.891 2327.43 898.885ZM2327.16 898.931 2327.16 898.931C2327.2 898.925 2327.23 898.889 2327.22 898.852 2327.21 898.814 2327.18 898.789 2327.14 898.796L2327.14 898.796C2327.1 898.802 2327.08 898.838 2327.08 898.875 2327.09 898.913 2327.13 898.938 2327.16 898.931ZM2326.89 898.978 2326.89 898.978C2326.93 898.971 2326.95 898.936 2326.95 898.898 2326.94 898.861 2326.91 898.836 2326.87 898.842L2326.87 898.842C2326.83 898.849 2326.81 898.884 2326.81 898.922 2326.82 898.959 2326.85 898.984 2326.89 898.978Z" fill-rule="evenodd"/><path d="M0 0 2224 382" stroke="#4472C4" stroke-width="13.75" stroke-linecap="round" stroke-linejoin="round" stroke-miterlimit="10" stroke-dasharray="0 27.5" fill="none" fill-rule="evenodd" transform="matrix(1 0 0 -1 1226 1088)"/></g><g clip-path="url(#clip26)"><text fill="#595959" font-family="Calibri,Calibri_MSFontService,sans-serif" font-weight="400" font-size="55" transform="matrix(1 0 0 1 774.331 1935)">50,000</text></g><g clip-path="url(#clip27)"><text fill="#595959" font-family="Calibri,Calibri_MSFontService,sans-serif" font-weight="400" font-size="55" transform="matrix(1 0 0 1 774.331 1776)">60,000</text></g><g clip-path="url(#clip28)"><text fill="#595959" font-family="Calibri,Calibri_MSFontService,sans-serif" font-weight="400" font-size="55" transform="matrix(1 0 0 1 774.331 1618)">70,000</text></g><g clip-path="url(#clip29)"><text fill="#595959" font-family="Calibri,Calibri_MSFontService,sans-serif" font-weight="400" font-size="55" transform="matrix(1 0 0 1 774.331 1459)">80,000</text></g><g clip-path="url(#clip30)"><text fill="#595959" font-family="Calibri,Calibri_MSFontService,sans-serif" font-weight="400" font-size="55" transform="matrix(1 0 0 1 774.331 1300)">90,000</text></g><g clip-path="url(#clip31)"><text fill="#595959" font-family="Calibri,Calibri_MSFontService,sans-serif" font-weight="400" font-size="55" transform="matrix(1 0 0 1 746.464 1141)">100,000</text></g><g clip-path="url(#clip32)"><text fill="#595959" font-family="Calibri,Calibri_MSFontService,sans-serif" font-weight="400" font-size="55" transform="matrix(1 0 0 1 746.464 983)">110,000</text></g><g clip-path="url(#clip33)"><text fill="#595959" font-family="Calibri,Calibri_MSFontService,sans-serif" font-weight="400" font-size="55" transform="matrix(1 0 0 1 746.464 824)">120,000</text></g><g clip-path="url(#clip34)"><text fill="#595959" font-family="Calibri,Calibri_MSFontService,sans-serif" font-weight="400" font-size="55" transform="matrix(1 0 0 1 746.464 665)">130,000</text></g><g clip-path="url(#clip35)"><text fill="#595959" font-family="Calibri,Calibri_MSFontService,sans-serif" font-weight="400" font-size="55" transform="matrix(1 0 0 1 746.464 507)">140,000</text></g><g clip-path="url(#clip36)"><text fill="#595959" font-family="Calibri,Calibri_MSFontService,sans-serif" font-weight="400" font-size="55" transform="matrix(1 0 0 1 922.686 2007)">1985</text></g><g clip-path="url(#clip37)"><text fill="#595959" font-family="Calibri,Calibri_MSFontService,sans-serif" font-weight="400" font-size="55" transform="matrix(1 0 0 1 1169.81 2007)">1990</text></g><g clip-path="url(#clip38)"><text fill="#595959" font-family="Calibri,Calibri_MSFontService,sans-serif" font-weight="400" font-size="55" transform="matrix(1 0 0 1 1416.93 2007)">1995</text></g><g clip-path="url(#clip39)"><text fill="#595959" font-family="Calibri,Calibri_MSFontService,sans-serif" font-weight="400" font-size="55" transform="matrix(1 0 0 1 1664.05 2007)">2000</text></g><g clip-path="url(#clip40)"><text fill="#595959" font-family="Calibri,Calibri_MSFontService,sans-serif" font-weight="400" font-size="55" transform="matrix(1 0 0 1 1911.17 2007)">2005</text></g><g clip-path="url(#clip41)"><text fill="#595959" font-family="Calibri,Calibri_MSFontService,sans-serif" font-weight="400" font-size="55" transform="matrix(1 0 0 1 2158.29 2007)">2010</text></g><g clip-path="url(#clip42)"><text fill="#595959" font-family="Calibri,Calibri_MSFontService,sans-serif" font-weight="400" font-size="55" transform="matrix(1 0 0 1 2405.42 2007)">2015</text></g><g clip-path="url(#clip43)"><text fill="#595959" font-family="Calibri,Calibri_MSFontService,sans-serif" font-weight="400" font-size="55" transform="matrix(1 0 0 1 2652.54 2007)">2020</text></g><g clip-path="url(#clip44)"><text fill="#595959" font-family="Calibri,Calibri_MSFontService,sans-serif" font-weight="400" font-size="55" transform="matrix(1 0 0 1 2899.66 2007)">2025</text></g><g clip-path="url(#clip45)"><text fill="#595959" font-family="Calibri,Calibri_MSFontService,sans-serif" font-weight="400" font-size="55" transform="matrix(1 0 0 1 3146.78 2007)">2030</text></g><g clip-path="url(#clip46)"><text fill="#595959" font-family="Calibri,Calibri_MSFontService,sans-serif" font-weight="400" font-size="55" transform="matrix(1 0 0 1 3393.9 2007)">2035</text></g><g clip-path="url(#clip47)"><text fill="#595959" font-family="Calibri,Calibri_MSFontService,sans-serif" font-weight="400" font-size="55" transform="matrix(1 0 0 1 3641.02 2007)">2040</text></g><g clip-path="url(#clip48)"><text fill="#595959" font-family="Calibri,Calibri_MSFontService,sans-serif" font-weight="700" font-size="64" transform="matrix(6.12323e-17 -1 1 6.12323e-17 715.39 1351)">Population</text></g><g clip-path="url(#clip49)"><text fill="#595959" font-family="Calibri,Calibri_MSFontService,sans-serif" font-weight="700" font-size="73" transform="matrix(1 0 0 1 2257.68 2106)">Y</text></g><g clip-path="url(#clip50)"><text fill="#595959" font-family="Calibri,Calibri_MSFontService,sans-serif" font-weight="700" font-size="73" transform="matrix(1 0 0 1 2289.92 2106)">ears</text></g><g clip-path="url(#clip51)"><text fill="#595959" font-family="Calibri,Calibri_MSFontService,sans-serif" font-weight="700" font-size="83" transform="matrix(1 0 0 1 1585.55 406)">THLD Population Projection by 2035 </text></g></g></svg>