<svg width="3326" height="1905" xmlns="http://www.w3.org/2000/svg" xmlns:xlink="http://www.w3.org/1999/xlink" overflow="hidden"><defs><clipPath id="clip0"><rect x="413" y="240" width="3326" height="1905"/></clipPath><clipPath id="clip1"><rect x="412" y="240" width="3327" height="1904"/></clipPath><clipPath id="clip2"><rect x="412" y="240" width="3327" height="1904"/></clipPath><clipPath id="clip3"><rect x="822" y="455" width="2870" height="1270"/></clipPath><clipPath id="clip4"><rect x="822" y="455" width="2870" height="1270"/></clipPath><clipPath id="clip5"><rect x="822" y="455" width="2870" height="1270"/></clipPath><clipPath id="clip6"><rect x="822" y="455" width="2870" height="1270"/></clipPath><clipPath id="clip7"><rect x="412" y="240" width="3327" height="1904"/></clipPath><clipPath id="clip8"><rect x="412" y="240" width="3327" height="1904"/></clipPath><clipPath id="clip9"><rect x="412" y="240" width="3327" height="1904"/></clipPath><clipPath id="clip10"><rect x="412" y="240" width="3327" height="1904"/></clipPath><clipPath id="clip11"><rect x="412" y="240" width="3327" height="1904"/></clipPath><clipPath id="clip12"><rect x="412" y="240" width="3327" height="1904"/></clipPath><clipPath id="clip13"><rect x="412" y="240" width="3327" height="1904"/></clipPath><clipPath id="clip14"><rect x="412" y="240" width="3327" height="1904"/></clipPath><clipPath id="clip15"><rect x="412" y="240" width="3327" height="1904"/></clipPath><clipPath id="clip16"><rect x="412" y="240" width="3327" height="1904"/></clipPath><clipPath id="clip17"><rect x="412" y="240" width="3327" height="1904"/></clipPath><clipPath id="clip18"><rect x="412" y="240" width="3327" height="1904"/></clipPath><clipPath id="clip19"><rect x="412" y="240" width="3327" height="1904"/></clipPath><clipPath id="clip20"><rect x="412" y="240" width="3327" height="1904"/></clipPath><clipPath id="clip21"><rect x="412" y="240" width="3327" height="1904"/></clipPath><clipPath id="clip22"><rect x="412" y="240" width="3327" height="1904"/></clipPath><clipPath id="clip23"><rect x="412" y="240" width="3327" height="1904"/></clipPath><clipPath id="clip24"><rect x="412" y="240" width="3327" height="1904"/></clipPath><clipPath id="clip25"><rect x="412" y="240" width="3327" height="1904"/></clipPath><clipPath id="clip26"><rect x="412" y="240" width="3327" height="1904"/></clipPath><clipPath id="clip27"><rect x="412" y="240" width="3327" height="1904"/></clipPath><clipPath id="clip28"><rect x="412" y="240" width="3327" height="1904"/></clipPath><clipPath id="clip29"><rect x="412" y="240" width="3327" height="1904"/></clipPath><clipPath id="clip30"><rect x="412" y="240" width="3327" height="1904"/></clipPath><clipPath id="clip31"><rect x="412" y="240" width="3327" height="1904"/></clipPath><clipPath id="clip32"><rect x="412" y="240" width="3327" height="1904"/></clipPath><clipPath id="clip33"><rect x="412" y="240" width="3327" height="1904"/></clipPath><clipPath id="clip34"><rect x="412" y="240" width="3327" height="1904"/></clipPath><clipPath id="clip35"><rect x="412" y="240" width="3327" height="1904"/></clipPath><clipPath id="clip36"><rect x="412" y="240" width="3327" height="1904"/></clipPath><clipPath id="clip37"><rect x="412" y="240" width="3327" height="1904"/></clipPath><clipPath id="clip38"><rect x="412" y="240" width="3327" height="1904"/></clipPath><clipPath id="clip39"><rect x="412" y="240" width="3327" height="1904"/></clipPath><clipPath id="clip40"><rect x="412" y="240" width="3327" height="1904"/></clipPath><clipPath id="clip41"><rect x="412" y="240" width="3327" height="1904"/></clipPath><clipPath id="clip42"><rect x="412" y="240" width="3327" height="1904"/></clipPath><clipPath id="clip43"><rect x="412" y="240" width="3327" height="1904"/></clipPath><clipPath id="clip44"><rect x="412" y="240" width="3327" height="1904"/></clipPath><clipPath id="clip45"><rect x="412" y="240" width="3327" height="1904"/></clipPath><clipPath id="clip46"><rect x="412" y="240" width="3327" height="1904"/></clipPath><clipPath id="clip47"><rect x="412" y="240" width="3327" height="1904"/></clipPath><clipPath id="clip48"><rect x="412" y="240" width="3327" height="1904"/></clipPath><clipPath id="clip49"><rect x="412" y="240" width="3327" height="1904"/></clipPath><clipPath id="clip50"><rect x="412" y="240" width="3327" height="1904"/></clipPath><clipPath id="clip51"><rect x="412" y="240" width="3327" height="1904"/></clipPath><clipPath id="clip52"><rect x="412" y="240" width="3327" height="1904"/></clipPath><clipPath id="clip53"><rect x="412" y="240" width="3327" height="1904"/></clipPath><clipPath id="clip54"><rect x="412" y="240" width="3327" height="1904"/></clipPath><clipPath id="clip55"><rect x="412" y="240" width="3327" height="1904"/></clipPath><clipPath id="clip56"><rect x="412" y="240" width="3327" height="1904"/></clipPath><clipPath id="clip57"><rect x="412" y="240" width="3327" height="1904"/></clipPath><clipPath id="clip58"><rect x="412" y="240" width="3327" height="1904"/></clipPath><clipPath id="clip59"><rect x="412" y="240" width="3327" height="1904"/></clipPath><clipPath id="clip60"><rect x="412" y="240" width="3327" height="1904"/></clipPath><clipPath id="clip61"><rect x="412" y="240" width="3327" height="1904"/></clipPath><clipPath id="clip62"><rect x="412" y="240" width="3327" height="1904"/></clipPath><clipPath id="clip63"><rect x="412" y="240" width="3327" height="1904"/></clipPath></defs><g clip-path="url(#clip0)" transform="translate(-413 -240)"><g clip-path="url(#clip1)"><path d="M822.5 1580.55 3688.5 1580.55M822.5 1440.55 3688.5 1440.55M822.5 1299.54 3688.5 1299.54M822.5 1158.54 3688.5 1158.54M822.5 1018.53 3688.5 1018.53M822.5 877.529 3688.5 877.529M822.5 736.524 3688.5 736.524M822.5 596.52 3688.5 596.52M822.5 455.5 3688.5 455.5" stroke="#D9D9D9" stroke-width="3.4375" stroke-linejoin="round" stroke-miterlimit="10" fill="none"/></g><g clip-path="url(#clip2)"><path d="M822.5 1721.5 3688.5 1721.5" stroke="#D9D9D9" stroke-width="3.4375" stroke-linejoin="round" stroke-miterlimit="10" fill="none" fill-rule="evenodd"/></g><g clip-path="url(#clip3)"><path d="M1002 1101 1360.04 866.028 1719.06 904.03 2077.07 937.031 2435 836" stroke="#4472C4" stroke-width="10.3125" stroke-linecap="round" stroke-linejoin="round" stroke-miterlimit="10" fill="none"/></g><g clip-path="url(#clip4)"><path d="M2435.5 835.5 2793.59 812.527 3151.6 767.525 3509.5 721.5" stroke="#ED7D31" stroke-width="9.16667" stroke-linecap="round" stroke-linejoin="round" stroke-miterlimit="10" fill="none"/></g><g clip-path="url(#clip5)"><path d="M2435 836 2793.09 992 3151.1 952.031 3510 912.03" stroke="#F4B183" stroke-width="10.3125" stroke-linecap="round" stroke-linejoin="round" stroke-miterlimit="10" stroke-dasharray="20.625 20.625" fill="none"/></g><g clip-path="url(#clip6)"><path d="M2435 836 2793.09 634.021 3151.1 583.019 3510 532" stroke="#C55A11" stroke-width="10.3125" stroke-linecap="round" stroke-linejoin="round" stroke-miterlimit="10" stroke-dasharray="20.625 20.625" fill="none"/></g><g clip-path="url(#clip7)"><path d="M1002.5 1101.5 1012.53 1158.5 1033.5 1158.5" stroke="#A6A6A6" stroke-width="3.4375" stroke-linejoin="round" stroke-miterlimit="10" fill="none"/></g><g clip-path="url(#clip8)"><path d="M1360.5 866.5 1382.55 790.5 1403.5 790.5" stroke="#A6A6A6" stroke-width="3.4375" stroke-linejoin="round" stroke-miterlimit="10" fill="none"/></g><g clip-path="url(#clip9)"><path d="M1718.5 903.5 1729.56 1005.5 1749.5 1005.5" stroke="#A6A6A6" stroke-width="3.4375" stroke-linejoin="round" stroke-miterlimit="10" fill="none"/></g><g clip-path="url(#clip10)"><path d="M2076.5 936.5 2105.57 1012.5 2126.5 1012.5" stroke="#A6A6A6" stroke-width="3.4375" stroke-linejoin="round" stroke-miterlimit="10" fill="none"/></g><g clip-path="url(#clip11)"><text fill="#404040" font-family="Calibri,Calibri_MSFontService,sans-serif" font-weight="700" font-size="55" transform="matrix(1 0 0 1 1047.02 1177)">44,094</text></g><g clip-path="url(#clip12)"><text fill="#404040" font-family="Calibri,Calibri_MSFontService,sans-serif" font-weight="700" font-size="55" transform="matrix(1 0 0 1 1417.27 809)">60,800</text></g><g clip-path="url(#clip13)"><text fill="#404040" font-family="Calibri,Calibri_MSFontService,sans-serif" font-weight="700" font-size="55" transform="matrix(1 0 0 1 1763.52 1023)">58,147</text></g><g clip-path="url(#clip14)"><text fill="#404040" font-family="Calibri,Calibri_MSFontService,sans-serif" font-weight="700" font-size="55" transform="matrix(1 0 0 1 2139.78 1031)">55,791</text></g><g clip-path="url(#clip15)"><path d="M2435.5 835.5 2429.5 756.5" stroke="#A6A6A6" stroke-width="3.4375" stroke-linejoin="round" stroke-miterlimit="10" fill="none"/></g><g clip-path="url(#clip16)"><path d="M2793.5 812.5 2819.59 872.5 2840.5 872.5" stroke="#A6A6A6" stroke-width="3.4375" stroke-linejoin="round" stroke-miterlimit="10" fill="none"/></g><g clip-path="url(#clip17)"><path d="M3151.5 767.5 3172.6 832.5 3193.5 832.5" stroke="#A6A6A6" stroke-width="3.4375" stroke-linejoin="round" stroke-miterlimit="10" fill="none"/></g><g clip-path="url(#clip18)"><path d="M3509.5 721.5 3603.5 768.5" stroke="#A6A6A6" stroke-width="3.4375" stroke-linejoin="round" stroke-miterlimit="10" fill="none"/></g><g clip-path="url(#clip19)"><text fill="#404040" font-family="Calibri,Calibri_MSFontService,sans-serif" font-weight="700" font-size="55" transform="matrix(1 0 0 1 2352.65 734)">62,977</text></g><g clip-path="url(#clip20)"><text fill="#404040" font-family="Calibri,Calibri_MSFontService,sans-serif" font-weight="700" font-size="55" transform="matrix(1 0 0 1 2854.35 891)">64,597</text></g><g clip-path="url(#clip21)"><text fill="#404040" font-family="Calibri,Calibri_MSFontService,sans-serif" font-weight="700" font-size="55" transform="matrix(1 0 0 1 3207.09 851)">67,828</text></g><g clip-path="url(#clip22)"><text fill="#404040" font-family="Calibri,Calibri_MSFontService,sans-serif" font-weight="700" font-size="55" transform="matrix(1 0 0 1 3526.72 827)">71,060</text></g><g clip-path="url(#clip23)"><path d="M2793.5 991.5 2803.59 1067.5 2824.5 1067.5" stroke="#A6A6A6" stroke-width="3.4375" stroke-linejoin="round" stroke-miterlimit="10" fill="none"/></g><g clip-path="url(#clip24)"><path d="M3151.5 951.5 3178.6 1038.5 3198.5 1038.5" stroke="#A6A6A6" stroke-width="3.4375" stroke-linejoin="round" stroke-miterlimit="10" fill="none"/></g><g clip-path="url(#clip25)"><path d="M3509.5 911.5 3514.62 971.5 3535.5 971.5" stroke="#A6A6A6" stroke-width="3.4375" stroke-linejoin="round" stroke-miterlimit="10" fill="none"/></g><g clip-path="url(#clip26)"><text fill="#404040" font-family="Calibri,Calibri_MSFontService,sans-serif" font-weight="700" font-size="55" transform="matrix(1 0 0 1 2837.8 1086)">51,882</text></g><g clip-path="url(#clip27)"><text fill="#404040" font-family="Calibri,Calibri_MSFontService,sans-serif" font-weight="700" font-size="55" transform="matrix(1 0 0 1 3212.6 1057)">54,719</text></g><g clip-path="url(#clip28)"><text fill="#404040" font-family="Calibri,Calibri_MSFontService,sans-serif" font-weight="700" font-size="55" transform="matrix(1 0 0 1 3548.79 990)">57,565</text></g><g clip-path="url(#clip29)"><path d="M2793.5 633.5 2875.5 592.5" stroke="#A6A6A6" stroke-width="3.4375" stroke-linejoin="round" stroke-miterlimit="10" fill="none"/></g><g clip-path="url(#clip30)"><path d="M3151.5 582.5 3261.5 519.5" stroke="#A6A6A6" stroke-width="3.4375" stroke-linejoin="round" stroke-miterlimit="10" fill="none"/></g><g clip-path="url(#clip31)"><path d="M3509.5 532.5 3575.5 485.5" stroke="#A6A6A6" stroke-width="3.4375" stroke-linejoin="round" stroke-miterlimit="10" fill="none"/></g><g clip-path="url(#clip32)"><text fill="#404040" font-family="Calibri,Calibri_MSFontService,sans-serif" font-weight="700" font-size="55" transform="matrix(1 0 0 1 2799.18 571)">77,311</text></g><g clip-path="url(#clip33)"><text fill="#404040" font-family="Calibri,Calibri_MSFontService,sans-serif" font-weight="700" font-size="55" transform="matrix(1 0 0 1 3185.02 498)">80,937</text></g><g clip-path="url(#clip34)"><text fill="#404040" font-family="Calibri,Calibri_MSFontService,sans-serif" font-weight="700" font-size="55" transform="matrix(1 0 0 1 3499.13 463)">84,555</text></g><g clip-path="url(#clip35)"><text fill="#595959" font-family="Calibri,Calibri_MSFontService,sans-serif" font-weight="700" font-size="64" transform="matrix(1 0 0 1 730.882 1740)">0</text></g><g clip-path="url(#clip36)"><text fill="#595959" font-family="Calibri,Calibri_MSFontService,sans-serif" font-weight="700" font-size="64" transform="matrix(1 0 0 1 584.261 1599)">10,000</text></g><g clip-path="url(#clip37)"><text fill="#595959" font-family="Calibri,Calibri_MSFontService,sans-serif" font-weight="700" font-size="64" transform="matrix(1 0 0 1 584.261 1459)">20,000</text></g><g clip-path="url(#clip38)"><text fill="#595959" font-family="Calibri,Calibri_MSFontService,sans-serif" font-weight="700" font-size="64" transform="matrix(1 0 0 1 584.261 1318)">30,000</text></g><g clip-path="url(#clip39)"><text fill="#595959" font-family="Calibri,Calibri_MSFontService,sans-serif" font-weight="700" font-size="64" transform="matrix(1 0 0 1 584.261 1177)">40,000</text></g><g clip-path="url(#clip40)"><text fill="#595959" font-family="Calibri,Calibri_MSFontService,sans-serif" font-weight="700" font-size="64" transform="matrix(1 0 0 1 584.261 1036)">50,000</text></g><g clip-path="url(#clip41)"><text fill="#595959" font-family="Calibri,Calibri_MSFontService,sans-serif" font-weight="700" font-size="64" transform="matrix(1 0 0 1 584.261 896)">60,000</text></g><g clip-path="url(#clip42)"><text fill="#595959" font-family="Calibri,Calibri_MSFontService,sans-serif" font-weight="700" font-size="64" transform="matrix(1 0 0 1 584.261 755)">70,000</text></g><g clip-path="url(#clip43)"><text fill="#595959" font-family="Calibri,Calibri_MSFontService,sans-serif" font-weight="700" font-size="64" transform="matrix(1 0 0 1 584.261 614)">80,000</text></g><g clip-path="url(#clip44)"><text fill="#595959" font-family="Calibri,Calibri_MSFontService,sans-serif" font-weight="700" font-size="64" transform="matrix(1 0 0 1 584.261 474)">90,000</text></g><g clip-path="url(#clip45)"><text fill="#595959" font-family="Calibri,Calibri_MSFontService,sans-serif" font-weight="700" font-size="64" transform="matrix(1 0 0 1 937.02 1823)">2000</text></g><g clip-path="url(#clip46)"><text fill="#595959" font-family="Calibri,Calibri_MSFontService,sans-serif" font-weight="700" font-size="64" transform="matrix(1 0 0 1 1295.27 1823)">2005</text></g><g clip-path="url(#clip47)"><text fill="#595959" font-family="Calibri,Calibri_MSFontService,sans-serif" font-weight="700" font-size="64" transform="matrix(1 0 0 1 1653.53 1823)">2010</text></g><g clip-path="url(#clip48)"><text fill="#595959" font-family="Calibri,Calibri_MSFontService,sans-serif" font-weight="700" font-size="64" transform="matrix(1 0 0 1 2011.78 1823)">2015</text></g><g clip-path="url(#clip49)"><text fill="#595959" font-family="Calibri,Calibri_MSFontService,sans-serif" font-weight="700" font-size="64" transform="matrix(1 0 0 1 2370.03 1823)">2020</text></g><g clip-path="url(#clip50)"><text fill="#595959" font-family="Calibri,Calibri_MSFontService,sans-serif" font-weight="700" font-size="64" transform="matrix(1 0 0 1 2728.29 1823)">2025</text></g><g clip-path="url(#clip51)"><text fill="#595959" font-family="Calibri,Calibri_MSFontService,sans-serif" font-weight="700" font-size="64" transform="matrix(1 0 0 1 3086.54 1823)">2030</text></g><g clip-path="url(#clip52)"><text fill="#595959" font-family="Calibri,Calibri_MSFontService,sans-serif" font-weight="700" font-size="64" transform="matrix(1 0 0 1 3444.79 1823)">2035</text></g><g clip-path="url(#clip53)"><text fill="#595959" font-family="Calibri,Calibri_MSFontService,sans-serif" font-weight="700" font-size="83" transform="matrix(6.12323e-17 -1 1 6.12323e-17 548.786 1275)">Population</text></g><g clip-path="url(#clip54)"><text fill="#595959" font-family="Calibri,Calibri_MSFontService,sans-serif" font-weight="700" font-size="83" transform="matrix(1 0 0 1 2166.08 1933)">Years</text></g><g clip-path="url(#clip55)"><text fill="#595959" font-family="Calibri,Calibri_MSFontService,sans-serif" font-weight="700" font-size="92" transform="matrix(1 0 0 1 1293.67 362)">THLD Area Population Projection by 2035</text></g><g clip-path="url(#clip56)"><path d="M797 2065 913 2065" stroke="#4472C4" stroke-width="10.3125" stroke-linecap="round" stroke-linejoin="round" stroke-miterlimit="10" fill="none" fill-rule="evenodd"/></g><g clip-path="url(#clip57)"><text fill="#595959" font-family="Calibri,Calibri_MSFontService,sans-serif" font-weight="700" font-size="64" transform="matrix(1 0 0 1 925.399 2083)">Values</text></g><g clip-path="url(#clip58)"><path d="M1211.5 2064.5 1327.5 2064.5" stroke="#ED7D31" stroke-width="9.16667" stroke-linecap="round" stroke-linejoin="round" stroke-miterlimit="10" fill="none" fill-rule="evenodd"/></g><g clip-path="url(#clip59)"><text fill="#595959" font-family="Calibri,Calibri_MSFontService,sans-serif" font-weight="700" font-size="64" transform="matrix(1 0 0 1 1340.13 2083)">Forecast</text></g><g clip-path="url(#clip60)"><path d="M1674 2065 1790 2065" stroke="#F4B183" stroke-width="10.3125" stroke-linecap="round" stroke-linejoin="round" stroke-miterlimit="10" stroke-dasharray="20.625 20.625" fill="none" fill-rule="evenodd"/></g><g clip-path="url(#clip61)"><text fill="#595959" font-family="Calibri,Calibri_MSFontService,sans-serif" font-weight="700" font-size="64" transform="matrix(1 0 0 1 1802.56 2083)">Lower Confidence Bound</text></g><g clip-path="url(#clip62)"><path d="M2578 2065 2694 2065" stroke="#C55A11" stroke-width="10.3125" stroke-linecap="round" stroke-linejoin="round" stroke-miterlimit="10" stroke-dasharray="20.625 20.625" fill="none" fill-rule="evenodd"/></g><g clip-path="url(#clip63)"><text fill="#595959" font-family="Calibri,Calibri_MSFontService,sans-serif" font-weight="700" font-size="64" transform="matrix(1 0 0 1 2706.24 2083)">Upper Confidence Bound</text></g></g></svg>