<svg width="3278" height="1879" xmlns="http://www.w3.org/2000/svg" xmlns:xlink="http://www.w3.org/1999/xlink" overflow="hidden"><defs><clipPath id="clip0"><rect x="649" y="298" width="3278" height="1879"/></clipPath><clipPath id="clip1"><rect x="649" y="298" width="3278" height="1878"/></clipPath><clipPath id="clip2"><rect x="649" y="298" width="3278" height="1878"/></clipPath><clipPath id="clip3"><rect x="1042" y="513" width="2838" height="1243"/></clipPath><clipPath id="clip4"><rect x="1042" y="513" width="2838" height="1243"/></clipPath><clipPath id="clip5"><rect x="1042" y="513" width="2838" height="1243"/></clipPath><clipPath id="clip6"><rect x="1042" y="513" width="2838" height="1243"/></clipPath><clipPath id="clip7"><rect x="649" y="298" width="3278" height="1878"/></clipPath><clipPath id="clip8"><rect x="649" y="298" width="3278" height="1878"/></clipPath><clipPath id="clip9"><rect x="649" y="298" width="3278" height="1878"/></clipPath><clipPath id="clip10"><rect x="649" y="298" width="3278" height="1878"/></clipPath><clipPath id="clip11"><rect x="649" y="298" width="3278" height="1878"/></clipPath><clipPath id="clip12"><rect x="649" y="298" width="3278" height="1878"/></clipPath><clipPath id="clip13"><rect x="649" y="298" width="3278" height="1878"/></clipPath><clipPath id="clip14"><rect x="649" y="298" width="3278" height="1878"/></clipPath><clipPath id="clip15"><rect x="649" y="298" width="3278" height="1878"/></clipPath><clipPath id="clip16"><rect x="649" y="298" width="3278" height="1878"/></clipPath><clipPath id="clip17"><rect x="649" y="298" width="3278" height="1878"/></clipPath><clipPath id="clip18"><rect x="649" y="298" width="3278" height="1878"/></clipPath><clipPath id="clip19"><rect x="649" y="298" width="3278" height="1878"/></clipPath><clipPath id="clip20"><rect x="649" y="298" width="3278" height="1878"/></clipPath><clipPath id="clip21"><rect x="649" y="298" width="3278" height="1878"/></clipPath><clipPath id="clip22"><rect x="649" y="298" width="3278" height="1878"/></clipPath><clipPath id="clip23"><rect x="649" y="298" width="3278" height="1878"/></clipPath><clipPath id="clip24"><rect x="649" y="298" width="3278" height="1878"/></clipPath><clipPath id="clip25"><rect x="649" y="298" width="3278" height="1878"/></clipPath><clipPath id="clip26"><rect x="649" y="298" width="3278" height="1878"/></clipPath><clipPath id="clip27"><rect x="649" y="298" width="3278" height="1878"/></clipPath><clipPath id="clip28"><rect x="649" y="298" width="3278" height="1878"/></clipPath><clipPath id="clip29"><rect x="649" y="298" width="3278" height="1878"/></clipPath><clipPath id="clip30"><rect x="649" y="298" width="3278" height="1878"/></clipPath><clipPath id="clip31"><rect x="649" y="298" width="3278" height="1878"/></clipPath><clipPath id="clip32"><rect x="649" y="298" width="3278" height="1878"/></clipPath><clipPath id="clip33"><rect x="649" y="298" width="3278" height="1878"/></clipPath><clipPath id="clip34"><rect x="649" y="298" width="3278" height="1878"/></clipPath><clipPath id="clip35"><rect x="649" y="298" width="3278" height="1878"/></clipPath><clipPath id="clip36"><rect x="649" y="298" width="3278" height="1878"/></clipPath><clipPath id="clip37"><rect x="649" y="298" width="3278" height="1878"/></clipPath><clipPath id="clip38"><rect x="649" y="298" width="3278" height="1878"/></clipPath><clipPath id="clip39"><rect x="649" y="298" width="3278" height="1878"/></clipPath><clipPath id="clip40"><rect x="649" y="298" width="3278" height="1878"/></clipPath><clipPath id="clip41"><rect x="649" y="298" width="3278" height="1878"/></clipPath><clipPath id="clip42"><rect x="649" y="298" width="3278" height="1878"/></clipPath><clipPath id="clip43"><rect x="649" y="298" width="3278" height="1878"/></clipPath><clipPath id="clip44"><rect x="649" y="298" width="3278" height="1878"/></clipPath><clipPath id="clip45"><rect x="649" y="298" width="3278" height="1878"/></clipPath><clipPath id="clip46"><rect x="649" y="298" width="3278" height="1878"/></clipPath><clipPath id="clip47"><rect x="649" y="298" width="3278" height="1878"/></clipPath><clipPath id="clip48"><rect x="649" y="298" width="3278" height="1878"/></clipPath><clipPath id="clip49"><rect x="649" y="298" width="3278" height="1878"/></clipPath><clipPath id="clip50"><rect x="649" y="298" width="3278" height="1878"/></clipPath><clipPath id="clip51"><rect x="649" y="298" width="3278" height="1878"/></clipPath><clipPath id="clip52"><rect x="649" y="298" width="3278" height="1878"/></clipPath><clipPath id="clip53"><rect x="649" y="298" width="3278" height="1878"/></clipPath><clipPath id="clip54"><rect x="649" y="298" width="3278" height="1878"/></clipPath><clipPath id="clip55"><rect x="649" y="298" width="3278" height="1878"/></clipPath><clipPath id="clip56"><rect x="649" y="298" width="3278" height="1878"/></clipPath><clipPath id="clip57"><rect x="649" y="298" width="3278" height="1878"/></clipPath><clipPath id="clip58"><rect x="649" y="298" width="3278" height="1878"/></clipPath><clipPath id="clip59"><rect x="649" y="298" width="3278" height="1878"/></clipPath><clipPath id="clip60"><rect x="649" y="298" width="3278" height="1878"/></clipPath><clipPath id="clip61"><rect x="649" y="298" width="3278" height="1878"/></clipPath><clipPath id="clip62"><rect x="649" y="298" width="3278" height="1878"/></clipPath><clipPath id="clip63"><rect x="649" y="298" width="3278" height="1878"/></clipPath></defs><g clip-path="url(#clip0)" transform="translate(-649 -298)"><g clip-path="url(#clip1)"><path d="M1042.5 1615.55 3876.5 1615.55M1042.5 1477.55 3876.5 1477.55M1042.5 1340.54 3876.5 1340.54M1042.5 1202.54 3876.5 1202.54M1042.5 1064.54 3876.5 1064.54M1042.5 926.531 3876.5 926.531M1042.5 789.526 3876.5 789.526M1042.5 651.522 3876.5 651.522M1042.5 513.5 3876.5 513.5" stroke="#D9D9D9" stroke-width="3.4375" stroke-linejoin="round" stroke-miterlimit="10" fill="none"/></g><g clip-path="url(#clip2)"><path d="M1042.5 1753.5 3876.5 1753.5" stroke="#D9D9D9" stroke-width="3.4375" stroke-linejoin="round" stroke-miterlimit="10" fill="none" fill-rule="evenodd"/></g><g clip-path="url(#clip3)"><path d="M1220 1146 1574.05 916.03 1928.06 952.031 2283.07 985.032 2637 886" stroke="#4472C4" stroke-width="10.3125" stroke-linecap="round" stroke-linejoin="round" stroke-miterlimit="10" fill="none"/></g><g clip-path="url(#clip4)"><path d="M2637.5 885.5 2991.6 863.529 3345.61 818.527 3699.5 774.5" stroke="#ED7D31" stroke-width="9.16667" stroke-linecap="round" stroke-linejoin="round" stroke-miterlimit="10" fill="none"/></g><g clip-path="url(#clip5)"><path d="M2637 886 2991.1 1039 3345.11 1000.03 3700 960.031" stroke="#F4B183" stroke-width="10.3125" stroke-linecap="round" stroke-linejoin="round" stroke-miterlimit="10" stroke-dasharray="20.625 20.625" fill="none"/></g><g clip-path="url(#clip6)"><path d="M2637 886 2991.1 688.023 3345.11 638.021 3700 589" stroke="#C55A11" stroke-width="10.3125" stroke-linecap="round" stroke-linejoin="round" stroke-miterlimit="10" stroke-dasharray="20.625 20.625" fill="none"/></g><g clip-path="url(#clip7)"><path d="M1220.5 1145.5 1230.54 1202.5 1251.5 1202.5" stroke="#A6A6A6" stroke-width="3.4375" stroke-linejoin="round" stroke-miterlimit="10" fill="none"/></g><g clip-path="url(#clip8)"><path d="M1574.5 915.5 1596.55 840.5 1617.5 840.5" stroke="#A6A6A6" stroke-width="3.4375" stroke-linejoin="round" stroke-miterlimit="10" fill="none"/></g><g clip-path="url(#clip9)"><path d="M1928.5 952.5 1938.56 1052.5 1959.5 1052.5" stroke="#A6A6A6" stroke-width="3.4375" stroke-linejoin="round" stroke-miterlimit="10" fill="none"/></g><g clip-path="url(#clip10)"><path d="M2282.5 984.5 2310.58 1059.5 2331.5 1059.5" stroke="#A6A6A6" stroke-width="3.4375" stroke-linejoin="round" stroke-miterlimit="10" fill="none"/></g><g clip-path="url(#clip11)"><text fill="#404040" font-family="Calibri,Calibri_MSFontService,sans-serif" font-weight="700" font-size="55" transform="matrix(1 0 0 1 1264.89 1221)">44094</text></g><g clip-path="url(#clip12)"><text fill="#404040" font-family="Calibri,Calibri_MSFontService,sans-serif" font-weight="700" font-size="55" transform="matrix(1 0 0 1 1630.98 859)">60800</text></g><g clip-path="url(#clip13)"><text fill="#404040" font-family="Calibri,Calibri_MSFontService,sans-serif" font-weight="700" font-size="55" transform="matrix(1 0 0 1 1973.41 1071)">58147</text></g><g clip-path="url(#clip14)"><text fill="#404040" font-family="Calibri,Calibri_MSFontService,sans-serif" font-weight="700" font-size="55" transform="matrix(1 0 0 1 2345.4 1078)">55791</text></g><g clip-path="url(#clip15)"><path d="M2637.5 885.5 2626.5 808.5" stroke="#A6A6A6" stroke-width="3.4375" stroke-linejoin="round" stroke-miterlimit="10" fill="none"/></g><g clip-path="url(#clip16)"><path d="M2991.5 863.5 3017.6 922.5 3038.5 922.5" stroke="#A6A6A6" stroke-width="3.4375" stroke-linejoin="round" stroke-miterlimit="10" fill="none"/></g><g clip-path="url(#clip17)"><path d="M3345.5 818.5 3366.61 883.5 3387.5 883.5" stroke="#A6A6A6" stroke-width="3.4375" stroke-linejoin="round" stroke-miterlimit="10" fill="none"/></g><g clip-path="url(#clip18)"><path d="M3699.5 774.5 3786.5 819.5" stroke="#A6A6A6" stroke-width="3.4375" stroke-linejoin="round" stroke-miterlimit="10" fill="none"/></g><g clip-path="url(#clip19)"><text fill="#404040" font-family="Calibri,Calibri_MSFontService,sans-serif" font-weight="700" font-size="55" transform="matrix(1 0 0 1 2556.4 786)">62977</text></g><g clip-path="url(#clip20)"><text fill="#404040" font-family="Calibri,Calibri_MSFontService,sans-serif" font-weight="700" font-size="55" transform="matrix(1 0 0 1 3052.01 941)">64597</text></g><g clip-path="url(#clip21)"><text fill="#404040" font-family="Calibri,Calibri_MSFontService,sans-serif" font-weight="700" font-size="55" transform="matrix(1 0 0 1 3400.83 902)">67828</text></g><g clip-path="url(#clip22)"><text fill="#404040" font-family="Calibri,Calibri_MSFontService,sans-serif" font-weight="700" font-size="55" transform="matrix(1 0 0 1 3717.03 879)">71060</text></g><g clip-path="url(#clip23)"><path d="M2991.5 1038.5 3001.6 1113.5 3021.5 1113.5" stroke="#A6A6A6" stroke-width="3.4375" stroke-linejoin="round" stroke-miterlimit="10" fill="none"/></g><g clip-path="url(#clip24)"><path d="M3345.5 999.5 3371.61 1085.5 3392.5 1085.5" stroke="#A6A6A6" stroke-width="3.4375" stroke-linejoin="round" stroke-miterlimit="10" fill="none"/></g><g clip-path="url(#clip25)"><path d="M3699.5 960.5 3704.62 1019.5 3725.5 1019.5" stroke="#A6A6A6" stroke-width="3.4375" stroke-linejoin="round" stroke-miterlimit="10" fill="none"/></g><g clip-path="url(#clip26)"><text fill="#404040" font-family="Calibri,Calibri_MSFontService,sans-serif" font-weight="700" font-size="55" transform="matrix(1 0 0 1 3035.7 1132)">51882</text></g><g clip-path="url(#clip27)"><text fill="#404040" font-family="Calibri,Calibri_MSFontService,sans-serif" font-weight="700" font-size="55" transform="matrix(1 0 0 1 3406.27 1104)">54719</text></g><g clip-path="url(#clip28)"><text fill="#404040" font-family="Calibri,Calibri_MSFontService,sans-serif" font-weight="700" font-size="55" transform="matrix(1 0 0 1 3738.78 1038)">57565</text></g><g clip-path="url(#clip29)"><path d="M2991.5 688.5 3067.5 648.5" stroke="#A6A6A6" stroke-width="3.4375" stroke-linejoin="round" stroke-miterlimit="10" fill="none"/></g><g clip-path="url(#clip30)"><path d="M3345.5 638.5 3448.5 576.5" stroke="#A6A6A6" stroke-width="3.4375" stroke-linejoin="round" stroke-miterlimit="10" fill="none"/></g><g clip-path="url(#clip31)"><path d="M3699.5 588.5 3759.5 543.5" stroke="#A6A6A6" stroke-width="3.4375" stroke-linejoin="round" stroke-miterlimit="10" fill="none"/></g><g clip-path="url(#clip32)"><text fill="#404040" font-family="Calibri,Calibri_MSFontService,sans-serif" font-weight="700" font-size="55" transform="matrix(1 0 0 1 2997.64 626)">77311</text></g><g clip-path="url(#clip33)"><text fill="#404040" font-family="Calibri,Calibri_MSFontService,sans-serif" font-weight="700" font-size="55" transform="matrix(1 0 0 1 3379.08 555)">80937</text></g><g clip-path="url(#clip34)"><text fill="#404040" font-family="Calibri,Calibri_MSFontService,sans-serif" font-weight="700" font-size="55" transform="matrix(1 0 0 1 3689.84 521)">84555</text></g><g clip-path="url(#clip35)"><text fill="#595959" font-family="Calibri,Calibri_MSFontService,sans-serif" font-weight="700" font-size="64" transform="matrix(1 0 0 1 950.844 1772)">0</text></g><g clip-path="url(#clip36)"><text fill="#595959" font-family="Calibri,Calibri_MSFontService,sans-serif" font-weight="700" font-size="64" transform="matrix(1 0 0 1 820.768 1634)">10000</text></g><g clip-path="url(#clip37)"><text fill="#595959" font-family="Calibri,Calibri_MSFontService,sans-serif" font-weight="700" font-size="64" transform="matrix(1 0 0 1 820.768 1496)">20000</text></g><g clip-path="url(#clip38)"><text fill="#595959" font-family="Calibri,Calibri_MSFontService,sans-serif" font-weight="700" font-size="64" transform="matrix(1 0 0 1 820.768 1358)">30000</text></g><g clip-path="url(#clip39)"><text fill="#595959" font-family="Calibri,Calibri_MSFontService,sans-serif" font-weight="700" font-size="64" transform="matrix(1 0 0 1 820.768 1221)">40000</text></g><g clip-path="url(#clip40)"><text fill="#595959" font-family="Calibri,Calibri_MSFontService,sans-serif" font-weight="700" font-size="64" transform="matrix(1 0 0 1 820.768 1083)">50000</text></g><g clip-path="url(#clip41)"><text fill="#595959" font-family="Calibri,Calibri_MSFontService,sans-serif" font-weight="700" font-size="64" transform="matrix(1 0 0 1 820.768 945)">60000</text></g><g clip-path="url(#clip42)"><text fill="#595959" font-family="Calibri,Calibri_MSFontService,sans-serif" font-weight="700" font-size="64" transform="matrix(1 0 0 1 820.768 807)">70000</text></g><g clip-path="url(#clip43)"><text fill="#595959" font-family="Calibri,Calibri_MSFontService,sans-serif" font-weight="700" font-size="64" transform="matrix(1 0 0 1 820.768 670)">80000</text></g><g clip-path="url(#clip44)"><text fill="#595959" font-family="Calibri,Calibri_MSFontService,sans-serif" font-weight="700" font-size="64" transform="matrix(1 0 0 1 820.768 532)">90000</text></g><g clip-path="url(#clip45)"><text fill="#595959" font-family="Calibri,Calibri_MSFontService,sans-serif" font-weight="700" font-size="64" transform="matrix(1 0 0 1 1154.98 1855)">2000</text></g><g clip-path="url(#clip46)"><text fill="#595959" font-family="Calibri,Calibri_MSFontService,sans-serif" font-weight="700" font-size="64" transform="matrix(1 0 0 1 1509.24 1855)">2005</text></g><g clip-path="url(#clip47)"><text fill="#595959" font-family="Calibri,Calibri_MSFontService,sans-serif" font-weight="700" font-size="64" transform="matrix(1 0 0 1 1863.5 1855)">2010</text></g><g clip-path="url(#clip48)"><text fill="#595959" font-family="Calibri,Calibri_MSFontService,sans-serif" font-weight="700" font-size="64" transform="matrix(1 0 0 1 2217.75 1855)">2015</text></g><g clip-path="url(#clip49)"><text fill="#595959" font-family="Calibri,Calibri_MSFontService,sans-serif" font-weight="700" font-size="64" transform="matrix(1 0 0 1 2572.01 1855)">2020</text></g><g clip-path="url(#clip50)"><text fill="#595959" font-family="Calibri,Calibri_MSFontService,sans-serif" font-weight="700" font-size="64" transform="matrix(1 0 0 1 2926.27 1855)">2025</text></g><g clip-path="url(#clip51)"><text fill="#595959" font-family="Calibri,Calibri_MSFontService,sans-serif" font-weight="700" font-size="64" transform="matrix(1 0 0 1 3280.52 1855)">2030</text></g><g clip-path="url(#clip52)"><text fill="#595959" font-family="Calibri,Calibri_MSFontService,sans-serif" font-weight="700" font-size="64" transform="matrix(1 0 0 1 3634.78 1855)">2035</text></g><g clip-path="url(#clip53)"><text fill="#595959" font-family="Calibri,Calibri_MSFontService,sans-serif" font-weight="700" font-size="83" transform="matrix(6.12323e-17 -1 1 6.12323e-17 785.293 1320)">Population</text></g><g clip-path="url(#clip54)"><text fill="#595959" font-family="Calibri,Calibri_MSFontService,sans-serif" font-weight="700" font-size="83" transform="matrix(1 0 0 1 2370.05 1965)">Years</text></g><g clip-path="url(#clip55)"><text fill="#595959" font-family="Calibri,Calibri_MSFontService,sans-serif" font-weight="700" font-size="92" transform="matrix(1 0 0 1 1505.91 420)">THLD Area Population Projection by 2035</text></g><g clip-path="url(#clip56)"><path d="M1009 2097 1125 2097" stroke="#4472C4" stroke-width="10.3125" stroke-linecap="round" stroke-linejoin="round" stroke-miterlimit="10" fill="none" fill-rule="evenodd"/></g><g clip-path="url(#clip57)"><text fill="#595959" font-family="Calibri,Calibri_MSFontService,sans-serif" font-weight="700" font-size="64" transform="matrix(1 0 0 1 1137.65 2115)">Values</text></g><g clip-path="url(#clip58)"><path d="M1424.5 2096.5 1539.5 2096.5" stroke="#ED7D31" stroke-width="9.16667" stroke-linecap="round" stroke-linejoin="round" stroke-miterlimit="10" fill="none" fill-rule="evenodd"/></g><g clip-path="url(#clip59)"><text fill="#595959" font-family="Calibri,Calibri_MSFontService,sans-serif" font-weight="700" font-size="64" transform="matrix(1 0 0 1 1552.38 2115)">Forecast</text></g><g clip-path="url(#clip60)"><path d="M1887 2097 2002 2097" stroke="#F4B183" stroke-width="10.3125" stroke-linecap="round" stroke-linejoin="round" stroke-miterlimit="10" stroke-dasharray="20.625 20.625" fill="none" fill-rule="evenodd"/></g><g clip-path="url(#clip61)"><text fill="#595959" font-family="Calibri,Calibri_MSFontService,sans-serif" font-weight="700" font-size="64" transform="matrix(1 0 0 1 2014.8 2115)">Lower Confidence Bound</text></g><g clip-path="url(#clip62)"><path d="M2790 2097 2906 2097" stroke="#C55A11" stroke-width="10.3125" stroke-linecap="round" stroke-linejoin="round" stroke-miterlimit="10" stroke-dasharray="20.625 20.625" fill="none" fill-rule="evenodd"/></g><g clip-path="url(#clip63)"><text fill="#595959" font-family="Calibri,Calibri_MSFontService,sans-serif" font-weight="700" font-size="64" transform="matrix(1 0 0 1 2918.49 2115)">Upper Confidence Bound</text></g></g></svg>