<svg width="3052" height="989" xmlns="http://www.w3.org/2000/svg" xmlns:xlink="http://www.w3.org/1999/xlink" overflow="hidden"><defs><clipPath id="clip0"><rect x="606" y="614" width="3052" height="989"/></clipPath><clipPath id="clip1"><rect x="606" y="438" width="271" height="463"/></clipPath><clipPath id="clip2"><rect x="606" y="680" width="271" height="424"/></clipPath><clipPath id="clip3"><rect x="1626" y="236" width="271" height="925"/></clipPath><clipPath id="clip4"><rect x="1626" y="236" width="271" height="925"/></clipPath><clipPath id="clip5"><rect x="1626" y="691" width="271" height="424"/></clipPath><clipPath id="clip6"><rect x="2647" y="234" width="301" height="925"/></clipPath><clipPath id="clip7"><rect x="2647" y="234" width="301" height="925"/></clipPath><clipPath id="clip8"><rect x="606" y="991" width="271" height="463"/></clipPath><clipPath id="clip9"><rect x="606" y="1232" width="271" height="425"/></clipPath><clipPath id="clip10"><rect x="1626" y="991" width="298" height="463"/></clipPath></defs><g clip-path="url(#clip0)" transform="translate(-606 -614)"><path d="M606.009 634.776 1513.51 634.776" stroke="#70AD47" stroke-width="4.58333" stroke-linejoin="round" stroke-miterlimit="10" fill="none" fill-rule="evenodd"/><path d="M606.009 1037.51 1513.51 1037.51" stroke="#70AD47" stroke-width="4.58333" stroke-linejoin="round" stroke-miterlimit="10" fill="none" fill-rule="evenodd"/><g clip-path="url(#clip1)"><text font-family="Calibri,Calibri_MSFontService,sans-serif" font-weight="700" font-size="55" transform="matrix(1 0 0 1 608.001 689)">Farmer</text></g><path d="M608.001 694.768 662.001 694.768 716.001 694.768 770.001 694.768 770.001 698.768 716.001 698.768 662.001 698.768 608.001 698.768Z" fill-rule="evenodd"/><text font-family="Calibri,Calibri_MSFontService,sans-serif" font-weight="700" font-size="55" transform="matrix(1 0 0 1 952.814 724)">Ag<tspan font-size="55" x="197.752" y="0">Con</tspan><tspan font-size="55" x="411.831" y="0">Urb</tspan><tspan font-size="55" x="-175.389" y="90">Ag</tspan><tspan font-weight="400" font-size="50" x="16.9011" y="88">1</tspan><tspan font-weight="400" font-size="50" x="229.262" y="88">8</tspan><tspan font-weight="400" font-size="50" x="441.623" y="88">5</tspan></text><g clip-path="url(#clip2)"><text font-family="Calibri,Calibri_MSFontService,sans-serif" font-weight="700" font-size="50" transform="matrix(1 0 0 1 766.827 909)">Con</text></g><text font-family="Calibri,Calibri_MSFontService,sans-serif" font-weight="400" font-size="50" transform="matrix(1 0 0 1 947.085 909)">1/8<tspan font-size="50" x="234.991" y="0">1</tspan><tspan font-size="50" x="424.722" y="0">1/2</tspan><tspan font-weight="700" font-size="50" x="-178.54" y="97">Urb</tspan><tspan font-size="50" x="0" y="97">1/5</tspan><tspan font-size="50" x="234.991" y="97">2</tspan><tspan font-size="50" x="447.352" y="97">1</tspan></text><path d="M1626.58 630.078 2534.08 630.078" stroke="#70AD47" stroke-width="4.58333" stroke-linejoin="round" stroke-miterlimit="10" fill="none" fill-rule="evenodd"/><path d="M1626.58 1042.21 2534.08 1042.21" stroke="#70AD47" stroke-width="4.58333" stroke-linejoin="round" stroke-miterlimit="10" fill="none" fill-rule="evenodd"/><g clip-path="url(#clip3)"><text font-family="Calibri,Calibri_MSFontService,sans-serif" font-weight="700" font-size="55" transform="matrix(1 0 0 1 1628.57 684)">Property </text></g><path d="M1628.57 690.07 1694.91 690.07 1761.24 690.07 1827.57 690.07 1827.57 694.07 1761.24 694.07 1694.91 694.07 1628.57 694.07Z" fill-rule="evenodd"/><g clip-path="url(#clip4)"><text font-family="Calibri,Calibri_MSFontService,sans-serif" font-weight="700" font-size="55" transform="matrix(1 0 0 1 1628.57 750)">developer</text></g><path d="M1628.57 756.07 1686.07 756.07 1743.57 756.07 1801.07 756.07 1858.57 756.07 1858.57 760.07 1801.07 760.07 1743.57 760.07 1686.07 760.07 1628.57 760.07Z" fill-rule="evenodd"/><text font-family="Calibri,Calibri_MSFontService,sans-serif" font-weight="700" font-size="55" transform="matrix(1 0 0 1 1973.39 719)">Ag<tspan font-size="55" x="197.752" y="0">Con</tspan><tspan font-size="55" x="411.831" y="0">Urb</tspan><tspan font-size="55" x="-175.389" y="113">Ag</tspan><tspan font-weight="400" font-size="50" x="16.9011" y="110">1</tspan><tspan font-weight="400" font-size="50" x="229.262" y="110">2</tspan><tspan font-weight="400" font-size="50" x="418.993" y="110">1/4</tspan></text><g clip-path="url(#clip5)"><text font-family="Calibri,Calibri_MSFontService,sans-serif" font-weight="700" font-size="50" transform="matrix(1 0 0 1 1787.4 920)">Con</text></g><text font-family="Calibri,Calibri_MSFontService,sans-serif" font-weight="400" font-size="50" transform="matrix(1 0 0 1 1967.66 920)">1/2<tspan font-size="50" x="234.991" y="0">1</tspan><tspan font-size="50" x="424.722" y="0">1/8</tspan><tspan font-weight="700" font-size="50" x="-178.54" y="91">Urb</tspan><tspan font-size="50" x="22.6303" y="91">4</tspan><tspan font-size="50" x="234.991" y="91">8</tspan><tspan font-size="50" x="447.352" y="91">1</tspan></text><path d="M2647.16 628.83 3654.72 628.83" stroke="#70AD47" stroke-width="4.58333" stroke-linejoin="round" stroke-miterlimit="10" fill="none" fill-rule="evenodd"/><path d="M2647.16 1042.56 3654.72 1042.56" stroke="#70AD47" stroke-width="4.58333" stroke-linejoin="round" stroke-miterlimit="10" fill="none" fill-rule="evenodd"/><g clip-path="url(#clip6)"><text font-family="Calibri,Calibri_MSFontService,sans-serif" font-weight="700" font-size="55" transform="matrix(1 0 0 1 2649.15 683)">Government </text></g><path d="M2649.15 688.822 2720.9 688.822 2792.65 688.822 2864.4 688.822 2936.15 688.822 2936.15 692.822 2864.4 692.822 2792.65 692.822 2720.9 692.822 2649.15 692.822Z" fill-rule="evenodd"/><g clip-path="url(#clip7)"><text font-family="Calibri,Calibri_MSFontService,sans-serif" font-weight="700" font-size="55" transform="matrix(1 0 0 1 2649.15 749)">official </text></g><path d="M2649.15 754.822 2700.82 754.822 2752.48 754.822 2804.15 754.822 2804.15 758.822 2752.48 758.822 2700.82 758.822 2649.15 758.822Z" fill-rule="evenodd"/><text font-family="Calibri,Calibri_MSFontService,sans-serif" font-weight="700" font-size="55" transform="matrix(1 0 0 1 3035.49 718)">Ag<tspan font-size="55" x="221.168" y="0">Con</tspan><tspan font-size="55" x="458.664" y="0">Urb</tspan><tspan font-size="55" x="-202.005" y="110">Ag</tspan><tspan font-weight="400" font-size="50" x="16.9011" y="108">1</tspan><tspan font-weight="400" font-size="50" x="252.678" y="108">5</tspan><tspan font-weight="400" font-size="50" x="465.825" y="108">1/2</tspan><tspan font-size="50" x="-212.605" y="201">Con</tspan><tspan font-weight="400" font-size="50" x="-5.729" y="201">1/5</tspan><tspan font-weight="400" font-size="50" x="252.678" y="201">1</tspan><tspan font-weight="400" font-size="50" x="465.825" y="201">1/9</tspan><tspan font-size="50" x="-210.886" y="295">Urb</tspan><tspan font-weight="400" font-size="50" x="16.9011" y="295">2</tspan><tspan font-weight="400" font-size="50" x="252.678" y="295">9</tspan><tspan font-weight="400" font-size="50" x="488.455" y="295">1</tspan></text><path d="M606.009 1187.26 1513.51 1187.26" stroke="#70AD47" stroke-width="4.58333" stroke-linejoin="round" stroke-miterlimit="10" fill="none" fill-rule="evenodd"/><path d="M606.009 1590 1513.51 1590" stroke="#70AD47" stroke-width="4.58333" stroke-linejoin="round" stroke-miterlimit="10" fill="none" fill-rule="evenodd"/><g clip-path="url(#clip8)"><text font-family="Calibri,Calibri_MSFontService,sans-serif" font-weight="700" font-size="55" transform="matrix(1 0 0 1 608.001 1241)">NGO</text></g><path d="M608.001 1247.25 662.001 1247.25 716.001 1247.25 716.001 1251.25 662.001 1251.25 608.001 1251.25Z" fill-rule="evenodd"/><text font-family="Calibri,Calibri_MSFontService,sans-serif" font-weight="700" font-size="55" transform="matrix(1 0 0 1 952.814 1276)">Ag<tspan font-size="55" x="197.752" y="0">Con</tspan><tspan font-size="55" x="411.831" y="0">Urb</tspan><tspan font-size="55" x="-175.389" y="91">Ag</tspan><tspan font-weight="400" font-size="50" x="16.9011" y="89">1</tspan><tspan font-weight="400" font-size="50" x="206.632" y="89">1/9</tspan><tspan font-weight="400" font-size="50" x="441.623" y="89">1</tspan></text><g clip-path="url(#clip9)"><text font-family="Calibri,Calibri_MSFontService,sans-serif" font-weight="700" font-size="50" transform="matrix(1 0 0 1 766.827 1461)">Con</text></g><text font-family="Calibri,Calibri_MSFontService,sans-serif" font-weight="400" font-size="50" transform="matrix(1 0 0 1 969.715 1461)">9<tspan font-size="50" x="212.361" y="0">1</tspan><tspan font-size="50" x="424.722" y="0">9</tspan><tspan font-weight="700" font-size="50" x="-201.17" y="97">Urb</tspan><tspan font-size="50" x="0" y="97">1</tspan><tspan font-size="50" x="189.731" y="97">1/9</tspan><tspan font-size="50" x="424.722" y="97">1</tspan></text><path d="M1626.58 1187.26 2534.08 1187.26" stroke="#70AD47" stroke-width="4.58333" stroke-linejoin="round" stroke-miterlimit="10" fill="none" fill-rule="evenodd"/><path d="M1626.58 1590 2534.08 1590" stroke="#70AD47" stroke-width="4.58333" stroke-linejoin="round" stroke-miterlimit="10" fill="none" fill-rule="evenodd"/><g clip-path="url(#clip10)"><text font-family="Calibri,Calibri_MSFontService,sans-serif" font-weight="700" font-size="55" transform="matrix(1 0 0 1 1628.57 1241)">Homeowner</text></g><path d="M1628.57 1247.25 1699.82 1247.25 1771.07 1247.25 1842.32 1247.25 1913.57 1247.25 1913.57 1251.25 1842.32 1251.25 1771.07 1251.25 1699.82 1251.25 1628.57 1251.25Z" fill-rule="evenodd"/><text font-family="Calibri,Calibri_MSFontService,sans-serif" font-weight="700" font-size="55" transform="matrix(1 0 0 1 1997.04 1276)">Ag<tspan font-size="55" x="199.678" y="0">Con</tspan><tspan font-size="55" x="403.272" y="0">Urb</tspan><tspan font-size="55" x="-185.874" y="91">Ag</tspan><tspan font-weight="400" font-size="50" x="16.9011" y="89">1</tspan><tspan font-weight="400" font-size="50" x="231.188" y="89">5</tspan><tspan font-weight="400" font-size="50" x="433.064" y="89">1</tspan><tspan font-size="50" x="-196.473" y="185">Con</tspan><tspan font-weight="400" font-size="50" x="-5.72925" y="185">1/5</tspan><tspan font-weight="400" font-size="50" x="231.188" y="185">1</tspan><tspan font-weight="400" font-size="50" x="410.434" y="185">1/5</tspan><tspan font-size="50" x="-194.754" y="282">Urb</tspan><tspan font-weight="400" font-size="50" x="16.9011" y="282">1</tspan><tspan font-weight="400" font-size="50" x="231.188" y="282">5</tspan><tspan font-weight="400" font-size="50" x="433.064" y="282">1</tspan></text></g></svg>