<svg width="963" height="431" xmlns="http://www.w3.org/2000/svg" xmlns:xlink="http://www.w3.org/1999/xlink" overflow="hidden"><defs><clipPath id="clip0"><rect x="1515" y="1116" width="963" height="431"/></clipPath><clipPath id="clip1"><rect x="1515" y="934" width="302" height="463"/></clipPath></defs><g clip-path="url(#clip0)" transform="translate(-1515 -1116)"><path d="M1515.81 1130.92 2475.31 1130.92" stroke="#70AD47" stroke-width="4.58333" stroke-linejoin="round" stroke-miterlimit="10" fill="none" fill-rule="evenodd"/><path d="M1515.81 1533.65 2475.31 1533.65" stroke="#70AD47" stroke-width="4.58333" stroke-linejoin="round" stroke-miterlimit="10" fill="none" fill-rule="evenodd"/><g clip-path="url(#clip1)"><text font-family="Calibri,Calibri_MSFontService,sans-serif" font-weight="700" font-size="55" transform="matrix(1 0 0 1 1517.8 1185)">Homeowner</text></g><path d="M1517.8 1190.91 1589.05 1190.91 1660.3 1190.91 1731.55 1190.91 1802.8 1190.91 1802.8 1194.91 1731.55 1194.91 1660.3 1194.91 1589.05 1194.91 1517.8 1194.91Z" fill-rule="evenodd"/><text font-family="Calibri,Calibri_MSFontService,sans-serif" font-weight="700" font-size="55" transform="matrix(1 0 0 1 1891.59 1220)">Ag<tspan font-size="55" x="202.526" y="0">Con</tspan><tspan font-size="55" x="428.775" y="0">Urb</tspan><tspan font-size="55" x="-189.222" y="90">Ag</tspan><tspan font-weight="400" font-size="50" x="16.9011" y="88">1</tspan><tspan font-weight="400" font-size="50" x="234.036" y="88">5</tspan><tspan font-weight="400" font-size="50" x="458.567" y="88">1</tspan><tspan font-size="50" x="-199.821" y="185">Con</tspan><tspan font-weight="400" font-size="50" x="-5.72913" y="185">1/5</tspan><tspan font-weight="400" font-size="50" x="234.036" y="185">1</tspan><tspan font-weight="400" font-size="50" x="435.937" y="185">1/5</tspan><tspan font-size="50" x="-198.102" y="282">Urb</tspan><tspan font-weight="400" font-size="50" x="16.9011" y="282">1</tspan><tspan font-weight="400" font-size="50" x="234.036" y="282">5</tspan><tspan font-weight="400" font-size="50" x="458.567" y="282">1</tspan></text></g></svg>