<svg width="3336" height="1099" xmlns="http://www.w3.org/2000/svg" xmlns:xlink="http://www.w3.org/1999/xlink" overflow="hidden"><defs><clipPath id="clip0"><rect x="297" y="548" width="3336" height="1099"/></clipPath><clipPath id="clip1"><rect x="297" y="394" width="1436" height="617"/></clipPath><clipPath id="clip2"><rect x="297" y="605" width="1436" height="617"/></clipPath><clipPath id="clip3"><rect x="297" y="764" width="1436" height="617"/></clipPath><clipPath id="clip4"><rect x="2989" y="725" width="638" height="694"/></clipPath><clipPath id="clip5"><rect x="297" y="922" width="1436" height="617"/></clipPath><clipPath id="clip6"><rect x="297" y="1080" width="1436" height="617"/></clipPath><clipPath id="clip7"><rect x="297" y="1239" width="1436" height="617"/></clipPath></defs><g clip-path="url(#clip0)" transform="translate(-297 -548)"><path d="M297.869 568.857 1732.07 568.857 1732.07 834.849 297.869 834.849Z" fill="#C5E0B4" fill-rule="evenodd"/><path d="M1732.07 568.857 2369.82 568.857 2369.82 834.849 1732.07 834.849Z" fill="#C5E0B4" fill-rule="evenodd"/><path d="M2369.82 568.857 2989.22 568.857 2989.22 834.849 2369.82 834.849Z" fill="#C5E0B4" fill-rule="evenodd"/><path d="M2989.22 568.857 3626.97 568.857 3626.97 834.849 2989.22 834.849Z" fill="#C5E0B4" fill-rule="evenodd"/><path d="M297.869 834.849 1732.07 834.849 1732.07 993.143 297.869 993.143Z" fill="#E2F0D9" fill-rule="evenodd"/><path d="M1732.07 834.849 2369.82 834.849 2369.82 993.143 1732.07 993.143Z" fill="#E2F0D9" fill-rule="evenodd"/><path d="M2369.82 834.849 2989.22 834.849 2989.22 993.143 2369.82 993.143Z" fill="#E2F0D9" fill-rule="evenodd"/><path d="M2989.22 834.849 3626.97 834.849 3626.97 993.143 2989.22 993.143Z" fill="#E2F0D9" fill-rule="evenodd"/><path d="M297.869 993.143 1732.07 993.143 1732.07 1151.44 297.869 1151.44Z" fill="#E2F0D9" fill-rule="evenodd"/><path d="M1732.07 993.143 2369.82 993.143 2369.82 1151.44 1732.07 1151.44Z" fill="#E2F0D9" fill-rule="evenodd"/><path d="M2369.82 993.143 2989.22 993.143 2989.22 1151.44 2369.82 1151.44Z" fill="#E2F0D9" fill-rule="evenodd"/><path d="M2989.22 993.143 3626.97 993.143 3626.97 1151.44 2989.22 1151.44Z" fill="#E2F0D9" fill-rule="evenodd"/><path d="M297.869 1151.44 1732.07 1151.44 1732.07 1309.73 297.869 1309.73Z" fill="#E2F0D9" fill-rule="evenodd"/><path d="M1732.07 1151.44 2369.82 1151.44 2369.82 1309.73 1732.07 1309.73Z" fill="#E2F0D9" fill-rule="evenodd"/><path d="M2369.82 1151.44 2989.22 1151.44 2989.22 1309.73 2369.82 1309.73Z" fill="#E2F0D9" fill-rule="evenodd"/><path d="M2989.22 1151.44 3626.97 1151.44 3626.97 1309.73 2989.22 1309.73Z" fill="#E2F0D9" fill-rule="evenodd"/><path d="M297.869 1309.73 1732.07 1309.73 1732.07 1468.02 297.869 1468.02Z" fill="#E2F0D9" fill-rule="evenodd"/><path d="M1732.07 1309.73 2369.82 1309.73 2369.82 1468.02 1732.07 1468.02Z" fill="#E2F0D9" fill-rule="evenodd"/><path d="M2369.82 1309.73 2989.22 1309.73 2989.22 1468.02 2369.82 1468.02Z" fill="#E2F0D9" fill-rule="evenodd"/><path d="M2989.22 1309.73 3626.97 1309.73 3626.97 1468.02 2989.22 1468.02Z" fill="#E2F0D9" fill-rule="evenodd"/><path d="M297.869 1468.02 1732.07 1468.02 1732.07 1626.32 297.869 1626.32Z" fill="#E2F0D9" fill-rule="evenodd"/><path d="M1732.07 1468.02 2369.82 1468.02 2369.82 1626.32 1732.07 1626.32Z" fill="#E2F0D9" fill-rule="evenodd"/><path d="M2369.82 1468.02 2989.22 1468.02 2989.22 1626.32 2369.82 1626.32Z" fill="#E2F0D9" fill-rule="evenodd"/><path d="M2989.22 1468.02 3626.97 1468.02 3626.97 1626.32 2989.22 1626.32Z" fill="#E2F0D9" fill-rule="evenodd"/><path d="M1732.07 568.857 1732.07 1628.61" stroke="#548235" stroke-width="4.58333" stroke-linejoin="round" stroke-miterlimit="10" fill="none" fill-rule="evenodd"/><path d="M2369.82 568.857 2369.82 1628.61" stroke="#548235" stroke-width="4.58333" stroke-linejoin="round" stroke-miterlimit="10" fill="none" fill-rule="evenodd"/><path d="M2989.22 568.857 2989.22 1628.61" stroke="#548235" stroke-width="4.58333" stroke-linejoin="round" stroke-miterlimit="10" fill="none" fill-rule="evenodd"/><path d="M297.869 834.849 3626.97 834.849" stroke="#548235" stroke-width="4.58333" stroke-linejoin="round" stroke-miterlimit="10" fill="none" fill-rule="evenodd"/><path d="M297.869 993.143 3626.97 993.143" stroke="#548235" stroke-width="4.58333" stroke-linejoin="round" stroke-miterlimit="10" fill="none" fill-rule="evenodd"/><path d="M297.869 1151.44 3626.97 1151.44" stroke="#548235" stroke-width="4.58333" stroke-linejoin="round" stroke-miterlimit="10" fill="none" fill-rule="evenodd"/><path d="M297.869 1309.73 3626.97 1309.73" stroke="#548235" stroke-width="4.58333" stroke-linejoin="round" stroke-miterlimit="10" fill="none" fill-rule="evenodd"/><path d="M297.869 1468.02 3626.97 1468.02" stroke="#000000" stroke-width="10.3125" stroke-linejoin="round" stroke-miterlimit="10" fill="none" fill-rule="evenodd"/><path d="M297.869 1626.32 3626.97 1626.32" stroke="#548235" stroke-width="4.58333" stroke-linejoin="round" stroke-miterlimit="10" fill="none" fill-rule="evenodd"/><g clip-path="url(#clip1)"><text font-family="Calibri,Calibri_MSFontService,sans-serif" font-weight="700" font-size="73" transform="matrix(1 0 0 1 299.86 727)">Layer Name</text></g><text font-family="Calibri,Calibri_MSFontService,sans-serif" font-weight="700" font-size="73" transform="matrix(1 0 0 1 1975.03 640)">Rank<tspan font-size="73" x="33.5271" y="88">(</tspan><tspan font-size="73" x="56.4437" y="88">r</tspan><tspan font-size="49" x="82.798" y="105">j</tspan><tspan font-size="73" x="95.402" y="88">)</tspan><tspan font-size="73" x="547.278" y="0">Reciprocal </tspan><tspan font-size="73" x="548.31" y="88">ranking</tspan><tspan font-size="73" x="775.872" y="88">(</tspan><tspan font-size="73" x="798.789" y="88">r</tspan><tspan font-size="49" x="825.143" y="105">j</tspan><tspan font-size="73" x="837.747" y="88">)</tspan><tspan font-size="73" x="1106.79" y="0">Weight inverse </tspan><tspan font-size="73" x="1076.75" y="88">ranking/sum</tspan>(<tspan font-style="italic" font-size="73" x="1487.25" y="88">W</tspan><tspan font-style="italic" font-size="49" x="1553.71" y="105">j</tspan><tspan font-size="73" x="1566.32" y="88">)</tspan></text><g clip-path="url(#clip2)"><text font-family="Calibri,Calibri_MSFontService,sans-serif" font-weight="400" font-size="73" transform="matrix(1 0 0 1 299.86 939)">Soils suitable for residential land use (SO1)</text></g><text font-family="Calibri,Calibri_MSFontService,sans-serif" font-weight="400" font-size="83" transform="matrix(1 0 0 1 2030.03 941)">1<tspan font-size="83" x="576.44" y="0">1.00</tspan><tspan font-size="83" x="1022.25" y="0">1.00/2.08=0.48</tspan></text><g clip-path="url(#clip3)"><text font-family="Calibri,Calibri_MSFontService,sans-serif" font-weight="400" font-size="73" transform="matrix(1 0 0 1 299.86 1097)">Quiet areas (SO2)</text></g><text font-family="Calibri,Calibri_MSFontService,sans-serif" font-weight="400" font-size="83" transform="matrix(1 0 0 1 2030.03 1100)">4<tspan font-size="83" x="576.44" y="0">0.25</tspan></text><g clip-path="url(#clip4)"><text font-family="Calibri,Calibri_MSFontService,sans-serif" font-weight="400" font-size="83" transform="matrix(1 0 0 1 3031.38 1100)">00.25/2.08=0.12</text></g><g clip-path="url(#clip5)"><text font-family="Calibri,Calibri_MSFontService,sans-serif" font-weight="400" font-size="73" transform="matrix(1 0 0 1 299.86 1256)">Lands free of hazardous waste (SO3)</text></g><text font-family="Calibri,Calibri_MSFontService,sans-serif" font-weight="400" font-size="83" transform="matrix(1 0 0 1 2030.03 1258)">2<tspan font-size="83" x="576.44" y="0">0.50</tspan><tspan font-size="83" x="1022.25" y="0">0.50/2.08=0.24</tspan></text><g clip-path="url(#clip6)"><text font-family="Calibri,Calibri_MSFontService,sans-serif" font-weight="400" font-size="73" transform="matrix(1 0 0 1 299.86 1414)">Lands with good air quality (SO4)</text></g><text font-family="Calibri,Calibri_MSFontService,sans-serif" font-weight="400" font-size="83" transform="matrix(1 0 0 1 2030.03 1416)">3<tspan font-size="83" x="576.44" y="0">0.33</tspan><tspan font-size="83" x="1022.25" y="0">0.33/2.08=0.16</tspan></text><g clip-path="url(#clip7)"><text font-family="Calibri,Calibri_MSFontService,sans-serif" font-weight="400" font-size="73" transform="matrix(1 0 0 1 299.86 1572)">Sum</text></g><text font-family="Calibri,Calibri_MSFontService,sans-serif" font-weight="400" font-size="83" transform="matrix(1 0 0 1 2606.47 1575)">2.08<tspan font-size="83" x="628.575" y="0">1.00</tspan></text></g></svg>