<svg width="3778" height="1099" xmlns="http://www.w3.org/2000/svg" xmlns:xlink="http://www.w3.org/1999/xlink" overflow="hidden"><defs><clipPath id="clip0"><rect x="297" y="548" width="3778" height="1099"/></clipPath><clipPath id="clip1"><rect x="297" y="394" width="1371" height="617"/></clipPath><clipPath id="clip2"><rect x="2276" y="-222" width="593" height="1849"/></clipPath><clipPath id="clip3"><rect x="2276" y="-222" width="593" height="1849"/></clipPath><clipPath id="clip4"><rect x="297" y="605" width="1371" height="617"/></clipPath><clipPath id="clip5"><rect x="297" y="764" width="1371" height="617"/></clipPath><clipPath id="clip6"><rect x="297" y="922" width="1371" height="617"/></clipPath><clipPath id="clip7"><rect x="297" y="1080" width="1371" height="617"/></clipPath><clipPath id="clip8"><rect x="297" y="1239" width="1371" height="617"/></clipPath></defs><g clip-path="url(#clip0)" transform="translate(-297 -548)"><path d="M297.868 568.857 1667.64 568.857 1667.64 834.849 297.868 834.849Z" fill="#C5E0B4" fill-rule="evenodd"/><path d="M1667.64 568.857 2276.74 568.857 2276.74 834.849 1667.64 834.849Z" fill="#C5E0B4" fill-rule="evenodd"/><path d="M2276.74 568.857 2868.32 568.857 2868.32 834.849 2276.74 834.849Z" fill="#C5E0B4" fill-rule="evenodd"/><path d="M2868.32 568.857 3459.89 568.857 3459.89 834.849 2868.32 834.849Z" fill="#C5E0B4" fill-rule="evenodd"/><path d="M3459.89 568.857 4068.99 568.857 4068.99 834.849 3459.89 834.849Z" fill="#C5E0B4" fill-rule="evenodd"/><path d="M297.868 834.849 1667.64 834.849 1667.64 993.143 297.868 993.143Z" fill="#E2F0D9" fill-rule="evenodd"/><path d="M1667.64 834.849 2276.74 834.849 2276.74 993.143 1667.64 993.143Z" fill="#E2F0D9" fill-rule="evenodd"/><path d="M2276.74 834.849 2868.32 834.849 2868.32 993.143 2276.74 993.143Z" fill="#E2F0D9" fill-rule="evenodd"/><path d="M2868.32 834.849 3459.89 834.849 3459.89 993.143 2868.32 993.143Z" fill="#E2F0D9" fill-rule="evenodd"/><path d="M3459.89 834.849 4068.99 834.849 4068.99 993.143 3459.89 993.143Z" fill="#E2F0D9" fill-rule="evenodd"/><path d="M297.868 993.143 1667.64 993.143 1667.64 1151.44 297.868 1151.44Z" fill="#E2F0D9" fill-rule="evenodd"/><path d="M1667.64 993.143 2276.74 993.143 2276.74 1151.44 1667.64 1151.44Z" fill="#E2F0D9" fill-rule="evenodd"/><path d="M2276.74 993.143 2868.32 993.143 2868.32 1151.44 2276.74 1151.44Z" fill="#E2F0D9" fill-rule="evenodd"/><path d="M2868.32 993.143 3459.89 993.143 3459.89 1151.44 2868.32 1151.44Z" fill="#E2F0D9" fill-rule="evenodd"/><path d="M3459.89 993.143 4068.99 993.143 4068.99 1151.44 3459.89 1151.44Z" fill="#E2F0D9" fill-rule="evenodd"/><path d="M297.868 1151.44 1667.64 1151.44 1667.64 1309.73 297.868 1309.73Z" fill="#E2F0D9" fill-rule="evenodd"/><path d="M1667.64 1151.44 2276.74 1151.44 2276.74 1309.73 1667.64 1309.73Z" fill="#E2F0D9" fill-rule="evenodd"/><path d="M2276.74 1151.44 2868.32 1151.44 2868.32 1309.73 2276.74 1309.73Z" fill="#E2F0D9" fill-rule="evenodd"/><path d="M2868.32 1151.44 3459.89 1151.44 3459.89 1309.73 2868.32 1309.73Z" fill="#E2F0D9" fill-rule="evenodd"/><path d="M3459.89 1151.44 4068.99 1151.44 4068.99 1309.73 3459.89 1309.73Z" fill="#E2F0D9" fill-rule="evenodd"/><path d="M297.868 1309.73 1667.64 1309.73 1667.64 1468.02 297.868 1468.02Z" fill="#E2F0D9" fill-rule="evenodd"/><path d="M1667.64 1309.73 2276.74 1309.73 2276.74 1468.02 1667.64 1468.02Z" fill="#E2F0D9" fill-rule="evenodd"/><path d="M2276.74 1309.73 2868.32 1309.73 2868.32 1468.02 2276.74 1468.02Z" fill="#E2F0D9" fill-rule="evenodd"/><path d="M2868.32 1309.73 3459.89 1309.73 3459.89 1468.02 2868.32 1468.02Z" fill="#E2F0D9" fill-rule="evenodd"/><path d="M3459.89 1309.73 4068.99 1309.73 4068.99 1468.02 3459.89 1468.02Z" fill="#E2F0D9" fill-rule="evenodd"/><path d="M297.868 1468.02 1667.64 1468.02 1667.64 1626.32 297.868 1626.32Z" fill="#E2F0D9" fill-rule="evenodd"/><path d="M1667.64 1468.02 2276.74 1468.02 2276.74 1626.32 1667.64 1626.32Z" fill="#E2F0D9" fill-rule="evenodd"/><path d="M2276.74 1468.02 2868.32 1468.02 2868.32 1626.32 2276.74 1626.32Z" fill="#E2F0D9" fill-rule="evenodd"/><path d="M2868.32 1468.02 3459.89 1468.02 3459.89 1626.32 2868.32 1626.32Z" fill="#E2F0D9" fill-rule="evenodd"/><path d="M3459.89 1468.02 4068.99 1468.02 4068.99 1626.32 3459.89 1626.32Z" fill="#E2F0D9" fill-rule="evenodd"/><path d="M1667.64 568.857 1667.64 1628.61" stroke="#548235" stroke-width="4.58333" stroke-linejoin="round" stroke-miterlimit="10" fill="none" fill-rule="evenodd"/><path d="M2276.74 568.857 2276.74 1628.61" stroke="#548235" stroke-width="4.58333" stroke-linejoin="round" stroke-miterlimit="10" fill="none" fill-rule="evenodd"/><path d="M2868.32 568.857 2868.32 1628.61" stroke="#548235" stroke-width="4.58333" stroke-linejoin="round" stroke-miterlimit="10" fill="none" fill-rule="evenodd"/><path d="M3459.89 568.857 3459.89 1628.61" stroke="#548235" stroke-width="4.58333" stroke-linejoin="round" stroke-miterlimit="10" fill="none" fill-rule="evenodd"/><path d="M297.868 834.849 4068.99 834.849" stroke="#548235" stroke-width="4.58333" stroke-linejoin="round" stroke-miterlimit="10" fill="none" fill-rule="evenodd"/><path d="M297.868 993.143 4068.99 993.143" stroke="#548235" stroke-width="4.58333" stroke-linejoin="round" stroke-miterlimit="10" fill="none" fill-rule="evenodd"/><path d="M297.868 1151.44 4068.99 1151.44" stroke="#548235" stroke-width="4.58333" stroke-linejoin="round" stroke-miterlimit="10" fill="none" fill-rule="evenodd"/><path d="M297.868 1309.73 4068.99 1309.73" stroke="#548235" stroke-width="4.58333" stroke-linejoin="round" stroke-miterlimit="10" fill="none" fill-rule="evenodd"/><path d="M297.868 1468.02 4068.99 1468.02" stroke="#000000" stroke-width="10.3125" stroke-linejoin="round" stroke-miterlimit="10" fill="none" fill-rule="evenodd"/><path d="M297.868 1626.32 4068.99 1626.32" stroke="#548235" stroke-width="4.58333" stroke-linejoin="round" stroke-miterlimit="10" fill="none" fill-rule="evenodd"/><g clip-path="url(#clip1)"><text font-family="Calibri,Calibri_MSFontService,sans-serif" font-weight="700" font-size="73" transform="matrix(1 0 0 1 299.86 727)">Layer Name</text></g><text font-family="Calibri,Calibri_MSFontService,sans-serif" font-weight="700" font-size="73" transform="matrix(1 0 0 1 1896.28 640)">Rank<tspan font-size="73" x="33.527" y="88">(</tspan><tspan font-size="73" x="56.4437" y="88">r</tspan><tspan font-size="49" x="82.7979" y="105">j</tspan><tspan font-size="73" x="95.402" y="88">)</tspan><tspan font-size="73" x="444.034" y="0">Inverse ranking</tspan></text><g clip-path="url(#clip2)"><text font-family="Calibri,Calibri_MSFontService,sans-serif" font-weight="700" font-size="73" transform="matrix(1 0 0 1 2301.77 728)">(n</text></g><text font-family="Calibri,Calibri_MSFontService,sans-serif" font-weight="700" font-size="73" transform="matrix(1 0 0 1 2364.22 728)">–<tspan font-size="73" x="36.6668" y="0">1) + ranking</tspan>(<tspan font-size="73" x="417.198" y="0">r</tspan><tspan font-size="49" x="443.552" y="17">j</tspan></text><g clip-path="url(#clip3)"><text font-family="Calibri,Calibri_MSFontService,sans-serif" font-weight="700" font-size="73" transform="matrix(1 0 0 1 2820.37 728)">)</text></g><text font-family="Calibri,Calibri_MSFontService,sans-serif" font-weight="700" font-size="73" transform="matrix(1 0 0 1 2918.52 684)">Inverse <tspan font-size="73" x="236.866" y="0">ranking</tspan><tspan font-size="49" x="464.429" y="-22">p</tspan><tspan font-size="73" x="619.647" y="-44">Weight inverse </tspan><tspan font-size="73" x="589.603" y="44">ranking/sum</tspan><tspan font-size="73" x="977.193" y="44">(</tspan><tspan font-style="italic" font-size="73" x="1000.11" y="44">W</tspan><tspan font-style="italic" font-size="49" x="1066.57" y="61">j</tspan><tspan font-size="73" x="1079.17" y="44">)</tspan></text><g clip-path="url(#clip4)"><text font-family="Calibri,Calibri_MSFontService,sans-serif" font-weight="400" font-size="73" transform="matrix(1 0 0 1 299.86 939)">Soils suitable for residential land use (SO1)</text></g><text font-family="Calibri,Calibri_MSFontService,sans-serif" font-weight="400" font-size="83" transform="matrix(1 0 0 1 1951.28 941)">1<tspan font-size="83" x="600.337" y="0">4</tspan><tspan font-size="83" x="1171" y="0">16</tspan><tspan font-size="83" x="1577.98" y="0">16/30=0.5334</tspan></text><g clip-path="url(#clip5)"><text font-family="Calibri,Calibri_MSFontService,sans-serif" font-weight="400" font-size="73" transform="matrix(1 0 0 1 299.86 1097)">Quiet areas (SO2)</text></g><text font-family="Calibri,Calibri_MSFontService,sans-serif" font-weight="400" font-size="83" transform="matrix(1 0 0 1 1951.28 1100)">4<tspan font-size="83" x="600.337" y="0">1</tspan><tspan font-size="83" x="1191.91" y="0">1</tspan><tspan font-size="83" x="1598.89" y="0">1/30=0.0333</tspan></text><g clip-path="url(#clip6)"><text font-family="Calibri,Calibri_MSFontService,sans-serif" font-weight="400" font-size="73" transform="matrix(1 0 0 1 299.86 1256)">Lands free of hazardous waste (SO3)</text></g><text font-family="Calibri,Calibri_MSFontService,sans-serif" font-weight="400" font-size="83" transform="matrix(1 0 0 1 1951.28 1258)">2<tspan font-size="83" x="600.337" y="0">2</tspan><tspan font-size="83" x="1191.91" y="0">9</tspan><tspan font-size="83" x="1598.89" y="0">4/30=0.1333</tspan></text><g clip-path="url(#clip7)"><text font-family="Calibri,Calibri_MSFontService,sans-serif" font-weight="400" font-size="73" transform="matrix(1 0 0 1 299.86 1414)">Lands with good air quality (SO4)</text></g><text font-family="Calibri,Calibri_MSFontService,sans-serif" font-weight="400" font-size="83" transform="matrix(1 0 0 1 1951.28 1416)">3<tspan font-size="83" x="600.337" y="0">3</tspan><tspan font-size="83" x="1191.91" y="0">4</tspan><tspan font-size="83" x="1598.89" y="0">9/30=0.3000</tspan></text><g clip-path="url(#clip8)"><text font-family="Calibri,Calibri_MSFontService,sans-serif" font-weight="400" font-size="73" transform="matrix(1 0 0 1 299.86 1572)">Sum</text></g><text font-family="Calibri,Calibri_MSFontService,sans-serif" font-weight="400" font-size="83" transform="matrix(1 0 0 1 2530.71 1575)">10<tspan font-size="83" x="591.574" y="0">30</tspan><tspan font-size="83" x="1118.86" y="0">1.0000</tspan></text></g></svg>