<svg width="1694" height="585" xmlns="http://www.w3.org/2000/svg" xmlns:xlink="http://www.w3.org/1999/xlink" overflow="hidden"><defs><clipPath id="clip0"><rect x="406" y="1286" width="1694" height="585"/></clipPath><clipPath id="clip1"><rect x="406" y="1090" width="998" height="540"/></clipPath><clipPath id="clip2"><rect x="406" y="1234" width="998" height="540"/></clipPath><clipPath id="clip3"><rect x="406" y="1378" width="998" height="540"/></clipPath><clipPath id="clip4"><rect x="406" y="1523" width="998" height="540"/></clipPath></defs><g clip-path="url(#clip0)" transform="translate(-406 -1286)"><path d="M406.859 1286.38 1403.73 1286.38 1403.73 1431.27 406.859 1431.27Z" fill="#C5E0B4" fill-rule="evenodd"/><path d="M1403.73 1286.38 2094.36 1286.38 2094.36 1431.27 1403.73 1431.27Z" fill="#C5E0B4" fill-rule="evenodd"/><path d="M406.859 1431.27 1403.73 1431.27 1403.73 1576.06 406.859 1576.06Z" fill="#E2F0D9" fill-rule="evenodd"/><path d="M1403.73 1431.27 2094.36 1431.27 2094.36 1576.06 1403.73 1576.06Z" fill="#E2F0D9" fill-rule="evenodd"/><path d="M406.859 1576.06 1403.73 1576.06 1403.73 1720.85 406.859 1720.85Z" fill="#E2F0D9" fill-rule="evenodd"/><path d="M1403.73 1576.06 2094.36 1576.06 2094.36 1720.85 1403.73 1720.85Z" fill="#E2F0D9" fill-rule="evenodd"/><path d="M406.859 1720.85 1403.73 1720.85 1403.73 1865.64 406.859 1865.64Z" fill="#E2F0D9" fill-rule="evenodd"/><path d="M1403.73 1720.85 2094.36 1720.85 2094.36 1865.64 1403.73 1865.64Z" fill="#E2F0D9" fill-rule="evenodd"/><path d="M1403.73 1286.38 1403.73 1867.94" stroke="#548235" stroke-width="4.58333" stroke-linejoin="round" stroke-miterlimit="10" fill="none" fill-rule="evenodd"/><path d="M406.859 1431.27 2094.36 1431.27" stroke="#548235" stroke-width="4.58333" stroke-linejoin="round" stroke-miterlimit="10" fill="none" fill-rule="evenodd"/><path d="M406.859 1576.06 2094.36 1576.06" stroke="#548235" stroke-width="4.58333" stroke-linejoin="round" stroke-miterlimit="10" fill="none" fill-rule="evenodd"/><path d="M406.859 1720.85 2094.36 1720.85" stroke="#000000" stroke-width="10.3125" stroke-linejoin="round" stroke-miterlimit="10" fill="none" fill-rule="evenodd"/><path d="M406.859 1865.64 2094.36 1865.64" stroke="#548235" stroke-width="4.58333" stroke-linejoin="round" stroke-miterlimit="10" fill="none" fill-rule="evenodd"/><g clip-path="url(#clip1)"><text font-family="Calibri,Calibri_MSFontService,sans-serif" font-weight="700" font-size="64" transform="matrix(1 0 0 1 408.851 1380)">Layer Name</text></g><text font-family="Calibri,Calibri_MSFontService,sans-serif" font-weight="700" font-size="64" transform="matrix(1 0 0 1 1653.66 1381)">Weight</text><g clip-path="url(#clip2)"><text font-family="Calibri,Calibri_MSFontService,sans-serif" font-weight="400" font-size="64" transform="matrix(1 0 0 1 408.851 1525)">Transportation Accessibility (TA)</text></g><text font-family="Calibri,Calibri_MSFontService,sans-serif" font-weight="400" font-size="64" transform="matrix(1 0 0 1 1708.36 1524)">0.6</text><g clip-path="url(#clip3)"><text font-family="Calibri,Calibri_MSFontService,sans-serif" font-weight="400" font-size="64" transform="matrix(1 0 0 1 408.851 1670)">Market Proximity (MP)</text></g><text font-family="Calibri,Calibri_MSFontService,sans-serif" font-weight="400" font-size="64" transform="matrix(1 0 0 1 1708.36 1669)">0.4</text><g clip-path="url(#clip4)"><text font-family="Calibri,Calibri_MSFontService,sans-serif" font-weight="400" font-size="64" transform="matrix(1 0 0 1 408.851 1815)">Sum</text></g><text font-family="Calibri,Calibri_MSFontService,sans-serif" font-weight="400" font-size="64" transform="matrix(1 0 0 1 1708.36 1814)">1.0</text></g></svg>