<svg width="109" height="39" xmlns="http://www.w3.org/2000/svg" xmlns:xlink="http://www.w3.org/1999/xlink" overflow="hidden"><defs><filter id="fx0" x="-10%" y="-10%" width="120%" height="120%" filterUnits="userSpaceOnUse" primitiveUnits="userSpaceOnUse"><feComponentTransfer color-interpolation-filters="sRGB"><feFuncR type="discrete" tableValues="0 0"/><feFuncG type="discrete" tableValues="0 0"/><feFuncB type="discrete" tableValues="0 0"/><feFuncA type="linear" slope="0.4" intercept="0"/></feComponentTransfer><feGaussianBlur stdDeviation="1.77778 1.77778"/></filter><clipPath id="clip1"><rect x="227" y="230" width="109" height="39"/></clipPath><clipPath id="clip2"><path d="M231.5 234.5 231.5 260.5 326.5 260.5 326.5 234.5ZM227 230 336 230 336 269 227 269Z" fill-rule="evenodd" clip-rule="evenodd"/></clipPath><clipPath id="clip3"><rect x="-2" y="-2" width="112" height="44"/></clipPath><clipPath id="clip4"><rect x="0" y="0" width="110" height="41"/></clipPath><clipPath id="clip5"><rect x="232" y="235" width="24" height="24"/></clipPath><clipPath id="clip6"><rect x="232" y="235" width="24" height="24"/></clipPath><clipPath id="clip7"><rect x="232" y="235" width="24" height="24"/></clipPath></defs><g clip-path="url(#clip1)" transform="translate(-227 -230)"><g clip-path="url(#clip2)"><g clip-path="url(#clip3)" filter="url(#fx0)" transform="translate(227 230)"><g clip-path="url(#clip4)"><rect x="7.32848" y="7.32848" width="95" height="26" stroke="#D9D9D9" stroke-miterlimit="8" fill="#EEF283"/></g></g></g><rect x="231.5" y="234.5" width="95" height="26" stroke="#D9D9D9" stroke-width="1.33333" stroke-miterlimit="8" fill="#EEF283"/><g clip-path="url(#clip5)"><g clip-path="url(#clip6)"><g clip-path="url(#clip7)"><path d="M241.51 240.5 241.51 244.51 237.5 244.51 237.5 249.5 241.51 249.5 241.51 253.51 246.5 253.51 246.5 249.5 250.51 249.5 250.51 244.51 246.5 244.51 246.5 240.5Z" stroke="#5A8C5A" fill="#FFFFFF"/><path d="M238.99 247 248.99 247" stroke="#5A8C5A" stroke-width="2" fill="none"/><path d="M244 241.96 244 251.96" stroke="#5A8C5A" stroke-width="2" fill="none"/></g></g></g></g></svg>