<svg width="761" height="596" xmlns="http://www.w3.org/2000/svg" xmlns:xlink="http://www.w3.org/1999/xlink" overflow="hidden"><defs><clipPath id="clip0"><rect x="235" y="71" width="761" height="596"/></clipPath><linearGradient x1="235" y1="99" x2="995" y2="99" gradientUnits="userSpaceOnUse" spreadMethod="reflect" id="fill1"><stop offset="0" stop-color="#F6F8FC"/><stop offset="0.4" stop-color="#E2F0D9"/><stop offset="0.72" stop-color="#C5E0B4"/><stop offset="1" stop-color="#A9D18E"/></linearGradient></defs><g clip-path="url(#clip0)" transform="translate(-235 -71)"><rect x="235" y="73" width="760" height="52" fill="url(#fill1)"/><path d="M306.5 372.167C306.5 366.276 311.276 361.5 317.167 361.5L461.833 361.5C467.724 361.5 472.5 366.276 472.5 372.167L472.5 414.833C472.5 420.724 467.724 425.5 461.833 425.5L317.167 425.5C311.276 425.5 306.5 420.724 306.5 414.833Z" stroke="#000000" stroke-width="1.33333" stroke-miterlimit="8" fill="#FFFFFF" fill-rule="evenodd"/><text font-family="Arial,Arial_MSFontService,sans-serif" font-weight="400" font-size="24" transform="translate(329.547 402)">Row Crops</text><path d="M555.5 231.167C555.5 225.276 560.276 220.5 566.167 220.5L691.833 220.5C697.724 220.5 702.5 225.276 702.5 231.167L702.5 273.833C702.5 279.724 697.724 284.5 691.833 284.5L566.167 284.5C560.276 284.5 555.5 279.724 555.5 273.833Z" stroke="#000000" stroke-width="1.33333" stroke-miterlimit="8" fill="#FFFFFF" fill-rule="evenodd"/><text font-family="Arial,Arial_MSFontService,sans-serif" font-weight="400" font-size="21" transform="translate(588.89 260)">Physical</text><path d="M555.5 511.167C555.5 505.276 560.276 500.5 566.167 500.5L691.833 500.5C697.724 500.5 702.5 505.276 702.5 511.167L702.5 553.833C702.5 559.724 697.724 564.5 691.833 564.5L566.167 564.5C560.276 564.5 555.5 559.724 555.5 553.833Z" stroke="#000000" stroke-width="1.33333" stroke-miterlimit="8" fill="#FFFFFF" fill-rule="evenodd"/><text font-family="Arial,Arial_MSFontService,sans-serif" font-weight="400" font-size="21" transform="translate(581.723 540)">Economic</text><path d="M761.5 153.167C761.5 147.276 766.276 142.5 772.167 142.5L908.833 142.5C914.724 142.5 919.5 147.276 919.5 153.167L919.5 195.833C919.5 201.724 914.724 206.5 908.833 206.5L772.167 206.5C766.276 206.5 761.5 201.724 761.5 195.833Z" stroke="#000000" stroke-width="1.33333" stroke-miterlimit="8" fill="#FFFFFF" fill-rule="evenodd"/><text font-family="Arial,Arial_MSFontService,sans-serif" font-weight="400" font-size="19" transform="translate(777.075 181)">Land Condition</text><path d="M761.5 304.334C761.5 298.35 766.35 293.5 772.334 293.5L908.667 293.5C914.65 293.5 919.5 298.35 919.5 304.334L919.5 347.667C919.5 353.65 914.65 358.5 908.667 358.5L772.334 358.5C766.35 358.5 761.5 353.65 761.5 347.667Z" stroke="#000000" stroke-width="1.33333" stroke-miterlimit="8" fill="#FFFFFF" fill-rule="evenodd"/><text font-family="Arial,Arial_MSFontService,sans-serif" font-weight="400" font-size="19" transform="translate(782.159 332)">Soil Condition</text><path d="M761.5 437.167C761.5 431.276 766.276 426.5 772.167 426.5L908.833 426.5C914.724 426.5 919.5 431.276 919.5 437.167L919.5 479.833C919.5 485.724 914.724 490.5 908.833 490.5L772.167 490.5C766.276 490.5 761.5 485.724 761.5 479.833Z" stroke="#000000" stroke-width="1.33333" stroke-miterlimit="8" fill="#FFFFFF" fill-rule="evenodd"/><text font-family="Arial,Arial_MSFontService,sans-serif" font-weight="400" font-size="19" transform="translate(811.242 465)">Market</text><path d="M761.5 588C761.5 582.201 766.201 577.5 772 577.5L909 577.5C914.799 577.5 919.5 582.201 919.5 588L919.5 630C919.5 635.799 914.799 640.5 909 640.5L772 640.5C766.201 640.5 761.5 635.799 761.5 630Z" stroke="#000000" stroke-width="1.33333" stroke-miterlimit="8" fill="#FFFFFF" fill-rule="evenodd"/><text font-family="Arial,Arial_MSFontService,sans-serif" font-weight="400" font-size="19" transform="translate(780.088 604)">Transportation<tspan font-size="19" x="8.73999" y="23">Accessibility</tspan></text><path d="M472.532 393.168 476.441 393.547 480.373 394.752 484.231 396.649 488.017 399.236 491.607 402.386 495.067 406.097 498.335 410.37 501.411 415.078 504.235 420.162 506.747 425.625 510.883 437.405 512.389 443.619 513.518 450.016 514.208 456.476 514.458 462.987 514.708 469.487 514.706 469.465 515.394 475.902 515.391 475.88 516.516 482.255 516.512 482.234 518.012 488.422 518.002 488.39 522.127 500.14 522.115 500.111 524.615 505.548 524.605 505.527 527.417 510.652 527.403 510.629 530.465 515.254 530.452 515.235 533.702 519.485 533.681 519.46 537.119 523.148 537.095 523.124 540.657 526.249 540.626 526.225 544.376 528.787 544.316 528.755 549.347 530.855 549.091 531.47 544.028 529.357 540.233 526.764 536.643 523.615 533.183 519.903 529.916 515.631 526.839 510.985 524.015 505.838 521.503 500.375 517.368 488.595 515.861 482.381 514.732 475.984 514.042 469.524 513.792 463.013 513.542 456.513 513.544 456.535 512.856 450.098 512.859 450.12 511.734 443.745 511.739 443.766 510.239 437.579 510.248 437.61 506.123 425.86 506.135 425.889 503.635 420.452 503.646 420.474 500.834 415.412 500.846 415.432 497.784 410.745 497.798 410.765 494.548 406.515 494.569 406.54 491.131 402.852 491.155 402.876 487.593 399.751 487.625 399.775 483.875 397.213 483.915 397.237 480.103 395.362 480.152 395.381 476.277 394.194 476.343 394.207 472.468 393.832ZM548.716 526.976 555.75 532.5 547.11 534.813Z"/><path d="M0.0321081-0.331783 3.94055 0.0464526 7.87527 1.25226 11.7327 3.21261 15.5185 5.79957 19.1096 9.01259 22.5691 12.7866 25.836 17.1216 28.9115 21.8918 31.7358 27.0381 34.2474 32.5638 38.3828 44.5314 39.8891 50.8076 41.0178 57.329 41.7077 63.8512 41.9581 70.4874 42.2081 77.1124 42.2065 77.0899 42.894 83.5899 42.8909 83.5681 44.0159 90.0681 44.0116 90.0472 45.5116 96.2972 45.5026 96.2661 49.6276 108.204 49.616 108.175 52.116 113.675 52.1055 113.654 54.918 118.841 54.9041 118.818 57.9666 123.505 57.9537 123.487 61.2037 127.799 61.1832 127.775 64.6207 131.525 64.5973 131.502 68.1598 134.689 68.1256 134.662 71.8756 137.225 71.819 137.194 76.8507 139.355 76.5876 139.967 71.5262 137.793 67.7315 135.2 64.1404 131.987 60.6809 128.213 57.4146 123.879 54.3385 119.171 51.5139 113.961 49.0026 108.436 44.8671 96.4685 43.3609 90.1924 42.2322 83.671 41.5423 77.1488 41.2919 70.5126 41.0419 63.8876 41.0435 63.9101 40.356 57.4101 40.359 57.4319 39.234 50.9318 39.2384 50.9528 37.7384 44.7028 37.7474 44.7339 33.6224 32.7964 33.634 32.8254 31.134 27.3254 31.1453 27.3479 28.3328 22.2229 28.3448 22.2431 25.2823 17.4931 25.2963 17.5131 22.0463 13.2006 22.0668 13.2252 18.6293 9.47524 18.6527 9.49841 15.0902 6.31091 15.1244 6.33771 11.3744 3.77521 11.4115 3.79716 7.59898 1.85966 7.65233 1.8812 3.77733 0.693704 3.84289 0.706783-0.0321081 0.331783ZM76.2164 135.475 83.25 141 74.6096 143.312Z" transform="matrix(1 0 0 -1 472.5 393.475)"/><path d="M0.0301786-0.331964 2.80226-0.0799573 5.59879 0.555619 8.32938 1.63515 10.9955 3.09519 15.9785 6.94281 20.4543 11.9859 24.2317 17.9039 27.1908 24.5147 29.0169 31.63 29.7068 38.906 30.3943 46.156 30.3852 46.1039 32.1977 53.1039 32.1803 53.0537 35.0553 59.6162 35.0318 59.572 38.7818 65.5095 38.7479 65.4647 43.1854 70.4022 43.1417 70.3615 48.1417 74.2365 48.0951 74.2063 50.6576 75.5813 50.586 75.553 52.2747 76.004 52.1026 76.6481 50.3765 76.187 47.7553 74.7805 42.7096 70.8701 38.2332 65.8893 34.4548 59.9068 31.559 53.2968 29.7332 46.2454 29.0432 38.969 28.3557 31.719 28.3646 31.7704 26.5521 24.7079 26.5708 24.7612 23.6333 18.1987 23.6565 18.2418 19.9065 12.3668 19.9382 12.4088 15.5007 7.40876 15.5463 7.45133 10.6088 3.63884 10.6524 3.66737 8.02739 2.22987 8.06495 2.24749 5.37745 1.18499 5.42613 1.20004 2.67613 0.575044 2.71982 0.581964-0.0301786 0.331964ZM51.7808 72.1294 58.6875 77.8125 49.997 79.928Z" transform="matrix(1 0 0 -1 702.5 252.306)"/><path d="M702.523 252.167 705.299 252.357 708.096 252.992 710.821 254.006 713.487 255.34 718.471 258.999 722.949 263.728 726.728 269.334 729.689 275.571 731.516 282.251 732.207 289.092 732.894 295.904 732.884 295.85 734.697 302.475 734.677 302.422 737.552 308.61 737.526 308.564 741.276 314.126 741.242 314.083 745.68 318.771 745.633 318.73 750.633 322.355 750.59 322.328 753.152 323.641 753.081 323.614 754.749 324.029 754.588 324.676 752.882 324.252 750.263 322.91 745.217 319.252 740.739 314.522 736.959 308.914 734.061 302.678 732.234 295.999 731.543 289.159 730.856 282.346 730.866 282.401 729.054 275.776 729.074 275.831 726.136 269.643 726.161 269.686 722.411 264.124 722.445 264.167 718.008 259.479 718.053 259.519 713.115 255.894 713.164 255.923 710.539 254.611 710.571 254.625 707.884 253.625 707.926 253.638 705.176 253.013 705.227 253.02 702.477 252.833ZM754.204 320.162 761.188 325.75 752.527 327.985Z"/><path d="M0.0226746-0.332561 2.79857-0.143296 5.59548 0.492366 8.3235 1.50744 10.9907 2.90454 15.9733 6.62572 20.4497 11.4174 24.229 17.0863 27.1893 23.4477 29.0165 30.1896 29.7067 37.1546 30.3942 44.0921 30.3842 44.0378 32.1967 50.7253 32.1778 50.6732 35.0528 56.9232 35.0273 56.8776 38.7773 62.5026 38.7436 62.4599 43.1811 67.2099 43.1353 67.1692 48.1353 70.8567 48.0951 70.8313 50.6576 72.2063 50.5805 72.1765 52.2494 72.5918 52.0884 73.2388 50.3791 72.8134 47.7589 71.4074 42.7149 67.6875 38.2378 62.8951 34.4581 57.2256 31.5605 50.9265 29.7335 44.1854 29.0433 37.2204 28.3558 30.2829 28.3658 30.3372 26.5533 23.6497 26.5728 23.7031 23.6353 17.3906 23.6601 17.4349 19.9101 11.8099 19.9439 11.8526 15.5064 7.10255 15.5505 7.14207 10.613 3.45457 10.6578 3.48278 8.03283 2.10778 8.07126 2.12491 5.38376 1.12491 5.42613 1.13754 2.67613 0.512544 2.72733 0.520061-0.0226746 0.332561ZM51.7035 68.7247 58.6875 74.3125 50.0268 76.547Z" transform="matrix(1 0 0 -1 702.5 532.81)"/><path d="M702.53 532.168 705.302 532.42 708.096 533.055 710.826 534.071 713.494 535.532 718.476 539.316 722.953 544.234 726.731 550.09 729.69 556.575 731.517 563.504 732.207 570.656 732.894 577.781 732.885 577.728 734.698 584.666 734.679 584.614 737.554 591.052 737.529 591.005 741.279 596.755 741.247 596.713 745.684 601.588 745.64 601.547 750.64 605.36 750.595 605.331 753.158 606.706 753.083 606.677 754.762 607.107 754.597 607.753 752.878 607.313 750.257 605.906 745.211 602.059 740.735 597.142 736.956 591.348 734.06 584.861 732.233 577.871 731.543 570.72 730.856 563.595 730.865 563.648 729.053 556.773 729.072 556.826 726.134 550.388 726.157 550.431 722.407 544.618 722.441 544.662 718.004 539.787 718.048 539.828 713.111 536.078 713.152 536.105 710.527 534.667 710.571 534.687 707.884 533.687 707.926 533.7 705.176 533.075 705.22 533.082 702.47 532.832ZM754.245 603.236 761.188 608.875 752.511 611.045Z"/><text font-family="Calibri,Calibri_MSFontService,sans-serif" font-weight="400" font-size="24" transform="translate(358.193 106)">Goa<tspan font-size="24" x="39.3333" y="0">l</tspan><tspan font-size="24" x="217.653" y="0">Objectives</tspan><tspan font-size="24" x="412.119" y="0">Sub</tspan><tspan font-size="24" x="448.452" y="0">-</tspan><tspan font-size="24" x="455.785" y="0">objectives</tspan></text><path d="M496.5 73.5001 523.5 100.5 499.5 124.5 499.5 667.5" stroke="#A9D18E" stroke-width="1.33333" stroke-miterlimit="8" stroke-dasharray="4 1.33333" fill="none" fill-rule="evenodd"/><path d="M731.5 73.5001 758.5 100.5 734.5 124.5 734.5 667.5" stroke="#A9D18E" stroke-width="1.33333" stroke-miterlimit="8" stroke-dasharray="4 1.33333" fill="none" fill-rule="evenodd"/></g></svg>