<svg width="606" height="500" xmlns="http://www.w3.org/2000/svg" xmlns:xlink="http://www.w3.org/1999/xlink" overflow="hidden"><defs><clipPath id="clip0"><rect x="212" y="94" width="606" height="500"/></clipPath></defs><g clip-path="url(#clip0)" transform="translate(-212 -94)"><path d="M214.5 325.167C214.5 319.276 219.276 314.5 225.167 314.5L368.833 314.5C374.724 314.5 379.5 319.276 379.5 325.167L379.5 367.833C379.5 373.724 374.724 378.5 368.833 378.5L225.167 378.5C219.276 378.5 214.5 373.724 214.5 367.833Z" stroke="#000000" stroke-width="1.33333" stroke-miterlimit="8" fill="#FFFFFF" fill-rule="evenodd"/><text font-family="Arial,Arial_MSFontService,sans-serif" font-weight="400" font-size="24" transform="translate(237.07 354)">Row Crops</text><path d="M462.5 184.167C462.5 178.276 467.276 173.5 473.167 173.5L599.833 173.5C605.724 173.5 610.5 178.276 610.5 184.167L610.5 226.833C610.5 232.724 605.724 237.5 599.833 237.5L473.167 237.5C467.276 237.5 462.5 232.724 462.5 226.833Z" stroke="#000000" stroke-width="1.33333" stroke-miterlimit="8" fill="#FFFFFF" fill-rule="evenodd"/><text font-family="Arial,Arial_MSFontService,sans-serif" font-weight="400" font-size="21" transform="translate(496.413 213)">P<tspan font-size="21" x="14.1667" y="0">hysical</tspan></text><path d="M462.5 464.167C462.5 458.276 467.276 453.5 473.167 453.5L599.833 453.5C605.724 453.5 610.5 458.276 610.5 464.167L610.5 506.833C610.5 512.724 605.724 517.5 599.833 517.5L473.167 517.5C467.276 517.5 462.5 512.724 462.5 506.833Z" stroke="#000000" stroke-width="1.33333" stroke-miterlimit="8" fill="#FFFFFF" fill-rule="evenodd"/><text font-family="Arial,Arial_MSFontService,sans-serif" font-weight="400" font-size="21" transform="translate(489.246 493)">Economic</text><path d="M668.5 106.167C668.5 100.276 673.276 95.5001 679.167 95.5001L805.833 95.5001C811.724 95.5001 816.5 100.276 816.5 106.167L816.5 148.833C816.5 154.724 811.724 159.5 805.833 159.5L679.167 159.5C673.276 159.5 668.5 154.724 668.5 148.833Z" stroke="#000000" stroke-width="1.33333" stroke-miterlimit="8" fill="#FFFFFF" fill-rule="evenodd"/><text font-family="Arial,Arial_MSFontService,sans-serif" font-weight="400" font-size="16" transform="translate(688.716 133)">Land Condition</text><path d="M668.5 257.334C668.5 251.35 673.35 246.5 679.334 246.5L805.666 246.5C811.65 246.5 816.5 251.35 816.5 257.334L816.5 300.666C816.5 306.65 811.65 311.5 805.666 311.5L679.334 311.5C673.35 311.5 668.5 306.65 668.5 300.666Z" stroke="#000000" stroke-width="1.33333" stroke-miterlimit="8" fill="#FFFFFF" fill-rule="evenodd"/><text font-family="Arial,Arial_MSFontService,sans-serif" font-weight="400" font-size="19" transform="translate(684.716 285)">Soil<tspan font-size="19" x="36.3333" y="0">Conditio</tspan><tspan font-size="19" x="104.667" y="0">n</tspan></text><path d="M668.5 390C668.5 384.201 673.201 379.5 679 379.5L806 379.5C811.799 379.5 816.5 384.201 816.5 390L816.5 432C816.5 437.799 811.799 442.5 806 442.5L679 442.5C673.201 442.5 668.5 437.799 668.5 432Z" stroke="#000000" stroke-width="1.33333" stroke-miterlimit="8" fill="#FFFFFF" fill-rule="evenodd"/><text font-family="Arial,Arial_MSFontService,sans-serif" font-weight="400" font-size="21" transform="translate(709.55 419)">Market</text><path d="M668.5 540.167C668.5 534.276 673.276 529.5 679.167 529.5L805.833 529.5C811.724 529.5 816.5 534.276 816.5 540.167L816.5 582.833C816.5 588.724 811.724 593.5 805.833 593.5L679.167 593.5C673.276 593.5 668.5 588.724 668.5 582.833Z" stroke="#000000" stroke-width="1.33333" stroke-miterlimit="8" fill="#FFFFFF" fill-rule="evenodd"/><text font-family="Arial,Arial_MSFontService,sans-serif" font-weight="400" font-size="16" transform="translate(691.096 558)">Transportation <tspan font-size="16" x="7.70667" y="19">Accessibility</tspan></text><path d="M379.532 346.168 383.441 346.547 387.373 347.752 391.231 349.649 395.017 352.236 398.607 355.386 402.067 359.097 405.335 363.37 408.411 368.078 411.235 373.162 413.747 378.625 417.883 390.405 419.389 396.619 420.518 403.016 421.208 409.476 421.458 415.987 421.708 422.487 421.707 422.465 422.394 428.902 422.391 428.88 423.516 435.255 423.512 435.234 425.012 441.422 425.002 441.39 429.127 453.14 429.115 453.111 431.615 458.548 431.605 458.527 434.417 463.652 434.403 463.629 437.465 468.254 437.452 468.235 440.702 472.485 440.681 472.46 444.119 476.148 444.095 476.124 447.657 479.249 447.626 479.225 451.376 481.787 451.316 481.755 456.347 483.855 456.091 484.47 451.028 482.357 447.233 479.764 443.643 476.615 440.183 472.903 436.916 468.631 433.84 463.985 431.015 458.838 428.503 453.375 424.368 441.595 422.861 435.381 421.732 428.984 421.042 422.524 420.792 416.013 420.542 409.513 420.544 409.535 419.856 403.098 419.859 403.12 418.734 396.745 418.739 396.766 417.239 390.579 417.248 390.61 413.123 378.86 413.135 378.889 410.635 373.452 410.646 373.474 407.834 368.412 407.846 368.432 404.784 363.745 404.798 363.765 401.548 359.515 401.569 359.54 398.131 355.852 398.155 355.876 394.593 352.751 394.625 352.775 390.875 350.213 390.915 350.237 387.103 348.362 387.152 348.381 383.277 347.194 383.343 347.207 379.468 346.832ZM455.716 479.976 462.75 485.5 454.11 487.813Z"/><path d="M0.0321081-0.331783 3.94055 0.0464526 7.87527 1.25226 11.7327 3.21261 15.5185 5.79957 19.1096 9.01259 22.5691 12.7866 25.836 17.1216 28.9115 21.8918 31.7358 27.0381 34.2474 32.5638 38.3828 44.5314 39.8891 50.8076 41.0178 57.329 41.7077 63.8512 41.9581 70.4874 42.2081 77.1124 42.2065 77.0899 42.894 83.5899 42.8909 83.5681 44.0159 90.0681 44.0116 90.0472 45.5116 96.2972 45.5026 96.2661 49.6276 108.204 49.616 108.175 52.116 113.675 52.1055 113.654 54.918 118.841 54.9041 118.818 57.9666 123.505 57.9537 123.487 61.2037 127.799 61.1832 127.775 64.6207 131.525 64.5973 131.502 68.1598 134.689 68.1256 134.662 71.8756 137.225 71.819 137.194 76.8507 139.355 76.5876 139.967 71.5262 137.793 67.7315 135.2 64.1404 131.987 60.6809 128.213 57.4146 123.879 54.3385 119.171 51.5139 113.961 49.0026 108.436 44.8671 96.4685 43.3609 90.1924 42.2322 83.671 41.5423 77.1488 41.2919 70.5126 41.0419 63.8876 41.0435 63.9101 40.356 57.4101 40.359 57.4319 39.234 50.9318 39.2384 50.9528 37.7384 44.7028 37.7474 44.7339 33.6224 32.7964 33.634 32.8254 31.134 27.3254 31.1453 27.3479 28.3328 22.2229 28.3448 22.2431 25.2823 17.4931 25.2963 17.5131 22.0463 13.2006 22.0668 13.2252 18.6293 9.47524 18.6527 9.49841 15.0902 6.31091 15.1244 6.33771 11.3744 3.77521 11.4115 3.79716 7.59898 1.85966 7.65233 1.8812 3.77733 0.693704 3.84289 0.706783-0.0321081 0.331783ZM76.2164 135.475 83.25 141 74.6096 143.312Z" transform="matrix(1 0 0 -1 379.5 346.475)"/><path d="M0.0301786-0.331964 2.80226-0.0799573 5.59879 0.555619 8.32938 1.63515 10.9955 3.09519 15.9785 6.94281 20.4543 11.9859 24.2317 17.9039 27.1908 24.5147 29.0169 31.63 29.7068 38.906 30.3943 46.156 30.3852 46.1039 32.1977 53.1039 32.1803 53.0537 35.0553 59.6162 35.0318 59.572 38.7818 65.5095 38.7479 65.4647 43.1854 70.4022 43.1417 70.3615 48.1417 74.2365 48.0951 74.2063 50.6576 75.5813 50.586 75.553 52.2747 76.004 52.1026 76.6481 50.3765 76.187 47.7553 74.7805 42.7096 70.8701 38.2332 65.8893 34.4548 59.9068 31.559 53.2968 29.7332 46.2454 29.0432 38.969 28.3557 31.719 28.3646 31.7704 26.5521 24.7079 26.5708 24.7612 23.6333 18.1987 23.6565 18.2418 19.9065 12.3668 19.9382 12.4088 15.5007 7.40876 15.5463 7.45133 10.6088 3.63884 10.6524 3.66737 8.02739 2.22987 8.06495 2.24749 5.37745 1.18499 5.42613 1.20004 2.67613 0.575044 2.71982 0.581964-0.0301786 0.331964ZM51.7808 72.1294 58.6875 77.8125 49.997 79.928Z" transform="matrix(1 0 0 -1 610.5 205.306)"/><path d="M610.523 205.167 613.299 205.357 616.096 205.992 618.821 207.006 621.487 208.34 626.471 211.999 630.949 216.728 634.728 222.334 637.689 228.571 639.516 235.251 640.207 242.092 640.894 248.904 640.884 248.85 642.697 255.475 642.677 255.422 645.552 261.61 645.526 261.564 649.276 267.126 649.242 267.083 653.68 271.771 653.633 271.73 658.633 275.355 658.59 275.328 661.152 276.641 661.081 276.614 662.749 277.029 662.588 277.676 660.882 277.252 658.263 275.91 653.217 272.252 648.739 267.522 644.959 261.914 642.061 255.678 640.234 248.999 639.543 242.159 638.856 235.346 638.866 235.401 637.054 228.776 637.074 228.831 634.136 222.643 634.161 222.686 630.411 217.124 630.445 217.167 626.008 212.479 626.053 212.519 621.115 208.894 621.164 208.923 618.539 207.611 618.571 207.625 615.884 206.625 615.926 206.638 613.176 206.013 613.227 206.02 610.477 205.833ZM662.204 273.162 669.188 278.75 660.527 280.985Z"/><path d="M0.0226746-0.332561 2.79857-0.143296 5.59548 0.492366 8.3235 1.50744 10.9907 2.90454 15.9733 6.62572 20.4497 11.4174 24.229 17.0863 27.1893 23.4477 29.0165 30.1896 29.7067 37.1546 30.3942 44.0921 30.3842 44.0378 32.1967 50.7253 32.1778 50.6732 35.0528 56.9232 35.0273 56.8776 38.7773 62.5026 38.7436 62.4599 43.1811 67.2099 43.1353 67.1692 48.1353 70.8567 48.0951 70.8313 50.6576 72.2063 50.5805 72.1765 52.2494 72.5918 52.0884 73.2388 50.3791 72.8134 47.7589 71.4074 42.7149 67.6875 38.2378 62.8951 34.4581 57.2256 31.5605 50.9265 29.7335 44.1854 29.0433 37.2204 28.3558 30.2829 28.3658 30.3372 26.5533 23.6497 26.5728 23.7031 23.6353 17.3906 23.6601 17.4349 19.9101 11.8099 19.9439 11.8526 15.5064 7.10255 15.5505 7.14207 10.613 3.45457 10.6578 3.48278 8.03283 2.10778 8.07126 2.12491 5.38376 1.12491 5.42613 1.13754 2.67613 0.512544 2.72733 0.520061-0.0226746 0.332561ZM51.7035 68.7247 58.6875 74.3125 50.0268 76.547Z" transform="matrix(1 0 0 -1 610.5 484.81)"/><path d="M610.53 485.168 613.302 485.42 616.096 486.055 618.826 487.071 621.494 488.532 626.476 492.316 630.953 497.234 634.731 503.09 637.69 509.575 639.517 516.504 640.207 523.656 640.894 530.781 640.885 530.728 642.698 537.666 642.679 537.614 645.554 544.052 645.529 544.005 649.279 549.755 649.247 549.713 653.684 554.588 653.64 554.547 658.64 558.36 658.595 558.331 661.158 559.706 661.083 559.677 662.762 560.107 662.597 560.753 660.878 560.313 658.257 558.906 653.211 555.059 648.735 550.142 644.956 544.348 642.06 537.861 640.233 530.871 639.543 523.72 638.856 516.595 638.865 516.648 637.053 509.773 637.072 509.826 634.134 503.388 634.157 503.431 630.407 497.618 630.441 497.662 626.004 492.787 626.048 492.828 621.111 489.078 621.152 489.105 618.527 487.667 618.571 487.687 615.884 486.687 615.926 486.7 613.176 486.075 613.22 486.082 610.47 485.832ZM662.245 556.236 669.188 561.875 660.511 564.045Z"/></g></svg>