<svg width="4386" height="467" xmlns="http://www.w3.org/2000/svg" xmlns:xlink="http://www.w3.org/1999/xlink" overflow="hidden"><defs><clipPath id="clip0"><rect x="1015" y="1623" width="4386" height="467"/></clipPath></defs><g clip-path="url(#clip0)" transform="translate(-1015 -1623)"><rect x="1035.5" y="1627.5" width="853" height="458" stroke="#507E32" stroke-width="9.16667" stroke-linejoin="round" stroke-miterlimit="10" fill="#70AD47"/><text fill="#FFFFFF" font-family="Arial,Arial_MSFontService,sans-serif" font-weight="400" font-size="110" transform="matrix(1 0 0 1 1081.87 1831)">Learn Materials <tspan font-size="110" x="3.13965" y="132">of each Module</tspan></text><rect x="2204.5" y="1627.5" width="854" height="458" stroke="#507E32" stroke-width="9.16667" stroke-linejoin="round" stroke-miterlimit="10" fill="#70AD47"/><text fill="#FFFFFF" font-family="Arial,Arial_MSFontService,sans-serif" font-weight="400" font-size="110" transform="matrix(1 0 0 1 2394.93 1831)">Complete <tspan font-size="110" x="-2.86475" y="132">Exercises</tspan></text><rect x="3373.5" y="1627.5" width="854" height="458" stroke="#507E32" stroke-width="9.16667" stroke-linejoin="round" stroke-miterlimit="10" fill="#70AD47"/><text fill="#FFFFFF" font-family="Arial,Arial_MSFontService,sans-serif" font-weight="400" font-size="110" transform="matrix(1 0 0 1 3628.63 1897)">Turn in </text><rect x="4542.5" y="1627.5" width="854" height="458" stroke="#507E32" stroke-width="9.16667" stroke-linejoin="round" stroke-miterlimit="10" fill="#70AD47"/><text fill="#FFFFFF" font-family="Arial,Arial_MSFontService,sans-serif" font-weight="400" font-size="110" transform="matrix(1 0 0 1 4617.7 1897)">Get Certificate</text><path d="M1961.5 1830.75 2037 1830.75 2037 1797.5 2103.5 1864 2037 1930.5 2037 1897.25 1961.5 1897.25Z" stroke="#BC8C00" stroke-width="9.16667" stroke-miterlimit="8" fill="#FFC000" fill-rule="evenodd"/><path d="M3144.5 1830.75 3220 1830.75 3220 1797.5 3286.5 1864 3220 1930.5 3220 1897.25 3144.5 1897.25Z" stroke="#BC8C00" stroke-width="9.16667" stroke-miterlimit="8" fill="#FFC000" fill-rule="evenodd"/><path d="M4314.5 1830.75 4390 1830.75 4390 1797.5 4456.5 1864 4390 1930.5 4390 1897.25 4314.5 1897.25Z" stroke="#BC8C00" stroke-width="9.16667" stroke-miterlimit="8" fill="#FFC000" fill-rule="evenodd"/></g></svg>