<svg width="990" height="250" xmlns="http://www.w3.org/2000/svg" xmlns:xlink="http://www.w3.org/1999/xlink" overflow="hidden"><defs><clipPath id="clip0"><rect x="39" y="112" width="990" height="250"/></clipPath><clipPath id="clip1"><rect x="40" y="68" width="183" height="135"/></clipPath><clipPath id="clip2"><rect x="223" y="68" width="200" height="135"/></clipPath><clipPath id="clip3"><rect x="423" y="68" width="192" height="135"/></clipPath><clipPath id="clip4"><rect x="615" y="68" width="196" height="135"/></clipPath><clipPath id="clip5"><rect x="811" y="68" width="217" height="135"/></clipPath><clipPath id="clip6"><rect x="40" y="-115" width="183" height="643"/></clipPath><clipPath id="clip7"><rect x="40" y="-115" width="183" height="643"/></clipPath><clipPath id="clip8"><rect x="40" y="-115" width="183" height="643"/></clipPath><clipPath id="clip9"><rect x="223" y="-338" width="200" height="1162"/></clipPath><clipPath id="clip10"><rect x="223" y="-338" width="200" height="1162"/></clipPath><clipPath id="clip11"><rect x="223" y="-338" width="200" height="1162"/></clipPath><clipPath id="clip12"><rect x="223" y="-338" width="200" height="1162"/></clipPath><clipPath id="clip13"><rect x="223" y="-338" width="200" height="1162"/></clipPath><clipPath id="clip14"><rect x="423" y="-221" width="192" height="890"/></clipPath><clipPath id="clip15"><rect x="423" y="-221" width="192" height="890"/></clipPath><clipPath id="clip16"><rect x="423" y="-221" width="192" height="890"/></clipPath><clipPath id="clip17"><rect x="615" y="-338" width="196" height="1162"/></clipPath><clipPath id="clip18"><rect x="615" y="-338" width="196" height="1162"/></clipPath><clipPath id="clip19"><rect x="615" y="-338" width="196" height="1162"/></clipPath><clipPath id="clip20"><rect x="615" y="-338" width="196" height="1162"/></clipPath><clipPath id="clip21"><rect x="615" y="-338" width="196" height="1162"/></clipPath><clipPath id="clip22"><rect x="811" y="-390" width="217" height="1285"/></clipPath><clipPath id="clip23"><rect x="811" y="-390" width="217" height="1285"/></clipPath><clipPath id="clip24"><rect x="811" y="-390" width="217" height="1285"/></clipPath><clipPath id="clip25"><rect x="811" y="-390" width="217" height="1285"/></clipPath><clipPath id="clip26"><rect x="811" y="-390" width="217" height="1285"/></clipPath><clipPath id="clip27"><rect x="811" y="-390" width="217" height="1285"/></clipPath></defs><g clip-path="url(#clip0)" transform="translate(-39 -112)"><path d="M40 113 1028 113" stroke="#70AD47" stroke-width="1.33333" stroke-linejoin="round" stroke-miterlimit="10" fill="none" fill-rule="evenodd"/><path d="M40 361 1028 361" stroke="#70AD47" stroke-width="1.33333" stroke-linejoin="round" stroke-miterlimit="10" fill="none" fill-rule="evenodd"/><g clip-path="url(#clip1)"><text font-family="Calibri,Calibri_MSFontService,sans-serif" font-weight="700" font-size="16" transform="translate(40.5794 141)">Distance to Major Roads</text></g><path d="M40.5794 142.69 81.0794 142.69 121.579 142.69 162.079 142.69 202.579 142.69 202.579 143.69 162.079 143.69 121.579 143.69 81.0794 143.69 40.5794 143.69Z" fill-rule="evenodd"/><g clip-path="url(#clip2)"><text font-family="Calibri,Calibri_MSFontService,sans-serif" font-weight="700" font-size="16" transform="translate(223.579 141)">Res Major Roads</text></g><path d="M223.579 142.69 260.579 142.69 297.579 142.69 334.579 142.69 334.579 143.69 297.579 143.69 260.579 143.69 223.579 143.69Z" fill-rule="evenodd"/><g clip-path="url(#clip3)"><text font-family="Calibri,Calibri_MSFontService,sans-serif" font-weight="700" font-size="16" transform="translate(423.579 141)">Distance to Sec Roads</text></g><path d="M423.579 142.69 459.579 142.69 495.579 142.69 531.579 142.69 567.579 142.69 567.579 143.69 531.579 143.69 495.579 143.69 459.579 143.69 423.579 143.69Z" fill-rule="evenodd"/><g clip-path="url(#clip4)"><text font-family="Calibri,Calibri_MSFontService,sans-serif" font-weight="700" font-size="16" transform="translate(615.579 141)">Res Secondary Roads</text></g><path d="M615.579 142.69 662.246 142.69 708.913 142.69 755.579 142.69 755.579 143.69 708.913 143.69 662.246 143.69 615.579 143.69Z" fill-rule="evenodd"/><g clip-path="url(#clip5)"><text font-family="Calibri,Calibri_MSFontService,sans-serif" font-weight="700" font-size="16" transform="translate(811.579 141)">Weighted Sum MR &amp; SR</text></g><path d="M811.579 142.69 864.579 142.69 917.579 142.69 970.579 142.69 970.579 143.69 917.579 143.69 864.579 143.69 811.579 143.69Z" fill-rule="evenodd"/><g clip-path="url(#clip6)"><text font-family="Calibri,Calibri_MSFontService,sans-serif" font-weight="400" font-size="15" transform="translate(40.5794 174)">1.</text></g><text font-family="Calibri,Calibri_MSFontService,sans-serif" font-weight="400" font-size="15" transform="translate(54.9794 174)">​<tspan font-weight="700" font-size="15" x="0" y="0">Input </tspan><tspan font-weight="700" font-size="15" x="35.8333" y="0">layer</tspan><tspan font-size="15" x="66.1667" y="0">: Input </tspan><tspan font-size="15" x="108.333" y="0">Polygon</tspan></text><g clip-path="url(#clip7)"><text font-family="Calibri,Calibri_MSFontService,sans-serif" font-weight="400" font-size="15" transform="translate(40.5794 202)">2.</text></g><text font-family="Calibri,Calibri_MSFontService,sans-serif" font-weight="400" font-size="15" transform="translate(54.9794 202)">​<tspan font-weight="700" font-size="15" x="0" y="0">Line layer</tspan><tspan font-size="15" x="58.6667" y="0">: Major Roads</tspan></text><g clip-path="url(#clip8)"><text font-family="Calibri,Calibri_MSFontService,sans-serif" font-weight="400" font-size="15" transform="translate(40.5794 230)">3.</text></g><text font-family="Calibri,Calibri_MSFontService,sans-serif" font-weight="400" font-size="15" transform="translate(54.9794 230)">​<tspan font-weight="700" font-size="15" x="0" y="0">Output column name</tspan><tspan font-size="15" x="130.167" y="0">: </tspan><tspan font-size="15" x="0" y="18">Dis_toMR</tspan></text><g clip-path="url(#clip9)"><text font-family="Calibri,Calibri_MSFontService,sans-serif" font-weight="400" font-size="15" transform="translate(223.579 174)">1.</text></g><text font-family="Calibri,Calibri_MSFontService,sans-serif" font-weight="400" font-size="15" transform="translate(237.979 174)">​<tspan font-weight="700" font-size="15" x="0" y="0">​​Input layer</tspan><tspan font-size="15" x="66.1667" y="0">: 'Output layer' </tspan><tspan font-size="15" x="0" y="17">from algorithm 'Distance to </tspan><tspan font-size="15" x="0" y="35">Major Roads’</tspan></text><g clip-path="url(#clip10)"><text font-family="Calibri,Calibri_MSFontService,sans-serif" font-weight="400" font-size="15" transform="translate(223.579 237)">2.</text></g><text font-family="Calibri,Calibri_MSFontService,sans-serif" font-weight="400" font-size="15" transform="translate(237.979 237)">​<tspan font-weight="700" font-size="15" x="0" y="0">​Field to</tspan><tspan font-weight="700" font-size="15" x="48.8333" y="0">rescale</tspan><tspan font-size="15" x="91.5" y="0">:</tspan><tspan font-size="15" x="98.8333" y="0">Dis_toMR</tspan></text><g clip-path="url(#clip11)"><text font-family="Calibri,Calibri_MSFontService,sans-serif" font-weight="400" font-size="15" transform="translate(223.579 265)">3.</text></g><text font-family="Calibri,Calibri_MSFontService,sans-serif" font-weight="400" font-size="15" transform="translate(237.979 265)">​<tspan font-weight="700" font-size="15" x="0" y="0">​Start value</tspan><tspan font-size="15" x="66" y="0">: 15000</tspan></text><g clip-path="url(#clip12)"><text font-family="Calibri,Calibri_MSFontService,sans-serif" font-weight="400" font-size="15" transform="translate(223.579 294)">4.</text></g><text font-family="Calibri,Calibri_MSFontService,sans-serif" font-weight="400" font-size="15" transform="translate(237.979 294)">​<tspan font-weight="700" font-size="15" x="0" y="0">End value</tspan><tspan font-size="15" x="59.1667" y="0">: 0</tspan></text><g clip-path="url(#clip13)"><text font-family="Calibri,Calibri_MSFontService,sans-serif" font-weight="400" font-size="15" transform="translate(223.579 322)">5.</text></g><text font-family="Calibri,Calibri_MSFontService,sans-serif" font-weight="400" font-size="15" transform="translate(237.979 322)">​<tspan font-weight="700" font-size="15" x="0" y="0">​​Output field name</tspan><tspan font-size="15" x="112" y="0">: </tspan><tspan font-size="15" x="119.333" y="0">DisMR_R</tspan></text><g clip-path="url(#clip14)"><text font-family="Calibri,Calibri_MSFontService,sans-serif" font-weight="400" font-size="15" transform="translate(423.579 174)">1.</text></g><text font-family="Calibri,Calibri_MSFontService,sans-serif" font-weight="400" font-size="15" transform="translate(437.979 174)">​<tspan font-weight="700" font-size="15" x="0" y="0">Input </tspan><tspan font-weight="700" font-size="15" x="35.8333" y="0">layer</tspan><tspan font-size="15" x="66.1667" y="0">: 'Output layer' </tspan><tspan font-size="15" x="0" y="17">from algorithm 'Res Major </tspan><tspan font-size="15" x="0" y="35">Roads’</tspan></text><g clip-path="url(#clip15)"><text font-family="Calibri,Calibri_MSFontService,sans-serif" font-weight="400" font-size="15" transform="translate(423.579 237)">2.</text></g><text font-family="Calibri,Calibri_MSFontService,sans-serif" font-weight="400" font-size="15" transform="translate(437.979 237)">​<tspan font-weight="700" font-size="15" x="0" y="0">Line layer</tspan><tspan font-size="15" x="58.6667" y="0">: Secondary Roads</tspan></text><g clip-path="url(#clip16)"><text font-family="Calibri,Calibri_MSFontService,sans-serif" font-weight="400" font-size="15" transform="translate(423.579 265)">3.</text></g><text font-family="Calibri,Calibri_MSFontService,sans-serif" font-weight="400" font-size="15" transform="translate(437.979 265)">​<tspan font-weight="700" font-size="15" x="0" y="0">Output column name</tspan><tspan font-size="15" x="130.167" y="0">: </tspan><tspan font-size="15" x="0" y="18">Dis_toR</tspan></text><g clip-path="url(#clip17)"><text font-family="Calibri,Calibri_MSFontService,sans-serif" font-weight="400" font-size="15" transform="translate(615.579 174)">1.</text></g><text font-family="Calibri,Calibri_MSFontService,sans-serif" font-weight="400" font-size="15" transform="translate(629.979 174)">​<tspan font-weight="700" font-size="15" x="0" y="0">Input layer</tspan><tspan font-size="15" x="66.1667" y="0">: 'Output layer' </tspan><tspan font-size="15" x="0" y="17">from algorithm 'Distance to </tspan><tspan font-size="15" x="0" y="35">Sec Roads’</tspan></text><g clip-path="url(#clip18)"><text font-family="Calibri,Calibri_MSFontService,sans-serif" font-weight="400" font-size="15" transform="translate(615.579 237)">2.</text></g><text font-family="Calibri,Calibri_MSFontService,sans-serif" font-weight="400" font-size="15" transform="translate(629.979 237)">​<tspan font-weight="700" font-size="15" x="0" y="0">​Field to</tspan><tspan font-weight="700" font-size="15" x="48.8333" y="0">rescale</tspan><tspan font-size="15" x="91.5" y="0">:</tspan><tspan font-size="15" x="98.8333" y="0">Dis_toR</tspan></text><g clip-path="url(#clip19)"><text font-family="Calibri,Calibri_MSFontService,sans-serif" font-weight="400" font-size="15" transform="translate(615.579 265)">3.</text></g><text font-family="Calibri,Calibri_MSFontService,sans-serif" font-weight="400" font-size="15" transform="translate(629.979 265)">​<tspan font-weight="700" font-size="15" x="0" y="0">​Start value</tspan>: 5000</text><g clip-path="url(#clip20)"><text font-family="Calibri,Calibri_MSFontService,sans-serif" font-weight="400" font-size="15" transform="translate(615.579 294)">4.</text></g><text font-family="Calibri,Calibri_MSFontService,sans-serif" font-weight="400" font-size="15" transform="translate(629.979 294)">​<tspan font-weight="700" font-size="15" x="0" y="0">End value</tspan><tspan font-size="15" x="59.1667" y="0">: 0</tspan></text><g clip-path="url(#clip21)"><text font-family="Calibri,Calibri_MSFontService,sans-serif" font-weight="400" font-size="15" transform="translate(615.579 322)">5.</text></g><text font-family="Calibri,Calibri_MSFontService,sans-serif" font-weight="400" font-size="15" transform="translate(629.979 322)">​<tspan font-weight="700" font-size="15" x="0" y="0">​​Output field name</tspan><tspan font-size="15" x="112" y="0">: </tspan><tspan font-size="15" x="119.333" y="0">DisR_R</tspan></text><g clip-path="url(#clip22)"><text font-family="Calibri,Calibri_MSFontService,sans-serif" font-weight="400" font-size="15" transform="translate(811.579 174)">1.</text></g><text font-family="Calibri,Calibri_MSFontService,sans-serif" font-weight="400" font-size="15" transform="translate(825.979 174)">​<tspan font-weight="700" font-size="15" x="0" y="0">Input </tspan><tspan font-weight="700" font-size="15" x="35.8333" y="0">layer</tspan><tspan font-size="15" x="66.1667" y="0">: 'Output layer' from </tspan><tspan font-size="15" x="0" y="17">algorithm 'Res Secondary </tspan></text><g clip-path="url(#clip23)"><text font-family="Calibri,Calibri_MSFontService,sans-serif" font-weight="400" font-size="15" transform="translate(979.646 191)">Roads’</text></g><g clip-path="url(#clip24)"><text font-family="Calibri,Calibri_MSFontService,sans-serif" font-weight="400" font-size="15" transform="translate(811.579 220)">2.</text></g><text font-family="Calibri,Calibri_MSFontService,sans-serif" font-weight="400" font-size="15" transform="translate(825.979 220)">​<tspan font-weight="700" font-size="15" x="0" y="0">Fields</tspan>: DisMR_R;DisR_R</text><g clip-path="url(#clip25)"><text font-family="Calibri,Calibri_MSFontService,sans-serif" font-weight="400" font-size="15" transform="translate(811.579 248)">3.</text></g><text font-family="Calibri,Calibri_MSFontService,sans-serif" font-weight="400" font-size="15" transform="translate(825.979 248)">​<tspan font-weight="700" font-size="15" x="0" y="0">Weights</tspan><tspan font-size="15" x="50.1667" y="0">: Using model input: </tspan><tspan font-size="15" x="0" y="17">Weighted Value</tspan></text><g clip-path="url(#clip26)"><text font-family="Calibri,Calibri_MSFontService,sans-serif" font-weight="400" font-size="15" transform="translate(811.579 294)">4.</text></g><text font-family="Calibri,Calibri_MSFontService,sans-serif" font-weight="400" font-size="15" transform="translate(825.979 294)">​<tspan font-weight="700" font-size="15" x="0" y="0">Output field name</tspan><tspan font-size="15" x="112" y="0">: </tspan><tspan font-size="15" x="119.333" y="0">rcrp_trans</tspan></text><g clip-path="url(#clip27)"><text font-family="Calibri,Calibri_MSFontService,sans-serif" font-weight="400" font-size="15" transform="translate(811.579 322)">5.</text></g><text font-family="Calibri,Calibri_MSFontService,sans-serif" font-weight="400" font-size="15" transform="translate(825.979 322)">​<tspan font-weight="700" font-size="15" x="0" y="0">Output layer</tspan>: <tspan font-size="15" x="0" y="18">rcrp_TransportAccessibility</tspan></text></g></svg>