<?xml version="1.0" encoding="UTF-8"?>
<svg xmlns="http://www.w3.org/2000/svg" viewBox="0 0 329.1 329.1">
    <g id="a">
        <circle cx="164.55" cy="164.55" r="164.05" style="fill:#f37021; stroke-miterlimit:10;"/>
    </g>
    <g id="b">
        <path d="M324.57,168.57c-2.29-10.59-35.16-15.33-80.97-12.16,1.12,1.55-7.71,3.41-6.71,5.04,29.51-1.36,59.96,1.98,61.41,8.67,2.57,11.9-53.06,32.24-124.24,45.42-71.19,13.19-130.97,14.23-133.54,2.33-1.55-7.2,6.73-13.86,38.37-23.79,.26-1.82-.77-3.62-.38-5.4-47.33,13.89-65.3,26.01-62.9,37.12,3.48,16.11,75.59,18.65,160.91,2.85,85.32-15.81,151.54-43.97,148.06-60.08" style="fill:#005496;"/>
        <g>
            <path d="M57.89,154.48c-4.4,5.68-10.16,7.84-15.68,7.84-17.68,0-28.08-13.2-28.08-29.68s10.4-30.16,28.08-30.16c11.68,0,22.72,7.2,24.08,20.16h-12c-1.44-6.32-6.16-9.6-12.08-9.6-11.28,0-15.52,9.6-15.52,19.6s4.24,19.12,15.52,19.12c8.16,0,12.88-4.4,13.6-12.32h-12.64v-9.36h24v30.88h-8l-1.28-6.48Z" style="fill:#005496; stroke:#005496; stroke-miterlimit:10;"/>
            <path d="M100.93,103.84h12.88l21.36,57.12h-13.04l-4.32-12.72h-21.36l-4.48,12.72h-12.72l21.68-57.12Zm-1.2,35.04h14.8l-7.2-20.96h-.16l-7.44,20.96Z" style="fill:#005496; stroke:#005496; stroke-miterlimit:10;"/>
            <path d="M148.13,103.84h12.56v46.56h27.84v10.56h-40.4v-57.12Z" style="fill:#005496; stroke:#005496; stroke-miterlimit:10;"/>
            <path d="M252.05,139.36c0,15.44-9.12,22.96-24.4,22.96s-24.32-7.44-24.32-22.96v-35.52h12.56v35.52c0,6.24,1.6,12.4,11.76,12.4,8.96,0,11.84-3.92,11.84-12.4v-35.52h12.56v35.52Z" style="fill:#005496; stroke:#005496; stroke-miterlimit:10;"/>
            <path d="M270.85,103.84h25.76c14.24,0,19.76,9.04,19.76,18.32s-5.52,18.32-19.76,18.32h-13.2v20.48h-12.56v-57.12Zm12.56,26.88h9.76c5.84,0,11.04-1.28,11.04-8.56s-5.2-8.56-11.04-8.56h-9.76v17.12Z" style="fill:#005496; stroke:#005496; stroke-miterlimit:10;"/>
        </g>
    </g>
    <g id="c">
        <g>
            <path d="M30.64,195.62c-1.43,1.85-3.3,2.55-5.1,2.55-5.75,0-9.13-4.29-9.13-9.65s3.38-9.8,9.13-9.8c3.8,0,7.38,2.34,7.83,6.55h-3.9c-.47-2.05-2-3.12-3.93-3.12-3.67,0-5.04,3.12-5.04,6.37s1.38,6.21,5.04,6.21c2.65,0,4.19-1.43,4.42-4h-4.11v-3.04h7.8v10.04h-2.6l-.42-2.11Z" style="fill:#fff; stroke:#fff; stroke-miterlimit:10; stroke-width:.2px;"/>
            <path d="M36.56,179.16h3.69v6.99h.08c.94-1.51,2.55-2.24,3.93-2.24,3.93,0,4.91,2.21,4.91,5.54v8.27h-3.69v-7.59c0-2.21-.65-3.3-2.37-3.3-2,0-2.86,1.12-2.86,3.85v7.05h-3.69v-18.56Z" style="fill:#fff; stroke:#fff; stroke-miterlimit:10; stroke-width:.2px;"/>
            <path d="M51.82,188.41c.21-3.46,3.3-4.5,6.32-4.5,2.68,0,5.9,.6,5.9,3.82v6.99c0,1.22,.13,2.44,.47,2.99h-3.74c-.13-.42-.23-.86-.26-1.3-1.17,1.22-2.89,1.66-4.52,1.66-2.55,0-4.58-1.27-4.58-4.03,0-3.04,2.29-3.77,4.58-4.08,2.26-.34,4.37-.26,4.37-1.77,0-1.59-1.09-1.82-2.39-1.82-1.4,0-2.31,.57-2.44,2.03h-3.69Zm8.53,2.73c-.62,.55-1.92,.57-3.07,.78-1.14,.23-2.18,.62-2.18,1.98s1.07,1.72,2.26,1.72c2.89,0,2.99-2.29,2.99-3.09v-1.38Z" style="fill:#fff; stroke:#fff; stroke-miterlimit:10; stroke-width:.2px;"/>
            <path d="M66.9,184.28h3.51v1.87h.08c.94-1.51,2.55-2.24,4.11-2.24,3.93,0,4.91,2.21,4.91,5.54v8.27h-3.69v-7.59c0-2.21-.65-3.3-2.37-3.3-2,0-2.86,1.12-2.86,3.85v7.05h-3.69v-13.44Z" style="fill:#fff; stroke:#fff; stroke-miterlimit:10; stroke-width:.2px;"/>
            <path d="M82.17,188.41c.21-3.46,3.3-4.5,6.32-4.5,2.68,0,5.9,.6,5.9,3.82v6.99c0,1.22,.13,2.44,.47,2.99h-3.74c-.13-.42-.23-.86-.26-1.3-1.17,1.22-2.89,1.66-4.52,1.66-2.55,0-4.58-1.27-4.58-4.03,0-3.04,2.29-3.77,4.58-4.08,2.26-.34,4.37-.26,4.37-1.77,0-1.59-1.09-1.82-2.39-1.82-1.4,0-2.31,.57-2.44,2.03h-3.69Zm8.53,2.73c-.62,.55-1.92,.57-3.07,.78-1.14,.23-2.18,.62-2.18,1.98s1.07,1.72,2.26,1.72c2.89,0,2.99-2.29,2.99-3.09v-1.38Z" style="fill:#fff; stroke:#fff; stroke-miterlimit:10; stroke-width:.2px;"/>
            <path d="M104.86,179.16h4.08v15.13h9.05v3.43h-13.13v-18.56Z" style="fill:#fff; stroke:#fff; stroke-miterlimit:10; stroke-width:.2px;"/>
            <path d="M119.73,188.41c.21-3.46,3.3-4.5,6.32-4.5,2.68,0,5.9,.6,5.9,3.82v6.99c0,1.22,.13,2.44,.47,2.99h-3.74c-.13-.42-.23-.86-.26-1.3-1.17,1.22-2.89,1.66-4.52,1.66-2.55,0-4.58-1.27-4.58-4.03,0-3.04,2.29-3.77,4.58-4.08,2.26-.34,4.37-.26,4.37-1.77,0-1.59-1.09-1.82-2.39-1.82-1.4,0-2.31,.57-2.44,2.03h-3.69Zm8.53,2.73c-.62,.55-1.92,.57-3.07,.78-1.14,.23-2.18,.62-2.18,1.98s1.07,1.72,2.26,1.72c2.89,0,2.99-2.29,2.99-3.09v-1.38Z" style="fill:#fff; stroke:#fff; stroke-miterlimit:10; stroke-width:.2px;"/>
            <path d="M134.81,184.28h3.51v1.87h.08c.94-1.51,2.55-2.24,4.11-2.24,3.93,0,4.91,2.21,4.91,5.54v8.27h-3.69v-7.59c0-2.21-.65-3.3-2.37-3.3-2,0-2.86,1.12-2.86,3.85v7.05h-3.69v-13.44Z" style="fill:#fff; stroke:#fff; stroke-miterlimit:10; stroke-width:.2px;"/>
            <path d="M159.83,196.01h-.05c-.86,1.46-2.37,2.08-4.08,2.08-4.06,0-6.03-3.48-6.03-7.2s2-6.97,5.95-6.97c1.59,0,3.15,.68,3.98,2h.05v-6.76h3.69v18.56h-3.51v-1.72Zm-3.22-9.31c-2.42,0-3.25,2.08-3.25,4.29s.96,4.32,3.25,4.32c2.44,0,3.17-2.13,3.17-4.34s-.78-4.26-3.17-4.26Z" style="fill:#fff; stroke:#fff; stroke-miterlimit:10; stroke-width:.2px;"/>
            <path d="M189.49,190.7c0,5.02-2.96,7.46-7.93,7.46s-7.9-2.42-7.9-7.46v-11.54h4.08v11.54c0,2.03,.52,4.03,3.82,4.03,2.91,0,3.85-1.27,3.85-4.03v-11.54h4.08v11.54Z" style="fill:#fff; stroke:#fff; stroke-miterlimit:10; stroke-width:.2px;"/>
            <path d="M195.47,193.35c.03,1.61,1.38,2.26,2.83,2.26,1.07,0,2.42-.42,2.42-1.72,0-1.12-1.53-1.51-4.19-2.08-2.13-.47-4.26-1.22-4.26-3.59,0-3.43,2.96-4.32,5.85-4.32s5.64,.99,5.93,4.29h-3.51c-.1-1.43-1.2-1.82-2.52-1.82-.83,0-2.05,.16-2.05,1.25,0,1.33,2.08,1.51,4.19,2,2.16,.49,4.26,1.27,4.26,3.77,0,3.54-3.07,4.68-6.14,4.68s-6.16-1.17-6.32-4.73h3.51Z" style="fill:#fff; stroke:#fff; stroke-miterlimit:10; stroke-width:.2px;"/>
            <path d="M209.62,191.9c.1,2.34,1.25,3.41,3.3,3.41,1.48,0,2.68-.91,2.91-1.74h3.25c-1.04,3.17-3.25,4.52-6.29,4.52-4.24,0-6.86-2.91-6.86-7.07s2.78-7.1,6.86-7.1c4.58,0,6.79,3.85,6.53,7.98h-9.7Zm6.01-2.34c-.34-1.87-1.14-2.86-2.94-2.86-2.34,0-3.02,1.82-3.07,2.86h6.01Z" style="fill:#fff; stroke:#fff; stroke-miterlimit:10; stroke-width:.2px;"/>
            <path d="M229.12,179.16h8.37c4.63,0,6.42,2.94,6.42,5.95s-1.79,5.95-6.42,5.95h-4.29v6.66h-4.08v-18.56Zm4.08,8.74h3.17c1.9,0,3.59-.42,3.59-2.78s-1.69-2.78-3.59-2.78h-3.17v5.56Z" style="fill:#fff; stroke:#fff; stroke-miterlimit:10; stroke-width:.2px;"/>
            <path d="M246.07,184.28h3.51v2.5h.05c.68-1.69,2.5-2.86,4.29-2.86,.26,0,.57,.05,.81,.13v3.43c-.34-.08-.88-.13-1.33-.13-2.7,0-3.64,1.95-3.64,4.32v6.06h-3.69v-13.44Z" style="fill:#fff; stroke:#fff; stroke-miterlimit:10; stroke-width:.2px;"/>
            <path d="M262.24,183.92c4.24,0,6.97,2.81,6.97,7.1s-2.73,7.07-6.97,7.07-6.94-2.81-6.94-7.07,2.73-7.1,6.94-7.1Zm0,11.39c2.52,0,3.28-2.16,3.28-4.29s-.75-4.32-3.28-4.32-3.25,2.16-3.25,4.32,.75,4.29,3.25,4.29Z" style="fill:#fff; stroke:#fff; stroke-miterlimit:10; stroke-width:.2px;"/>
            <path d="M269.7,199.31c.23,.08,.49,.1,.81,.1,.75,0,1.43-.18,1.43-1.2v-13.94h3.69v14.12c0,2.76-1.01,4.06-4.73,4.06-.39,0-.81-.05-1.2-.1v-3.04Zm5.93-17.11h-3.69v-3.04h3.69v3.04Z" style="fill:#fff; stroke:#fff; stroke-miterlimit:10; stroke-width:.2px;"/>
            <path d="M281.87,191.9c.1,2.34,1.25,3.41,3.3,3.41,1.48,0,2.68-.91,2.91-1.74h3.25c-1.04,3.17-3.25,4.52-6.29,4.52-4.24,0-6.86-2.91-6.86-7.07s2.78-7.1,6.86-7.1c4.58,0,6.79,3.85,6.53,7.98h-9.7Zm6.01-2.34c-.34-1.87-1.14-2.86-2.94-2.86-2.34,0-3.02,1.82-3.07,2.86h6.01Z" style="fill:#fff; stroke:#fff; stroke-miterlimit:10; stroke-width:.2px;"/>
            <path d="M302.9,189.01c-.23-1.51-1.2-2.31-2.73-2.31-2.37,0-3.15,2.39-3.15,4.37s.75,4.24,3.07,4.24c1.72,0,2.7-1.09,2.94-2.73h3.56c-.47,3.56-2.94,5.51-6.47,5.51-4.06,0-6.79-2.86-6.79-6.89s2.5-7.28,6.86-7.28c3.17,0,6.08,1.66,6.32,5.1h-3.61Z" style="fill:#fff; stroke:#fff; stroke-miterlimit:10; stroke-width:.2px;"/>
            <path d="M313.35,184.28h2.7v2.47h-2.7v6.66c0,1.25,.31,1.56,1.56,1.56,.39,0,.75-.03,1.14-.1v2.89c-.62,.1-1.43,.13-2.16,.13-2.26,0-4.24-.52-4.24-3.2v-7.93h-2.24v-2.47h2.24v-4.03h3.69v4.03Z" style="fill:#fff; stroke:#fff; stroke-miterlimit:10; stroke-width:.2px;"/>
        </g>
    </g>
</svg>