<svg width="4257" height="2113" xmlns="http://www.w3.org/2000/svg" xmlns:xlink="http://www.w3.org/1999/xlink" overflow="hidden"><defs><clipPath id="clip0"><rect x="62" y="207" width="4257" height="2113"/></clipPath></defs><g clip-path="url(#clip0)" transform="translate(-62 -207)"><rect x="584.5" y="1823.5" width="3497" height="495" stroke="#44546A" stroke-width="3.4375" stroke-linejoin="round" stroke-miterlimit="10" fill="#D0E0E3"/><rect x="65.5002" y="208.5" width="389" height="495" stroke="#000000" stroke-width="3.4375" stroke-linejoin="round" stroke-miterlimit="10" fill="#FFFFFF"/><text font-family="Calibri,Calibri_MSFontService,sans-serif" font-weight="700" font-size="64" transform="matrix(1 0 0 1 156.413 400)">Overlay <tspan font-size="64" x="32.0833" y="77">Input </tspan><tspan font-size="64" x="5.15625" y="154">Rasters</tspan></text><rect x="65.5002" y="746.5" width="389" height="495" stroke="#000000" stroke-width="3.4375" stroke-linejoin="round" stroke-miterlimit="10" fill="#FFFFFF"/><text font-family="Calibri,Calibri_MSFontService,sans-serif" font-weight="700" font-size="64" transform="matrix(1 0 0 1 141.231 900)">Separate <tspan font-size="64" x="-9.16666" y="77">Rural and </tspan><tspan font-size="64" x="36.0938" y="154">Urban </tspan><tspan font-size="64" x="42.9688" y="231">Areas</tspan></text><rect x="65.5002" y="1284.5" width="389" height="495" stroke="#000000" stroke-width="3.4375" stroke-linejoin="round" stroke-miterlimit="10" fill="#FFFFFF"/><text font-family="Calibri,Calibri_MSFontService,sans-serif" font-weight="700" font-size="64" transform="matrix(1 0 0 1 158.705 1476)">Process <tspan font-size="64" x="-57.2917" y="77">Vector Data </tspan><tspan font-size="64" x="-34.9479" y="154">(iteration)</tspan></text><rect x="65.5002" y="1823.5" width="389" height="495" stroke="#000000" stroke-width="3.4375" stroke-linejoin="round" stroke-miterlimit="10" fill="#FFFFFF"/><text font-family="Calibri,Calibri_MSFontService,sans-serif" font-weight="700" font-size="64" transform="matrix(1 0 0 1 173.039 2053)">Merge <tspan font-size="64" x="-9.46459" y="77">Results</tspan></text><rect x="454.5" y="746.5" width="3863" height="495" stroke="#44546A" stroke-width="3.4375" stroke-linejoin="round" stroke-miterlimit="10" fill="#D9D2E9"/><rect x="454.5" y="208.5" width="3863" height="495" stroke="#44546A" stroke-width="3.4375" stroke-linejoin="round" stroke-miterlimit="10" fill="#E7E6E6"/><rect x="584.5" y="1365.5" width="2350" height="396" stroke="#44546A" stroke-width="3.4375" stroke-linejoin="round" stroke-miterlimit="10" fill="#EAD1DC"/><rect x="3043.5" y="1365.5" width="1268" height="396" stroke="#44546A" stroke-width="3.4375" stroke-linejoin="round" stroke-miterlimit="10" fill="#FFF2CC"/><path d="M483.5 451.5C483.5 396.824 601.697 352.5 747.5 352.5 893.303 352.5 1011.5 396.824 1011.5 451.5 1011.5 506.176 893.303 550.5 747.5 550.5 601.697 550.5 483.5 506.176 483.5 451.5Z" stroke="#31538F" stroke-width="4.58333" stroke-miterlimit="8" fill="#4472C4" fill-rule="evenodd"/><text fill="#FFFFFF" font-family="Calibri,Calibri_MSFontService,sans-serif" font-weight="400" font-size="69" transform="matrix(1 0 0 1 601.409 433)">land cover <tspan font-size="69" x="63.0209" y="83">raster</tspan></text><path d="M1810.5 569.5C1810.5 514.824 1928.7 470.5 2074.5 470.5 2220.3 470.5 2338.5 514.824 2338.5 569.5 2338.5 624.176 2220.3 668.5 2074.5 668.5 1928.7 668.5 1810.5 624.176 1810.5 569.5Z" stroke="#31538F" stroke-width="4.58333" stroke-miterlimit="8" fill="#4472C4" fill-rule="evenodd"/><text fill="#FFFFFF" font-family="Calibri,Calibri_MSFontService,sans-serif" font-weight="400" font-size="69" transform="matrix(1 0 0 1 1951.9 550)">drainage <tspan font-size="69" x="39.5313" y="83">raster</tspan></text><path d="M2494.5 372.834C2494.5 350.006 2513.01 331.5 2535.83 331.5L2948.17 331.5C2970.99 331.5 2989.5 350.006 2989.5 372.834L2989.5 538.166C2989.5 560.994 2970.99 579.5 2948.17 579.5L2535.83 579.5C2513.01 579.5 2494.5 560.994 2494.5 538.166Z" stroke="#BA8C00" stroke-width="4.58333" stroke-miterlimit="8" fill="#FFC000" fill-rule="evenodd"/><text font-family="Calibri,Calibri_MSFontService,sans-serif" font-weight="400" font-size="69" transform="matrix(1 0 0 1 2564.45 437)">Reclassify by <tspan font-size="69" x="105.99" y="83">table</tspan></text><path d="M3096.5 372.834C3096.5 350.006 3115.01 331.5 3137.83 331.5L3550.17 331.5C3572.99 331.5 3591.5 350.006 3591.5 372.834L3591.5 538.166C3591.5 560.994 3572.99 579.5 3550.17 579.5L3137.83 579.5C3115.01 579.5 3096.5 560.994 3096.5 538.166Z" stroke="#BA8C00" stroke-width="4.58333" stroke-miterlimit="8" fill="#FFC000" fill-rule="evenodd"/><text font-family="Calibri,Calibri_MSFontService,sans-serif" font-weight="400" font-size="69" transform="matrix(1 0 0 1 3254.51 437)">Raster <tspan font-size="69" x="-48.3999" y="83">calculator</tspan></text><path d="M3698.5 455.5C3698.5 400.824 3824.08 356.5 3979 356.5 4133.92 356.5 4259.5 400.824 4259.5 455.5 4259.5 510.176 4133.92 554.5 3979 554.5 3824.08 554.5 3698.5 510.176 3698.5 455.5Z" stroke="#38761D" stroke-width="4.58333" stroke-miterlimit="8" fill="#70AD47" fill-rule="evenodd"/><text fill="#FFFFFF" font-family="Calibri,Calibri_MSFontService,sans-serif" font-weight="400" font-size="69" transform="matrix(1 0 0 1 3839.26 437)">combined <tspan font-size="69" x="56.9937" y="83">raster</tspan></text><path d="M2989 449.844 3075.56 449.844 3075.56 460.157 2989 460.156ZM3075.56 455 3065.25 439.532 3096.19 455 3065.25 470.469Z" fill="#44546A"/><path d="M3591 449.844 3677.56 449.844 3677.56 460.157 3591 460.156ZM3677.56 455 3667.25 439.532 3698.19 455 3667.25 470.469Z" fill="#44546A"/><path d="M2548.5 886.835C2548.5 864.006 2567.01 845.5 2589.83 845.5L3002.17 845.5C3024.99 845.5 3043.5 864.006 3043.5 886.835L3043.5 1052.17C3043.5 1074.99 3024.99 1093.5 3002.17 1093.5L2589.83 1093.5C2567.01 1093.5 2548.5 1074.99 2548.5 1052.17Z" stroke="#BA8C00" stroke-width="4.58333" stroke-miterlimit="8" fill="#FFC000" fill-rule="evenodd"/><text font-family="Calibri,Calibri_MSFontService,sans-serif" font-weight="400" font-size="69" transform="matrix(1 0 0 1 2706.25 951)">Raster <tspan font-size="69" x="-48.3999" y="83">calculator</tspan></text><path d="M3355.5 899.5C3355.5 844.824 3466.31 800.5 3603 800.5 3739.69 800.5 3850.5 844.824 3850.5 899.5 3850.5 954.176 3739.69 998.5 3603 998.5 3466.31 998.5 3355.5 954.176 3355.5 899.5Z" stroke="#31538F" stroke-width="4.58333" stroke-miterlimit="8" fill="#4472C4" fill-rule="evenodd"/><text fill="#FFFFFF" font-family="Calibri,Calibri_MSFontService,sans-serif" font-weight="400" font-size="69" transform="matrix(1 0 0 1 3536.13 880)">rural<tspan font-size="69" x="4.58325" y="83">area</tspan></text><path d="M1211.5 1480.67C1211.5 1457.93 1229.93 1439.5 1252.67 1439.5L1665.33 1439.5C1688.07 1439.5 1706.5 1457.93 1706.5 1480.67L1706.5 1645.33C1706.5 1668.07 1688.07 1686.5 1665.33 1686.5L1252.67 1686.5C1229.93 1686.5 1211.5 1668.07 1211.5 1645.33Z" stroke="#BA8C00" stroke-width="4.58333" stroke-miterlimit="8" fill="#FFC000" fill-rule="evenodd"/><text font-family="Calibri,Calibri_MSFontService,sans-serif" font-weight="400" font-size="69" transform="matrix(1 0 0 1 1419.73 1544)">Fix <tspan font-size="69" x="-119.442" y="83">geometries</tspan></text><path d="M627.5 1480.67C627.5 1457.93 645.931 1439.5 668.667 1439.5L1081.33 1439.5C1104.07 1439.5 1122.5 1457.93 1122.5 1480.67L1122.5 1645.33C1122.5 1668.07 1104.07 1686.5 1081.33 1686.5L668.667 1686.5C645.931 1686.5 627.5 1668.07 627.5 1645.33Z" stroke="#BA8C00" stroke-width="4.58333" stroke-miterlimit="8" fill="#FFC000" fill-rule="evenodd"/><text font-family="Calibri,Calibri_MSFontService,sans-serif" font-weight="400" font-size="69" transform="matrix(1 0 0 1 757.288 1586)">r.to.vect</text><path d="M1795.5 1480.67C1795.5 1457.93 1813.93 1439.5 1836.67 1439.5L2249.33 1439.5C2272.07 1439.5 2290.5 1457.93 2290.5 1480.67L2290.5 1645.33C2290.5 1668.07 2272.07 1686.5 2249.33 1686.5L1836.67 1686.5C1813.93 1686.5 1795.5 1668.07 1795.5 1645.33Z" stroke="#BA8C00" stroke-width="4.58333" stroke-miterlimit="8" fill="#FFC000" fill-rule="evenodd"/><text font-family="Calibri,Calibri_MSFontService,sans-serif" font-weight="400" font-size="69" transform="matrix(1 0 0 1 1905.45 1586)">Subdivide</text><path d="M2378.5 1480.67C2378.5 1457.93 2396.93 1439.5 2419.67 1439.5L2832.33 1439.5C2855.07 1439.5 2873.5 1457.93 2873.5 1480.67L2873.5 1645.33C2873.5 1668.07 2855.07 1686.5 2832.33 1686.5L2419.67 1686.5C2396.93 1686.5 2378.5 1668.07 2378.5 1645.33Z" stroke="#BA8C00" stroke-width="4.58333" stroke-miterlimit="8" fill="#FFC000" fill-rule="evenodd"/><text font-family="Calibri,Calibri_MSFontService,sans-serif" font-weight="400" font-size="69" transform="matrix(1 0 0 1 2455.62 1544)">Multipart to <tspan font-size="69" x="18.0354" y="83">singleparts</tspan></text><path d="M3687.5 1115.5C3687.5 1060.82 3798.31 1016.5 3935 1016.5 4071.69 1016.5 4182.5 1060.82 4182.5 1115.5 4182.5 1170.18 4071.69 1214.5 3935 1214.5 3798.31 1214.5 3687.5 1170.18 3687.5 1115.5Z" stroke="#31538F" stroke-width="4.58333" stroke-miterlimit="8" fill="#4472C4" fill-rule="evenodd"/><text fill="#FFFFFF" font-family="Calibri,Calibri_MSFontService,sans-serif" font-weight="400" font-size="69" transform="matrix(1 0 0 1 3852.05 1097)">urban<tspan font-size="69" x="20.625" y="83">area</tspan></text><path d="M1011 445.844 1059.77 445.844C1062.61 445.844 1064.92 448.152 1064.92 451L1064.92 451.217 1059.77 446.06 1087.92 446.06 1087.92 456.373 1059.77 456.373C1056.92 456.373 1054.61 454.064 1054.61 451.217L1054.61 451 1059.77 456.156 1011 456.156ZM1087.92 451.217 1077.61 435.748 1108.55 451.217 1077.61 466.685Z" fill="#44546A"/><path d="M0-5.15625 58.9295-5.15625C61.7772-5.15625 64.0857-2.84772 64.0857 0L64.0857 113.681 58.9295 108.525 135.389 108.525 135.389 118.837 58.9295 118.837C56.0818 118.837 53.7732 116.529 53.7732 113.681L53.7732 0 58.9295 5.15625 0 5.15625ZM135.389 113.681 125.076 98.2123 156.014 113.681 125.076 129.15Z" fill="#44546A" transform="matrix(1 -1.22465e-16 -1.22465e-16 -1 2338 568.681)"/><path d="M3085.37 1621.63C3101.49 1636.75 3130.2 1634.36 3155.17 1615.82L3148.85 1609.89 3174.47 1610.16 3174.13 1633.6 3167.81 1627.67C3142.84 1646.22 3114.13 1648.61 3098.01 1633.49Z" fill="#00FFFF" fill-rule="evenodd"/><path d="M3110.07 1549.76C3087.15 1574.2 3079.73 1606.61 3092.45 1626.74 3068.56 1613.72 3067.25 1578.23 3089.52 1547.48 3091.94 1544.14 3094.59 1540.94 3097.43 1537.91Z" fill="#00CDCD" fill-rule="evenodd"/><path d="M3085.37 1621.63C3101.49 1636.75 3130.2 1634.36 3155.17 1615.82L3148.85 1609.89 3174.47 1610.16 3174.13 1633.6 3167.81 1627.67C3142.84 1646.22 3114.13 1648.61 3098.01 1633.49L3085.37 1621.63C3065.84 1603.32 3071.24 1565.83 3097.43 1537.91L3110.07 1549.76C3087.15 1574.2 3079.73 1606.61 3092.45 1626.74" stroke="#44546A" stroke-width="3.4375" stroke-linejoin="round" stroke-miterlimit="10" fill="none" fill-rule="evenodd"/><path d="M0 105.616 17.3298 86.7469 17.3298 95.4119C43.5097 90.6849 63.37 75.7442 68.2031 57.1405 74.6958 82.1327 52.4999 106.391 17.3298 112.742L17.3298 121.407Z" fill="#00FFFF" fill-rule="evenodd" transform="matrix(0.684097 -0.729391 -0.729391 -0.684097 3192.06 1614.92)"/><path d="M69.3195 65.8054C69.3195 39.0331 38.2841 17.3298-7.82634e-15 17.3298L0 0C38.2841-1.56527e-14 69.3195 21.7033 69.3195 48.4756Z" fill="#00CDCD" fill-rule="evenodd" transform="matrix(0.684097 -0.729391 -0.729391 -0.684097 3192.06 1614.92)"/><path d="M69.3195 65.8054C69.3195 39.0331 38.2841 17.3298-7.82634e-15 17.3298L0 0C38.2841-1.56527e-14 69.3195 21.7033 69.3195 48.4756L69.3195 65.8054C69.3195 87.9102 47.9357 107.215 17.3299 112.742L17.3298 121.407 0 105.616 17.3298 86.7469 17.3298 95.4119C43.5097 90.6849 63.37 75.7442 68.2031 57.1405" stroke="#44546A" stroke-width="3.4375" stroke-linejoin="round" stroke-miterlimit="10" fill="none" fill-rule="evenodd" transform="matrix(0.684097 -0.729391 -0.729391 -0.684097 3192.06 1614.92)"/><path d="M1081.5 1099.5C1081.5 1035.99 1207.08 984.5 1362 984.5 1516.92 984.5 1642.5 1035.99 1642.5 1099.5 1642.5 1163.01 1516.92 1214.5 1362 1214.5 1207.08 1214.5 1081.5 1163.01 1081.5 1099.5Z" stroke="#274E13" stroke-width="4.58333" stroke-miterlimit="8" fill="#70AD47" fill-rule="evenodd"/><text fill="#FFFFFF" font-family="Calibri,Calibri_MSFontService,sans-serif" font-weight="400" font-size="64" transform="matrix(1 0 0 1 1231.12 1043)">combined <tspan font-size="64" x="21.1979" y="77">raster in</tspan><tspan font-size="64" x="67.9021" y="154">rural</tspan></text><path d="M661.5 893.5C661.5 829.987 787.084 778.5 942 778.5 1096.92 778.5 1222.5 829.987 1222.5 893.5 1222.5 957.013 1096.92 1008.5 942 1008.5 787.084 1008.5 661.5 957.013 661.5 893.5Z" stroke="#274E13" stroke-width="4.58333" stroke-miterlimit="8" fill="#70AD47" fill-rule="evenodd"/><text fill="#FFFFFF" font-family="Calibri,Calibri_MSFontService,sans-serif" font-weight="400" font-size="64" transform="matrix(1 0 0 1 811.2 838)">combined <tspan font-size="64" x="21.1979" y="77">raster in</tspan><tspan font-size="64" x="52.7084" y="154">urban</tspan></text><path d="M3979.23 554 3979.23 676.791 3603 676.791 3603 799.551" stroke="#5A3DAF" stroke-width="10.3125" stroke-linejoin="round" stroke-miterlimit="10" fill="none" fill-rule="evenodd"/><path d="M3354.74 904.424 3198.63 904.424C3195.78 904.424 3193.47 902.115 3193.47 899.268L3193.47 760.016 3198.63 765.172 2795 765.172 2800.16 760.016 2800.16 825.375 2789.84 825.375 2789.84 760.016C2789.84 757.168 2792.15 754.859 2795 754.859L3198.63 754.859C3201.47 754.859 3203.78 757.168 3203.78 760.016L3203.78 899.268 3198.63 894.111 3354.74 894.111ZM2795 825.375 2810.47 815.062 2795 846 2779.53 815.062Z" fill="#5A3DAF"/><path d="M2800.89 1093 2800.89 1178.94C2800.89 1181.79 2798.58 1184.09 2795.73 1184.09L2117 1184.09C2114.15 1184.09 2111.84 1181.79 2111.84 1178.94L2111.84 1113.84 2122.16 1113.84 2122.16 1178.94 2117 1173.78 2795.73 1173.78 2790.57 1178.94 2790.57 1093ZM2117 1113.84 2101.53 1124.15 2117 1093.22 2132.47 1124.15Z" fill="#5A3DAF"/><path d="M3687.19 1120.1 3240.77 1120.1C3237.92 1120.1 3235.61 1117.79 3235.61 1114.94L3235.61 969 3240.77 974.156 3063.62 974.156 3063.62 963.844 3240.77 963.844C3243.61 963.844 3245.92 966.152 3245.92 969L3245.92 1114.94 3240.77 1109.79 3687.19 1109.79ZM3063.62 969 3073.94 984.469 3043 969 3073.94 953.531Z" fill="#FF9100"/><path d="M0 0-28.2124 0-28.2124 660 77.1949 660" stroke="#FF9100" stroke-width="10.3125" stroke-linejoin="round" stroke-miterlimit="10" fill="none" fill-rule="evenodd" transform="matrix(-1 0 0 1 4259.19 455)"/><path d="M0-5.15625 91.8431-5.15625C94.6909-5.15625 96.9994-2.84772 96.9994 0L96.9994 0.216535 91.8431-4.93971 163.105-4.93971 163.105 5.37279 91.8431 5.37279C88.9954 5.37279 86.6869 3.06425 86.6869 0.216535L86.6869 0 91.8431 5.15625 0 5.15625ZM163.105 0.216535 152.793-15.2522 183.73 0.216535 152.793 15.6853Z" fill="#FF9100" transform="matrix(-1 0 0 1 2547.73 969)"/><path d="M1081 1104.16 995.06 1104.16 1000.22 1099 1000.22 1289.47 995.06 1284.31 1759.3 1284.31C1762.15 1284.31 1764.45 1286.62 1764.45 1289.47L1764.45 1343.96 1754.14 1343.96 1754.14 1289.47 1759.3 1294.62 995.06 1294.62C992.213 1294.62 989.904 1292.31 989.904 1289.47L989.904 1099C989.904 1096.15 992.213 1093.84 995.06 1093.84L1081 1093.84ZM1759.3 1343.96 1774.77 1333.64 1759.3 1364.58 1743.83 1333.64Z" fill="#5A3DAF"/><path d="M0-5.15625 163.159-5.15625C166.007-5.15625 168.316-2.84772 168.316 0L168.316 669.419C168.316 672.267 166.007 674.576 163.159 674.576L97.8199 674.576 97.8199 664.263 163.159 664.263 158.003 669.419 158.003 0 163.159 5.15625 0 5.15625ZM97.8199 669.419 108.132 684.888 77.1949 669.419 108.132 653.951Z" fill="#FF9100" transform="matrix(-1 0 0 1 661.195 893)"/><path d="M1122 1557.84 1166.34 1557.84C1169.19 1557.84 1171.5 1560.15 1171.5 1563L1171.5 1563.22 1166.34 1558.06 1190.05 1558.06 1190.05 1568.37 1166.34 1568.37C1163.49 1568.37 1161.18 1566.06 1161.18 1563.22L1161.18 1563 1166.34 1568.16 1122 1568.16ZM1190.05 1563.22 1179.73 1547.75 1210.67 1563.22 1179.73 1578.69Z" fill="#44546A"/><path d="M1706 1557.84 1750.34 1557.84C1753.19 1557.84 1755.5 1560.15 1755.5 1563L1755.5 1563.22 1750.34 1558.06 1774.05 1558.06 1774.05 1568.37 1750.34 1568.37C1747.49 1568.37 1745.18 1566.06 1745.18 1563.22L1745.18 1563 1750.34 1568.16 1706 1568.16ZM1774.05 1563.22 1763.73 1547.75 1794.67 1563.22 1763.73 1578.69Z" fill="#44546A"/><path d="M2290 1557.84 2334.34 1557.84C2337.19 1557.84 2339.5 1560.15 2339.5 1563L2339.5 1563.22 2334.34 1558.06 2358.05 1558.06 2358.05 1568.37 2334.34 1568.37C2331.49 1568.37 2329.18 1566.06 2329.18 1563.22L2329.18 1563 2334.34 1568.16 2290 1568.16ZM2358.05 1563.22 2347.73 1547.75 2378.67 1563.22 2347.73 1578.69Z" fill="#44546A"/><path d="M3247.5 1480.67C3247.5 1457.93 3265.93 1439.5 3288.67 1439.5L3668.33 1439.5C3691.07 1439.5 3709.5 1457.93 3709.5 1480.67L3709.5 1645.33C3709.5 1668.07 3691.07 1686.5 3668.33 1686.5L3288.67 1686.5C3265.93 1686.5 3247.5 1668.07 3247.5 1645.33Z" stroke="#BA8C00" stroke-width="4.58333" stroke-miterlimit="8" fill="#FFC000" fill-rule="evenodd"/><text font-family="Calibri,Calibri_MSFontService,sans-serif" font-weight="400" font-size="69" transform="matrix(1 0 0 1 3352.19 1544)">Select by <tspan font-size="69" x="-24.9106" y="83">expression</tspan></text><path d="M3810.5 1480.67C3810.5 1457.93 3828.93 1439.5 3851.67 1439.5L4231.33 1439.5C4254.07 1439.5 4272.5 1457.93 4272.5 1480.67L4272.5 1645.33C4272.5 1668.07 4254.07 1686.5 4231.33 1686.5L3851.67 1686.5C3828.93 1686.5 3810.5 1668.07 3810.5 1645.33Z" stroke="#BA8C00" stroke-width="4.58333" stroke-miterlimit="8" fill="#FFC000" fill-rule="evenodd"/><text font-family="Calibri,Calibri_MSFontService,sans-serif" font-weight="400" font-size="69" transform="matrix(1 0 0 1 3909.94 1503)">Eliminate <tspan font-size="69" x="14.323" y="83">selected </tspan><tspan font-size="69" x="6.30225" y="166">polygons</tspan></text><path d="M1455.5 1977.67C1455.5 1954.93 1473.93 1936.5 1496.67 1936.5L1909.33 1936.5C1932.07 1936.5 1950.5 1954.93 1950.5 1977.67L1950.5 2142.33C1950.5 2165.07 1932.07 2183.5 1909.33 2183.5L1496.67 2183.5C1473.93 2183.5 1455.5 2165.07 1455.5 2142.33Z" stroke="#BA8C00" stroke-width="4.58333" stroke-miterlimit="8" fill="#FFC000" fill-rule="evenodd"/><text font-family="Calibri,Calibri_MSFontService,sans-serif" font-weight="400" font-size="69" transform="matrix(1 0 0 1 1513.95 2041)">Merge vector <tspan font-size="69" x="105.99" y="83">layers</tspan></text><path d="M2680.5 2153.5C2680.5 2089.99 2804.96 2038.5 2958.5 2038.5 3112.03 2038.5 3236.5 2089.99 3236.5 2153.5 3236.5 2217.01 3112.03 2268.5 2958.5 2268.5 2804.96 2268.5 2680.5 2217.01 2680.5 2153.5Z" stroke="#274E13" stroke-width="4.58333" stroke-miterlimit="8" fill="#70AD47" fill-rule="evenodd"/><text fill="#FFFFFF" font-family="Calibri,Calibri_MSFontService,sans-serif" font-weight="400" font-size="64" transform="matrix(1 0 0 1 2827.59 2174)">rural IDUs</text><path d="M2116.5 1977.5C2116.5 1913.99 2240.96 1862.5 2394.5 1862.5 2548.04 1862.5 2672.5 1913.99 2672.5 1977.5 2672.5 2041.01 2548.04 2092.5 2394.5 2092.5 2240.96 2092.5 2116.5 2041.01 2116.5 1977.5Z" stroke="#274E13" stroke-width="4.58333" stroke-miterlimit="8" fill="#70AD47" fill-rule="evenodd"/><text fill="#FFFFFF" font-family="Calibri,Calibri_MSFontService,sans-serif" font-weight="400" font-size="64" transform="matrix(1 0 0 1 2248.66 1998)">urban IDUs</text><path d="M680.5 2060C680.5 1996.21 804.965 1944.5 958.5 1944.5 1112.04 1944.5 1236.5 1996.21 1236.5 2060 1236.5 2123.79 1112.04 2175.5 958.5 2175.5 804.965 2175.5 680.5 2123.79 680.5 2060Z" stroke="#274E13" stroke-width="4.58333" stroke-miterlimit="8" fill="#70AD47" fill-rule="evenodd"/><text fill="#FFFFFF" font-family="Calibri,Calibri_MSFontService,sans-serif" font-weight="400" font-size="64" transform="matrix(1 0 0 1 833.059 2081)">final IDUs</text><path d="M3709 1557.84 3759.89 1557.84C3762.73 1557.84 3765.04 1560.15 3765.04 1563L3765.04 1563.22 3759.89 1558.06 3790.15 1558.06 3790.15 1568.37 3759.89 1568.37C3757.04 1568.37 3754.73 1566.06 3754.73 1563.22L3754.73 1563 3759.89 1568.16 3709 1568.16ZM3790.15 1563.22 3779.83 1547.75 3810.77 1563.22 3779.83 1578.69Z" fill="#44546A"/><path d="M3494.29 2064.66 3359.12 2064.66C3356.27 2064.66 3353.96 2062.35 3353.96 2059.5L3353.96 1977 3359.12 1982.16 2692.62 1982.16 2692.62 1971.84 3359.12 1971.84C3361.96 1971.84 3364.27 1974.15 3364.27 1977L3364.27 2059.5 3359.12 2054.34 3494.29 2054.34ZM2692.62 1977 2702.94 1992.47 2672 1977 2702.94 1961.53Z" fill="#FF9100"/><path d="M0 5.15625-85.9376 5.15625-80.7813 0-80.7813 376.769-85.9376 371.613 30.2067 371.613C33.0544 371.613 35.3629 373.922 35.3629 376.769L35.3629 485.418 25.0504 485.418 25.0504 376.769 30.2067 381.926-85.9376 381.926C-88.7853 381.926-91.0938 379.617-91.0938 376.769L-91.0938 0C-91.0938-2.84772-88.7853-5.15625-85.9376-5.15625L0-5.15625ZM30.2067 485.418 45.6754 475.106 30.2067 506.043 14.7379 475.106Z" fill="#5A3DAF" transform="matrix(-6.12323e-17 -1 -1 6.12323e-17 3742.04 2183.21)"/><path d="M2115.69 1982.41 2032.61 1982.41C2029.77 1982.41 2027.46 1980.1 2027.46 1977.25L2027.46 1850.06 2032.61 1855.22 1702 1855.22 1707.16 1850.06 1707.16 1915.38 1696.84 1915.38 1696.84 1850.06C1696.84 1847.21 1699.15 1844.91 1702 1844.91L2032.61 1844.91C2035.46 1844.91 2037.77 1847.21 2037.77 1850.06L2037.77 1977.25 2032.61 1972.09 2115.69 1972.09ZM1702 1915.38 1717.47 1905.06 1702 1936 1686.53 1905.06Z" fill="#44546A"/><path d="M0-5.15625 364.957-5.15625C367.805-5.15625 370.113-2.84772 370.113 0L370.113 116.156 364.957 111 977.441 111 972.285 116.156 972.285 50.8317 982.597 50.8317 982.597 116.156C982.597 119.004 980.289 121.313 977.441 121.313L364.957 121.313C362.11 121.313 359.801 119.004 359.801 116.156L359.801 0 364.957 5.15625 0 5.15625ZM977.441 50.8317 961.972 61.1442 977.441 30.2067 992.91 61.1442Z" fill="#44546A" transform="matrix(-1 0 0 1 2679.44 2153)"/><path d="M0-5.15625 109.305-5.15625C112.153-5.15625 114.461-2.84772 114.461 0L114.461 0.216535 109.305-4.93971 197.968-4.93971 197.968 5.37279 109.305 5.37279C106.457 5.37279 104.149 3.06425 104.149 0.216535L104.149 0 109.305 5.15625 0 5.15625ZM197.968 0.216535 187.655-15.2522 218.593 0.216535 187.655 15.6853Z" fill="#44546A" transform="matrix(-1 0 0 1 1454.59 2059)"/><path d="M1869.5 886.835C1869.5 864.006 1888.01 845.5 1910.83 845.5L2323.17 845.5C2345.99 845.5 2364.5 864.006 2364.5 886.835L2364.5 1052.17C2364.5 1074.99 2345.99 1093.5 2323.17 1093.5L1910.83 1093.5C1888.01 1093.5 1869.5 1074.99 1869.5 1052.17Z" stroke="#BA8C00" stroke-width="4.58333" stroke-miterlimit="8" fill="#FFC000" fill-rule="evenodd"/><text font-family="Calibri,Calibri_MSFontService,sans-serif" font-weight="400" font-size="69" transform="matrix(1 0 0 1 2043.9 992)">r.null</text><path d="M2111.81 845 2111.81 759.064 2116.97 764.22 1755.73 764.22 1760.89 759.064 1760.89 1098.45C1760.89 1101.3 1758.58 1103.61 1755.73 1103.61L1662.62 1103.61 1662.62 1093.3 1755.73 1093.3 1750.58 1098.45 1750.58 759.064C1750.58 756.216 1752.88 753.907 1755.73 753.907L2116.97 753.907C2119.82 753.907 2122.13 756.216 2122.13 759.064L2122.13 845ZM1662.62 1098.45 1672.94 1113.92 1642 1098.45 1672.94 1082.99Z" fill="#5A3DAF"/><path d="M1869.44 974.268 1545.75 974.268C1542.9 974.268 1540.59 971.96 1540.59 969.112L1540.59 893 1545.75 898.156 1242.62 898.156 1242.62 887.844 1545.75 887.844C1548.59 887.844 1550.9 890.152 1550.9 893L1550.9 969.112 1545.75 963.956 1869.44 963.956ZM1242.62 893 1252.94 908.469 1222 893 1252.94 877.531Z" fill="#FF9100"/><path d="M3495.5 1977.67C3495.5 1954.93 3513.93 1936.5 3536.67 1936.5L3949.33 1936.5C3972.07 1936.5 3990.5 1954.93 3990.5 1977.67L3990.5 2142.33C3990.5 2165.07 3972.07 2183.5 3949.33 2183.5L3536.67 2183.5C3513.93 2183.5 3495.5 2165.07 3495.5 2142.33Z" stroke="#BA8C00" stroke-width="4.58333" stroke-miterlimit="8" fill="#FFC000" fill-rule="evenodd"/><text font-family="Calibri,Calibri_MSFontService,sans-serif" font-weight="400" font-size="69" transform="matrix(1 0 0 1 3643.8 2041)">v.clean <tspan font-size="69" x="-38.3855" y="83">(optional)</tspan></text><path d="M0-5.15625 31.0065-5.15625C33.8542-5.15625 36.1627-2.84772 36.1627 0L36.1627 490.262 31.0065 485.106 309.537 485.106 304.381 490.262 304.381 425.005 314.694 425.005 314.694 490.262C314.694 493.11 312.385 495.418 309.537 495.418L31.0065 495.418C28.1587 495.418 25.8502 493.11 25.8502 490.262L25.8502 0 31.0065 5.15625 0 5.15625ZM309.537 425.005 294.069 435.317 309.537 404.38 325.006 435.317Z" fill="#44546A" transform="matrix(1.83697e-16 1 1 -1.83697e-16 3677 1761)"/><path d="M1108.5 369.667C1108.5 346.931 1126.93 328.5 1149.67 328.5L1562.33 328.5C1585.07 328.5 1603.5 346.931 1603.5 369.667L1603.5 534.333C1603.5 557.069 1585.07 575.5 1562.33 575.5L1149.67 575.5C1126.93 575.5 1108.5 557.069 1108.5 534.333Z" stroke="#BA8C00" stroke-width="4.58333" stroke-miterlimit="8" fill="#FFC000" fill-rule="evenodd"/><text font-family="Calibri,Calibri_MSFontService,sans-serif" font-weight="400" font-size="69" transform="matrix(1 0 0 1 1178.94 433)">Reclassify by <tspan font-size="69" x="105.99" y="83">table</tspan></text><path d="M1777.5 341.5C1777.5 286.824 1903.08 242.5 2058 242.5 2212.92 242.5 2338.5 286.824 2338.5 341.5 2338.5 396.176 2212.92 440.5 2058 440.5 1903.08 440.5 1777.5 396.176 1777.5 341.5Z" stroke="#38761D" stroke-width="4.58333" stroke-miterlimit="8" fill="#70AD47" fill-rule="evenodd"/><text fill="#FFFFFF" font-family="Calibri,Calibri_MSFontService,sans-serif" font-weight="400" font-size="69" transform="matrix(1 0 0 1 1895.86 323)">generalized <tspan font-size="69" x="16.0416" y="83">land cover</tspan></text><path d="M0-5.15625 86.7154-5.15625C89.5631-5.15625 91.8717-2.84772 91.8717 0L91.8717 110 86.7154 104.844 152.82 104.844 152.82 115.156 86.7154 115.156C83.8677 115.156 81.5592 112.848 81.5592 110L81.5592 0 86.7154 5.15625 0 5.15625ZM152.82 110 142.507 94.5312 173.445 110 142.507 125.469Z" fill="#44546A" transform="matrix(1 -1.22465e-16 -1.22465e-16 -1 1603 451)"/><path d="M2338 335.844 2396.93 335.844C2399.78 335.844 2402.09 338.152 2402.09 341L2402.09 454.681 2396.93 449.525 2473.39 449.525 2473.39 459.837 2396.93 459.837C2394.08 459.837 2391.77 457.529 2391.77 454.681L2391.77 341 2396.93 346.156 2338 346.156ZM2473.39 454.681 2463.08 439.212 2494.01 454.681 2463.08 470.15Z" fill="#44546A"/><path d="M2934 1557.84 2988.24 1557.84C2991.09 1557.84 2993.4 1560.15 2993.4 1563L2993.4 1563.22 2988.24 1558.06 3021.86 1558.06 3021.86 1568.37 2988.24 1568.37C2985.39 1568.37 2983.09 1566.06 2983.09 1563.22L2983.09 1563 2988.24 1568.16 2934 1568.16ZM3021.86 1563.22 3011.55 1547.75 3042.48 1563.22 3011.55 1578.69Z" fill="#44546A"/></g></svg>