<svg id="Layer_1" data-name="Layer 1" xmlns="http://www.w3.org/2000/svg" xmlns:xlink="http://www.w3.org/1999/xlink" viewBox="0 0 191.94 187.04"><defs><style>.cls-1{fill:none;}.cls-2{clip-path:url(#clip-path);}.cls-3{fill:#41beac;}.cls-4{fill:#4899d4;}.cls-5{fill:#8a8890;}.cls-6{fill:#aeadb2;}.cls-7{fill:#797883;}</style><clipPath id="clip-path"><polyline class="cls-1" points="2.48 187.04 191.71 187.04 190.29 2.55 1.01 2.55"/></clipPath></defs><g class="cls-2"><path class="cls-3" d="M88.32,28a74.11,74.11,0,1,0,73.8,74.11A73.92,73.92,0,0,0,88.32,28Z"/><path class="cls-4" d="M88,176.35A74.47,74.47,0,0,1,88,27.41a72.25,72.25,0,0,1,30,6.35l-7,5.7a4.57,4.57,0,0,1-2.84,1.09H104a3.67,3.67,0,0,1-1.53-.22S91.73,34,85.6,34c-5.91,0-15.54,3.73-19.7,6.57-6.35,4.17.44,6.14,2,6.57h6.57a4.29,4.29,0,0,0,3.72-2l2.41-3.72a2,2,0,0,1,1.75-.88h3.5l-4.6,7.67a6.53,6.53,0,0,1-5.69,3.29H69.62a4.42,4.42,0,0,0-2.41.65l-5.47,3.73H57.36a2.07,2.07,0,0,0-2.19,2.19v2.19A2.07,2.07,0,0,1,53,62.46H51a4.29,4.29,0,0,0-3.72,2l-2.62,4.16a3.13,3.13,0,0,0-.44,1.31v1.32a2.07,2.07,0,0,0,2.19,2.19H54.3a2,2,0,0,0,1.53-.66L62.62,66a4.29,4.29,0,0,1,3.06-1.31h.88a2.13,2.13,0,0,1,2.19,1.75l1.31,5.47a2.36,2.36,0,0,0,2.19,1.76h.44a2.07,2.07,0,0,0,2.18-2.19v-5.7a2,2,0,0,1,.66-1.53l1.53-1.75,1.75,5a2.11,2.11,0,0,0,2,1.54h2a2,2,0,0,0,1.54-.66l.87-.88a2,2,0,0,1,1.54-.65H88A2.07,2.07,0,0,1,90.2,69v2.19a2.07,2.07,0,0,0,2.19,2.19h7.88a2,2,0,0,1,2,2.85l-.66,2a2.13,2.13,0,0,1-2.41,1.53L88.67,78H87.13l-9,1.75a4.54,4.54,0,0,1-2.41-.22C72.9,78.45,65,75.6,61.74,75.6c-26.05,0-26.27,17.52-26.27,24.09,0,8.76,5,15.33,13.14,15.33,9.63,0,21.89-.44,21.89,17.52v13.58a10.33,10.33,0,0,0,2.62,7l6.35,7.67a6.56,6.56,0,0,0,5,2.41h5.25a6,6,0,0,0,4.6-2L99.61,156a12.66,12.66,0,0,0,2.41-3.5l4.38-9a13,13,0,0,0,1.09-4.82V128.6a6,6,0,0,1,2-4.6l11.6-11.61a2.18,2.18,0,0,0-.22-3.28s-13.13-7.45-20.35-21.47a2.24,2.24,0,0,1,2-3.28h.87l12.48,16.21a4.5,4.5,0,0,0,6.35.65l7.22-6.13a2.14,2.14,0,0,0-.22-3.5l-6.56-4a2.38,2.38,0,0,1-.88-2.84l.22-.44a2.21,2.21,0,0,1,3.06-.88l7.88,4.82a4.24,4.24,0,0,0,2.19.66h2.41a4.32,4.32,0,0,1,3.94,2.63L147.77,106a4.32,4.32,0,0,0,3.94,2.63h0a3.83,3.83,0,0,0,3.72-3.72V98.81a2,2,0,0,1,.88-1.75l5-3.94a59.47,59.47,0,0,1,.66,9c.44,40.74-33.06,74.25-74,74.25Z"/><path class="cls-3" d="M48.61,55.89v2.19H50.8A2.07,2.07,0,0,0,53,55.89V53.7h2.19V50.19a2,2,0,0,0-.65-1.53l-2.19-2.19a2.12,2.12,0,0,0-3.07,0L45.76,50a2.12,2.12,0,0,0,0,3.07l2.85,2.85Z"/></g><path class="cls-5" d="M163.89,38.19l7.35-7.35L163.42,23l-7.35,7.35"/><path class="cls-6" d="M191.71,42.94l-6.88-6.88L169.11,51.78,176,58.66Z"/><path class="cls-6" d="M158.2,9.43l-6.88-6.88L135.6,18.27l6.88,6.88Z"/><path class="cls-7" d="M162.16,24.28,145.88,8,141,12.83l16.28,16.28Z"/><path class="cls-7" d="M186.27,48.38,170,32.1l-4.84,4.83,16.29,16.29Z"/><path class="cls-7" d="M132.62,11.8c-55-16.33-97.21-3.71-128,35.5L3,41.41C35.94,2.3,78.88-8,131,5.92Z"/><path class="cls-6" d="M116.77,20c-34.21-8.64-65.35-.9-93,25l-1.58-5.9c27.76-25.36,59.24-31.86,93-25Z"/><path class="cls-7" d="M137.29,184c45-35.62,58.88-77.44,44.46-125.14l5.76,2C200.6,110.32,184.41,151.41,143,186Z"/><path class="cls-6" d="M139.69,166.31c26.71-23,38.27-53,32.93-90.52l5.74,2.09c4.81,37.29-8,66.79-32.93,90.51Z"/></svg>