<svg width="402" height="104" xmlns="http://www.w3.org/2000/svg" xmlns:xlink="http://www.w3.org/1999/xlink" overflow="hidden"><defs><clipPath id="clip0"><rect x="2021" y="697" width="402" height="104"/></clipPath></defs><g clip-path="url(#clip0)" transform="translate(-2021 -697)"><path d="M2111.84 751.429 2122.45 751.429 2124.89 783.405C2128.69 777.191 2131.44 772.463 2133.13 769.22 2134.82 765.978 2136.07 763.175 2136.88 760.811 2137.69 758.447 2138.31 755.982 2138.75 753.415L2139.19 751.429 2145.03 751.429 2147.99 783.446C2152.2 777.448 2155.41 772.213 2157.61 767.741 2159.81 763.27 2160.91 759.629 2160.91 756.819 2160.91 755.549 2160.64 754.685 2160.1 754.225 2159.56 753.766 2158.64 753.496 2157.35 753.415L2157.75 751.429 2168.21 751.429 2169.3 753.455C2168.36 755.86 2167.6 757.711 2167.03 759.008 2166.47 760.304 2165.72 761.865 2164.8 763.688 2163.89 765.512 2162.91 767.329 2161.89 769.139 2160.86 770.95 2159.65 772.942 2158.26 775.117 2156.87 777.292 2155.31 779.656 2153.58 782.209 2151.85 784.763 2149.81 787.633 2147.46 790.822L2142.64 790.822 2140.97 773.881C2140.84 772.557 2140.7 770.828 2140.55 768.694 2140.4 766.559 2140.3 764.911 2140.24 763.749L2139.8 763.709C2138.34 767.302 2136.35 771.301 2133.84 775.705 2131.33 780.109 2128.22 785.148 2124.52 790.822L2119.09 790.822 2116.01 760.304C2115.85 758.737 2115.64 757.468 2115.4 756.495 2115.16 755.522 2114.75 754.793 2114.19 754.306 2113.62 753.82 2112.69 753.523 2111.39 753.415ZM2091.08 742.756 2076.65 768.288 2092.5 768.288 2091.81 755.239C2091.73 753.455 2091.66 751.226 2091.61 748.552 2091.55 745.877 2091.53 743.945 2091.53 742.756ZM2091.32 734.205 2097.44 734.205 2100.36 779.393C2100.5 781.527 2100.74 783.196 2101.09 784.398 2101.44 785.6 2101.92 786.492 2102.53 787.073 2103.14 787.654 2104.02 788.025 2105.19 788.187L2104.74 790.173 2087.88 790.173 2088.33 788.187C2089.92 788.052 2091.11 787.431 2091.89 786.323 2092.68 785.215 2093.07 783.27 2093.07 780.487 2093.07 779.433 2093.03 778.285 2092.95 777.042L2092.66 771.814 2074.83 771.814 2072.6 775.786C2071.55 777.65 2070.78 779.251 2070.29 780.588 2069.8 781.926 2069.56 783.108 2069.56 784.135 2069.56 786.404 2070.93 787.755 2073.66 788.187L2073.21 790.173 2056.63 790.173 2057.08 788.187C2057.92 788.079 2058.71 787.748 2059.45 787.194 2060.19 786.64 2060.98 785.803 2061.82 784.682 2062.66 783.56 2063.83 781.703 2065.35 779.109Z" fill-rule="evenodd"/><text fill="#000000" fill-opacity="0" font-family="Arial,Arial_MSFontService,sans-serif" font-size="56.6167" x="2056.63" y="783.744">𝐴𝑤</text><path d="M2201.39 772.179 2251.32 772.179 2251.32 777.569 2201.39 777.569ZM2201.39 755.36 2251.32 755.36 2251.32 760.75 2201.39 760.75Z" fill-rule="evenodd"/><text fill="#000000" fill-opacity="0" font-family="Arial,Arial_MSFontService,sans-serif" font-size="22.209" x="2201.39" y="774.793">=</text><path d="M2304.5 732.178C2306.58 732.178 2308.17 732.665 2309.28 733.637 2310.39 734.61 2311.17 736.143 2311.63 738.237 2312.09 740.331 2312.32 743.391 2312.32 747.417 2312.32 748.741 2312.29 750.659 2312.24 753.172L2312.07 759.575C2311.86 765.654 2311.75 770.436 2311.75 773.922 2311.75 776.732 2311.81 778.927 2311.93 780.507 2312.05 782.088 2312.25 783.283 2312.52 784.094 2312.79 784.905 2313.13 785.452 2313.53 785.735 2313.94 786.019 2314.44 786.161 2315.03 786.161 2315.74 786.161 2316.49 785.924 2317.28 785.452 2318.08 784.979 2319.06 784.121 2320.22 782.878L2322.49 785.148C2320.73 786.931 2319 788.322 2317.28 789.322 2315.57 790.322 2314.05 790.822 2312.72 790.822 2311.18 790.822 2310.01 790.511 2309.2 789.889 2308.39 789.268 2307.8 788.241 2307.43 786.809 2307.07 785.377 2306.89 783.27 2306.89 780.487 2306.89 776.65 2307.17 770.369 2307.74 761.642L2307.33 761.642C2299.23 773.53 2293.11 783.04 2288.97 790.173L2280.75 790.173 2281.15 788.187C2282.4 786.674 2283.64 785.1 2284.88 783.466 2286.12 781.831 2287.64 779.758 2289.42 777.245L2307.58 751.469C2307.55 748.714 2307.43 746.404 2307.21 744.539 2307 742.675 2306.7 741.196 2306.32 740.102 2305.94 739.007 2305.44 738.204 2304.82 737.69 2304.2 737.177 2303.35 736.92 2302.27 736.92 2301.38 736.92 2300.47 737.177 2299.55 737.69 2298.63 738.204 2297.3 739.257 2295.54 740.851L2293.43 738.501C2295.92 736.042 2297.98 734.374 2299.61 733.496 2301.25 732.617 2302.88 732.178 2304.5 732.178Z" fill-rule="evenodd"/><text fill="#000000" fill-opacity="0" font-family="Arial,Arial_MSFontService,sans-serif" font-size="58.6431" x="2280.75" y="783.491">𝜆</text><path d="M2325.78 751.429 2336.4 751.429 2338.83 783.405C2342.64 777.191 2345.39 772.463 2347.08 769.22 2348.77 765.978 2350.02 763.175 2350.83 760.811 2351.64 758.447 2352.26 755.982 2352.69 753.415L2353.14 751.429 2358.97 751.429 2361.93 783.446C2366.15 777.448 2369.36 772.213 2371.56 767.741 2373.76 763.27 2374.86 759.629 2374.86 756.819 2374.86 755.549 2374.59 754.685 2374.05 754.225 2373.51 753.766 2372.59 753.496 2371.3 753.415L2371.7 751.429 2382.16 751.429 2383.25 753.455C2382.31 755.86 2381.55 757.711 2380.98 759.008 2380.41 760.304 2379.67 761.865 2378.75 763.688 2377.83 765.512 2376.86 767.329 2375.83 769.139 2374.81 770.95 2373.6 772.942 2372.21 775.117 2370.82 777.292 2369.26 779.656 2367.53 782.209 2365.8 784.763 2363.76 787.633 2361.41 790.822L2356.58 790.822 2354.92 773.881C2354.79 772.557 2354.65 770.828 2354.5 768.694 2354.35 766.559 2354.25 764.911 2354.19 763.749L2353.75 763.709C2352.29 767.302 2350.3 771.301 2347.79 775.705 2345.28 780.109 2342.17 785.148 2338.47 790.822L2333.04 790.822 2329.96 760.304C2329.8 758.737 2329.59 757.468 2329.35 756.495 2329.11 755.522 2328.7 754.793 2328.13 754.306 2327.57 753.82 2326.63 753.523 2325.34 753.415Z" fill-rule="evenodd"/><text fill="#000000" fill-opacity="0" font-family="Arial,Arial_MSFontService,sans-serif" font-size="39.3926" x="2325.34" y="785.897">𝑤</text></g></svg>