<svg width="1528" height="276" xmlns="http://www.w3.org/2000/svg" xmlns:xlink="http://www.w3.org/1999/xlink" overflow="hidden"><defs><clipPath id="clip0"><rect x="476" y="1730" width="1528" height="276"/></clipPath></defs><g clip-path="url(#clip0)" transform="translate(-476 -1730)"><path d="M613.365 1842.35 615.432 1845.11C611.326 1848.46 608.11 1852.25 605.787 1856.48 603.463 1860.71 602.302 1865.08 602.302 1869.59 602.302 1872.69 602.889 1875.08 604.064 1876.74 605.24 1878.4 606.895 1879.23 609.029 1879.23 611.028 1879.23 612.731 1878.42 614.135 1876.8 615.54 1875.18 616.581 1872.8 617.256 1869.67L620.579 1854.39 627.388 1854.39 624.308 1868.33C623.957 1869.93 623.781 1871.41 623.781 1872.79 623.781 1874.95 624.247 1876.56 625.179 1877.63 626.111 1878.7 627.428 1879.23 629.131 1879.23 631.373 1879.23 633.359 1878.42 635.088 1876.78 636.817 1875.15 638.161 1872.76 639.121 1869.63 640.08 1866.49 640.559 1862.85 640.559 1858.69 640.559 1856.23 640.222 1853.71 639.546 1851.13 638.871 1848.55 637.925 1846.41 636.709 1844.7L639.465 1842.35C642.167 1844.92 644.2 1847.74 645.564 1850.82 646.929 1853.9 647.611 1857.21 647.611 1860.75 647.611 1864.72 646.828 1868.39 645.26 1871.74 643.693 1875.09 641.471 1877.71 638.594 1879.6 635.716 1881.49 632.427 1882.43 628.725 1882.43 624.24 1882.43 621.174 1880.22 619.526 1875.79L619.364 1875.79C618.418 1877.27 617.425 1878.47 616.385 1879.37 615.345 1880.28 614.041 1881.02 612.474 1881.58 610.907 1882.15 609.043 1882.43 606.881 1882.43 604.801 1882.43 602.889 1881.97 601.146 1881.04 599.404 1880.1 597.992 1878.65 596.911 1876.66 595.831 1874.67 595.29 1872.24 595.29 1869.34 595.29 1864.43 596.871 1859.6 600.032 1854.88 603.193 1850.15 607.638 1845.97 613.365 1842.35Z" fill-rule="evenodd"/><text fill="#000000" fill-opacity="0" font-family="Arial,Arial_MSFontService,sans-serif" font-size="40.0815" x="595.29" y="1877.42">𝜔</text><path d="M665.284 1868.52 667.34 1868.52 661.144 1897.71C660.648 1899.97 660.008 1901.91 659.223 1903.53 658.439 1905.15 657.481 1906.47 656.349 1907.51 655.217 1908.54 653.897 1909.3 652.387 1909.78 650.878 1910.27 649.151 1910.51 647.205 1910.51 646.689 1910.51 646.192 1910.49 645.716 1910.44 645.239 1910.39 644.812 1910.32 644.435 1910.22L645.179 1907.09C645.418 1907.19 645.735 1907.25 646.133 1907.28 646.53 1907.31 646.986 1907.33 647.503 1907.33 648.476 1907.33 649.344 1907.2 650.109 1906.94 650.873 1906.68 651.558 1906.22 652.164 1905.54 652.77 1904.86 653.316 1903.94 653.802 1902.76 654.289 1901.57 654.74 1900.06 655.157 1898.21 655.852 1895 656.518 1891.98 657.153 1889.16 657.789 1886.34 658.31 1883.98 658.717 1882.07 659.124 1880.16 659.447 1878.64 659.685 1877.51 659.923 1876.38 660.097 1875.51 660.206 1874.89 660.315 1874.28 660.38 1873.84 660.4 1873.58 660.419 1873.32 660.429 1873.11 660.429 1872.96 660.429 1872.26 660.166 1871.75 659.64 1871.42 659.114 1871.09 658.186 1870.91 656.855 1870.87L657.302 1868.84ZM664.182 1856.51 670.169 1856.51 668.71 1862.92 662.723 1862.92Z" fill-rule="evenodd"/><text fill="#000000" fill-opacity="0" font-family="Arial,Arial_MSFontService,sans-serif" font-size="54.0005" x="644.435" y="1903.76">𝑗</text><path d="M706.195 1863.79 756.125 1863.79 756.125 1869.18 706.195 1869.18ZM706.195 1846.97 756.125 1846.97 756.125 1852.36 706.195 1852.36Z" fill-rule="evenodd"/><text fill="#000000" fill-opacity="0" font-family="Arial,Arial_MSFontService,sans-serif" font-size="22.209" x="706.195" y="1866.41">=</text><path d="M1173.64 1807.97C1182.07 1810.18 1188.57 1815.93 1193.14 1825.19 1197.7 1834.46 1199.98 1845.43 1199.98 1858.1 1199.98 1870.77 1197.7 1881.74 1193.14 1891.01 1188.57 1900.28 1182.07 1906.02 1173.64 1908.23L1172.63 1904.91C1179.17 1902.45 1184.12 1897.09 1187.48 1888.84 1190.85 1880.59 1192.53 1870.35 1192.53 1858.14 1192.53 1845.9 1190.85 1835.65 1187.48 1827.38 1184.12 1819.11 1179.17 1813.75 1172.63 1811.29ZM818.586 1807.97 819.599 1811.29C813.061 1813.75 808.11 1819.11 804.746 1827.38 801.382 1835.65 799.7 1845.9 799.7 1858.14 799.7 1870.35 801.382 1880.59 804.746 1888.84 808.11 1897.09 813.061 1902.45 819.599 1904.91L818.586 1908.23C810.156 1906.02 803.659 1900.28 799.093 1891.01 794.526 1881.74 792.243 1870.77 792.243 1858.1 792.243 1845.43 794.526 1834.46 799.093 1825.19 803.659 1815.93 810.156 1810.18 818.586 1807.97Z" fill-rule="evenodd"/><path d="M834.771 1842.35C836.473 1842.35 837.817 1842.91 838.803 1844.03 839.789 1845.16 840.283 1846.62 840.283 1848.43 840.283 1849.86 839.958 1851.46 839.31 1853.21L839.796 1853.38C842.444 1849.65 844.964 1846.89 847.355 1845.09 849.746 1843.29 852.211 1842.39 854.751 1842.39 857.264 1842.39 859.195 1843.12 860.546 1844.56 861.897 1846.01 862.573 1848.01 862.573 1850.58 862.573 1852.28 862.181 1854.7 861.397 1857.83L858.763 1868.45C858.034 1871.4 857.669 1873.48 857.669 1874.69 857.669 1875.77 857.844 1876.56 858.196 1877.04 858.547 1877.53 859.101 1877.77 859.857 1877.77 860.668 1877.77 861.532 1877.44 862.451 1876.78 863.37 1876.12 864.667 1874.86 866.342 1872.99L868.652 1875.26C866.328 1877.75 864.302 1879.56 862.573 1880.71 860.843 1881.86 858.871 1882.43 856.656 1882.43 854.899 1882.43 853.495 1881.81 852.441 1880.55 851.387 1879.29 850.86 1877.69 850.86 1875.75 850.86 1873.99 851.306 1871.41 852.198 1868.01L853.981 1861C854.629 1858.46 855.055 1856.58 855.257 1855.36 855.46 1854.15 855.561 1853.16 855.561 1852.4 855.561 1850.54 855.251 1849.2 854.629 1848.37 854.008 1847.55 852.995 1847.14 851.59 1847.14 850.455 1847.14 849.232 1847.59 847.922 1848.49 846.612 1849.4 845.22 1850.76 843.748 1852.59 842.275 1854.41 841.093 1856.18 840.202 1857.9 839.31 1859.61 838.58 1861.73 838.013 1864.24L834.163 1881.79 827.152 1881.79 833.069 1856.09C833.663 1853.5 833.96 1851.5 833.96 1850.09 833.96 1849.01 833.785 1848.23 833.433 1847.74 833.082 1847.26 832.528 1847.01 831.772 1847.01 830.934 1847.01 830.049 1847.36 829.117 1848.05 828.185 1848.74 826.909 1849.99 825.287 1851.8L822.977 1849.53C825.463 1846.93 827.53 1845.09 829.178 1843.99 830.826 1842.9 832.69 1842.35 834.771 1842.35Z" fill-rule="evenodd"/><text fill="#000000" fill-opacity="0" font-family="Arial,Arial_MSFontService,sans-serif" font-size="40.0815" x="822.977" y="1877.42">𝑛</text><path d="M895.35 1855.36 945.279 1855.36 945.279 1860.75 895.35 1860.75Z" fill-rule="evenodd"/><text fill="#000000" fill-opacity="0" font-family="Arial,Arial_MSFontService,sans-serif" font-size="5.39014" x="895.35" y="1860.08">−</text><path d="M982.245 1842.35C983.947 1842.35 985.291 1842.91 986.277 1844.03 987.263 1845.16 987.757 1846.62 987.757 1848.43 987.757 1849.78 987.5 1851.17 986.987 1852.61L987.513 1852.81C990.161 1849.22 992.708 1846.58 995.153 1844.91 997.598 1843.23 1000.08 1842.39 1002.59 1842.39 1004.56 1842.39 1006.21 1842.54 1007.53 1842.84L1005.59 1851.92 1001.41 1851.92C1001.25 1850.78 1001.02 1849.9 1000.73 1849.28 1000.43 1848.66 1000.08 1848.23 999.672 1847.99 999.266 1847.74 998.753 1847.62 998.132 1847.62 997.159 1847.62 996.098 1848.04 994.95 1848.88 993.802 1849.72 992.512 1851.03 991.08 1852.81 989.648 1854.59 988.506 1856.31 987.655 1857.96 986.804 1859.6 986.095 1861.7 985.528 1864.24L981.677 1881.79 974.666 1881.79 980.543 1856.09C980.921 1854.47 981.164 1853.21 981.272 1852.32 981.38 1851.43 981.434 1850.69 981.434 1850.09 981.434 1849.01 981.259 1848.23 980.907 1847.74 980.556 1847.26 980.002 1847.01 979.246 1847.01 978.408 1847.01 977.523 1847.36 976.591 1848.05 975.659 1848.74 974.383 1849.99 972.761 1851.8L970.451 1849.53C972.937 1846.93 975.018 1845.09 976.693 1843.99 978.368 1842.9 980.219 1842.35 982.245 1842.35Z" fill-rule="evenodd"/><text fill="#000000" fill-opacity="0" font-family="Arial,Arial_MSFontService,sans-serif" font-size="39.4331" x="970.451" y="1876.86">𝑟</text><path d="M1013.66 1868.52 1015.72 1868.52 1009.52 1897.71C1009.03 1899.97 1008.39 1901.91 1007.6 1903.53 1006.82 1905.15 1005.86 1906.47 1004.73 1907.51 1003.6 1908.54 1002.28 1909.3 1000.77 1909.78 999.258 1910.27 997.53 1910.51 995.584 1910.51 995.068 1910.51 994.571 1910.49 994.095 1910.44 993.618 1910.39 993.191 1910.32 992.814 1910.22L993.559 1907.09C993.797 1907.19 994.115 1907.25 994.512 1907.28 994.909 1907.31 995.366 1907.33 995.882 1907.33 996.855 1907.33 997.724 1907.2 998.488 1906.94 999.253 1906.68 999.938 1906.22 1000.54 1905.54 1001.15 1904.86 1001.69 1903.94 1002.18 1902.76 1002.67 1901.57 1003.12 1900.06 1003.54 1898.21 1004.23 1895 1004.9 1891.98 1005.53 1889.16 1006.17 1886.34 1006.69 1883.98 1007.1 1882.07 1007.5 1880.16 1007.83 1878.64 1008.06 1877.51 1008.3 1876.38 1008.48 1875.51 1008.59 1874.89 1008.69 1874.28 1008.76 1873.84 1008.78 1873.58 1008.8 1873.32 1008.81 1873.11 1008.81 1872.96 1008.81 1872.26 1008.55 1871.75 1008.02 1871.42 1007.49 1871.09 1006.56 1870.91 1005.23 1870.87L1005.68 1868.84ZM1012.56 1856.51 1018.55 1856.51 1017.09 1862.92 1011.1 1862.92Z" fill-rule="evenodd"/><text fill="#000000" fill-opacity="0" font-family="Arial,Arial_MSFontService,sans-serif" font-size="54.0005" x="992.814" y="1903.76">𝑗</text><path d="M1072.08 1832.02 1077.83 1832.02 1077.83 1855.36 1099.92 1855.36 1099.92 1860.75 1077.83 1860.75 1077.83 1884.1 1072.08 1884.1 1072.08 1860.75 1049.99 1860.75 1049.99 1855.36 1072.08 1855.36Z" fill-rule="evenodd"/><text fill="#000000" fill-opacity="0" font-family="Arial,Arial_MSFontService,sans-serif" font-size="52.0776" x="1049.99" y="1877.59">+</text><path d="M1150.34 1825.82 1152.57 1825.82C1152.41 1828.41 1152.33 1832.01 1152.33 1836.6L1152.33 1871.21C1152.33 1872.78 1152.42 1873.96 1152.59 1874.75 1152.77 1875.55 1153.08 1876.2 1153.52 1876.7 1153.97 1877.2 1154.61 1877.59 1155.45 1877.88 1156.29 1878.16 1157.34 1878.38 1158.61 1878.52 1159.88 1878.67 1161.55 1878.77 1163.63 1878.83L1163.63 1881.79 1133.68 1881.79 1133.68 1878.83C1136.68 1878.69 1138.83 1878.51 1140.11 1878.28 1141.39 1878.05 1142.37 1877.71 1143.05 1877.25 1143.72 1876.79 1144.22 1876.14 1144.53 1875.3 1144.84 1874.46 1144.99 1873.1 1144.99 1871.21L1144.99 1838.34C1144.99 1837.26 1144.8 1836.47 1144.42 1835.97 1144.05 1835.47 1143.49 1835.22 1142.76 1835.22 1141.9 1835.22 1140.67 1835.67 1139.08 1836.56 1137.48 1837.45 1135.51 1838.68 1133.16 1840.25L1131.37 1837.12Z" fill-rule="evenodd"/><text fill="#000000" fill-opacity="0" font-family="Arial,Arial_MSFontService,sans-serif" font-size="55.9683" x="1131.37" y="1874.79">1</text><path d="M1231.86 1800.53C1230.65 1800.53 1229.53 1800.89 1228.51 1801.61 1227.49 1802.34 1226.39 1803.38 1225.22 1804.73 1224.68 1805.36 1224.19 1805.99 1223.73 1806.6 1223.27 1807.22 1222.86 1807.89 1222.49 1808.61 1222.13 1809.34 1221.8 1810.14 1221.51 1811.03 1221.22 1811.91 1220.97 1812.93 1220.75 1814.08 1220.47 1815.45 1220.26 1816.6 1220.1 1817.53 1219.94 1818.47 1219.86 1819.35 1219.86 1820.19 1219.86 1821.79 1220.23 1822.93 1220.98 1823.6 1221.72 1824.26 1222.92 1824.59 1224.56 1824.59 1225.72 1824.59 1226.79 1824.34 1227.8 1823.83 1228.8 1823.33 1229.71 1822.64 1230.52 1821.76 1231.34 1820.89 1232.06 1819.87 1232.7 1818.71 1233.33 1817.55 1233.86 1816.31 1234.29 1814.99 1234.72 1813.67 1235.04 1812.31 1235.27 1810.92 1235.5 1809.53 1235.61 1808.18 1235.61 1806.87 1235.61 1804.75 1235.32 1803.16 1234.74 1802.11 1234.15 1801.05 1233.19 1800.53 1231.86 1800.53ZM1218.04 1796.54C1219.49 1796.54 1220.62 1797.02 1221.42 1797.98 1222.23 1798.94 1222.63 1800.21 1222.63 1801.78 1222.63 1802.23 1222.59 1802.67 1222.52 1803.09 1222.45 1803.51 1222.33 1803.92 1222.15 1804.34L1222.57 1804.55C1224.51 1801.83 1226.43 1799.81 1228.3 1798.5 1230.18 1797.19 1232.15 1796.54 1234.21 1796.54 1236.58 1796.54 1238.39 1797.39 1239.65 1799.1 1240.91 1800.81 1241.54 1803.3 1241.54 1806.57 1241.54 1809.43 1241.1 1812.13 1240.22 1814.66 1239.33 1817.19 1238.14 1819.41 1236.63 1821.32 1235.12 1823.22 1233.37 1824.73 1231.37 1825.83 1229.37 1826.93 1227.26 1827.48 1225.04 1827.48 1223.49 1827.48 1222.15 1827.33 1221 1827.02 1219.86 1826.71 1218.91 1826.34 1218.16 1825.9 1217.98 1826.68 1217.79 1827.48 1217.58 1828.32 1217.37 1829.15 1217.17 1829.95 1216.98 1830.73 1216.8 1831.5 1216.64 1832.22 1216.52 1832.87 1216.4 1833.53 1216.34 1834.06 1216.34 1834.45 1216.34 1834.81 1216.4 1835.11 1216.51 1835.35 1216.62 1835.58 1216.82 1835.78 1217.1 1835.94 1217.39 1836.1 1217.77 1836.22 1218.25 1836.31 1218.73 1836.4 1219.32 1836.48 1220.04 1836.54L1219.95 1838.5 1209.46 1838.5 1216.73 1807.47C1216.97 1806.37 1217.14 1805.46 1217.24 1804.73 1217.34 1803.99 1217.39 1803.34 1217.39 1802.76 1217.39 1801.31 1216.8 1800.59 1215.63 1800.59 1215.27 1800.59 1214.91 1800.66 1214.56 1800.81 1214.2 1800.96 1213.82 1801.18 1213.41 1801.48 1213 1801.78 1212.56 1802.16 1212.07 1802.61 1211.58 1803.07 1211.04 1803.6 1210.45 1804.22L1208.39 1802.28C1209.38 1801.29 1210.29 1800.43 1211.12 1799.71 1211.94 1798.98 1212.73 1798.39 1213.5 1797.92 1214.26 1797.45 1215.01 1797.11 1215.73 1796.88 1216.46 1796.65 1217.23 1796.54 1218.04 1796.54Z" fill-rule="evenodd"/><text fill="#000000" fill-opacity="0" font-family="Arial,Arial_MSFontService,sans-serif" font-size="41.9673" x="1208.39" y="1833.26">𝑝</text><path d="M1318.07 1778.87 1415.94 1778.87 1415.94 1802.86 1410.59 1802.86C1409.97 1797.11 1408.72 1792.55 1406.82 1789.2 1404.93 1785.85 1402.07 1784.18 1398.23 1784.18L1334.28 1784.18 1382.63 1849.83 1382.63 1854.74 1330.43 1925.58 1400.75 1925.58C1403.85 1925.58 1406.23 1924.48 1407.88 1922.3 1409.53 1920.11 1410.95 1915.22 1412.13 1907.62L1418.13 1907.62 1416.07 1937.33 1316.41 1937.33 1316.41 1933.32 1373.19 1856.36 1318.07 1782.72Z" fill-rule="evenodd"/><text fill="#000000" fill-opacity="0" font-family="Arial,Arial_MSFontService,sans-serif" font-size="158.462" x="1316.41" y="1917.52">෍</text><path d="M1813.41 1807.97C1821.84 1810.18 1828.33 1815.93 1832.9 1825.19 1837.47 1834.46 1839.75 1845.43 1839.75 1858.1 1839.75 1870.77 1837.47 1881.74 1832.9 1891.01 1828.33 1900.28 1821.84 1906.02 1813.41 1908.23L1812.39 1904.91C1818.93 1902.45 1823.88 1897.09 1827.25 1888.84 1830.61 1880.59 1832.29 1870.35 1832.29 1858.14 1832.29 1845.9 1830.61 1835.65 1827.25 1827.38 1823.88 1819.11 1818.93 1813.75 1812.39 1811.29ZM1458.35 1807.97 1459.36 1811.29C1452.83 1813.75 1447.87 1819.11 1444.51 1827.38 1441.15 1835.65 1439.46 1845.9 1439.46 1858.14 1439.46 1870.35 1441.15 1880.59 1444.51 1888.84 1447.87 1897.09 1452.83 1902.45 1459.36 1904.91L1458.35 1908.23C1449.92 1906.02 1443.42 1900.28 1438.86 1891.01 1434.29 1881.74 1432.01 1870.77 1432.01 1858.1 1432.01 1845.43 1434.29 1834.46 1438.86 1825.19 1443.42 1815.93 1449.92 1810.18 1458.35 1807.97Z" fill-rule="evenodd"/><path d="M1474.54 1842.35C1476.24 1842.35 1477.58 1842.91 1478.57 1844.03 1479.55 1845.16 1480.05 1846.62 1480.05 1848.43 1480.05 1849.86 1479.72 1851.46 1479.07 1853.21L1479.56 1853.38C1482.21 1849.65 1484.73 1846.89 1487.12 1845.09 1489.51 1843.29 1491.98 1842.39 1494.52 1842.39 1497.03 1842.39 1498.96 1843.12 1500.31 1844.56 1501.66 1846.01 1502.34 1848.01 1502.34 1850.58 1502.34 1852.28 1501.95 1854.7 1501.16 1857.83L1498.53 1868.45C1497.8 1871.4 1497.43 1873.48 1497.43 1874.69 1497.43 1875.77 1497.61 1876.56 1497.96 1877.04 1498.31 1877.53 1498.87 1877.77 1499.62 1877.77 1500.43 1877.77 1501.3 1877.44 1502.22 1876.78 1503.13 1876.12 1504.43 1874.86 1506.11 1872.99L1508.42 1875.26C1506.09 1877.75 1504.07 1879.56 1502.34 1880.71 1500.61 1881.86 1498.64 1882.43 1496.42 1882.43 1494.66 1882.43 1493.26 1881.81 1492.21 1880.55 1491.15 1879.29 1490.62 1877.69 1490.62 1875.75 1490.62 1873.99 1491.07 1871.41 1491.96 1868.01L1493.75 1861C1494.39 1858.46 1494.82 1856.58 1495.02 1855.36 1495.22 1854.15 1495.33 1853.16 1495.33 1852.4 1495.33 1850.54 1495.02 1849.2 1494.39 1848.37 1493.77 1847.55 1492.76 1847.14 1491.35 1847.14 1490.22 1847.14 1489 1847.59 1487.69 1848.49 1486.38 1849.4 1484.98 1850.76 1483.51 1852.59 1482.04 1854.41 1480.86 1856.18 1479.97 1857.9 1479.07 1859.61 1478.34 1861.73 1477.78 1864.24L1473.93 1881.79 1466.92 1881.79 1472.83 1856.09C1473.43 1853.5 1473.72 1851.5 1473.72 1850.09 1473.72 1849.01 1473.55 1848.23 1473.2 1847.74 1472.85 1847.26 1472.29 1847.01 1471.54 1847.01 1470.7 1847.01 1469.81 1847.36 1468.88 1848.05 1467.95 1848.74 1466.67 1849.99 1465.05 1851.8L1462.74 1849.53C1465.23 1846.93 1467.29 1845.09 1468.94 1843.99 1470.59 1842.9 1472.45 1842.35 1474.54 1842.35Z" fill-rule="evenodd"/><text fill="#000000" fill-opacity="0" font-family="Arial,Arial_MSFontService,sans-serif" font-size="40.0815" x="1462.74" y="1877.42">𝑛</text><path d="M1535.11 1855.36 1585.04 1855.36 1585.04 1860.75 1535.11 1860.75Z" fill-rule="evenodd"/><text fill="#000000" fill-opacity="0" font-family="Arial,Arial_MSFontService,sans-serif" font-size="5.39014" x="1535.11" y="1860.08">−</text><path d="M1622.01 1842.35C1623.71 1842.35 1625.06 1842.91 1626.04 1844.03 1627.03 1845.16 1627.52 1846.62 1627.52 1848.43 1627.52 1849.78 1627.26 1851.17 1626.75 1852.61L1627.28 1852.81C1629.93 1849.22 1632.47 1846.58 1634.92 1844.91 1637.36 1843.23 1639.84 1842.39 1642.35 1842.39 1644.33 1842.39 1645.97 1842.54 1647.3 1842.84L1645.35 1851.92 1641.18 1851.92C1641.02 1850.78 1640.79 1849.9 1640.49 1849.28 1640.19 1848.66 1639.84 1848.23 1639.44 1847.99 1639.03 1847.74 1638.52 1847.62 1637.9 1847.62 1636.92 1847.62 1635.86 1848.04 1634.71 1848.88 1633.57 1849.72 1632.28 1851.03 1630.84 1852.81 1629.41 1854.59 1628.27 1856.31 1627.42 1857.96 1626.57 1859.6 1625.86 1861.7 1625.29 1864.24L1621.44 1881.79 1614.43 1881.79 1620.31 1856.09C1620.69 1854.47 1620.93 1853.21 1621.04 1852.32 1621.14 1851.43 1621.2 1850.69 1621.2 1850.09 1621.2 1849.01 1621.02 1848.23 1620.67 1847.74 1620.32 1847.26 1619.77 1847.01 1619.01 1847.01 1618.17 1847.01 1617.29 1847.36 1616.36 1848.05 1615.42 1848.74 1614.15 1849.99 1612.53 1851.8L1610.22 1849.53C1612.7 1846.93 1614.78 1845.09 1616.46 1843.99 1618.13 1842.9 1619.98 1842.35 1622.01 1842.35Z" fill-rule="evenodd"/><text fill="#000000" fill-opacity="0" font-family="Arial,Arial_MSFontService,sans-serif" font-size="39.4331" x="1610.22" y="1876.86">𝑟</text><path d="M1653.43 1868.52 1655.48 1868.52 1649.29 1897.71C1648.79 1899.97 1648.15 1901.91 1647.37 1903.53 1646.58 1905.15 1645.62 1906.47 1644.49 1907.51 1643.36 1908.54 1642.04 1909.3 1640.53 1909.78 1639.02 1910.27 1637.29 1910.51 1635.35 1910.51 1634.83 1910.51 1634.34 1910.49 1633.86 1910.44 1633.38 1910.39 1632.96 1910.32 1632.58 1910.22L1633.32 1907.09C1633.56 1907.19 1633.88 1907.25 1634.28 1907.28 1634.67 1907.31 1635.13 1907.33 1635.65 1907.33 1636.62 1907.33 1637.49 1907.2 1638.25 1906.94 1639.02 1906.68 1639.7 1906.22 1640.31 1905.54 1640.91 1904.86 1641.46 1903.94 1641.95 1902.76 1642.43 1901.57 1642.88 1900.06 1643.3 1898.21 1644 1895 1644.66 1891.98 1645.3 1889.16 1645.93 1886.34 1646.45 1883.98 1646.86 1882.07 1647.27 1880.16 1647.59 1878.64 1647.83 1877.51 1648.07 1876.38 1648.24 1875.51 1648.35 1874.89 1648.46 1874.28 1648.52 1873.84 1648.54 1873.58 1648.56 1873.32 1648.57 1873.11 1648.57 1872.96 1648.57 1872.26 1648.31 1871.75 1647.78 1871.42 1647.26 1871.09 1646.33 1870.91 1645 1870.87L1645.45 1868.84ZM1652.33 1856.51 1658.31 1856.51 1656.85 1862.92 1650.87 1862.92Z" fill-rule="evenodd"/><text fill="#000000" fill-opacity="0" font-family="Arial,Arial_MSFontService,sans-serif" font-size="54.0005" x="1632.58" y="1903.76">𝑗</text><path d="M1711.84 1832.02 1717.6 1832.02 1717.6 1855.36 1739.69 1855.36 1739.69 1860.75 1717.6 1860.75 1717.6 1884.1 1711.84 1884.1 1711.84 1860.75 1689.76 1860.75 1689.76 1855.36 1711.84 1855.36Z" fill-rule="evenodd"/><text fill="#000000" fill-opacity="0" font-family="Arial,Arial_MSFontService,sans-serif" font-size="52.0776" x="1689.76" y="1877.59">+</text><path d="M1790.11 1825.82 1792.34 1825.82C1792.17 1828.41 1792.09 1832.01 1792.09 1836.6L1792.09 1871.21C1792.09 1872.78 1792.18 1873.96 1792.36 1874.75 1792.53 1875.55 1792.84 1876.2 1793.29 1876.7 1793.73 1877.2 1794.38 1877.59 1795.21 1877.88 1796.05 1878.16 1797.1 1878.38 1798.37 1878.52 1799.64 1878.67 1801.32 1878.77 1803.4 1878.83L1803.4 1881.79 1773.45 1881.79 1773.45 1878.83C1776.45 1878.69 1778.59 1878.51 1779.87 1878.28 1781.16 1878.05 1782.14 1877.71 1782.81 1877.25 1783.49 1876.79 1783.98 1876.14 1784.29 1875.3 1784.6 1874.46 1784.76 1873.1 1784.76 1871.21L1784.76 1838.34C1784.76 1837.26 1784.57 1836.47 1784.19 1835.97 1783.81 1835.47 1783.26 1835.22 1782.53 1835.22 1781.66 1835.22 1780.43 1835.67 1778.84 1836.56 1777.25 1837.45 1775.27 1838.68 1772.92 1840.25L1771.14 1837.12Z" fill-rule="evenodd"/><text fill="#000000" fill-opacity="0" font-family="Arial,Arial_MSFontService,sans-serif" font-size="55.9683" x="1771.14" y="1874.79">1</text><path d="M1871.63 1800.53C1870.41 1800.53 1869.3 1800.89 1868.28 1801.61 1867.25 1802.34 1866.16 1803.38 1864.98 1804.73 1864.45 1805.36 1863.95 1805.99 1863.49 1806.6 1863.04 1807.22 1862.63 1807.89 1862.26 1808.61 1861.89 1809.34 1861.56 1810.14 1861.28 1811.03 1860.99 1811.91 1860.73 1812.93 1860.52 1814.08 1860.24 1815.45 1860.02 1816.6 1859.86 1817.53 1859.7 1818.47 1859.62 1819.35 1859.62 1820.19 1859.62 1821.79 1859.99 1822.93 1860.74 1823.6 1861.48 1824.26 1862.68 1824.59 1864.33 1824.59 1865.48 1824.59 1866.56 1824.34 1867.56 1823.83 1868.56 1823.33 1869.47 1822.64 1870.29 1821.76 1871.1 1820.89 1871.82 1819.87 1872.46 1818.71 1873.1 1817.55 1873.63 1816.31 1874.05 1814.99 1874.48 1813.67 1874.81 1812.31 1875.04 1810.92 1875.26 1809.53 1875.38 1808.18 1875.38 1806.87 1875.38 1804.75 1875.09 1803.16 1874.5 1802.11 1873.91 1801.05 1872.96 1800.53 1871.63 1800.53ZM1857.81 1796.54C1859.26 1796.54 1860.38 1797.02 1861.19 1797.98 1861.99 1798.94 1862.39 1800.21 1862.39 1801.78 1862.39 1802.23 1862.36 1802.67 1862.29 1803.09 1862.22 1803.51 1862.09 1803.92 1861.92 1804.34L1862.33 1804.55C1864.28 1801.83 1866.19 1799.81 1868.07 1798.5 1869.94 1797.19 1871.91 1796.54 1873.98 1796.54 1876.34 1796.54 1878.15 1797.39 1879.41 1799.1 1880.68 1800.81 1881.31 1803.3 1881.31 1806.57 1881.31 1809.43 1880.86 1812.13 1879.98 1814.66 1879.1 1817.19 1877.9 1819.41 1876.39 1821.32 1874.88 1823.22 1873.13 1824.73 1871.13 1825.83 1869.14 1826.93 1867.03 1827.48 1864.81 1827.48 1863.26 1827.48 1861.91 1827.33 1860.77 1827.02 1859.63 1826.71 1858.68 1826.34 1857.92 1825.9 1857.75 1826.68 1857.55 1827.48 1857.34 1828.32 1857.14 1829.15 1856.94 1829.95 1856.75 1830.73 1856.56 1831.5 1856.41 1832.22 1856.29 1832.87 1856.17 1833.53 1856.11 1834.06 1856.11 1834.45 1856.11 1834.81 1856.16 1835.11 1856.27 1835.35 1856.38 1835.58 1856.58 1835.78 1856.87 1835.94 1857.16 1836.1 1857.54 1836.22 1858.01 1836.31 1858.49 1836.4 1859.09 1836.48 1859.8 1836.54L1859.71 1838.5 1849.23 1838.5 1856.5 1807.47C1856.73 1806.37 1856.9 1805.46 1857 1804.73 1857.1 1803.99 1857.15 1803.34 1857.15 1802.76 1857.15 1801.31 1856.56 1800.59 1855.39 1800.59 1855.04 1800.59 1854.68 1800.66 1854.32 1800.81 1853.96 1800.96 1853.58 1801.18 1853.17 1801.48 1852.77 1801.78 1852.32 1802.16 1851.83 1802.61 1851.35 1803.07 1850.81 1803.6 1850.21 1804.22L1848.16 1802.28C1849.15 1801.29 1850.06 1800.43 1850.88 1799.71 1851.7 1798.98 1852.5 1798.39 1853.26 1797.92 1854.03 1797.45 1854.77 1797.11 1855.5 1796.88 1856.22 1796.65 1856.99 1796.54 1857.81 1796.54Z" fill-rule="evenodd"/><text fill="#000000" fill-opacity="0" font-family="Arial,Arial_MSFontService,sans-serif" font-size="41.9673" x="1848.16" y="1833.26">𝑝</text><path d="M1307.86 1778.87 1313.73 1778.87 1256.99 1937.33 1251.04 1937.33Z" fill-rule="evenodd"/><text fill="#000000" fill-opacity="0" font-family="Arial,Arial_MSFontService,sans-serif" font-size="158.462" x="1251.04" y="1917.52">൘</text></g></svg>