<svg width="1383" height="275" xmlns="http://www.w3.org/2000/svg" xmlns:xlink="http://www.w3.org/1999/xlink" overflow="hidden"><defs><clipPath id="clip0"><rect x="595" y="958" width="1383" height="275"/></clipPath></defs><g clip-path="url(#clip0)" transform="translate(-595 -958)"><path d="M701.513 1069.76 703.58 1072.51C699.473 1075.86 696.258 1079.65 693.934 1083.88 691.611 1088.11 690.449 1092.48 690.449 1096.99 690.449 1100.1 691.036 1102.48 692.212 1104.14 693.387 1105.8 695.042 1106.64 697.176 1106.64 699.176 1106.64 700.878 1105.83 702.283 1104.2 703.688 1102.58 704.728 1100.21 705.403 1097.07L708.727 1081.79 715.535 1081.79 712.455 1095.73C712.104 1097.33 711.928 1098.81 711.928 1100.19 711.928 1102.35 712.394 1103.97 713.326 1105.03 714.259 1106.1 715.576 1106.64 717.278 1106.64 719.52 1106.64 721.506 1105.82 723.235 1104.18 724.965 1102.55 726.309 1100.16 727.268 1097.03 728.227 1093.9 728.707 1090.25 728.707 1086.09 728.707 1083.63 728.369 1081.11 727.693 1078.53 727.018 1075.95 726.072 1073.81 724.856 1072.11L727.612 1069.76C730.314 1072.32 732.347 1075.15 733.712 1078.23 735.076 1081.31 735.758 1084.62 735.758 1088.16 735.758 1092.13 734.975 1095.79 733.408 1099.14 731.841 1102.49 729.618 1105.11 726.741 1107 723.864 1108.89 720.574 1109.84 716.873 1109.84 712.388 1109.84 709.321 1107.62 707.673 1103.19L707.511 1103.19C706.565 1104.68 705.572 1105.87 704.532 1106.78 703.492 1107.68 702.188 1108.42 700.621 1108.99 699.054 1109.55 697.19 1109.84 695.028 1109.84 692.948 1109.84 691.036 1109.37 689.294 1108.44 687.551 1107.51 686.139 1106.05 685.059 1104.06 683.978 1102.08 683.438 1099.64 683.438 1096.75 683.438 1091.83 685.018 1087.01 688.179 1082.28 691.34 1077.55 695.785 1073.38 701.513 1069.76Z" fill-rule="evenodd"/><text fill="#000000" fill-opacity="0" font-family="Arial,Arial_MSFontService,sans-serif" font-size="40.0815" x="683.438" y="1104.83">𝜔</text><path d="M753.432 1095.92 755.487 1095.92 749.292 1125.11C748.795 1127.37 748.155 1129.31 747.37 1130.93 746.586 1132.55 745.628 1133.88 744.496 1134.91 743.364 1135.94 742.044 1136.7 740.535 1137.19 739.026 1137.67 737.298 1137.92 735.352 1137.92 734.836 1137.92 734.339 1137.89 733.863 1137.84 733.386 1137.79 732.959 1137.72 732.582 1137.62L733.327 1134.49C733.565 1134.59 733.883 1134.66 734.28 1134.69 734.677 1134.71 735.134 1134.73 735.65 1134.73 736.623 1134.73 737.492 1134.6 738.256 1134.34 739.021 1134.08 739.706 1133.62 740.311 1132.94 740.917 1132.27 741.463 1131.34 741.949 1130.16 742.436 1128.98 742.888 1127.46 743.305 1125.62 744 1122.4 744.665 1119.38 745.3 1116.56 745.936 1113.74 746.457 1111.38 746.864 1109.47 747.271 1107.57 747.594 1106.05 747.832 1104.91 748.07 1103.78 748.244 1102.91 748.353 1102.29 748.462 1101.68 748.527 1101.24 748.547 1100.98 748.567 1100.73 748.577 1100.52 748.577 1100.36 748.577 1099.66 748.314 1099.15 747.787 1098.82 747.261 1098.5 746.333 1098.31 745.002 1098.27L745.449 1096.25ZM752.33 1083.92 758.316 1083.92 756.857 1090.32 750.87 1090.32Z" fill-rule="evenodd"/><text fill="#000000" fill-opacity="0" font-family="Arial,Arial_MSFontService,sans-serif" font-size="54.0005" x="732.582" y="1131.17">𝑗</text><path d="M794.343 1091.19 844.272 1091.19 844.272 1096.58 794.343 1096.58ZM794.343 1074.38 844.272 1074.38 844.272 1079.77 794.343 1079.77Z" fill-rule="evenodd"/><text fill="#000000" fill-opacity="0" font-family="Arial,Arial_MSFontService,sans-serif" font-size="22.209" x="794.343" y="1093.81">=</text><path d="M1261.79 1035.37C1270.22 1037.59 1276.72 1043.33 1281.28 1052.59 1285.85 1061.86 1288.13 1072.83 1288.13 1085.5 1288.13 1098.17 1285.85 1109.14 1281.28 1118.41 1276.72 1127.68 1270.22 1133.42 1261.79 1135.64L1260.78 1132.31C1267.31 1129.85 1272.27 1124.5 1275.63 1116.24 1278.99 1107.99 1280.67 1097.76 1280.67 1085.54 1280.67 1073.3 1278.99 1063.05 1275.63 1054.78 1272.27 1046.52 1267.31 1041.15 1260.78 1038.69ZM906.733 1035.37 907.747 1038.69C901.208 1041.15 896.257 1046.52 892.893 1054.78 889.53 1063.05 887.848 1073.3 887.848 1085.54 887.848 1097.76 889.53 1107.99 892.893 1116.24 896.257 1124.5 901.208 1129.85 907.747 1132.31L906.733 1135.64C898.304 1133.42 891.806 1127.68 887.24 1118.41 882.674 1109.14 880.391 1098.17 880.391 1085.5 880.391 1072.83 882.674 1061.86 887.24 1052.59 891.806 1043.33 898.304 1037.59 906.733 1035.37Z" fill-rule="evenodd"/><path d="M922.918 1069.76C924.62 1069.76 925.964 1070.32 926.951 1071.44 927.937 1072.56 928.43 1074.02 928.43 1075.83 928.43 1077.27 928.106 1078.86 927.457 1080.62L927.943 1080.78C930.591 1077.05 933.111 1074.29 935.502 1072.49 937.893 1070.69 940.358 1069.8 942.898 1069.8 945.411 1069.8 947.343 1070.52 948.693 1071.96 950.044 1073.41 950.72 1075.42 950.72 1077.98 950.72 1079.68 950.328 1082.1 949.545 1085.24L946.91 1095.86C946.181 1098.8 945.816 1100.88 945.816 1102.1 945.816 1103.18 945.992 1103.96 946.343 1104.45 946.694 1104.93 947.248 1105.18 948.005 1105.18 948.815 1105.18 949.68 1104.85 950.598 1104.18 951.517 1103.52 952.814 1102.26 954.489 1100.39L956.799 1102.66C954.475 1105.15 952.449 1106.97 950.72 1108.11 948.991 1109.26 947.018 1109.84 944.803 1109.84 943.047 1109.84 941.642 1109.21 940.588 1107.95 939.534 1106.7 939.007 1105.1 939.007 1103.15 939.007 1101.39 939.453 1098.81 940.345 1095.41L942.128 1088.4C942.776 1085.86 943.202 1083.98 943.405 1082.77 943.607 1081.55 943.709 1080.56 943.709 1079.81 943.709 1077.94 943.398 1076.6 942.776 1075.77 942.155 1074.95 941.142 1074.54 939.737 1074.54 938.602 1074.54 937.38 1074.99 936.069 1075.9 934.759 1076.8 933.367 1078.17 931.895 1079.99 930.422 1081.81 929.24 1083.58 928.349 1085.3 927.457 1087.01 926.728 1089.13 926.16 1091.64L922.31 1109.19 915.299 1109.19 921.216 1083.49C921.81 1080.9 922.108 1078.9 922.108 1077.5 922.108 1076.42 921.932 1075.63 921.581 1075.15 921.229 1074.66 920.676 1074.42 919.919 1074.42 919.081 1074.42 918.197 1074.76 917.265 1075.45 916.332 1076.14 915.056 1077.39 913.435 1079.2L911.125 1076.93C913.61 1074.34 915.677 1072.49 917.325 1071.4 918.973 1070.3 920.838 1069.76 922.918 1069.76Z" fill-rule="evenodd"/><text fill="#000000" fill-opacity="0" font-family="Arial,Arial_MSFontService,sans-serif" font-size="40.0815" x="911.125" y="1104.83">𝑛</text><path d="M983.497 1082.77 1033.43 1082.77 1033.43 1088.16 983.497 1088.16Z" fill-rule="evenodd"/><text fill="#000000" fill-opacity="0" font-family="Arial,Arial_MSFontService,sans-serif" font-size="5.39014" x="983.497" y="1087.48">−</text><path d="M1070.39 1069.76C1072.09 1069.76 1073.44 1070.32 1074.42 1071.44 1075.41 1072.56 1075.9 1074.02 1075.9 1075.83 1075.9 1077.19 1075.65 1078.58 1075.13 1080.01L1075.66 1080.21C1078.31 1076.62 1080.85 1073.98 1083.3 1072.31 1085.75 1070.63 1088.22 1069.8 1090.74 1069.8 1092.71 1069.8 1094.36 1069.94 1095.68 1070.24L1093.74 1079.32 1089.56 1079.32C1089.4 1078.19 1089.17 1077.31 1088.87 1076.69 1088.58 1076.06 1088.22 1075.63 1087.82 1075.39 1087.41 1075.15 1086.9 1075.02 1086.28 1075.02 1085.31 1075.02 1084.25 1075.44 1083.1 1076.28 1081.95 1077.12 1080.66 1078.43 1079.23 1080.21 1077.8 1081.99 1076.65 1083.71 1075.8 1085.36 1074.95 1087.01 1074.24 1089.1 1073.67 1091.64L1069.82 1109.19 1062.81 1109.19 1068.69 1083.49C1069.07 1081.87 1069.31 1080.62 1069.42 1079.73 1069.53 1078.83 1069.58 1078.09 1069.58 1077.5 1069.58 1076.42 1069.41 1075.63 1069.05 1075.15 1068.7 1074.66 1068.15 1074.42 1067.39 1074.42 1066.56 1074.42 1065.67 1074.76 1064.74 1075.45 1063.81 1076.14 1062.53 1077.39 1060.91 1079.2L1058.6 1076.93C1061.08 1074.34 1063.16 1072.49 1064.84 1071.4 1066.52 1070.3 1068.37 1069.76 1070.39 1069.76Z" fill-rule="evenodd"/><text fill="#000000" fill-opacity="0" font-family="Arial,Arial_MSFontService,sans-serif" font-size="39.4331" x="1058.6" y="1104.26">𝑟</text><path d="M1101.81 1095.92 1103.87 1095.92 1097.67 1125.11C1097.17 1127.37 1096.53 1129.31 1095.75 1130.93 1094.97 1132.55 1094.01 1133.88 1092.88 1134.91 1091.74 1135.94 1090.42 1136.7 1088.91 1137.19 1087.4 1137.67 1085.68 1137.92 1083.73 1137.92 1083.21 1137.92 1082.72 1137.89 1082.24 1137.84 1081.77 1137.79 1081.34 1137.72 1080.96 1137.62L1081.71 1134.49C1081.94 1134.59 1082.26 1134.66 1082.66 1134.69 1083.06 1134.71 1083.51 1134.73 1084.03 1134.73 1085 1134.73 1085.87 1134.6 1086.64 1134.34 1087.4 1134.08 1088.08 1133.62 1088.69 1132.94 1089.3 1132.27 1089.84 1131.34 1090.33 1130.16 1090.82 1128.98 1091.27 1127.46 1091.68 1125.62 1092.38 1122.4 1093.04 1119.38 1093.68 1116.56 1094.31 1113.74 1094.84 1111.38 1095.24 1109.47 1095.65 1107.57 1095.97 1106.05 1096.21 1104.91 1096.45 1103.78 1096.62 1102.91 1096.73 1102.29 1096.84 1101.68 1096.91 1101.24 1096.93 1100.98 1096.95 1100.73 1096.96 1100.52 1096.96 1100.36 1096.96 1099.66 1096.69 1099.15 1096.17 1098.82 1095.64 1098.5 1094.71 1098.31 1093.38 1098.27L1093.83 1096.25ZM1100.71 1083.92 1106.7 1083.92 1105.24 1090.32 1099.25 1090.32Z" fill-rule="evenodd"/><text fill="#000000" fill-opacity="0" font-family="Arial,Arial_MSFontService,sans-serif" font-size="54.0005" x="1080.96" y="1131.17">𝑗</text><path d="M1160.23 1059.42 1165.98 1059.42 1165.98 1082.77 1188.07 1082.77 1188.07 1088.16 1165.98 1088.16 1165.98 1111.5 1160.23 1111.5 1160.23 1088.16 1138.14 1088.16 1138.14 1082.77 1160.23 1082.77Z" fill-rule="evenodd"/><text fill="#000000" fill-opacity="0" font-family="Arial,Arial_MSFontService,sans-serif" font-size="52.0776" x="1138.14" y="1104.99">+</text><path d="M1238.49 1053.22 1240.72 1053.22C1240.56 1055.81 1240.47 1059.41 1240.47 1064L1240.47 1098.61C1240.47 1100.18 1240.56 1101.36 1240.74 1102.16 1240.91 1102.95 1241.22 1103.6 1241.67 1104.1 1242.12 1104.6 1242.76 1104.99 1243.6 1105.28 1244.43 1105.56 1245.49 1105.78 1246.76 1105.93 1248.03 1106.07 1249.7 1106.18 1251.78 1106.23L1251.78 1109.19 1221.83 1109.19 1221.83 1106.23C1224.83 1106.1 1226.97 1105.91 1228.26 1105.68 1229.54 1105.45 1230.52 1105.11 1231.19 1104.65 1231.87 1104.19 1232.36 1103.54 1232.67 1102.7 1232.98 1101.87 1233.14 1100.5 1233.14 1098.61L1233.14 1065.74C1233.14 1064.66 1232.95 1063.87 1232.57 1063.37 1232.19 1062.87 1231.64 1062.62 1230.91 1062.62 1230.05 1062.62 1228.82 1063.07 1227.22 1063.96 1225.63 1064.85 1223.66 1066.08 1221.31 1067.65L1219.52 1064.53Z" fill-rule="evenodd"/><text fill="#000000" fill-opacity="0" font-family="Arial,Arial_MSFontService,sans-serif" font-size="55.9683" x="1219.52" y="1102.19">1</text><path d="M1364.26 1006.27 1462.13 1006.27 1462.13 1030.26 1456.78 1030.26C1456.16 1024.51 1454.9 1019.96 1453.01 1016.61 1451.12 1013.26 1448.26 1011.58 1444.42 1011.58L1380.47 1011.58 1428.82 1077.24 1428.82 1082.14 1376.62 1152.98 1446.93 1152.98C1450.04 1152.98 1452.42 1151.89 1454.07 1149.7 1455.71 1147.51 1457.13 1142.62 1458.32 1135.03L1464.32 1135.03 1462.25 1164.73 1362.6 1164.73 1362.6 1160.72 1419.37 1083.76 1364.26 1010.12Z" fill-rule="evenodd"/><text fill="#000000" fill-opacity="0" font-family="Arial,Arial_MSFontService,sans-serif" font-size="158.462" x="1362.6" y="1144.93">෍</text><path d="M1859.59 1035.37C1868.02 1037.59 1874.52 1043.33 1879.09 1052.59 1883.65 1061.86 1885.94 1072.83 1885.94 1085.5 1885.94 1098.17 1883.65 1109.14 1879.09 1118.41 1874.52 1127.68 1868.02 1133.42 1859.59 1135.64L1858.58 1132.31C1865.12 1129.85 1870.07 1124.5 1873.43 1116.24 1876.8 1107.99 1878.48 1097.76 1878.48 1085.54 1878.48 1073.3 1876.8 1063.05 1873.43 1054.78 1870.07 1046.52 1865.12 1041.15 1858.58 1038.69ZM1504.54 1035.37 1505.55 1038.69C1499.01 1041.15 1494.06 1046.52 1490.7 1054.78 1487.33 1063.05 1485.65 1073.3 1485.65 1085.54 1485.65 1097.76 1487.33 1107.99 1490.7 1116.24 1494.06 1124.5 1499.01 1129.85 1505.55 1132.31L1504.54 1135.64C1496.11 1133.42 1489.61 1127.68 1485.04 1118.41 1480.48 1109.14 1478.19 1098.17 1478.19 1085.5 1478.19 1072.83 1480.48 1061.86 1485.04 1052.59 1489.61 1043.33 1496.11 1037.59 1504.54 1035.37Z" fill-rule="evenodd"/><path d="M1520.72 1069.76C1522.42 1069.76 1523.77 1070.32 1524.75 1071.44 1525.74 1072.56 1526.23 1074.02 1526.23 1075.83 1526.23 1077.27 1525.91 1078.86 1525.26 1080.62L1525.75 1080.78C1528.4 1077.05 1530.91 1074.29 1533.31 1072.49 1535.7 1070.69 1538.16 1069.8 1540.7 1069.8 1543.21 1069.8 1545.15 1070.52 1546.5 1071.96 1547.85 1073.41 1548.52 1075.42 1548.52 1077.98 1548.52 1079.68 1548.13 1082.1 1547.35 1085.24L1544.71 1095.86C1543.98 1098.8 1543.62 1100.88 1543.62 1102.1 1543.62 1103.18 1543.8 1103.96 1544.15 1104.45 1544.5 1104.93 1545.05 1105.18 1545.81 1105.18 1546.62 1105.18 1547.48 1104.85 1548.4 1104.18 1549.32 1103.52 1550.62 1102.26 1552.29 1100.39L1554.6 1102.66C1552.28 1105.15 1550.25 1106.97 1548.52 1108.11 1546.79 1109.26 1544.82 1109.84 1542.61 1109.84 1540.85 1109.84 1539.45 1109.21 1538.39 1107.95 1537.34 1106.7 1536.81 1105.1 1536.81 1103.15 1536.81 1101.39 1537.26 1098.81 1538.15 1095.41L1539.93 1088.4C1540.58 1085.86 1541.01 1083.98 1541.21 1082.77 1541.41 1081.55 1541.51 1080.56 1541.51 1079.81 1541.51 1077.94 1541.2 1076.6 1540.58 1075.77 1539.96 1074.95 1538.95 1074.54 1537.54 1074.54 1536.41 1074.54 1535.18 1074.99 1533.87 1075.9 1532.56 1076.8 1531.17 1078.17 1529.7 1079.99 1528.23 1081.81 1527.04 1083.58 1526.15 1085.3 1525.26 1087.01 1524.53 1089.13 1523.96 1091.64L1520.11 1109.19 1513.1 1109.19 1519.02 1083.49C1519.61 1080.9 1519.91 1078.9 1519.91 1077.5 1519.91 1076.42 1519.74 1075.63 1519.38 1075.15 1519.03 1074.66 1518.48 1074.42 1517.72 1074.42 1516.89 1074.42 1516 1074.76 1515.07 1075.45 1514.14 1076.14 1512.86 1077.39 1511.24 1079.2L1508.93 1076.93C1511.41 1074.34 1513.48 1072.49 1515.13 1071.4 1516.78 1070.3 1518.64 1069.76 1520.72 1069.76Z" fill-rule="evenodd"/><text fill="#000000" fill-opacity="0" font-family="Arial,Arial_MSFontService,sans-serif" font-size="40.0815" x="1508.93" y="1104.83">𝑛</text><path d="M1581.3 1082.77 1631.23 1082.77 1631.23 1088.16 1581.3 1088.16Z" fill-rule="evenodd"/><text fill="#000000" fill-opacity="0" font-family="Arial,Arial_MSFontService,sans-serif" font-size="5.39014" x="1581.3" y="1087.48">−</text><path d="M1668.2 1069.76C1669.9 1069.76 1671.24 1070.32 1672.23 1071.44 1673.21 1072.56 1673.71 1074.02 1673.71 1075.83 1673.71 1077.19 1673.45 1078.58 1672.94 1080.01L1673.46 1080.21C1676.11 1076.62 1678.66 1073.98 1681.1 1072.31 1683.55 1070.63 1686.03 1069.8 1688.54 1069.8 1690.51 1069.8 1692.16 1069.94 1693.49 1070.24L1691.54 1079.32 1687.37 1079.32C1687.2 1078.19 1686.97 1077.31 1686.68 1076.69 1686.38 1076.06 1686.03 1075.63 1685.62 1075.39 1685.22 1075.15 1684.7 1075.02 1684.08 1075.02 1683.11 1075.02 1682.05 1075.44 1680.9 1076.28 1679.75 1077.12 1678.46 1078.43 1677.03 1080.21 1675.6 1081.99 1674.46 1083.71 1673.61 1085.36 1672.76 1087.01 1672.05 1089.1 1671.48 1091.64L1667.63 1109.19 1660.62 1109.19 1666.49 1083.49C1666.87 1081.87 1667.12 1080.62 1667.22 1079.73 1667.33 1078.83 1667.39 1078.09 1667.39 1077.5 1667.39 1076.42 1667.21 1075.63 1666.86 1075.15 1666.51 1074.66 1665.95 1074.42 1665.2 1074.42 1664.36 1074.42 1663.47 1074.76 1662.54 1075.45 1661.61 1076.14 1660.33 1077.39 1658.71 1079.2L1656.4 1076.93C1658.89 1074.34 1660.97 1072.49 1662.64 1071.4 1664.32 1070.3 1666.17 1069.76 1668.2 1069.76Z" fill-rule="evenodd"/><text fill="#000000" fill-opacity="0" font-family="Arial,Arial_MSFontService,sans-serif" font-size="39.4331" x="1656.4" y="1104.26">𝑟</text><path d="M1699.61 1095.92 1701.67 1095.92 1695.47 1125.11C1694.98 1127.37 1694.34 1129.31 1693.55 1130.93 1692.77 1132.55 1691.81 1133.88 1690.68 1134.91 1689.55 1135.94 1688.23 1136.7 1686.72 1137.19 1685.21 1137.67 1683.48 1137.92 1681.54 1137.92 1681.02 1137.92 1680.52 1137.89 1680.05 1137.84 1679.57 1137.79 1679.14 1137.72 1678.77 1137.62L1679.51 1134.49C1679.75 1134.59 1680.07 1134.66 1680.46 1134.69 1680.86 1134.71 1681.32 1134.73 1681.83 1134.73 1682.81 1134.73 1683.67 1134.6 1684.44 1134.34 1685.2 1134.08 1685.89 1133.62 1686.49 1132.94 1687.1 1132.27 1687.65 1131.34 1688.13 1130.16 1688.62 1128.98 1689.07 1127.46 1689.49 1125.62 1690.18 1122.4 1690.85 1119.38 1691.48 1116.56 1692.12 1113.74 1692.64 1111.38 1693.05 1109.47 1693.45 1107.57 1693.78 1106.05 1694.02 1104.91 1694.25 1103.78 1694.43 1102.91 1694.54 1102.29 1694.65 1101.68 1694.71 1101.24 1694.73 1100.98 1694.75 1100.73 1694.76 1100.52 1694.76 1100.36 1694.76 1099.66 1694.5 1099.15 1693.97 1098.82 1693.44 1098.5 1692.52 1098.31 1691.19 1098.27L1691.63 1096.25ZM1698.51 1083.92 1704.5 1083.92 1703.04 1090.32 1697.05 1090.32Z" fill-rule="evenodd"/><text fill="#000000" fill-opacity="0" font-family="Arial,Arial_MSFontService,sans-serif" font-size="54.0005" x="1678.77" y="1131.17">𝑗</text><path d="M1758.03 1059.42 1763.78 1059.42 1763.78 1082.77 1785.87 1082.77 1785.87 1088.16 1763.78 1088.16 1763.78 1111.5 1758.03 1111.5 1758.03 1088.16 1735.94 1088.16 1735.94 1082.77 1758.03 1082.77Z" fill-rule="evenodd"/><text fill="#000000" fill-opacity="0" font-family="Arial,Arial_MSFontService,sans-serif" font-size="52.0776" x="1735.94" y="1104.99">+</text><path d="M1836.29 1053.22 1838.52 1053.22C1838.36 1055.81 1838.28 1059.41 1838.28 1064L1838.28 1098.61C1838.28 1100.18 1838.37 1101.36 1838.54 1102.16 1838.72 1102.95 1839.03 1103.6 1839.47 1104.1 1839.92 1104.6 1840.56 1104.99 1841.4 1105.28 1842.24 1105.56 1843.29 1105.78 1844.56 1105.93 1845.83 1106.07 1847.51 1106.18 1849.59 1106.23L1849.59 1109.19 1819.64 1109.19 1819.64 1106.23C1822.64 1106.1 1824.78 1105.91 1826.06 1105.68 1827.34 1105.45 1828.32 1105.11 1829 1104.65 1829.67 1104.19 1830.17 1103.54 1830.48 1102.7 1830.79 1101.87 1830.94 1100.5 1830.94 1098.61L1830.94 1065.74C1830.94 1064.66 1830.75 1063.87 1830.38 1063.37 1830 1062.87 1829.44 1062.62 1828.71 1062.62 1827.85 1062.62 1826.62 1063.07 1825.03 1063.96 1823.43 1064.85 1821.46 1066.08 1819.11 1067.65L1817.33 1064.53Z" fill-rule="evenodd"/><text fill="#000000" fill-opacity="0" font-family="Arial,Arial_MSFontService,sans-serif" font-size="55.9683" x="1817.33" y="1102.19">1</text><path d="M1354.04 1006.27 1359.92 1006.27 1303.18 1164.73 1297.22 1164.73Z" fill-rule="evenodd"/><text fill="#000000" fill-opacity="0" font-family="Arial,Arial_MSFontService,sans-serif" font-size="158.462" x="1297.22" y="1144.93">൘</text></g></svg>