<svg width="1528" height="275" xmlns="http://www.w3.org/2000/svg" xmlns:xlink="http://www.w3.org/1999/xlink" overflow="hidden"><defs><clipPath id="clip0"><rect x="450" y="1316" width="1528" height="275"/></clipPath></defs><g clip-path="url(#clip0)" transform="translate(-450 -1316)"><path d="M829.335 1427.58 831.402 1430.34C827.295 1433.69 824.08 1437.48 821.757 1441.71 819.433 1445.93 818.271 1450.3 818.271 1454.82 818.271 1457.92 818.859 1460.31 820.034 1461.97 821.209 1463.63 822.864 1464.46 824.999 1464.46 826.998 1464.46 828.7 1463.65 830.105 1462.03 831.51 1460.41 832.55 1458.03 833.226 1454.9L836.549 1439.62 843.358 1439.62 840.278 1453.56C839.926 1455.15 839.751 1456.64 839.751 1458.02 839.751 1460.18 840.217 1461.79 841.149 1462.86 842.081 1463.93 843.398 1464.46 845.1 1464.46 847.343 1464.46 849.329 1463.64 851.058 1462.01 852.787 1460.38 854.131 1457.99 855.09 1454.86 856.049 1451.72 856.529 1448.08 856.529 1443.91 856.529 1441.46 856.191 1438.94 855.516 1436.36 854.84 1433.78 853.895 1431.64 852.679 1429.93L855.435 1427.58C858.137 1430.15 860.17 1432.97 861.534 1436.05 862.899 1439.13 863.581 1442.44 863.581 1445.98 863.581 1449.95 862.797 1453.61 861.23 1456.96 859.663 1460.31 857.441 1462.94 854.563 1464.83 851.686 1466.72 848.397 1467.66 844.695 1467.66 840.21 1467.66 837.143 1465.45 835.495 1461.02L835.333 1461.02C834.388 1462.5 833.395 1463.7 832.354 1464.6 831.314 1465.51 830.011 1466.25 828.444 1466.81 826.877 1467.38 825.012 1467.66 822.851 1467.66 820.77 1467.66 818.859 1467.2 817.116 1466.27 815.374 1465.33 813.962 1463.87 812.881 1461.89 811.8 1459.9 811.26 1457.46 811.26 1454.57 811.26 1449.66 812.841 1444.83 816.002 1440.11 819.163 1435.38 823.607 1431.2 829.335 1427.58Z" fill-rule="evenodd"/><text fill="#000000" fill-opacity="0" font-family="Arial,Arial_MSFontService,sans-serif" font-size="40.0815" x="811.26" y="1462.65">𝜔</text><path d="M881.254 1453.75 883.309 1453.75 877.114 1482.94C876.618 1485.2 875.977 1487.14 875.193 1488.76 874.409 1490.38 873.45 1491.7 872.319 1492.74 871.187 1493.77 869.866 1494.53 868.357 1495.01 866.848 1495.5 865.121 1495.74 863.175 1495.74 862.658 1495.74 862.162 1495.72 861.685 1495.67 861.209 1495.62 860.782 1495.54 860.405 1495.45L861.149 1492.32C861.387 1492.42 861.705 1492.48 862.102 1492.51 862.499 1492.54 862.956 1492.56 863.472 1492.56 864.445 1492.56 865.314 1492.43 866.079 1492.17 866.843 1491.91 867.528 1491.44 868.134 1490.77 868.739 1490.09 869.285 1489.17 869.772 1487.98 870.258 1486.8 870.71 1485.29 871.127 1483.44 871.822 1480.23 872.487 1477.21 873.123 1474.39 873.758 1471.57 874.279 1469.2 874.687 1467.3 875.094 1465.39 875.416 1463.87 875.655 1462.74 875.893 1461.61 876.067 1460.74 876.176 1460.12 876.285 1459.5 876.35 1459.07 876.369 1458.81 876.389 1458.55 876.399 1458.34 876.399 1458.18 876.399 1457.49 876.136 1456.98 875.61 1456.65 875.084 1456.32 874.155 1456.14 872.825 1456.1L873.272 1454.07ZM880.152 1441.74 886.139 1441.74 884.679 1448.15 878.693 1448.15Z" fill-rule="evenodd"/><text fill="#000000" fill-opacity="0" font-family="Arial,Arial_MSFontService,sans-serif" font-size="54.0005" x="860.405" y="1488.99">𝑗</text><path d="M922.165 1449.02 972.095 1449.02 972.095 1454.41 922.165 1454.41ZM922.165 1432.2 972.095 1432.2 972.095 1437.59 922.165 1437.59Z" fill-rule="evenodd"/><text fill="#000000" fill-opacity="0" font-family="Arial,Arial_MSFontService,sans-serif" font-size="22.209" x="922.165" y="1451.64">=</text><path d="M1189.23 1393.2C1197.66 1395.41 1204.16 1401.15 1208.72 1410.42 1213.29 1419.69 1215.57 1430.66 1215.57 1443.33 1215.57 1456 1213.29 1466.97 1208.72 1476.24 1204.16 1485.51 1197.66 1491.25 1189.23 1493.46L1188.21 1490.14C1194.75 1487.68 1199.7 1482.32 1203.07 1474.07 1206.43 1465.82 1208.11 1455.58 1208.11 1443.37 1208.11 1431.13 1206.43 1420.88 1203.07 1412.61 1199.7 1404.34 1194.75 1398.98 1188.21 1396.52ZM1034.56 1393.2 1035.57 1396.52C1029.03 1398.98 1024.08 1404.34 1020.72 1412.61 1017.35 1420.88 1015.67 1431.13 1015.67 1443.37 1015.67 1455.58 1017.35 1465.82 1020.72 1474.07 1024.08 1482.32 1029.03 1487.68 1035.57 1490.14L1034.56 1493.46C1026.13 1491.25 1019.63 1485.51 1015.06 1476.24 1010.5 1466.97 1008.21 1456 1008.21 1443.33 1008.21 1430.66 1010.5 1419.69 1015.06 1410.42 1019.63 1401.15 1026.13 1395.41 1034.56 1393.2Z" fill-rule="evenodd"/><path d="M1064.16 1411.05 1066.38 1411.05C1066.22 1413.64 1066.14 1417.23 1066.14 1421.83L1066.14 1456.44C1066.14 1458 1066.23 1459.19 1066.4 1459.98 1066.58 1460.78 1066.89 1461.43 1067.34 1461.93 1067.78 1462.43 1068.42 1462.82 1069.26 1463.1 1070.1 1463.39 1071.15 1463.6 1072.42 1463.75 1073.69 1463.9 1075.37 1464 1077.45 1464.06L1077.45 1467.02 1047.5 1467.02 1047.5 1464.06C1050.5 1463.92 1052.64 1463.74 1053.92 1463.51 1055.21 1463.28 1056.18 1462.94 1056.86 1462.48 1057.54 1462.02 1058.03 1461.37 1058.34 1460.53 1058.65 1459.69 1058.81 1458.33 1058.81 1456.44L1058.81 1423.57C1058.81 1422.49 1058.62 1421.7 1058.24 1421.2 1057.86 1420.7 1057.31 1420.45 1056.58 1420.45 1055.71 1420.45 1054.48 1420.9 1052.89 1421.79 1051.29 1422.68 1049.32 1423.91 1046.97 1425.47L1045.19 1422.35Z" fill-rule="evenodd"/><text fill="#000000" fill-opacity="0" font-family="Arial,Arial_MSFontService,sans-serif" font-size="55.9683" x="1045.19" y="1460.02">1</text><path d="M1142.21 1427.58C1143.91 1427.58 1145.25 1428.14 1146.24 1429.26 1147.22 1430.39 1147.72 1431.85 1147.72 1433.66 1147.72 1435.01 1147.46 1436.4 1146.95 1437.84L1147.47 1438.04C1150.12 1434.44 1152.67 1431.81 1155.11 1430.14 1157.56 1428.46 1160.04 1427.62 1162.55 1427.62 1164.52 1427.62 1166.17 1427.77 1167.5 1428.07L1165.55 1437.15 1161.38 1437.15C1161.21 1436.01 1160.98 1435.13 1160.69 1434.51 1160.39 1433.89 1160.04 1433.46 1159.63 1433.22 1159.23 1432.97 1158.71 1432.85 1158.09 1432.85 1157.12 1432.85 1156.06 1433.27 1154.91 1434.11 1153.76 1434.94 1152.47 1436.26 1151.04 1438.04 1149.61 1439.82 1148.47 1441.54 1147.62 1443.19 1146.77 1444.83 1146.06 1446.93 1145.49 1449.47L1141.64 1467.02 1134.63 1467.02 1140.5 1441.32C1140.88 1439.7 1141.13 1438.44 1141.23 1437.55 1141.34 1436.66 1141.4 1435.92 1141.4 1435.32 1141.4 1434.24 1141.22 1433.46 1140.87 1432.97 1140.52 1432.49 1139.96 1432.24 1139.21 1432.24 1138.37 1432.24 1137.48 1432.59 1136.55 1433.28 1135.62 1433.97 1134.34 1435.21 1132.72 1437.03L1130.41 1434.76C1132.9 1432.16 1134.98 1430.32 1136.65 1429.22 1138.33 1428.13 1140.18 1427.58 1142.21 1427.58Z" fill-rule="evenodd"/><text fill="#000000" fill-opacity="0" font-family="Arial,Arial_MSFontService,sans-serif" font-size="39.4331" x="1130.41" y="1462.09">𝑟</text><path d="M1173.62 1453.75 1175.68 1453.75 1169.48 1482.94C1168.99 1485.2 1168.35 1487.14 1167.56 1488.76 1166.78 1490.38 1165.82 1491.7 1164.69 1492.74 1163.56 1493.77 1162.24 1494.53 1160.73 1495.01 1159.22 1495.5 1157.49 1495.74 1155.55 1495.74 1155.03 1495.74 1154.53 1495.72 1154.06 1495.67 1153.58 1495.62 1153.15 1495.54 1152.78 1495.45L1153.52 1492.32C1153.76 1492.42 1154.08 1492.48 1154.47 1492.51 1154.87 1492.54 1155.33 1492.56 1155.84 1492.56 1156.82 1492.56 1157.68 1492.43 1158.45 1492.17 1159.21 1491.91 1159.9 1491.44 1160.5 1490.77 1161.11 1490.09 1161.66 1489.17 1162.14 1487.98 1162.63 1486.8 1163.08 1485.29 1163.5 1483.44 1164.19 1480.23 1164.86 1477.21 1165.49 1474.39 1166.13 1471.57 1166.65 1469.2 1167.06 1467.3 1167.46 1465.39 1167.79 1463.87 1168.03 1462.74 1168.26 1461.61 1168.44 1460.74 1168.55 1460.12 1168.66 1459.5 1168.72 1459.07 1168.74 1458.81 1168.76 1458.55 1168.77 1458.34 1168.77 1458.18 1168.77 1457.49 1168.51 1456.98 1167.98 1456.65 1167.45 1456.32 1166.53 1456.14 1165.2 1456.1L1165.64 1454.07ZM1172.52 1441.74 1178.51 1441.74 1177.05 1448.15 1171.06 1448.15Z" fill-rule="evenodd"/><text fill="#000000" fill-opacity="0" font-family="Arial,Arial_MSFontService,sans-serif" font-size="54.0005" x="1152.78" y="1488.99">𝑗</text><path d="M1120.24 1405.63 1126.44 1405.63 1093.29 1481.05 1087.01 1481.05Z" fill-rule="evenodd"/><text fill="#000000" fill-opacity="0" font-family="Arial,Arial_MSFontService,sans-serif" font-size="75.4214" x="1087.01" y="1471.62">Τ</text><path d="M1291.7 1364.1 1389.57 1364.1 1389.57 1388.09 1384.22 1388.09C1383.6 1382.34 1382.34 1377.78 1380.45 1374.43 1378.56 1371.08 1375.7 1369.41 1371.86 1369.41L1307.91 1369.41 1356.26 1435.06 1356.26 1439.97 1304.06 1510.81 1374.37 1510.81C1377.48 1510.81 1379.86 1509.71 1381.5 1507.53 1383.15 1505.34 1384.57 1500.45 1385.76 1492.85L1391.76 1492.85 1389.69 1522.56 1290.03 1522.56 1290.03 1518.55 1346.81 1441.59 1291.7 1367.95Z" fill-rule="evenodd"/><text fill="#000000" fill-opacity="0" font-family="Arial,Arial_MSFontService,sans-serif" font-size="158.462" x="1290.03" y="1502.75">෍</text><path d="M1586.65 1393.2C1595.08 1395.41 1601.58 1401.15 1606.14 1410.42 1610.71 1419.69 1612.99 1430.66 1612.99 1443.33 1612.99 1456 1610.71 1466.97 1606.14 1476.24 1601.58 1485.51 1595.08 1491.25 1586.65 1493.46L1585.64 1490.14C1592.17 1487.68 1597.13 1482.32 1600.49 1474.07 1603.85 1465.82 1605.53 1455.58 1605.53 1443.37 1605.53 1431.13 1603.85 1420.88 1600.49 1412.61 1597.13 1404.34 1592.17 1398.98 1585.64 1396.52ZM1431.98 1393.2 1432.99 1396.52C1426.45 1398.98 1421.5 1404.34 1418.14 1412.61 1414.77 1420.88 1413.09 1431.13 1413.09 1443.37 1413.09 1455.58 1414.77 1465.82 1418.14 1474.07 1421.5 1482.32 1426.45 1487.68 1432.99 1490.14L1431.98 1493.46C1423.55 1491.25 1417.05 1485.51 1412.48 1476.24 1407.92 1466.97 1405.63 1456 1405.63 1443.33 1405.63 1430.66 1407.92 1419.69 1412.48 1410.42 1417.05 1401.15 1423.55 1395.41 1431.98 1393.2Z" fill-rule="evenodd"/><path d="M1461.58 1411.05 1463.8 1411.05C1463.64 1413.64 1463.56 1417.23 1463.56 1421.83L1463.56 1456.44C1463.56 1458 1463.65 1459.19 1463.83 1459.98 1464 1460.78 1464.31 1461.43 1464.76 1461.93 1465.2 1462.43 1465.84 1462.82 1466.68 1463.1 1467.52 1463.39 1468.57 1463.6 1469.84 1463.75 1471.11 1463.9 1472.79 1464 1474.87 1464.06L1474.87 1467.02 1444.92 1467.02 1444.92 1464.06C1447.92 1463.92 1450.06 1463.74 1451.34 1463.51 1452.63 1463.28 1453.61 1462.94 1454.28 1462.48 1454.96 1462.02 1455.45 1461.37 1455.76 1460.53 1456.07 1459.69 1456.23 1458.33 1456.23 1456.44L1456.23 1423.57C1456.23 1422.49 1456.04 1421.7 1455.66 1421.2 1455.28 1420.7 1454.73 1420.45 1454 1420.45 1453.13 1420.45 1451.9 1420.9 1450.31 1421.79 1448.72 1422.68 1446.74 1423.91 1444.39 1425.47L1442.61 1422.35Z" fill-rule="evenodd"/><text fill="#000000" fill-opacity="0" font-family="Arial,Arial_MSFontService,sans-serif" font-size="55.9683" x="1442.61" y="1460.02">1</text><path d="M1539.63 1427.58C1541.33 1427.58 1542.67 1428.14 1543.66 1429.26 1544.65 1430.39 1545.14 1431.85 1545.14 1433.66 1545.14 1435.01 1544.88 1436.4 1544.37 1437.84L1544.9 1438.04C1547.54 1434.44 1550.09 1431.81 1552.54 1430.14 1554.98 1428.46 1557.46 1427.62 1559.97 1427.62 1561.94 1427.62 1563.59 1427.77 1564.92 1428.07L1562.97 1437.15 1558.8 1437.15C1558.63 1436.01 1558.4 1435.13 1558.11 1434.51 1557.81 1433.89 1557.46 1433.46 1557.05 1433.22 1556.65 1432.97 1556.14 1432.85 1555.51 1432.85 1554.54 1432.85 1553.48 1433.27 1552.33 1434.11 1551.18 1434.94 1549.89 1436.26 1548.46 1438.04 1547.03 1439.82 1545.89 1441.54 1545.04 1443.19 1544.19 1444.83 1543.48 1446.93 1542.91 1449.47L1539.06 1467.02 1532.05 1467.02 1537.92 1441.32C1538.3 1439.7 1538.55 1438.44 1538.65 1437.55 1538.76 1436.66 1538.82 1435.92 1538.82 1435.32 1538.82 1434.24 1538.64 1433.46 1538.29 1432.97 1537.94 1432.49 1537.38 1432.24 1536.63 1432.24 1535.79 1432.24 1534.91 1432.59 1533.97 1433.28 1533.04 1433.97 1531.76 1435.21 1530.14 1437.03L1527.83 1434.76C1530.32 1432.16 1532.4 1430.32 1534.07 1429.22 1535.75 1428.13 1537.6 1427.58 1539.63 1427.58Z" fill-rule="evenodd"/><text fill="#000000" fill-opacity="0" font-family="Arial,Arial_MSFontService,sans-serif" font-size="39.4331" x="1527.83" y="1462.09">𝑟</text><path d="M1571.05 1453.75 1573.1 1453.75 1566.91 1482.94C1566.41 1485.2 1565.77 1487.14 1564.98 1488.76 1564.2 1490.38 1563.24 1491.7 1562.11 1492.74 1560.98 1493.77 1559.66 1494.53 1558.15 1495.01 1556.64 1495.5 1554.91 1495.74 1552.97 1495.74 1552.45 1495.74 1551.95 1495.72 1551.48 1495.67 1551 1495.62 1550.57 1495.54 1550.2 1495.45L1550.94 1492.32C1551.18 1492.42 1551.5 1492.48 1551.89 1492.51 1552.29 1492.54 1552.75 1492.56 1553.26 1492.56 1554.24 1492.56 1555.11 1492.43 1555.87 1492.17 1556.63 1491.91 1557.32 1491.44 1557.93 1490.77 1558.53 1490.09 1559.08 1489.17 1559.56 1487.98 1560.05 1486.8 1560.5 1485.29 1560.92 1483.44 1561.61 1480.23 1562.28 1477.21 1562.91 1474.39 1563.55 1471.57 1564.07 1469.2 1564.48 1467.3 1564.89 1465.39 1565.21 1463.87 1565.45 1462.74 1565.68 1461.61 1565.86 1460.74 1565.97 1460.12 1566.08 1459.5 1566.14 1459.07 1566.16 1458.81 1566.18 1458.55 1566.19 1458.34 1566.19 1458.18 1566.19 1457.49 1565.93 1456.98 1565.4 1456.65 1564.88 1456.32 1563.95 1456.14 1562.62 1456.1L1563.06 1454.07ZM1569.94 1441.74 1575.93 1441.74 1574.47 1448.15 1568.48 1448.15Z" fill-rule="evenodd"/><text fill="#000000" fill-opacity="0" font-family="Arial,Arial_MSFontService,sans-serif" font-size="54.0005" x="1550.2" y="1488.99">𝑗</text><path d="M1517.66 1405.63 1523.86 1405.63 1490.71 1481.05 1484.43 1481.05Z" fill-rule="evenodd"/><text fill="#000000" fill-opacity="0" font-family="Arial,Arial_MSFontService,sans-serif" font-size="75.4214" x="1484.43" y="1471.62">Τ</text><path d="M1281.48 1364.1 1287.36 1364.1 1230.62 1522.56 1224.66 1522.56Z" fill-rule="evenodd"/><text fill="#000000" fill-opacity="0" font-family="Arial,Arial_MSFontService,sans-serif" font-size="158.462" x="1224.66" y="1502.75">൘</text></g></svg>